<svg id="Layer_1" data-name="Layer 1" xmlns="http://www.w3.org/2000/svg" viewBox="0 0 685.4 725"><defs><style>.cls-1,.cls-3,.cls-4,.cls-5,.cls-6,.cls-7,.cls-8,.cls-9{fill:#819cd1;}.cls-2{fill:none;stroke-width:49.19px;}.cls-2,.cls-3,.cls-4,.cls-5,.cls-6,.cls-7,.cls-8,.cls-9{stroke:#819cd1;}.cls-3{stroke-width:1.45px;}.cls-4{stroke-width:1.26px;}.cls-5{stroke-width:1.45px;}.cls-6{stroke-width:1.43px;}.cls-7{stroke-width:1.37px;}.cls-8{stroke-width:1.41px;}.cls-9{stroke-miterlimit:10;}</style></defs><title>debbies-dream-foundation</title><path class="cls-1" d="M52.88,443.69l-3.5.84q-9.3,2.21-11.42-6.69L36.82,433q-2.12-8.91,7.18-11.12l36.13-8.59q9.3-2.22,11.42,6.69l1.14,4.8q2.11,8.9-7.18,11.11l-6.17,1.47L77.57,430l5.64-1.34c2.13-.51,2.94-1.87,2.41-4.09l-.35-1.47c-.47-2-1.77-2.69-3.9-2.19L46.3,429.23c-2.13.5-3,1.74-2.5,3.7l.44,1.86q.7,2.94,3.9,2.18l3-.71Z"/><path class="cls-1" d="M108,468.13,65.83,485.61Q56,489.7,52.45,481.17L50,475.22q-3.51-8.46,6.4-12.57l42.05-17.46,2.93,7.06L59.1,469.8q-3.41,1.41-2.12,4.5l1.19,2.86q1.19,2.86,4.59,1.46L105,461.07Z"/><path class="cls-1" d="M113.89,479.35l8.18,12.53q4.79,7.32-3.28,12.59l-11.61,7.59q-6.17,4-10.29,1.3l-16.7,17.28-4-6.06L92.51,508,90,504.09,71,516.52l-4.18-6.4ZM95.37,500.57l2.74,4.2q1.88,2.87,5.28.64l10.17-6.65c2.27-1.48,2.79-3.18,1.54-5.09l-2.74-4.2Z"/><path class="cls-1" d="M93.7,546.81,135.34,509l5.13,5.65L98.84,552.46Z"/><path class="cls-1" d="M143.55,555.65l18.56-19.87L167.7,541l-38.4,41.12-5.59-5.22,7.65-8.19,11.5-24.32-25.14,26.92-5.58-5.22L150.54,525l5.58,5.22Z"/><path class="cls-1" d="M166.4,585.88l4.15-5.4,9.22,7.08-16.71,21.75-11.87-9.12q-7-5.38-1.22-12.9l22.63-29.45q5.86-7.65,12.87-2.26l4.17,3.2q7.7,5.91,1.73,13.68l-3.72,4.85-6.06-4.66,3-4c1.66-2.16,1.62-3.9-.1-5.22L183,562.29c-1.76-1.35-3.48-1-5.13,1.2l-21,27.34c-1.65,2.15-1.6,3.91.17,5.26l4.1,3.16,8.41-10.94Z"/><path class="cls-1" d="M232.19,603l2.24-4.4q1.53-3-1.45-4.52l-1.06-.54q-2.91-1.49-4.44,1.52l-4.23,8.31a2.72,2.72,0,0,0-.4,2.17,17.49,17.49,0,0,0,1.21,2.2l4.71,6.71a35.2,35.2,0,0,1,2.07,3.38,5.31,5.31,0,0,1,.56,2.31,9.78,9.78,0,0,1-1.33,3.85l-5.44,10.68q-4.31,8.46-12.53,4.26l-4.19-2.13q-8.15-4.15-3.46-13.37l1.28-2.51,6.81,3.46-1.39,2.73c-1,2-.47,3.45,1.56,4.48l1.21.62c1.79.91,3.19.39,4.18-1.56l4.34-8.52a2.72,2.72,0,0,0,.4-2.17,17.49,17.49,0,0,0-1.21-2.2L217,611a22.43,22.43,0,0,1-2.12-3.46,4.8,4.8,0,0,1-.37-2.69,11.06,11.06,0,0,1,1.19-3.39l5.23-10.27q4.38-8.58,12.53-4.43l4.26,2.17q8.14,4.15,3.78,12.74L239,606.51Z"/><path class="cls-1" d="M267.15,608.57l-16.58,46.58-7.2-2.56L260,606l-6.9-2.46,2.29-6.42,21,7.47L274.05,611Z"/><path class="cls-1" d="M284.4,664.45q-9.06-1.77-7.21-11.16l7.15-36.36q1.86-9.46,10.84-7.69l7.18,1.41q9,1.77,7.13,11.22l-7.16,36.37q-1.83,9.38-10.9,7.6Zm3.12-6.33,3.82.75q3,.58,3.6-2.64l7-35.37q.63-3.23-2.72-3.89l-3.52-.69c-2.18-.43-3.49.43-3.91,2.58l-7,35.37Q284.16,657.46,287.52,658.12Z"/><path class="cls-1" d="M338.74,647.19l7.5-33,8.43.11L354,670.58l-7.64-.1,1.26-36.82-6.06,26.57-5.89-.07-5.4-26.71.34,36.83-7.64-.09.71-56.26,8.43.11Z"/><path class="cls-1" d="M383.57,667.43l-7.54,1.2-7.29-46q-1.51-9.52,7.53-11l5.66-.9q9-1.43,10.55,8.09l7.29,46-7.55,1.19L389,645.71l-8.65,1.37ZM387.93,639,385,620.48q-.51-3.26-3.81-2.73l-2.05.32q-3.3.52-2.78,3.78l2.93,18.49Z"/><path class="cls-1" d="M438.26,640.84l1,3.45q2.76,9.15-6,11.8l-4.72,1.43q-8.76,2.64-11.53-6.51l-10.74-35.55q-2.76-9.15,6-11.8l4.72-1.43q8.76-2.64,11.53,6.51l1.83,6.07L423.08,617l-1.68-5.55q-.94-3.15-4.22-2.16l-1.45.44q-2.89.87-1.94,4l10.42,34.5c.63,2.1,1.92,2.86,3.85,2.27l1.82-.55q2.89-.87,1.95-4l-.89-2.93Z"/><path class="cls-1" d="M476.11,639.68l-10.33-23.36-8.59,3.8,10.33,23.36-7,3.09-22.74-51.46,7-3.09,9.66,21.86,8.59-3.79-9.66-21.86,7-3.09L483.1,636.6Z"/><path class="cls-1" d="M534,591.34l2,3q5.28,8-2.35,13l-4.12,2.73q-7.62,5.05-12.91-2.92l-20.51-31q-5.28-8,2.35-13l4.12-2.72q7.62-5.06,12.91,2.92l3.5,5.29-6.37,4.22-3.2-4.84q-1.81-2.74-4.67-.85l-1.26.83c-1.68,1.12-1.92,2.59-.7,4.42l19.9,30c1.21,1.83,2.66,2.18,4.34,1.07l1.59-1.05q2.52-1.68.71-4.42l-1.69-2.55Z"/><path class="cls-1" d="M562.55,586l-5.85,4.92-30-35.65q-6.21-7.38.79-13.27l4.38-3.69q7-5.9,13.21,1.47l30,35.66-5.84,4.92L556,564.62l-6.69,5.64Zm-11-26.61L539.5,545.08c-1.41-1.67-3-1.8-4.67-.36l-1.59,1.33q-2.55,2.16-.43,4.67L544.88,565Z"/><path class="cls-1" d="M575.58,525.79l-22.29-15.58,4.38-6.26,46.11,32.23-4.38,6.26L590.22,536l-25.7-8,30.19,21.1-4.38,6.26-46.11-32.23,4.37-6.26Z"/><path class="cls-1" d="M614.13,492.74l3.15,1.76q8.34,4.67,3.88,12.65l-2.41,4.31q-4.46,8-12.81,3.33l-32.42-18.11Q565.17,492,569.64,484l2.4-4.31q4.47-8,12.81-3.33l5.54,3.09-3.73,6.67-5.06-2.82c-1.91-1.07-3.43-.61-4.54,1.38l-.74,1.32q-1.47,2.64,1.4,4.24l31.47,17.58q2.88,1.61,4.35-1l.93-1.67c1-1.76.52-3.18-1.4-4.25l-2.67-1.49Z"/><path class="cls-1" d="M633.94,481.88l-51.77-22,7.41-17.43,6.27,2.67-4.42,10.4,15.72,6.68,3.93-9.23,6.27,2.67-3.93,9.23,17.24,7.33,4.42-10.4,6.27,2.67Z"/><path class="cls-1" d="M593.8,430.86l4.11-14.39q2.4-8.42,11.67-5.77l13.33,3.8q7.1,2,7.73,6.92l24,1.3-2,7-23.23-1.42-1.26,4.44L650,439l-2.1,7.34ZM622,431l1.37-4.82q.95-3.3-3-4.41l-11.67-3.33c-2.62-.75-4.24,0-4.86,2.17l-1.38,4.82Z"/><path class="cls-1" d="M549.69,197.76C505,216.25,439.82,291.4,468.79,389.62c-9.57,6.1-13.54,25-17.18,35.05-9,25.05-41.11,25.7-65.27,22-22.5-3.49-47-8.94-68.69-6.59C288.91,443.16,276,460.18,268,470.81c-33.29,44.25-33.94,107.7-33.94,107.7s23.46,12.71,23.46,12.71S272.61,480.05,321.38,483c24.64,1.52,34.55,35.43,83.67,54.38,48.33,18.63,89.39,1.58,113.19-13.73,34.64-22.31,47.26-59.82,46.86-90.71S543,371.37,511.5,371.8a57.66,57.66,0,0,0-14.26,1.95c-20.75-86.61,36.27-137.47,67.86-153.65Z"/><path class="cls-2" d="M51.69,362.31C51.69,200.93,182.52,70.1,343.9,70.1c117.82,0,218.26,67,264.5,167.4l1.07,2.75a291.12,291.12,0,0,1,26.64,122.06"/><path class="cls-3" d="M237.15,212.87h.65l4.74.61v.68q.09,8.43-5,37.71,14.31-14.28,25.41-14.38,8.74-.08,8.83,8.66v1.37q.19,18.45-15.9,25.7l-2.68,0q-7,.06-9.51-8l0-2.71,3.36,0a26.16,26.16,0,0,0,7.45,4.63q10-7,9.9-19.58-.71-4.72-2.07-4.71-8.08.08-23.36,17.72-4.17,3.39-6.69,3.42h-1.37q-2.69-1.33-2.71-3.33l7.61-47.16Z"/><path class="cls-3" d="M284.33,212.42H285l4.74.61v.69q.07,8.43-5,37.7Q299,237.15,310.12,237c5.82-.06,8.77,2.83,8.82,8.66l0,1.37q.18,18.45-15.91,25.7l-2.67,0c-4.68,0-7.84-2.61-9.51-8l0-2.71,3.37,0c1.84,1.72,2.66,4.65,7.44,4.63,8.16,0,10-11.2,9.9-19.58q-.71-4.72-2.07-4.71-8.09.07-23.36,17.71-4.15,3.41-6.68,3.42l-1.37,0c-1.79-.9-2.7-2-2.71-3.33l7.6-47.16Z"/><path class="cls-3" d="M330.43,225.42v.69l1.33-.7h.68c.89.14,1.34.58,1.35,1.33l-4.26,45.78-1.33.7h-.69c-1.46,0-2.61-2.68-3.43-8.06l0-4.05q-.12-12.92,3.06-31.61l-.7-1.36Q327.07,225.46,330.43,225.42Zm-.76-11.1H331l3.37.65q.06,5.39-6.67,5.45H327c-1.36-.44-2-1.79-2.06-4v-.65Z"/><path class="cls-3" d="M366.47,227.62c5.3-.05,9.49,4.42,11,12.93q-10.05,15.57-24.06,15.7.8,1.8,6.11,4.64l3.2.45a14.43,14.43,0,0,0,2.51-.18l1.67-.34q4.42-2,6.05-2.05l1.93,0a8.7,8.7,0,0,1-.71,3.15l-.4,1.57-.77.64q-9.32,2.78-12.76,2.8c-6.38.07-12.6-2.52-16.21-9.27-1.18-2.21-1.89-3.47-5.45-6.67a5,5,0,0,0-.7-2c0-1.18,1.09-2.31,3.32-3.39a5,5,0,0,0,2,.67q6.06-13.94,17.31-18.34ZM350,249.56l3.36,0q11.21-.1,18.08-9.6c-.93-4.48-3.2-6.69-6.79-6.66h-.68q-7.86.08-14,15.6Z"/><path class="cls-4" d="M391.61,207c2.89,0,4.46.54,4.7,1.69l0,1.19q.1,12-9.67,27l-4.07,1.2a4.07,4.07,0,0,1-.61-1.75q8.55-21.48,8.48-28.72Z"/><path class="cls-3" d="M405.09,228.75c7,2,10.14,5.77,10.17,9.3-.65,1.81-1.3,2.72-2,2.72-3.62-4.44-6.07-6-8.8-6.63l-2,0c-.9,0-1.33.67-1.32,2,.54,3.17,8.52,7.45,21.64,14.61,3.15,1.71,4.09,5,4.12,8q.09,8.93-15.36,10.91l-2,0q-8.59.09-10.16-8l-.05-5.38c.24-2.71.91-4.06,2-4.07h1.34q1.68,12.09,8.17,12h.69c5.46-.06,10.14-3.66,9.33-6.81-.63-2.47-5.41-5-13.52-8.62-8.51-3.81-12.19-8.58-12.22-12v-.69A7.69,7.69,0,0,1,405.09,228.75Z"/><path class="cls-5" d="M107.86,268.75l3.13,0q8.94-.09,52.23,22.4,17.78,11.67,17.94,28.94v1.06c.17,17.29-15.87,34.57-40.17,41a42.76,42.76,0,0,1-11.06,1.51c-14.29.14-25.38-7.61-25.48-17.81l0-3.13c-.05-4.85,1.67-7.28,5.13-7.32a7.6,7.6,0,0,0,3.14,1l0,5.2c1.61,10.54,8.22,11.39,15.7,13.37l10.39-.1q33.15-12.93,32.94-34.63-.18-19.33-35.64-33l1.16,10.44.06,6.2c0,.71,0,3.13,0,3.13a253.32,253.32,0,0,0,3.48,41.6c0,2.4-3.07,4.17-9.28,5.28-1.38,0-1-15.59-6.7-45.7-5.08-27-12.25-34.24-19-34.18l-1-2Q104.79,270.41,107.86,268.75Z"/><path class="cls-5" d="M204.72,315.63c-1.7,26.63-7.42,39.28-11.87,43.11l-1.53.72c-4.84.05-4.16-3.06-4.22-9.28l-.08-8.33q-.2-20.49,2-32.79,2-10.94,4.8-11l3.13,0c1.13,0,0,7.56,4.25,6.22,9.95-3.12,24.15-.42,29.14,2.85l0,2.06c0,2-1.36,3-4.15,3.18C226.25,312.37,211.53,311.78,204.72,315.63Z"/><path class="cls-5" d="M270,294.23q12.31-.11,15.78,19.63-15.56,24.06-37.21,24.28c.82,1.85,4.39,5.73,9.46,7.17l5.11.52a23.52,23.52,0,0,0,4-.15l2.27-.48q6.85-3.15,9.35-3.17l3.13,0a13.09,13.09,0,0,1-1.69,5.31l-.82,1.69-.54,1.36q-14.38,4.26-19.73,4.32c-9.85.1-21.47-3.05-25.07-14.34-.64-2-5.66-8.46-8.42-10.31-.62-.41-.37-1.78-1.09-3.12,0-1.83,1.75-4.4,5.14-5.25,1.48-.36,2.4,1,3.14,1q9.38-21.57,26.77-28.37Zm-26.72,33.56,5.2-.05q17.31-.17,28-14.85-2.18-10.36-10.5-10.29h-1.06q-12.17.11-21.61,24.12Z"/><path class="cls-6" d="M318.74,286.76c13.25-.12,28.27,17.21,31.52,35,2.8,15.31,3.36,24.09,3.38,26.2a7.63,7.63,0,0,0-1,3.05,28.91,28.91,0,0,1,1.09,7c-.65,2.71-2.7,4.08-6.17,4.12h-1.06q-5.91.06-7.33-7l-2.13-1-20.75,3.24c-11.75.11-20.87-5.14-28.63-15.83l0-3c-.05-4.88,4.05-9.82,13.8-14.28a30.24,30.24,0,0,1,10.36-3.13h1c12.41-.12,19.51,2.82,23,7.86,1,1.47,2.09,2.37,3.17,4h1l0-2c-.13-13-9.47-32.4-20.08-36.12l-9.38.09-1.06-5v-1ZM300.5,336.38l0,2c2.08,6,6.44,6.91,18.51,9.43-.66-.14,4.81.42,7.57.4,1.29,0,4-.71,8.31-2.09q-9.07-18.08-22-17.95Q307.36,328.24,300.5,336.38Z"/><path class="cls-7" d="M377.25,295.13l1.71.12,4.12,1.47-5,25,.81.05c10.61-20.8,8.38-24.9,12.12-27.51l5,1.43a2,2,0,0,1,1.51,2.4l5.05,31.3c11.5-18.5,11.38-29.6,15.3-29.32l.82.05c3.56.26,5.21,1.85,11.07,24.86,2,7.92,8.29,20.37,17,32.3l-.08,1.16c-.08,1.1-1,2.18-2.77,3.27-10.42-.75-23.51-24.63-26.29-38.2l-.85-.06c-9.8,17.74-10.42,29.82-15.38,29.47l-1.72-.12c-4.5-.33-6.22-10.55-9.13-25.1l.16-2.33-.82-.06c-8.83,10.85-7.31,15-19.2,30.48-1.79,2.32-8-.29-7.28-4.47,1.77-9.65,4.31-26.38,12-55.13Z"/><path class="cls-8" d="M97.21,371.75l2.68,0a114.48,114.48,0,0,1,22.54,1.64q7.47,1.44,7.49,2.91v.51a.94.94,0,0,0-1,1.08l-4.84.05A123,123,0,0,1,110.1,377l.1,10.19q.06,6.42,1.67,6.4c.71,0,1.07.17,1.07.54l1.08-.56a.47.47,0,0,1,.53.54,4.19,4.19,0,0,1,1.6-.56l14.47-.66a.47.47,0,0,0,.53.52.47.47,0,0,1,.54-.53l.57,2.67a70,70,0,0,1-17.67,2.85l-3.19,0q1.14,8.53,3.38,19.25a6.14,6.14,0,0,1-5.33,2.73q-3.32,0-4.54-26.2a3.75,3.75,0,0,0,.53-1.63q-2.82-17.12-10.87-17L94,374.46v-1.07C94.36,372.31,95.43,371.76,97.21,371.75Z"/><path class="cls-8" d="M146.79,387.88,151.1,390c2.54-.39,4-.58,4.28-.59q6.75-.06,10.26,10.09l0,2.13q-4.51,14-20.21,14.12-11.3-3.66-11.36-11.14l0-3.74Q135.71,388,146.79,387.88Zm-6.32,12.91v.53q1.77,9.09,5.46,9.06l2.68.5q7.06-.08,10.62-9.2v-.54q-.81-7-7-6.9l0,2.7q0,2.13-6.94,2.2a4,4,0,0,1-.56-1.61,12.1,12.1,0,0,1,1.05-4.29h-1.62C141.68,395.55,140.45,398.07,140.47,400.79Z"/><path class="cls-8" d="M174.65,387.15c1.79,0,2.68.69,2.7,2.11a63.51,63.51,0,0,0-1.49,12.36v.52a.47.47,0,0,1-.52.55,8.14,8.14,0,0,0,2.74,6.39h.52q6-4.45,13.22-19.95a6.92,6.92,0,0,1,2.71-.67,6.35,6.35,0,0,1,2.7.41l0,4c0,.79.66,1.41.56,2.12a15.44,15.44,0,0,0,0,2.17c0,3.93,2.09,8,7.14,12.24v1.07c0,.51-.53,1.05-1.6,1.62q-7.46.07-11.35-10.07h-1.06q-6.82,12.38-13.81,12.45-5.35,0-7.59-8.51l0-4.8q1.33-13.41,3.09-13.42A4.34,4.34,0,0,1,174.65,387.15Z"/><path class="cls-8" d="M213.53,388.52q2.67,0,3.24,2.1-2.58,10.49-2.54,13.95v1.07Q229.58,391,232.83,391c2.52,0,3.79,2.46,3.84,7.45q.12,11.79,6,11.74l3.19-.58,0,2.15c-.77,1.8-2.55,2.71-5.32,2.73l-1.07,0q-8.22.08-9.76-12.78l0-2.67q-.58,0-13.29,12.44-2.77,2.72-5.33,2.73c-2.22-.69-3.48-1.56-3.77-2.64l0-4.81q0-2,2.51-17.17Z"/><path class="cls-9" d="M291.87,416.1l-2.13,0c-4.11,0-7.78-3.12-10.91-9.38a27.94,27.94,0,0,1-2.64-7.3c-7,11-12.59,16.42-17,16.46l-4.29,0c-3.77,0-7.43-2.77-7.73-8l0-1.78c.18-14.91,11.22-22.46,18.13-22.53,3.82,0,7.76,2,5.61,10.68l.53-1.32c2.78-10.39,3.38-11.55,3.93-17l.49-2.75c1-2.86,2.09-4.61,5.19-4.95,1.41.24,2.87.66,2.88,1.77-1.68,10.25-2.51,16.7-2.49,19.3V391a1.22,1.22,0,0,1-.28.84l.3.74,0,1.61c.09,9.51,6.18,15.56,13.79,17.78l.49.15,0,1.82C295.28,415.37,294,416.08,291.87,416.1Zm-30.51-24.82c-3.29,4-6.94,11.05-6.9,14.84-.06,4,3,4.1,3.62,4.09.86,0,2.91-.93,7.18-6.83-1.88-.35.1-3.15.06-6.85C265.77,390.57,265,388.34,261.36,391.28Z"/><path class="cls-8" d="M309.43,378.28c6.82-.07,13.56,5.9,16.24,18.58a68.88,68.88,0,0,1,1.74,13.91,3.92,3.92,0,0,0-.5,1.61,16.64,16.64,0,0,1,.55,3.74q-.49,2.17-3.18,2.19h-.54c-2,0-3.29-1.22-3.78-3.71l-1.09-.54-10.69,1.72c-6.05,0-14.06-4.84-15.08-8.43v-1.61c0-2.6,1.63-5.85,6.76-8a17.09,17.09,0,0,1,6-1.26h.53c6.15.17,9.5,1.63,11.83,4.18a7.46,7.46,0,0,1,1.63,2.11h.52v-1.07c-.06-6.92-5.31-19.27-10.35-19.18l-4.83.05-.54-2.68v-.54ZM300,404.62v1.06c1.07,3.2,7.5,4.16,10.55,4.65a10.14,10.14,0,0,0,2.94.2,15.34,15.34,0,0,0,4.22-.73q-4.67-9.6-11.34-9.53A7.58,7.58,0,0,0,300,404.62Z"/><path class="cls-8" d="M342.67,367.77l3.74,0c.71.11,1.08.45,1.08,1.05v1.09l-5.15,20.94q8-2.24,11.23-2.26l2.68,0v1.61q-5.52,3.28-15.48,6.05-.46,5.56-.46,6.42,2.22,11.77,11.36,11.7l2.13,0,0,1.57q-.7,2.17-4.81,2.21l-1.59,0q-12.88-4.06-13-13.81l-.06-5.9.54-1.07c-3.22,0-4.85-1-4.87-3.17,0-1,1.95-2,5.87-3.26Z"/><path class="cls-8" d="M365.33,380.41V381l1.06-.56h.55c.71.11,1.07.46,1.07,1.06l-3.39,36.46-1.06.56H363c-1.17,0-2.09-2.12-2.74-6.42l0-3.22a147.5,147.5,0,0,1,2.44-25.18l-.56-1.08C362.48,381.15,363.54,380.43,365.33,380.41Zm-.61-9.13h1.07l2.68.51q0,4.29-5.32,4.34h-.54c-1.07-.36-1.63-1.42-1.64-3.21v-.52Z"/><path class="cls-8" d="M384.72,385.59l4.3,2.11c2.54-.39,4-.58,4.29-.59Q400,387,403.57,397.2l0,2.13q-4.53,14-20.21,14.12-11.29-3.66-11.36-11.14l0-3.75Q373.65,385.69,384.72,385.59ZM378.4,398.5V399c1.19,6.06,3,9.08,5.47,9.06l2.68.5q7.06-.07,10.62-9.2v-.54q-.81-7-7-6.9l-.24,1.55c0,1.42-2.14,3.09-5.27,2.09a1.92,1.92,0,0,1-1.24-1.42c0-1.08-.39-1.43.31-3.22h-1.6C379.6,393.26,378.37,395.78,378.4,398.5Z"/><path class="cls-8" d="M412.64,386.6c1.79,0,2.86.69,3.24,2.1-1.71,7-2.57,11.64-2.54,14v1.06q15.34-14.6,18.6-14.62,3.75,0,3.83,7.44.12,11.81,6,11.74l3.19-.58,0,2.16c-.78,1.79-2.55,2.7-5.33,2.73h-1.06q-8.24.07-9.77-12.77l0-2.67q-.57,0-13.29,12.44c-1.85,1.8-3.62,2.71-5.33,2.73-2.22-.69-3.47-1.57-3.77-2.65l0-4.8q0-2,2.51-17.18Z"/><path class="cls-3" d="M215.6,229.07c5.31,0,9.5,4.43,11,12.93q-10.07,15.57-24.06,15.7.78,1.8,6.11,4.64l3.19.46a14.56,14.56,0,0,0,2.52-.19l1.67-.34c2.95-1.35,5-2,6-2l2,0c-.85,2.05-1.74,3.17-2.67,3.39l.7,1.33v.69q-9.3,2.76-12.76,2.8c-6.37.06-12.59-2.53-16.21-9.28-1.18-2.21-1.89-3.47-5.45-6.66a4.68,4.68,0,0,0-.7-2q0-1.78,3.33-3.4a4.9,4.9,0,0,0,2,.67q6.06-13.93,17.32-18.34ZM199.1,251l3.36,0q11.21-.1,18.08-9.6c-.93-4.47-3.2-6.69-6.78-6.66h-.69q-7.86.08-14,15.6Z"/><path class="cls-3" d="M136,212.65l2,0q5.81-.06,33.93,14.55,11.53,7.57,11.65,18.8v.69c.1,11.23-10.32,22.46-26.09,26.6a28.35,28.35,0,0,1-7.19,1c-9.28.09-16.49-4.95-16.55-11.58l0-2q0-4.72,3.33-4.75a5.13,5.13,0,0,0,2,.64l0,3.37c1,6.85,5.34,7.4,10.21,8.69l6.74-.07q21.54-8.4,21.4-22.49-.12-12.57-23.16-21.41l.76,6.78,0,4c0,.46,0,2,0,2a163.63,163.63,0,0,0,2.26,27c0,1.56-2,2.7-6,3.43-.9,0-.68-10.13-4.35-29.68-3.3-17.55-8-22.24-12.37-22.2L134,214.7C134,214.05,134.65,213.37,136,212.65Z"/></svg>