<?xml version="1.0" encoding="utf-8"?>
<!-- Generator: Adobe Illustrator 22.0.1, SVG Export Plug-In . SVG Version: 6.00 Build 0)  -->
<svg version="1.1" id="Capa_1" xmlns="http://www.w3.org/2000/svg" xmlns:xlink="http://www.w3.org/1999/xlink" x="0px" y="0px"
	 viewBox="0 0 1920 271" style="enable-background:new 0 0 1920 271;" xml:space="preserve">
<style type="text/css">
	.st0{clip-path:url(#SVGID_2_);}
	.st1{fill:#376996;}
	.st2{fill:#FFC145;}
	.st3{fill:#90ACD7;}
</style>
<g>
	<defs>
		<rect id="SVGID_1_" y="0" width="1920" height="271"/>
	</defs>
	<clipPath id="SVGID_2_">
		<use xlink:href="#SVGID_1_"  style="overflow:visible;"/>
	</clipPath>
	<g class="st0">
		<g>
			<path class="st1" d="M806.8,83.4c31.9-71.9,82.8-80.9,82.8-80.9s-40-1-58.7,1.6c-17.4,2.5-50.9,4.8-84.4,80.5
				c-4.5,10.2-48,104.7-48,104.7c-32.2,71.6-82.8,80.5-82.8,80.5s37.4,1,58.7-1.6c17.4-2.2,50.9-4.5,84.5-80.2
				C758.5,188.1,803.3,90.7,806.8,83.4z"/>
			<path class="st1" d="M979.3,83.4c31.9-71.9,82.8-80.9,82.8-80.9s-40-1-58.7,1.6c-17.1,2.5-50.6,4.8-84.1,80.5
				c-4.5,10.2-48,104.7-48,104.7c-32.2,71.6-83.2,80.5-83.2,80.5s37.4,1,58.7-1.6c17.4-2.2,50.9-4.5,84.5-80.2
				C931.3,188.1,976.1,90.7,979.3,83.4z"/>
			<path class="st1" d="M325.9,83.4c31.9-71.9,82.8-80.9,82.8-80.9s-40-1-58.7,1.6c-17.4,2.5-50.9,4.8-84.4,80.5
				c-4.5,10.2-48,104.7-48,104.7c-32.2,71.6-82.8,80.5-82.8,80.5s37.4,1,58.7-1.6c17.4-2.2,50.9-4.5,84.5-80.2
				C277.6,188.1,322.4,90.7,325.9,83.4z"/>
			<path class="st1" d="M498.4,83.4c31.9-71.9,82.8-80.9,82.8-80.9s-40-1-58.7,1.6c-17.1,2.5-50.6,4.8-84.1,80.5
				c-4.5,10.2-48,104.7-48,104.7c-32.2,71.6-83.2,80.5-83.2,80.5s37.4,1,58.7-1.6c17.4-2.2,50.9-4.5,84.4-80.2
				C450.3,188.1,495.1,90.7,498.4,83.4z"/>
			<path class="st1" d="M-159.8,83.4C-127.9,11.4-77,2.5-77,2.5s-40-1-58.7,1.6c-17.4,2.5-50.9,4.5-84.5,80.2
				c-4.5,10.2-48,104.7-48,104.7c-32.2,71.9-82.8,80.9-82.8,80.9s37.4,1,58.7-1.6c17.4-2.2,50.9-4.5,84.5-80.2
				C-208.2,188.1-163.1,90.7-159.8,83.4z"/>
			<path class="st1" d="M12.6,83.4C44.8,11.4,95.5,2.5,95.5,2.5s-40-1-58.7,1.6C19.4,6.7-14.1,8.6-47.7,84.3
				c-4.5,10.2-48,104.7-48,104.7c-31.9,71.9-82.8,80.9-82.8,80.9s37.4,1,58.7-1.6c17.4-2.2,50.9-4.5,84.5-80.2
				C-35.4,188.1,9.4,90.7,12.6,83.4z"/>
			<path class="st1" d="M1768.7,83.4c31.9-71.9,82.8-80.9,82.8-80.9s-40-1-58.7,1.6c-17.4,2.5-50.9,4.8-84.4,80.5
				c-4.5,10.2-48,104.7-48,104.7c-32.2,71.6-82.8,80.5-82.8,80.5s37.4,1,58.7-1.6c17.4-2.2,50.9-4.5,84.5-80.2
				C1720.3,188.1,1765.1,90.7,1768.7,83.4z"/>
			<path class="st1" d="M1941.1,83.4C1973,11.4,2024,2.5,2024,2.5s-40-1-58.7,1.6c-17.1,2.5-50.6,4.8-84.1,80.5
				c-4.5,10.2-48,104.7-48,104.7c-32.2,71.6-83.2,80.5-83.2,80.5s37.4,1,58.7-1.6c17.4-2.2,50.9-4.5,84.5-80.2
				C1893.1,188.1,1937.9,90.7,1941.1,83.4z"/>
			<path class="st1" d="M1287.8,83.4c31.9-71.9,82.8-80.9,82.8-80.9s-40-1-58.7,1.6c-17.4,2.5-50.9,4.8-84.4,80.5
				c-4.5,10.2-48,104.7-48,104.7c-32.2,71.6-82.8,80.5-82.8,80.5s37.4,1,58.7-1.6c17.4-2.2,50.9-4.5,84.5-80.2
				C1239.4,188.1,1284.2,90.7,1287.8,83.4z"/>
			<path class="st1" d="M1460.2,83.4c31.9-71.9,82.8-80.9,82.8-80.9s-40-1-58.7,1.6c-17.1,2.5-50.6,4.8-84.1,80.5
				c-4.5,10.2-48,104.7-48,104.7c-32.2,71.6-83.2,80.5-83.2,80.5s37.4,1,58.7-1.6c17.4-2.2,50.9-4.5,84.5-80.2
				C1412.2,188.1,1457,90.7,1460.2,83.4z"/>
		</g>
		<g>
			<path class="st2" d="M925.1,32.1c3.9,0,7.1,3.2,7.1,7v106c0,3.8-3.2,7-7.1,7c-3.9,0-7.1-3.2-7.1-7V39.5
				C918,35.3,921.3,32.1,925.1,32.1z"/>
			<path class="st2" d="M749.8,130.5c3.9,0,7.1,3.2,7.1,7v96.8c0,3.8-3.2,7-7.1,7c-3.9,0-7.1-3.2-7.1-7v-96.8
				C742.7,133.7,745.9,130.5,749.8,130.5z"/>
			<path class="st2" d="M881.3,5.4c3.9,0,7.1,3.2,7.1,7v210.1c0,3.8-3.2,7-7.1,7c-3.9,0-7.1-3.2-7.1-7V12.4
				C874.2,8.6,877.4,5.4,881.3,5.4z"/>
			<path class="st2" d="M793.6,53.1c3.9,0,7.1,3.2,7.1,7v200.2c0,3.8-3.2,7-7.1,7c-3.9,0-7.1-3.2-7.1-7V60.5
				C786.5,56.3,789.8,53.1,793.6,53.1z"/>
			<path class="st2" d="M837.5,13c3.9,0,7.1,3.2,7.1,7v231.7c0,3.8-3.2,7-7.1,7c-3.9,0-7.1-3.2-7.1-7V20
				C830.4,16.2,833.6,13,837.5,13z"/>
			<path class="st2" d="M694.7,142.9c3.9,0,7.1,3.2,7.1,7v85.9c0,3.8-3.2,7-7.1,7c-3.9,0-7.1-3.2-7.1-7v-85.9
				C687.3,146.1,690.5,142.9,694.7,142.9z"/>
			<path class="st2" d="M650.8,50.6c3.9,0,7.1,3.2,7.1,7V255c0,3.8-3.2,7-7.1,7c-3.9,0-7.1-3.2-7.1-7V57.6
				C643.4,53.8,646.6,50.6,650.8,50.6z"/>
			<path class="st2" d="M563.2,5.4c3.9,0,7.1,3.2,7.1,7v227c0,3.8-3.2,7-7.1,7c-3.9,0-7.1-3.2-7.1-7v-227
				C556.1,8.6,559.3,5.4,563.2,5.4z"/>
			<rect x="602.5" y="24.8" class="st2" width="14.5" height="239.1"/>
			<path class="st2" d="M444.2,32.1c3.9,0,7.1,3.2,7.1,7v106c0,3.8-3.2,7-7.1,7c-3.9,0-7.1-3.2-7.1-7V39.5
				C437.1,35.3,440.3,32.1,444.2,32.1z"/>
			<path class="st2" d="M268.9,130.5c3.9,0,7.1,3.2,7.1,7v96.8c0,3.8-3.2,7-7.1,7c-3.9,0-7.1-3.2-7.1-7v-96.8
				C261.8,133.7,265,130.5,268.9,130.5z"/>
			<path class="st2" d="M400.4,5.4c3.9,0,7.1,3.2,7.1,7v210.1c0,3.8-3.2,7-7.1,7c-3.9,0-7.1-3.2-7.1-7V12.4
				C393.3,8.6,396.5,5.4,400.4,5.4z"/>
			<path class="st2" d="M312.7,53.1c3.9,0,7.1,3.2,7.1,7v200.2c0,3.8-3.2,7-7.1,7c-3.9,0-7.1-3.2-7.1-7V60.5
				C305.6,56.3,308.8,53.1,312.7,53.1z"/>
			<path class="st2" d="M356.5,13c3.9,0,7.1,3.2,7.1,7v231.7c0,3.8-3.2,7-7.1,7c-3.9,0-7.1-3.2-7.1-7V20
				C349.4,16.2,352.7,13,356.5,13z"/>
			<path class="st2" d="M213.7,142.9c3.9,0,7.1,3.2,7.1,7v85.9c0,3.8-3.2,7-7.1,7c-3.9,0-7.1-3.2-7.1-7v-85.9
				C206.3,146.1,209.6,142.9,213.7,142.9z"/>
			<path class="st2" d="M38.4,17.8c3.9,0,7.1,3.2,7.1,7v116.8c0,3.8-3.2,7-7.1,7c-3.9,0-7.1-3.2-7.1-7V24.8
				C31.3,21,34.5,17.8,38.4,17.8z"/>
			<path class="st2" d="M169.9,50.6c3.9,0,7.1,3.2,7.1,7V255c0,3.8-3.2,7-7.1,7c-3.9,0-7.1-3.2-7.1-7V57.6
				C162.5,53.8,165.7,50.6,169.9,50.6z"/>
			<path class="st2" d="M-273.6,142.9c3.9,0,7.1,3.2,7.1,7v85.9c0,3.8-3.2,7-7.1,7c-3.9,0-7.1-3.2-7.1-7v-85.9
				C-280.7,146.1-277.5,142.9-273.6,142.9z"/>
			<path class="st2" d="M-317.5,50.6c3.9,0,7.1,3.2,7.1,7V255c0,3.8-3.2,7-7.1,7c-3.9,0-7.1-3.2-7.1-7V57.6
				C-324.6,53.8-321.3,50.6-317.5,50.6z"/>
			<path class="st2" d="M82.2,5.4c3.9,0,7.1,3.2,7.1,7v227c0,3.8-3.2,7-7.1,7c-3.9,0-7.1-3.2-7.1-7v-227C75.1,8.6,78.4,5.4,82.2,5.4
				z"/>
			<rect x="121.6" y="24.8" class="st2" width="14.5" height="239.1"/>
			<path class="st2" d="M-41.5,32.1c3.9,0,7.1,3.2,7.1,7v104.4c0,3.8-3.2,7-7.1,7c-3.9,0-7.1-3.2-7.1-7V39.5
				C-48.6,35.3-45.4,32.1-41.5,32.1z"/>
			<path class="st2" d="M-216.6,130.5c3.9,0,7.1,3.2,7.1,7v96.8c0,3.8-3.2,7-7.1,7c-3.9,0-7.1-3.2-7.1-7v-96.8
				C-224,133.7-220.8,130.5-216.6,130.5z"/>
			<path class="st2" d="M-85.4,5.4c3.9,0,7.1,3.2,7.1,7v210.1c0,3.8-3.2,7-7.1,7c-3.9,0-7.1-3.2-7.1-7V12.4
				C-92.5,8.6-89.2,5.4-85.4,5.4z"/>
			<path class="st2" d="M-173.1,53.1c3.9,0,7.1,3.2,7.1,7v200.2c0,3.8-3.2,7-7.1,7c-3.9,0-7.1-3.2-7.1-7V60.5
				C-180.1,56.3-176.9,53.1-173.1,53.1z"/>
			<path class="st2" d="M-129.2,13c3.9,0,7.1,3.2,7.1,7v231.7c0,3.8-3.2,7-7.1,7c-3.9,0-7.1-3.2-7.1-7V20
				C-136.3,16.2-133.1,13-129.2,13z"/>
			<path class="st2" d="M519.3,17.8c3.9,0,7.1,3.2,7.1,7v116.8c0,3.8-3.2,7-7.1,7c-3.9,0-7.1-3.2-7.1-7V24.8
				C512.2,21,515.5,17.8,519.3,17.8z"/>
			<path class="st2" d="M1887,32.1c3.9,0,7.1,3.2,7.1,7v106c0,3.8-3.2,7-7.1,7c-3.9,0-7.1-3.2-7.1-7V39.5
				C1879.9,35.3,1883.1,32.1,1887,32.1z"/>
			<path class="st2" d="M1711.6,130.5c3.9,0,7.1,3.2,7.1,7v96.8c0,3.8-3.2,7-7.1,7c-3.9,0-7.1-3.2-7.1-7v-96.8
				C1704.5,133.7,1707.8,130.5,1711.6,130.5z"/>
			<path class="st2" d="M1843.1,5.4c3.9,0,7.1,3.2,7.1,7v210.1c0,3.8-3.2,7-7.1,7c-3.9,0-7.1-3.2-7.1-7V12.4
				C1836.1,8.6,1839.3,5.4,1843.1,5.4z"/>
			<path class="st2" d="M1755.5,53.1c3.9,0,7.1,3.2,7.1,7v200.2c0,3.8-3.2,7-7.1,7c-3.9,0-7.1-3.2-7.1-7V60.5
				C1748.4,56.3,1751.6,53.1,1755.5,53.1z"/>
			<path class="st2" d="M1799.3,13c3.9,0,7.1,3.2,7.1,7v231.7c0,3.8-3.2,7-7.1,7c-3.9,0-7.1-3.2-7.1-7V20
				C1792.2,16.2,1795.4,13,1799.3,13z"/>
			<path class="st2" d="M1656.5,142.9c3.9,0,7.1,3.2,7.1,7v85.9c0,3.8-3.2,7-7.1,7c-3.9,0-7.1-3.2-7.1-7v-85.9
				C1649.1,146.1,1652.3,142.9,1656.5,142.9z"/>
			<path class="st2" d="M1612.7,50.6c3.9,0,7.1,3.2,7.1,7V255c0,3.8-3.2,7-7.1,7c-3.9,0-7.1-3.2-7.1-7V57.6
				C1605.3,53.8,1608.5,50.6,1612.7,50.6z"/>
			<path class="st2" d="M1525,5.4c3.9,0,7.1,3.2,7.1,7v227c0,3.8-3.2,7-7.1,7c-3.9,0-7.1-3.2-7.1-7v-227
				C1517.9,8.6,1521.1,5.4,1525,5.4z"/>
			<rect x="1564.3" y="24.8" class="st2" width="14.5" height="239.1"/>
			<path class="st2" d="M1406.1,32.1c3.9,0,7.1,3.2,7.1,7v106c0,3.8-3.2,7-7.1,7c-3.9,0-7.1-3.2-7.1-7V39.5
				C1399,35.3,1402.2,32.1,1406.1,32.1z"/>
			<path class="st2" d="M1230.7,130.5c3.9,0,7.1,3.2,7.1,7v96.8c0,3.8-3.2,7-7.1,7c-3.9,0-7.1-3.2-7.1-7v-96.8
				C1223.6,133.7,1226.8,130.5,1230.7,130.5z"/>
			<path class="st2" d="M1362.2,5.4c3.9,0,7.1,3.2,7.1,7v210.1c0,3.8-3.2,7-7.1,7c-3.9,0-7.1-3.2-7.1-7V12.4
				C1355.1,8.6,1358.4,5.4,1362.2,5.4z"/>
			<path class="st2" d="M1274.5,53.1c3.9,0,7.1,3.2,7.1,7v200.2c0,3.8-3.2,7-7.1,7c-3.9,0-7.1-3.2-7.1-7V60.5
				C1267.5,56.3,1270.7,53.1,1274.5,53.1z"/>
			<path class="st2" d="M1318.4,13c3.9,0,7.1,3.2,7.1,7v231.7c0,3.8-3.2,7-7.1,7c-3.9,0-7.1-3.2-7.1-7V20
				C1311.3,16.2,1314.5,13,1318.4,13z"/>
			<path class="st2" d="M1175.6,142.9c3.9,0,7.1,3.2,7.1,7v85.9c0,3.8-3.2,7-7.1,7c-3.9,0-7.1-3.2-7.1-7v-85.9
				C1168.2,146.1,1171.4,142.9,1175.6,142.9z"/>
			<path class="st2" d="M1000.2,17.8c3.9,0,7.1,3.2,7.1,7v116.8c0,3.8-3.2,7-7.1,7c-3.9,0-7.1-3.2-7.1-7V24.8
				C993.1,21,996.4,17.8,1000.2,17.8z"/>
			<path class="st2" d="M1131.8,50.6c3.9,0,7.1,3.2,7.1,7V255c0,3.8-3.2,7-7.1,7c-3.9,0-7.1-3.2-7.1-7V57.6
				C1124.3,53.8,1127.6,50.6,1131.8,50.6z"/>
			<path class="st2" d="M1044.1,5.4c3.9,0,7.1,3.2,7.1,7v227c0,3.8-3.2,7-7.1,7c-3.9,0-7.1-3.2-7.1-7v-227
				C1037,8.6,1040.2,5.4,1044.1,5.4z"/>
			<rect x="1083.4" y="24.8" class="st2" width="14.5" height="239.1"/>
			<path class="st2" d="M1481.2,17.8c3.9,0,7.1,3.2,7.1,7v116.8c0,3.8-3.2,7-7.1,7c-3.9,0-7.1-3.2-7.1-7V24.8
				C1474.1,21,1477.3,17.8,1481.2,17.8z"/>
		</g>
		<g>
			<g>
				<g>
					<path class="st3" d="M734.6,189.1c31.9,71.9,82.8,80.9,82.8,80.9s-39,1-58.7-1.6c-17.4-2.6-50.9-4.5-84.5-80.2
						c-4.5-10.2-48-104.7-48-104.7c-31.9-71.9-82.8-80.9-82.8-80.9s40.3-1,58.7,1.6c17.4,2.5,50.9,4.5,84.5,80.2
						C686.3,84.7,731.4,181.7,734.6,189.1z"/>
				</g>
				<g>
					<path class="st3" d="M80.9,189.1c31.9,71.9,82.8,80.9,82.8,80.9s-39,1-58.7-1.6c-17.4-2.6-50.9-4.5-84.4-80.2
						c-4.5-10.2-48-104.7-48-104.7c-31.9-71.9-82.8-80.9-82.8-80.9s40.3-1,58.7,1.6c17.4,2.5,50.9,4.5,84.5,80.2
						C32.9,84.7,77.7,181.7,80.9,189.1z"/>
				</g>
				<g>
					<path class="st3" d="M253.7,189.1c31.9,71.9,82.8,80.9,82.8,80.9s-39,1-58.7-1.6c-17.4-2.6-50.9-4.5-84.5-80.2
						c-4.5-10.2-48-104.7-48-104.7C113.5,11.4,62.6,2.5,62.6,2.5s40.3-1,58.7,1.6c17.4,2.5,50.9,4.5,84.5,80.2
						C205.4,84.7,250.5,181.7,253.7,189.1z"/>
				</g>
				<g>
					<path class="st3" d="M-232,189.1c31.9,71.9,82.8,80.9,82.8,80.9s-39,1-58.7-1.6c-17.4-2.6-50.9-4.5-84.5-80.2
						c-4.5-10.2-48-104.7-48-104.7c-31.9-71.9-82.8-80.9-82.8-80.9s40.3-1,58.7,1.6c17.4,2.5,50.9,4.5,84.5,80.2
						C-280.4,84.7-235.3,181.7-232,189.1z"/>
				</g>
				<g>
					<path class="st3" d="M561.9,189.1c31.9,71.9,82.8,80.9,82.8,80.9s-39,1-58.7-1.6c-17.4-2.6-50.9-4.5-84.4-80.2
						c-4.5-10.2-48-104.7-48-104.7c-31.9-71.9-82.8-80.9-82.8-80.9s40.3-1,58.7,1.6c17.4,2.5,50.9,4.5,84.4,80.2
						C513.8,84.7,558.6,181.7,561.9,189.1z"/>
				</g>
				<g>
					<path class="st3" d="M2004.6,189.1c31.9,71.9,82.8,80.9,82.8,80.9s-39,1-58.7-1.6c-17.4-2.6-50.9-4.5-84.4-80.2
						c-4.5-10.2-48-104.7-48-104.7c-31.9-71.9-82.8-80.9-82.8-80.9s40.3-1,58.7,1.6c17.4,2.5,50.9,4.5,84.5,80.2
						C1956.6,84.7,2001.4,181.7,2004.6,189.1z"/>
				</g>
				<g>
					<path class="st3" d="M1696.5,189.1c31.9,71.9,82.8,80.9,82.8,80.9s-39,1-58.7-1.6c-17.4-2.6-50.9-4.5-84.5-80.2
						c-4.5-10.2-48-104.7-48-104.7c-31.9-71.9-82.8-80.9-82.8-80.9s40.3-1,58.7,1.6c17.4,2.5,50.9,4.5,84.5,80.2
						C1648.1,84.7,1693.3,181.7,1696.5,189.1z"/>
				</g>
				<g>
					<path class="st3" d="M1215.6,189.1c31.9,71.9,82.8,80.9,82.8,80.9s-39,1-58.7-1.6c-17.4-2.6-50.9-4.5-84.5-80.2
						c-4.5-10.2-48-104.7-48-104.7c-31.9-71.9-82.8-80.9-82.8-80.9s40.3-1,58.7,1.6c17.4,2.5,50.9,4.5,84.5,80.2
						C1167.2,84.7,1212.3,181.7,1215.6,189.1z"/>
				</g>
				<g>
					<path class="st3" d="M1523.7,189.1c31.9,71.9,82.8,80.9,82.8,80.9s-39,1-58.7-1.6c-17.4-2.6-50.9-4.5-84.4-80.2
						c-4.5-10.2-48-104.7-48-104.7c-31.9-71.9-82.8-80.9-82.8-80.9s40.3-1,58.7,1.6c17.4,2.5,50.9,4.5,84.5,80.2
						C1475.7,84.7,1520.5,181.7,1523.7,189.1z"/>
				</g>
				<g>
					<path class="st3" d="M1042.8,189.1c31.9,71.9,82.8,80.9,82.8,80.9s-39,1-58.7-1.6c-17.4-2.6-50.9-4.5-84.4-80.2
						c-4.5-10.2-48-104.7-48-104.7c-31.9-71.9-82.8-80.9-82.8-80.9s40.3-1,58.7,1.6c17.4,2.5,50.9,4.5,84.4,80.2
						C994.8,84.7,1039.6,181.7,1042.8,189.1z"/>
				</g>
			</g>
		</g>
	</g>
</g>
</svg>
