<svg id="Capa_1" data-name="Capa 1" xmlns="http://www.w3.org/2000/svg" viewBox="0 0 21 67.94"><defs><style>.cls-1{fill:#ffc145;}.cls-2{fill:#90acd7;}.cls-3{fill:#376996;}</style></defs><title>prostate-cancer-project-isotype</title><rect class="cls-1" y="6.01" width="21" height="2.01"/><rect class="cls-1" y="10.02" width="21" height="2.01"/><rect class="cls-2" width="21" height="5"/><rect class="cls-1" y="18.07" width="21" height="1"/><rect class="cls-2" y="27.12" width="21" height="1"/><rect class="cls-1" y="60.27" width="21" height="1"/><rect class="cls-2" y="57.25" width="21" height="3.01"/><rect class="cls-1" y="45.2" width="21" height="1"/><rect class="cls-1" y="40.17" width="21" height="1"/><rect class="cls-1" y="51.22" width="21" height="1"/><rect class="cls-3" y="50.22" width="21" height="1"/><rect class="cls-1" y="54.24" width="21" height="3.01"/><rect class="cls-1" y="34.15" width="21" height="5.02"/><rect class="cls-3" y="61.27" width="21" height="4.04"/><rect class="cls-2" y="29.12" width="21" height="5.02"/><rect class="cls-2" y="19.08" width="21" height="6.03"/><rect class="cls-3" y="8.02" width="21" height="2.01"/><rect class="cls-3" y="28.12" width="21" height="1"/><rect class="cls-2" y="46.2" width="21" height="4.02"/><rect class="cls-2" y="43.19" width="21" height="2.01"/><rect class="cls-3" y="39.17" width="21" height="1"/><rect class="cls-3" y="41.18" width="21" height="2.01"/><rect class="cls-1" y="25.1" width="21" height="2.01"/><rect class="cls-3" y="52.23" width="21" height="2.01"/><rect class="cls-2" y="12.03" width="21" height="4.03"/><rect class="cls-3" y="16.06" width="21" height="1"/><rect class="cls-3" y="5" width="21" height="1"/><rect class="cls-2" y="17.07" width="21" height="1"/></svg>