<?xml version="1.0" encoding="utf-8"?>
<!-- Generator: Adobe Illustrator 22.0.1, SVG Export Plug-In . SVG Version: 6.00 Build 0)  -->
<svg version="1.1" id="Capa_1" xmlns="http://www.w3.org/2000/svg" xmlns:xlink="http://www.w3.org/1999/xlink" x="0px" y="0px"
	 viewBox="0 0 280.3 80" style="enable-background:new 0 0 280.3 80;" xml:space="preserve">
<style type="text/css">
	.st0{fill:#FFC145;}
	.st1{fill:#D1D3D4;}
	.st2{fill:#FFFFFF;}
	.st3{fill:#FBFBFB;}
	.st4{fill:#E6E7E8;}
	.st5{fill:#808285;}
	.st6{fill:#EDEDEE;}
	.st7{fill:#F1F2F2;}
	.st8{fill:#376996;}
</style>
<path class="st0" d="M243.9,72.9h-80.7c-1.8,0-3.3-1.4-3.3-3.3V3.3c0-1.8,1.4-3.3,3.3-3.3h80.7c1.8,0,3.3,1.4,3.3,3.3v66.3
	C247.2,71.4,245.7,72.9,243.9,72.9z"/>
<path class="st1" d="M130.6,73.7H87c-6.8,0-12.3-5.5-12.3-12.3V17.8C74.7,11,80.2,5.5,87,5.5h43.6c6.8,0,12.3,5.5,12.3,12.3v43.6
	C142.9,68.2,137.3,73.7,130.6,73.7z"/>
<g>
	<rect x="84.1" y="24" class="st2" width="49.2" height="31.3"/>
	<polygon class="st2" points="110.1,40.4 84.1,24 133.4,24 	"/>
</g>
<rect x="168.9" y="7.7" class="st3" width="74.8" height="57.8"/>
<path class="st4" d="M255.6,31.1h-6.8v-9.9c0-1.3-1.1-2.4-2.4-2.4h-5.8v35.8h5.8c1.3,0,2.4-1.1,2.4-2.4v-9.9h6.8
	c3.1,0,5.6-2.5,5.6-5.6C261.1,33.5,258.6,31.1,255.6,31.1z"/>
<circle class="st5" cx="255.6" cy="36.6" r="1.4"/>
<g>
	<rect x="84.1" y="24" class="st6" width="49.2" height="31.3"/>
	<polygon class="st7" points="108.8,38.7 133.4,55.2 84.1,55.2 	"/>
	<polygon class="st3" points="108.8,40.4 84.1,24 133.4,24 	"/>
</g>
<circle class="st0" cx="137.9" cy="12.9" r="11.2"/>
<g>
	<path class="st8" d="M30.6,22.3H36c2.6,0,4.5-0.7,5.8-2c1.2-1.3,1.8-3,1.8-5.1s-0.6-3.7-1.8-4.9s-3-1.7-5.1-1.7
		c-2,0-3.6,0.5-4.9,1.6c-1.3,1.1-2,2.5-2,4.2H19.6c0-2.7,0.7-5.1,2.2-7.2c1.4-2.1,3.5-3.8,6-5c2.6-1.2,5.4-1.8,8.6-1.8
		c5.4,0,9.7,1.3,12.8,3.9s4.6,6.2,4.6,10.8c0,2.4-0.7,4.5-2.2,6.5c-1.4,2-3.4,3.5-5.6,4.5c2.9,1,5.1,2.6,6.5,4.7s2.2,4.5,2.2,7.4
		c0,4.6-1.6,8.2-5,11c-3.3,2.8-7.7,4.1-13.2,4.1c-5.1,0-9.3-1.4-12.6-4.1c-3.3-2.7-4.9-6.3-4.9-10.7h10.2c0,1.9,0.7,3.5,2.2,4.7
		c1.4,1.2,3.2,1.8,5.3,1.8c2.4,0,4.3-0.7,5.7-1.9c1.4-1.3,2-3,2-5.1c0-5.1-2.8-7.7-8.5-7.7h-5.4L30.6,22.3L30.6,22.3L30.6,22.3
		L30.6,22.3z"/>
</g>
</svg>
