<svg id="Capa_1" data-name="Capa 1" xmlns="http://www.w3.org/2000/svg" viewBox="0 0 250 113.92"><defs><style>.cls-1{fill:#fff;}.cls-2{fill:#89ccb6;}</style></defs><title>target-cancer-foundation-logo</title><rect class="cls-1" width="250" height="113.92"/><path class="cls-2" d="M87,67.51c0-1.23-.1-2.48-.15-3.76l2.59.11c.86,0,1.72,0,2.59,0s1.75,0,2.64,0l2.89-.11a5.21,5.21,0,0,0-.08.87,5.12,5.12,0,0,0,.08.87c-.52,0-1.15-.11-1.88-.16l-2.24-.11c-.77,0-1.5-.06-2.21-.07l-1.75,0c0,.67,0,1.32,0,1.94s0,1.23,0,1.85,0,1.3,0,1.87,0,1.16,0,1.78c1.28,0,2.54,0,3.78,0s2.48-.12,3.7-.24a3.37,3.37,0,0,0-.12.87,3.2,3.2,0,0,0,.12.87c-.49-.06-1-.1-1.64-.13l-1.9-.07c-.66,0-1.32,0-2,0H89.42v2.47c0,1.27,0,2.52.06,3.76s.11,2.45.16,3.65c-.44,0-.92,0-1.42,0s-1,0-1.42,0c.06-1.2.11-2.41.16-3.65s.07-2.49.07-3.76v-5C87,70,87,68.73,87,67.51Zm12.52,6a6.25,6.25,0,0,1,1.64-2.22A6.37,6.37,0,0,1,103.4,70a8.27,8.27,0,0,1,5,0,6.44,6.44,0,0,1,2.26,1.25,6.13,6.13,0,0,1,1.64,2.22,9.22,9.22,0,0,1,0,6.7,6.08,6.08,0,0,1-1.64,2.23,5.89,5.89,0,0,1-2.26,1.2,9.35,9.35,0,0,1-2.52.35,9,9,0,0,1-2.5-.35,6,6,0,0,1-2.28-1.2,6.32,6.32,0,0,1-1.64-2.23,8.16,8.16,0,0,1-.62-3.34A8.4,8.4,0,0,1,99.48,73.47Zm2.15,5.7a6.33,6.33,0,0,0,.74,2,4,4,0,0,0,1.39,1.41,4.68,4.68,0,0,0,4.29,0,4,4,0,0,0,1.39-1.41,6.33,6.33,0,0,0,.74-2,12.61,12.61,0,0,0,0-4.69,6.3,6.3,0,0,0-.74-2,3.89,3.89,0,0,0-1.39-1.4,4.61,4.61,0,0,0-4.29,0,3.89,3.89,0,0,0-1.39,1.4,6.3,6.3,0,0,0-.74,2,12.61,12.61,0,0,0,0,4.69Zm13.83-2.51c0-.72,0-1.44,0-2.16s0-1.4,0-2.2,0-1.59,0-2.4a6.9,6.9,0,0,0,1.22.14,6.71,6.71,0,0,0,1.18-.14c-.09,1.16-.17,2.42-.22,3.81s-.07,2.79-.07,4.24a8,8,0,0,0,.26,2.31,3.21,3.21,0,0,0,.64,1.19,3,3,0,0,0,1,.77,3.2,3.2,0,0,0,1.46.31,3.57,3.57,0,0,0,2-.54,3.26,3.26,0,0,0,1.19-1.32c.13-.32.24-.6.32-.84a4.81,4.81,0,0,0,.18-.92,12.42,12.42,0,0,0,.09-1.57c0-.65,0-1.55,0-2.69V72.21c0-.42,0-.82,0-1.21s0-.76,0-1.1l.61.1a3.86,3.86,0,0,0,.6,0,3.91,3.91,0,0,0,.61,0l.58-.1c-.1,1.5-.15,3-.18,4.36s0,2.88,0,4.44c0,.87,0,1.72,0,2.55s0,1.63.09,2.41a11,11,0,0,0-1.13-.06,11.13,11.13,0,0,0-1.13.06c0-.17,0-.36,0-.55s0-.4,0-.61V81.26h-.06a4.89,4.89,0,0,1-1.94,2,5.21,5.21,0,0,1-2.58.66,5,5,0,0,1-3.55-1.2,4.55,4.55,0,0,1-1.28-3.46C115.41,78.26,115.43,77.39,115.46,76.66ZM138,72.23a2.73,2.73,0,0,0-2.32-1.12,3.49,3.49,0,0,0-3,1.25,5.77,5.77,0,0,0-.94,3.51v2.46c0,.87,0,1.78.05,2.74a24.14,24.14,0,0,0,.19,2.59c-.45,0-.88-.06-1.31-.06s-.86,0-1.3.06c.09-.78.16-1.64.19-2.59s0-1.87,0-2.74v-3c0-.87,0-1.79,0-2.74s-.09-1.85-.19-2.68a8.51,8.51,0,0,0,1.3.14,3.16,3.16,0,0,0,.51,0l.65-.11c-.06.78-.09,1.55-.09,2.32h.06a6,6,0,0,1,1.94-1.92,5.12,5.12,0,0,1,2.71-.68,6.24,6.24,0,0,1,1.64.23,3.94,3.94,0,0,1,1.5.79,4.18,4.18,0,0,1,1.09,1.54,6.28,6.28,0,0,1,.42,2.48c0,.83,0,1.68-.06,2.56S141,79,141,80v1.88c0,.31,0,.61,0,.91s0,.59,0,.86a12.27,12.27,0,0,0-1.24-.06,11.76,11.76,0,0,0-1.2.06c0-1,.08-2,.13-3.11s.07-2.15.07-3.27V75.51A5.4,5.4,0,0,0,138,72.23Zm16.17,8.67a5.94,5.94,0,0,1-.62,1,4.91,4.91,0,0,1-1,1,5.1,5.1,0,0,1-1.41.75,5.67,5.67,0,0,1-1.88.29,6.38,6.38,0,0,1-2.16-.38,4.83,4.83,0,0,1-1.89-1.23,6.49,6.49,0,0,1-1.33-2.2,9.16,9.16,0,0,1-.51-3.23,8.51,8.51,0,0,1,.56-3.22,6.73,6.73,0,0,1,1.43-2.27,5.82,5.82,0,0,1,2-1.37,6.13,6.13,0,0,1,2.24-.45,4.49,4.49,0,0,1,4.47,2.9h.06V69.67c0-.74,0-1.48,0-2.22s0-1.45,0-2.13,0-1.31,0-1.91,0-1.13,0-1.6l.67.11c.21,0,.42,0,.63,0a6.26,6.26,0,0,0,.63,0l.68-.11c-.06.62-.11,1.52-.15,2.68s-.06,2.46-.1,3.87,0,2.86-.07,4.35,0,2.85,0,4.08,0,2.53,0,3.59,0,2.16.06,3.28a11,11,0,0,0-1.13-.06,10.56,10.56,0,0,0-1.1.06l.08-2.76Zm-7.86-1a5.2,5.2,0,0,0,.93,1.81,2.92,2.92,0,0,0,1.28.94A4.1,4.1,0,0,0,150,83a3.32,3.32,0,0,0,1.95-.57,4.82,4.82,0,0,0,1.35-1.48,7.07,7.07,0,0,0,.78-2.07,11.33,11.33,0,0,0,.24-2.31,7.17,7.17,0,0,0-1.07-4.25,3.69,3.69,0,0,0-3.16-1.46,3.44,3.44,0,0,0-1.81.47A3.81,3.81,0,0,0,147,72.64a6.67,6.67,0,0,0-.76,2,11.81,11.81,0,0,0-.24,2.44A9.61,9.61,0,0,0,146.33,80ZM162.4,70a7.56,7.56,0,0,1,2.26-.35,5.86,5.86,0,0,1,1.92.3,4.31,4.31,0,0,1,1.49.87,4,4,0,0,1,1,1.36,4.23,4.23,0,0,1,.36,1.76c0,1.1,0,2.19-.06,3.28s-.06,2.25-.06,3.47c0,.23,0,.47,0,.73a2.13,2.13,0,0,0,.13.7,1.5,1.5,0,0,0,.33.51,1,1,0,0,0,.65.2l.31,0a.71.71,0,0,0,.3-.1v.64a2.94,2.94,0,0,1-.8.23,5.74,5.74,0,0,1-1.06.09,2,2,0,0,1-1.44-.48,2,2,0,0,1-.58-1.23,7.68,7.68,0,0,1-2,1.53,5.62,5.62,0,0,1-2.48.5,4.88,4.88,0,0,1-1.42-.21,3.09,3.09,0,0,1-1.23-.67,3.52,3.52,0,0,1-.86-1.11,3.12,3.12,0,0,1-.33-1.49,3.39,3.39,0,0,1,1.08-2.69,5.93,5.93,0,0,1,3-1.28c1-.17,1.85-.32,2.44-.44a6.17,6.17,0,0,0,1.3-.4.84.84,0,0,0,.5-.48,2.27,2.27,0,0,0,.09-.71,5.81,5.81,0,0,0-.17-1.39,3.37,3.37,0,0,0-.55-1.16,2.78,2.78,0,0,0-1-.79,3.34,3.34,0,0,0-1.48-.31,4.71,4.71,0,0,0-2.16.52,3.54,3.54,0,0,0-1.49,1.45H160V71.28A8.31,8.31,0,0,1,162.4,70ZM166,76.73l-1.31.25c-.45.09-.88.2-1.32.33a4.53,4.53,0,0,0-1.15.55,2.59,2.59,0,0,0-.81.87,3.12,3.12,0,0,0,.48,3.4,2.54,2.54,0,0,0,1.73.69,3.47,3.47,0,0,0,2-.61,4.5,4.5,0,0,0,1.4-1.42l.11-4.34A6.91,6.91,0,0,1,166,76.73ZM176.34,66c-.07.73-.11,1.45-.14,2.15s-.06,1.42-.1,2.14l1.19,0c.58,0,1.21,0,1.88-.07a1.2,1.2,0,0,0,0,.32v.6a2,2,0,0,0,0,.3c-.25,0-.5,0-.78,0l-.87,0H176.1c0,.08,0,.39-.07.93s-.05,1.18-.07,1.93,0,1.52-.05,2.33,0,1.54,0,2.17,0,1.07,0,1.59a4.64,4.64,0,0,0,.28,1.41,2.2,2.2,0,0,0,.69,1,2.08,2.08,0,0,0,1.34.38,4.35,4.35,0,0,0,.62-.06,5,5,0,0,0,.68-.15v.7c-.33.05-.69.13-1.09.21a5.18,5.18,0,0,1-1.14.13,3.6,3.6,0,0,1-2.7-.89,3.65,3.65,0,0,1-.87-2.64c0-.52,0-1.09,0-1.69s.05-1.28.08-2,0-1.53.07-2.41,0-1.85,0-2.93h-1.41l-.55,0c0-.11,0-.22,0-.33a3.25,3.25,0,0,0,0-.33,2.83,2.83,0,0,0,0-.29,2.89,2.89,0,0,0,0-.29c.86.06,1.5.09,1.91.09,0-.39,0-.87-.05-1.45s0-1.18-.07-1.8l2.41-1Zm5.81-2.21a1.4,1.4,0,0,1,1-.43,1.42,1.42,0,0,1,1,.43,1.49,1.49,0,0,1-1,2.53,1.41,1.41,0,0,1-1-.44,1.46,1.46,0,0,1,0-2.09Zm-.08,8.77c0-1-.09-1.86-.18-2.69a7.38,7.38,0,0,0,1.3.15,7.48,7.48,0,0,0,1.3-.15c-.1.83-.16,1.73-.19,2.69s0,1.86,0,2.73v3c0,.87,0,1.78,0,2.73s.09,1.82.19,2.6c-.44,0-.88-.06-1.3-.06s-.86,0-1.3.06c.09-.78.15-1.64.18-2.6s.05-1.86.05-2.73v-3C182.12,74.45,182.11,73.53,182.07,72.58Zm5.38.89a6.13,6.13,0,0,1,1.64-2.22A6.25,6.25,0,0,1,191.36,70a8.27,8.27,0,0,1,5,0,6.35,6.35,0,0,1,2.26,1.25,6.25,6.25,0,0,1,1.64,2.22,9.36,9.36,0,0,1,0,6.7,6.2,6.2,0,0,1-1.64,2.23,5.81,5.81,0,0,1-2.26,1.2,9.35,9.35,0,0,1-2.52.35,9.08,9.08,0,0,1-2.5-.35,5.85,5.85,0,0,1-2.27-1.2,6.08,6.08,0,0,1-1.64-2.23,9.22,9.22,0,0,1,0-6.7Zm2.14,5.7a6.33,6.33,0,0,0,.74,2,3.91,3.91,0,0,0,1.39,1.41,4.68,4.68,0,0,0,4.29,0,4,4,0,0,0,1.39-1.41,6.33,6.33,0,0,0,.74-2,12.61,12.61,0,0,0,0-4.69,6.55,6.55,0,0,0-.74-2,3.89,3.89,0,0,0-1.39-1.4,4.1,4.1,0,0,0-2.15-.53,4,4,0,0,0-2.14.53,3.81,3.81,0,0,0-1.39,1.4,6.08,6.08,0,0,0-.74,2,12.61,12.61,0,0,0,0,4.69Zm22.17-6.94a2.75,2.75,0,0,0-2.32-1.12,3.49,3.49,0,0,0-3,1.25,5.7,5.7,0,0,0-.94,3.51v2.46c0,.87,0,1.78,0,2.74s.09,1.82.19,2.59c-.44,0-.88-.06-1.3-.06s-.86,0-1.31.06c.1-.78.16-1.64.19-2.59s0-1.87,0-2.74v-3c0-.87,0-1.79,0-2.74s-.09-1.85-.19-2.68a8.62,8.62,0,0,0,1.31.14,3,3,0,0,0,.5,0l.65-.11c-.05.78-.08,1.55-.08,2.32h.05a6.14,6.14,0,0,1,1.95-1.92,5.09,5.09,0,0,1,2.7-.68,6.24,6.24,0,0,1,1.64.23,3.87,3.87,0,0,1,1.5.79,4.07,4.07,0,0,1,1.09,1.54,6.28,6.28,0,0,1,.42,2.48c0,.83,0,1.68,0,2.56s-.06,1.81-.06,2.8v1.88c0,.31,0,.61,0,.91s0,.59.05.86a12.07,12.07,0,0,0-1.23-.06,11.61,11.61,0,0,0-1.2.06c0-1,.08-2,.13-3.11s.07-2.15.07-3.27V75.51A5.4,5.4,0,0,0,211.76,72.23ZM88.25,35.8a38.83,38.83,0,0,0-6.43.41,4.76,4.76,0,0,0,.12-1,4.28,4.28,0,0,0-.12-1c1.8.17,5.5.17,7.79.17,2.84,0,5.91,0,7.77-.17a4.28,4.28,0,0,0-.12,1,4.76,4.76,0,0,0,.12,1,36.07,36.07,0,0,0-6.17-.41c0,2-.06,4-.06,6,0,3.51-.12,8.05.2,12.43a12.92,12.92,0,0,0-1.85-.17,7,7,0,0,0-1.51.17c.23-3.19.32-7.42.32-11.33C88.31,40.26,88.28,37.77,88.25,35.8Zm8.31,7.83.12-1.89A7,7,0,0,1,101.37,40a5.65,5.65,0,0,1,3.88,1.3,4,4,0,0,1,1.19,3.24c0,.84-.11,4.47-.11,5.22,0,2.55,0,3.39,1.07,3.39a1.73,1.73,0,0,0,.72-.15l0,.81a4.35,4.35,0,0,1-2.08.64,2.25,2.25,0,0,1-2.21-1.88,5.64,5.64,0,0,1-4.37,2,3.75,3.75,0,0,1-4-3.86c0-3.07,2.46-3.62,4.81-4.14l2.52-.55a1.2,1.2,0,0,0,1.07-1.39,3,3,0,0,0-3.25-3.16,3.21,3.21,0,0,0-3.3,2.14h-.78ZM103.83,47c-5,.75-5.53,1.94-5.53,3.5a2.31,2.31,0,0,0,2.46,2.44,3,3,0,0,0,3.07-2.76V47Zm14.22-4.15a2.7,2.7,0,0,0-1.5-.37,3.18,3.18,0,0,0-2.84,1.65c-.41.89-.47,1.53-.47,5.1,0,.29,0,1.27,0,1.88.12,2,.12,2.23.15,3.13a5.37,5.37,0,0,0-1.57-.17,4.75,4.75,0,0,0-1.45.17,52.36,52.36,0,0,0,.32-7.39c0-3.27-.11-4.87-.23-6.75a5.58,5.58,0,0,0,1.48.17,5.74,5.74,0,0,0,1.48-.17,20.92,20.92,0,0,0-.24,3.27A5,5,0,0,1,118.46,40a6.69,6.69,0,0,0-.26,1.89,5.31,5.31,0,0,0,.06.81ZM125.67,40a11.59,11.59,0,0,1,1.94.14,13.77,13.77,0,0,0,3,.29,25.51,25.51,0,0,0,2.64-.11,5.9,5.9,0,0,0-.09.72,6.39,6.39,0,0,0,.09.75c-.75-.06-1.86-.06-2.67-.06a3.59,3.59,0,0,1,1.22,2.79c0,3.07-2.52,4.75-5.82,4.75-.32,0-2-.12-2-.12a1.29,1.29,0,0,0-1.27,1.4c0,.78.2,1.53,3.39,1.53l2.06,0c2.46.06,3.32.58,3.93,1.13a3.54,3.54,0,0,1,1.17,2.72c0,2.09-1.54,6.23-7.65,6.23-4.67,0-6.15-2.4-6.15-4.31,0-2.67,2.58-3.57,3.19-3.8-1.89-.52-2.14-1.62-2.14-2.4a3.1,3.1,0,0,1,2.34-2.84A4.06,4.06,0,0,1,120,44.67C120,41.6,122.57,40,125.67,40Zm5.16,17.29c0-2.69-2.87-3.13-4.7-3.13-.69,0-4.52,0-4.52,3.33,0,2.15,1.86,3.45,4.58,3.45C129.2,60.89,130.83,59.18,130.83,57.24Zm-1.77-12.83c0-2.52-1.62-3.48-3.13-3.48-2.9,0-3.16,2.72-3.16,3.82,0,2.44,1.36,3.48,3,3.48C128.42,48.23,129.06,46,129.06,44.41Zm8.85,2.78a7.57,7.57,0,0,0,.78,3.79,4.44,4.44,0,0,0,4.06,2.27,5.38,5.38,0,0,0,4.6-2.35l.35.09a10,10,0,0,0-.2,1.74,7.5,7.5,0,0,1-5.39,1.88c-4.4,0-7.1-2.78-7.1-7.24,0-4,2.2-7.36,7-7.36,6.47,0,6.38,5.62,6.35,7.18ZM145.42,46c0-.95,0-4.81-3.48-4.81-2.52,0-3.74,1.91-4,4.81Zm7.36-4.23c-.93,0-1.1,0-2.32.12a4.55,4.55,0,0,0,.06-.73,5,5,0,0,0-.06-.72l.93.09c.38,0,.84,0,1.39,0,0-1,0-1.71-.06-3.21a13.46,13.46,0,0,0,3-1.34c-.15,2.41-.15,2.64-.21,4.55,1.08,0,2.15,0,3.13-.14a4.77,4.77,0,0,0,0,.72,4.3,4.3,0,0,0,0,.7c-.72,0-1.94-.09-3.13-.09-.11,2.64-.14,5.3-.14,7.94,0,2.34.37,3.62,2,3.62.27,0,1-.12,1.34-.18a1.88,1.88,0,0,0,0,.82,5.93,5.93,0,0,1-2.46.55,3.44,3.44,0,0,1-3.1-1.74c-.23-.4-.41-.9-.41-2.73,0-.46,0-1,.06-3.7V41.74Zm26.36,8.61a12.8,12.8,0,0,0-.32,2.34,14,14,0,0,1-7.19,1.89c-6.72,0-10.63-4.41-10.63-10.38C161,38.61,164.48,34,172.1,34a16.58,16.58,0,0,1,7.15,1.54,9.34,9.34,0,0,0-.69,2.89h-.29c-.78-1.65-3.34-3.18-6.29-3.18-4.57,0-7.62,3.36-7.62,9,0,6,3.74,9,7.85,9a8.51,8.51,0,0,0,6.58-3Zm3.26-6.72.11-1.89A7.06,7.06,0,0,1,187.2,40a5.69,5.69,0,0,1,3.89,1.3,4,4,0,0,1,1.19,3.24c0,.84-.12,4.47-.12,5.22,0,2.55,0,3.39,1.07,3.39A1.83,1.83,0,0,0,194,53l0,.81a4.36,4.36,0,0,1-2.09.64,2.25,2.25,0,0,1-2.2-1.88,5.63,5.63,0,0,1-4.37,2,3.75,3.75,0,0,1-4-3.86c0-3.07,2.46-3.62,4.81-4.14l2.52-.55a1.2,1.2,0,0,0,1.07-1.39,3,3,0,0,0-3.24-3.16,3.21,3.21,0,0,0-3.31,2.14h-.77ZM189.67,47c-5,.75-5.54,1.94-5.54,3.5a2.31,2.31,0,0,0,2.47,2.44,3,3,0,0,0,3.07-2.76V47Zm6.71-6.9a7.67,7.67,0,0,0,1.45.17,7.17,7.17,0,0,0,1.42-.17c0,.44-.12,2.35-.15,2.75A5.56,5.56,0,0,1,204.2,40c4.75,0,5,3.39,5,5,0,.29-.12,5.18-.12,6.17,0,.55,0,2.58.09,3a4.63,4.63,0,0,0-1.48-.17,5.07,5.07,0,0,0-1.53.17c.26-3.1.26-6.29.26-6.81,0-2.9-.14-5.65-3.36-5.65a3.7,3.7,0,0,0-3.44,2c-.53,1-.53,4.29-.53,5.65,0,2.26.15,3.74.23,4.81a6.53,6.53,0,0,0-1.53-.18,6.85,6.85,0,0,0-1.54.18c.15-1.77.29-3.62.29-8C196.52,44.35,196.44,42.12,196.38,40.09ZM224,51.8a6.34,6.34,0,0,0-.31,1.68,7.94,7.94,0,0,1-4.29,1.13c-5.5,0-7.68-3.63-7.68-7.3,0-4.44,2.87-7.36,7.65-7.36a9.25,9.25,0,0,1,4.78,1.16,11,11,0,0,0-.64,2.46h-.35a3.49,3.49,0,0,0-3.53-2.41c-3.22,0-4.9,2.29-4.9,5.91,0,5.33,3.39,6.2,5.07,6.2a5.61,5.61,0,0,0,3.94-1.56Zm5.16-4.61a7.57,7.57,0,0,0,.78,3.79,4.43,4.43,0,0,0,4.05,2.27,5.38,5.38,0,0,0,4.61-2.35l.35.09a10,10,0,0,0-.2,1.74,7.5,7.5,0,0,1-5.39,1.88c-4.4,0-7.1-2.78-7.1-7.24,0-4,2.2-7.36,6.95-7.36,6.46,0,6.37,5.62,6.35,7.18Zm7.5-1.22c0-.95,0-4.81-3.48-4.81-2.52,0-3.73,1.91-4,4.81Zm13-3.13a2.7,2.7,0,0,0-1.5-.37,3.21,3.21,0,0,0-2.84,1.65c-.41.89-.47,1.53-.47,5.1,0,.29,0,1.27,0,1.88.12,2,.12,2.23.15,3.13a5.37,5.37,0,0,0-1.57-.17,4.75,4.75,0,0,0-1.45.17,54,54,0,0,0,.32-7.39c0-3.27-.12-4.87-.23-6.75a5.52,5.52,0,0,0,1.48.17,5.6,5.6,0,0,0,1.47-.17,22.79,22.79,0,0,0-.22,3.27A5,5,0,0,1,250,40a6.69,6.69,0,0,0-.26,1.89,5.31,5.31,0,0,0,.06.81ZM55.91,70.7l-1.62,2.11L45.73,61l13.63,5.24-1.65,2.14,8.12,6.24a46,46,0,0,0,5.24-17.76L59.69,58.36,60,61,46.32,58.58,59,52.75l.35,2.68,11.9-1.56A36.33,36.33,0,0,0,65.1,32.8L54.86,46.2,57,47.82,45.14,56.39l5.23-13.64,2.15,1.65,10.74-14a29,29,0,0,0-8.1-6.66,29.75,29.75,0,0,0-15.62-3.67l3,22.35,2.63-.35L42.75,55.77l-5.83-12.6,2.68-.36-3-22.5C27.85,21.4,19.12,26,12.31,33.44L30.38,47.25,32,45.14,40.57,57,26.94,51.74l1.65-2.15-18.18-14a47.84,47.84,0,0,0-4.57,6.78A45.84,45.84,0,0,0,0,63.13l26.63-3.56-.35-2.64L40,59.34,27.36,65.18,27,62.49,0,66c.43,11.4,5.59,21.7,14.79,27.41l16.6-21.72L29.3,70.11l11.82-8.52L35.9,75.17l-2.15-1.65L17.37,94.86c9,4.41,19.48,3.81,28.85-.81L43.73,75.49l-2.63.35,2.41-13.69,5.84,12.6-2.69.36L49,92.56a45.17,45.17,0,0,0,15.4-15.4Z"/></svg>