<?xml version="1.0" encoding="utf-8"?>
<!-- Generator: Adobe Illustrator 18.1.1, SVG Export Plug-In . SVG Version: 6.00 Build 0)  -->
<svg version="1.1" id="Layer_1" xmlns="http://www.w3.org/2000/svg" xmlns:xlink="http://www.w3.org/1999/xlink" x="0px" y="0px"
	 viewBox="290.4 95.8 377.9 369" enable-background="new 290.4 95.8 377.9 369" xml:space="preserve">
<path fill="#3F3F3F" d="M668.3,162.2c-14,6.2-28.9,10.4-44.5,12.2c16-9.5,28.3-24.8,34.2-42.9c-14.9,8.8-31.5,15.3-49.2,18.8
	c-14.1-15.1-34.3-24.5-56.6-24.5c-42.9,0-77.6,34.7-77.6,77.6c0,6.1,0.7,12,2.1,17.7c-64.4-3.2-121.5-34.2-159.8-81
	c-6.6,11.5-10.5,24.8-10.5,39c0,27,13.7,50.6,34.6,64.6c-12.7-0.4-24.6-3.9-35.1-9.7c0,0.3,0,0.7,0,1c0,37.6,26.7,68.9,62.2,76
	c-6.5,1.8-13.4,2.8-20.5,2.8c-5,0-9.8-0.6-14.7-1.4c9.8,30.8,38.6,53.2,72.5,53.9c-26.5,20.7-60,33.2-96.4,33.2
	c-6.2,0-12.4-0.4-18.5-1.1c34.3,22,75.1,34.8,118.9,34.8C552,433.2,630,315,630,212.5c0-3.3-0.1-6.8-0.3-10.1
	C644.8,191.5,657.9,177.8,668.3,162.2z"/>
</svg>
