<?xml version="1.0" encoding="utf-8"?>
<!-- Generator: Adobe Illustrator 16.0.3, SVG Export Plug-In . SVG Version: 6.00 Build 0)  -->
<!DOCTYPE svg PUBLIC "-//W3C//DTD SVG 1.1//EN" "http://www.w3.org/Graphics/SVG/1.1/DTD/svg11.dtd">
<svg version="1.1" id="Capa_1" xmlns="http://www.w3.org/2000/svg" xmlns:xlink="http://www.w3.org/1999/xlink" x="0px" y="0px"
	 width="400px" height="100.831px" viewBox="0 0 400 100.831" enable-background="new 0 0 400 100.831" xml:space="preserve">
<g>
	<path fill="#0160A0" d="M0,1.729c22.234-0.009,44.464,0,66.699-0.004c2.267,0.004,4.543-0.05,6.809,0.083
		c-0.827,0.404-1.664,0.791-2.515,1.14c-15.89,6.437-30.947,14.896-44.8,24.988C16.961,21.812,8.138,15.039,0,7.518V1.729z"/>
	<path fill="#0160A0" d="M28.363,29.265C47.697,16.929,68.97,7.678,91.145,1.834c0.009,5.32,0.009,10.644-0.005,15.963
		c-15.269,4.423-30,10.671-43.857,18.446c-1.209,0.653-2.345,1.462-3.623,1.973c-1.402-0.52-2.657-1.347-3.968-2.06
		C35.862,33.95,31.986,31.802,28.363,29.265z"/>
	<path d="M276.441,20.092c-2.97-7.541-8.896-13.959-16.391-17.141c-4.897-2.143-10.441-2.685-15.688-1.724
		c-6.961,1.237-13.241,5.311-17.591,10.823c-4.487,5.669-6.979,12.892-6.896,20.124c-0.083,7.324,2.538,14.625,7.172,20.29
		c4.836,6.028,12.083,10.202,19.825,10.892c5.582,0.524,11.31-0.741,16.147-3.573c6.786-3.894,11.894-10.501,14.207-17.954
		C279.48,34.782,279.195,26.961,276.441,20.092z M264.653,49.936c-2.841,4.382-7.444,7.757-12.685,8.479
		c-5.384,0.869-11.044-1.066-14.947-4.833c-5.034-4.813-7.416-11.807-7.894-18.63c-0.492-7.154,0.754-14.703,4.833-20.726
		c2.882-4.359,7.535-7.628,12.758-8.377c5.338-0.915,11.025,0.934,14.859,4.741c4.759,4.505,7.104,11.016,7.775,17.42
		C270.097,35.54,268.887,43.531,264.653,49.936z"/>
	<path d="M211.669,58.198c-1.821-1.062-2.97-2.906-4.092-4.63c-4.216-6.497-8.423-12.998-12.644-19.494
		c3.558-0.611,7.163-1.945,9.65-4.676c3.513-3.568,4.336-8.934,3.802-13.733c-0.561-4.474-2.745-9.044-6.759-11.375
		c-3.816-2.203-8.363-2.469-12.667-2.456c-8.124,0.009-16.244,0-24.363,0.005c-0.004,1.19,0,2.381,0.014,3.572
		c2.258-0.019,4.515-0.019,6.777,0.005c-0.023,17.77-0.005,35.544-0.009,53.319c-2.262,0-4.524,0-6.782,0c0,1.186,0,2.373,0,3.563
		c7.278,0,14.561,0,21.839,0c0-1.19,0-2.377,0-3.563c-2.304-0.004-4.612,0.019-6.911-0.023c0.037-7.812,0-15.619,0.014-23.425
		c2.368,0,4.731-0.004,7.099,0.004c4.736,7.55,9.476,15.099,14.234,22.639c1.168,1.862,2.722,3.867,5.076,4.133
		c3.82,0.469,7.683,0.133,11.521,0.234c0-1.19,0-2.377,0-3.563C215.544,58.648,213.476,59.048,211.669,58.198z M179.554,30.924
		c-0.027-8.239-0.009-16.478-0.009-24.717c3.435,0.042,6.878-0.078,10.313,0.05c3.738,0.267,7.467,2.363,8.979,5.904
		c1.738,4.193,1.651,9.255-0.593,13.246c-1.853,3.315-5.54,5.371-9.301,5.499C185.812,30.957,182.681,30.897,179.554,30.924z"/>
	<path d="M381.743,4c-3.674-1.503-7.66-2.179-11.623-2.166c-8.855,0.014-17.706-0.004-26.557,0.009c0,1.186,0,2.373,0.005,3.559
		c2.294,0,4.593,0,6.892,0c0,17.779,0.009,35.559-0.005,53.333c-2.299-0.004-4.593,0-6.892,0c-0.004,1.186-0.004,2.373,0,3.563
		c9.168-0.004,18.336,0.014,27.508-0.009c7.71-0.102,15.393-3.232,20.786-8.782c4.202-4.17,7.016-9.665,8.143-15.467V25.954
		C398.037,16.211,390.998,7.669,381.743,4z M383.936,51.55c-3.706,3.797-8.956,6.05-14.267,6.041
		c-3.683-0.004-7.366-0.004-11.048-0.004c0-16.97,0-33.945,0-50.919c3.826,0,7.65,0,11.476-0.005
		c5.43,0.032,10.602,2.722,14.257,6.648c4.791,5.182,7.191,12.331,7.039,19.338C391.329,39.549,388.942,46.658,383.936,51.55z"/>
	<path fill="#0160A0" d="M0,7.981c7.48,7.78,15.729,14.8,24.322,21.325c-4.285,3.181-8.409,6.565-12.483,10.014
		C7.793,36.079,3.756,32.8,0,29.223V7.981z"/>
	<path d="M332.795,58.74c-7.642-19.567-15.223-39.163-22.86-58.736L310.322,0h-3.793c-7.982,19.554-15.848,39.164-23.779,58.74
		c-1.573-0.009-3.14-0.004-4.704-0.004c-0.004,1.186-0.004,2.373,0,3.563c5.862,0,11.724,0,17.586,0
		c-0.004-1.19-0.004-2.377,0-3.563c-2.543,0-5.081-0.004-7.614,0c2.225-5.439,4.404-10.897,6.644-16.331
		c7.756,0.019,15.513,0.009,23.269,0.009c2.101,5.443,4.23,10.878,6.34,16.322c-2.423,0-4.842-0.004-7.26,0
		c-0.005,1.186-0.005,2.373,0,3.563c6.975,0,13.945,0,20.919,0c-0.004-1.19-0.004-2.377,0-3.563
		C336.216,58.736,334.506,58.736,332.795,58.74z M296.455,37.931c3.393-8.409,6.745-16.832,10.17-25.228
		c3.411,8.34,6.455,16.832,9.71,25.241C309.706,37.917,303.081,37.94,296.455,37.931z"/>
	<path fill="#0160A0" d="M47.333,40.262c13.986-7.007,28.676-12.621,43.82-16.552c-0.009,5.311,0.005,10.621-0.009,15.931
		c-8.501,2.515-16.874,5.49-24.989,9.071C59.751,46.198,53.476,43.361,47.333,40.262z"/>
	<path fill="#0160A0" d="M0,30.391l0.004-0.538c3.582,3.513,7.228,6.961,10.938,10.34C7.14,43.417,3.568,46.901,0,50.373V30.391z"/>
	<path fill="#0160A0" d="M12.874,40.147c4.317-3.324,8.786-6.455,13.352-9.434c4.625,3.333,9.329,6.575,14.221,9.517
		c-4.823,3.021-9.573,6.161-14.184,9.49C21.683,46.694,17.223,43.495,12.874,40.147z"/>
	<path d="M152.538,37.311c-2.942-4.074-7.857-6.474-12.823-6.791c4.004-0.75,7.83-2.804,10.239-6.156
		c2.396-3.131,3.025-7.356,2.055-11.14c-1.476-6.34-7.503-11.186-14-11.356c-9.526-0.064-19.058-0.009-28.584-0.027
		c0,1.19,0,2.381,0.009,3.572c2.294-0.019,4.588-0.009,6.887-0.009c0,17.779,0.004,35.554,0,53.333c-2.299,0-4.598,0-6.896,0
		c0,1.186,0,2.373,0,3.563c9.968,0,19.936,0.004,29.899-0.004c4.699-0.046,9.458-1.986,12.478-5.655
		C156.303,51.324,156.588,42.961,152.538,37.311z M124.483,6.207c3.425,0.004,6.846-0.004,10.271,0
		c3.255-0.042,6.221,2.129,7.66,4.965c1.816,3.572,1.853,7.963,0.313,11.637c-1.347,3.223-4.469,5.688-7.991,5.954
		c-3.411,0.203-6.836,0.028-10.252,0.087C124.483,21.306,124.483,13.756,124.483,6.207z M141.802,56.262
		c-2.12,1.287-4.625,1.789-7.081,1.789c-3.411-0.005-6.828-0.005-10.239-0.005c-0.004-8.354,0-16.703,0-25.057
		c3.554,0.037,7.113-0.083,10.662,0.06c3.903,0.115,7.742,2.202,9.761,5.572C148.276,44.106,147.669,52.704,141.802,56.262z"/>
	<path fill="#0160A0" d="M3.136,48.18c2.837-2.497,5.774-4.874,8.722-7.237c4.064,3.522,8.239,6.92,12.542,10.152
		c-4.244,3.228-8.446,6.52-12.441,10.051c-3.517-2.713-6.813-5.697-10.29-8.456c-0.464-0.542-0.933-1.076-1.425-1.59
		C0.975,49.917,2.115,49.09,3.136,48.18z"/>
	<path fill="#0160A0" d="M28.451,51.168c4.883-3.301,10.064-6.143,15.246-8.943c5.508,3.246,11.158,6.244,16.928,8.994
		c-5.774,2.681-11.375,5.715-16.882,8.905C38.542,57.315,33.444,54.331,28.451,51.168z"/>
	<path fill="#0160A0" d="M72.947,51.278c5.949-2.234,12.055-4.05,18.207-5.646c-0.004,3.756-0.004,7.513-0.004,11.269
		C85.002,55.296,78.934,53.403,72.947,51.278z"/>
	<path fill="#0160A0" d="M0,51.711c3.77,3.296,7.172,6.993,11.025,10.202C7.255,65.246,3.577,68.69,0,72.239V51.711z"/>
	<path fill="#0160A0" d="M12.966,61.926c4.303-3.319,8.791-6.396,13.292-9.434c4.621,3.356,9.407,6.469,14.184,9.577
		c-4.768,3.035-9.499,6.133-14.083,9.444C21.789,68.469,17.288,65.32,12.966,61.926z"/>
	<path fill="#0160A0" d="M48.616,61.503c5.733-2.837,11.577-5.444,17.536-7.77c8.128,3.573,16.505,6.566,25.011,9.108
		c-0.032,5.274-0.004,10.547-0.018,15.821C76.359,74.726,61.94,69.352,48.28,62.451C47.435,62.244,48.175,61.582,48.616,61.503z"/>
	<path fill="#0160A0" d="M0,72.855c3.77-3.6,7.853-6.865,11.945-10.092c4.064,3.518,8.248,6.896,12.538,10.133
		C15.834,79.407,7.545,86.433,0,94.198V72.855z"/>
	<path fill="#0160A0" d="M28.52,72.869c4.988-3.122,10.078-6.069,15.26-8.846c14.874,8.731,30.791,15.692,47.352,20.52
		c0.037,5.278,0.014,10.561,0.014,15.844C69.016,94.538,47.733,85.329,28.52,72.869z"/>
	<path fill="#0160A0" d="M0,94.699c8.17-7.559,17.113-14.258,26.391-20.4c14.722,10.745,30.823,19.586,47.793,26.244
		c-24.727,0.074-49.458,0.009-74.184,0.032V94.699z"/>
	<path d="M209.089,77.591c0.593-0.004,1.191-0.014,1.798-0.018c0.014,0.234,0.042,0.703,0.06,0.933
		c5.154,0,10.309-0.014,15.462,0.009c0.014-0.234,0.032-0.694,0.046-0.928c0.639-0.004,1.283-0.004,1.927-0.009
		c0.014,1.913,0,3.83,0.014,5.743c-0.658,0.009-1.311,0.014-1.958,0.022c-0.005-0.919,0-1.839,0.004-2.763
		c-1.848-0.004-3.692-0.018-5.536,0.019c0.032,6.083,0.005,12.17,0.014,18.253c1.035,0,2.069,0,3.104,0c0,0.373,0,1.122,0,1.494
		c-3.563,0-7.126,0-10.689,0c0-0.373,0-1.122,0-1.494c1.071,0,2.143,0,3.218,0c-0.009-6.096,0.019-12.188-0.014-18.285
		c-1.871,0.013-3.742,0.009-5.614,0.009c-0.004,0.924-0.013,1.848-0.018,2.772c-0.612-0.009-1.218-0.013-1.825-0.022
		C209.076,81.412,209.076,79.503,209.089,77.591z"/>
	<path d="M338.736,77.595c0.593-0.009,1.19-0.018,1.793-0.027c0.019,0.235,0.055,0.704,0.069,0.938
		c5.154,0.004,10.308-0.014,15.467,0.009c0.009-0.229,0.032-0.694,0.042-0.928c0.639-0.004,1.283-0.004,1.931-0.009
		c0.013,1.917,0.004,3.834,0.009,5.752c-0.653,0-1.306,0.004-1.954,0.009c-0.004-0.919,0-1.844,0.005-2.763
		c-1.839,0-3.674,0.009-5.508-0.009c-0.033,6.092-0.005,12.188-0.014,18.285c1.03,0,2.064,0,3.104,0c0,0.373,0,1.122,0,1.494
		c-3.563,0-7.126,0-10.69,0c0-0.373,0-1.122,0-1.494c1.067,0,2.143,0,3.219,0c-0.005-6.096,0.009-12.188-0.009-18.28
		c-1.871,0.009-3.747,0.009-5.619,0c-0.004,0.915-0.009,1.834-0.004,2.754c-0.616,0.005-1.232,0.009-1.844,0.014
		C338.731,81.425,338.731,79.508,338.736,77.595z"/>
	<path d="M387.306,78.52c-0.023-1.223,1.173-0.901,1.996-0.983c0.009,1.825,0.009,3.646,0,5.471
		c-0.621-0.014-1.232-0.027-1.839-0.041c-0.005-0.795,0.004-1.591,0.013-2.391c-2.257,0-4.515,0.009-6.768-0.009
		c-0.037,2.57-0.014,5.14-0.019,7.71c1.724,0,3.448,0,5.177,0c-0.009-0.763-0.014-1.526-0.014-2.29
		c0.648-0.005,1.306-0.009,1.963-0.014c0,2.188,0,4.372,0,6.556c-0.487,0-1.467,0-1.954,0c-0.005-0.763,0-1.526,0.009-2.29
		c-1.729-0.013-3.453-0.009-5.172-0.013c-0.018,2.681-0.009,5.365-0.009,8.05c2.34-0.004,4.681,0.009,7.025-0.013
		c-0.014-0.8-0.022-1.605-0.018-2.4c0.492,0,1.471,0.004,1.958,0.004c-0.004,1.494,0,2.984,0,4.478
		c-5.25,0-10.497,0.009-15.743-0.004c-0.004-0.368-0.014-1.108-0.019-1.476c0.81-0.009,1.614-0.018,2.432-0.022
		c-0.009-6.276,0-12.557-0.004-18.837c-0.818-0.004-1.623-0.009-2.428-0.018c0.005-0.373,0.014-1.108,0.019-1.481
		C378.377,78.51,382.841,78.487,387.306,78.52z"/>
	<path d="M189.191,77.816c0.611,0,1.228,0,1.848,0.004c-0.009,1.913-0.009,3.825,0,5.743c-0.621-0.005-1.237-0.005-1.848-0.005
		c0-0.759,0-1.518,0.009-2.271c-1.443-0.795-3.204-1.678-4.836-0.878c-1.458,0.597-2.188,2.657-1.063,3.894
		c2.138,2.386,5.449,3.343,7.582,5.738c2.515,2.787,1.945,7.871-1.375,9.784c-2.579,1.512-5.83,1.135-8.414-0.166
		c0.331,1.412-1.14,1.002-2.009,1.136c-0.004-2.069-0.004-4.134-0.004-6.198c0.487,0,1.466,0,1.954-0.004
		c-0.005,0.832,0,1.669-0.005,2.505c1.784,1.412,4.533,2.267,6.524,0.796c1.306-0.874,1.444-2.86,0.373-3.973
		c-1.996-2.23-4.92-3.282-7.122-5.264c-2.704-2.373-2.51-7.361,0.542-9.352c2.313-1.54,5.306-1.384,7.853-0.58
		C189.2,78.501,189.191,78.046,189.191,77.816z"/>
	<path d="M265.287,77.586c0.598,0,1.195-0.004,1.803-0.004c0.022,0.234,0.064,0.703,0.087,0.942
		c5.145-0.037,10.294-0.019,15.443-0.01c0.009-0.234,0.032-0.698,0.042-0.928c0.639,0,1.287,0,1.936,0c0,1.917,0,3.83,0,5.747
		c-0.653,0-1.306,0-1.954,0c-0.004-0.919-0.004-1.839,0-2.754c-1.848-0.004-3.692-0.022-5.531,0.028
		c0.033,6.078,0,12.156,0.014,18.235c1.048,0.004,2.096,0.013,3.149,0.046c-0.032,0.487-0.055,0.975-0.078,1.462
		c-3.554-0.014-7.108,0.009-10.662-0.014c0-0.368,0-1.104,0-1.476c1.071-0.009,2.147-0.009,3.223-0.014
		c-0.005-6.092,0.009-12.184-0.005-18.276c-1.875,0.009-3.747,0.009-5.619,0c-0.009,0.919-0.013,1.844-0.013,2.763
		c-0.616,0-1.228,0-1.835,0C265.287,81.421,265.287,79.503,265.287,77.586z"/>
	<path d="M113.205,78.524c3.108-0.042,6.216-0.01,9.324-0.019c0,0.373-0.004,1.117-0.004,1.49c-0.805,0.004-1.609,0.009-2.414,0.014
		c0.009,6.28,0.009,12.556,0,18.837c0.8,0,1.6,0,2.4,0c0.005,0.501,0.014,0.998,0.023,1.499c-3.108,0-6.211,0-9.311,0
		c-0.004-0.373-0.004-1.117-0.004-1.49c0.841-0.004,1.692-0.009,2.538-0.013c-0.014-6.276-0.019-12.552,0-18.828
		c-0.846-0.009-1.697-0.018-2.538-0.027C113.214,79.623,113.209,78.892,113.205,78.524z"/>
	<path d="M139.081,78.506c2.221,0,4.437,0,6.657,0c3.503,5.03,7.039,10.042,10.57,15.053c0.032-4.52,0.004-9.039,0.014-13.559
		c-0.883,0-1.765,0-2.644,0c0-0.373,0.004-1.122,0.004-1.494c2.524-0.004,5.048,0,7.577,0c0,0.373,0,1.122,0.004,1.494
		c-0.924,0-1.839,0-2.758,0c0,6.896-0.004,13.793,0.004,20.69c-0.832,0.004-1.66,0.009-2.487,0.013
		c-3.751-5.264-7.425-10.588-11.26-15.783c-0.115,4.639-0.023,9.287-0.05,13.931c0.882,0,1.761,0,2.648,0.004
		c-0.004,0.373-0.004,1.117-0.009,1.49c-2.529,0-5.053,0-7.582,0c0-0.373,0-1.122,0-1.494c0.919,0,1.839,0,2.759,0
		c0-5.37,0-10.745,0-16.115c0.133-1.035-0.579-1.849-1.021-2.708c-0.809-0.019-1.623-0.032-2.432-0.041
		C139.081,79.619,139.081,78.874,139.081,78.506z"/>
	<path d="M242.414,78.506c3.122-0.009,6.239,0.019,9.361-0.019c0.037,0.492,0.073,0.988,0.115,1.48
		c-0.864,0.023-1.729,0.037-2.588,0.055c0.018,6.271,0.014,12.542,0,18.814c0.846,0.009,1.692,0.018,2.542,0.027
		c0,0.368,0.004,1.104,0.004,1.472c-3.145,0.022-6.29,0.004-9.435,0.009c0-0.373,0-1.117,0-1.49
		c0.842-0.004,1.688-0.009,2.538-0.018c-0.018-6.276-0.014-12.552-0.004-18.833C244.101,80,243.255,80,242.414,80
		C242.414,79.623,242.414,78.878,242.414,78.506z"/>
	<path d="M300.336,78.52c3.145-0.027,6.285-0.009,9.43-0.014c0,0.373,0.004,1.117,0.004,1.49c-0.85,0-1.692,0.009-2.533,0.014
		c0.027,4.299-0.023,8.593,0.019,12.887c0.074,1.541,0.216,3.269,1.397,4.4c3.209,2.671,9.19,0.864,9.614-3.549
		c0.29-4.57,0.041-9.168,0.124-13.748c-0.924,0-1.839,0-2.758,0c0-0.373,0-1.122,0-1.494c2.602,0,5.209,0,7.816,0
		c0,0.373,0,1.113,0.004,1.481c-0.933,0.009-1.857,0.018-2.781,0.041c0.037,3.977,0.009,7.949,0.023,11.926
		c-0.009,2.354-0.418,4.993-2.304,6.611c-3.618,2.929-9.324,3.03-13.048,0.235c-1.623-1.306-2.446-3.411-2.46-5.467
		c-0.022-4.437-0.013-8.874,0.005-13.315c-0.855-0.014-1.706-0.023-2.547-0.037C300.34,79.619,300.336,78.883,300.336,78.52z"/>
</g>
</svg>
