<?xml version="1.0" encoding="UTF-8"?>
<svg width="32px" height="32px" viewBox="0 0 32 32" version="1.1" xmlns="http://www.w3.org/2000/svg" xmlns:xlink="http://www.w3.org/1999/xlink">
    <title>CGC-favicon-32@1x</title>
    <g id="CGC-favicon-32" stroke="none" stroke-width="1" fill="none" fill-rule="evenodd">
        <g id="cancer_collective_logo" transform="translate(0.000000, 10.000000)" fill-rule="nonzero">
            <g id="Group" transform="translate(21.000000, 6.000000)">
                <g opacity="0.2" transform="translate(0.373190, 0.401849)" fill="#000000" id="Path">
                    <path d="M7.84560863,2.57369045 C7.70878274,2.89855416 7.53066256,3.18160702 7.3164869,3.4175397 C7.0798151,3.67902347 6.81879815,3.89537805 6.54083205,4.06129415 C6.26348228,4.22654658 5.96640986,4.34899265 5.65855162,4.42564589 C5.35285054,4.50163546 5.05423729,4.54045982 4.77134052,4.54045982 C4.22681048,4.54045982 3.71956857,4.41071344 3.26379045,4.15553449 C2.81016949,3.9020147 2.41602465,3.56122304 2.09152542,3.14145532 C1.76856703,2.72467409 1.51525424,2.23356246 1.33929122,1.68305286 C1.16702619,1.14581654 1.07858243,0.579379 1.0751926,0 L1.07211094,0 C1.07272727,0.0169234416 1.07303544,0.0331832188 1.07395994,0.0497748282 C1.0751926,0.0716757525 1.07642527,0.0925811804 1.07642527,0.117136762 C1.07734977,0.132069211 1.07303544,0.15927945 1.06687211,0.193126333 C1.04992296,1.00080588 0.90385208,1.78293434 0.627734977,2.5205973 C0.457627119,2.9742119 0.247149461,3.3999526 0,3.7958284 C0.152234206,4.03574307 0.317103236,4.26570277 0.49614792,4.48338469 C1.00924499,5.10955203 1.63112481,5.62455558 2.34298921,6.01346291 C3.05146379,6.4010429 3.84530046,6.59815122 4.70231125,6.59815122 C5.18767334,6.59815122 5.69152542,6.53012562 6.20123267,6.39672908 C6.70878274,6.26333254 7.19291217,6.06622422 7.6394453,5.81004977 C8.08505393,5.55453899 8.49090909,5.23830292 8.8449923,4.86897369 C9.17565485,4.52420005 9.43821263,4.12301493 9.62681048,3.67703247 L7.84560863,2.57369045 Z"></path>
                </g>
                <path d="M7.84560863,2.57369045 C7.70878274,2.89855416 7.53066256,3.18160702 7.3164869,3.4175397 C7.0798151,3.67902347 6.81879815,3.89537805 6.54083205,4.06129415 C6.26348228,4.22654658 5.96640986,4.34899265 5.65855162,4.42564589 C5.35285054,4.50163546 5.05423729,4.54045982 4.77134052,4.54045982 C4.22681048,4.54045982 3.71956857,4.41071344 3.26379045,4.15553449 C2.81016949,3.9020147 2.41602465,3.56122304 2.09152542,3.14145532 C1.76856703,2.72467409 1.51525424,2.23356246 1.33929122,1.68305286 C1.16702619,1.14581654 1.07858243,0.579379 1.0751926,0 L1.07211094,0 C1.07272727,0.0169234416 1.07303544,0.0331832188 1.07395994,0.0497748282 C1.0751926,0.0716757525 1.07642527,0.0925811804 1.07642527,0.117136762 C1.07734977,0.132069211 1.07303544,0.15927945 1.06687211,0.193126333 C1.04992296,1.00080588 0.90385208,1.78293434 0.627734977,2.5205973 C0.457627119,2.9742119 0.247149461,3.3999526 0,3.7958284 C0.152234206,4.03574307 0.317103236,4.26570277 0.49614792,4.48338469 C1.00924499,5.10955203 1.63112481,5.62455558 2.34298921,6.01346291 C3.05146379,6.4010429 3.84530046,6.59815122 4.70231125,6.59815122 C5.18767334,6.59815122 5.69152542,6.53012562 6.20123267,6.39672908 C6.70878274,6.26333254 7.19291217,6.06622422 7.6394453,5.81004977 C8.08505393,5.55453899 8.49090909,5.23830292 8.8449923,4.86897369 C9.17565485,4.52420005 9.43821263,4.12301493 9.62681048,3.67703247 L7.84560863,2.57369045 Z" id="Path" fill="#A0CFE4"></path>
            </g>
            <g id="Group" transform="translate(11.000000, 0.000000)">
                <g opacity="0.2" transform="translate(0.384292, 0.383927)" fill="#000000" id="Path">
                    <path d="M17.8010106,0.750432515 C16.9731819,0.253100709 15.9768094,0 14.8397725,0 C13.8757148,0 13.0054333,0.182460586 12.2517385,0.541363094 C11.4970933,0.901532688 10.8495303,1.37795755 10.3277416,1.95765004 C9.80531927,2.53860962 9.40201809,3.20668145 9.1292433,3.943176 C8.96545169,4.38602305 8.8510827,4.83583908 8.78486908,5.28850606 L4.96000253,5.28850606 L4.96000253,7.32756646 L8.50290675,7.32756646 L8.62646327,7.32756646 C8.58939632,7.5093935 8.54282501,7.68963669 8.48643254,7.86766247 C8.40532877,8.12266381 8.30426587,8.3668949 8.18324383,8.59845513 C8.18007572,8.60415702 8.1769076,8.61017569 8.1740563,8.61587758 C8.15124586,8.65927532 8.12716818,8.7023563 8.10245687,8.7451205 C8.08344818,8.77806477 8.06475629,8.80942518 8.04511397,8.84110237 C8.03592644,8.85725773 8.02610528,8.87277955 8.01628412,8.8879846 C7.98808788,8.93423329 7.95799078,8.97953167 7.92789368,9.02483004 C7.92694324,9.02609713 7.92599281,9.02736421 7.92599281,9.02736421 C7.89114353,9.07868125 7.85566063,9.12809766 7.81954411,9.1771973 L7.81732643,9.18036502 C7.79768411,9.2076074 7.77867541,9.23484978 7.75776584,9.26082507 C7.43651887,9.67326202 7.03638581,10.0084066 6.5694055,10.2573893 C6.10020751,10.5073223 5.55434111,10.634031 4.94733007,10.634031 C4.35204106,10.634031 3.8128277,10.5101732 3.34426333,10.2665757 C2.87728302,10.0239285 2.47714996,9.69860377 2.15590299,9.29725383 C1.83528965,8.8981213 1.58722616,8.43278345 1.41804876,7.91327761 C1.24982179,7.39725627 1.15794643,6.85399254 1.15794643,6.2996418 L1.15636237,6.2996418 L1.15477831,6.2996418 L1.15065976,6.2996418 L1.14844208,6.2996418 L1.13767048,6.2996418 C1.13767048,6.31136236 1.13830411,6.32308292 1.13830411,6.33480348 C1.13830411,7.15904384 0.985284101,7.95635859 0.683045827,8.70552401 C0.502146399,9.15407295 0.276576534,9.57411243 0.0104547831,9.96310826 C0.00696985538,9.96881016 0.00348492769,9.97356173 0,9.97863008 C0.162524355,10.2187431 0.34088929,10.4474524 0.534777994,10.6634908 C1.06353657,11.2507858 1.70476326,11.7287946 2.44039982,12.0826287 C3.17476912,12.4364629 4.00735003,12.6160725 4.91501529,12.6160725 C5.78624721,12.6160725 6.6048884,12.4415312 7.34812844,12.0987841 C7.91046904,11.8396647 8.41863486,11.5114891 8.85805256,11.1250274 C9.00410271,10.9957845 9.14540069,10.8583055 9.27846156,10.7167085 C9.44573809,10.5374156 9.60826245,10.3343649 9.80595289,10.0603572 L9.88769028,9.94663613 C9.88769028,9.94663613 9.88959115,9.94093423 9.89244246,9.93301494 C9.89434333,9.92921367 9.89656101,9.92636273 9.89877869,9.92319501 C10.1528616,9.54560296 10.3692439,9.13886791 10.5441239,8.70584079 C10.8279871,8.00165696 10.9781558,7.25502571 10.9955805,6.48400302 C11.0022335,6.45169229 11.0063521,6.425717 11.0054016,6.41146227 C11.0054016,6.38802115 11.0041344,6.36806452 11.0028671,6.34715758 C11.0019167,6.33100222 11.0015999,6.3154804 11.0009663,6.2996418 L11.0041344,6.2996418 C11.0041344,6.28823802 11.003184,6.27651746 11.003184,6.2647969 C11.003184,5.75796194 11.0823869,5.24257414 11.2388918,4.73225468 C11.3953967,4.2200346 11.6307878,3.75469675 11.9399959,3.34891201 C12.2495208,2.94249373 12.6433177,2.60639879 13.1106148,2.35234777 C13.579496,2.09607934 14.137718,1.96620288 14.7688067,1.96620288 C15.0583725,1.96620288 15.3590268,2.00009747 15.6618987,2.06630279 C15.965721,2.13314165 16.261623,2.24084408 16.5410509,2.3868759 C16.8211123,2.53290772 17.0869173,2.73405785 17.331179,2.98399084 C17.5500958,3.20858208 17.7424005,3.48322328 17.9027072,3.80126221 L19.6157075,2.62192061 C19.2101887,1.86040108 18.6003263,1.23097541 17.8010106,0.750432515 Z"></path>
                </g>
                <path d="M17.8013274,0.750432515 C16.9734987,0.253100709 15.9771262,0 14.8400893,0 C13.8760316,0 13.0057501,0.182460586 12.2520553,0.541363094 C11.4974101,0.901532688 10.8498471,1.37795755 10.3280584,1.95765004 C9.80563608,2.53860962 9.4023349,3.20668145 9.12956011,3.943176 C8.96576851,4.38602305 8.85139952,4.83583908 8.78518589,5.28850606 L4.96063616,5.28850606 L4.96063616,7.32756646 L8.50354037,7.32756646 L8.6270969,7.32756646 C8.59002994,7.5093935 8.54345863,7.68963669 8.48706617,7.86766247 C8.40596239,8.12266381 8.30489949,8.3668949 8.18387746,8.59845513 C8.18070934,8.60415702 8.17754123,8.61017569 8.17468992,8.61587758 C8.15187948,8.65927532 8.1278018,8.7023563 8.1030905,8.7451205 C8.0840818,8.77806477 8.06538992,8.80942518 8.0457476,8.84110237 C8.03656006,8.85725773 8.0267389,8.87277955 8.01691774,8.8879846 C7.98872151,8.93423329 7.9586244,8.97953167 7.9285273,9.02483004 C7.92757687,9.02609713 7.92662643,9.02736421 7.92662643,9.02736421 C7.89177715,9.07868125 7.85629425,9.12809766 7.82017773,9.1771973 L7.81796005,9.18036502 C7.79831773,9.2076074 7.77930903,9.23484978 7.75839947,9.26082507 C7.4371525,9.67326202 7.03701944,10.0084066 6.57003913,10.2573893 C6.10084113,10.5073223 5.55497473,10.634031 4.94796369,10.634031 C4.35267468,10.634031 3.81346133,10.5101732 3.34489696,10.2665757 C2.87791665,10.0239285 2.47778359,9.69860377 2.15653662,9.29725383 C1.83592327,8.8981213 1.58785978,8.43278345 1.41868238,7.91327761 C1.25045542,7.39725627 1.15858005,6.85399254 1.15858005,6.2996418 L1.15699599,6.2996418 L1.15509512,6.2996418 L1.15097657,6.2996418 L1.14844208,6.2996418 L1.13767048,6.2996418 C1.13767048,6.31136236 1.13830411,6.32308292 1.13830411,6.33480348 C1.13830411,7.15904384 0.985284101,7.95635859 0.683045827,8.70552401 C0.502146399,9.15407295 0.276576534,9.57411243 0.0104547831,9.96310826 C0.00696985538,9.96881016 0.00348492769,9.97356173 0,9.97863008 C0.162524355,10.2187431 0.34088929,10.4474524 0.534777994,10.6634908 C1.06353657,11.2507858 1.70476326,11.7287946 2.44039982,12.0826287 C3.17476912,12.4364629 4.00735003,12.6160725 4.91501529,12.6160725 C5.78624721,12.6160725 6.6048884,12.4415312 7.34812844,12.0987841 C7.91046904,11.8396647 8.41863486,11.5114891 8.85805256,11.1250274 C9.00410271,10.9957845 9.14540069,10.8583055 9.27846156,10.7167085 C9.44573809,10.5374156 9.60826245,10.3343649 9.80595289,10.0603572 L9.88769028,9.94663613 C9.88769028,9.94663613 9.88959115,9.94093423 9.89244246,9.93301494 C9.89434333,9.92921367 9.89656101,9.92636273 9.89877869,9.92319501 C10.1528616,9.54560296 10.3692439,9.13886791 10.5441239,8.70584079 C10.8279871,8.00165696 10.9781558,7.25502571 10.9955805,6.48400302 C11.0022335,6.45169229 11.0063521,6.425717 11.0054016,6.41146227 C11.0054016,6.38802115 11.0041344,6.36806452 11.0028671,6.34715758 C11.0019167,6.33100222 11.0015999,6.3154804 11.0009663,6.2996418 L11.0041344,6.2996418 C11.0041344,6.28792125 11.003184,6.27620069 11.003184,6.26448013 C11.003184,5.75764517 11.0823869,5.24225736 11.2388918,4.73193791 C11.3953967,4.21971783 11.6307878,3.75437998 11.9399959,3.34859524 C12.2495208,2.94217695 12.6433177,2.60608202 13.1106148,2.35203099 C13.579496,2.09576257 14.137718,1.96588611 14.7688067,1.96588611 C15.0583725,1.96588611 15.3590268,1.9997807 15.6618987,2.06598601 C15.965721,2.13282487 16.261623,2.2405273 16.5410509,2.38655913 C16.8211123,2.53259095 17.0869173,2.73374108 17.331179,2.98367407 C17.5500958,3.20826531 17.7424005,3.4829065 17.9027072,3.80094544 L19.6157075,2.62160384 C19.2108223,1.86071785 18.6009599,1.23129219 17.8013274,0.750432515 Z" id="Path" fill="#ABCD7E"></path>
            </g>
            <g id="Group" transform="translate(1.000000, 0.000000)">
                <g opacity="0.2" transform="translate(0.382101, 0.384707)" fill="#000000" id="Path">
                    <path d="M17.7255924,0.752578075 C16.9008087,0.253188994 15.9081655,0 14.7760599,0 C14.7568129,0 14.7391434,0.00127071013 14.7198964,0.00127071013 C14.7012804,0.00127071013 14.6832954,0 14.6643639,0 C13.5316273,0 12.5392995,0.253188994 11.7145158,0.752578075 C11.383214,0.952397244 11.0869356,1.18080739 10.8222097,1.43145496 C10.8222097,1.43145496 10.8234718,1.43399638 10.8247339,1.43526709 C10.6319478,1.60109477 10.4498896,1.77613509 10.28203,1.96356483 C9.76172842,2.54618543 9.36037996,3.21616734 9.08871249,3.95476761 C8.81672949,4.6943209 8.67884484,5.45325253 8.67884484,6.21027809 C8.67884484,6.24013978 8.68042247,6.27000147 8.68105352,6.2992278 L8.67821379,6.2992278 C8.67821379,6.83038463 8.59586163,7.3596354 8.4346281,7.87204926 C8.27213245,8.38636919 8.02854676,8.85621426 7.70923493,9.2685597 C7.38866101,9.68217585 6.99109886,10.0182787 6.5253832,10.2679732 C6.05840543,10.5186208 5.51475497,10.6456918 4.91083913,10.6456918 C4.31765116,10.6456918 3.78031121,10.5214799 3.3139645,10.2771859 C2.84856436,10.0338449 2.45068668,9.70759005 2.13011276,9.30509262 C1.81080094,8.90481892 1.56374446,8.43815063 1.39556936,7.91715947 C1.22802531,7.39966277 1.14251789,6.8548458 1.14251789,6.29891012 L1.12516399,6.29891012 C1.12516399,6.31066419 1.12611057,6.32241826 1.12611057,6.33417233 C1.12611057,7.16076927 0.973711743,7.96036362 0.6727004,8.71167098 C0.49190428,9.16340844 0.26598801,9.58655491 0,9.97825131 C0.16186459,10.2177802 0.338874404,10.445555 0.53197602,10.6606226 C1.05764153,11.2489614 1.6965807,11.7264308 2.4311241,12.0815943 C3.16282777,12.4358047 3.99108225,12.6152925 4.89285418,12.6152925 C5.75928724,12.6152925 6.57302755,12.4415229 7.31198831,12.0984312 C8.05158012,11.7553394 8.69651427,11.2899418 9.22817477,10.7136748 C9.76015079,10.1367724 10.1826395,9.46297835 10.4836508,8.71167098 C10.7840311,7.96036362 10.9367454,7.16045159 10.9367454,6.33417233 C10.9367454,6.32241826 10.9361144,6.31066419 10.9361144,6.29891012 L10.955677,6.29891012 C10.955677,6.2935096 10.9550459,6.28747373 10.9550459,6.28112018 C10.9550459,5.77347148 11.0342428,5.25661014 11.1897969,4.74483163 C11.345351,4.23114706 11.5804175,3.76447876 11.8877393,3.35753384 C12.1966388,2.94931822 12.5885215,2.61289771 13.0536061,2.35812033 C13.1056678,2.32889399 13.1596227,2.30284444 13.2135776,2.27743023 C13.4180381,2.1887982 13.6297557,2.11922682 13.8455752,2.07157519 C14.1421692,2.00581594 14.4362389,1.97214212 14.7198964,1.97182445 C15.0038693,1.9724598 15.2979391,2.00581594 15.5945331,2.07157519 C15.8106681,2.11922682 16.0217547,2.1887982 16.2265307,2.27743023 C16.3085673,2.31269244 16.3902885,2.35049607 16.4698009,2.39211182 C16.749041,2.53919652 17.0137669,2.74092175 17.2567215,2.99093397 C17.3545344,3.09195543 17.4460368,3.20504863 17.5324908,3.32544841 C17.8145706,2.64053565 18.1771095,2.00708665 18.6150589,1.43526709 C18.616321,1.43399638 18.616952,1.43272567 18.6178986,1.43145496 C18.3531727,1.18080739 18.0568942,0.952397244 17.7255924,0.752578075 Z"></path>
                </g>
                <path d="M17.7255924,0.752578075 C16.9008087,0.253188994 15.9081655,0 14.7760599,0 C14.7568129,0 14.7391434,0.00127071013 14.7198964,0.00127071013 C14.7012804,0.00127071013 14.6832954,0 14.6643639,0 C13.5316273,0 12.5392995,0.253188994 11.7145158,0.752578075 C11.383214,0.952397244 11.0869356,1.18080739 10.8222097,1.43145496 C10.8222097,1.43145496 10.8234718,1.43399638 10.8247339,1.43526709 C10.6319478,1.60109477 10.4498896,1.77613509 10.28203,1.96356483 C9.76172842,2.54618543 9.36037996,3.21616734 9.08871249,3.95476761 C8.81672949,4.6943209 8.67884484,5.45325253 8.67884484,6.21027809 C8.67884484,6.24013978 8.68042247,6.27000147 8.68105352,6.29954548 L8.67821379,6.29954548 C8.67821379,6.83070231 8.59586163,7.35995308 8.4346281,7.87236694 C8.27213245,8.38668687 8.02854676,8.85653194 7.70923493,9.26887738 C7.38866101,9.68249352 6.99109886,10.0185964 6.5253832,10.2682909 C6.05840543,10.5189385 5.51475497,10.6460095 4.91083913,10.6460095 C4.31765116,10.6460095 3.78031121,10.5217976 3.3139645,10.2775035 C2.84856436,10.0341626 2.45068668,9.70790773 2.13011276,9.30541029 C1.81080094,8.9051366 1.56374446,8.43846831 1.39556936,7.91747715 C1.22770978,7.39966277 1.14220237,6.8548458 1.14220237,6.29891012 L1.12516399,6.29891012 C1.12516399,6.31066419 1.12611057,6.32241826 1.12611057,6.33417233 C1.12611057,7.16076927 0.973711743,7.96036362 0.6727004,8.71167098 C0.49190428,9.16340844 0.26598801,9.58655491 0,9.97825131 C0.16186459,10.2177802 0.338874404,10.445555 0.53197602,10.6606226 C1.05764153,11.2489614 1.6965807,11.7264308 2.4311241,12.0815943 C3.16282777,12.4358047 3.99108225,12.6152925 4.89285418,12.6152925 C5.75928724,12.6152925 6.57302755,12.4415229 7.31198831,12.0984312 C8.05158012,11.7553394 8.69651427,11.2899418 9.22817477,10.7136748 C9.76015079,10.1367724 10.1826395,9.46297835 10.4836508,8.71167098 C10.7840311,7.96036362 10.9367454,7.16045159 10.9367454,6.33417233 C10.9367454,6.32241826 10.9361144,6.31066419 10.9361144,6.29891012 L10.955677,6.29891012 C10.955677,6.2935096 10.9550459,6.28715605 10.9550459,6.28112018 C10.9550459,5.77347148 11.0342428,5.25661014 11.1897969,4.74483163 C11.345351,4.23114706 11.5804175,3.76447876 11.8877393,3.35753384 C12.1966388,2.94931822 12.5885215,2.61289771 13.0536061,2.35812033 C13.1056678,2.32889399 13.1596227,2.30284444 13.2135776,2.27743023 C13.4180381,2.1887982 13.6297557,2.11922682 13.8455752,2.07157519 C14.1421692,2.00581594 14.4362389,1.97214212 14.7198964,1.97182445 C15.0038693,1.9724598 15.2979391,2.00581594 15.5945331,2.07157519 C15.8106681,2.11922682 16.0217547,2.1887982 16.2265307,2.27743023 C16.3085673,2.31269244 16.3902885,2.35049607 16.4698009,2.39211182 C16.749041,2.53919652 17.0137669,2.74092175 17.2567215,2.99093397 C17.3545344,3.09195543 17.4460368,3.20504863 17.5324908,3.32544841 C17.8145706,2.64053565 18.1771095,2.00708665 18.6150589,1.43526709 C18.616321,1.43399638 18.616952,1.43272567 18.6178986,1.43145496 C18.3531727,1.18080739 18.0565787,0.952397244 17.7255924,0.752578075 Z" id="Path" fill="#A0CFE4"></path>
            </g>
            <g id="Group">
                <g opacity="0.2" transform="translate(0.370178, 0.371222)" fill="#000000" id="Path">
                    <path d="M8.76505472,0.726197045 C7.96600844,0.244313653 7.00464633,0 5.90756251,0 C5.88922174,0 5.87179801,0.00122616639 5.85345724,0.00122616639 C5.83511646,0.00122616639 5.81769273,0 5.79996332,0 C4.70226814,0 3.74090603,0.244313653 2.94185975,0.726197045 C2.62089625,0.91901171 2.33386318,1.13941512 2.07709238,1.38127644 C2.07709238,1.38127644 2.07862077,1.38372877 2.07923213,1.38495494 C1.89276762,1.54496965 1.71608486,1.71387407 1.55438039,1.89473362 C1.37433515,2.09521182 1.2092682,2.30703206 1.05917956,2.52804856 C0.788958856,2.92685917 0.56703552,3.35724358 0.397383383,3.81582981 C0.134498991,4.52945865 0.000917038577,5.26178652 0.000917038577,5.99227515 C0.000917038577,6.02109006 0.0024454362,6.04990497 0.00275111573,6.0781068 L0.000305679526,6.0781068 C0.000305679526,6.08699651 0,6.09496659 0,6.10385629 C0.00305679526,6.85948133 0.144586416,7.60836245 0.421226386,8.33118754 C0.598826191,8.79406535 0.82502904,9.22812826 1.09708382,9.62877813 C1.35507734,9.25081234 1.5736382,8.84249893 1.74879257,8.40659678 C2.04010515,7.6816259 2.18805404,6.90975415 2.18805404,6.11243946 C2.18805404,6.10109742 2.18713701,6.08975538 2.18713701,6.07841334 L2.20394938,6.07841334 L2.20547778,6.07841334 L2.20578346,6.07841334 C2.20578346,6.07320213 2.20547778,6.06737784 2.20547778,6.06124701 C2.20547778,5.57139354 2.28220334,5.07265036 2.43320902,4.57881184 C2.58390903,4.08313408 2.81164028,3.63282447 3.10937213,3.24014469 C3.40832671,2.84623873 3.78828636,2.52161118 4.23885798,2.27576482 C4.2892951,2.24756299 4.34095494,2.22242658 4.39353182,2.19790326 C4.59191783,2.11237815 4.79672312,2.04524554 5.00611359,1.9992643 C5.29314667,1.93581019 5.57803998,1.90331678 5.85315156,1.90301024 C6.12826313,1.90362332 6.41315645,1.93581019 6.70018952,1.9992643 C6.90988568,2.04524554 7.11438528,2.11237815 7.31246561,2.19790326 C7.39224797,2.23192937 7.47111328,2.26840782 7.5484502,2.30856477 C7.81867091,2.45049353 8.07513603,2.64514745 8.31112062,2.88639568 C8.40588127,2.98387591 8.49452834,3.09300472 8.57828453,3.20918399 C8.85156202,2.5482803 9.20248212,1.93703636 9.62707098,1.38526148 C9.62798802,1.38403531 9.62921074,1.38280915 9.62982209,1.38158298 C9.37335697,1.13941512 9.0863239,0.91901171 8.76505472,0.726197045 Z"></path>
                </g>
                <path d="M8.76474904,0.726197045 C7.96570276,0.244313653 7.00434065,0 5.90725683,0 C5.88891606,0 5.87149233,0.00122616639 5.85315156,0.00122616639 C5.83481078,0.00122616639 5.81738705,0 5.79965764,0 C4.70196246,0 3.74060035,0.244313653 2.94155407,0.726197045 C2.62089625,0.91901171 2.3335575,1.13941512 2.0767867,1.38127644 C2.0767867,1.38127644 2.07831509,1.38372877 2.07892645,1.38495494 C1.89246194,1.54496965 1.71577918,1.71387407 1.55407471,1.89473362 C1.37402947,2.09490528 1.2092682,2.30703206 1.05917956,2.52774201 C0.788958856,2.92655263 0.56672984,3.35724358 0.397383383,3.81582981 C0.134498991,4.52945865 0.000917038577,5.26178652 0.000917038577,5.99227515 C0.000917038577,6.02109006 0.0024454362,6.04990497 0.00275111573,6.07841334 L0.000305679526,6.07841334 C0.000305679526,6.08730305 0,6.09496659 0,6.10385629 C0.00305679526,6.85948133 0.144586416,7.60836245 0.421226386,8.33118754 C0.598826191,8.79406535 0.82502904,9.22812826 1.09708382,9.62877813 C1.35507734,9.25081234 1.5736382,8.84249893 1.74879257,8.40659678 C2.04010515,7.6816259 2.18805404,6.90975415 2.18805404,6.11243946 C2.18805404,6.10109742 2.18713701,6.08975538 2.18713701,6.07841334 L2.20394938,6.07841334 L2.20547778,6.07841334 L2.20578346,6.07841334 C2.20578346,6.07320213 2.20547778,6.0670713 2.20547778,6.06124701 C2.20547778,5.57139354 2.28220334,5.07265036 2.43320902,4.57881184 C2.58390903,4.08313408 2.81164028,3.63282447 3.10937213,3.24014469 C3.40832671,2.84623873 3.78828636,2.52161118 4.23885798,2.27576482 C4.2892951,2.24756299 4.34095494,2.22242658 4.39353182,2.19790326 C4.59191783,2.11237815 4.79672312,2.04524554 5.00611359,1.9992643 C5.29314667,1.93581019 5.57803998,1.90331678 5.85315156,1.90301024 C6.12826313,1.90362332 6.41315645,1.93581019 6.70018952,1.9992643 C6.90988568,2.04524554 7.11438528,2.11237815 7.31246561,2.19790326 C7.39224797,2.23192937 7.47111328,2.26840782 7.5484502,2.30856477 C7.81867091,2.45049353 8.07513603,2.64514745 8.31112062,2.88639568 C8.40588127,2.98387591 8.49452834,3.09300472 8.57828453,3.20918399 C8.85156202,2.5482803 9.20248212,1.93703636 9.62707098,1.38526148 C9.62798802,1.38403531 9.62921074,1.38280915 9.62982209,1.38158298 C9.37335697,1.13941512 9.08601822,0.91901171 8.76474904,0.726197045 Z" id="Path" fill="#ABCD7E"></path>
            </g>
        </g>
    </g>
</svg>