<?xml version="1.0" encoding="utf-8"?>
<!-- Generator: Adobe Illustrator 16.0.3, SVG Export Plug-In . SVG Version: 6.00 Build 0)  -->
<!DOCTYPE svg PUBLIC "-//W3C//DTD SVG 1.1//EN" "http://www.w3.org/Graphics/SVG/1.1/DTD/svg11.dtd">
<svg version="1.1" id="Capa_1" xmlns="http://www.w3.org/2000/svg" xmlns:xlink="http://www.w3.org/1999/xlink" x="0px" y="0px"
	 width="122px" height="122px" viewBox="-950.118 -555.101 122 122" enable-background="new -950.118 -555.101 122 122"
	 xml:space="preserve">
<g>
	<g>
		<g opacity="0.2">
			<path d="M-888.118-553.101c-33.141,0-60,26.861-60,60c0,33.135,26.859,60,60,60c33.139,0,60-26.865,60-60
				C-828.118-526.237-854.979-553.101-888.118-553.101"/>
		</g>
		<g>
			<path fill="#EFEFEF" d="M-890.118-555.101c-33.141,0-60,26.861-60,60c0,33.135,26.859,60,60,60c33.139,0,60-26.865,60-60
				C-830.118-528.237-856.979-555.101-890.118-555.101"/>
		</g>
	</g>
	<g>
		<path fill="#1B71B7" d="M-866.259-507.335c0.021,0.527,0.035,1.061,0.035,1.594c0,16.266-12.381,35.02-35.023,35.02
			c-6.955,0-13.422-2.034-18.871-5.522c0.969,0.106,1.941,0.168,2.939,0.168c5.768,0,11.074-1.969,15.285-5.271
			c-5.389-0.101-9.934-3.654-11.5-8.55c0.756,0.146,1.523,0.222,2.316,0.222c1.121,0,2.209-0.148,3.242-0.433
			c-5.633-1.129-9.873-6.104-9.873-12.065c0-0.051,0-0.105,0-0.158c1.658,0.924,3.559,1.479,5.578,1.541
			c-3.307-2.207-5.48-5.979-5.48-10.244c0-2.256,0.605-4.371,1.668-6.188c6.066,7.442,15.146,12.348,25.373,12.86
			c-0.209-0.899-0.32-1.844-0.32-2.807c0-6.801,5.518-12.311,12.311-12.311c3.541,0,6.742,1.498,8.982,3.889
			c2.807-0.553,5.441-1.576,7.822-2.984c-0.924,2.871-2.877,5.285-5.414,6.81c2.49-0.297,4.861-0.959,7.066-1.938
			C-861.765-511.239-863.856-509.071-866.259-507.335"/>
	</g>
</g>
</svg>
