<?xml version="1.0" encoding="utf-8"?>
<!-- Generator: Adobe Illustrator 16.0.3, SVG Export Plug-In . SVG Version: 6.00 Build 0)  -->
<!DOCTYPE svg PUBLIC "-//W3C//DTD SVG 1.1//EN" "http://www.w3.org/Graphics/SVG/1.1/DTD/svg11.dtd">
<svg version="1.1" id="Capa_1" xmlns="http://www.w3.org/2000/svg" xmlns:xlink="http://www.w3.org/1999/xlink" x="0px" y="0px"
	 width="122px" height="122px" viewBox="-1120.118 -555.101 122 122" enable-background="new -1120.118 -555.101 122 122"
	 xml:space="preserve">
<g>
	<g>
		<g opacity="0.2">
			<path d="M-1058.118-553.101c-33.137,0-60,26.861-60,60c0,33.135,26.863,60,60,60c33.135,0,60-26.865,60-60
				C-998.118-526.237-1024.983-553.101-1058.118-553.101"/>
		</g>
		<g>
			<path fill="#EFEFEF" d="M-1060.118-555.101c-33.137,0-60,26.861-60,60c0,33.135,26.863,60,60,60c33.135,0,60-26.865,60-60
				C-1000.118-528.237-1026.983-555.101-1060.118-555.101"/>
		</g>
	</g>
	<g>
		<path fill="#1B71B7" d="M-1044.542-515.14l-5.645,0.004c-4.43,0-5.289,2.105-5.289,5.189v6.811h10.563l-1.375,10.668h-9.188
			v27.369h-11.018v-27.369h-9.205v-10.668h9.205V-511c0-9.129,5.58-14.101,13.723-14.101c3.898,0,7.254,0.289,8.229,0.422V-515.14
			L-1044.542-515.14z"/>
	</g>
</g>
</svg>
