<?xml version="1.0" encoding="utf-8"?>
<!-- Generator: Adobe Illustrator 16.0.3, SVG Export Plug-In . SVG Version: 6.00 Build 0)  -->
<!DOCTYPE svg PUBLIC "-//W3C//DTD SVG 1.1//EN" "http://www.w3.org/Graphics/SVG/1.1/DTD/svg11.dtd">
<svg version="1.1" id="Capa_1" xmlns="http://www.w3.org/2000/svg" xmlns:xlink="http://www.w3.org/1999/xlink" x="0px" y="0px"
	 width="122px" height="122px" viewBox="-610.118 -555.101 122 122" enable-background="new -610.118 -555.101 122 122"
	 xml:space="preserve">
<g>
	<g>
		<g>
			<g opacity="0.2">
				<path d="M-548.118-553.101c-33.137,0-60,26.857-60,60c0,33.135,26.863,60,60,60c33.135,0,60-26.865,60-60
					C-488.118-526.243-514.983-553.101-548.118-553.101z"/>
			</g>
			<g>
				<path fill="#EFEFEF" d="M-550.118-555.101c-33.137,0-60,26.857-60,60c0,33.135,26.863,60,60,60c33.135,0,60-26.865,60-60
					C-490.118-528.243-516.983-555.101-550.118-555.101z"/>
			</g>
		</g>
		<g>
			<polygon fill="#1B71B7" points="-522.812,-515.114 -550.118,-491.142 -577.425,-515.114 			"/>
		</g>
		<g>
			<polygon fill="#1B71B7" points="-577.585,-510.716 -561.101,-496.214 -577.585,-479.927 			"/>
		</g>
		<g>
			<polygon fill="#1B71B7" points="-522.653,-475.087 -577.585,-475.087 -577.585,-475.144 -558.528,-493.95 -550.118,-486.552 
				-541.71,-493.95 -522.653,-475.144 			"/>
		</g>
	</g>
	<g>
		<polygon fill="#1B71B7" points="-522.653,-479.927 -539.136,-496.214 -522.653,-510.716 		"/>
	</g>
</g>
</svg>
