<?xml version="1.0" encoding="utf-8"?>
<!-- Generator: Adobe Illustrator 16.0.3, SVG Export Plug-In . SVG Version: 6.00 Build 0)  -->
<!DOCTYPE svg PUBLIC "-//W3C//DTD SVG 1.1//EN" "http://www.w3.org/Graphics/SVG/1.1/DTD/svg11.dtd">
<svg version="1.1" id="Capa_1" xmlns="http://www.w3.org/2000/svg" xmlns:xlink="http://www.w3.org/1999/xlink" x="0px" y="0px"
	 width="122px" height="122px" viewBox="-780.118 -555.101 122 122" enable-background="new -780.118 -555.101 122 122"
	 xml:space="preserve">
<g>
	<g>
		<g opacity="0.2">
			<path d="M-718.118-553.101c-33.137,0-60,26.857-60,60c0,33.135,26.863,60,60,60c33.135,0,60-26.865,60-60
				C-658.118-526.243-684.983-553.101-718.118-553.101z"/>
		</g>
		<g>
			<path fill="#EFEFEF" d="M-720.118-555.101c-33.137,0-60,26.857-60,60c0,33.135,26.863,60,60,60c33.135,0,60-26.865,60-60
				C-660.118-528.243-686.983-555.101-720.118-555.101z"/>
		</g>
	</g>
	<g>
		<path fill="#1B71B7" d="M-693.153-473.929c-1.352,3.263-7.172,6.007-9.936,6.271c-2.451,0.26-5.559,0.244-8.914-0.992
			c-2.033-0.771-4.635-1.772-7.938-3.41c-13.953-6.854-22.559-21.664-23.207-22.649c-0.678-0.981-5.42-7.994-5.072-14.973
			c0.354-7.002,4.193-10.259,5.561-11.613c1.379-1.353,2.936-1.631,3.865-1.586c0.953,0.049,1.904,0.101,2.736,0.185
			c0.867,0.084,2.063-0.229,3.064,2.598c1.055,2.902,3.545,10.037,3.857,10.766c0.322,0.728,0.514,1.576-0.012,2.49
			c-0.512,0.924-0.779,1.51-1.529,2.313c-0.762,0.787-1.586,1.775-2.248,2.367c-0.76,0.678-1.527,1.41-0.785,2.863
			c0.768,1.48,3.391,6.27,7.422,10.24c5.182,5.111,9.691,6.842,11.094,7.621c1.365,0.783,2.211,0.703,3.074-0.209
			c0.881-0.896,3.758-3.967,4.791-5.334c1.012-1.375,1.941-1.098,3.223-0.551c1.279,0.528,8.098,4.313,9.484,5.104
			c1.385,0.781,2.309,1.18,2.639,1.785C-691.655-480.03-691.8-477.192-693.153-473.929z"/>
	</g>
</g>
</svg>
