<?xml version="1.0" encoding="utf-8"?>
<!-- Generator: Adobe Illustrator 16.0.3, SVG Export Plug-In . SVG Version: 6.00 Build 0)  -->
<!DOCTYPE svg PUBLIC "-//W3C//DTD SVG 1.1//EN" "http://www.w3.org/Graphics/SVG/1.1/DTD/svg11.dtd">
<svg version="1.1" id="Capa_1" xmlns="http://www.w3.org/2000/svg" xmlns:xlink="http://www.w3.org/1999/xlink" x="0px" y="0px"
	 width="361.188px" height="41.152px" viewBox="0 0 361.188 41.152" enable-background="new 0 0 361.188 41.152"
	 xml:space="preserve">
<g>
	<g>
		<line fill="#FFFFFF" x1="109.102" y1="0" x2="109.102" y2="40"/>
		<rect x="108.546" fill="#FFFFFF" width="1.111" height="40"/>
	</g>
	<g>
		<path fill="#FFFFFF" d="M132.287,13.999l-0.456,1.051c-0.563-0.229-1.068-0.396-1.517-0.502c-0.449-0.107-1.046-0.16-1.791-0.16
			c-1.08,0-2.058,0.301-2.932,0.9c-0.875,0.602-1.568,1.426-2.077,2.477c-0.509,1.049-0.765,2.229-0.765,3.535
			c0,1.248,0.221,2.385,0.662,3.41c0.44,1.027,1.083,1.842,1.928,2.441c0.844,0.602,1.836,0.9,2.977,0.9
			c0.745,0,1.381-0.061,1.905-0.182s1.03-0.289,1.518-0.502l0.547,1.096c-0.426,0.229-1.022,0.426-1.791,0.592
			c-0.767,0.168-1.479,0.252-2.133,0.252c-1.521,0-2.817-0.361-3.89-1.084c-1.072-0.723-1.879-1.691-2.418-2.908
			c-0.54-1.217-0.811-2.547-0.811-3.992c0-1.521,0.297-2.9,0.89-4.14c0.595-1.24,1.438-2.221,2.533-2.944
			c1.095-0.723,2.373-1.084,3.833-1.084c0.563,0,1.24,0.076,2.03,0.229C131.321,13.536,131.907,13.741,132.287,13.999z"/>
		<path fill="#FFFFFF" d="M135.253,19.589l-0.434-1.004c0.396-0.273,0.958-0.502,1.688-0.684c0.729-0.184,1.346-0.273,1.848-0.273
			c1.263,0,2.267,0.326,3.012,0.98s1.118,1.527,1.118,2.623v7.756h-1.164l-0.183-1.186c-0.38,0.396-0.886,0.742-1.517,1.037
			c-0.632,0.297-1.251,0.445-1.859,0.445c-1.201,0-2.122-0.314-2.761-0.947c-0.639-0.631-0.958-1.447-0.958-2.451
			c0-1.035,0.365-1.848,1.095-2.441c0.73-0.594,1.681-0.883,2.852-0.867h3.08v-1.117c0-0.807-0.225-1.449-0.673-1.927
			c-0.449-0.479-1.106-0.719-1.974-0.719c-0.715,0-1.273,0.061-1.677,0.182C136.344,19.118,135.846,19.315,135.253,19.589z
			 M135.437,25.885c0,0.592,0.188,1.113,0.57,1.563c0.379,0.449,0.949,0.674,1.71,0.674c0.669,0,1.29-0.172,1.859-0.514
			c0.57-0.344,1.069-0.771,1.494-1.289v-2.807h-3.125c-0.791,0-1.407,0.229-1.849,0.684
			C135.655,24.653,135.437,25.215,135.437,25.885z"/>
		<path fill="#FFFFFF" d="M146.774,21.094v7.893h-1.414V17.923h1.163l0.229,1.689c0.471-0.549,1.103-1.016,1.895-1.404
			c0.789-0.387,1.527-0.58,2.212-0.58c1.141,0,1.992,0.334,2.555,1.004c0.563,0.668,0.845,1.558,0.845,2.667v7.666h-1.415v-7.393
			c0-1.824-0.715-2.736-2.145-2.736c-0.578,0-1.251,0.217-2.019,0.65C147.911,19.919,147.276,20.456,146.774,21.094z"/>
		<path fill="#FFFFFF" d="M164.661,27.323l0.456,1.025c-0.426,0.273-0.988,0.498-1.688,0.674c-0.698,0.174-1.3,0.262-1.802,0.262
			c-1.064,0-1.989-0.246-2.772-0.74s-1.38-1.188-1.791-2.076c-0.41-0.891-0.615-1.914-0.615-3.068c0-1.096,0.22-2.084,0.661-2.967
			c0.441-0.88,1.064-1.57,1.871-2.064c0.806-0.494,1.741-0.74,2.806-0.74c0.472,0,1.058,0.09,1.757,0.273
			c0.699,0.182,1.263,0.41,1.688,0.684l-0.456,1.004c-0.548-0.273-1.023-0.471-1.426-0.594c-0.403-0.121-0.947-0.182-1.632-0.182
			c-1.187,0-2.118,0.426-2.795,1.277c-0.677,0.852-1.022,1.947-1.038,3.285c0,1.414,0.32,2.555,0.959,3.422s1.559,1.301,2.76,1.301
			c0.715,0,1.259-0.057,1.632-0.172C163.607,27.813,164.083,27.612,164.661,27.323z"/>
		<path fill="#FFFFFF" d="M176.389,23.536h-8.214c0.016,1.414,0.351,2.535,1.004,3.365c0.654,0.828,1.688,1.242,3.104,1.242
			c0.607,0,1.186-0.08,1.733-0.238c0.548-0.16,1.125-0.4,1.735-0.719l0.479,1.049c-0.654,0.35-1.266,0.611-1.836,0.787
			c-0.571,0.174-1.252,0.262-2.042,0.262c-1.856,0-3.255-0.531-4.198-1.596s-1.414-2.494-1.414-4.289
			c0.015-1.719,0.46-3.111,1.334-4.175c0.875-1.064,2.103-1.596,3.685-1.596c1.566,0,2.73,0.535,3.492,1.607
			C176.009,20.307,176.389,21.741,176.389,23.536z M168.22,22.553h6.731c-0.243-2.492-1.332-3.74-3.263-3.74
			c-1.049,0-1.863,0.338-2.441,1.016C168.668,20.504,168.327,21.415,168.22,22.553z"/>
		<path fill="#FFFFFF" d="M180.084,21.094v7.893h-1.414V17.923h0.935l0.411,1.758c0.517-0.426,1.121-0.826,1.813-1.197
			c0.693-0.373,1.297-0.561,1.813-0.561l0.389,1.119c-0.654,0-1.358,0.213-2.11,0.639C181.168,20.106,180.556,20.577,180.084,21.094
			z"/>
		<path fill="#FFFFFF" d="M201.233,22.211h-3.49l0.137-1.025h4.769v7.072c-0.457,0.303-1.088,0.555-1.894,0.752
			c-0.807,0.197-1.567,0.297-2.282,0.297c-1.536,0-2.897-0.346-4.083-1.039c-1.187-0.691-2.107-1.645-2.761-2.863
			c-0.654-1.215-0.98-2.576-0.98-4.082c0-1.597,0.349-3.015,1.049-4.255c0.699-1.238,1.657-2.202,2.874-2.885
			c1.217-0.686,2.563-1.027,4.039-1.027c0.563,0,1.239,0.076,2.03,0.229c0.79,0.152,1.376,0.357,1.758,0.615l-0.435,1.051
			c-0.563-0.229-1.072-0.396-1.529-0.502c-0.456-0.107-1.049-0.16-1.779-0.16c-1.11,0.016-2.163,0.297-3.159,0.844
			c-0.997,0.547-1.803,1.342-2.419,2.385c-0.615,1.041-0.924,2.27-0.924,3.683c0,1.354,0.277,2.543,0.833,3.57
			c0.555,1.027,1.308,1.814,2.259,2.361c0.95,0.547,2.019,0.82,3.205,0.82c0.897,0,1.825-0.174,2.783-0.523V22.211z"/>
		<path fill="#FFFFFF" d="M214.353,23.536h-8.215c0.016,1.414,0.351,2.535,1.004,3.365c0.654,0.828,1.688,1.242,3.104,1.242
			c0.607,0,1.186-0.08,1.733-0.238c0.548-0.16,1.125-0.4,1.734-0.719l0.479,1.049c-0.654,0.35-1.266,0.611-1.836,0.787
			c-0.571,0.174-1.252,0.262-2.041,0.262c-1.858,0-3.257-0.531-4.2-1.596s-1.414-2.494-1.414-4.289
			c0.015-1.719,0.46-3.111,1.334-4.175c0.875-1.064,2.103-1.596,3.686-1.596c1.566,0,2.73,0.535,3.491,1.607
			C213.972,20.307,214.353,21.741,214.353,23.536z M206.184,22.553h6.731c-0.243-2.492-1.331-3.74-3.263-3.74
			c-1.05,0-1.864,0.338-2.442,1.016C206.632,20.504,206.29,21.415,206.184,22.553z"/>
		<path fill="#FFFFFF" d="M218.048,21.094v7.893h-1.414V17.923h1.163l0.229,1.689c0.471-0.549,1.103-1.016,1.894-1.404
			c0.79-0.387,1.528-0.58,2.213-0.58c1.141,0,1.992,0.334,2.555,1.004c0.563,0.668,0.845,1.558,0.845,2.667v7.666h-1.415v-7.393
			c0-1.824-0.715-2.736-2.145-2.736c-0.578,0-1.251,0.217-2.019,0.65C219.185,19.919,218.55,20.456,218.048,21.094z"/>
		<path fill="#FFFFFF" d="M237.486,26.489c-0.44,0.875-1.072,1.561-1.894,2.055s-1.779,0.74-2.874,0.74
			c-1.034,0-1.928-0.25-2.682-0.752c-0.753-0.502-1.327-1.197-1.722-2.088c-0.396-0.891-0.594-1.904-0.594-3.045
			c0.015-1.096,0.235-2.08,0.661-2.955c0.426-0.875,1.038-1.562,1.838-2.064c0.798-0.502,1.729-0.752,2.795-0.752
			c1.627,0,2.889,0.52,3.787,1.563c0.896,1.041,1.346,2.482,1.346,4.322C238.148,24.622,237.928,25.616,237.486,26.489z
			 M235.673,26.821c0.677-0.852,1.022-1.947,1.038-3.285c0-1.416-0.319-2.555-0.958-3.422c-0.639-0.867-1.56-1.3-2.761-1.3
			c-1.187,0-2.118,0.426-2.795,1.277c-0.678,0.852-1.023,1.947-1.039,3.285c0,1.414,0.32,2.555,0.959,3.422
			c0.64,0.867,1.561,1.301,2.761,1.301C234.064,28.098,234.996,27.672,235.673,26.821z"/>
		<path fill="#FFFFFF" d="M254.906,18.62c0.509,0.66,0.764,1.554,0.764,2.679v7.666h-1.414v-7.393c0-0.852-0.141-1.52-0.422-2.007
			c-0.282-0.486-0.78-0.729-1.495-0.729c-0.486,0-1.064,0.189-1.733,0.57c-0.67,0.379-1.256,0.859-1.758,1.437l0.022,0.455v7.666
			h-1.414v-7.393c0-0.852-0.14-1.52-0.422-2.007c-0.282-0.486-0.78-0.729-1.494-0.729c-0.518,0-1.138,0.217-1.859,0.65
			c-0.723,0.432-1.335,0.968-1.837,1.607v7.893h-1.414V17.923h1.163l0.229,1.689c0.471-0.549,1.079-1.016,1.825-1.404
			c0.744-0.387,1.429-0.58,2.053-0.58c1.521,0,2.494,0.66,2.92,1.984c0.472-0.549,1.08-1.016,1.826-1.404
			c0.745-0.387,1.43-0.58,2.054-0.58C253.594,17.628,254.396,17.958,254.906,18.62z"/>
		<path fill="#FFFFFF" d="M267.511,23.536h-8.214c0.016,1.414,0.351,2.535,1.004,3.365c0.654,0.828,1.688,1.242,3.104,1.242
			c0.608,0,1.186-0.08,1.733-0.238c0.548-0.16,1.125-0.4,1.734-0.719l0.479,1.049c-0.654,0.35-1.266,0.611-1.836,0.787
			c-0.571,0.174-1.252,0.262-2.042,0.262c-1.856,0-3.255-0.531-4.198-1.596s-1.414-2.494-1.414-4.289
			c0.015-1.719,0.46-3.111,1.334-4.175c0.875-1.064,2.103-1.596,3.685-1.596c1.566,0,2.73,0.535,3.491,1.607
			C267.13,20.307,267.511,21.741,267.511,23.536z M259.343,22.553h6.73c-0.243-2.492-1.331-3.74-3.263-3.74
			c-1.048,0-1.863,0.338-2.441,1.016C259.791,20.504,259.449,21.415,259.343,22.553z"/>
		<path fill="#FFFFFF" d="M285.739,13.999l-0.456,1.051c-0.563-0.229-1.068-0.396-1.517-0.502c-0.448-0.107-1.046-0.16-1.791-0.16
			c-1.08,0-2.058,0.301-2.932,0.9c-0.875,0.602-1.567,1.426-2.076,2.477c-0.51,1.049-0.765,2.229-0.765,3.535
			c0,1.248,0.221,2.385,0.662,3.41c0.441,1.027,1.083,1.842,1.928,2.441c0.844,0.602,1.836,0.9,2.977,0.9
			c0.745,0,1.381-0.061,1.905-0.182s1.03-0.289,1.519-0.502l0.546,1.096c-0.426,0.229-1.022,0.426-1.791,0.592
			c-0.768,0.168-1.479,0.252-2.133,0.252c-1.521,0-2.817-0.361-3.89-1.084s-1.879-1.691-2.418-2.908
			c-0.54-1.217-0.811-2.547-0.811-3.992c0-1.521,0.297-2.9,0.89-4.14c0.594-1.24,1.438-2.221,2.533-2.944
			c1.095-0.723,2.372-1.084,3.832-1.084c0.563,0,1.241,0.076,2.03,0.229C284.773,13.536,285.359,13.741,285.739,13.999z"/>
		<path fill="#FFFFFF" d="M296.873,26.489c-0.44,0.875-1.072,1.561-1.894,2.055s-1.779,0.74-2.874,0.74
			c-1.034,0-1.928-0.25-2.682-0.752c-0.753-0.502-1.326-1.197-1.723-2.088c-0.395-0.891-0.593-1.904-0.593-3.045
			c0.015-1.096,0.235-2.08,0.661-2.955c0.426-0.875,1.038-1.562,1.838-2.064c0.798-0.502,1.729-0.752,2.796-0.752
			c1.626,0,2.888,0.52,3.786,1.563c0.896,1.041,1.346,2.482,1.346,4.322C297.535,24.622,297.314,25.616,296.873,26.489z
			 M295.06,26.821c0.678-0.852,1.022-1.947,1.039-3.285c0-1.416-0.32-2.555-0.959-3.422c-0.639-0.867-1.56-1.3-2.761-1.3
			c-1.187,0-2.118,0.426-2.795,1.277c-0.678,0.852-1.023,1.947-1.039,3.285c0,1.414,0.32,2.555,0.959,3.422
			c0.64,0.867,1.56,1.301,2.761,1.301C293.451,28.098,294.383,27.672,295.06,26.821z"/>
		<path fill="#FFFFFF" d="M301.459,12.881v16.105h-1.415V13.11L301.459,12.881z"/>
		<path fill="#FFFFFF" d="M306.296,12.881v16.105h-1.415V13.11L306.296,12.881z"/>
		<path fill="#FFFFFF" d="M318.456,23.536h-8.214c0.016,1.414,0.351,2.535,1.004,3.365c0.654,0.828,1.688,1.242,3.104,1.242
			c0.607,0,1.186-0.08,1.733-0.238c0.548-0.16,1.125-0.4,1.734-0.719l0.479,1.049c-0.654,0.35-1.266,0.611-1.836,0.787
			c-0.571,0.174-1.252,0.262-2.042,0.262c-1.856,0-3.255-0.531-4.198-1.596c-0.944-1.064-1.414-2.494-1.414-4.289
			c0.014-1.719,0.459-3.111,1.335-4.175c0.875-1.064,2.102-1.596,3.684-1.596c1.566,0,2.73,0.535,3.491,1.607
			C318.075,20.307,318.456,21.741,318.456,23.536z M310.288,22.553h6.73c-0.243-2.492-1.331-3.74-3.263-3.74
			c-1.049,0-1.863,0.338-2.441,1.016C310.736,20.504,310.395,21.415,310.288,22.553z"/>
		<path fill="#FFFFFF" d="M328.267,27.323l0.456,1.025c-0.426,0.273-0.988,0.498-1.688,0.674c-0.699,0.174-1.3,0.262-1.802,0.262
			c-1.065,0-1.989-0.246-2.772-0.74s-1.38-1.188-1.791-2.076c-0.41-0.891-0.615-1.914-0.615-3.068c0-1.096,0.22-2.084,0.661-2.967
			c0.441-0.88,1.064-1.57,1.871-2.064c0.806-0.494,1.741-0.74,2.806-0.74c0.472,0,1.058,0.09,1.757,0.273
			c0.699,0.182,1.263,0.41,1.688,0.684l-0.456,1.004c-0.548-0.273-1.023-0.471-1.426-0.594c-0.403-0.121-0.947-0.182-1.632-0.182
			c-1.187,0-2.118,0.426-2.794,1.277c-0.678,0.852-1.023,1.947-1.039,3.285c0,1.414,0.32,2.555,0.959,3.422s1.559,1.301,2.76,1.301
			c0.715,0,1.259-0.057,1.632-0.172C327.213,27.813,327.688,27.612,328.267,27.323z"/>
		<path fill="#FFFFFF" d="M333.012,18.151h2.008l0.479,1.072h-2.486v6.958c0,0.578,0.125,1.033,0.376,1.367
			c0.251,0.336,0.643,0.502,1.176,0.502c0.304,0,0.615-0.068,0.935-0.205l0.274,1.164c-0.046,0.016-0.198,0.064-0.456,0.148
			c-0.259,0.084-0.609,0.125-1.05,0.125c-0.82,0-1.476-0.254-1.962-0.764c-0.487-0.51-0.73-1.236-0.73-2.18v-7.117h-1.619
			l-0.023-1.072h1.643v-2.875l1.438-0.502V18.151z"/>
		<path fill="#FFFFFF" d="M338.533,15.505c-0.319,0-0.578-0.102-0.776-0.307c-0.197-0.207-0.296-0.461-0.296-0.766
			c0-0.303,0.099-0.559,0.296-0.764c0.198-0.205,0.457-0.309,0.776-0.309c0.288,0,0.543,0.104,0.764,0.309s0.331,0.461,0.331,0.764
			c0,0.305-0.11,0.559-0.331,0.766C339.076,15.403,338.821,15.505,338.533,15.505z M339.263,17.923v11.064h-1.437V17.923H339.263z"
			/>
		<path fill="#FFFFFF" d="M350.512,17.923l-4.039,11.064h-1.506l-3.991-10.767l1.185-0.592l3.56,9.558l3.422-9.263H350.512z"/>
		<path fill="#FFFFFF" d="M361.188,23.536h-8.214c0.016,1.414,0.351,2.535,1.004,3.365c0.654,0.828,1.688,1.242,3.104,1.242
			c0.607,0,1.186-0.08,1.733-0.238c0.548-0.16,1.125-0.4,1.734-0.719l0.479,1.049c-0.654,0.35-1.266,0.611-1.836,0.787
			c-0.571,0.174-1.252,0.262-2.042,0.262c-1.856,0-3.255-0.531-4.198-1.596s-1.414-2.494-1.414-4.289
			c0.015-1.719,0.46-3.111,1.334-4.175c0.875-1.064,2.103-1.596,3.685-1.596c1.566,0,2.73,0.535,3.491,1.607
			C360.809,20.307,361.188,21.741,361.188,23.536z M353.021,22.553h6.73c-0.243-2.492-1.331-3.74-3.263-3.74
			c-1.049,0-1.863,0.338-2.441,1.016C353.469,20.504,353.127,21.415,353.021,22.553z"/>
	</g>
	<g>
		<g opacity="0.2">
			<path d="M92.577,28.967c-0.444,0.979-1.022,1.832-1.717,2.543c-0.768,0.788-1.615,1.44-2.517,1.94
				c-0.9,0.498-1.864,0.867-2.863,1.098c-0.992,0.229-1.961,0.346-2.879,0.346c-1.767,0-3.413-0.391-4.892-1.16
				c-1.472-0.764-2.751-1.791-3.804-3.056c-1.048-1.256-1.87-2.736-2.441-4.395c-0.559-1.619-0.846-3.326-0.857-5.072h-0.01
				c0.002,0.051,0.003,0.1,0.006,0.15c0.004,0.066,0.008,0.129,0.008,0.203c0.003,0.045-0.011,0.127-0.031,0.229
				c-0.055,2.434-0.529,4.791-1.425,7.014c-0.552,1.367-1.235,2.65-2.037,3.843c0.494,0.723,1.029,1.416,1.61,2.072
				c1.665,1.887,3.683,3.439,5.993,4.611c2.299,1.168,4.875,1.762,7.656,1.762c1.575,0,3.21-0.205,4.864-0.607
				c1.647-0.402,3.218-0.996,4.667-1.768c1.446-0.77,2.763-1.723,3.912-2.836c1.073-1.039,1.925-2.248,2.537-3.592L92.577,28.967z"
				/>
		</g>
		<g>
			<path fill="#A0CFE4" d="M91.366,27.756c-0.444,0.979-1.022,1.832-1.717,2.543c-0.768,0.788-1.615,1.44-2.517,1.94
				c-0.9,0.498-1.864,0.867-2.863,1.098c-0.992,0.229-1.961,0.346-2.879,0.346c-1.767,0-3.413-0.391-4.892-1.16
				c-1.472-0.764-2.751-1.791-3.804-3.056c-1.048-1.256-1.87-2.736-2.441-4.395c-0.559-1.619-0.846-3.326-0.857-5.072h-0.01
				c0.002,0.051,0.003,0.1,0.006,0.15c0.004,0.066,0.008,0.129,0.008,0.203c0.003,0.045-0.011,0.127-0.031,0.229
				c-0.055,2.434-0.529,4.791-1.425,7.014c-0.552,1.367-1.235,2.65-2.037,3.843c0.494,0.723,1.029,1.416,1.61,2.072
				c1.665,1.887,3.683,3.439,5.993,4.611c2.299,1.168,4.875,1.762,7.656,1.762c1.575,0,3.21-0.205,4.864-0.607
				c1.647-0.402,3.218-0.996,4.667-1.768c1.446-0.77,2.763-1.723,3.912-2.836c1.073-1.039,1.925-2.248,2.537-3.592L91.366,27.756z"
				/>
		</g>
	</g>
	<g>
		<g opacity="0.2">
			<path d="M92.063,3.696c-2.613-1.57-5.758-2.369-9.347-2.369c-3.043,0-5.79,0.576-8.169,1.709
				c-2.382,1.137-4.426,2.641-6.073,4.471c-1.649,1.834-2.922,3.943-3.783,6.268c-0.517,1.398-0.878,2.818-1.087,4.247H51.531v6.437
				h11.183h0.39c-0.117,0.574-0.264,1.143-0.442,1.705c-0.256,0.805-0.575,1.576-0.957,2.307c-0.01,0.018-0.02,0.037-0.029,0.055
				c-0.072,0.137-0.148,0.273-0.226,0.408c-0.06,0.104-0.119,0.203-0.181,0.303c-0.029,0.051-0.06,0.1-0.091,0.148
				c-0.089,0.146-0.184,0.289-0.279,0.432c-0.003,0.004-0.006,0.008-0.006,0.008c-0.11,0.162-0.222,0.318-0.336,0.473l-0.007,0.01
				c-0.062,0.086-0.122,0.172-0.188,0.254c-1.014,1.302-2.277,2.36-3.751,3.146c-1.481,0.789-3.204,1.189-5.12,1.189
				c-1.879,0-3.581-0.391-5.06-1.16c-1.474-0.766-2.737-1.793-3.751-3.06c-1.012-1.26-1.795-2.729-2.329-4.369
				c-0.531-1.629-0.821-3.344-0.821-5.094h-0.005H39.52h-0.013H39.5h-0.034c0,0.037,0.002,0.074,0.002,0.111
				c0,2.602-0.483,5.119-1.437,7.484c-0.571,1.416-1.283,2.742-2.123,3.97c-0.011,0.018-0.022,0.033-0.033,0.049
				c0.513,0.758,1.076,1.48,1.688,2.162c1.669,1.854,3.693,3.363,6.015,4.48c2.318,1.117,4.946,1.684,7.811,1.684
				c2.75,0,5.334-0.551,7.68-1.633c1.775-0.818,3.379-1.854,4.766-3.074c0.461-0.408,0.907-0.842,1.327-1.289
				c0.528-0.566,1.041-1.207,1.665-2.072l0.258-0.359c0,0,0.006-0.018,0.015-0.043c0.006-0.012,0.013-0.021,0.02-0.031
				c0.802-1.192,1.485-2.476,2.037-3.843c0.896-2.223,1.37-4.58,1.425-7.014c0.021-0.102,0.034-0.184,0.031-0.229
				c0-0.074-0.004-0.137-0.008-0.203c-0.003-0.051-0.004-0.1-0.006-0.15h0.01c0-0.036-0.003-0.073-0.003-0.11
				c0-1.6,0.25-3.227,0.744-4.838c0.494-1.617,1.237-3.086,2.213-4.367c0.977-1.283,2.22-2.344,3.695-3.146
				c1.48-0.809,3.242-1.219,5.234-1.219c0.914,0,1.863,0.107,2.819,0.316c0.959,0.211,1.893,0.551,2.775,1.012
				c0.884,0.461,1.723,1.096,2.494,1.885c0.691,0.709,1.298,1.576,1.804,2.58l5.407-3.723C96.511,7.2,94.586,5.213,92.063,3.696z"/>
		</g>
		<g>
			<path fill="#ABCD7E" d="M90.851,2.484c-2.613-1.57-5.758-2.369-9.347-2.369c-3.043,0-5.79,0.576-8.169,1.709
				c-2.382,1.137-4.426,2.641-6.073,4.471c-1.649,1.834-2.922,3.943-3.783,6.268c-0.517,1.398-0.878,2.818-1.087,4.247H50.32v6.437
				h11.183h0.39c-0.117,0.574-0.264,1.143-0.442,1.705c-0.256,0.805-0.575,1.576-0.957,2.307c-0.01,0.018-0.02,0.037-0.029,0.055
				c-0.072,0.137-0.148,0.273-0.226,0.408c-0.06,0.104-0.119,0.203-0.181,0.303c-0.029,0.051-0.06,0.1-0.091,0.148
				c-0.089,0.146-0.184,0.289-0.279,0.432c-0.003,0.004-0.006,0.008-0.006,0.008c-0.11,0.162-0.222,0.318-0.336,0.473l-0.007,0.01
				c-0.062,0.086-0.122,0.172-0.188,0.254c-1.014,1.302-2.277,2.36-3.751,3.146c-1.481,0.789-3.204,1.189-5.12,1.189
				c-1.879,0-3.581-0.391-5.06-1.16c-1.474-0.766-2.737-1.793-3.751-3.06c-1.012-1.26-1.795-2.729-2.329-4.369
				c-0.531-1.629-0.821-3.344-0.821-5.094h-0.005h-0.006h-0.013h-0.008h-0.034c0,0.037,0.002,0.074,0.002,0.111
				c0,2.602-0.483,5.119-1.437,7.484c-0.571,1.416-1.283,2.742-2.123,3.97c-0.011,0.018-0.022,0.033-0.033,0.049
				c0.513,0.758,1.076,1.48,1.688,2.162c1.669,1.854,3.693,3.363,6.015,4.48c2.318,1.117,4.946,1.684,7.811,1.684
				c2.75,0,5.334-0.551,7.68-1.633c1.775-0.818,3.379-1.854,4.766-3.074c0.461-0.408,0.907-0.842,1.327-1.289
				c0.528-0.566,1.041-1.207,1.665-2.072l0.258-0.359c0,0,0.006-0.018,0.015-0.043c0.006-0.012,0.013-0.021,0.02-0.031
				c0.802-1.192,1.485-2.476,2.037-3.843c0.896-2.223,1.37-4.58,1.425-7.014c0.021-0.102,0.034-0.184,0.031-0.229
				c0-0.074-0.004-0.137-0.008-0.203c-0.003-0.051-0.004-0.1-0.006-0.15h0.01c0-0.037-0.003-0.074-0.003-0.111
				c0-1.6,0.25-3.227,0.744-4.838c0.494-1.617,1.237-3.086,2.213-4.367c0.977-1.283,2.22-2.344,3.695-3.146
				c1.48-0.809,3.242-1.219,5.234-1.219c0.914,0,1.863,0.107,2.819,0.316c0.959,0.211,1.893,0.551,2.775,1.012
				c0.884,0.461,1.723,1.096,2.494,1.885c0.691,0.709,1.298,1.576,1.804,2.58l5.407-3.723C95.3,5.989,93.375,4.002,90.851,2.484z"/>
		</g>
	</g>
	<g>
		<g opacity="0.2">
			<path d="M60.978,3.752c-2.614-1.572-5.76-2.369-9.348-2.369c-0.061,0-0.117,0.004-0.178,0.004c-0.059,0-0.116-0.004-0.176-0.004
				c-3.59,0-6.735,0.797-9.349,2.369c-1.05,0.629-1.989,1.348-2.828,2.137c0,0,0.004,0.008,0.008,0.012
				c-0.611,0.522-1.188,1.073-1.72,1.663c-1.649,1.834-2.921,3.943-3.782,6.268c-0.862,2.328-1.299,4.717-1.299,7.1
				c0,0.094,0.005,0.188,0.007,0.28h-0.009c0,1.672-0.261,3.338-0.772,4.951c-0.515,1.619-1.287,3.098-2.299,4.396
				c-1.016,1.302-2.276,2.36-3.752,3.146c-1.48,0.789-3.203,1.189-5.117,1.189c-1.88,0-3.583-0.391-5.061-1.16
				c-1.475-0.766-2.736-1.793-3.752-3.06c-1.012-1.26-1.795-2.729-2.328-4.369c-0.531-1.629-0.802-3.344-0.802-5.094H8.366
				c0,0.037,0.003,0.074,0.003,0.111c0,2.602-0.483,5.119-1.437,7.484c-0.573,1.422-1.289,2.754-2.132,3.987
				c0.513,0.754,1.074,1.471,1.686,2.148c1.666,1.852,3.691,3.355,6.019,4.473c2.319,1.115,4.944,1.68,7.802,1.68
				c2.746,0,5.325-0.547,7.667-1.627c2.344-1.08,4.388-2.545,6.073-4.359c1.686-1.816,3.025-3.937,3.979-6.302
				c0.952-2.365,1.436-4.883,1.436-7.484c0-0.037-0.002-0.074-0.002-0.111h0.062c0-0.017-0.002-0.036-0.002-0.056
				c0-1.598,0.251-3.225,0.744-4.836c0.493-1.617,1.238-3.086,2.212-4.367c0.979-1.285,2.221-2.344,3.695-3.146
				c0.165-0.092,0.336-0.174,0.507-0.254c0.648-0.279,1.319-0.498,2.003-0.648c0.94-0.207,1.872-0.313,2.771-0.314
				c0.9,0.002,1.832,0.107,2.772,0.314c0.685,0.15,1.354,0.369,2.003,0.648c0.26,0.111,0.519,0.23,0.771,0.361
				c0.885,0.463,1.724,1.098,2.494,1.885c0.31,0.318,0.6,0.674,0.874,1.053c0.894-2.156,2.043-4.15,3.431-5.95
				c0.004-0.004,0.006-0.008,0.009-0.012C62.967,5.1,62.028,4.381,60.978,3.752z"/>
		</g>
		<g>
			<path fill="#A0CFE4" d="M59.767,2.541c-2.614-1.572-5.76-2.369-9.348-2.369c-0.061,0-0.117,0.004-0.178,0.004
				c-0.059,0-0.116-0.004-0.176-0.004c-3.59,0-6.735,0.797-9.349,2.369c-1.05,0.629-1.989,1.348-2.828,2.137
				c0,0,0.004,0.008,0.008,0.012c-0.611,0.522-1.188,1.073-1.72,1.663c-1.649,1.834-2.921,3.943-3.782,6.268
				c-0.862,2.328-1.299,4.717-1.299,7.1c0,0.094,0.005,0.188,0.007,0.281h-0.009c0,1.672-0.261,3.338-0.772,4.951
				c-0.515,1.619-1.287,3.098-2.299,4.396c-1.016,1.302-2.276,2.36-3.752,3.146c-1.48,0.789-3.203,1.189-5.117,1.189
				c-1.88,0-3.583-0.391-5.061-1.16c-1.475-0.766-2.736-1.793-3.752-3.06c-1.012-1.26-1.795-2.729-2.328-4.369
				C7.48,23.465,7.209,21.75,7.209,20H7.155c0,0.037,0.003,0.074,0.003,0.111c0,2.602-0.483,5.119-1.437,7.484
				c-0.573,1.422-1.289,2.754-2.132,3.987c0.513,0.754,1.074,1.471,1.686,2.148c1.666,1.852,3.691,3.355,6.019,4.473
				c2.319,1.115,4.944,1.68,7.802,1.68c2.746,0,5.325-0.547,7.667-1.627c2.344-1.08,4.388-2.545,6.073-4.359
				c1.686-1.816,3.025-3.937,3.979-6.302c0.952-2.365,1.436-4.883,1.436-7.484c0-0.037-0.002-0.074-0.002-0.111h0.062
				c0-0.017-0.002-0.037-0.002-0.056c0-1.598,0.251-3.225,0.744-4.836c0.493-1.617,1.238-3.086,2.212-4.367
				c0.979-1.285,2.221-2.344,3.695-3.146c0.165-0.092,0.336-0.174,0.507-0.254c0.648-0.279,1.319-0.498,2.003-0.648
				c0.94-0.207,1.872-0.313,2.771-0.314c0.9,0.002,1.832,0.107,2.772,0.314c0.685,0.15,1.354,0.369,2.003,0.648
				c0.26,0.111,0.519,0.23,0.771,0.361c0.885,0.463,1.724,1.098,2.494,1.885c0.31,0.318,0.6,0.674,0.874,1.053
				c0.894-2.156,2.043-4.15,3.431-5.95c0.004-0.004,0.006-0.008,0.009-0.012C61.756,3.889,60.816,3.17,59.767,2.541z"/>
		</g>
	</g>
	<g>
		<g opacity="0.2">
			<path d="M29.885,3.752c-2.614-1.572-5.759-2.369-9.348-2.369c-0.06,0-0.117,0.004-0.177,0.004s-0.117-0.004-0.175-0.004
				c-3.591,0-6.736,0.797-9.35,2.369C9.785,4.381,8.846,5.1,8.006,5.889c0,0,0.005,0.008,0.007,0.012
				c-0.61,0.522-1.188,1.073-1.717,1.663C5.707,8.218,5.167,8.909,4.676,9.63c-0.884,1.301-1.61,2.705-2.165,4.201
				c-0.86,2.328-1.297,4.717-1.297,7.1c0,0.094,0.005,0.188,0.006,0.28H1.212c0,0.029-0.001,0.055-0.001,0.084
				c0.01,2.465,0.473,4.908,1.378,7.266c0.581,1.51,1.321,2.926,2.211,4.233c0.844-1.233,1.559-2.565,2.132-3.987
				c0.953-2.365,1.437-4.883,1.437-7.484c0-0.037-0.003-0.074-0.003-0.111h0.055h0.005h0.001c0-0.017-0.001-0.036-0.001-0.056
				c0-1.598,0.251-3.225,0.745-4.836c0.493-1.617,1.238-3.086,2.212-4.367c0.978-1.285,2.221-2.344,3.695-3.146
				c0.165-0.092,0.334-0.174,0.506-0.254c0.649-0.279,1.319-0.498,2.004-0.648c0.939-0.207,1.871-0.313,2.771-0.314
				c0.9,0.002,1.832,0.107,2.771,0.314c0.686,0.15,1.355,0.369,2.003,0.648c0.261,0.111,0.519,0.23,0.772,0.361
				c0.884,0.463,1.723,1.098,2.495,1.885c0.31,0.318,0.6,0.674,0.874,1.053c0.894-2.156,2.042-4.15,3.431-5.95
				c0.003-0.004,0.007-0.008,0.009-0.012C31.875,5.1,30.936,4.381,29.885,3.752z"/>
		</g>
		<g>
			<path fill="#ABCD7E" d="M28.673,2.541c-2.614-1.572-5.759-2.369-9.348-2.369c-0.06,0-0.117,0.004-0.177,0.004
				s-0.117-0.004-0.175-0.004c-3.591,0-6.736,0.797-9.35,2.369C8.574,3.17,7.634,3.889,6.794,4.678c0,0,0.005,0.008,0.007,0.012
				c-0.61,0.522-1.188,1.073-1.717,1.663C4.495,7.006,3.956,7.698,3.465,8.418C2.581,9.719,1.854,11.124,1.3,12.62
				c-0.86,2.328-1.297,4.717-1.297,7.1c0,0.094,0.005,0.188,0.006,0.281H0.001C0.001,20.03,0,20.055,0,20.084
				c0.01,2.465,0.473,4.908,1.378,7.266c0.581,1.51,1.321,2.926,2.211,4.233c0.844-1.233,1.559-2.565,2.132-3.987
				c0.953-2.365,1.437-4.883,1.437-7.484c0-0.037-0.003-0.074-0.003-0.111h0.055h0.005h0.001c0-0.017-0.001-0.037-0.001-0.056
				c0-1.598,0.251-3.225,0.745-4.836c0.493-1.617,1.238-3.086,2.212-4.367c0.978-1.285,2.221-2.344,3.695-3.146
				c0.165-0.092,0.334-0.174,0.506-0.254c0.649-0.279,1.319-0.498,2.004-0.648c0.939-0.207,1.871-0.313,2.771-0.314
				c0.9,0.002,1.832,0.107,2.771,0.314c0.686,0.15,1.355,0.369,2.003,0.648c0.261,0.111,0.519,0.23,0.772,0.361
				c0.884,0.463,1.723,1.098,2.495,1.885c0.31,0.318,0.6,0.674,0.874,1.053c0.894-2.156,2.042-4.15,3.431-5.95
				c0.003-0.004,0.007-0.008,0.009-0.012C30.664,3.889,29.724,3.17,28.673,2.541z"/>
		</g>
	</g>
</g>
</svg>
