<?xml version="1.0" encoding="utf-8"?>
<!-- Generator: Adobe Illustrator 16.0.3, SVG Export Plug-In . SVG Version: 6.00 Build 0)  -->
<!DOCTYPE svg PUBLIC "-//W3C//DTD SVG 1.1//EN" "http://www.w3.org/Graphics/SVG/1.1/DTD/svg11.dtd">
<svg version="1.1" id="Capa_1" xmlns="http://www.w3.org/2000/svg" xmlns:xlink="http://www.w3.org/1999/xlink" x="0px" y="0px"
	 width="271.475px" height="30.865px" viewBox="0 0 271.475 30.865" enable-background="new 0 0 271.475 30.865"
	 xml:space="preserve">
<g>
	<g>
		<line fill="#727272" x1="81.821" y1="0" x2="81.821" y2="30.002"/>
		<rect x="81.405" fill="#727272" width="0.834" height="30.002"/>
	</g>
	<g>
		<path fill="#727272" d="M99.209,10.498l-0.343,0.786c-0.422-0.171-0.801-0.296-1.138-0.376s-0.784-0.12-1.343-0.12
			c-0.811,0-1.543,0.226-2.199,0.676c-0.656,0.451-1.175,1.07-1.557,1.857c-0.383,0.787-0.573,1.671-0.573,2.651
			c0,0.935,0.165,1.789,0.496,2.558s0.813,1.381,1.446,1.832c0.633,0.449,1.377,0.676,2.232,0.676c0.559,0,1.035-0.047,1.429-0.139
			c0.394-0.09,0.772-0.215,1.138-0.375l0.411,0.82c-0.319,0.172-0.768,0.32-1.344,0.445s-1.109,0.188-1.6,0.188
			c-1.141,0-2.113-0.27-2.917-0.813c-0.805-0.541-1.409-1.268-1.814-2.182c-0.404-0.912-0.607-1.91-0.607-2.994
			c0-1.141,0.223-2.176,0.668-3.105c0.444-0.93,1.078-1.666,1.899-2.208c0.821-0.541,1.779-0.813,2.874-0.813
			c0.422,0,0.93,0.058,1.523,0.171C98.484,10.149,98.924,10.303,99.209,10.498z"/>
		<path fill="#727272" d="M101.434,14.689l-0.325-0.753c0.296-0.205,0.719-0.376,1.266-0.513c0.548-0.138,1.01-0.206,1.387-0.206
			c0.946,0,1.699,0.246,2.258,0.736c0.56,0.49,0.839,1.146,0.839,1.968v5.818h-0.873l-0.137-0.891
			c-0.285,0.297-0.664,0.557-1.138,0.779s-0.938,0.334-1.395,0.334c-0.901,0-1.591-0.238-2.07-0.711s-0.719-1.086-0.719-1.84
			c0-0.775,0.273-1.385,0.821-1.83s1.261-0.662,2.139-0.65h2.311v-0.838c0-0.605-0.169-1.087-0.505-1.447
			c-0.337-0.359-0.83-0.538-1.48-0.538c-0.536,0-0.955,0.045-1.258,0.137C102.252,14.335,101.878,14.484,101.434,14.689z
			 M101.57,19.411c0,0.445,0.143,0.836,0.428,1.172c0.285,0.338,0.713,0.506,1.283,0.506c0.502,0,0.967-0.129,1.395-0.385
			c0.428-0.258,0.802-0.58,1.121-0.967v-2.105h-2.345c-0.593,0-1.055,0.172-1.386,0.514S101.57,18.909,101.57,19.411z"/>
		<path fill="#727272" d="M110.073,15.819v5.92h-1.061V13.44h0.872l0.172,1.267c0.354-0.411,0.826-0.762,1.42-1.053
			c0.593-0.291,1.146-0.437,1.66-0.437c0.855,0,1.494,0.251,1.916,0.753s0.633,1.17,0.633,2.002v5.75h-1.061v-5.543
			c0-1.37-0.536-2.054-1.608-2.054c-0.434,0-0.938,0.162-1.515,0.487S110.45,15.339,110.073,15.819z"/>
		<path fill="#727272" d="M123.488,20.489l0.342,0.77c-0.319,0.207-0.741,0.375-1.266,0.506c-0.525,0.131-0.976,0.197-1.352,0.197
			c-0.799,0-1.492-0.186-2.079-0.557c-0.588-0.371-1.035-0.891-1.344-1.557c-0.308-0.668-0.462-1.436-0.462-2.303
			c0-0.82,0.165-1.562,0.496-2.223c0.331-0.662,0.799-1.178,1.403-1.549s1.306-0.557,2.104-0.557c0.354,0,0.793,0.068,1.317,0.206
			c0.525,0.137,0.947,0.308,1.267,0.513l-0.342,0.753c-0.411-0.205-0.768-0.354-1.07-0.444c-0.302-0.092-0.71-0.137-1.223-0.137
			c-0.89,0-1.589,0.319-2.097,0.958s-0.767,1.46-0.778,2.464c0,1.061,0.239,1.916,0.719,2.566s1.169,0.975,2.07,0.975
			c0.536,0,0.943-0.043,1.224-0.129C122.698,20.858,123.055,20.706,123.488,20.489z"/>
		<path fill="#727272" d="M132.283,17.649h-6.16c0.012,1.061,0.263,1.902,0.753,2.523c0.49,0.623,1.267,0.934,2.327,0.934
			c0.456,0,0.89-0.061,1.301-0.18c0.41-0.121,0.844-0.301,1.3-0.539l0.359,0.787c-0.49,0.262-0.949,0.459-1.377,0.59
			s-0.938,0.197-1.532,0.197c-1.392,0-2.44-0.4-3.147-1.199c-0.708-0.797-1.062-1.869-1.062-3.217
			c0.012-1.289,0.345-2.332,1.001-3.13s1.577-1.198,2.764-1.198c1.175,0,2.047,0.402,2.618,1.207
			C131.998,15.228,132.283,16.304,132.283,17.649z M126.157,16.913h5.048c-0.183-1.871-0.998-2.805-2.447-2.805
			c-0.787,0-1.397,0.254-1.83,0.761C126.494,15.376,126.237,16.058,126.157,16.913z"/>
		<path fill="#727272" d="M135.055,15.819v5.92h-1.061V13.44h0.701l0.309,1.317c0.388-0.319,0.841-0.618,1.36-0.898
			c0.519-0.279,0.972-0.419,1.36-0.419l0.29,0.839c-0.49,0-1.018,0.159-1.582,0.479C135.867,15.077,135.408,15.431,135.055,15.819z"
			/>
		<path fill="#727272" d="M150.915,16.657h-2.617l0.103-0.77h3.576v5.303c-0.343,0.229-0.816,0.418-1.421,0.566
			c-0.604,0.146-1.175,0.221-1.711,0.221c-1.152,0-2.173-0.258-3.063-0.777s-1.58-1.234-2.07-2.148
			c-0.49-0.912-0.736-1.934-0.736-3.062c0-1.198,0.263-2.262,0.787-3.191c0.525-0.93,1.243-1.651,2.156-2.164
			c0.912-0.514,1.922-0.771,3.028-0.771c0.422,0,0.93,0.058,1.523,0.171c0.593,0.114,1.032,0.269,1.317,0.463l-0.325,0.786
			c-0.422-0.171-0.804-0.296-1.146-0.376c-0.342-0.08-0.787-0.12-1.335-0.12c-0.832,0.012-1.622,0.223-2.369,0.634
			c-0.747,0.41-1.352,1.007-1.814,1.788c-0.462,0.781-0.692,1.702-0.692,2.763c0,1.015,0.208,1.908,0.624,2.677
			c0.417,0.771,0.981,1.361,1.694,1.771s1.515,0.617,2.404,0.617c0.673,0,1.368-0.133,2.087-0.395V16.657z"/>
		<path fill="#727272" d="M160.755,17.649h-6.16c0.012,1.061,0.263,1.902,0.753,2.523c0.49,0.623,1.267,0.934,2.327,0.934
			c0.456,0,0.89-0.061,1.301-0.18c0.41-0.121,0.844-0.301,1.3-0.539l0.359,0.787c-0.49,0.262-0.949,0.459-1.377,0.59
			s-0.938,0.197-1.532,0.197c-1.392,0-2.44-0.4-3.147-1.199c-0.708-0.797-1.062-1.869-1.062-3.217
			c0.012-1.289,0.345-2.332,1.001-3.13s1.577-1.198,2.764-1.198c1.175,0,2.047,0.402,2.618,1.207
			C160.47,15.228,160.755,16.304,160.755,17.649z M154.629,16.913h5.048c-0.183-1.871-0.998-2.805-2.447-2.805
			c-0.787,0-1.397,0.254-1.83,0.761C154.966,15.376,154.709,16.058,154.629,16.913z"/>
		<path fill="#727272" d="M163.526,15.819v5.92h-1.061V13.44h0.872l0.172,1.267c0.354-0.411,0.826-0.762,1.42-1.053
			c0.593-0.291,1.146-0.437,1.66-0.437c0.855,0,1.494,0.251,1.916,0.753s0.633,1.17,0.633,2.002v5.75h-1.061v-5.543
			c0-1.37-0.536-2.054-1.608-2.054c-0.434,0-0.938,0.162-1.515,0.487S163.903,15.339,163.526,15.819z"/>
		<path fill="#727272" d="M178.104,19.864c-0.331,0.656-0.804,1.17-1.42,1.541s-1.335,0.557-2.156,0.557
			c-0.775,0-1.445-0.189-2.01-0.564c-0.565-0.377-0.996-0.898-1.292-1.566c-0.297-0.668-0.445-1.43-0.445-2.285
			c0.012-0.82,0.177-1.559,0.496-2.215c0.319-0.655,0.779-1.172,1.378-1.548c0.599-0.377,1.297-0.565,2.096-0.565
			c1.221,0,2.167,0.392,2.841,1.173c0.673,0.781,1.009,1.863,1.009,3.242C178.6,18.466,178.435,19.21,178.104,19.864z
			 M176.743,20.112c0.508-0.639,0.768-1.459,0.779-2.463c0-1.061-0.24-1.917-0.719-2.567c-0.479-0.65-1.17-0.975-2.07-0.975
			c-0.89,0-1.589,0.319-2.097,0.958s-0.767,1.46-0.778,2.464c0,1.061,0.239,1.916,0.719,2.566s1.169,0.975,2.07,0.975
			C175.537,21.071,176.236,20.753,176.743,20.112z"/>
		<path fill="#727272" d="M191.168,13.962c0.382,0.496,0.573,1.166,0.573,2.01v5.75h-1.061v-5.543c0-0.639-0.105-1.141-0.316-1.506
			c-0.212-0.365-0.585-0.548-1.121-0.548c-0.365,0-0.799,0.143-1.301,0.428s-0.94,0.645-1.317,1.078l0.018,0.342v5.75h-1.062v-5.543
			c0-0.639-0.105-1.141-0.316-1.506s-0.584-0.548-1.12-0.548c-0.389,0-0.854,0.162-1.395,0.487
			c-0.542,0.325-1.001,0.728-1.378,1.207v5.92h-1.061V13.44h0.872l0.172,1.267c0.354-0.411,0.81-0.762,1.368-1.053
			c0.56-0.291,1.072-0.437,1.54-0.437c1.141,0,1.871,0.497,2.19,1.489c0.354-0.411,0.81-0.762,1.369-1.053
			c0.559-0.291,1.072-0.437,1.54-0.437C190.185,13.217,190.786,13.465,191.168,13.962z"/>
		<path fill="#727272" d="M200.622,17.649h-6.16c0.012,1.061,0.263,1.902,0.753,2.523c0.49,0.623,1.267,0.934,2.327,0.934
			c0.456,0,0.89-0.061,1.301-0.18c0.41-0.121,0.844-0.301,1.3-0.539l0.359,0.787c-0.49,0.262-0.949,0.459-1.377,0.59
			s-0.938,0.197-1.532,0.197c-1.392,0-2.44-0.4-3.147-1.199c-0.708-0.797-1.062-1.869-1.062-3.217
			c0.012-1.289,0.345-2.332,1.001-3.13s1.577-1.198,2.764-1.198c1.175,0,2.047,0.402,2.618,1.207
			C200.337,15.228,200.622,16.304,200.622,17.649z M194.496,16.913h5.048c-0.183-1.871-0.998-2.805-2.447-2.805
			c-0.787,0-1.397,0.254-1.83,0.761C194.833,15.376,194.576,16.058,194.496,16.913z"/>
		<path fill="#727272" d="M214.293,10.498l-0.343,0.786c-0.422-0.171-0.801-0.296-1.138-0.376s-0.784-0.12-1.343-0.12
			c-0.811,0-1.543,0.226-2.199,0.676c-0.656,0.451-1.175,1.07-1.557,1.857c-0.383,0.787-0.573,1.671-0.573,2.651
			c0,0.935,0.165,1.789,0.496,2.558s0.813,1.381,1.446,1.832c0.633,0.449,1.377,0.676,2.232,0.676c0.559,0,1.035-0.047,1.429-0.139
			c0.394-0.09,0.772-0.215,1.138-0.375l0.411,0.82c-0.319,0.172-0.768,0.32-1.344,0.445s-1.109,0.188-1.6,0.188
			c-1.141,0-2.113-0.27-2.917-0.813c-0.805-0.541-1.409-1.268-1.814-2.182c-0.404-0.912-0.607-1.91-0.607-2.994
			c0-1.141,0.223-2.176,0.668-3.105c0.444-0.93,1.078-1.666,1.899-2.208c0.821-0.541,1.779-0.813,2.874-0.813
			c0.422,0,0.93,0.058,1.523,0.171C213.568,10.149,214.008,10.303,214.293,10.498z"/>
		<path fill="#727272" d="M222.642,19.864c-0.331,0.656-0.804,1.17-1.42,1.541s-1.335,0.557-2.156,0.557
			c-0.775,0-1.445-0.189-2.01-0.564c-0.565-0.377-0.996-0.898-1.292-1.566c-0.297-0.668-0.445-1.43-0.445-2.285
			c0.012-0.82,0.177-1.559,0.496-2.215c0.319-0.655,0.779-1.172,1.378-1.548c0.599-0.377,1.297-0.565,2.096-0.565
			c1.221,0,2.167,0.392,2.841,1.173c0.673,0.781,1.009,1.863,1.009,3.242C223.138,18.466,222.973,19.21,222.642,19.864z
			 M221.281,20.112c0.508-0.639,0.768-1.459,0.779-2.463c0-1.061-0.24-1.917-0.719-2.567c-0.479-0.65-1.17-0.975-2.07-0.975
			c-0.89,0-1.589,0.319-2.097,0.958s-0.767,1.46-0.778,2.464c0,1.061,0.239,1.916,0.719,2.566s1.169,0.975,2.07,0.975
			C220.075,21.071,220.774,20.753,221.281,20.112z"/>
		<path fill="#727272" d="M226.081,9.659v12.081h-1.061V9.83L226.081,9.659z"/>
		<path fill="#727272" d="M229.708,9.659v12.081h-1.061V9.83L229.708,9.659z"/>
		<path fill="#727272" d="M238.829,17.649h-6.16c0.012,1.061,0.263,1.902,0.753,2.523c0.49,0.623,1.267,0.934,2.327,0.934
			c0.456,0,0.89-0.061,1.301-0.18c0.41-0.121,0.844-0.301,1.3-0.539l0.359,0.787c-0.49,0.262-0.949,0.459-1.377,0.59
			s-0.938,0.197-1.532,0.197c-1.392,0-2.44-0.4-3.147-1.199c-0.708-0.797-1.062-1.869-1.062-3.217
			c0.012-1.289,0.345-2.332,1.001-3.13s1.577-1.198,2.764-1.198c1.175,0,2.047,0.402,2.618,1.207
			C238.544,15.228,238.829,16.304,238.829,17.649z M232.703,16.913h5.048c-0.183-1.871-0.998-2.805-2.447-2.805
			c-0.787,0-1.397,0.254-1.83,0.761C233.04,15.376,232.783,16.058,232.703,16.913z"/>
		<path fill="#727272" d="M246.187,20.489l0.342,0.77c-0.319,0.207-0.741,0.375-1.266,0.506c-0.525,0.131-0.976,0.197-1.352,0.197
			c-0.799,0-1.492-0.186-2.079-0.557c-0.588-0.371-1.035-0.891-1.344-1.557c-0.308-0.668-0.462-1.436-0.462-2.303
			c0-0.82,0.165-1.562,0.496-2.223c0.331-0.662,0.799-1.178,1.403-1.549s1.306-0.557,2.104-0.557c0.354,0,0.793,0.068,1.317,0.206
			c0.525,0.137,0.947,0.308,1.267,0.513l-0.342,0.753c-0.411-0.205-0.768-0.354-1.07-0.444c-0.302-0.092-0.71-0.137-1.223-0.137
			c-0.89,0-1.589,0.319-2.097,0.958s-0.767,1.46-0.778,2.464c0,1.061,0.239,1.916,0.719,2.566s1.169,0.975,2.07,0.975
			c0.536,0,0.943-0.043,1.224-0.129C245.396,20.858,245.753,20.706,246.187,20.489z"/>
		<path fill="#727272" d="M249.744,13.611h1.506l0.359,0.805h-1.865v5.218c0,0.434,0.095,0.775,0.282,1.027
			c0.188,0.25,0.482,0.377,0.882,0.377c0.228,0,0.462-0.053,0.701-0.154l0.205,0.873c-0.034,0.01-0.148,0.047-0.342,0.109
			c-0.194,0.063-0.456,0.096-0.787,0.096c-0.616,0-1.106-0.191-1.472-0.574c-0.365-0.381-0.548-0.926-0.548-1.633v-5.339h-1.215
			l-0.017-0.805h1.231v-2.155l1.078-0.377V13.611z"/>
		<path fill="#727272" d="M253.886,11.626c-0.239,0-0.434-0.077-0.582-0.231c-0.148-0.153-0.222-0.345-0.222-0.573
			c0-0.228,0.073-0.419,0.222-0.573c0.148-0.153,0.343-0.23,0.582-0.23c0.217,0,0.408,0.077,0.573,0.23
			c0.165,0.154,0.248,0.346,0.248,0.573c0,0.229-0.083,0.42-0.248,0.573C254.294,11.549,254.103,11.626,253.886,11.626z
			 M254.434,13.44v8.299h-1.078V13.44H254.434z"/>
		<path fill="#727272" d="M262.868,13.44l-3.028,8.299h-1.13l-2.994-8.077l0.89-0.445l2.67,7.17l2.566-6.948H262.868z"/>
		<path fill="#727272" d="M270.876,17.649h-6.16c0.012,1.061,0.263,1.902,0.753,2.523c0.49,0.623,1.267,0.934,2.327,0.934
			c0.456,0,0.89-0.061,1.301-0.18c0.41-0.121,0.844-0.301,1.3-0.539l0.359,0.787c-0.49,0.262-0.949,0.459-1.377,0.59
			s-0.938,0.197-1.532,0.197c-1.392,0-2.44-0.4-3.147-1.199c-0.708-0.797-1.062-1.869-1.062-3.217
			c0.012-1.289,0.345-2.332,1.001-3.13s1.577-1.198,2.764-1.198c1.175,0,2.047,0.402,2.618,1.207
			C270.591,15.228,270.876,16.304,270.876,17.649z M264.75,16.913h5.048c-0.183-1.871-0.998-2.805-2.447-2.805
			c-0.787,0-1.397,0.254-1.83,0.761C265.087,15.376,264.83,16.058,264.75,16.913z"/>
	</g>
	<g>
		<g opacity="0.2">
			<path d="M69.429,21.729c-0.334,0.732-0.766,1.373-1.287,1.906c-0.576,0.592-1.212,1.078-1.889,1.453
				c-0.674,0.375-1.397,0.65-2.146,0.824c-0.744,0.172-1.471,0.26-2.159,0.26c-1.324,0-2.561-0.293-3.668-0.871
				c-1.104-0.572-2.064-1.342-2.854-2.289c-0.787-0.943-1.402-2.053-1.832-3.297c-0.418-1.215-0.634-2.496-0.643-3.807h-0.007
				c0.001,0.037,0.001,0.074,0.004,0.113c0.003,0.049,0.006,0.096,0.006,0.152c0.003,0.033-0.007,0.094-0.023,0.172
				c-0.041,1.828-0.396,3.594-1.067,5.262c-0.415,1.025-0.928,1.986-1.529,2.881c0.371,0.543,0.773,1.063,1.207,1.555
				c1.25,1.414,2.764,2.58,4.496,3.459c1.725,0.877,3.655,1.322,5.741,1.322c1.181,0,2.407-0.156,3.647-0.457
				c1.236-0.303,2.414-0.748,3.5-1.326c1.085-0.576,2.072-1.293,2.936-2.127c0.803-0.779,1.442-1.686,1.901-2.693L69.429,21.729z"/>
		</g>
		<g>
			<path fill="#3795C3" d="M68.521,20.82c-0.334,0.732-0.766,1.373-1.287,1.906c-0.576,0.592-1.212,1.078-1.889,1.453
				c-0.674,0.375-1.397,0.65-2.146,0.824c-0.744,0.172-1.471,0.26-2.159,0.26c-1.324,0-2.561-0.293-3.668-0.871
				c-1.104-0.572-2.064-1.342-2.854-2.289c-0.787-0.943-1.402-2.053-1.832-3.297c-0.418-1.215-0.634-2.496-0.643-3.807h-0.007
				c0.001,0.037,0.001,0.074,0.004,0.113c0.003,0.049,0.006,0.096,0.006,0.152c0.003,0.033-0.007,0.094-0.023,0.172
				c-0.041,1.828-0.396,3.594-1.067,5.262c-0.415,1.025-0.928,1.986-1.529,2.881c0.371,0.543,0.773,1.063,1.207,1.555
				c1.25,1.414,2.764,2.58,4.496,3.459c1.725,0.877,3.655,1.322,5.741,1.322c1.181,0,2.407-0.156,3.647-0.457
				c1.236-0.303,2.414-0.748,3.5-1.326c1.085-0.576,2.072-1.293,2.936-2.127c0.803-0.779,1.442-1.686,1.901-2.693L68.521,20.82z"/>
		</g>
	</g>
	<g>
		<g opacity="0.2">
			<path d="M69.042,2.771c-1.959-1.178-4.318-1.777-7.009-1.777c-2.282,0-4.343,0.432-6.125,1.283
				c-1.788,0.852-3.321,1.979-4.557,3.352c-1.237,1.375-2.191,2.957-2.837,4.701c-0.389,1.049-0.658,2.113-0.815,3.184h-9.054v4.832
				h8.388h0.292c-0.088,0.43-0.197,0.857-0.332,1.277c-0.191,0.605-0.432,1.182-0.718,1.73c-0.007,0.014-0.015,0.027-0.021,0.041
				c-0.056,0.104-0.111,0.205-0.169,0.307c-0.045,0.076-0.09,0.152-0.136,0.229c-0.022,0.035-0.044,0.072-0.067,0.109
				c-0.068,0.109-0.139,0.219-0.21,0.324c-0.003,0.004-0.005,0.006-0.005,0.006c-0.083,0.123-0.166,0.238-0.252,0.354l-0.005,0.01
				c-0.046,0.063-0.093,0.127-0.141,0.189c-0.761,0.977-1.708,1.77-2.813,2.357c-1.111,0.592-2.402,0.893-3.839,0.893
				c-1.409,0-2.687-0.293-3.795-0.871c-1.106-0.574-2.053-1.344-2.813-2.293c-0.76-0.943-1.346-2.047-1.747-3.275
				c-0.398-1.223-0.616-2.512-0.616-3.824h-0.003h-0.005h-0.01h-0.006h-0.025c0,0.027,0.002,0.057,0.002,0.084
				c0,1.953-0.363,3.842-1.078,5.615c-0.428,1.063-0.961,2.057-1.591,2.977c-0.008,0.012-0.017,0.023-0.025,0.037
				c0.386,0.568,0.808,1.109,1.266,1.621c1.253,1.391,2.771,2.521,4.511,3.359c1.738,0.838,3.709,1.264,5.857,1.264
				c2.063,0,4.002-0.412,5.762-1.225c1.331-0.613,2.533-1.389,3.572-2.307c0.346-0.305,0.682-0.629,0.996-0.965
				c0.396-0.426,0.781-0.906,1.249-1.557l0.192-0.268c0,0,0.004-0.014,0.012-0.033c0.004-0.008,0.009-0.016,0.009-0.016
				c0.606-0.902,1.119-1.863,1.534-2.889c0.671-1.668,1.026-3.434,1.067-5.262c0.017-0.078,0.026-0.139,0.023-0.172
				c0-0.057-0.003-0.104-0.006-0.152c-0.003-0.039-0.003-0.076-0.004-0.113h0.007c0-0.027-0.001-0.057-0.001-0.084
				c0-1.199,0.187-2.42,0.558-3.629c0.369-1.213,0.928-2.314,1.658-3.273c0.734-0.963,1.666-1.758,2.771-2.361
				c1.11-0.605,2.432-0.914,3.926-0.914c0.686,0,1.396,0.08,2.115,0.238s1.42,0.412,2.08,0.758c0.664,0.346,1.292,0.822,1.871,1.414
				c0.519,0.531,0.973,1.182,1.354,1.936l4.053-2.793C72.379,5.398,70.935,3.91,69.042,2.771z"/>
		</g>
		<g>
			<path fill="#82B547" d="M68.134,1.863c-1.959-1.178-4.318-1.777-7.009-1.777c-2.282,0-4.343,0.432-6.125,1.283
				c-1.788,0.852-3.321,1.979-4.557,3.352c-1.237,1.375-2.191,2.957-2.837,4.701c-0.389,1.049-0.658,2.113-0.815,3.184h-9.054v4.832
				h8.388h0.292c-0.088,0.43-0.197,0.857-0.332,1.277c-0.191,0.605-0.432,1.182-0.718,1.73c-0.007,0.014-0.015,0.027-0.021,0.041
				c-0.056,0.104-0.111,0.205-0.169,0.307c-0.045,0.076-0.09,0.152-0.136,0.229c-0.022,0.035-0.044,0.072-0.067,0.109
				c-0.068,0.109-0.139,0.219-0.21,0.324c-0.003,0.004-0.005,0.006-0.005,0.006c-0.083,0.123-0.166,0.238-0.252,0.354l-0.005,0.01
				c-0.046,0.063-0.093,0.127-0.141,0.189c-0.761,0.977-1.708,1.77-2.813,2.357c-1.111,0.592-2.402,0.893-3.839,0.893
				c-1.409,0-2.687-0.293-3.795-0.871c-1.106-0.574-2.053-1.344-2.813-2.293c-0.76-0.943-1.346-2.047-1.747-3.275
				c-0.398-1.223-0.616-2.512-0.616-3.824h-0.003h-0.005h-0.01h-0.006h-0.025c0,0.027,0.002,0.057,0.002,0.084
				c0,1.953-0.363,3.842-1.078,5.615c-0.428,1.063-0.961,2.057-1.591,2.977c-0.008,0.012-0.017,0.023-0.025,0.037
				c0.386,0.568,0.808,1.109,1.266,1.621c1.253,1.391,2.771,2.521,4.511,3.359c1.738,0.838,3.709,1.264,5.857,1.264
				c2.063,0,4.002-0.412,5.762-1.225c1.331-0.613,2.533-1.389,3.572-2.307c0.346-0.305,0.682-0.629,0.996-0.965
				c0.396-0.426,0.781-0.906,1.249-1.557l0.192-0.268c0,0,0.004-0.014,0.012-0.033c0.004-0.008,0.009-0.016,0.009-0.016
				c0.606-0.902,1.119-1.863,1.534-2.889c0.671-1.668,1.026-3.434,1.067-5.262c0.017-0.078,0.026-0.139,0.023-0.172
				c0-0.057-0.003-0.104-0.006-0.152c-0.003-0.039-0.003-0.076-0.004-0.113h0.007c0-0.027-0.001-0.057-0.001-0.084
				c0-1.199,0.187-2.42,0.558-3.629c0.369-1.213,0.928-2.314,1.658-3.273c0.734-0.963,1.666-1.758,2.771-2.361
				c1.11-0.605,2.432-0.914,3.926-0.914c0.686,0,1.396,0.08,2.115,0.238s1.42,0.412,2.08,0.758c0.664,0.346,1.292,0.822,1.871,1.414
				c0.519,0.531,0.973,1.182,1.354,1.936l4.053-2.793C71.471,4.49,70.026,3.002,68.134,1.863z"/>
		</g>
	</g>
	<g>
		<g opacity="0.2">
			<path d="M45.729,2.814c-1.959-1.18-4.318-1.777-7.01-1.777c-0.045,0-0.088,0.002-0.133,0.002c-0.044,0-0.088-0.002-0.132-0.002
				c-2.692,0-5.051,0.598-7.011,1.777c-0.788,0.471-1.493,1.01-2.123,1.602c0,0,0.004,0.006,0.006,0.01
				c-0.457,0.391-0.891,0.803-1.289,1.246c-1.236,1.375-2.191,2.957-2.836,4.701c-0.646,1.746-0.974,3.537-0.974,5.324
				c0,0.07,0.003,0.141,0.005,0.211h-0.007c0,1.254-0.193,2.506-0.579,3.715c-0.386,1.215-0.965,2.324-1.725,3.299
				c-0.762,0.977-1.707,1.77-2.813,2.357c-1.111,0.592-2.402,0.893-3.84,0.893c-1.409,0-2.687-0.293-3.795-0.871
				c-1.105-0.574-2.053-1.344-2.813-2.293c-0.76-0.943-1.348-2.047-1.746-3.275c-0.4-1.223-0.603-2.512-0.603-3.824H6.273
				c0,0.027,0.003,0.057,0.003,0.084c0,1.953-0.363,3.842-1.078,5.615c-0.43,1.066-0.967,2.064-1.6,2.988
				c0.386,0.566,0.807,1.104,1.266,1.613c1.248,1.389,2.768,2.516,4.514,3.354c1.739,0.836,3.707,1.262,5.852,1.262
				c2.059,0,3.993-0.412,5.75-1.223c1.758-0.809,3.29-1.908,4.554-3.27c1.265-1.361,2.269-2.949,2.984-4.725
				c0.714-1.773,1.076-3.662,1.076-5.615c0-0.027-0.001-0.057-0.001-0.084h0.045c0-0.014,0-0.027,0-0.043
				c0-1.197,0.188-2.418,0.557-3.627c0.371-1.213,0.93-2.314,1.66-3.275C32.588,8,33.52,7.205,34.626,6.604
				c0.123-0.068,0.25-0.131,0.381-0.191c0.485-0.209,0.988-0.373,1.501-0.486c0.706-0.154,1.405-0.232,2.079-0.234
				c0.675,0.002,1.374,0.08,2.078,0.234c0.515,0.113,1.017,0.277,1.503,0.486c0.195,0.084,0.39,0.174,0.579,0.271
				c0.663,0.348,1.293,0.824,1.87,1.414c0.233,0.238,0.45,0.506,0.655,0.789c0.671-1.617,1.533-3.111,2.573-4.461
				c0.003-0.004,0.005-0.006,0.005-0.006C47.222,3.824,46.519,3.285,45.729,2.814z"/>
		</g>
		<g>
			<path fill="#3795C3" d="M44.821,1.906c-1.959-1.18-4.318-1.777-7.01-1.777c-0.045,0-0.088,0.002-0.133,0.002
				c-0.044,0-0.088-0.002-0.132-0.002c-2.692,0-5.051,0.598-7.011,1.777c-0.788,0.471-1.493,1.01-2.123,1.602
				c0,0,0.004,0.006,0.006,0.01c-0.457,0.391-0.891,0.803-1.289,1.246c-1.236,1.375-2.191,2.957-2.836,4.701
				c-0.646,1.746-0.974,3.537-0.974,5.324c0,0.07,0.003,0.141,0.005,0.211h-0.007c0,1.254-0.193,2.506-0.579,3.715
				c-0.386,1.215-0.965,2.324-1.725,3.299c-0.762,0.977-1.707,1.77-2.813,2.357c-1.111,0.592-2.402,0.893-3.84,0.893
				c-1.409,0-2.687-0.293-3.795-0.871c-1.105-0.574-2.053-1.344-2.813-2.293c-0.76-0.943-1.348-2.047-1.746-3.275
				c-0.4-1.223-0.603-2.512-0.603-3.824H5.365c0,0.027,0.003,0.057,0.003,0.084c0,1.953-0.363,3.842-1.078,5.615
				c-0.43,1.066-0.967,2.064-1.6,2.988c0.386,0.566,0.807,1.104,1.266,1.613c1.248,1.389,2.768,2.516,4.514,3.354
				c1.739,0.836,3.707,1.262,5.852,1.262c2.059,0,3.993-0.412,5.75-1.223c1.758-0.809,3.29-1.908,4.554-3.27
				c1.265-1.361,2.269-2.949,2.984-4.725c0.714-1.773,1.076-3.662,1.076-5.615c0-0.027-0.001-0.057-0.001-0.084h0.045
				c0-0.014,0-0.027,0-0.043c0-1.197,0.188-2.418,0.557-3.627c0.371-1.213,0.93-2.314,1.66-3.275
				c0.733-0.963,1.665-1.758,2.771-2.359c0.123-0.068,0.25-0.131,0.381-0.191c0.485-0.209,0.988-0.373,1.501-0.486
				c0.706-0.154,1.405-0.232,2.079-0.234c0.675,0.002,1.374,0.08,2.078,0.234c0.515,0.113,1.017,0.277,1.503,0.486
				c0.195,0.084,0.39,0.174,0.579,0.271c0.663,0.348,1.293,0.824,1.87,1.414c0.233,0.238,0.45,0.506,0.655,0.789
				c0.671-1.617,1.533-3.111,2.573-4.461c0.003-0.004,0.005-0.006,0.005-0.006C46.313,2.916,45.61,2.377,44.821,1.906z"/>
		</g>
	</g>
	<g>
		<g opacity="0.2">
			<path d="M22.412,2.814c-1.96-1.18-4.319-1.777-7.011-1.777c-0.045,0-0.088,0.002-0.133,0.002s-0.088-0.002-0.133-0.002
				c-2.691,0-5.051,0.598-7.011,1.777c-0.788,0.471-1.491,1.01-2.122,1.602c0,0,0.004,0.006,0.006,0.01
				C5.55,4.816,5.118,5.229,4.72,5.672c-0.441,0.49-0.844,1.01-1.213,1.549C2.843,8.197,2.298,9.25,1.884,10.373
				c-0.646,1.746-0.975,3.537-0.975,5.324c0,0.07,0.005,0.141,0.006,0.211H0.909c0,0.021-0.001,0.041-0.001,0.063
				c0.007,1.852,0.354,3.686,1.032,5.451c0.437,1.135,0.992,2.195,1.658,3.174c0.633-0.924,1.17-1.922,1.6-2.988
				c0.715-1.773,1.078-3.662,1.078-5.615c0-0.027-0.003-0.057-0.003-0.084h0.041h0.005l0,0c0-0.014,0-0.027,0-0.043
				c0-1.197,0.188-2.418,0.557-3.627c0.371-1.213,0.93-2.314,1.66-3.275C9.27,8,10.202,7.205,11.308,6.604
				c0.124-0.068,0.25-0.131,0.379-0.191c0.486-0.209,0.99-0.373,1.504-0.486c0.703-0.154,1.402-0.232,2.078-0.234
				c0.676,0.002,1.373,0.08,2.078,0.234c0.514,0.113,1.018,0.277,1.503,0.486c0.197,0.084,0.39,0.174,0.579,0.271
				c0.663,0.348,1.293,0.824,1.871,1.414c0.231,0.238,0.449,0.506,0.655,0.789c0.669-1.617,1.532-3.111,2.573-4.461
				c0.002-0.004,0.005-0.006,0.005-0.006C23.904,3.824,23.201,3.285,22.412,2.814z"/>
		</g>
		<g>
			<path fill="#82B547" d="M21.504,1.906c-1.96-1.18-4.319-1.777-7.011-1.777c-0.045,0-0.088,0.002-0.133,0.002
				s-0.088-0.002-0.133-0.002c-2.691,0-5.051,0.598-7.011,1.777c-0.788,0.471-1.491,1.01-2.122,1.602c0,0,0.004,0.006,0.006,0.01
				C4.642,3.908,4.21,4.32,3.812,4.764c-0.441,0.49-0.844,1.01-1.213,1.549C1.935,7.289,1.39,8.342,0.976,9.465
				c-0.646,1.746-0.975,3.537-0.975,5.324c0,0.07,0.005,0.141,0.006,0.211H0.001C0.001,15.021,0,15.041,0,15.063
				c0.007,1.852,0.354,3.686,1.032,5.451c0.437,1.135,0.992,2.195,1.658,3.174c0.633-0.924,1.17-1.922,1.6-2.988
				c0.715-1.773,1.078-3.662,1.078-5.615c0-0.027-0.003-0.057-0.003-0.084h0.041h0.005l0,0c0-0.014,0-0.027,0-0.043
				c0-1.197,0.188-2.418,0.557-3.627c0.371-1.213,0.93-2.314,1.66-3.275c0.733-0.963,1.666-1.758,2.771-2.359
				c0.124-0.068,0.25-0.131,0.379-0.191c0.486-0.209,0.99-0.373,1.504-0.486c0.703-0.154,1.402-0.232,2.078-0.234
				c0.676,0.002,1.373,0.08,2.078,0.234c0.514,0.113,1.018,0.277,1.503,0.486c0.197,0.084,0.39,0.174,0.579,0.271
				c0.663,0.348,1.293,0.824,1.871,1.414c0.231,0.238,0.449,0.506,0.655,0.789c0.669-1.617,1.532-3.111,2.573-4.461
				c0.002-0.004,0.005-0.006,0.005-0.006C22.996,2.916,22.293,2.377,21.504,1.906z"/>
		</g>
	</g>
</g>
</svg>
