<?xml version="1.0" encoding="utf-8"?>
<!-- Generator: Adobe Illustrator 16.0.3, SVG Export Plug-In . SVG Version: 6.00 Build 0)  -->
<!DOCTYPE svg PUBLIC "-//W3C//DTD SVG 1.1//EN" "http://www.w3.org/Graphics/SVG/1.1/DTD/svg11.dtd">
<svg version="1.1" id="Capa_1" xmlns="http://www.w3.org/2000/svg" xmlns:xlink="http://www.w3.org/1999/xlink" x="0px" y="0px"
	 width="137px" height="137px" viewBox="-1394.794 -347.354 137 137" enable-background="new -1394.794 -347.354 137 137"
	 xml:space="preserve">
<g>
	<g>
		<g opacity="0.2">
			<circle cx="-1325.295" cy="-277.854" r="67.5"/>
		</g>
		<g>
			<circle fill="#82B547" cx="-1327.294" cy="-279.854" r="67.5"/>
		</g>
	</g>
	<g>
		<path fill="#EFEFEF" d="M-1350.291-283.364c1.701-11.258,11.587-19.747,22.996-19.747c3.981,0,7.854,1.037,11.283,2.941
			l-4.687,3.237l20.722,9.825l-1.848-22.859l-5.313,3.669c-5.774-4.404-12.847-6.813-20.158-6.813
			c-16.314,0-30.451,12.146-32.884,28.253c-0.413,2.73,1.467,5.278,4.197,5.691c0.253,0.038,0.504,0.057,0.753,0.057
			C-1352.797-279.11-1350.665-280.888-1350.291-283.364z"/>
		<path fill="#EFEFEF" d="M-1296.608-278.54c-2.73-0.408-5.278,1.467-5.691,4.197c-1.702,11.258-11.587,19.747-22.996,19.747
			c-3.978,0-7.847-1.035-11.274-2.938l4.676-3.227l-20.719-9.832l1.84,22.859l5.323-3.674c5.773,4.401,12.844,6.811,20.153,6.811
			c16.312,0,30.449-12.146,32.883-28.253C-1291.999-275.579-1293.877-278.127-1296.608-278.54z"/>
	</g>
</g>
</svg>
