<?xml version="1.0" encoding="utf-8"?>
<!-- Generator: Adobe Illustrator 16.0.3, SVG Export Plug-In . SVG Version: 6.00 Build 0)  -->
<!DOCTYPE svg PUBLIC "-//W3C//DTD SVG 1.1//EN" "http://www.w3.org/Graphics/SVG/1.1/DTD/svg11.dtd">
<svg version="1.1" id="Capa_1" xmlns="http://www.w3.org/2000/svg" xmlns:xlink="http://www.w3.org/1999/xlink" x="0px" y="0px"
	 width="137px" height="137px" viewBox="-1394.794 -719.842 137 137" enable-background="new -1394.794 -719.842 137 137"
	 xml:space="preserve">
<g>
	<path fill-opacity="0.2" d="M-1278.588-699.047c11.632,12.127,18.793,28.574,18.793,46.705c0,37.279-30.221,67.5-67.5,67.5
		c-18.131,0-34.58-7.162-46.707-18.795c12.285,12.809,29.558,20.795,48.706,20.795c37.279,0,67.5-30.221,67.5-67.5
		C-1257.795-669.49-1265.781-686.762-1278.588-699.047z"/>
	<path fill="#82B547" d="M-1278.588-699.047c-12.285-12.809-29.558-20.795-48.706-20.795c-37.279,0-67.5,30.221-67.5,67.5
		c0,19.148,7.986,36.42,20.793,48.705c12.127,11.633,28.575,18.795,46.707,18.795c37.279,0,67.5-30.221,67.5-67.5
		C-1259.795-670.473-1266.957-686.92-1278.588-699.047z M-1319.351-653.801c2.166,0.742,4.171,1.769,6.007,3.005
		c-6.702,3.087-11.368,9.861-11.368,17.711c0,5.049,1.928,9.653,5.087,13.118h-33.461v-9.602c0-10.939,6.965-20.678,17.332-24.232
		c0.809-0.278,1.374-1.014,1.431-1.867c0.058-0.854-0.401-1.658-1.166-2.042c-5.991-3.01-9.713-9.028-9.713-15.707
		c0-9.686,7.879-17.566,17.582-17.566c0,0,0.001,0,0.002,0c0.043,0,0.103,0,0.146-0.001c9.687,0,17.568,7.881,17.568,17.567
		c0,6.679-3.722,12.697-9.713,15.707c-0.764,0.384-1.224,1.188-1.166,2.042C-1320.725-654.814-1320.16-654.079-1319.351-653.801z"/>
	<path fill="#EFEFEF" d="M-1305.221-648.327c-8.404,0-15.24,6.839-15.24,15.242c0,8.405,6.836,15.243,15.24,15.243
		c8.405,0,15.242-6.838,15.242-15.243C-1289.98-641.488-1296.816-648.327-1305.221-648.327z M-1299.303-631.292h-4.124v4.125
		c0,0.99-0.803,1.792-1.794,1.792c-0.989,0-1.792-0.802-1.792-1.792v-4.125h-4.125c-0.989,0-1.793-0.802-1.793-1.793
		c0-0.989,0.804-1.793,1.793-1.793h4.125v-4.126c0-0.989,0.802-1.791,1.792-1.791c0.991,0,1.794,0.802,1.794,1.791v4.126h4.124
		c0.989,0,1.793,0.804,1.793,1.793C-1297.51-632.094-1298.313-631.292-1299.303-631.292z"/>
	<path fill="#EFEFEF" d="M-1319.616-657.71c5.991-3.01,9.713-9.028,9.713-15.707c0-9.687-7.881-17.567-17.568-17.567
		c-0.043,0.001-0.103,0.001-0.146,0.001c-0.001,0-0.002,0-0.002,0c-9.703,0-17.582,7.881-17.582,17.566
		c0,6.679,3.722,12.697,9.713,15.707c0.765,0.384,1.224,1.188,1.166,2.042c-0.057,0.854-0.622,1.589-1.431,1.867
		c-10.367,3.555-17.332,13.293-17.332,24.232v9.602h33.461c-3.159-3.465-5.087-8.069-5.087-13.118
		c0-7.85,4.666-14.624,11.368-17.711c-1.836-1.236-3.842-2.263-6.007-3.005c-0.81-0.278-1.374-1.014-1.431-1.867
		C-1320.84-656.521-1320.38-657.326-1319.616-657.71z"/>
</g>
</svg>
