<?xml version="1.0" encoding="utf-8"?>
<!-- Generator: Adobe Illustrator 16.0.3, SVG Export Plug-In . SVG Version: 6.00 Build 0)  -->
<!DOCTYPE svg PUBLIC "-//W3C//DTD SVG 1.1//EN" "http://www.w3.org/Graphics/SVG/1.1/DTD/svg11.dtd">
<svg version="1.1" id="Capa_1" xmlns="http://www.w3.org/2000/svg" xmlns:xlink="http://www.w3.org/1999/xlink" x="0px" y="0px"
	 width="137px" height="137px" viewBox="-1394.544 -534.842 137 137" enable-background="new -1394.544 -534.842 137 137"
	 xml:space="preserve">
<g>
	<g>
		<g opacity="0.2">
			<circle cx="-1325.045" cy="-465.342" r="67.5"/>
		</g>
		<g>
			<circle fill="#82B547" cx="-1327.044" cy="-467.342" r="67.5"/>
		</g>
	</g>
	<g>
		<g>
			<g>
				<path fill="#EFEFEF" d="M-1290.125-480.883c-0.166-0.098-0.341-0.164-0.519-0.215l-13.023,21.955
					c0.138,0.146,0.289,0.279,0.468,0.383c0.353,0.211,0.74,0.311,1.126,0.311c0.758,0,1.502-0.391,1.916-1.092l10.814-18.299
					C-1288.718-478.896-1289.067-480.258-1290.125-480.883z"/>
			</g>
			<g>
				<path fill="#EFEFEF" d="M-1290.84-492.969c-1.583-0.934-3.629-0.408-4.565,1.174l-26.246,44.432
					c-0.936,1.584-0.41,3.627,1.174,4.563c0.534,0.314,1.116,0.465,1.692,0.465c1.138,0,2.25-0.586,2.872-1.637l26.245-44.43
					C-1288.729-489.988-1289.255-492.029-1290.84-492.969z"/>
			</g>
		</g>
		<path fill="#EFEFEF" d="M-1302.155-496.379c0-2.764-2.246-5.008-5.006-5.008h-13.352h-16.686h-13.352
			c-2.76,0-5.006,2.244-5.006,5.008v13.35v1.773v44.951c0,2.762,2.246,5.008,5.006,5.008h0.001h43.387h0.001
			c2.761,0,5.006-2.246,5.006-5.008v-16.73c-0.046,0.01-0.081-0.51-0.105-1.424c-0.853-0.027-1.689-0.232-2.459-0.598l-7.75,13.123
			c-1.313,2.219-3.733,3.598-6.314,3.598c-1.307,0-2.596-0.354-3.727-1.021c-0.136-0.08-0.263-0.17-0.393-0.258
			c-0.144,0.09-0.299,0.166-0.473,0.209c-0.416,0.105-0.805,0.152-1.167,0.152c-2.619,0-3.938-2.477-4.766-4.031
			c-0.247-0.463-0.636-1.195-0.904-1.498c-0.416,0.238-1.147,0.959-1.609,1.412c-1.405,1.377-3.152,3.094-5.308,2.719
			c-2.666-0.463-3.208-2.932-3.645-4.914c-0.188-0.869-0.385-1.762-0.719-2.615c-0.648,0.99-1.506,2.807-2.117,4.551
			c-0.303,0.873-1.254,1.33-2.124,1.027c-0.871-0.307-1.33-1.256-1.025-2.125c1.667-4.777,3.456-7.268,5.318-7.406
			c0.491-0.035,1.722,0.047,2.545,1.615c0.777,1.477,1.113,3.008,1.383,4.234c0.372,1.699,0.563,2.275,0.955,2.344
			c0.467,0.066,1.771-1.199,2.398-1.813c1.414-1.391,3.016-2.963,4.972-2.275c1.395,0.49,2.122,1.854,2.825,3.174
			c0.16,0.301,0.301,0.555,0.434,0.783c-0.409-1.826-0.12-3.707,0.836-5.326l22.939-38.832V-496.379z"/>
	</g>
	<path fill="none" d="M-1315.348-487.228h-27.588c-0.792,0-1.436,0.712-1.436,1.586c0,0.875,0.644,1.587,1.436,1.587h27.588
		c0.791-0.001,1.435-0.713,1.435-1.587S-1314.557-487.228-1315.348-487.228z"/>
	<path fill="#82B547" d="M-1315.348-487.228h-27.588c-0.792,0-1.436,0.712-1.436,1.586c0,0.875,0.644,1.587,1.436,1.587h27.588
		c0.791-0.001,1.435-0.713,1.435-1.587S-1314.557-487.228-1315.348-487.228z"/>
	<path fill="#82B547" d="M-1313.899-475.689c-0.261-0.399-0.683-0.663-1.162-0.663h-27.588c-0.792,0-1.436,0.712-1.436,1.586
		c0,0.875,0.644,1.587,1.436,1.587h27.588c0.479-0.001,0.9-0.264,1.161-0.663c0.147-0.272,0.237-0.586,0.237-0.924
		S-1313.753-475.417-1313.899-475.689z"/>
	<path fill="#82B547" d="M-1315.348-465.401h-27.588c-0.792,0-1.436,0.712-1.436,1.586c0,0.875,0.644,1.587,1.436,1.587h27.588
		c0.791-0.001,1.435-0.713,1.435-1.587S-1314.557-465.401-1315.348-465.401z"/>
</g>
</svg>
