<?xml version="1.0" encoding="UTF-8" standalone="no"?>
<svg xmlns="http://www.w3.org/2000/svg" height="98px" width="119px" version="1.1" xmlns:xlink="http://www.w3.org/1999/xlink" viewBox="0 0 119 98">
 <title>Group 3@2x</title>
 <desc>Created with Sketch.</desc>
 <g id="Landing-Page" fill-rule="evenodd" fill="none">
  <g id="Artboard" stroke="#000" stroke-width="2" transform="translate(-219 -92)">
   <g id="Group-3" transform="translate(220 93)">
    <polygon id="Path-4" points="59.23 45.66 83.025 37.233 97.381 57.584 81.812 77.751 62.609 71.287 60.428 70.553 58.937 65.44"/>
    <polygon id="Path-5" points="20.412 45.308 19.691 72.825 39.062 83.728 58.896 69.93 59.271 45.717 38.585 33.56"/>
    <path id="Path-8" d="m63 46.143v19.857"/>
    <polyline id="Path-9" points="82.877 43.396 93.179 58.311 98.115 58.579 109.96 60.339"/>
    <path id="Path-10" d="m83.928 80.577l3.578 9.463"/>
    <polyline id="Path-7" points="3.6177 79.935 22.022 69.972 39.449 79.83"/>
    <polyline id="Path-6" points="24.576 47.062 39.58 37.223 40.485 35.099 40.503 29.006 40.541 12.139 52.538 6.1257"/>
    <path id="Path-11" d="m27.411 5.3271l9.199 6.4469"/>
    <g id="Group-2" transform="translate(13 39)">
     <circle id="Oval-Copy-6" cy="7" cx="7" r="7" fill="#7154FF"/>
     <g id="Group" stroke-linecap="round" transform="translate(0 5)">
      <path id="Line-2" d="m2.2857 6.2857l2.2857-2.2857"/>
      <path id="Line-2" d="m5.7143 8.6709l2.2857-2.2857"/>
      <path id="Line-2-Copy-2" d="m0 2.9566l2.2857-2.2857"/>
     </g>
    </g>
    <circle id="Oval-Copy-9" cy="12" cx="40" r="7" fill="#7154FF"/>
    <circle id="Oval-Copy-7" cy="80" cx="40" r="7" fill="#7154FF"/>
    <circle id="Oval-Copy-5" cy="39" cx="83" r="7" fill="#7154FF"/>
    <circle id="Oval-Copy-8" cy="76" cx="82" r="7" fill="#7154FF"/>
    <circle id="Oval-Copy-10" cy="79.842" cx="4.4397" r="3.5" fill="#fff"/>
    <circle id="Oval-Copy-11" cy="3.842" cx="25.44" r="3.5" fill="#fff"/>
    <circle id="Oval-Copy-12" cy="3.842" cx="55.44" r="3.5" fill="#fff"/>
    <circle id="Oval-Copy-13" cy="91.842" cx="88.44" r="3.5" fill="#fff"/>
    <circle id="Oval-Copy-14" cy="60.842" cx="113.44" r="3.5" fill="#fff"/>
    <g id="Group-Copy" stroke-linecap="round" transform="translate(33 10)">
     <path id="Line-2" d="m2.2857 6.2857l2.2857-2.2857"/>
     <path id="Line-2" d="m5.7143 8.6709l2.2857-2.2857"/>
     <path id="Line-2-Copy-2" d="m0 2.9566l2.2857-2.2857"/>
    </g>
    <g id="Group-Copy-2" stroke-linecap="round" transform="translate(76 37)">
     <path id="Line-2" d="m2.2857 6.2857l2.2857-2.2857"/>
     <path id="Line-2" d="m5.7143 8.6709l2.2857-2.2857"/>
     <path id="Line-2-Copy-2" d="m0 2.9566l2.2857-2.2857"/>
    </g>
    <g id="Group-Copy-2" stroke-linecap="round" transform="translate(75 74)">
     <path id="Line-2" d="m2.2857 6.2857l2.2857-2.2857"/>
     <path id="Line-2" d="m5.7143 8.6709l2.2857-2.2857"/>
     <path id="Line-2-Copy-2" d="m0 2.9566l2.2857-2.2857"/>
    </g>
    <g id="Group-Copy-3" stroke-linecap="round" transform="translate(33 78)">
     <path id="Line-2" d="m2.2857 6.2857l2.2857-2.2857"/>
     <path id="Line-2" d="m5.7143 8.6709l2.2857-2.2857"/>
     <path id="Line-2-Copy-2" d="m0 2.9566l2.2857-2.2857"/>
    </g>
    <g id="Group-2" transform="translate(13 63)">
     <circle id="Oval-Copy-6" cy="7" cx="7" r="7" fill="#CFCDDA"/>
     <g id="Group" stroke-linecap="round" transform="translate(0 5)">
      <path id="Line-2" d="m2.2857 6.2857l2.2857-2.2857"/>
      <path id="Line-2" d="m5.7143 8.6709l2.2857-2.2857"/>
      <path id="Line-2-Copy-2" d="m0 2.9566l2.2857-2.2857"/>
     </g>
    </g>
    <g id="Group-2-Copy" transform="translate(33 27)">
     <circle id="Oval-Copy-6" cy="7" cx="7" r="7" fill="#CFCDDA"/>
     <g id="Group" stroke-linecap="round" transform="translate(0 5)">
      <path id="Line-2" d="m2.2857 6.2857l2.2857-2.2857"/>
      <path id="Line-2" d="m5.7143 8.6709l2.2857-2.2857"/>
      <path id="Line-2-Copy-2" d="m0 2.9566l2.2857-2.2857"/>
     </g>
    </g>
    <g id="Group-2-Copy-2" transform="translate(54 39)">
     <circle id="Oval-Copy-6" cy="7" cx="7" r="7" fill="#CFCDDA"/>
     <g id="Group" stroke-linecap="round" transform="translate(0 5)">
      <path id="Line-2" d="m2.2857 6.2857l2.2857-2.2857"/>
      <path id="Line-2" d="m5.7143 8.6709l2.2857-2.2857"/>
      <path id="Line-2-Copy-2" d="m0 2.9566l2.2857-2.2857"/>
     </g>
    </g>
    <g id="Group-2-Copy-3" transform="translate(54 63)">
     <circle id="Oval-Copy-6" cy="7" cx="7" r="7" fill="#CFCDDA"/>
     <g id="Group" stroke-linecap="round" transform="translate(0 5)">
      <path id="Line-2" d="m2.2857 6.2857l2.2857-2.2857"/>
      <path id="Line-2" d="m5.7143 8.6709l2.2857-2.2857"/>
      <path id="Line-2-Copy-2" d="m0 2.9566l2.2857-2.2857"/>
     </g>
    </g>
    <g id="Group-2-Copy-4" transform="translate(89 50)">
     <circle id="Oval-Copy-6" cy="7" cx="7" r="7" fill="#CFCDDA"/>
     <g id="Group" stroke-linecap="round" transform="translate(0 5)">
      <path id="Line-2" d="m2.2857 6.2857l2.2857-2.2857"/>
      <path id="Line-2" d="m5.7143 8.6709l2.2857-2.2857"/>
      <path id="Line-2-Copy-2" d="m0 2.9566l2.2857-2.2857"/>
     </g>
    </g>
   </g>
  </g>
 </g>
</svg>
