<svg id="Layer_1" data-name="Layer 1" xmlns="http://www.w3.org/2000/svg" viewBox="0 0 864 872.04"><defs><style>.cls-1{fill:#fad009;stroke:#231f20;stroke-miterlimit:10;stroke-width:0.56px;fill-rule:evenodd;}.cls-2{fill:#2d429b;}</style></defs><title>Black logoArtboard 1 copy</title><path class="cls-1" d="M349.1,89.25s-.7-3.17-1.12-5.63-.07-2.94-3.71-.05S333,87,330.15,88s-18.4,6.45-21.9,17,8.9,12.83,14.06,13,17.24-2.37,23.21-13.42c0,0,.72-1.16,1.45-1.18s.61,2.09,1.5.64,3.39-5.6,4.66-6.06,2.12,3,2.57.13.08-4.78,6.39-6.06,17.19-5.44,14.67-17.41-11.06,1.87-15.4,3.33-11.09,4.66-12.26,11.33Zm53.39,73.35s.14-1.11-1.7-1.5-1.45-1.09-2.44-2.21-5.33-3.52-3.54-7.37,8.73-15.07,14.57-12.9,5.44,8.56,2.6,16.11-3.51,8.5-5.21,8.3-.84,1.14.28,2-.7,6.61-1.06,8.55-3.43,12.64-5,13.07-8.44-.85-6.47.59,2.66,2.11.82,2.42-4-.62-3.87.5,5.53.59,7.53.1.63,3.83.44,5.93-3.43,33.53-18.35,32.94c0,0-7.59-.72-7.33-8.8s1.91-12.74,4.24-14,2.36-14.74,2.66-16.62,3.4-4.39,7.62-3.34a16.39,16.39,0,0,0-3.45-2.6c-2-1.11,2.25.09,3-.53s-3.29-1.9-2.81-5.82,2.36-12.21,5.64-15.76,10.94,2.24,11.78.94ZM438,193a11.82,11.82,0,0,0-3.32,2.08c-.82,1-4.45,1.71-6,2.07s-7.43.37-7.46,2.29,1.64,4,.93,11.53-4.25,24.75,7.43,24.77S444.54,223.4,445,217.23s0-18.16.62-26.19,1.21-24-1.7-22.82-5.42,1.55-4.68.2-.17-1-1-.42-1.18-.51,1.13-1.69,5.14-3.12,5-7.6-4.69-15.16-8.66-15.25-9.68,7.14-10.52,13.4,0,9.12,5.42,9.56c0,0,.57-.08.52.58s-2.11.26-2.79.18-5.2,0-5.81,8.46.36,10.54-.28,14.63,7.73,2,13.57,1.18,2.26,1.48,2.09,1.52Zm39.12-32.43s-8.15,4.12-9.63,4.69-5.91-3-5-14.22,8.65-10.77,10.65-10.79,9.34,6.18,9.25,16.55c0,0,.35,1.58-2.11,4.19s3.1.55,4,3.28,5.61,18.64,6.33,19.95.24,7-2.4,9.87-2.34,4-.13,3,4.94,1.1,5.8,6.29,4.19,15.29,1.91,19.73-8.6,6.58-11.88,5.87-11-5.44-10.84-27.64c0,0,0-2.33,3-2s8.36-3.36,5.26-2.64-8.24,2.17-.5-1.48,8.6-5.31-5.59.93c0,0-4,2.3-5.94-4.12s-4.09-19.8-1.54-20.8,10.08-3.75,8.83-5.54-3.75,3.6-11.18,4,12.89-4.71,11.77-9.08ZM494,133.29a30.36,30.36,0,0,0,7.95,18.47,34.39,34.39,0,0,0,4.33,3.77c1.23.66,1.14,5.93,4.56,10s9,8.56,9.74,10.86,7.67,22,16.59,15.89c0,0,5.4-3.55,2.88-12.06s-4.09-8.75-6.41-7.92-7.46,2.7-3.53-.35,5-2,3.64-3.36-4.3,2.86-4.07.57,2.53-3.07.7-7.54-5.38-12.35-11-14.15-7.19,3.54-8,2.15,4.64-3.8,3.67-5.68A143.58,143.58,0,0,0,505,128.81c-3.13-3.74-11.06-1-11,4.48Zm-84.33-25.9-22.76-8.27c-4.83-3.94,3.7-13.53-1.47-17s-7-8.81-5.47-15.23,9.32-12.92,11-20.11,17.62-21.88,34.57-14.71S435,59.9,435,59.9s4.45-3.83,3.19-15.34-7.32-10.18,2.74-10-2.46,2.15,2.46,3.84.49-2.32,15.54-8.49a30,30,0,0,1,35.46,9.51c6.22,8.69,4.58,21.74,8.45,32.72s3.66,16.61,3.48,25.89-5.28,15.15-9,19.83-7.09,6.28-12.71,9.53S474,132,466.38,130.92s-7-1.15-14.2,3.72-11.52,3.13-14.23,2.64-8.4-1.51-15.51-3.21,7.2,3.71-2.75,4-27.05-8.71-22.29-16.84C400.28,116.32,386.89,99.12,386.89,99.12Zm20.29-10,39.49.69M443,95.16m35.12-3.65"/><path class="cls-1" d="M142.34,274s-2.85-1.54-5-2.84-2.27-1.86-2.47,2.78-4.8,10.79-5.87,13.59-7.17,18.14-1.52,27.65,15.52,1.67,19-2.14,9.5-14.59,5.05-26.33c0,0-.4-1.3.06-1.86s2,.91,1.46-.72-2-6.23-1.53-7.49,3.65.35,1.78-1.86-3.56-3.19-.39-8.79,7.13-16.56-3.56-22.49-5.82,9.58-7.57,13.82-3.73,11.43.54,16.68Zm90.4,7.65s-.75-.83-2.24.3-1.78.39-3.27.41-6.15,1.72-7.89-2.15-5.68-16.47-.22-19.46,10,1.49,13.89,8.57,4.12,8.22,2.86,9.38.31,1.38,1.73,1.12,4.54,4.85,5.76,6.4,7.32,10.87,6.64,12.3-6.16,5.83-3.79,5.28,3.34-.63,2.37,1-3.11,2.63-2.16,3.24,4.07-3.78,5-5.62,3.31,2,4.77,3.55,23.1,24.54,12.89,35.43c0,0-5.51,5.27-11.45-.21s-8.38-9.79-7.84-12.4-9.59-11.43-10.83-12.89-1.09-5.45,2.48-7.95a16.15,16.15,0,0,0-4.23.91c-2.16.8,1.54-1.64,1.57-2.62s-3.6,1.24-6.25-1.69-7.68-9.78-8.22-14.58,8.86-6.81,8.42-8.29Zm46.2-6.95a11.74,11.74,0,0,0-.6,3.86c.22,1.28-1.62,4.48-2.34,5.87s-4.58,5.86-3.15,7.14,4.08,1.37,9.32,6.85,15.93,19.41,23.6,10.59.47-19.35-3.88-23.77-13.7-11.91-19.39-17.61S265.18,251,264.14,254s-2.38,5.11-2.91,3.67-.89-.54-1,.48-1.17.55-.54-2,1-5.93-2.45-8.78S242.74,241,240.07,244s-.93,12,3.25,16.72,6.92,5.94,10.77,2.16a.47.47,0,0,1,.78,0c.46.47-1.18,1.76-1.69,2.23s-3.37,3.95,2.6,9.93,8.19,6.62,10.87,9.78,6.57-4.53,9.77-9.48,2.6-.74,2.52-.58ZM280,223.89s-2.22,8.86-2.76,10.35-6.12,2.52-14-5.51-2.48-13.59-1.19-15.11,10.79-3,18.57,3.84c0,0,1.42.77,1.78,4.34s2.45-2,5.11-.88,17.76,8,19.22,8.27,5.47,4.42,5.9,8.28,1.46,4.36,2.16,2.05,4.07-3,8.55-.27,14.31,6.84,16.16,11.47-.65,10.8-3.33,12.82-11.3,4.74-28-9.89c0,0-1.79-1.5.43-3.56s2.93-8.52,1.44-5.7-3.75,7.65-1.44-.59,1.61-10-3,4.83c0,0-.88,4.55-7,1.8S281,240.56,281.91,238s3.76-10.08,1.59-10.31.27,5.2-4.31,11.06,4.87-12.83.84-14.84Zm-9.56-30.59a30.35,30.35,0,0,0,19.17,6.08,34.18,34.18,0,0,0,5.68-.81c1.3-.5,5.23,3,10.52,3.07s12.38-1.22,14.58-.25S342,210,343.3,199.25c0,0,.85-6.41-7.24-10.07s-9.29-2.64-10.18-.34-2.84,7.41-2.58,2.44,1.77-5.12-.15-4.95-.65,5.12-2.24,3.45-.66-3.93-5.24-5.47-12.86-4-17.86-1-2,7.75-3.59,7.43.16-6-1.89-6.49a143.15,143.15,0,0,0-18.05-2.21c-4.88-.08-8,7.67-3.81,11.24Zm-74.78,46.8-21.14,11.8c-6.15,1.07-7.81-11.66-13.82-10s-11.24-.47-15.09-5.82-3.67-15.51-8-21.47-5-27.64,11.51-35.76,27.24,11,27.24,11,0-5.88-9.51-12.45-12.49-1.14-5.73-8.59,0,3.26,4.52.65-1.43-1.88,3.74-17.3a29.93,29.93,0,0,1,30.4-20.58c10.64,1,19.44,10.76,30.28,15s15,8.1,21.85,14.32,8,13.91,9.1,19.78.1,9.47-1.12,15.85-3.51,11-9.28,16.05-5.46,4.53-6.49,13.16-5.17,10.76-7.32,12.49-6.64,5.36-12.58,9.62,7.52-3,1.25,4.72-24.3,14.74-27.33,5.83C196.31,253,174.55,251.9,174.55,251.9Zm5.71-21.9,26.37-29.4,1.67,6.25,20.23-28.94"/><path class="cls-1" d="M367.81,557.37s-1.34,3-2.49,5.17-1.7,2.4,2.94,2.27,11.09,4.05,14,4.92,18.59,5.91,27.7-.39.59-15.59-3.45-18.81-15.21-8.46-26.62-3.22c0,0-1.26.49-1.86.07s.77-2-.81-1.41-6.08,2.43-7.37,2,.1-3.66-2-1.65-2.93,3.77-8.75,1-17-6-22.18,5.1,10,5.14,14.3,6.59,11.67,2.94,16.61-1.69Zm1.41-90.71s-.78.81.45,2.22.51,1.74.63,3.23,2.14,6-1.6,8-16,6.81-19.4,1.56.8-10.12,7.6-14.44,7.92-4.69,9.15-3.51,1.36-.4,1-1.8,4.53-4.86,6-6.19,10.33-8.05,11.81-7.47,6.24,5.75,5.53,3.42-.86-3.29.8-2.43,2.84,2.92,3.38,1.93-4.05-3.8-5.95-4.61,1.8-3.44,3.21-5,22.89-24.74,34.46-15.3c0,0,5.64,5.13.58,11.43s-9.19,9-11.83,8.68-10.74,10.36-12.11,11.69-5.37,1.46-8.1-1.92a16.22,16.22,0,0,0,1.19,4.15c1,2.1-1.74-1.42-2.72-1.38s1.48,3.5-1.25,6.34-9.23,8.34-14,9.21-7.41-8.37-8.85-7.83ZM359.1,421.05a11.7,11.7,0,0,0,3.9.33c1.25-.31,4.58,1.31,6,1.94s6.16,4.16,7.35,2.65,1.08-4.17,6.18-9.77,18.27-17.23,8.94-24.27-19.34.86-23.45,5.5S357.09,411.92,351.8,418s-15.36,18.43-12.36,19.26,5.27,2,3.87,2.65-.48.93.54.94.64,1.12-1.91.67-6-.59-8.59,3.05-5.38,14.94-2.25,17.39,12,.11,16.46-4.39,5.45-7.31,1.41-10.89c0,0-.5-.28-.06-.78s1.83,1.06,2.34,1.53,4.17,3.09,9.72-3.27,6-8.63,9-11.52-5-6.24-10.14-9.1-.92-2.54-.75-2.47Zm-50.77,2.41s9,1.6,10.52,2,2.93,5.94-4.53,14.39-13.38,3.41-15,2.22-3.75-10.54,2.55-18.78c0,0,.67-1.48,4.21-2.08s-2.15-2.31-1.23-5,6.72-18.27,6.93-19.75,4-5.76,7.85-6.45,4.25-1.76,1.89-2.3-3.29-3.85-.85-8.51,5.83-14.75,10.33-16.92,10.82-.09,13,2.45,5.51,10.94-7.94,28.61c0,0-1.37,1.88-3.57-.19s-8.7-2.34-5.79-1.05,7.89,3.21-.49,1.48-10.07-.92,5,2.62c0,0,4.59.57,2.27,6.86s-8.63,18.28-11.27,17.55-10.31-3.06-10.39-.88,5.17-.63,11.33,3.54-13.13-4-14.87.18Zm-29.85,11.65a30.44,30.44,0,0,0,4.74-19.55A34.77,34.77,0,0,0,282,410c-.59-1.26,2.65-5.42,2.33-10.7s-2.07-12.27-1.25-14.54,7.06-22.15-3.71-22.67c0,0-6.46-.4-9.55,7.92s-2,9.45.36,10.18,7.59,2.32,2.62,2.4-5.23-1.42-4.93.49,5.15.3,3.59,2-3.87.93-5.1,5.6-3.11,13.11.25,17.89,7.88,1.5,7.67,3.07-6,.25-6.35,2.34a143.71,143.71,0,0,0-1,18.15c.25,4.88,8.21,7.49,11.48,3Zm51.83,71.37,13.23,20.29c1.49,6.06-11.09,8.59-9,14.47s.31,11.25-4.77,15.45-15.22,4.73-20.86,9.49-27.23,6.89-36.48-9,9.14-27.94,9.14-27.94-5.86.39-11.76,10.35-.28,12.53-8.18,6.3,3.26-.24.35-4.55-1.79,1.56-17.52-2.55a29.91,29.91,0,0,1-22.63-28.91c.25-10.68,9.4-20.13,12.9-31.23s7.05-15.48,12.78-22.79,13.32-8.93,19.11-10.43,9.44-.77,15.88,0,11.21,2.75,16.66,8.16,4.89,5.13,13.57,5.57,11.09,4.42,13,6.44,5.8,6.25,10.46,11.89-3.52-7.3,4.63-1.57,16.37,23.22,7.69,26.86C343.17,505,343.54,526.77,343.54,526.77Zm-22.24-4.19M290.16,498.3m6.11-2.1M266,478"/><path class="cls-1" d="M680.09,463.8s2.45,2.14,4.25,3.87,1.81,2.31,3-2.18,7-9.47,8.7-12,11-16.13,7.53-26.65-14.78-5-19-2.07S672.11,437,673.88,449.39c0,0,.12,1.35-.46,1.81s-1.73-1.32-1.58.38.6,6.51-.15,7.64-3.48-1.14-2.14,1.42,2.77,3.89-1.54,8.67-10.58,14.6-1.44,22.72S674.35,484,677,480.2s6.15-10.34,3.12-16.4Zm-86.54-27.22s.55,1,2.25.19,1.83,0,3.29.33,6.38-.34,7.22,3.82,2,17.31-4,19-9.46-3.65-11.67-11.4-2.23-8.92-.75-9.77,0-1.42-1.44-1.48-3.37-5.73-4.22-7.51-4.77-12.2-3.79-13.45,7.29-4.34,4.85-4.32-3.39-.11-2.1-1.46,3.61-1.89,2.81-2.7-4.79,2.81-6.11,4.39-2.78-2.7-3.87-4.5-17.19-29-4.84-37.39c0,0,6.53-3.94,11.12,2.7s6,11.39,4.94,13.82,6.87,13.25,7.75,14.94-.13,5.56-4.15,7.22a16.43,16.43,0,0,0,4.32,0c2.29-.31-1.85,1.27-2.1,2.21s3.78-.42,5.73,3,5.35,11.22,4.83,16-10.13,4.71-10,6.25ZM547,433.26a11.82,11.82,0,0,0,1.43-3.64c.06-1.29,2.56-4,3.57-5.21s5.75-4.72,4.64-6.28-3.69-2.23-7.6-8.72S537.68,387,528.27,393.92s-4.68,18.78-1.41,24,10.77,14.62,15.07,21.42,13.28,20,14.93,17.34,3.44-4.47,3.65-3,.75.72,1-.25,1.26-.29.1,2-2.28,5.57.47,9.11,12.78,9.41,16,7.12,3.54-11.5.5-17-5.46-7.31-10-4.47c0,0-.41.4-.76-.16s1.54-1.45,2.14-1.8,4.15-3.12-.36-10.26-6.55-8.25-8.47-11.92-7.41,3-11.61,7.12-2.7.15-2.59,0Zm-12.17,49.35s4.1-8.16,5-9.5,6.53-1.12,12.5,8.44-.55,13.8-2.14,15-11.18.58-17.28-7.8c0,0-1.22-1.07-.79-4.63s-2.83,1.4-5.18-.26-15.58-11.66-17-12.28-4.36-5.5-3.94-9.36-.47-4.58-1.66-2.47-4.63,2.05-8.4-1.61-12.47-9.8-13.27-14.73,3-10.4,6.06-11.78,12.06-2.15,25.15,15.78c0,0,1.42,1.85-1.2,3.37s-4.72,7.67-2.66,5.25,5.34-6.65,1.28.89-3.75,9.39,4-4.07c0,0,1.86-4.24,7.22-.22s15.06,13.48,13.61,15.8-5.87,9-3.81,9.71.88-5.13,6.63-9.85-7.56,11.46-4.07,14.31Zm2.64,31.93a30.43,30.43,0,0,0-17.37-10.12,33.67,33.67,0,0,0-5.73-.45c-1.37.2-4.44-4.1-9.59-5.3s-12.35-1.51-14.28-2.94-19.23-13.09-22.79-2.91c0,0-2.24,6.07,4.86,11.4s8.49,4.61,9.86,2.56,4.39-6.61,3.05-1.82-2.85,4.61-.94,4.87,1.76-4.86,2.94-2.88-.21,4,3.92,6.49,11.67,6.72,17.21,4.86,3.69-7.12,5.14-6.47-1.48,5.82.42,6.75a143.38,143.38,0,0,0,17.12,6.1c4.75,1.15,9.53-5.73,6.18-10.14Zm83.2-29.32,23.22-6.89c6.23.3,5.07,13.08,11.29,12.8s10.86,2.91,13.45,9,.19,15.93,3.14,22.7-1.16,28.06-19.05,32.39-24.18-16.73-24.18-16.73-1.29,5.72,6.56,14.22,11.94,3.84,3.72,9.64.7-3.19-4.27-1.63,1,2.16-7.44,16.07A29.9,29.9,0,0,1,592.9,590.2c-10.17-3.28-16.62-14.75-26.26-21.27s-12.82-11.18-18.19-18.75-4.76-15.32-4.55-21.29,2-9.27,4.55-15.22,5.83-10,12.57-13.64,6.31-3.23,9.21-11.42,7.39-9.37,9.87-10.59,7.65-3.78,14.38-6.64-8,1.29-.19-4.88,26.93-9.07,27.94.29C622.84,472.47,643.84,478.33,643.84,478.33Zm-10.36,20.12-32.16,22.93-.27-6.46M575,538.73"/><path class="cls-1" d="M646,150.62s2.52-2.05,4.53-3.53,2.59-1.38-1.63-3.34-8.14-8.55-10.32-10.6-14-13.55-25-12-7.46,13.71-5.27,18.39,9.87,14.34,22.42,14.71c0,0,1.35.12,1.7.76s-1.6,1.48.11,1.62,6.52.52,7.51,1.45-1.72,3.24,1,2.35,4.3-2.07,8.28,3,12.59,12.91,22.15,5.28-6.64-9-9.89-12.26-9.15-7.81-15.63-5.86Zm-41.55,80.65s1-.38.58-2.19.32-1.79.87-3.18.76-6.34,5-6.47,17.39,1,18.07,7.22-5.21,8.71-13.22,9.57-9.18.67-9.76-.93-1.39-.24-1.7,1.16-6.22,2.35-8.12,2.89-12.83,2.62-13.9,1.45-3-7.92-3.43-5.52-.69,3.33-1.8,1.82-1.25-3.87-2.18-3.23,2,5.2,3.29,6.77-3.14,2.28-5.1,3.06-31.49,12-37.67-1.6c0,0-2.77-7.11,4.56-10.5s12.25-4,14.46-2.52,14.22-4.51,16-5.09,5.45,1.07,6.4,5.31a16,16,0,0,0,.78-4.25c.09-2.3.93,2.05,1.82,2.45s.23-3.8,3.94-5.13,12-3.37,16.62-2,2.91,10.79,4.45,11Zm-11.19,45.36a11.62,11.62,0,0,0-3.35-2c-1.26-.28-3.52-3.21-4.52-4.4s-3.68-6.48-5.41-5.64-2.82,3.25-9.88,6-24,7.33-18.79,17.78,17.71,7.81,23.45,5.48,16.24-8.12,23.67-11.21,22-9.68,19.63-11.76-3.82-4.15-2.29-4.09.84-.62-.07-1.08-.07-1.29,2,.24,5.1,3.19,9,1.09,11.45-11,9.74-14.58-10.73-5.44-16.7-3.38-8.13,4.13-6.11,9.13c0,0,.33.47-.28.72s-1.18-1.76-1.42-2.4-2.37-4.63-10.17-1.39-9.25,5-13.19,6.31,1.68,7.81,5,12.66-.31,2.68-.42,2.55ZM639.82,297s-7.34-5.43-8.51-6.5,0-6.63,10.44-10.89,13.51,2.9,14.42,4.67-1.32,11.12-10.62,15.7c0,0-1.26,1-4.7,0s.9,3-1.13,5.06-14.14,13.38-15,14.61-6.17,3.37-9.9,2.29-4.59-.31-2.72,1.22,1.24,4.92-3,8-11.77,10.62-16.76,10.57-9.74-4.73-10.58-8-.07-12.26,19.82-22.11c0,0,2.07-1.08,3.12,1.75s6.76,6,4.73,3.52-5.65-6.39,1.09-1.11,8.61,5.3-3.34-4.58c0,0-3.86-2.55,1-7.15s15.85-12.55,17.89-10.73,7.88,7.32,8.92,5.4-4.91-1.73-8.58-8.2,10,9.4,13.4,6.45Zm31.92,2.82a30.43,30.43,0,0,0-12.93,15.4,34.9,34.9,0,0,0-1.42,5.56c0,1.39-4.79,3.68-6.84,8.55s-3.59,11.92-5.34,13.58-16.16,16.72-6.74,22c0,0,5.6,3.24,12.07-2.85s6-7.58,4.19-9.28-5.76-5.45-1.27-3.31,4,3.59,4.63,1.75-4.48-2.56-2.33-3.39,3.88.89,7.06-2.75,8.61-10.36,7.72-16.14-6.4-4.84-5.51-6.16,5.49,2.44,6.73.73a142.67,142.67,0,0,0,8.92-15.84c1.94-4.48-4-10.36-8.94-7.81Zm-14.74-87-2.84-24.05c1.36-6.09,13.75-2.77,14.53-8.95s4.72-10.21,11.14-11.73,15.73,2.52,22.9.77,27.46,5.91,28.67,24.28-20.59,21-20.59,21,5.42,2.26,15.13-4,5.82-11.11,10.13-2-3-1.23-2.33,3.92,2.29-.6,14.57,10.07a29.94,29.94,0,0,1,7.43,36c-5,9.46-17.36,13.87-25.44,22.26S717.11,291,708.73,295s-15.9,2.09-21.75.87-8.8-3.51-14.23-7.07-8.81-7.44-11.29-14.71-2.11-6.77-9.69-11-8-8.88-8.76-11.52-2.42-8.19-4.09-15.3-.09,8.09-4.84-.65-4.36-28.08,5-27.48C644.81,208.51,654.16,188.82,654.16,188.82Zm18.07,13.63M689.35,238m-6.42-.84,19,29.74"/><path class="cls-2" d="M81,803.94h2.34l2.3,27,16.13-27.1h1.73l1.65,27.1,16.78-27h2.51l-19.2,30.56h-1.82l-1.82-26.36-16,26.36H83.82Z"/><path class="cls-2" d="M121.75,825c0-7,6.07-13.35,13.14-13.35a9.41,9.41,0,0,1,9.84,9.79c0,7.2-6.29,13.36-13.14,13.36A9.41,9.41,0,0,1,121.75,825Zm20.68-3.47c0-5-3.17-7.89-7.76-7.89-5.59,0-10.62,5.38-10.62,11.27,0,5,3.16,7.89,7.76,7.89C137.18,832.81,142.43,827.65,142.43,821.54Z"/><path class="cls-2" d="M154,812.18h2.12l-1.65,6.28c2.91-4.07,6.68-6.89,11.36-6.63l-.61,2.34H165c-5.12,0-10.53,4-12.4,11.05l-2.43,9.06h-2.12Z"/><path class="cls-2" d="M173.72,802.64h2.12l-6.28,23.45,17.17-13.91h3.07l-12.31,9.88,6.59,12.22h-2.47l-5.9-10.92-6.93,5.55-1.43,5.37h-2.13Z"/><path class="cls-2" d="M195.74,812.18h2.12l-5.94,22.1H189.8Zm2.08-8.67h2.64l-.78,2.9H197Z"/><path class="cls-2" d="M206.23,812.18h2.12l-1.08,4.11c2.17-2.6,4.64-4.63,8.36-4.63,4.38,0,7.24,2.77,7.24,7a13.65,13.65,0,0,1-.47,3.12l-3.3,12.48H217l3.38-12.65a11.68,11.68,0,0,0,.35-2.73c0-3.3-2.17-5.34-5.68-5.34-3.77,0-7.94,3.43-9.24,8.24l-3.33,12.48h-2.13Z"/><path class="cls-2" d="M225.51,837.19l1.57-1.56a12.89,12.89,0,0,0,9,3.68,9.4,9.4,0,0,0,6.8-2.47,12.49,12.49,0,0,0,3-5.81l.78-2.77c-2.21,2.34-5.12,4.38-9.1,4.38-4.73,0-9.24-3.21-9.24-8.59a12.55,12.55,0,0,1,12.53-12.39c5.12,0,7.37,3,8.63,5.89l1.43-5.37H253l-5.16,19.37a14.07,14.07,0,0,1-3.46,6.59,11.27,11.27,0,0,1-8.46,3.17A15.58,15.58,0,0,1,225.51,837.19Zm23-16.43c0-3.51-2.9-7.07-7.76-7.07a10.21,10.21,0,0,0-10.14,10.23c0,4.43,3.6,6.72,7.33,6.72C243.5,830.64,248.53,825.74,248.53,820.76Z"/><path class="cls-2" d="M283.73,806H273.15l.56-2.08h23.41l-.56,2.08H286l-7.58,28.26h-2.26Z"/><path class="cls-2" d="M291.18,825c0-7,6.06-13.35,13.13-13.35a9.41,9.41,0,0,1,9.84,9.79c0,7.2-6.28,13.36-13.13,13.36A9.41,9.41,0,0,1,291.18,825Zm20.67-3.47c0-5-3.16-7.89-7.76-7.89-5.59,0-10.62,5.38-10.62,11.27,0,5,3.17,7.89,7.76,7.89C306.61,832.81,311.85,827.65,311.85,821.54Z"/><path class="cls-2" d="M316.18,837.19l1.56-1.56a12.93,12.93,0,0,0,9,3.68,9.4,9.4,0,0,0,6.8-2.47,12.49,12.49,0,0,0,3-5.81l.78-2.77c-2.21,2.34-5.12,4.38-9.1,4.38-4.73,0-9.24-3.21-9.24-8.59a12.55,12.55,0,0,1,12.53-12.39c5.12,0,7.37,3,8.63,5.89l1.43-5.37h2.12l-5.16,19.37a14,14,0,0,1-3.47,6.59,11.23,11.23,0,0,1-8.45,3.17A15.58,15.58,0,0,1,316.18,837.19Zm23-16.43c0-3.51-2.9-7.07-7.76-7.07a10.2,10.2,0,0,0-10.14,10.23c0,4.43,3.6,6.72,7.33,6.72C334.17,830.64,339.2,825.74,339.2,820.76Z"/><path class="cls-2" d="M349.21,825.44a7,7,0,0,0,7.33,7.37,11,11,0,0,0,7.54-2.95l1.26,1.52a12.82,12.82,0,0,1-8.8,3.43c-5.64,0-9.62-3.82-9.62-9.28,0-6.89,5.59-13.87,12.78-13.87,5.55,0,8.37,3.9,8.37,8.45a11.66,11.66,0,0,1-.61,3.86H349.3C349.26,824.44,349.21,825,349.21,825.44Zm16.52-3.38a8.36,8.36,0,0,0,.17-1.82c0-3.56-1.95-6.63-6.24-6.63-4.94,0-8.71,3.9-10,8.45Z"/><path class="cls-2" d="M373.66,830.3a10.61,10.61,0,0,1,.26-2.13l3.77-14h-3.21l.52-2h3.21l1.91-7.07h2.12l-1.91,7.07H388l-.52,2h-7.63L376,828.22a9.39,9.39,0,0,0-.21,1.86c0,1.82,1.38,2.64,3.59,2.64a8.81,8.81,0,0,0,3.21-.69l-.56,2.08a8.17,8.17,0,0,1-3.12.57C376,834.68,373.66,833.33,373.66,830.3Z"/><path class="cls-2" d="M396.76,802.64h2.13l-3.69,13.65c2.17-2.6,4.64-4.63,8.37-4.63,4.38,0,7.24,2.77,7.24,7a13.69,13.69,0,0,1-.48,3.12L407,834.28h-2.13l3.38-12.65a11.68,11.68,0,0,0,.35-2.73c0-3.3-2.17-5.34-5.68-5.34-3.77,0-7.93,3.43-9.23,8.24l-3.34,12.48h-2.12Z"/><path class="cls-2" d="M418,825.44a7,7,0,0,0,7.33,7.37,11,11,0,0,0,7.54-2.95l1.26,1.52a12.82,12.82,0,0,1-8.8,3.43c-5.64,0-9.63-3.82-9.63-9.28,0-6.89,5.6-13.87,12.79-13.87,5.55,0,8.37,3.9,8.37,8.45a11.66,11.66,0,0,1-.61,3.86H418.13C418.09,824.44,418,825,418,825.44Zm16.52-3.38a8.36,8.36,0,0,0,.17-1.82c0-3.56-2-6.63-6.24-6.63-4.94,0-8.71,3.9-10,8.45Z"/><path class="cls-2" d="M445.83,812.18H448l-1.65,6.28c2.91-4.07,6.68-6.89,11.36-6.63l-.61,2.34h-.17c-5.11,0-10.53,4-12.4,11.05l-2.43,9.06h-2.12Z"/><path class="cls-2" d="M485.66,806H475.08l.57-2.08h23.41l-.57,2.08H487.91l-7.58,28.26h-2.26Z"/><path class="cls-2" d="M493.11,825c0-7,6.07-13.35,13.13-13.35a9.41,9.41,0,0,1,9.84,9.79c0,7.2-6.28,13.36-13.13,13.36A9.41,9.41,0,0,1,493.11,825Zm20.68-3.47c0-5-3.17-7.89-7.76-7.89-5.6,0-10.62,5.38-10.62,11.27,0,5,3.16,7.89,7.76,7.89C508.54,832.81,513.79,827.65,513.79,821.54Z"/><path class="cls-2" d="M541.05,803.94h21.37l-.57,2.08H542.74l-3.34,12.44h17.17l-.57,2.08H538.84l-3.69,13.74H532.9Z"/><path class="cls-2" d="M567.1,812.18h2.12l-5.94,22.1h-2.12Zm2.08-8.67h2.64l-.78,2.9H568.4Z"/><path class="cls-2" d="M577.58,812.18h2.13l-1.09,4.11c2.17-2.6,4.64-4.63,8.37-4.63,4.38,0,7.24,2.77,7.24,7a13.69,13.69,0,0,1-.48,3.12l-3.29,12.48h-2.12l3.38-12.65a12.22,12.22,0,0,0,.34-2.73c0-3.3-2.16-5.34-5.68-5.34-3.77,0-7.93,3.43-9.23,8.24l-3.34,12.48h-2.12Z"/><path class="cls-2" d="M599.43,825.53c0-7.85,5.89-13.87,12.48-13.87a8.9,8.9,0,0,1,8.8,6.2l4.08-15.22h2.12l-8.45,31.64h-2.13l1.13-4.29c-2.21,2.65-5.2,4.86-9.14,4.86C603.2,834.85,599.43,831,599.43,825.53Zm20.2-4.16a7.48,7.48,0,0,0-7.63-7.72c-6,0-10.27,5.51-10.27,11.62,0,4.55,2.81,7.58,6.85,7.58C614.08,832.85,619.63,827.26,619.63,821.37Z"/><path class="cls-2" d="M659.29,803.72h2.17l5.94,30.56h-2.3l-1.56-8.49H645.63l-6.15,8.49H637Zm3.81,20-3.25-17.56-12.74,17.56Z"/><path class="cls-2" d="M688.33,822.54c0-9.84,8.1-19.12,18.12-19.12A11.86,11.86,0,0,1,717.59,810l-2,1c-1.95-3.39-4.56-5.55-9.32-5.55-8.76,0-15.65,8.41-15.65,17,0,6.37,4.33,10.32,10.27,10.32,4.51,0,7.5-1.78,10.27-4.55l1.52,1.38a15.69,15.69,0,0,1-12,5.25C694,834.85,688.33,830.21,688.33,822.54Z"/><path class="cls-2" d="M719.1,827.78a13.69,13.69,0,0,1,.48-3.12l3.29-12.48H725l-3.39,12.65a12.23,12.23,0,0,0-.34,2.74c0,3.29,2.16,5.33,5.68,5.33,3.77,0,7.93-3.43,9.23-8.24l3.34-12.48h2.12l-5.89,22.1h-2.13l1.09-4.11c-2.17,2.6-4.64,4.64-8.37,4.64C722,834.81,719.1,832,719.1,827.78Z"/><path class="cls-2" d="M749.7,812.18h2.13l-1.65,6.28c2.9-4.07,6.67-6.89,11.36-6.63l-.61,2.34h-.17c-5.12,0-10.54,4-12.4,11.05l-2.43,9.06h-2.12Z"/><path class="cls-2" d="M764.14,825.44a7,7,0,0,0,7.32,7.37,11,11,0,0,0,7.55-2.95l1.26,1.52a12.84,12.84,0,0,1-8.81,3.43c-5.63,0-9.62-3.82-9.62-9.28,0-6.89,5.59-13.87,12.79-13.87,5.55,0,8.37,3.9,8.37,8.45a11.66,11.66,0,0,1-.61,3.86H764.23A14.32,14.32,0,0,0,764.14,825.44Zm16.52-3.38a9.06,9.06,0,0,0,.17-1.82c0-3.56-2-6.63-6.24-6.63-5,0-8.72,3.9-10,8.45Z"/><path class="cls-2" d="M46.23,646.13H31.41V634.07H74.88v12.06H60v37.58H46.23Z"/><path class="cls-2" d="M80.91,634.07H94.66v18.58h17.66V634.07h13.75v49.64H112.32V664.85H94.66v18.86H80.91Z"/><path class="cls-2" d="M134.86,634.07h39.92V645.7h-26.3v7.59H172.3v10.85H148.48V672h26.66v11.7H134.86Z"/><path class="cls-2" d="M200.24,659v-.14c0-14.25,11.49-25.81,26.8-25.81s26.66,11.41,26.66,25.67v.14c0,14.25-11.48,25.81-26.8,25.81S200.24,673.28,200.24,659Zm39.35,0v-.14c0-7.23-5.1-13.4-12.69-13.4s-12.62,6.1-12.62,13.26v.14c0,7.16,5.18,13.4,12.76,13.4S239.59,666.19,239.59,659Z"/><path class="cls-2" d="M256.68,676.33l7.66-9.14a25.7,25.7,0,0,0,16.1,5.95c3.75,0,5.74-1.27,5.74-3.4v-.14c0-2.13-1.63-3.19-8.44-4.83-10.56-2.41-18.72-5.38-18.72-15.52v-.15c0-9.21,7.31-15.88,19.22-15.88,8.44,0,15,2.27,20.42,6.6l-6.88,9.71a24.38,24.38,0,0,0-13.9-4.89c-3.33,0-5,1.34-5,3.19V648c0,2.27,1.7,3.26,8.65,4.82C292.92,655.27,300,659,300,668.25v.14c0,10.14-8,16.17-20.07,16.17C271.15,684.56,262.85,681.79,256.68,676.33Z"/><path class="cls-2" d="M317.38,646.13H302.56V634.07H346v12.06h-14.9v37.58H317.38Z"/><path class="cls-2" d="M352.05,634.07H392V645.7h-26.3v7.59h23.82v10.85H365.67V672h26.66v11.7H352.05Z"/><path class="cls-2" d="M397.43,659v-.14c0-14.25,11.49-25.81,26.81-25.81s26.66,11.41,26.66,25.67v.14c0,14.25-11.49,25.81-26.81,25.81S397.43,673.28,397.43,659Zm39.36,0v-.14c0-7.23-5.11-13.4-12.7-13.4s-12.62,6.1-12.62,13.26v.14c0,7.16,5.18,13.4,12.77,13.4S436.79,666.19,436.79,659Z"/><path class="cls-2" d="M453.87,676.33l7.66-9.14a25.74,25.74,0,0,0,16.1,5.95c3.76,0,5.74-1.27,5.74-3.4v-.14c0-2.13-1.63-3.19-8.44-4.83-10.56-2.41-18.71-5.38-18.71-15.52v-.15c0-9.21,7.3-15.88,19.21-15.88,8.44,0,15,2.27,20.42,6.6L489,649.53a24.35,24.35,0,0,0-13.89-4.89c-3.34,0-5,1.34-5,3.19V648c0,2.27,1.71,3.26,8.65,4.82,11.35,2.48,18.44,6.17,18.44,15.46v.14c0,10.14-8,16.17-20.07,16.17C468.34,684.56,460,681.79,453.87,676.33Z"/><path class="cls-2" d="M520,633.72h13.26l21.13,50H539.6l-3.54-8.94H516.84l-3.55,8.94H498.9Zm12,30.35-5.53-14-5.6,14Z"/><path class="cls-2" d="M559.17,634.07h23.47c7.59,0,12.84,2,16.17,5.32,2.91,2.91,4.39,6.66,4.39,11.56v.14c0,7.66-4,12.69-10.21,15.32l11.85,17.3H589l-10-15h-6.1v15H559.17Zm22.9,23.83c4.61,0,7.38-2.27,7.38-5.89v-.14c0-4-2.91-6-7.45-6h-9.07v12Z"/><path class="cls-2" d="M608.52,659v-.14c0-14.47,11.06-25.81,26.1-25.81,10.14,0,16.66,4.25,21.06,10.28l-10.36,8c-2.83-3.47-6.09-5.81-10.85-5.81-6.94,0-11.84,6-11.84,13.19v.14c0,7.44,4.9,13.26,11.84,13.26,5.18,0,8.23-2.41,11.21-6L656,673.5c-4.68,6.45-11,11.2-21.91,11.2A25.21,25.21,0,0,1,608.52,659Z"/><path class="cls-2" d="M658.94,659v-.14c0-14.25,11.48-25.81,26.8-25.81s26.66,11.41,26.66,25.67v.14c0,14.25-11.49,25.81-26.8,25.81S658.94,673.28,658.94,659Zm39.35,0v-.14c0-7.23-5.1-13.4-12.69-13.4S673,651.59,673,658.75v.14c0,7.16,5.17,13.4,12.76,13.4S698.29,666.19,698.29,659Z"/><path class="cls-2" d="M719.49,634.07H734l11.84,19.22,11.84-19.22h14.54v49.64H758.56V655.2l-12.69,19.43h-.29L733,655.27v28.44H719.49Z"/><path class="cls-2" d="M798.2,633.72h13.26l21.13,50H817.84l-3.55-8.94H795.08l-3.55,8.94H777.14Zm12,30.35-5.53-14-5.6,14Z"/><path class="cls-2" d="M117.07,744.12V744c0-14.47,11.06-25.81,26.09-25.81,10.14,0,16.66,4.25,21.06,10.28l-10.35,8c-2.84-3.47-6.1-5.81-10.85-5.81-7,0-11.84,6-11.84,13.19V744c0,7.44,4.89,13.26,11.84,13.26,5.18,0,8.23-2.41,11.2-6l10.36,7.37c-4.68,6.46-11,11.21-21.91,11.21A25.2,25.2,0,0,1,117.07,744.12Z"/><path class="cls-2" d="M167.48,744.12V744c0-14.25,11.49-25.81,26.81-25.81S221,729.58,221,743.84V744c0,14.25-11.49,25.81-26.81,25.81S167.48,758.37,167.48,744.12Zm39.36,0V744c0-7.23-5.11-13.4-12.7-13.4s-12.62,6.09-12.62,13.26V744c0,7.16,5.18,13.4,12.77,13.4S206.84,751.28,206.84,744.12Z"/><path class="cls-2" d="M228,719.16h13.75v37.58h24V768.8H228Z"/><path class="cls-2" d="M271.79,719.16h13.75v37.58h24V768.8H271.79Z"/><path class="cls-2" d="M332.69,718.81H346l21.13,50H352.34l-3.55-8.94H329.57L326,768.8H311.64Zm12.06,30.34-5.53-14-5.6,14Z"/><path class="cls-2" d="M371.91,719.16h25.45c6.24,0,10.64,1.56,13.54,4.4a11.15,11.15,0,0,1,3.2,8.08v.14c0,5.75-3.27,9.15-7.66,11.06,6,2,9.85,5.39,9.85,12.13v.14c0,8.51-7,13.69-18.79,13.69H371.91Zm28.64,15.32c0-2.77-2.2-4.26-6.24-4.26h-9v8.72H394c4.18,0,6.59-1.41,6.59-4.32Zm-4.75,14.11H385.31v9.14h10.63c4.26,0,6.6-1.63,6.6-4.53v-.15C402.54,750.36,400.41,748.59,395.8,748.59Z"/><path class="cls-2" d="M421,744.12V744c0-14.25,11.49-25.81,26.81-25.81s26.66,11.41,26.66,25.67V744c0,14.25-11.49,25.81-26.81,25.81S421,758.37,421,744.12Zm39.36,0V744c0-7.23-5.11-13.4-12.7-13.4S435,736.67,435,743.84V744c0,7.16,5.18,13.4,12.77,13.4S460.33,751.28,460.33,744.12Z"/><path class="cls-2" d="M481.53,719.16H505c7.58,0,12.83,2,16.16,5.32,2.91,2.91,4.4,6.66,4.4,11.56v.14c0,7.66-4,12.69-10.21,15.31l11.84,17.31H511.38l-10-15h-6.1v15H481.53ZM504.43,743c4.61,0,7.37-2.27,7.37-5.89V737c0-4-2.9-6-7.44-6h-9.08v12Z"/><path class="cls-2" d="M548.75,718.81H562l21.13,50H568.39l-3.55-8.94H545.63l-3.55,8.94H527.69Zm12,30.34-5.53-14-5.6,14Z"/><path class="cls-2" d="M593.7,731.21H578.88V719.16h43.47v12.05H607.46V768.8H593.7Z"/><path class="cls-2" d="M628.73,719.16h13.76V768.8H628.73Z"/><path class="cls-2" d="M647.66,719.16H663l11.27,31.41,11.35-31.41h15l-20.14,50H667.73Z"/><path class="cls-2" d="M705.45,719.16h39.92v11.63h-26.3v7.59h23.82v10.85H719.07v7.87h26.66v11.7H705.45Z"/><path class="cls-2" d="M420.51,75.87a4.69,4.69,0,0,0-1.74-3.82,7.17,7.17,0,0,0-4.7-1.44,10.3,10.3,0,0,0-7,2.44c-1.89,1.62-2.83,3.3-2.83,5.06a3.22,3.22,0,0,0,.56,1.81,1.53,1.53,0,0,0,1.19.83,4.3,4.3,0,0,0,1.47-.5c.7-.34,1.05-.63,1.05-.89s-.16-.43-.48-.57a1.79,1.79,0,0,1-1.2-1.8,4.67,4.67,0,0,1,2.22-3.66,8.09,8.09,0,0,1,5-1.67,4.19,4.19,0,0,1,2.88.93A3.17,3.17,0,0,1,418,75.1a6.07,6.07,0,0,1-1.54,3.78,3.93,3.93,0,0,0-.66,1c0,.17.15.36.44.56a1.42,1.42,0,0,0,.79.31,3.51,3.51,0,0,0,2.23-1.34A4.88,4.88,0,0,0,420.51,75.87Z"/><path class="cls-2" d="M415.9,73.59a5.08,5.08,0,0,0-1.81.68,6,6,0,0,0-2.29,2.3,15.27,15.27,0,0,0-1.46,5.56,16,16,0,0,1-1.55,5.78,3.11,3.11,0,0,1-2.66,1.86c-.93,0-1.4-.56-1.4-1.67,0-.11,0-.46.13-1.06s.14-.94.14-1a.54.54,0,0,0-.17-.39.56.56,0,0,0-.41-.16,3.73,3.73,0,0,0-1.34.56,6.21,6.21,0,0,0-1.31.89,1.13,1.13,0,0,0-.32.84A2.73,2.73,0,0,0,402.56,90a4.49,4.49,0,0,0,2.89.88A8.36,8.36,0,0,0,410,89.55a8.24,8.24,0,0,0,3.06-3.33,17.88,17.88,0,0,0,1.41-5.48,24.84,24.84,0,0,1,.86-4.57,4.93,4.93,0,0,1,1.33-1.92C416.4,73.81,416.13,73.59,415.9,73.59Z"/><path class="cls-2" d="M448.18,73.24a2.46,2.46,0,0,1-1.5.55,3.71,3.71,0,0,1-1.77-.69,10.16,10.16,0,0,1-1.26,2.77,3.09,3.09,0,0,0,2.06.73C447.36,76.6,448.18,75.48,448.18,73.24Z"/><path class="cls-2" d="M488.74,82.47a4,4,0,0,1-.84-2,3.72,3.72,0,0,1,.22-1.23.89.89,0,0,0,.11-.43c0-.07,0-.11-.14-.11a10.71,10.71,0,0,0-1.17.16c-.65.11-1.3.24-1.95.41A20.39,20.39,0,0,1,480.59,86a12.72,12.72,0,0,1-2,1.8,2.61,2.61,0,0,1-1.42.45,1,1,0,0,1-.84-.41,1.65,1.65,0,0,1-.33-1.07,9.84,9.84,0,0,1,.48-2.6l.93-3.13,2.17-.17.46-2.15-2,.11,1.44-4.86-3.73.77-1.31,4.36-1.33,0-.45,2.2,1.07-.06-.59,2.12a18.2,18.2,0,0,0-.59,2.53c-1.51,1.77-2.6,2.66-3.28,2.66q-.69,0-.69-.84a10.51,10.51,0,0,1,.83-2.74,14.26,14.26,0,0,0,1.2-4.42,2,2,0,0,0-.48-1.34,1.5,1.5,0,0,0-1.18-.54,4.24,4.24,0,0,0-2.4,1A26.09,26.09,0,0,0,463,83.21a31.61,31.61,0,0,1,1.41-4.56l-3.41.66a27.34,27.34,0,0,0-1.69,4.53,14.85,14.85,0,0,0-.38,2,15.62,15.62,0,0,1-2.53,2.2,3.42,3.42,0,0,1-1.76.49c-1.58,0-2.55-.91-2.93-2.72,4.1-1.2,6.16-2.77,6.16-4.7a2.22,2.22,0,0,0-.79-1.76,3.06,3.06,0,0,0-2.08-.67,6,6,0,0,0-4.56,2.4,8.06,8.06,0,0,0-2,4.79,13.94,13.94,0,0,1-1.71,1.69,1.84,1.84,0,0,1-1.1.4.6.6,0,0,1-.51-.29,1.29,1.29,0,0,1-.2-.74,14.84,14.84,0,0,1,.87-3.88l1.39-4.37H447l-3.55.74a31.84,31.84,0,0,0-1.86,6.45v0a13.72,13.72,0,0,1-2.06,1.89,2.61,2.61,0,0,1-1.42.45,1,1,0,0,1-.84-.41,1.65,1.65,0,0,1-.33-1.07,9.84,9.84,0,0,1,.48-2.6l.93-3.13,2.17-.17.46-2.15-2,.11,1.45-4.86-3.74.77-1.31,4.36-1.33,0-.45,2.2,1.07-.06-.59,2.12a17.88,17.88,0,0,0-.59,2.53c-.78.77-1.39,1.35-1.82,1.73a1.88,1.88,0,0,1-1.2.58c-.57,0-.85-.4-.85-1.2a17.94,17.94,0,0,1,.95-4.23l1.24-4.1h-.79l-2.86,1.58a2.47,2.47,0,0,0-2.44-1.61,6,6,0,0,0-3.19,1.18,9.45,9.45,0,0,0-3,3.07,7.59,7.59,0,0,0-1.15,4,4.62,4.62,0,0,0,.86,2.83,2.53,2.53,0,0,0,2.09,1.15,3.82,3.82,0,0,0,2.44-.95,14,14,0,0,0,2.58-3c-.09,2.6.61,3.9,2.08,3.9a3.36,3.36,0,0,0,1.85-.64,28.31,28.31,0,0,0,3.07-2.64,4.11,4.11,0,0,0,.72,2.27,2.31,2.31,0,0,0,2,1,4.49,4.49,0,0,0,2.45-.83,19.42,19.42,0,0,0,2.9-2.43s0,0,0,.08a4,4,0,0,0,.62,2.3,1.78,1.78,0,0,0,1.51.91c1.08,0,2.71-1.14,4.89-3.44v0a4.15,4.15,0,0,0,1.08,2.22,4.07,4.07,0,0,0,3.07,1.21,6,6,0,0,0,3.12-.83,16.72,16.72,0,0,0,3.08-2.47c0,.17,0,.34,0,.52,0,.62.05,1.55.15,2.81l3.09-.72c0-.84,0-1.51,0-2a21.74,21.74,0,0,1,.28-2.18,2.9,2.9,0,0,1,.65-1.33l.78-.91q.44-.51.81-.9t.78-.78a6.08,6.08,0,0,1,.69-.54,1.08,1.08,0,0,1,.51-.2c.24,0,.35.15.35.45a8.41,8.41,0,0,1-.65,2.09A14,14,0,0,0,465,88.47a2.61,2.61,0,0,0,.57,1.76,1.9,1.9,0,0,0,1.51.65q2.26,0,5.41-3.28a4.08,4.08,0,0,0,.72,2.27,2.31,2.31,0,0,0,1.95,1,4.52,4.52,0,0,0,2.45-.83,19.71,19.71,0,0,0,3-2.58h0a36.89,36.89,0,0,0,4.11-5.35,11,11,0,0,0,1.26,2.46,4.73,4.73,0,0,1,.95,2.35,2.45,2.45,0,0,1-.75,1.7,2.2,2.2,0,0,1-1.6.79c-.56,0-1-.39-1.2-1.15s-.5-1.15-.8-1.15-.59.32-1.11.94a3,3,0,0,0-.77,1.27q0,.57.78,1.08a3.18,3.18,0,0,0,1.73.5,6.12,6.12,0,0,0,4.25-2,5.8,5.8,0,0,0,2-4.13A4.27,4.27,0,0,0,488.74,82.47ZM426,85.86c-.83,1.59-1.7,2.38-2.64,2.38a1.13,1.13,0,0,1-.94-.47,1.89,1.89,0,0,1-.37-1.22,9.53,9.53,0,0,1,1.25-4.37c.83-1.59,1.72-2.38,2.65-2.38a1.16,1.16,0,0,1,.94.44,1.93,1.93,0,0,1,.35,1.22A9.74,9.74,0,0,1,426,85.86Zm26.47-4.63c.56-.94,1.15-1.4,1.76-1.4s1,.44,1,1.34q0,2.72-3.58,3.72A7.08,7.08,0,0,1,452.43,81.23Z"/><path class="cls-2" d="M659,218.56a3.28,3.28,0,0,0,1.2-.41c.57-.27.86-.51.86-.72s-.13-.35-.39-.47a1.46,1.46,0,0,1-1-1.47,3.82,3.82,0,0,1,1.82-3,6.61,6.61,0,0,1,4.06-1.37,3.45,3.45,0,0,1,2.36.76,2.59,2.59,0,0,1,.87,2.05,4.9,4.9,0,0,1-1.26,3.09,3.3,3.3,0,0,0-.54.83c0,.13.12.29.36.45a1.16,1.16,0,0,0,.65.25,2.84,2.84,0,0,0,1.82-1.09,4,4,0,0,0,1.06-2.9,3.84,3.84,0,0,0-1.43-3.12,5.82,5.82,0,0,0-3.84-1.18,8.5,8.5,0,0,0-5.73,2,5.58,5.58,0,0,0-2.31,4.14,2.61,2.61,0,0,0,.45,1.48A1.24,1.24,0,0,0,659,218.56Z"/><path class="cls-2" d="M656.21,226.14a3.69,3.69,0,0,0,2.36.72,6.83,6.83,0,0,0,3.76-1.1,6.56,6.56,0,0,0,2.5-2.72,14.45,14.45,0,0,0,1.16-4.48,19.93,19.93,0,0,1,.7-3.74,4,4,0,0,1,1.09-1.57c-.25-.36-.46-.54-.66-.54a4.11,4.11,0,0,0-1.48.55,4.91,4.91,0,0,0-1.87,1.89,12.33,12.33,0,0,0-1.19,4.54,12.86,12.86,0,0,1-1.28,4.74,2.52,2.52,0,0,1-2.17,1.51c-.76,0-1.14-.45-1.14-1.36a7.72,7.72,0,0,1,.11-.87c.07-.49.1-.77.1-.85a.42.42,0,0,0-.13-.31.44.44,0,0,0-.33-.13,2.93,2.93,0,0,0-1.1.46,5.39,5.39,0,0,0-1.08.72,1,1,0,0,0-.26.69A2.25,2.25,0,0,0,656.21,226.14Z"/><path class="cls-2" d="M669.22,223.6a3.75,3.75,0,0,0,.7,2.31,2.09,2.09,0,0,0,1.71,1,3.16,3.16,0,0,0,2-.78,12,12,0,0,0,2.11-2.42c-.07,2.13.5,3.2,1.7,3.2a2.76,2.76,0,0,0,1.51-.53,23.3,23.3,0,0,0,2.51-2.17,3.54,3.54,0,0,0,.59,1.87,1.91,1.91,0,0,0,1.6.83,3.74,3.74,0,0,0,2-.68,16.76,16.76,0,0,0,2.37-2v.07a3.35,3.35,0,0,0,.5,1.88,1.47,1.47,0,0,0,1.24.75c.88,0,2.22-.94,4-2.81v0a3.29,3.29,0,0,0,3.4,2.81,5,5,0,0,0,2.55-.68,14,14,0,0,0,2.51-2c0,.14,0,.28,0,.43,0,.5,0,1.27.12,2.3l2.53-.6c0-.68,0-1.23,0-1.63a14.41,14.41,0,0,1,.23-1.79,2.26,2.26,0,0,1,.52-1.08l.64-.75.66-.73c.24-.25.45-.46.64-.64a5,5,0,0,1,.57-.44.82.82,0,0,1,.42-.16c.19,0,.28.12.28.36a6.89,6.89,0,0,1-.53,1.72,11.41,11.41,0,0,0-1,3.74,2.13,2.13,0,0,0,.47,1.44,1.54,1.54,0,0,0,1.23.54c1.24,0,2.71-.9,4.43-2.69A3.37,3.37,0,0,0,714,226a1.9,1.9,0,0,0,1.59.83,3.77,3.77,0,0,0,2-.68,17.06,17.06,0,0,0,2.49-2.11v-1.32a10.94,10.94,0,0,1-1.68,1.55,2.12,2.12,0,0,1-1.16.37.83.83,0,0,1-.69-.34,1.33,1.33,0,0,1-.27-.87,8.07,8.07,0,0,1,.39-2.13l.77-2.56,1.77-.14.38-1.76L718,217l1.18-4-3.05.62-1.07,3.57-1.09,0-.37,1.79.88,0-.49,1.73a15.66,15.66,0,0,0-.48,2.07c-1.23,1.45-2.13,2.18-2.68,2.18-.38,0-.56-.23-.56-.69A8.43,8.43,0,0,1,711,222a11.57,11.57,0,0,0,1-3.62,1.59,1.59,0,0,0-.39-1.1,1.24,1.24,0,0,0-1-.44,3.43,3.43,0,0,0-2,.81,21.49,21.49,0,0,0-3,2.9,25.89,25.89,0,0,1,1.16-3.73l-2.79.54a21.33,21.33,0,0,0-1.38,3.7,12.82,12.82,0,0,0-.32,1.66,12.24,12.24,0,0,1-2.07,1.8,2.76,2.76,0,0,1-1.44.41c-1.29,0-2.08-.75-2.39-2.23,3.36-1,5-2.27,5-3.85a1.81,1.81,0,0,0-.64-1.44,2.53,2.53,0,0,0-1.7-.55,4.89,4.89,0,0,0-3.73,2,6.6,6.6,0,0,0-1.64,3.92,10.54,10.54,0,0,1-1.39,1.38,1.52,1.52,0,0,1-.9.33.49.49,0,0,1-.42-.24,1,1,0,0,1-.16-.61,12.21,12.21,0,0,1,.7-3.17l1.15-3.58h-.14l-2.9.61a26.92,26.92,0,0,0-1.53,5.28v0a10.94,10.94,0,0,1-1.68,1.55,2.09,2.09,0,0,1-1.16.37.83.83,0,0,1-.69-.34,1.33,1.33,0,0,1-.27-.87,7.76,7.76,0,0,1,.4-2.13l.76-2.56,1.77-.14.38-1.76L686,217l1.18-4-3.06.62-1.07,3.57-1.09,0-.36,1.79.87,0-.48,1.73a15.74,15.74,0,0,0-.49,2.06c-.63.64-1.13,1.11-1.48,1.43a1.6,1.6,0,0,1-1,.47c-.47,0-.7-.33-.7-1a14.5,14.5,0,0,1,.78-3.47l1-3.35h-.64l-2.34,1.29a2,2,0,0,0-2-1.31,5,5,0,0,0-2.61,1,7.78,7.78,0,0,0-2.42,2.52A6.16,6.16,0,0,0,669.22,223.6ZM697,219c.45-.77.94-1.15,1.44-1.15s.8.37.8,1.1c0,1.48-1,2.49-2.93,3A5.75,5.75,0,0,1,697,219Zm-23.86.77c.68-1.3,1.4-1.94,2.16-1.94a.93.93,0,0,1,.77.36,1.57,1.57,0,0,1,.29,1,7.81,7.81,0,0,1-1,3.59c-.67,1.3-1.39,1.95-2.15,1.95a.91.91,0,0,1-.77-.38,1.51,1.51,0,0,1-.31-1A7.71,7.71,0,0,1,673.15,219.73Z"/><path class="cls-2" d="M693.53,212.42a2,2,0,0,1-1.22.45,3,3,0,0,1-1.45-.56,8.49,8.49,0,0,1-1,2.26,2.47,2.47,0,0,0,1.68.6C692.86,215.17,693.53,214.25,693.53,212.42Z"/><path class="cls-2" d="M720.42,216.83l.16.69a8.78,8.78,0,0,0,3.41-2,3.68,3.68,0,0,0,1.16-2.62,3,3,0,0,0-1.83-2.7,16.21,16.21,0,0,1-1.45,1.71c-.27.29-.4.47-.4.54s.12.17.35.24a1.48,1.48,0,0,1,1.17,1.43,1.79,1.79,0,0,1-.63,1.38A11.11,11.11,0,0,1,720.42,216.83Z"/><path class="cls-2" d="M722.67,224.07h.26a30.57,30.57,0,0,0,3.36-4.38,8.7,8.7,0,0,0,1,2,3.91,3.91,0,0,1,.78,1.92,2,2,0,0,1-.61,1.39,1.82,1.82,0,0,1-1.31.65c-.47,0-.79-.32-1-.94s-.41-.94-.66-.94-.48.25-.9.77-.64.85-.64,1,.21.6.64.88a2.61,2.61,0,0,0,1.42.41,5,5,0,0,0,3.47-1.63,4.69,4.69,0,0,0,1.67-3.37,3.47,3.47,0,0,0-.68-1.91,3.32,3.32,0,0,1-.69-1.62,2.9,2.9,0,0,1,.19-1,.79.79,0,0,0,.09-.35c0-.06,0-.1-.12-.1s-.42.05-1,.14-1.06.2-1.59.33a17,17,0,0,1-3.77,5.68Z"/><path class="cls-2" d="M673.56,240.71a1.62,1.62,0,0,0,1-.36,1.26,1.26,0,0,0,.24-.87c0-.72-.31-1.08-.94-1.08a2.44,2.44,0,0,0-2,1.3,14.13,14.13,0,0,0-1.5,4.72,43.75,43.75,0,0,1-1.87,7.12q-.15-1.72-.91-5.91a37.86,37.86,0,0,1-.75-6.67,1.06,1.06,0,0,0-.08-.48.4.4,0,0,0-.34-.12,2.51,2.51,0,0,0-.4,0l-1.2.16a2,2,0,0,0-.6.15,1,1,0,0,0-.25.43l-.36,1.08q-.59,1.68-1.56,5.43l-.34,1.39q-1.65,6.5-3.36,6.49a.92.92,0,0,1-.75-.4,2.39,2.39,0,0,1-.4-1.21c-.06-.53-.22-.8-.46-.8s-.6.25-1.14.75-.81.87-.81,1.11a2,2,0,0,0,.67,1.29,2.37,2.37,0,0,0,1.77.69,3.16,3.16,0,0,0,2.18-.83,6.46,6.46,0,0,0,1.49-2.07,15.69,15.69,0,0,0,.91-2.31c.22-.72.62-2.14,1.21-4.28s.9-3.21.95-3.24a43.77,43.77,0,0,0,.77,5.71c.38,1.88.6,3,.66,3.46s.12,1.06.17,1.91.08,1.35.11,1.48.19.19.48.17l1.23-.15a1.51,1.51,0,0,0,.57-.12,3.54,3.54,0,0,0,.49-.79,18.45,18.45,0,0,0,.94-2.19,26.4,26.4,0,0,0,1-3.45l.83-3.81a7.77,7.77,0,0,1,1.08-2.93A2.06,2.06,0,0,1,673.56,240.71Z"/><path class="cls-2" d="M731.86,252.54a1.85,1.85,0,0,1-1,.44c-.44,0-.66-.23-.66-.7l.07-1a1.5,1.5,0,0,0-1.33-1.57q3.42-.9,3.42-2.79a1.7,1.7,0,0,0-.68-1.38,2.7,2.7,0,0,0-1.74-.54,6,6,0,0,0-1.61.28,19.28,19.28,0,0,0,2.09-2.91,4.59,4.59,0,0,0,.68-2.22,2.6,2.6,0,0,0-.27-1.16c-.17-.36-.35-.55-.53-.55a10.58,10.58,0,0,0-1.33.38c-.79.24-1.73.59-2.82,1a25.06,25.06,0,0,0-3,6.42,21.6,21.6,0,0,0-.85,4.64c-.86.82-1.41,1.33-1.66,1.51a1.27,1.27,0,0,1-.79.28.72.72,0,0,1-.6-.28,1.21,1.21,0,0,1-.22-.77,4.29,4.29,0,0,1,.19-1.18c.13-.45.42-1.29.86-2.52l1.06-2.93-1,.05c-.94,1.79-2,2.76-3.31,2.9a6.34,6.34,0,0,0,.51-2.06.8.8,0,0,0-.89-.91,1.84,1.84,0,0,0-1.65,1,3.66,3.66,0,0,0-.6,1.88,1.38,1.38,0,0,0,1,1.29,15.11,15.11,0,0,1-1.46,1.82c-.75.81-1.37,1.22-1.86,1.22a1.83,1.83,0,0,1-1.22-.53,15.53,15.53,0,0,0,1.17-5.25,2.1,2.1,0,0,0-.11-.72,1,1,0,0,0-.55-.5,3.59,3.59,0,0,0-1.42-.21,6,6,0,0,0-4.43,1.87,6.15,6.15,0,0,0-1.84,4.11,3,3,0,0,1-1.81,1.14,1.74,1.74,0,0,1-1.21-.54,10.77,10.77,0,0,0,1.86-5.46c0-.75-.24-1.12-.74-1.12a2.37,2.37,0,0,0-1.93,1.32,5.45,5.45,0,0,0-.86,3,4.66,4.66,0,0,0,.61,2.3,7.74,7.74,0,0,1-1.22,1.35,1.76,1.76,0,0,1-1.14.45,1,1,0,0,1-.79-.4,1.77,1.77,0,0,1-.3-1.08,10.63,10.63,0,0,1,.62-3l1.28-4-3.06.56-.94,2.76a11.82,11.82,0,0,0-.65,3.73c-.61.95-1.22,1.42-1.83,1.42a.85.85,0,0,1-.72-.38,1.55,1.55,0,0,1-.29-1,18.35,18.35,0,0,1,1.07-4.57l.85-2.55-3,.56c-.55,1.43-1,2.64-1.24,3.63a11.92,11.92,0,0,0-.32,1.73,10.72,10.72,0,0,1-1.64,1.5,2.11,2.11,0,0,1-1.16.38.86.86,0,0,1-.69-.34,1.38,1.38,0,0,1-.27-.88,7.76,7.76,0,0,1,.4-2.12l.76-2.56,1.77-.14.38-1.76-1.61.09,1.18-4-3.06.63-1.07,3.57-1.09,0-.36,1.8.87,0-.48,1.73a15.74,15.74,0,0,0-.49,2.06,12.18,12.18,0,0,1-2.06,1.79,2.75,2.75,0,0,1-1.44.4c-1.28,0-2.08-.74-2.39-2.23q5-1.47,5-3.84a1.82,1.82,0,0,0-.64-1.44,2.53,2.53,0,0,0-1.71-.55,4.87,4.87,0,0,0-3.73,2,6.58,6.58,0,0,0-1.68,4.39,3.63,3.63,0,0,0,1,2.62,3.31,3.31,0,0,0,2.51,1,5,5,0,0,0,2.55-.68,14.36,14.36,0,0,0,2.51-2,3.38,3.38,0,0,0,.59,1.87,1.91,1.91,0,0,0,1.6.83,3.74,3.74,0,0,0,2-.68,16.11,16.11,0,0,0,2.38-2,3,3,0,0,0,.65,1.92A2.28,2.28,0,0,0,690,255a4.36,4.36,0,0,0,3.3-1.78,2.41,2.41,0,0,0,2.32,1.78q2.22,0,4.29-2.58a2.66,2.66,0,0,0,1.64.64,2.84,2.84,0,0,0,.85-.2,1.07,1.07,0,1,1,1.79,1.15,2.67,2.67,0,0,0,2.15,1q2.13,0,3.77-2.49a2.7,2.7,0,0,0,1.64.64,2.66,2.66,0,0,0,.87-.21,4,4,0,0,0,1.13-.73h0a13,13,0,0,0,2.33-2.95,6.35,6.35,0,0,0,1.86-.61,8.86,8.86,0,0,0-1.73,4.33,2.2,2.2,0,0,0,.48,1.45,1.44,1.44,0,0,0,1.18.59q1.53,0,4.33-2.72c0,.18,0,.36,0,.54a12.8,12.8,0,0,0,.15,2.13l2.59-.44c0-.69,0-1.31,0-1.86s.09-1.23.18-1.92a8.08,8.08,0,0,1,.46-2.26c.23-.3.45-.56.65-.79a7.91,7.91,0,0,1,.58-.58,4.2,4.2,0,0,1,.55-.38,2,2,0,0,1,.53-.2,1.9,1.9,0,0,1,.54-.07,1.28,1.28,0,0,1,.87.3,1,1,0,0,1,.34.77,1.42,1.42,0,0,1-.62,1.15,3.1,3.1,0,0,1-1.88.52.94.94,0,0,0-.62.16.71.71,0,0,0-.17.54c0,.3.2.45.6.46s.59.2.59.55a8.37,8.37,0,0,1-.14.9,7.94,7.94,0,0,0-.13,1.2,2,2,0,0,0,.56,1.43,1.85,1.85,0,0,0,1.38.57c1.15,0,2.58-.94,4.31-2.83v-1.32A12.12,12.12,0,0,1,731.86,252.54Zm-56.14-5.48c.46-.76.94-1.15,1.44-1.15s.8.37.8,1.1c0,1.48-1,2.5-2.93,3A5.78,5.78,0,0,1,675.72,247.06Zm33.71,4.78c-.63,1-1.22,1.5-1.76,1.5a1.15,1.15,0,0,1-1-.64,3.73,3.73,0,0,1-.36-1.8,7.55,7.55,0,0,1,.84-3.64,2.57,2.57,0,0,1,2.33-1.55,1.3,1.3,0,0,1,.49.07,4,4,0,0,0-1.59,3.15A4.61,4.61,0,0,0,709.43,251.84Zm17.32-6-.76.84a25.14,25.14,0,0,1,1.86-5.2c.61-1.11,1.16-1.67,1.63-1.67s.62.24.62.71Q730.1,242,726.75,245.8Z"/><path class="cls-2" d="M617.75,503.8a2,2,0,0,1-1.22.45,3,3,0,0,1-1.45-.56,8.49,8.49,0,0,1-1,2.26,2.47,2.47,0,0,0,1.68.6C617.08,506.55,617.75,505.63,617.75,503.8Z"/><path class="cls-2" d="M644.18,516a2.43,2.43,0,0,1-1.31.45,1.12,1.12,0,0,1-1-.59,3,3,0,0,1-.36-1.57c0-.3,0-.85.09-1.64A20.16,20.16,0,0,0,645,508a10,10,0,0,0,1.08-4.51,3.35,3.35,0,0,0-.21-1.31c-.15-.33-.33-.49-.55-.49l-.2.05-2.91,1.07a37.35,37.35,0,0,0-2.53,6.2,21.09,21.09,0,0,0-1,5.26c-.6.59-1.07,1-1.41,1.35a1.6,1.6,0,0,1-1,.47c-.47,0-.7-.33-.7-1a14.5,14.5,0,0,1,.78-3.47l1-3.35h-.64l-2.34,1.29a2,2,0,0,0-2-1.31,5,5,0,0,0-2.61,1,7.85,7.85,0,0,0-2.42,2.51,6.37,6.37,0,0,0-.89,2.51,10.69,10.69,0,0,1-1.77,1.55,3.2,3.2,0,0,1-1.75.53,2.1,2.1,0,0,1-1.73-.81,3.34,3.34,0,0,1-.66-2.17,5.69,5.69,0,0,1,.69-2.82c.47-.82,1-1.23,1.53-1.23a.65.65,0,0,1,.57.31,1.39,1.39,0,0,1,.21.81,6,6,0,0,1-.07.62c0,.34-.07.54-.07.6s.05.23.16.23a1.05,1.05,0,0,0,.36-.11l1.32-.63a1.44,1.44,0,0,0,.46-.32.81.81,0,0,0,.11-.48,1.84,1.84,0,0,0-.64-1.47,2.36,2.36,0,0,0-1.65-.57,5.08,5.08,0,0,0-3.85,2.07,6.79,6.79,0,0,0-1.72,3.84,10.54,10.54,0,0,1-1.39,1.38,1.52,1.52,0,0,1-.9.33.49.49,0,0,1-.42-.24,1,1,0,0,1-.16-.61,11.93,11.93,0,0,1,.71-3.17l1.14-3.58h-.14l-2.9.61a25.94,25.94,0,0,0-1.52,5.28v0c-1.12,1.26-1.93,1.9-2.41,1.9a.55.55,0,0,1-.48-.27,1.18,1.18,0,0,1-.18-.69q0-1.86,2.28-10.82.57-2.24.57-2.37c0-.12-.07-.18-.23-.18a14.3,14.3,0,0,0-2.7.47L607.59,509a3.16,3.16,0,0,0-.74-.59,2.18,2.18,0,0,0-.93-.17,5.29,5.29,0,0,0-4,2.18,7.34,7.34,0,0,0-1.77,3.71,12.54,12.54,0,0,1-2.07,1.79,2.76,2.76,0,0,1-1.44.41c-1.29,0-2.08-.75-2.39-2.23,3.36-1,5-2.27,5-3.85a1.81,1.81,0,0,0-.64-1.44,2.53,2.53,0,0,0-1.7-.55,4.89,4.89,0,0,0-3.73,2,6.63,6.63,0,0,0-1.64,3.94c-1,1.26-1.93,1.89-2.68,1.89-.94,0-1.41-.76-1.41-2.3a27.56,27.56,0,0,1,.78-5.46,30.13,30.13,0,0,1,1.66-5.44,3.88,3.88,0,0,0,.38-1.08c0-.11-.11-.17-.31-.17a10.74,10.74,0,0,0-2,.23,3.53,3.53,0,0,0-1.28,1,12.65,12.65,0,0,0-1.57,2,38.74,38.74,0,0,0-3,6.47,16.89,16.89,0,0,1-1.76,3.77,25.35,25.35,0,0,0,.64-6.46l0-3.06a21.68,21.68,0,0,1,.21-3.22,3.27,3.27,0,0,0,.07-.51c0-.18-.07-.26-.23-.26a11.27,11.27,0,0,0-1.16.06,2.71,2.71,0,0,0-.8.16,6.94,6.94,0,0,0-1.14,1.54,11.26,11.26,0,0,0-1,2,21.77,21.77,0,0,0-.79,2.7l-.33,1.38a20.25,20.25,0,0,1-2,5.46q-1.07,1.77-2,1.77a.92.92,0,0,1-.65-.24,1.83,1.83,0,0,1-.39-1,5.38,5.38,0,0,0-.2-1,.35.35,0,0,0-.33-.17c-.15,0-.49.24-1,.71a1.9,1.9,0,0,0-.83,1.28,1.68,1.68,0,0,0,.69,1.32,2.42,2.42,0,0,0,1.59.57,4.24,4.24,0,0,0,3-1.63q1.51-1.64,2.7-6.28l.29-1.12c.74-3,1.48-4.88,2.2-5.7a18.55,18.55,0,0,0-1.08,6.32c0,2.46-.12,4.2-.23,5.23a21.84,21.84,0,0,1-.3,2.23c-.11.47-.16.71-.16.72s.14.23.43.23A4,4,0,0,0,579,518a3.15,3.15,0,0,0,1-.89,13.18,13.18,0,0,0,1.19-1.79,41.88,41.88,0,0,0,1.82-4.13c.8-2,1.5-3.59,2.07-4.72a13.39,13.39,0,0,1,2.23-3.1l-.66,1.19a19,19,0,0,0-1.7,4.71,20.26,20.26,0,0,0-.65,4.4A7,7,0,0,0,585,517a2.11,2.11,0,0,0,2,1.24q2.12,0,4.66-2.75a3.35,3.35,0,0,0,.89,1.79,3.31,3.31,0,0,0,2.51,1,4.87,4.87,0,0,0,2.55-.68,13.76,13.76,0,0,0,2.54-2,3.27,3.27,0,0,0,.71,1.8,2.16,2.16,0,0,0,1.72.92,3.61,3.61,0,0,0,2-.78,8.1,8.1,0,0,0,2-2.31,4.63,4.63,0,0,0,.48,2.31,1.46,1.46,0,0,0,1.29.78,2.91,2.91,0,0,0,1.53-.57,19.12,19.12,0,0,0,2.38-2.1v.07a3.35,3.35,0,0,0,.5,1.88,1.47,1.47,0,0,0,1.24.75q1.32,0,4-2.78a3.15,3.15,0,0,0,.91,1.79,3.32,3.32,0,0,0,2.45,1,5.16,5.16,0,0,0,2.54-.67,12.51,12.51,0,0,0,2.59-2,3.45,3.45,0,0,0,.66,1.75,2.07,2.07,0,0,0,1.71.94,3.15,3.15,0,0,0,2-.77,12.3,12.3,0,0,0,2.11-2.42c-.07,2.13.5,3.19,1.7,3.19a2.75,2.75,0,0,0,1.51-.52,23.88,23.88,0,0,0,2.54-2.2,3.61,3.61,0,0,0,.7,1.77,2.38,2.38,0,0,0,2,1,4.41,4.41,0,0,0,2.23-.68,16.07,16.07,0,0,0,2.73-2.11v-1.31A15.11,15.11,0,0,1,644.18,516Zm-.67-10.9c.54-1.41,1-2.11,1.23-2.11s.24.08.32.26a1.44,1.44,0,0,1,.13.68,8.52,8.52,0,0,1-.91,3.44,13.66,13.66,0,0,1-2.35,3.62A39.41,39.41,0,0,1,643.51,505.08Zm-48.66,5.26c.45-.77.93-1.15,1.44-1.15s.8.36.8,1.1c0,1.48-1,2.49-2.93,3A5.73,5.73,0,0,1,594.85,510.34Zm11.34,3.81c-.65,1.27-1.34,1.9-2.09,1.9a1,1,0,0,1-.8-.37,1.56,1.56,0,0,1-.29-1,8.09,8.09,0,0,1,1-3.59c.66-1.32,1.35-2,2.06-2a.94.94,0,0,1,.79.4,1.77,1.77,0,0,1,.3,1.08A7.8,7.8,0,0,1,606.19,514.15Zm26.34,0c-.67,1.3-1.39,2-2.15,2a.92.92,0,0,1-.77-.38,1.53,1.53,0,0,1-.31-1,7.71,7.71,0,0,1,1-3.58c.68-1.3,1.4-1.94,2.16-1.94a.93.93,0,0,1,.77.36,1.57,1.57,0,0,1,.29,1A7.85,7.85,0,0,1,632.53,514.12Z"/><path class="cls-2" d="M593.22,534a2.74,2.74,0,0,0-1.5.61,3.15,3.15,0,0,0-1.2,1.46,10.1,10.1,0,0,0-.33,3.11,13.18,13.18,0,0,1-.36,3.43,4.07,4.07,0,0,1-1.33,2,3.45,3.45,0,0,1-2.3.84,1.86,1.86,0,0,1-1.3-.44,2.67,2.67,0,0,1-.49-1.93c0-.61-.16-.92-.49-.92a2.22,2.22,0,0,0-1.18.69c-.53.46-.79.83-.79,1.12a2.14,2.14,0,0,0,1.06,1.56,4.71,4.71,0,0,0,2.92.81,7,7,0,0,0,1.59-.18,8.32,8.32,0,0,0,1.64-.55,7.7,7.7,0,0,0,1.53-1,6.61,6.61,0,0,0,1.29-1.45,7.21,7.21,0,0,0,.93-2,10,10,0,0,0,.42-2.55l.06-2.82.27-1.52C593.66,534.11,593.51,534,593.22,534Z"/><path class="cls-2" d="M590,531.85a10,10,0,0,1,3,.56,10.2,10.2,0,0,0,2.36.55c1.18,0,1.87-.82,2.1-2.46l-.24-.07-.07,0a.71.71,0,0,1-.47.17,7.19,7.19,0,0,1-1.55-.42,8,8,0,0,0-2.61-.42,7.8,7.8,0,0,0-3.92,1.06,8.9,8.9,0,0,0-3,2.73,5.59,5.59,0,0,0-1.16,3.09A2.19,2.19,0,0,0,585,538a1.28,1.28,0,0,0,1,.62,1.79,1.79,0,0,0,.95-.53c.42-.35.63-.63.63-.83s-.14-.33-.44-.52a1.92,1.92,0,0,1-1.1-1.57,3.35,3.35,0,0,1,1.2-2.12A3.82,3.82,0,0,1,590,531.85Z"/><path class="cls-2" d="M630.83,544.05a1.64,1.64,0,0,1-.83.39c-.31,0-.47-.21-.47-.64a10.51,10.51,0,0,1,.67-2.54,10,10,0,0,0,.68-3.14,2,2,0,0,0-.4-1.28,1.26,1.26,0,0,0-1-.51,2.77,2.77,0,0,0-1.55.59,26.35,26.35,0,0,0-2.78,2.52,13.14,13.14,0,0,0,.12-1.35,2.08,2.08,0,0,0-.37-1.27,1.15,1.15,0,0,0-1-.49c-1.09,0-2.66,1.2-4.71,3.58a25.72,25.72,0,0,1,1.15-3.6l-2.76.54a22.75,22.75,0,0,0-1.42,3.62,10.16,10.16,0,0,0-.34,1.79c-.63.63-1.13,1.11-1.48,1.42a1.57,1.57,0,0,1-1,.48c-.47,0-.7-.33-.7-1a14.45,14.45,0,0,1,.78-3.46l1-3.35h-.64l-2.34,1.29a2,2,0,0,0-2-1.32,5,5,0,0,0-2.61,1,7.78,7.78,0,0,0-2.42,2.52,6.27,6.27,0,0,0-.89,2.51,12,12,0,0,1-2,1.71,2.73,2.73,0,0,1-1.45.41c-1.28,0-2.08-.74-2.39-2.23q5-1.47,5-3.84a1.81,1.81,0,0,0-.64-1.44,2.53,2.53,0,0,0-1.71-.55,4.87,4.87,0,0,0-3.73,2,6.58,6.58,0,0,0-1.68,4.39,3.59,3.59,0,0,0,1,2.61,3.28,3.28,0,0,0,2.51,1,5,5,0,0,0,2.55-.68,13.91,13.91,0,0,0,2.51-2,3.52,3.52,0,0,0,.66,1.76,2.07,2.07,0,0,0,1.71.94,3.16,3.16,0,0,0,2-.78,12.19,12.19,0,0,0,2.11-2.41c-.07,2.13.5,3.19,1.7,3.19a2.76,2.76,0,0,0,1.51-.53,22.86,22.86,0,0,0,2.51-2.16c0,.16,0,.3,0,.46q0,.89.09,2.19l2.54-.6q0-1,.09-1.74c0-.52.13-1.1.26-1.76a2.84,2.84,0,0,1,.68-1.44c.27-.31.53-.58.78-.84l.66-.63c.19-.16.37-.31.54-.43a2.3,2.3,0,0,1,.39-.24.57.57,0,0,1,.23-.08c.17,0,.26.13.26.39s-.06.52-.17,1.19-.21,1.16-.3,1.51l-1.11,4.71,2.9-.53.69-2.69.38-1.64a2.58,2.58,0,0,1,.6-1c.19-.23.39-.45.59-.65a6.4,6.4,0,0,1,.53-.52,3.12,3.12,0,0,1,.47-.39,2.4,2.4,0,0,1,.38-.23.71.71,0,0,1,.28-.08c.25,0,.38.12.38.36a12,12,0,0,1-.62,2.31,10.68,10.68,0,0,0-.62,3.14,2.11,2.11,0,0,0,.44,1.4,1.48,1.48,0,0,0,1.2.52,3.49,3.49,0,0,0,2-.7,19.43,19.43,0,0,0,2.44-2.09v-1.32A18.67,18.67,0,0,1,630.83,544.05Zm-32.5-5.61c.46-.76.94-1.15,1.44-1.15s.8.37.8,1.1c0,1.48-1,2.49-2.93,3A5.78,5.78,0,0,1,598.33,538.44Zm11.3,3.79c-.67,1.3-1.39,1.95-2.15,1.95a.92.92,0,0,1-.77-.39,1.5,1.5,0,0,1-.31-1,7.71,7.71,0,0,1,1-3.58c.68-1.29,1.4-1.94,2.16-1.94a.93.93,0,0,1,.77.36,1.57,1.57,0,0,1,.29,1A7.85,7.85,0,0,1,609.63,542.23Z"/><path class="cls-2" d="M167.93,188.65a2.16,2.16,0,0,1,1.65.74,3.33,3.33,0,0,1,.81,1.93c0,.39.13.61.28.68h.21a6.31,6.31,0,0,0,1.48-2.2c0-.34-.38-.77-1.12-1.29a4.82,4.82,0,0,0-2.8-.77,4.55,4.55,0,0,0-3.55,1.49,4.79,4.79,0,0,0-1.34,3.26,5,5,0,0,0,.5,2.09,10,10,0,0,0,2.13,2.63,11.55,11.55,0,0,1,2,2.19,2.51,2.51,0,0,1,.35,1.22,2.59,2.59,0,0,1-.9,1.95,3,3,0,0,1-2.12.84,2.47,2.47,0,0,1-1.8-.68,3.93,3.93,0,0,1-.86-2.45,1.77,1.77,0,0,0-.21-.79.6.6,0,0,0-.52-.21,4.51,4.51,0,0,0-.8,1.17,4.36,4.36,0,0,0-.7,1.48c0,.38.42.88,1.27,1.48a5.38,5.38,0,0,0,3.22.91,6.06,6.06,0,0,0,4.14-1.55,4.63,4.63,0,0,0,1.77-3.58,4.12,4.12,0,0,0-.5-1.86,11.13,11.13,0,0,0-2.22-2.63,12.32,12.32,0,0,1-2.14-2.41,2.94,2.94,0,0,1-.42-1.42,2.14,2.14,0,0,1,.66-1.57A2.09,2.09,0,0,1,167.93,188.65Z"/><path class="cls-2" d="M187.54,189.87a2,2,0,0,1-1.22.44,2.93,2.93,0,0,1-1.45-.56,8.56,8.56,0,0,1-1,2.27,2.46,2.46,0,0,0,1.68.59C186.87,192.61,187.54,191.7,187.54,189.87Z"/><path class="cls-2" d="M219.52,189.87a2,2,0,0,1-1.23.44,3,3,0,0,1-1.45-.56,8.25,8.25,0,0,1-1,2.27,2.5,2.5,0,0,0,1.68.59C218.84,192.61,219.52,191.7,219.52,189.87Z"/><path class="cls-2" d="M225.66,195.79a3.07,3.07,0,0,1,.18-1,.83.83,0,0,0,.09-.36c0-.06,0-.09-.11-.09a8.49,8.49,0,0,0-1,.13c-.54.09-1.07.2-1.59.34a16.72,16.72,0,0,1-3.52,5.39h0a11.6,11.6,0,0,1-1.43,1.41,1.57,1.57,0,0,1-.9.32.48.48,0,0,1-.41-.23,1,1,0,0,1-.17-.61,12.27,12.27,0,0,1,.71-3.17l1.14-3.58h-.13l-2.91.61a26.54,26.54,0,0,0-1.52,5.27v0a10.73,10.73,0,0,1-1.68,1.54,2.11,2.11,0,0,1-1.16.38.86.86,0,0,1-.69-.34,1.38,1.38,0,0,1-.27-.88,7.76,7.76,0,0,1,.4-2.12l.76-2.56,1.77-.14.38-1.76-1.62.09,1.19-4-3.06.63-1.07,3.57-1.09,0-.37,1.8.88-.05-.48,1.73a14.69,14.69,0,0,0-.49,2.07c-1.23,1.45-2.13,2.18-2.68,2.18-.37,0-.56-.23-.56-.69a8.43,8.43,0,0,1,.67-2.24,11.62,11.62,0,0,0,1-3.61,1.59,1.59,0,0,0-.39-1.1,1.22,1.22,0,0,0-1-.44,3.5,3.5,0,0,0-2,.8,22.11,22.11,0,0,0-3,2.9,27.67,27.67,0,0,1,1.16-3.73l-2.79.54a22.26,22.26,0,0,0-1.38,3.71,12.49,12.49,0,0,0-.31,1.66,13.09,13.09,0,0,1-2.07,1.8,2.81,2.81,0,0,1-1.45.4c-1.28,0-2.08-.74-2.39-2.23q5-1.47,5-3.84a1.82,1.82,0,0,0-.64-1.44,2.53,2.53,0,0,0-1.71-.55,4.87,4.87,0,0,0-3.73,2,6.61,6.61,0,0,0-1.64,3.93,12,12,0,0,1-1.39,1.38,1.57,1.57,0,0,1-.9.32.48.48,0,0,1-.42-.23,1,1,0,0,1-.16-.61,11.85,11.85,0,0,1,.71-3.17l1.14-3.58h-.14l-2.9.61a26.16,26.16,0,0,0-1.53,5.34v-.09a11.07,11.07,0,0,1-1.86,1.62,3.13,3.13,0,0,1-1.75.54,2.11,2.11,0,0,1-1.74-.82,3.38,3.38,0,0,1-.65-2.17,5.65,5.65,0,0,1,.69-2.81c.47-.82,1-1.24,1.53-1.24a.67.67,0,0,1,.57.31,1.43,1.43,0,0,1,.21.81,5.77,5.77,0,0,1-.07.63c-.05.34-.07.54-.07.6s.05.23.16.23a.92.92,0,0,0,.36-.12l1.32-.63a1.13,1.13,0,0,0,.45-.32.77.77,0,0,0,.12-.48,1.87,1.87,0,0,0-.64-1.47,2.42,2.42,0,0,0-1.65-.56,5.1,5.1,0,0,0-3.85,2.06,6.75,6.75,0,0,0-1.78,4.5,3.32,3.32,0,0,0,3.42,3.42,5.16,5.16,0,0,0,2.54-.67,12.81,12.81,0,0,0,2.57-2v.08a3.31,3.31,0,0,0,.5,1.88,1.47,1.47,0,0,0,1.24.75c.88,0,2.22-.93,4-2.81v0a3.37,3.37,0,0,0,.89,1.82,3.31,3.31,0,0,0,2.51,1,5,5,0,0,0,2.55-.68,14.4,14.4,0,0,0,2.52-2c0,.15,0,.29,0,.43,0,.51,0,1.27.13,2.3l2.52-.59c0-.69,0-1.23,0-1.64a16.43,16.43,0,0,1,.23-1.78,2.44,2.44,0,0,1,.52-1.09l.64-.74c.24-.27.46-.52.67-.73s.45-.47.64-.64a5.5,5.5,0,0,1,.56-.45.82.82,0,0,1,.42-.16c.19,0,.29.12.29.37a6.74,6.74,0,0,1-.54,1.71,11.54,11.54,0,0,0-1,3.74,2.13,2.13,0,0,0,.47,1.44,1.56,1.56,0,0,0,1.24.54c1.23,0,2.7-.9,4.42-2.68a3.39,3.39,0,0,0,.59,1.85,1.91,1.91,0,0,0,1.6.83,3.74,3.74,0,0,0,2-.68,16,16,0,0,0,2.37-2v.06a3.23,3.23,0,0,0,.5,1.88,1.46,1.46,0,0,0,1.23.75c.89,0,2.22-.93,4-2.81h0a30.2,30.2,0,0,0,3.36-4.38,8.7,8.7,0,0,0,1,2,3.91,3.91,0,0,1,.78,1.92,2,2,0,0,1-.62,1.39,1.78,1.78,0,0,1-1.3.65c-.47,0-.8-.31-1-.94s-.41-.94-.65-.94-.49.26-.91.77a2.41,2.41,0,0,0-.63,1,1.11,1.11,0,0,0,.64.88,2.5,2.5,0,0,0,1.41.41,5,5,0,0,0,3.48-1.62,4.74,4.74,0,0,0,1.67-3.37,3.53,3.53,0,0,0-.68-1.91A3.3,3.3,0,0,1,225.66,195.79ZM191,196.4c.46-.76.94-1.15,1.44-1.15s.8.37.8,1.1c0,1.48-1,2.5-2.93,3A5.78,5.78,0,0,1,191,196.4Z"/><path class="cls-2" d="M242.42,197.42a3.37,3.37,0,0,1-.68-1.63,3.07,3.07,0,0,1,.18-1,.83.83,0,0,0,.09-.36c0-.06,0-.09-.11-.09a8.49,8.49,0,0,0-1,.13c-.54.09-1.07.2-1.59.34a16.87,16.87,0,0,1-3.59,5.46,9.89,9.89,0,0,1-1.61,1.47,2.07,2.07,0,0,1-1.15.38.87.87,0,0,1-.7-.34,1.38,1.38,0,0,1-.27-.88,8.17,8.17,0,0,1,.4-2.12l.76-2.56,1.78-.14.37-1.76-1.61.09,1.18-4-3,.63-1.08,3.57-1.08,0-.37,1.8.88-.05-.49,1.73a11.53,11.53,0,0,0-.58,3.14,3.57,3.57,0,0,0,.61,2.18,1.89,1.89,0,0,0,1.59.83,3.72,3.72,0,0,0,2-.68,16.44,16.44,0,0,0,2.5-2.11h0a30.93,30.93,0,0,0,3.36-4.38,8.7,8.7,0,0,0,1,2,3.91,3.91,0,0,1,.78,1.92,2,2,0,0,1-.62,1.39,1.78,1.78,0,0,1-1.31.65c-.46,0-.79-.31-1-.94s-.41-.94-.65-.94-.49.26-.91.77a2.48,2.48,0,0,0-.64,1c0,.31.22.61.65.88a2.48,2.48,0,0,0,1.41.41,5,5,0,0,0,3.47-1.62,4.72,4.72,0,0,0,1.68-3.37A3.47,3.47,0,0,0,242.42,197.42Z"/><path class="cls-2" d="M269.59,495.7a3.14,3.14,0,0,0,2.18-.84,6.57,6.57,0,0,0,1.49-2.06,15.69,15.69,0,0,0,.91-2.31c.22-.72.62-2.15,1.21-4.28s.9-3.21.95-3.24a43.62,43.62,0,0,0,.77,5.7c.38,1.89.6,3,.66,3.46s.12,1.07.17,1.92.08,1.34.11,1.47.19.19.48.18l1.23-.15a1.44,1.44,0,0,0,.57-.13,3.28,3.28,0,0,0,.49-.79,20,20,0,0,0,.94-2.18,27,27,0,0,0,1-3.46l.83-3.8a7.91,7.91,0,0,1,1.07-2.93,2.06,2.06,0,0,1,1.32-.81,1.62,1.62,0,0,0,1-.36,1.3,1.3,0,0,0,.24-.88c0-.71-.31-1.07-.94-1.07a2.42,2.42,0,0,0-2,1.3,14.14,14.14,0,0,0-1.5,4.71,43.92,43.92,0,0,1-1.87,7.13q-.15-1.74-.91-5.92a37.87,37.87,0,0,1-.75-6.66,1,1,0,0,0-.08-.48.37.37,0,0,0-.34-.13,2.83,2.83,0,0,0-.4.05l-1.2.16a1.53,1.53,0,0,0-.6.15.91.91,0,0,0-.25.43L276,481q-.57,1.69-1.55,5.44l-.35,1.38q-1.63,6.5-3.35,6.5a1,1,0,0,1-.75-.4,2.39,2.39,0,0,1-.4-1.21c-.07-.54-.22-.81-.46-.81s-.6.25-1.14.75-.81.87-.81,1.12a2,2,0,0,0,.67,1.28A2.37,2.37,0,0,0,269.59,495.7Z"/><path class="cls-2" d="M284.42,492.06a4,4,0,0,0,.83,2.64,2.65,2.65,0,0,0,2.14,1q2.13,0,3.78-2.5a2.62,2.62,0,0,0,1.63.64,2.55,2.55,0,0,0,.87-.21,3.76,3.76,0,0,0,1-.65c0,.15,0,.29,0,.44,0,.5,0,1.27.13,2.3l2.52-.6c0-.68,0-1.23,0-1.63a16.59,16.59,0,0,1,.23-1.79,2.26,2.26,0,0,1,.52-1.08l.64-.75.67-.73c.23-.25.45-.46.64-.64a4.2,4.2,0,0,1,.56-.44.82.82,0,0,1,.42-.16c.19,0,.29.12.29.36a6.65,6.65,0,0,1-.54,1.72,11.47,11.47,0,0,0-1,3.74,2.13,2.13,0,0,0,.47,1.44,1.55,1.55,0,0,0,1.24.54q1.88,0,4.52-2.79v-1.32c-1.24,1.47-2.14,2.21-2.7,2.21-.38,0-.56-.23-.56-.69a8.43,8.43,0,0,1,.67-2.24,11.57,11.57,0,0,0,1-3.62,1.65,1.65,0,0,0-.38-1.1,1.26,1.26,0,0,0-1-.44,3.43,3.43,0,0,0-2,.81,21.49,21.49,0,0,0-3,2.9,25.89,25.89,0,0,1,1.16-3.73l-2.79.54a21.33,21.33,0,0,0-1.38,3.7,13,13,0,0,0-.32,1.67c-.79.89-1.44,1.33-2,1.33a1.76,1.76,0,0,1-1.22-.54,15.63,15.63,0,0,0,1.16-5.25,2.12,2.12,0,0,0-.1-.72,1,1,0,0,0-.56-.5,3.55,3.55,0,0,0-1.42-.21,6,6,0,0,0-4.43,1.87A6.16,6.16,0,0,0,284.42,492.06Zm3.79-4.06a2.58,2.58,0,0,1,2.33-1.56,1.5,1.5,0,0,1,.49.07,4,4,0,0,0-1.59,3.16,4.54,4.54,0,0,0,1.08,2.9c-.64,1-1.22,1.5-1.76,1.5a1.11,1.11,0,0,1-1-.64,3.56,3.56,0,0,1-.37-1.79A7.55,7.55,0,0,1,288.21,488Z"/><path class="cls-2" d="M307,492.2a.56.56,0,0,0,.29-.12,1.42,1.42,0,0,1,.91-.3l2.53.1a1.72,1.72,0,0,0,1-.2,3.38,3.38,0,0,0,.65-1.14l.54-1.25c.06-.14,0-.2-.25-.2a.78.78,0,0,0-.39.22,2.26,2.26,0,0,1-1.3.23h-1.89a2.53,2.53,0,0,0-1.17.19,1.64,1.64,0,0,0-.5.74l-.63,1.47C306.71,492.11,306.79,492.2,307,492.2Z"/><path class="cls-2" d="M269.19,509.65a4.07,4.07,0,0,0-1.48.56,4.81,4.81,0,0,0-1.87,1.88,12.3,12.3,0,0,0-1.2,4.55,12.88,12.88,0,0,1-1.27,4.73,2.55,2.55,0,0,1-2.17,1.52c-.77,0-1.15-.46-1.15-1.37,0-.09,0-.38.11-.86s.11-.77.11-.85a.45.45,0,0,0-.14-.32.49.49,0,0,0-.33-.13,3.12,3.12,0,0,0-1.1.46,4.9,4.9,0,0,0-1.07.73.93.93,0,0,0-.27.69,2.26,2.26,0,0,0,.91,1.84,3.72,3.72,0,0,0,2.37.72,6.81,6.81,0,0,0,3.75-1.09A6.74,6.74,0,0,0,266.9,520a14.68,14.68,0,0,0,1.15-4.48,20.82,20.82,0,0,1,.7-3.74,4.09,4.09,0,0,1,1.09-1.57C269.6,509.83,269.38,509.65,269.19,509.65Z"/><path class="cls-2" d="M271.53,508.39a5.87,5.87,0,0,0-3.84-1.17,8.45,8.45,0,0,0-5.73,2,5.55,5.55,0,0,0-2.31,4.14,2.59,2.59,0,0,0,.46,1.48,1.25,1.25,0,0,0,1,.68,3.5,3.5,0,0,0,1.2-.41c.57-.28.86-.52.86-.72s-.13-.36-.39-.47a1.48,1.48,0,0,1-1-1.48,3.79,3.79,0,0,1,1.82-3,6.58,6.58,0,0,1,4.06-1.36,3.42,3.42,0,0,1,2.35.76,2.57,2.57,0,0,1,.87,2.05,4.94,4.94,0,0,1-1.26,3.09,3.15,3.15,0,0,0-.54.82c0,.14.12.29.37.46a1.13,1.13,0,0,0,.64.25,2.88,2.88,0,0,0,1.83-1.09,4,4,0,0,0,1-2.9A3.81,3.81,0,0,0,271.53,508.39Z"/><path class="cls-2" d="M304,509.25a8.56,8.56,0,0,1-1,2.27,2.51,2.51,0,0,0,1.68.59c1.35,0,2-.91,2-2.74a2.08,2.08,0,0,1-1.22.44A2.93,2.93,0,0,1,304,509.25Z"/><path class="cls-2" d="M320.07,516.91a3.25,3.25,0,0,1-.69-1.62,3.07,3.07,0,0,1,.18-1,.89.89,0,0,0,.1-.36q0-.09-.12-.09a8.49,8.49,0,0,0-1,.13c-.53.09-1.06.2-1.59.34a16.85,16.85,0,0,1-3.57,5.45,11,11,0,0,1-1.62,1.48,2.11,2.11,0,0,1-1.16.38.86.86,0,0,1-.69-.34,1.38,1.38,0,0,1-.27-.88,7.76,7.76,0,0,1,.4-2.12l.76-2.57,1.77-.13.38-1.76-1.62.09,1.19-4-3.06.63-1.07,3.56-1.09,0L307,516l.88-.05-.48,1.73a15.74,15.74,0,0,0-.49,2.06,11.59,11.59,0,0,1-1.41,1.4,1.57,1.57,0,0,1-.9.32.51.51,0,0,1-.42-.23,1,1,0,0,1-.16-.61,11.85,11.85,0,0,1,.71-3.17l1.14-3.58h-.14l-2.9.61a26.54,26.54,0,0,0-1.52,5.27v0c-1.25,1.55-2.41,2.33-3.47,2.33a1.79,1.79,0,0,1-1.68-1.2l1-4.78a17.17,17.17,0,0,0,3.2-3.66,6.18,6.18,0,0,0,.84-3.08,3.3,3.3,0,0,0-.28-1.49c-.18-.38-.41-.57-.7-.57l-.86.2c-.54.13-1,.28-1.51.42a1.9,1.9,0,0,0-.88.47,15.26,15.26,0,0,0-.88,1.91,26,26,0,0,0-1.09,3c-.26.91-.59,2.39-1,4.44l-1.92,2v0c-.8.9-1.45,1.34-2,1.34a1.83,1.83,0,0,1-1.23-.53,15.53,15.53,0,0,0,1.17-5.25,2.12,2.12,0,0,0-.1-.72,1,1,0,0,0-.56-.5,3.55,3.55,0,0,0-1.42-.21,6,6,0,0,0-4.43,1.87,6.09,6.09,0,0,0-1.83,4.1c-.82.78-1.36,1.28-1.6,1.45a1.27,1.27,0,0,1-.79.28.72.72,0,0,1-.6-.28,1.21,1.21,0,0,1-.22-.77,4.23,4.23,0,0,1,.19-1.18c.13-.45.42-1.29.86-2.52l1.06-2.93-1,0c-.94,1.8-2.05,2.77-3.31,2.91a6.34,6.34,0,0,0,.51-2.06.79.79,0,0,0-.89-.91,1.84,1.84,0,0,0-1.65,1,3.66,3.66,0,0,0-.6,1.88,1.4,1.4,0,0,0,1,1.29,15.39,15.39,0,0,1-1.61,2v1h.26a13,13,0,0,0,2.33-3,6.26,6.26,0,0,0,1.86-.61,9,9,0,0,0-1.73,4.33,2.2,2.2,0,0,0,.48,1.45,1.44,1.44,0,0,0,1.18.59q1.54,0,4.38-2.77a3.75,3.75,0,0,0,.75,1.76,2.67,2.67,0,0,0,2.15,1q2.13,0,3.78-2.49A2.66,2.66,0,0,0,290,522a2.55,2.55,0,0,0,.87-.21A3.93,3.93,0,0,0,292,521l.77-.85a7.28,7.28,0,0,0,.45,1.1q-.92,5-1.27,8.13c1.11-.22,2.06-.38,2.86-.49.24-1.94.53-3.75.85-5.43a3.21,3.21,0,0,0,1.19.33,4,4,0,0,0,2.08-.73,10.54,10.54,0,0,0,2.22-1.93v.05a3.25,3.25,0,0,0,.51,1.88,1.45,1.45,0,0,0,1.23.75c.87,0,2.17-.91,3.91-2.71a3.34,3.34,0,0,0,.59,1.86,1.91,1.91,0,0,0,1.6.83,3.74,3.74,0,0,0,2-.68,16.44,16.44,0,0,0,2.49-2.11,29.5,29.5,0,0,0,3.36-4.38,8.7,8.7,0,0,0,1,2,3.91,3.91,0,0,1,.78,1.92A2,2,0,0,1,318,522a1.82,1.82,0,0,1-1.31.65c-.47,0-.79-.31-1-.94s-.4-.94-.65-.94-.48.26-.91.77a2.41,2.41,0,0,0-.63,1,1.11,1.11,0,0,0,.64.88,2.53,2.53,0,0,0,1.42.41,5,5,0,0,0,3.47-1.62,4.74,4.74,0,0,0,1.67-3.37A3.58,3.58,0,0,0,320.07,516.91Zm-21.41-7.19c.34-.87.68-1.31,1-1.31a.51.51,0,0,1,.44.31,1.5,1.5,0,0,1,.17.78,5,5,0,0,1-.76,2.48,9.5,9.5,0,0,1-2.09,2.51A32.77,32.77,0,0,1,298.66,509.72Zm-10.94,11c-.64,1-1.22,1.5-1.77,1.5a1.13,1.13,0,0,1-1-.64,3.6,3.6,0,0,1-.37-1.8,7.55,7.55,0,0,1,.84-3.64,2.58,2.58,0,0,1,2.33-1.55,1.27,1.27,0,0,1,.49.07,4,4,0,0,0-1.59,3.15A4.57,4.57,0,0,0,287.72,520.68Z"/></svg>