<?xml version="1.0" encoding="utf-8"?>
<!-- Generator: Adobe Illustrator 15.0.0, SVG Export Plug-In . SVG Version: 6.00 Build 0)  -->
<!DOCTYPE svg PUBLIC "-//W3C//DTD SVG 1.1//EN" "http://www.w3.org/Graphics/SVG/1.1/DTD/svg11.dtd">
<svg version="1.1" id="Capa_1" xmlns="http://www.w3.org/2000/svg" xmlns:xlink="http://www.w3.org/1999/xlink" x="0px" y="0px"
	 width="130px" height="100px" viewBox="0 0 130 100" enable-background="new 0 0 130 100" xml:space="preserve">
<g>
	<g>
		<path fill="#FFFFFF" d="M107.929,33.497h-20.76c-1.146,0-2.076,0.928-2.076,2.076c0,1.146,0.93,2.076,2.076,2.076h20.76
			c1.146,0,2.076-0.93,2.076-2.076C110.005,34.425,109.075,33.497,107.929,33.497z"/>
		<path fill="#FFFFFF" d="M64.333,35.573c0,4.005,3.26,7.267,7.266,7.267s7.266-3.262,7.266-7.267c0-4.007-3.26-7.267-7.266-7.267
			S64.333,31.566,64.333,35.573z M71.599,32.459c1.717,0,3.113,1.396,3.113,3.114c0,1.716-1.396,3.113-3.113,3.113
			s-3.113-1.397-3.113-3.113C68.485,33.855,69.882,32.459,71.599,32.459z"/>
		<path fill="#FFFFFF" d="M107.929,54.257h-20.76c-1.146,0-2.076,0.93-2.076,2.075c0,1.147,0.93,2.076,2.076,2.076h20.76
			c1.146,0,2.076-0.929,2.076-2.076C110.005,55.187,109.075,54.257,107.929,54.257z"/>
		<path fill="#FFFFFF" d="M71.599,49.067c-4.006,0-7.266,3.258-7.266,7.265s3.26,7.267,7.266,7.267s7.266-3.26,7.266-7.267
			S75.604,49.067,71.599,49.067z M71.599,59.448c-1.717,0-3.113-1.397-3.113-3.116c0-1.717,1.396-3.113,3.113-3.113
			s3.113,1.396,3.113,3.113C74.712,58.051,73.315,59.448,71.599,59.448z"/>
		<path fill="#F5F5F5" d="M107.929,75.017h-20.76c-1.146,0-2.076,0.929-2.076,2.076c0,1.146,0.93,2.075,2.076,2.075h20.76
			c1.146,0,2.076-0.93,2.076-2.075C110.005,75.945,109.075,75.017,107.929,75.017z"/>
		<path fill="#F5F5F5" d="M71.599,69.827c-4.006,0-7.266,3.259-7.266,7.266c0,4.006,3.26,7.265,7.266,7.265s7.266-3.259,7.266-7.265
			C78.864,73.086,75.604,69.827,71.599,69.827z M71.599,80.206c-1.717,0-3.113-1.396-3.113-3.113c0-1.718,1.396-3.114,3.113-3.114
			s3.113,1.396,3.113,3.114C74.712,78.81,73.315,80.206,71.599,80.206z"/>
		<path fill="#FFFFFF" d="M114.157,12.829h-7.768c-1.146,0-2.076,0.93-2.076,2.076c0,1.147,0.93,2.075,2.076,2.075h7.768
			c1.145,0,2.076,0.933,2.076,2.077v18.79c0,0.001,0,0.001,0,0.002v55.922c0,1.146-0.932,2.076-2.076,2.076H60.181
			c-1.145,0-2.076-0.931-2.076-2.076V19.058c0-1.145,0.932-2.077,2.076-2.077h7.746c1.146,0,2.076-0.928,2.076-2.075
			c0-1.146-0.93-2.076-2.076-2.076h-7.746c-3.434,0-6.227,2.795-6.227,6.229l-0.002,74.714c0,3.435,2.795,6.229,6.229,6.229h53.977
			c3.434,0,6.227-2.794,6.227-6.229v-55.92c0,0,0-0.001,0-0.002V19.058C120.384,15.624,117.591,12.829,114.157,12.829z"/>
		<path fill="#FFFFFF" d="M76.735,17.947h20.76c1.719,0,3.113-1.394,3.113-3.113s-1.395-3.114-3.113-3.114h-2.076V9.644
			c0-4.58-3.727-8.304-8.303-8.304c-4.58,0-8.305,3.724-8.305,8.304v2.076h-2.076c-1.721,0-3.115,1.395-3.115,3.114
			S75.015,17.947,76.735,17.947z M87.116,6.529c1.715,0,3.113,1.397,3.113,3.114c0,1.718-1.398,3.114-3.113,3.114
			c-1.719,0-3.115-1.396-3.115-3.114C84.001,7.927,85.397,6.529,87.116,6.529z"/>
		<path opacity="0.5" fill="#7BA946" d="M107.929,75.017h-20.76c-1.146,0-2.076,0.929-2.076,2.076c0,1.146,0.93,2.075,2.076,2.075
			h20.76c1.146,0,2.076-0.93,2.076-2.075C110.005,75.945,109.075,75.017,107.929,75.017z"/>
		<path opacity="0.5" fill="#7BA946" d="M71.599,69.827c-4.006,0-7.266,3.259-7.266,7.266c0,4.006,3.26,7.265,7.266,7.265
			s7.266-3.259,7.266-7.265C78.864,73.086,75.604,69.827,71.599,69.827z M71.599,80.206c-1.717,0-3.113-1.396-3.113-3.113
			c0-1.718,1.396-3.114,3.113-3.114s3.113,1.396,3.113,3.114C74.712,78.81,73.315,80.206,71.599,80.206z"/>
	</g>
	<g>
		<g>
			<path fill="#F5F5F5" d="M2.431,24.427c0.225-1.56,0.659-2.929,1.305-4.106c0.646-1.177,1.451-2.159,2.419-2.947
				c0.967-0.787,2.077-1.38,3.33-1.777C10.736,15.198,12.083,15,13.523,15c1.5,0,2.854,0.213,4.061,0.641s2.238,1.021,3.094,1.777
				c0.855,0.758,1.512,1.646,1.969,2.667c0.457,1.02,0.687,2.122,0.687,3.307c0,1.035-0.116,1.946-0.349,2.734
				c-0.232,0.787-0.566,1.474-1.002,2.059c-0.435,0.585-0.975,1.08-1.619,1.485c-0.646,0.404-1.373,0.742-2.183,1.012
				c1.95,0.615,3.405,1.553,4.364,2.813c0.961,1.261,1.44,2.843,1.44,4.748c0,1.62-0.3,3.053-0.899,4.297
				c-0.601,1.246-1.41,2.292-2.431,3.14s-2.201,1.488-3.544,1.923c-1.342,0.436-2.764,0.653-4.264,0.653
				c-1.635,0-3.06-0.188-4.275-0.563c-1.215-0.375-2.271-0.931-3.172-1.665c-0.9-0.735-1.665-1.635-2.295-2.7s-1.17-2.295-1.62-3.69
				l2.452-1.012c0.645-0.271,1.249-0.342,1.812-0.214c0.563,0.127,0.972,0.431,1.227,0.911c0.271,0.525,0.565,1.043,0.889,1.553
				c0.322,0.51,0.708,0.964,1.159,1.36c0.449,0.398,0.979,0.721,1.586,0.968c0.607,0.248,1.331,0.371,2.171,0.371
				c0.945,0,1.771-0.153,2.476-0.461s1.293-0.709,1.766-1.204s0.825-1.046,1.058-1.653s0.349-1.219,0.349-1.834
				c0-0.779-0.082-1.488-0.247-2.126s-0.511-1.182-1.035-1.632c-0.525-0.449-1.278-0.802-2.261-1.057s-2.299-0.383-3.949-0.383
				v-3.96c1.365-0.015,2.498-0.143,3.397-0.383c0.899-0.239,1.616-0.573,2.149-1.001c0.531-0.428,0.902-0.941,1.113-1.541
				c0.209-0.6,0.314-1.261,0.314-1.98c0-1.53-0.428-2.692-1.282-3.487s-1.995-1.192-3.42-1.192c-0.66,0-1.268,0.094-1.823,0.281
				c-0.555,0.188-1.053,0.45-1.496,0.787c-0.441,0.338-0.813,0.731-1.113,1.182c-0.301,0.45-0.525,0.945-0.675,1.484
				c-0.255,0.69-0.589,1.148-1.001,1.373c-0.413,0.225-0.994,0.277-1.744,0.157L2.431,24.427z"/>
		</g>
		<g opacity="0.5">
			<path fill="#7BA946" d="M2.431,24.427c0.225-1.56,0.659-2.929,1.305-4.106c0.646-1.177,1.451-2.159,2.419-2.947
				c0.967-0.787,2.077-1.38,3.33-1.777C10.736,15.198,12.083,15,13.523,15c1.5,0,2.854,0.213,4.061,0.641s2.238,1.021,3.094,1.777
				c0.855,0.758,1.512,1.646,1.969,2.667c0.457,1.02,0.687,2.122,0.687,3.307c0,1.035-0.116,1.946-0.349,2.734
				c-0.232,0.787-0.566,1.474-1.002,2.059c-0.435,0.585-0.975,1.08-1.619,1.485c-0.646,0.404-1.373,0.742-2.183,1.012
				c1.95,0.615,3.405,1.553,4.364,2.813c0.961,1.261,1.44,2.843,1.44,4.748c0,1.62-0.3,3.053-0.899,4.297
				c-0.601,1.246-1.41,2.292-2.431,3.14s-2.201,1.488-3.544,1.923c-1.342,0.436-2.764,0.653-4.264,0.653
				c-1.635,0-3.06-0.188-4.275-0.563c-1.215-0.375-2.271-0.931-3.172-1.665c-0.9-0.735-1.665-1.635-2.295-2.7s-1.17-2.295-1.62-3.69
				l2.452-1.012c0.645-0.271,1.249-0.342,1.812-0.214c0.563,0.127,0.972,0.431,1.227,0.911c0.271,0.525,0.565,1.043,0.889,1.553
				c0.322,0.51,0.708,0.964,1.159,1.36c0.449,0.398,0.979,0.721,1.586,0.968c0.607,0.248,1.331,0.371,2.171,0.371
				c0.945,0,1.771-0.153,2.476-0.461s1.293-0.709,1.766-1.204s0.825-1.046,1.058-1.653s0.349-1.219,0.349-1.834
				c0-0.779-0.082-1.488-0.247-2.126s-0.511-1.182-1.035-1.632c-0.525-0.449-1.278-0.802-2.261-1.057s-2.299-0.383-3.949-0.383
				v-3.96c1.365-0.015,2.498-0.143,3.397-0.383c0.899-0.239,1.616-0.573,2.149-1.001c0.531-0.428,0.902-0.941,1.113-1.541
				c0.209-0.6,0.314-1.261,0.314-1.98c0-1.53-0.428-2.692-1.282-3.487s-1.995-1.192-3.42-1.192c-0.66,0-1.268,0.094-1.823,0.281
				c-0.555,0.188-1.053,0.45-1.496,0.787c-0.441,0.338-0.813,0.731-1.113,1.182c-0.301,0.45-0.525,0.945-0.675,1.484
				c-0.255,0.69-0.589,1.148-1.001,1.373c-0.413,0.225-0.994,0.277-1.744,0.157L2.431,24.427z"/>
		</g>
	</g>
	<rect fill="none" width="130" height="100"/>
</g>
</svg>
