<?xml version="1.0" encoding="utf-8"?>
<!-- Generator: Adobe Illustrator 15.0.0, SVG Export Plug-In . SVG Version: 6.00 Build 0)  -->
<!DOCTYPE svg PUBLIC "-//W3C//DTD SVG 1.1//EN" "http://www.w3.org/Graphics/SVG/1.1/DTD/svg11.dtd">
<svg version="1.1" id="Capa_1" xmlns="http://www.w3.org/2000/svg" xmlns:xlink="http://www.w3.org/1999/xlink" x="0px" y="0px"
	 width="130px" height="100px" viewBox="0 0 130 100" enable-background="new 0 0 130 100" xml:space="preserve">
<path fill="#F5F5F5" d="M109.812,58.623c0.072-0.605,1.395-13.755-16.959-21.704c9.268-4.132,12.01-10.163,12.141-10.462
	c0.463-1.06-0.02-2.287-1.074-2.759c-1.055-0.473-2.299,0.002-2.779,1.054c-0.127,0.275-3.174,6.663-14.447,9.931
	c-5.646-1.829-8.861-4.121-10.688-6.174h16.559c1.162,0,2.105-0.943,2.105-2.107s-0.943-2.107-2.105-2.107H73.72
	c-0.012-0.051-0.021-0.103-0.031-0.15c-0.213-1.145-1.314-1.901-2.455-1.688c-1.145,0.212-1.9,1.312-1.688,2.456
	c0.545,2.944,2.744,7.969,10.941,11.854c-8.521,3.548-12.678,8.646-14.695,12.616c-2.686,5.285-2.295,9.795-2.277,9.984
	c0.104,1.09,1.02,1.901,2.094,1.901c0.063,0,0.127-0.003,0.191-0.008c0.926-0.083,1.65-0.761,1.854-1.622h31.838
	c1.162,0,2.105-0.942,2.105-2.106c0-1.163-0.943-2.106-2.105-2.106H68.04c0.996-4.575,4.764-12.379,18.582-16.34
	c5.508,1.767,9.432,3.961,12.217,6.227H80.581c-1.162,0-2.105,0.943-2.105,2.107c0,1.163,0.943,2.106,2.105,2.106h22.248
	c3.139,4.464,2.828,8.312,2.797,8.614c-0.129,1.149,0.695,2.189,1.846,2.326c0.084,0.011,0.168,0.016,0.252,0.016
	C108.774,60.481,109.685,59.694,109.812,58.623z"/>
<path opacity="0.5" fill="#7BA946" d="M109.812,58.623c0.072-0.605,1.395-13.755-16.959-21.704
	c9.268-4.132,12.01-10.163,12.141-10.462c0.463-1.06-0.02-2.287-1.074-2.759c-1.055-0.473-2.299,0.002-2.779,1.054
	c-0.127,0.275-3.174,6.663-14.447,9.931c-5.646-1.829-8.861-4.121-10.688-6.174h16.559c1.162,0,2.105-0.943,2.105-2.107
	s-0.943-2.107-2.105-2.107H73.72c-0.012-0.051-0.021-0.103-0.031-0.15c-0.213-1.145-1.314-1.901-2.455-1.688
	c-1.145,0.212-1.9,1.312-1.688,2.456c0.545,2.944,2.744,7.969,10.941,11.854c-8.521,3.548-12.678,8.646-14.695,12.616
	c-2.686,5.285-2.295,9.795-2.277,9.984c0.104,1.09,1.02,1.901,2.094,1.901c0.063,0,0.127-0.003,0.191-0.008
	c0.926-0.083,1.65-0.761,1.854-1.622h31.838c1.162,0,2.105-0.942,2.105-2.106c0-1.163-0.943-2.106-2.105-2.106H68.04
	c0.996-4.575,4.764-12.379,18.582-16.34c5.508,1.767,9.432,3.961,12.217,6.227H80.581c-1.162,0-2.105,0.943-2.105,2.107
	c0,1.163,0.943,2.106,2.105,2.106h22.248c3.139,4.464,2.828,8.312,2.797,8.614c-0.129,1.149,0.695,2.189,1.846,2.326
	c0.084,0.011,0.168,0.016,0.252,0.016C108.774,60.481,109.685,59.694,109.812,58.623z"/>
<g>
	<path fill="#FFFFFF" d="M93.159,65.959H80.581c-1.162,0-2.105,0.942-2.105,2.106s0.943,2.107,2.105,2.107h12.578
		c1.164,0,2.107-0.943,2.107-2.107S94.323,65.959,93.159,65.959z"/>
	<path fill="#FFFFFF" d="M109.812,58.623c0.072-0.605,1.395-13.755-16.959-21.704c-2.719-0.996-3.688-1.267-6.16-2.236
		c-5.646-1.829-8.861-4.121-10.688-6.174h16.559c1.162,0,2.105-0.943,2.105-2.107s-0.943-2.107-2.105-2.107H73.72
		c-0.012-0.051-0.021-0.103-0.031-0.15c-0.213-1.145-1.314-1.901-2.455-1.688c-1.145,0.212-1.9,1.312-1.688,2.456
		c0.545,2.944,2.744,7.969,10.941,11.854c2.646,0.991,4.236,1.554,6.135,2.319c5.508,1.767,9.432,3.961,12.217,6.227H80.581
		c-1.162,0-2.105,0.943-2.105,2.107c0,1.163,0.943,2.106,2.105,2.106h22.248c3.139,4.464,2.828,8.312,2.797,8.614
		c-0.129,1.149,0.695,2.189,1.846,2.326c0.084,0.011,0.168,0.016,0.252,0.016C108.774,60.481,109.685,59.694,109.812,58.623z"/>
	<path fill="#FFFFFF" d="M120.653,83.659l-11.287-13.83c6.98-6.34,11.025-15.336,11.025-24.939c0-9.004-3.506-17.469-9.873-23.836
		s-14.832-9.873-23.838-9.873c-18.586,0-33.709,15.122-33.709,33.71c0,18.587,15.123,33.709,33.711,33.709
		c6.258,0,12.328-1.718,17.623-4.974l11.451,14.03c0.625,0.765,1.533,1.162,2.451,1.162c0.703,0,1.408-0.233,1.996-0.712
		C121.556,87.003,121.757,85.012,120.653,83.659z M86.683,74.386c-16.266,0-29.498-13.231-29.498-29.495
		c0-16.265,13.232-29.496,29.496-29.496c7.879,0,15.287,3.067,20.857,8.64c5.572,5.57,8.639,12.978,8.639,20.855
		c0,9.969-4.98,19.191-13.324,24.672C98.048,72.718,92.458,74.386,86.683,74.386z"/>
	<path fill="#F5F5F5" d="M99.134,89.439H83.683c-1.164,0-2.107-0.943-2.107-2.106c0-1.164,0.943-2.107,2.107-2.107h12.65
		c-0.383-0.384-0.797-0.751-1.254-1.093c-0.93-0.698-1.119-2.019-0.42-2.95c0.699-0.93,2.02-1.118,2.949-0.42
		c7.846,5.887,7.221,16.504,7.189,16.954c-0.074,1.112-1,1.964-2.1,1.964c-0.047,0-0.096-0.002-0.145-0.005
		c-1.16-0.079-2.037-1.084-1.959-2.245C100.599,97.372,100.831,93.405,99.134,89.439z"/>
	<path fill="#FFFFFF" d="M75.753,80.763c0.93-0.699,2.25-0.51,2.949,0.421s0.51,2.251-0.42,2.949
		c-3.441,2.581-4.748,6.55-5.238,9.482h21.053c1.162,0,2.105,0.943,2.105,2.106c0,1.164-0.943,2.107-2.105,2.107H72.753
		c-0.119,0.984-0.92,1.777-1.945,1.847c-0.049,0.003-0.098,0.005-0.145,0.005c-1.098,0-2.025-0.852-2.1-1.964
		C68.532,97.267,67.907,86.649,75.753,80.763z"/>
	<path opacity="0.5" fill="#7BA946" d="M99.134,89.439H83.683c-1.164,0-2.107-0.943-2.107-2.106c0-1.164,0.943-2.107,2.107-2.107
		h12.65c-0.383-0.384-0.797-0.751-1.254-1.093c-0.93-0.698-1.119-2.019-0.42-2.95c0.699-0.93,2.02-1.118,2.949-0.42
		c7.846,5.887,7.221,16.504,7.189,16.954c-0.074,1.112-1,1.964-2.1,1.964c-0.047,0-0.096-0.002-0.145-0.005
		c-1.16-0.079-2.037-1.084-1.959-2.245C100.599,97.372,100.831,93.405,99.134,89.439z"/>
</g>
<g>
	<g>
		<path fill="#F5F5F5" d="M24.953,35.295v3.218c0,0.3-0.098,0.559-0.293,0.776s-0.473,0.326-0.832,0.326h-2.971v7.942h-4.837v-7.942
			H2.295c-0.375,0-0.705-0.116-0.989-0.349c-0.285-0.232-0.466-0.521-0.54-0.866l-0.585-2.813L15.593,15h5.265v20.295H24.953z
			 M16.021,35.295V24.652c0-1.005,0.067-2.114,0.202-3.33L6.121,35.295H16.021z"/>
	</g>
	<g opacity="0.5">
		<path fill="#7BA946" d="M24.953,35.295v3.218c0,0.3-0.098,0.559-0.293,0.776s-0.473,0.326-0.832,0.326h-2.971v7.942h-4.837v-7.942
			H2.295c-0.375,0-0.705-0.116-0.989-0.349c-0.285-0.232-0.466-0.521-0.54-0.866l-0.585-2.813L15.593,15h5.265v20.295H24.953z
			 M16.021,35.295V24.652c0-1.005,0.067-2.114,0.202-3.33L6.121,35.295H16.021z"/>
	</g>
</g>
<rect fill="none" width="130" height="100"/>
</svg>
