<?xml version="1.0" encoding="UTF-8"?>
<svg width="128px" height="114px" viewBox="0 0 128 114" version="1.1" xmlns="http://www.w3.org/2000/svg" xmlns:xlink="http://www.w3.org/1999/xlink">
    <title>BE499622-E9C3-48CE-8CDC-1C3C2E1379ED@3x</title>
    <g id="Splash-Page-final" stroke="none" stroke-width="1" fill="none" fill-rule="evenodd">
        <g id="Desktop" transform="translate(-656.000000, -217.000000)">
            <g id="CRC-Circles" transform="translate(658.000000, 219.000000)">
                <ellipse id="Oval" fill="#C59CE4" cx="47.4117647" cy="18.3333333" rx="18.2352941" ry="18.3333333"></ellipse>
                <path d="M18.2352941,73.3333333 C28.306369,73.3333333 36.4705882,65.1252204 36.4705882,55 C36.4705882,44.8747796 28.306369,36.6666667 18.2352941,36.6666667 C8.16421927,36.6666667 0,44.8747796 0,55 C0,65.1252204 8.16421927,73.3333333 18.2352941,73.3333333 Z" id="Oval-Copy-4" stroke="#C59CE4" stroke-width="3" stroke-dasharray="8,6"></path>
                <ellipse id="Oval-Copy-6" fill="#C59CE4" cx="47.4117647" cy="91.6666667" rx="18.2352941" ry="18.3333333"></ellipse>
                <path d="M105.764706,36.6666667 C115.835781,36.6666667 124,28.4585537 124,18.3333333 C124,8.20811292 115.835781,0 105.764706,0 C95.693631,0 87.5294118,8.20811292 87.5294118,18.3333333 C87.5294118,28.4585537 95.693631,36.6666667 105.764706,36.6666667 Z" id="Oval-Copy-3" stroke="#C59CE4" stroke-width="3" stroke-dasharray="8,6"></path>
                <ellipse id="Oval-Copy-5" fill="#C59CE4" cx="76.5882353" cy="55" rx="18.2352941" ry="18.3333333"></ellipse>
                <path d="M105.764706,110 C115.835781,110 124,101.791887 124,91.6666667 C124,81.5414463 115.835781,73.3333333 105.764706,73.3333333 C95.693631,73.3333333 87.5294118,81.5414463 87.5294118,91.6666667 C87.5294118,101.791887 95.693631,110 105.764706,110 Z" id="Oval-Copy-7" stroke="#C59CE4" stroke-width="3" stroke-dasharray="8,6"></path>
                <rect id="Rectangle-Copy-13" fill="#1D1B25" x="65.6470588" y="91.6666667" width="40.1176471" height="3.66666667"></rect>
                <rect id="Rectangle-Copy-12" fill="#1D1B25" x="18.2352941" y="55" width="40.1176471" height="3.66666667"></rect>
                <rect id="Rectangle" fill="#1D1B25" x="65.6470588" y="18.3333333" width="40.1176471" height="3.66666667"></rect>
            </g>
        </g>
    </g>
</svg>