<?xml version="1.0" encoding="UTF-8"?>
<svg version="1.1" viewBox="0 0 54 54" xmlns="http://www.w3.org/2000/svg" xmlns:xlink="http://www.w3.org/1999/xlink">
<title>Icons / Social / Twitter Copy 2@1x</title>
<defs>
<path id="a" d="m43.731 5.8182h-23.463c-7.9678 0-14.45 6.4827-14.45 14.45v23.463c0 7.9681 6.4823 14.45 14.45 14.45h23.463c7.9684 0 14.451-6.4827 14.451-14.45v-23.463c0-7.9678-6.4823-14.45-14.451-14.45zm0 4.646c5.4063 0 9.8051 4.3985 9.8051 9.8045v23.463c0 5.4063-4.3985 9.8045-9.8048 9.8045h-23.463c-5.406 0-9.8042-4.3982-9.8042-9.8045v-23.463c0-5.406 4.3982-9.8045 9.8042-9.8045h23.463zm-11.731 7.8216c-7.5622 0-13.714 6.1523-13.714 13.715 0 7.562 6.1521 13.714 13.714 13.714s13.714-6.1519 13.714-13.714c0-7.5623-6.1521-13.715-13.714-13.715zm0 4.722c4.9583 0 8.9921 4.0338 8.9921 8.9923 0 4.9581-4.034 8.9916-8.9921 8.9916s-8.9921-4.0335-8.9921-8.9916c0-4.9584 4.0337-8.9923 8.9921-8.9923zm14.961-9.709c-0.98267 0-1.948 0.39783-2.642 1.0949-0.69739 0.69365-1.0983 1.6593-1.0983 2.6454 0 0.98301 0.40123 1.9483 1.0983 2.6454 0.69365 0.69365 1.6593 1.0949 2.642 1.0949 0.98607 0 1.9483-0.40123 2.6454-1.0949 0.69705-0.69705 1.0949-1.6627 1.0949-2.6454 0-0.98607-0.39783-1.9517-1.0949-2.6454-0.69365-0.69705-1.6593-1.0949-2.6454-1.0949z"/>
</defs>
<g fill="none" fill-rule="evenodd">
<g transform="translate(-1136 -3365)">
<g transform="translate(1131 3360)">
<mask fill="white">
<use xlink:href="#a"/>
</mask>
<use fill="#6236FF" xlink:href="#a"/>
</g>
</g>
</g>
</svg>
