<svg xmlns="http://www.w3.org/2000/svg" viewBox="0 0 96 84"><path d="M13.6 27.6c7.5 0 13.6 6.1 13.6 13.6s-6.1 13.6-13.6 13.6S0 48.7 0 41.2s6.1-13.6 13.6-13.6" fill="#73e900"/><path d="M95.2 14c0 7.5-6.1 13.6-13.6 13.6S68 21.5 68 14 74.1.4 81.6.4 95.2 6.5 95.2 14z" fill="#ffa915"/><path d="M81.6 56.5c7.5 0 13.6 6.1 13.6 13.6s-6.1 13.6-13.6 13.6S68 77.6 68 70.1s6.1-13.6 13.6-13.6" fill="#ff00db"/><path d="M35.7 14.9v-1.7h45.9v1.7H35.7zM13.6 42.1v-1.7h45.9v1.7H13.6zM37.4 71v-1.7h44.2V71H37.4z"/><path d="M35.7.4C43.2.4 49.3 6.5 49.3 14s-6.1 13.6-13.6 13.6S22.1 21.5 22.1 14 28.2.4 35.7.4" fill="#ff6200"/><path d="M57.8 27.6c7.5 0 13.6 6.1 13.6 13.6s-6.1 13.6-13.6 13.6-13.6-6.1-13.6-13.6 6.1-13.6 13.6-13.6" fill="#00d49e"/><path d="M37.4 56.5c7.5 0 13.6 6.1 13.6 13.6s-6.1 13.6-13.6 13.6-13.6-6.1-13.6-13.6 6.1-13.6 13.6-13.6" fill="#7155ff"/></svg>