<?xml version="1.0" encoding="UTF-8"?>
<svg version="1.1" viewBox="0 0 51 41" xmlns="http://www.w3.org/2000/svg" xmlns:xlink="http://www.w3.org/1999/xlink">
<title>Icons / Social / Twitter@1x</title>
<defs>
<path id="a" d="m58.182 16.389c-1.8202 0.80655-3.7733 1.3535-5.8253 1.5977 2.0953-1.2547 3.6992-3.2448 4.4593-5.609-1.9654 1.1619-4.1349 2.0057-6.4465 2.463-1.8511-1.9747-4.484-3.2047-7.4044-3.2047-5.6027 0-10.146 4.5428-10.146 10.142 0 0.79418 0.089616 1.5699 0.26271 2.3116-8.4304-0.42343-15.906-4.4625-20.909-10.6-0.87459 1.4958-1.3721 3.2386-1.3721 5.0991 0 3.5199 1.7924 6.6257 4.5119 8.4427-1.6626-0.055596-3.2263-0.51297-4.5953-1.2732v0.12671c0 4.9136 3.4983 9.0145 8.1368 9.9478-0.84986 0.22869-1.746 0.35539-2.6731 0.35539-0.65511 0-1.2886-0.064889-1.9098-0.18853 1.2917 4.0329 5.0373 6.9656 9.475 7.046-3.4705 2.7195-7.8464 4.3358-12.599 4.3358-0.81891 0-1.6255-0.049454-2.4197-0.13907 4.4903 2.8833 9.8211 4.5644 15.551 4.5644 18.662 0 28.864-15.458 28.864-28.864l-0.03402-1.3134c1.9932-1.4217 3.7176-3.2078 5.0743-5.2413z"/>
</defs>
<g fill="none" fill-rule="evenodd">
<g transform="translate(-947 -3371)">
<g transform="translate(939 3360)">
<mask fill="white">
<use xlink:href="#a"/>
</mask>
<use fill="#6236FF" xlink:href="#a"/>
</g>
</g>
</g>
</svg>
