<?xml version="1.0" encoding="utf-8"?>
<!-- Generator: Adobe Illustrator 23.0.1, SVG Export Plug-In . SVG Version: 6.00 Build 0)  -->
<svg version="1.1" id="Capa_1" xmlns="http://www.w3.org/2000/svg" xmlns:xlink="http://www.w3.org/1999/xlink" x="0px" y="0px"
	 width="116.9px" height="52px" viewBox="0 0 116.9 52" style="enable-background:new 0 0 116.9 52;" xml:space="preserve">
<style type="text/css">
	.st0{fill-rule:evenodd;clip-rule:evenodd;fill:#73E800;}
	.st1{fill-rule:evenodd;clip-rule:evenodd;fill:#FFB029;}
	.st2{fill-rule:evenodd;clip-rule:evenodd;fill:#FF00DB;}
	.st3{fill-rule:evenodd;clip-rul∫e:evenodd;}
	.st4{fill-rule:evenodd;clip-rule:evenodd;fill:#FF6100;}
	.st5{fill-rule:evenodd;clip-rule:evenodd;fill:#00D49E;}
	.st6{fill-rule:evenodd;clip-rule:evenodd;fill:#7054FF;}
</style>
<g>
	<path class="st0" d="M8.7,17.3c4.8,0,8.7,3.9,8.7,8.7s-3.9,8.7-8.7,8.7C3.9,34.7,0,30.8,0,26S3.9,17.3,8.7,17.3"/>
	<path class="st1" d="M52,0c4.8,0,8.7,3.9,8.7,8.7s-3.9,8.7-8.7,8.7c-4.8,0-8.7-3.9-8.7-8.7C43.3,3.9,47.2,0,52,0"/>
	<path class="st2" d="M52,34.7c4.8,0,8.7,3.9,8.7,8.7S56.7,52,52,52c-4.8,0-8.7-3.9-8.7-8.7S47.2,34.7,52,34.7"/>
	<path class="st3" d="M76.6,13.7c2,0,2.9-1.1,3.2-2.5h1.4c-0.4,2.2-2,3.8-4.6,3.8c-3.1,0-5.5-2.5-5.5-6.3c0-3.8,2.3-6.3,5.5-6.3
		c2.7,0,4.2,1.5,4.6,3.8h-1.4c-0.3-1.4-1.2-2.5-3.2-2.5c-2.5,0-4,2-4,5C72.7,11.6,74.1,13.7,76.6,13.7L76.6,13.7z M87,14.9
		c-2.4,0-4.1-1.7-4.1-4.5s1.7-4.5,4.1-4.5c2.4,0,4.1,1.7,4.1,4.5S89.4,14.9,87,14.9z M87,13.8c1.7,0,2.7-1.3,2.7-3.3
		c0-2.1-1-3.4-2.7-3.4s-2.7,1.3-2.7,3.4S85.3,13.8,87,13.8L87,13.8z M98.8,14.7v-1.6c-0.4,1.1-1.4,1.8-2.7,1.8c-1.9,0-3-1.2-3-3.3
		V6.1h1.4v5.3c0,1.6,0.7,2.4,2,2.4c1.3,0,2.3-0.9,2.3-3V6.1h1.4v8.6H98.8z M104.2,7.7c0.4-1.1,1.5-1.8,2.8-1.8
		c1.9,0,3.1,1.2,3.1,3.3v5.5h-1.4V9.5c0-1.6-0.7-2.4-2-2.4c-1.3,0-2.4,0.8-2.4,2.9v4.7h-1.4V6.1h1.4C104.2,6.1,104.2,7.7,104.2,7.7z
		 M116.9,14.6c-0.6,0.2-1.1,0.2-1.5,0.2c-1.6,0-2.4-0.8-2.4-2.3V7.2h-1.3V6.1h1.3V3.9h1.4v2.2h2.2v1.1h-2.3v5.2
		c0,0.9,0.5,1.2,1.2,1.2c0.3,0,0.7,0,1.2-0.2L116.9,14.6L116.9,14.6z M78,32l-4-10.7h0V32h-1.4V19.8h2.3l3.8,10.3h0l3.7-10.3h2.2V32
		h-1.4V21.3h0l-4,10.7H78z M90.9,32.2c-2.4,0-4.1-1.7-4.1-4.5c0-2.8,1.8-4.5,4-4.5c2.5,0,3.7,2,3.7,4.2V28h-6.3
		c0.1,2,1.1,3.1,2.7,3.1c1.2,0,1.9-0.6,2.2-1.6h1.3C94.1,31.3,92.6,32.2,90.9,32.2L90.9,32.2z M88.2,27h4.9c0-1.5-0.8-2.6-2.3-2.6
		C89.5,24.4,88.5,25.2,88.2,27L88.2,27z M72.6,37.2h1.5v12.2h-1.5C72.6,49.4,72.6,37.2,72.6,37.2z M78.1,42.4
		c0.4-1.1,1.5-1.8,2.8-1.8c1.9,0,3.1,1.2,3.1,3.3v5.5h-1.4v-5.2c0-1.6-0.7-2.4-2-2.4c-1.3,0-2.4,0.8-2.4,2.9v4.7h-1.4v-8.6h1.4
		L78.1,42.4L78.1,42.4z M23,9.2H52V8H23V9.2z"/>
	<path class="st4" d="M23,0c4.8,0,8.7,3.9,8.7,8.7s-3.9,8.7-8.7,8.7c-4.8,0-8.7-3.9-8.7-8.7S18.3,0,23,0"/>
	<path class="st3" d="M8.7,26.6h28.9v-1.2H8.7V26.6z"/>
	<path class="st5" d="M37.6,17.3c4.8,0,8.7,3.9,8.7,8.7s-3.9,8.7-8.7,8.7c-4.8,0-8.7-3.9-8.7-8.7S32.8,17.3,37.6,17.3"/>
	<path class="st3" d="M23,43.9H52v-1.2H23V43.9z"/>
	<path class="st6" d="M23,34.7c4.8,0,8.7,3.9,8.7,8.7S27.8,52,23,52c-4.8,0-8.7-3.9-8.7-8.7S18.3,34.7,23,34.7"/>
</g>
</svg>
