<?xml version="1.0" encoding="utf-8"?>
<!-- Generator: Adobe Illustrator 16.0.3, SVG Export Plug-In . SVG Version: 6.00 Build 0)  -->
<!DOCTYPE svg PUBLIC "-//W3C//DTD SVG 1.1//EN" "http://www.w3.org/Graphics/SVG/1.1/DTD/svg11.dtd">
<svg version="1.1" id="Capa_1" xmlns="http://www.w3.org/2000/svg" xmlns:xlink="http://www.w3.org/1999/xlink" x="0px" y="0px"
	 width="337.742px" height="80px" viewBox="0 0 337.742 80" enable-background="new 0 0 337.742 80" xml:space="preserve">
<g>
	<g>
		<path fill="#FFFFFF" d="M19.774,13.617c0.102,0.142,0.25,0.245,0.42,0.29c0.221,0.061,0.46,0.017,0.647-0.121l0.228-0.162
			c1.358-0.981,2.639-1.905,3.929-2.716c1.276-0.815,2.603-1.567,4.05-2.298l4.154-2.056c0.353-0.176,0.696-0.333,1.037-0.483
			c-0.889,0.853-1.46,2.014-1.432,3.306c0.054,2.569,2.512,4.069,4.87,3.874c2.386-0.202,4.563-2.156,4.597-4.609
			c0.002-0.047,0.002-0.095,0-0.146c0-0.06-0.009-0.118-0.017-0.173C42.016,6.332,40.564,5,38.729,4.678
			c1.134-0.216,2.296-0.365,3.48-0.436c1.605-0.118,3.222-0.099,4.807,0.054c3.196,0.281,6.426,1.094,9.54,2.399l0.094,0.031
			c0.301,0.08,0.625-0.035,0.804-0.29c0.239-0.337,0.159-0.803-0.179-1.042c-2.73-1.938-6.026-3.459-9.526-4.396l-0.147-0.04
			c-1.739-0.445-3.548-0.745-5.378-0.892c-1.853-0.12-3.705-0.078-5.514,0.125c-2.165,0.247-3.915,0.566-5.512,1.007
			c-1.892,0.531-3.636,1.375-5.182,2.509c-1.602,1.169-2.966,2.541-4.057,4.079c-1.208,1.713-1.986,3.478-2.318,5.249
			C19.606,13.237,19.655,13.447,19.774,13.617z"/>
		<path fill="#F7E399" d="M52.354,10.022c-0.082,0.186-0.091,0.394-0.017,0.585c0.071,0.19,0.213,0.341,0.403,0.426l0.267,0.121
			c1.522,0.685,2.963,1.331,4.304,2.04c1.338,0.696,2.656,1.469,4.017,2.361l3.855,2.568c0.327,0.216,0.634,0.433,0.932,0.652
			c-1.193-0.352-2.495-0.271-3.608,0.405c-2.199,1.33-2.27,4.208-0.92,6.152c1.366,1.966,4.15,2.876,6.292,1.679
			c0.042-0.021,0.085-0.044,0.125-0.072c0.051-0.034,0.099-0.068,0.142-0.104c1.619-1.216,2.037-3.166,1.366-4.93
			c0.778,0.891,1.509,1.848,2.179,2.862c0.9,1.33,1.696,2.738,2.355,4.19c1.358,2.919,2.264,6.104,2.693,9.458
			c0.037,0.303,0.252,0.55,0.548,0.629l0.122,0.022c0.199,0.019,0.392-0.042,0.545-0.17c0.153-0.125,0.25-0.305,0.27-0.507
			c0.318-3.379-0.026-7.044-0.998-10.595c-0.486-1.73-1.127-3.443-1.917-5.104c-0.821-1.665-1.784-3.251-2.861-4.712
			c-1.298-1.753-2.452-3.106-3.63-4.269c-1.406-1.375-3.009-2.463-4.762-3.236c-1.798-0.795-3.702-1.298-5.563-1.473
			c-2.088-0.19-4.005,0.016-5.702,0.613C52.598,9.688,52.436,9.837,52.354,10.022z"/>
		<path fill="#FFFFFF" d="M76.939,46.712c-0.213-1.972-0.719-3.839-1.506-5.551c-0.878-1.903-2.017-3.461-3.383-4.632
			c-0.156-0.132-0.369-0.199-0.571-0.178c-0.417,0.042-0.724,0.418-0.682,0.841l0.025,0.26c0.171,1.673,0.333,3.253,0.39,4.777
			c0.068,1.511,0.057,3.037-0.037,4.661l-0.295,4.622c-0.014,0.2-0.034,0.386-0.051,0.58c-0.366-0.949-1.02-1.778-1.958-2.292
			c-2.252-1.237-4.781,0.139-5.787,2.28c-1.023,2.166-0.418,5.031,1.69,6.287c0.04,0.026,0.082,0.053,0.125,0.074
			c0.054,0.03,0.108,0.051,0.162,0.069c1.645,0.702,3.315,0.304,4.506-0.805c-0.341,0.93-0.736,1.856-1.188,2.764
			c-0.702,1.452-1.526,2.842-2.452,4.136c-1.85,2.639-4.153,5.014-6.847,7.061c-0.275,0.21-0.372,0.592-0.228,0.906
			c0.094,0.203,0.27,0.354,0.486,0.412c0.168,0.044,0.347,0.03,0.509-0.044c3.083-1.412,6.083-3.542,8.679-6.159
			c1.256-1.286,2.418-2.7,3.46-4.212c1.031-1.545,1.923-3.172,2.647-4.836c0.867-1.996,1.466-3.67,1.884-5.277
			C77.004,50.552,77.146,48.619,76.939,46.712z"/>
		<path fill="#F7E399" d="M58.567,66.384c-0.236-0.331-0.736-0.411-1.068-0.172l-0.227,0.164c-1.358,0.981-2.642,1.906-3.929,2.716
			c-1.275,0.815-2.602,1.567-4.054,2.298l-4.154,2.055c-0.349,0.175-0.693,0.333-1.034,0.483c0.889-0.854,1.46-2.014,1.432-3.304
			c-0.057-2.57-2.511-4.071-4.869-3.874c-2.387,0.2-4.565,2.153-4.6,4.608c-0.003,0.048-0.003,0.097,0,0.146
			c0,0.063,0.011,0.118,0.02,0.175c0.241,1.99,1.69,3.321,3.528,3.641c-1.134,0.217-2.298,0.367-3.48,0.438
			c-1.605,0.118-3.222,0.1-4.81-0.055c-3.196-0.28-6.426-1.092-9.54-2.399l-0.094-0.031c-0.301-0.08-0.625,0.037-0.804,0.292
			c-0.238,0.335-0.159,0.801,0.179,1.042c2.73,1.939,6.025,3.458,9.528,4.396l0.148,0.042c1.736,0.443,3.545,0.743,5.375,0.888
			c1.852,0.122,3.707,0.081,5.514-0.122c2.167-0.249,3.917-0.568,5.511-1.007c1.892-0.533,3.634-1.375,5.181-2.508
			c1.603-1.17,2.969-2.542,4.058-4.078c1.208-1.714,1.989-3.479,2.318-5.244C58.734,66.767,58.689,66.552,58.567,66.384z"/>
		<path fill="#FFFFFF" d="M25.984,69.975c0.173-0.382,0-0.835-0.383-1.008l-0.267-0.118c-1.523-0.688-2.963-1.333-4.304-2.042
			c-1.344-0.696-2.659-1.469-4.017-2.361l-3.858-2.568c-0.327-0.216-0.63-0.434-0.932-0.652c1.193,0.353,2.494,0.273,3.611-0.402
			c2.196-1.333,2.267-4.21,0.917-6.155c-1.367-1.966-4.148-2.876-6.29-1.678c-0.043,0.02-0.085,0.044-0.128,0.073
			c-0.051,0.033-0.1,0.066-0.139,0.104c-1.623,1.216-2.037,3.166-1.37,4.93c-0.775-0.892-1.505-1.849-2.176-2.862
			c-0.906-1.331-1.696-2.74-2.358-4.193c-1.358-2.915-2.265-6.098-2.693-9.46c-0.04-0.303-0.253-0.548-0.545-0.626l-0.125-0.021
			c-0.196-0.02-0.392,0.041-0.545,0.167c-0.153,0.128-0.25,0.307-0.267,0.507c-0.318,3.383,0.025,7.047,0.991,10.597
			c0.486,1.729,1.131,3.444,1.92,5.102c0.821,1.666,1.784,3.251,2.864,4.714c1.298,1.751,2.452,3.108,3.628,4.269
			c1.409,1.374,3.011,2.462,4.764,3.234c0.881,0.391,1.792,0.713,2.708,0.958c0.946,0.254,1.906,0.427,2.852,0.516
			c2.088,0.19,4.006-0.016,5.702-0.615C25.74,70.315,25.899,70.168,25.984,69.975z"/>
		<path fill="#F7E399" d="M6.289,43.47c0.088,0.074,0.19,0.128,0.298,0.158c0.091,0.022,0.182,0.03,0.272,0.021
			c0.42-0.041,0.728-0.416,0.682-0.839l-0.025-0.275c-0.17-1.669-0.33-3.243-0.386-4.762c-0.068-1.511-0.057-3.035,0.034-4.662
			l0.295-4.622c0.014-0.199,0.037-0.385,0.051-0.578c0.367,0.95,1.02,1.777,1.958,2.292c2.253,1.236,4.781-0.141,5.79-2.281
			c1.02-2.167,0.415-5.031-1.693-6.287c-0.04-0.027-0.08-0.051-0.125-0.074c-0.054-0.028-0.105-0.051-0.159-0.07
			c-1.647-0.702-3.318-0.302-4.508,0.807c0.344-0.935,0.736-1.859,1.188-2.766c0.702-1.45,1.525-2.841,2.452-4.137
			c1.847-2.633,4.15-5.011,6.847-7.063c0.278-0.209,0.372-0.591,0.227-0.904c-0.165-0.362-0.625-0.537-0.991-0.366
			c-3.088,1.415-6.088,3.545-8.682,6.158c-1.253,1.283-2.415,2.697-3.46,4.213c-1.031,1.545-1.923,3.172-2.648,4.837
			c-0.869,2.001-1.469,3.676-1.883,5.275c-0.486,1.903-0.628,3.838-0.42,5.743c0.213,1.972,0.719,3.84,1.505,5.553
			C3.783,40.742,4.922,42.299,6.289,43.47z"/>
	</g>
	<g>
		<g>
			<path fill="#FFFFFF" d="M105.294,53.401V28.339h10.625c1.153,0,2.219,0.242,3.196,0.725c0.974,0.483,1.818,1.118,2.522,1.905
				c0.708,0.79,1.259,1.683,1.659,2.683s0.6,2.007,0.6,3.019c0,1.06-0.188,2.088-0.563,3.089c-0.378,1-0.906,1.888-1.588,2.665
				c-0.685,0.777-1.508,1.4-2.472,1.871c-0.966,0.472-2.025,0.706-3.179,0.706h-5.929v8.4H105.294z M110.166,40.729h5.648
				c0.895,0,1.642-0.365,2.241-1.095c0.6-0.729,0.901-1.717,0.901-2.964c0-0.636-0.094-1.206-0.284-1.712
				c-0.188-0.505-0.435-0.936-0.739-1.288c-0.307-0.353-0.667-0.618-1.077-0.794c-0.415-0.178-0.83-0.266-1.256-0.266h-5.435V40.729
				z"/>
			<path fill="#FFFFFF" d="M137.842,39c-1.438,0.024-2.719,0.301-3.85,0.83c-1.13,0.53-1.94,1.324-2.435,2.383v11.189h-4.73V34.904
				h4.341v3.955c0.33-0.635,0.719-1.206,1.165-1.712c0.446-0.507,0.929-0.947,1.446-1.324c0.52-0.376,1.042-0.665,1.571-0.865
				c0.531-0.2,1.043-0.301,1.537-0.301c0.259,0,0.452,0,0.583,0c0.128,0,0.253,0.013,0.372,0.037V39z"/>
			<path fill="#FFFFFF" d="M140.487,32.328v-4.693h4.73v4.693H140.487z M140.487,53.401V34.904h4.73v18.497H140.487z"/>
			<path fill="#FFFFFF" d="M158.03,53.755c-1.506,0-2.858-0.26-4.057-0.777c-1.202-0.517-2.219-1.217-3.054-2.101
				c-0.835-0.882-1.477-1.899-1.923-3.053c-0.449-1.153-0.673-2.365-0.673-3.636c0-1.293,0.225-2.517,0.673-3.67
				c0.446-1.152,1.088-2.172,1.923-3.054c0.835-0.882,1.852-1.583,3.054-2.1c1.199-0.518,2.551-0.777,4.057-0.777
				s2.855,0.259,4.042,0.777c1.188,0.517,2.199,1.218,3.034,2.1c0.838,0.882,1.477,1.902,1.926,3.054
				c0.446,1.153,0.67,2.377,0.67,3.67c0,1.271-0.225,2.483-0.67,3.636c-0.449,1.153-1.083,2.17-1.906,3.053
				c-0.824,0.883-1.835,1.583-3.037,2.101C160.891,53.495,159.536,53.755,158.03,53.755z M153.194,44.188
				c0,0.825,0.125,1.571,0.373,2.241c0.244,0.672,0.588,1.253,1.022,1.749c0.435,0.495,0.946,0.876,1.534,1.148
				c0.588,0.27,1.225,0.405,1.906,0.405c0.685,0,1.318-0.135,1.906-0.405c0.588-0.271,1.102-0.653,1.537-1.148
				c0.435-0.496,0.775-1.082,1.022-1.766c0.247-0.683,0.372-1.435,0.372-2.258c0-0.801-0.125-1.541-0.372-2.225
				c-0.247-0.682-0.588-1.271-1.022-1.766c-0.435-0.493-0.949-0.876-1.537-1.147c-0.588-0.269-1.222-0.405-1.906-0.405
				c-0.682,0-1.318,0.141-1.906,0.423c-0.588,0.282-1.1,0.67-1.534,1.165s-0.778,1.084-1.022,1.766
				C153.319,42.648,153.194,43.39,153.194,44.188z"/>
			<path fill="#FFFFFF" d="M188.069,53.401h-4.73V43.023c0-1.483-0.259-2.564-0.776-3.247c-0.517-0.682-1.236-1.024-2.153-1.024
				c-0.472,0-0.955,0.095-1.446,0.283c-0.495,0.188-0.96,0.454-1.395,0.794c-0.438,0.342-0.83,0.747-1.182,1.219
				c-0.355,0.47-0.613,0.988-0.778,1.552v10.801h-4.73V34.904h4.273v3.425c0.682-1.176,1.67-2.094,2.963-2.753
				c1.295-0.659,2.756-0.989,4.378-0.989c1.153,0,2.094,0.212,2.824,0.635c0.73,0.424,1.295,0.977,1.693,1.659
				c0.4,0.684,0.679,1.46,0.832,2.33c0.151,0.872,0.228,1.754,0.228,2.648V53.401z"/>
			<path fill="#FFFFFF" d="M201.128,53.401V28.339h11.085c1.153,0,2.219,0.242,3.196,0.725c0.975,0.483,1.818,1.118,2.523,1.905
				c0.704,0.79,1.258,1.683,1.659,2.683c0.401,1,0.6,2.007,0.6,3.019c0,1.624-0.406,3.101-1.216,4.43
				c-0.813,1.33-1.912,2.29-3.301,2.876l5.719,9.425h-5.472l-5.119-8.4H206v8.4H201.128z M206,40.729h6.108
				c0.446,0,0.864-0.106,1.253-0.318c0.389-0.211,0.725-0.499,1.006-0.865c0.281-0.364,0.505-0.794,0.67-1.289
				c0.165-0.493,0.247-1.022,0.247-1.588c0-0.588-0.094-1.129-0.281-1.624c-0.19-0.495-0.44-0.923-0.758-1.289
				c-0.318-0.365-0.685-0.647-1.094-0.847c-0.415-0.2-0.833-0.301-1.256-0.301H206V40.729z"/>
			<path fill="#FFFFFF" d="M232.194,53.755c-1.483,0-2.824-0.252-4.026-0.76c-1.199-0.504-2.221-1.193-3.071-2.064
				c-0.847-0.869-1.5-1.882-1.958-3.036c-0.46-1.153-0.69-2.365-0.69-3.636c0-1.317,0.225-2.558,0.671-3.723
				c0.449-1.166,1.096-2.19,1.943-3.072c0.847-0.882,1.878-1.583,3.088-2.1c1.213-0.518,2.571-0.777,4.077-0.777
				c1.505,0,2.855,0.259,4.042,0.777c1.188,0.517,2.202,1.212,3.037,2.083c0.835,0.871,1.469,1.884,1.906,3.036
				c0.435,1.153,0.654,2.354,0.654,3.601c0,0.307-0.006,0.6-0.02,0.884c-0.011,0.281-0.04,0.517-0.088,0.705h-14.296
				c0.071,0.73,0.248,1.376,0.529,1.943c0.284,0.564,0.647,1.047,1.094,1.446c0.449,0.4,0.955,0.706,1.52,0.917
				c0.565,0.212,1.154,0.318,1.764,0.318c0.94,0,1.83-0.23,2.665-0.689c0.835-0.459,1.406-1.065,1.713-1.818l4.06,1.131
				c-0.682,1.411-1.772,2.571-3.267,3.476C236.046,53.302,234.265,53.755,232.194,53.755z M236.995,42.6
				c-0.119-1.388-0.63-2.5-1.534-3.335c-0.909-0.835-2.009-1.254-3.301-1.254c-0.636,0-1.23,0.114-1.784,0.335
				c-0.554,0.224-1.04,0.537-1.466,0.936c-0.423,0.4-0.77,0.882-1.04,1.447c-0.272,0.565-0.429,1.189-0.477,1.871H236.995z"/>
			<path fill="#FFFFFF" d="M251.998,53.508c-1.247,0-2.378-0.247-3.389-0.741c-1.011-0.495-1.889-1.17-2.63-2.03
				c-0.742-0.859-1.313-1.853-1.71-2.982c-0.4-1.13-0.602-2.331-0.602-3.601c0-1.342,0.213-2.589,0.636-3.743
				c0.423-1.152,1.011-2.165,1.764-3.035c0.753-0.87,1.659-1.553,2.719-2.047c1.06-0.495,2.225-0.742,3.494-0.742
				c1.435,0,2.693,0.324,3.778,0.97c1.08,0.648,1.975,1.513,2.682,2.595v-3.249h4.13v17.616c0,1.364-0.258,2.588-0.775,3.669
				c-0.52,1.083-1.233,2.001-2.136,2.754c-0.906,0.753-1.989,1.33-3.247,1.73c-1.262,0.399-2.631,0.599-4.114,0.599
				c-2.025,0-3.725-0.335-5.103-1.005c-1.375-0.671-2.557-1.618-3.545-2.841l2.577-2.507c0.705,0.871,1.594,1.554,2.665,2.047
				c1.071,0.494,2.205,0.743,3.406,0.743c0.727,0,1.429-0.101,2.1-0.301c0.67-0.201,1.264-0.512,1.784-0.935
				c0.517-0.424,0.923-0.966,1.216-1.624c0.296-0.66,0.443-1.438,0.443-2.33V50.19c-0.614,1.06-1.472,1.877-2.577,2.453
				C254.455,53.22,253.268,53.508,251.998,53.508z M253.586,49.731c0.517,0,1.011-0.083,1.483-0.247
				c0.469-0.165,0.903-0.389,1.307-0.67c0.398-0.283,0.75-0.612,1.057-0.989c0.307-0.376,0.543-0.777,0.708-1.2v-4.412
				c-0.426-1.083-1.091-1.953-1.994-2.612c-0.906-0.659-1.855-0.988-2.844-0.988c-0.73,0-1.386,0.159-1.978,0.476
				c-0.588,0.318-1.094,0.742-1.517,1.271c-0.423,0.53-0.747,1.135-0.969,1.818c-0.224,0.684-0.335,1.39-0.335,2.118
				c0,0.753,0.128,1.46,0.386,2.118c0.259,0.659,0.62,1.236,1.077,1.729c0.46,0.494,0.995,0.883,1.605,1.166
				C252.185,49.589,252.855,49.731,253.586,49.731z"/>
			<path fill="#FFFFFF" d="M267.14,32.328v-4.693h4.73v4.693H267.14z M267.14,53.401V34.904h4.73v18.497H267.14z"/>
			<path fill="#FFFFFF" d="M283.134,53.755c-1.554,0-3.071-0.247-4.554-0.741c-1.483-0.493-2.753-1.2-3.815-2.118l1.77-2.966
				c1.128,0.801,2.227,1.408,3.298,1.818c1.071,0.413,2.136,0.618,3.196,0.618c0.94,0,1.682-0.176,2.225-0.528
				c0.54-0.354,0.81-0.859,0.81-1.519c0-0.658-0.318-1.141-0.952-1.447c-0.636-0.305-1.67-0.659-3.108-1.06
				c-1.199-0.328-2.222-0.646-3.071-0.953c-0.846-0.304-1.528-0.653-2.045-1.04c-0.52-0.389-0.895-0.835-1.13-1.342
				c-0.239-0.505-0.355-1.112-0.355-1.818c0-0.94,0.185-1.789,0.548-2.542c0.367-0.753,0.878-1.394,1.537-1.923
				s1.429-0.936,2.313-1.219c0.881-0.281,1.841-0.423,2.878-0.423c1.386,0,2.688,0.201,3.9,0.6c1.21,0.402,2.321,1.048,3.335,1.942
				l-1.906,2.859c-0.943-0.706-1.855-1.223-2.736-1.553c-0.884-0.33-1.762-0.494-2.631-0.494c-0.801,0-1.472,0.165-2.011,0.494
				c-0.542,0.33-0.813,0.859-0.813,1.588c0,0.329,0.065,0.599,0.193,0.813c0.131,0.211,0.335,0.4,0.62,0.563
				c0.281,0.165,0.653,0.324,1.111,0.478c0.46,0.153,1.031,0.313,1.713,0.476c1.27,0.331,2.358,0.659,3.264,0.989
				s1.648,0.708,2.225,1.131c0.577,0.422,1,0.912,1.27,1.464c0.272,0.553,0.406,1.217,0.406,1.994c0,1.813-0.671,3.242-2.012,4.289
				C287.265,53.232,285.441,53.755,283.134,53.755z"/>
			<path fill="#FFFFFF" d="M304.773,52.448c-0.636,0.283-1.412,0.565-2.329,0.848c-0.918,0.283-1.884,0.423-2.895,0.423
				c-0.659,0-1.278-0.083-1.855-0.248c-0.577-0.165-1.083-0.427-1.517-0.794c-0.435-0.365-0.781-0.835-1.04-1.412
				c-0.261-0.577-0.389-1.276-0.389-2.101V38.541h-2.435v-3.636h2.435v-6h4.73v6h3.884v3.636h-3.884v9.037
				c0,0.659,0.171,1.125,0.512,1.394c0.341,0.271,0.758,0.406,1.252,0.406c0.495,0,0.978-0.081,1.449-0.246
				c0.469-0.165,0.847-0.307,1.128-0.423L304.773,52.448z"/>
			<path fill="#FFFFFF" d="M318.256,39c-1.435,0.024-2.719,0.301-3.847,0.83c-1.131,0.53-1.943,1.324-2.438,2.383v11.189h-4.73
				V34.904h4.344v3.955c0.33-0.635,0.716-1.206,1.165-1.712c0.446-0.507,0.929-0.947,1.446-1.324s1.043-0.665,1.571-0.865
				c0.531-0.2,1.042-0.301,1.537-0.301c0.259,0,0.452,0,0.583,0c0.128,0,0.253,0.013,0.37,0.037V39z"/>
			<path fill="#FFFFFF" d="M321.293,57.002c0.398,0.118,0.787,0.206,1.165,0.266c0.375,0.058,0.693,0.088,0.952,0.088
				c0.307,0,0.588-0.058,0.847-0.176c0.258-0.118,0.497-0.325,0.707-0.618c0.213-0.295,0.423-0.7,0.637-1.217
				c0.21-0.519,0.435-1.167,0.67-1.943l-7.307-18.497h4.87l5.014,14.403l4.446-14.403h4.449l-7.767,22.169
				c-0.446,1.294-1.21,2.354-2.293,3.178c-1.082,0.822-2.426,1.234-4.025,1.234c-0.378,0-0.759-0.03-1.148-0.088
				c-0.386-0.058-0.792-0.158-1.216-0.3V57.002z"/>
		</g>
	</g>
</g>
</svg>
