<?xml version="1.0" encoding="utf-8"?>
<!-- Generator: Adobe Illustrator 16.0.3, SVG Export Plug-In . SVG Version: 6.00 Build 0)  -->
<!DOCTYPE svg PUBLIC "-//W3C//DTD SVG 1.1//EN" "http://www.w3.org/Graphics/SVG/1.1/DTD/svg11.dtd">
<svg version="1.1" id="Capa_1" xmlns="http://www.w3.org/2000/svg" xmlns:xlink="http://www.w3.org/1999/xlink" x="0px" y="0px"
	 width="150px" height="150px" viewBox="0 0 150 150" enable-background="new 0 0 150 150" xml:space="preserve">
<g>
	<g>
		<circle fill="#82B547" cx="75" cy="75" r="75"/>
	</g>
	<g>
		<path fill="#FFFFFF" d="M103.554,87.506c-1.152,0-2.086,0.936-2.086,2.088v22.953c0,1.15-0.936,2.088-2.086,2.088H45.146
			c-1.148,0-2.086-0.938-2.086-2.088V56.225h18.775c1.15,0,2.084-0.934,2.084-2.084V35.365h35.463c1.15,0,2.086,0.938,2.086,2.088
			v18.904c0,1.15,0.934,2.084,2.086,2.084s2.086-0.934,2.086-2.084V37.453c0-3.453-2.807-6.26-6.258-6.26H61.835
			c-0.016,0-0.027,0.004-0.039,0.004c-0.127,0.002-0.252,0.012-0.375,0.039c-0.016,0.002-0.029,0.008-0.043,0.01
			c-0.105,0.023-0.207,0.057-0.309,0.096c-0.037,0.016-0.072,0.031-0.107,0.049c-0.08,0.037-0.156,0.078-0.23,0.125
			c-0.029,0.02-0.063,0.037-0.094,0.057c-0.098,0.07-0.189,0.145-0.275,0.229c-0.002,0.002-0.002,0.004-0.004,0.006L39.499,52.664
			c-0.088,0.088-0.162,0.184-0.232,0.281c-0.02,0.029-0.037,0.061-0.057,0.092c-0.047,0.076-0.088,0.152-0.125,0.232
			c-0.018,0.035-0.033,0.07-0.049,0.107c-0.039,0.098-0.07,0.201-0.094,0.305c-0.004,0.016-0.01,0.031-0.014,0.045
			c-0.023,0.123-0.035,0.248-0.037,0.373c0,0.014-0.004,0.027-0.004,0.041v58.406c0,3.451,2.807,6.26,6.258,6.26h54.236
			c3.451,0,6.258-2.809,6.258-6.26V89.594C105.64,88.441,104.706,87.506,103.554,87.506z M59.749,38.314v13.74h-13.74L59.749,38.314
			z"/>
		<path fill="#F5F5F5" d="M115.497,62.795c-0.156-0.092-0.322-0.154-0.488-0.203l-12.23,20.621c0.129,0.135,0.271,0.262,0.439,0.359
			c0.332,0.197,0.697,0.291,1.059,0.291c0.713,0,1.41-0.367,1.799-1.025l10.156-17.186C116.817,64.66,116.489,63.381,115.497,62.795
			z"/>
		<path fill="#F5F5F5" d="M115.577,51.445c-1.488-0.877-3.408-0.385-4.287,1.102l-29.166,49.35
			c-0.879,1.488-0.385,3.406,1.102,4.285c0.502,0.295,1.049,0.436,1.59,0.436c1.07,0,2.113-0.549,2.697-1.537l29.164-49.348
			C117.558,54.244,117.063,52.326,115.577,51.445z"/>
		<path fill="#FFFFFF" d="M93.124,51.982H72.265c-1.152,0-2.088,0.934-2.088,2.086c0,1.15,0.936,2.086,2.088,2.086h20.859
			c1.152,0,2.084-0.936,2.084-2.086C95.208,52.916,94.276,51.982,93.124,51.982z"/>
		<path fill="#FFFFFF" d="M95.208,68.67c0-1.152-0.932-2.086-2.084-2.086H51.403c-1.152,0-2.086,0.934-2.086,2.086
			c0,1.15,0.934,2.086,2.086,2.086h41.721C94.276,70.756,95.208,69.82,95.208,68.67z"/>
		<path fill="#FFFFFF" d="M88.69,83.271c0-1.152-0.934-2.086-2.086-2.086H51.403c-1.152,0-2.086,0.934-2.086,2.086
			s0.934,2.086,2.086,2.086h35.201C87.757,85.357,88.69,84.424,88.69,83.271z"/>
		<path fill="#F5F5F5" d="M77.649,106.5c-0.84,0.213-1.324-0.143-2.719-2.762c-0.879-1.65-1.787-3.355-3.531-3.969
			c-2.445-0.859-4.447,1.107-6.215,2.844c-0.785,0.768-2.414,2.35-2.998,2.268c-0.49-0.086-0.729-0.807-1.193-2.93
			c-0.338-1.535-0.758-3.447-1.729-5.293c-1.029-1.961-2.568-2.064-3.182-2.021c-2.328,0.174-4.564,3.287-6.648,9.258
			c-0.381,1.088,0.193,2.275,1.281,2.656c1.088,0.379,2.277-0.193,2.656-1.283c0.762-2.18,1.836-4.451,2.645-5.689
			c0.418,1.066,0.664,2.182,0.9,3.268c0.545,2.48,1.223,5.566,4.555,6.145c2.695,0.469,4.879-1.678,6.635-3.4
			c0.578-0.566,1.492-1.467,2.012-1.764c0.336,0.379,0.822,1.293,1.131,1.873c1.035,1.943,2.684,5.039,5.957,5.039
			c0.453,0,0.939-0.061,1.459-0.191c1.117-0.279,1.795-1.414,1.516-2.531C79.899,106.898,78.767,106.221,77.649,106.5z"/>
		<path fill="#AFDD73" d="M115.497,62.795c-0.156-0.092-0.322-0.154-0.488-0.203l-12.23,20.621c0.129,0.135,0.271,0.262,0.439,0.359
			c0.332,0.197,0.697,0.291,1.059,0.291c0.713,0,1.41-0.367,1.799-1.025l10.156-17.186C116.817,64.66,116.489,63.381,115.497,62.795
			z"/>
		<path fill="#AFDD73" d="M115.577,51.445c-1.488-0.877-3.408-0.385-4.287,1.102l-29.166,49.35
			c-0.879,1.488-0.385,3.406,1.102,4.285c0.502,0.295,1.049,0.436,1.59,0.436c1.07,0,2.113-0.549,2.697-1.537l29.164-49.348
			C117.558,54.244,117.063,52.326,115.577,51.445z"/>
		<path fill="#AFDD73" d="M77.649,106.5c-0.84,0.213-1.324-0.143-2.719-2.762c-0.879-1.65-1.787-3.355-3.531-3.969
			c-2.445-0.859-4.447,1.107-6.215,2.844c-0.785,0.768-2.414,2.35-2.998,2.268c-0.49-0.086-0.729-0.807-1.193-2.93
			c-0.338-1.535-0.758-3.447-1.729-5.293c-1.029-1.961-2.568-2.064-3.182-2.021c-2.328,0.174-4.564,3.287-6.648,9.258
			c-0.381,1.088,0.193,2.275,1.281,2.656c1.088,0.379,2.277-0.193,2.656-1.283c0.762-2.18,1.836-4.451,2.645-5.689
			c0.418,1.066,0.664,2.182,0.9,3.268c0.545,2.48,1.223,5.566,4.555,6.145c2.695,0.469,4.879-1.678,6.635-3.4
			c0.578-0.566,1.492-1.467,2.012-1.764c0.336,0.379,0.822,1.293,1.131,1.873c1.035,1.943,2.684,5.039,5.957,5.039
			c0.453,0,0.939-0.061,1.459-0.191c1.117-0.279,1.795-1.414,1.516-2.531C79.899,106.898,78.767,106.221,77.649,106.5z"/>
	</g>
</g>
</svg>
