<?xml version="1.0" encoding="utf-8"?>
<!-- Generator: Adobe Illustrator 16.0.3, SVG Export Plug-In . SVG Version: 6.00 Build 0)  -->
<!DOCTYPE svg PUBLIC "-//W3C//DTD SVG 1.1//EN" "http://www.w3.org/Graphics/SVG/1.1/DTD/svg11.dtd">
<svg version="1.1" id="Capa_1" xmlns="http://www.w3.org/2000/svg" xmlns:xlink="http://www.w3.org/1999/xlink" x="0px" y="0px"
	 width="150px" height="150px" viewBox="0 0 150 150" enable-background="new 0 0 150 150" xml:space="preserve">
<g>
	<g>
		<circle fill="#82B547" cx="75" cy="75" r="75"/>
	</g>
	<g>
		<path fill="#FFFFFF" d="M81.291,86.055H68.084c-1.221,0-2.211,0.989-2.211,2.212s0.99,2.213,2.211,2.213h13.207
			c1.222,0,2.213-0.99,2.213-2.213S82.513,86.055,81.291,86.055z"/>
		<path fill="#AFDD73" d="M52.556,68.648c-2.82,5.55-2.41,10.285-2.392,10.484c0.108,1.144,1.07,1.996,2.198,1.996
			c0.065,0,0.134-0.003,0.201-0.009c0.972-0.087,1.732-0.798,1.946-1.703h33.43c1.22,0,2.211-0.989,2.211-2.211
			s-0.991-2.212-2.211-2.212H54.916c1.046-4.805,5.002-12.998,19.511-17.157c-1.993-0.804-3.663-1.395-6.441-2.436
			C59.038,59.127,54.674,64.48,52.556,68.648z"/>
		<path fill="#AFDD73" d="M93.717,44.578c0.485-1.113-0.021-2.402-1.128-2.897c-1.107-0.496-2.414,0.002-2.919,1.106
			c-0.133,0.289-3.332,6.996-15.169,10.428c2.596,1.018,3.613,1.302,6.468,2.348C90.7,51.225,93.579,44.892,93.717,44.578z"/>
		<path fill="#FFFFFF" d="M110.159,104.64L98.309,90.118c7.329-6.656,11.576-16.103,11.576-26.187
			c0-9.454-3.681-18.342-10.366-25.027s-15.574-10.367-25.03-10.367c-19.516,0-35.395,15.879-35.395,35.396
			S54.973,99.327,74.49,99.327c6.571,0,12.944-1.804,18.504-5.222l12.024,14.731c0.656,0.803,1.609,1.22,2.573,1.22
			c0.738,0,1.479-0.244,2.096-0.747C111.107,108.151,111.318,106.061,110.159,104.64z M74.49,94.903
			c-17.079,0-30.973-13.894-30.973-30.971s13.894-30.971,30.971-30.971c8.272,0,16.052,3.221,21.9,9.072
			c5.851,5.849,9.07,13.626,9.07,21.897c0,10.468-5.229,20.151-13.99,25.906C86.424,93.151,80.555,94.903,74.49,94.903z"/>
		<path fill="#F5F5F5" d="M87.564,110.709H71.341c-1.223,0-2.213-0.99-2.213-2.212s0.99-2.212,2.213-2.212h13.282
			c-0.401-0.403-0.837-0.789-1.316-1.147c-0.977-0.733-1.175-2.12-0.44-3.098c0.733-0.977,2.12-1.175,3.097-0.441
			c8.237,6.181,7.581,17.329,7.549,17.802c-0.078,1.168-1.051,2.063-2.205,2.063c-0.049,0-0.101-0.002-0.151-0.006
			c-1.219-0.083-2.14-1.138-2.058-2.357C89.103,119.038,89.347,114.873,87.564,110.709z"/>
		<path fill="#FFFFFF" d="M63.015,101.599c0.976-0.734,2.362-0.535,3.097,0.442c0.733,0.977,0.535,2.363-0.441,3.097
			c-3.613,2.71-4.985,6.877-5.5,9.956h22.105c1.22,0,2.211,0.99,2.211,2.212c0,1.223-0.991,2.213-2.211,2.213H59.864
			c-0.125,1.033-0.966,1.866-2.043,1.938c-0.051,0.004-0.103,0.006-0.151,0.006c-1.152,0-2.127-0.895-2.205-2.063
			C55.433,118.928,54.776,107.779,63.015,101.599z"/>
		<path fill="#AFDD73" d="M87.564,110.709H71.341c-1.223,0-2.213-0.99-2.213-2.212s0.99-2.212,2.213-2.212h13.282
			c-0.401-0.403-0.837-0.789-1.316-1.147c-0.977-0.733-1.175-2.12-0.44-3.098c0.733-0.977,2.12-1.175,3.097-0.441
			c8.237,6.181,7.581,17.329,7.549,17.802c-0.078,1.168-1.051,2.063-2.205,2.063c-0.049,0-0.101-0.002-0.151-0.006
			c-1.219-0.083-2.14-1.138-2.058-2.357C89.103,119.038,89.347,114.873,87.564,110.709z"/>
		<path fill="#FFFFFF" d="M80.969,55.563c-2.854-1.046-3.872-1.33-6.468-2.348c-5.929-1.921-9.305-4.327-11.223-6.482h17.387
			c1.221,0,2.211-0.991,2.211-2.213c0-1.223-0.99-2.213-2.211-2.213H60.879c-0.012-0.054-0.022-0.107-0.032-0.158
			c-0.224-1.201-1.38-1.996-2.578-1.771c-1.201,0.223-1.995,1.377-1.771,2.578c0.572,3.092,2.881,8.367,11.488,12.446
			c2.778,1.041,4.448,1.632,6.441,2.436c5.783,1.855,9.903,4.159,12.828,6.538H68.084c-1.221,0-2.211,0.99-2.211,2.213
			c0,1.221,0.99,2.212,2.211,2.212h23.36c3.296,4.687,2.97,8.727,2.937,9.045c-0.136,1.207,0.73,2.299,1.938,2.442
			c0.088,0.011,0.176,0.017,0.264,0.017c1.104,0,2.06-0.827,2.192-1.952C98.852,77.716,100.24,63.909,80.969,55.563z"/>
	</g>
</g>
</svg>
