<?xml version="1.0" encoding="utf-8"?>
<!-- Generator: Adobe Illustrator 16.0.3, SVG Export Plug-In . SVG Version: 6.00 Build 0)  -->
<!DOCTYPE svg PUBLIC "-//W3C//DTD SVG 1.1//EN" "http://www.w3.org/Graphics/SVG/1.1/DTD/svg11.dtd">
<svg version="1.1" id="Capa_1" xmlns="http://www.w3.org/2000/svg" xmlns:xlink="http://www.w3.org/1999/xlink" x="0px" y="0px"
	 width="150px" height="150px" viewBox="0 0 150 150" enable-background="new 0 0 150 150" xml:space="preserve">
<g>
	<circle fill="#82B547" cx="75" cy="75" r="75"/>
	<g>
		<path fill="#F5F5F5" d="M101.44,80.412c-9.887,0-17.93,8.044-17.93,17.931c0,9.889,8.043,17.933,17.93,17.933
			c9.889,0,17.932-8.044,17.932-17.933C119.372,88.456,111.329,80.412,101.44,80.412z M101.44,112.056
			c-7.561,0-13.711-6.151-13.711-13.713c0-7.561,6.15-13.712,13.711-13.712c7.563,0,13.713,6.151,13.713,13.712
			C115.153,105.904,109.003,112.056,101.44,112.056z"/>
		<path fill="#F5F5F5" d="M108.403,96.234h-4.852v-4.853c0-1.165-0.945-2.108-2.111-2.108c-1.164,0-2.107,0.943-2.107,2.108v4.853
			h-4.854c-1.164,0-2.109,0.944-2.109,2.108c0,1.166,0.945,2.11,2.109,2.11h4.854v4.853c0,1.164,0.943,2.109,2.107,2.109
			c1.166,0,2.111-0.945,2.111-2.109v-4.853h4.852c1.164,0,2.109-0.944,2.109-2.11C110.513,97.179,109.567,96.234,108.403,96.234z"/>
		<path fill="#FFFFFF" d="M82.964,112.056H46.847v-9.577c0-15.669,12.748-28.417,28.418-28.417c5.174,0,10.238,1.404,14.645,4.06
			c0.996,0.602,2.293,0.28,2.895-0.718c0.602-0.999,0.281-2.295-0.717-2.896c-2.053-1.237-4.23-2.232-6.488-2.985
			c7.496-3.841,12.643-11.643,12.643-20.629c0-12.775-10.395-23.168-23.17-23.168S51.903,38.117,51.903,50.893
			c0,9.051,5.219,16.901,12.805,20.712c-12.83,4.399-22.08,16.573-22.08,30.874v13.797h40.336c1.166,0,2.109-0.945,2.109-2.109
			C85.073,113,84.13,112.056,82.964,112.056z M56.122,50.893c0-10.449,8.5-18.949,18.949-18.949s18.951,8.5,18.951,18.949
			s-8.502,18.95-18.951,18.95S56.122,61.342,56.122,50.893z"/>
		<path fill="#AFDD73" d="M101.44,80.412c-9.887,0-17.93,8.044-17.93,17.931c0,9.889,8.043,17.933,17.93,17.933
			c9.889,0,17.932-8.044,17.932-17.933C119.372,88.456,111.329,80.412,101.44,80.412z M101.44,112.056
			c-7.561,0-13.711-6.151-13.711-13.713c0-7.561,6.15-13.712,13.711-13.712c7.563,0,13.713,6.151,13.713,13.712
			C115.153,105.904,109.003,112.056,101.44,112.056z"/>
		<path fill="#AFDD73" d="M108.403,96.234h-4.852v-4.853c0-1.165-0.945-2.108-2.111-2.108c-1.164,0-2.107,0.943-2.107,2.108v4.853
			h-4.854c-1.164,0-2.109,0.944-2.109,2.108c0,1.166,0.945,2.11,2.109,2.11h4.854v4.853c0,1.164,0.943,2.109,2.107,2.109
			c1.166,0,2.111-0.945,2.111-2.109v-4.853h4.852c1.164,0,2.109-0.944,2.109-2.11C110.513,97.179,109.567,96.234,108.403,96.234z"/>
	</g>
</g>
</svg>
