<?xml version="1.0" encoding="UTF-8" standalone="no"?>
<!-- Generator: Adobe Illustrator 16.0.3, SVG Export Plug-In . SVG Version: 6.00 Build 0)  -->
<!DOCTYPE svg  PUBLIC '-//W3C//DTD SVG 1.1//EN'  'http://www.w3.org/Graphics/SVG/1.1/DTD/svg11.dtd'>
<svg id="Capa_1" xmlns="http://www.w3.org/2000/svg" xml:space="preserve" height="196px" viewBox="0 0 328 196" width="328px" version="1.1" y="0px" x="0px" xmlns:xlink="http://www.w3.org/1999/xlink" enable-background="new 0 0 328 196">
	<circle cy="42.321" cx="86.208" r="13.806" fill="#0EA7B5"/>
	<circle cy="108.9" cx="140.26" r="10.938" fill="#0C457D"/>
	<path d="m122.74 96.906c0-20.143-16.387-36.531-36.531-36.531-20.141 0-36.529 16.389-36.529 36.531 0 2.346 1.9 4.248 4.248 4.248 2.346 0 4.248-1.902 4.248-4.248 0-8.645 4.302-16.385 10.472-21.533l5.352 45.421v57.457c0 2.346 2.321 4.25 4.667 4.25s4.333-1.9 4.333-4.25v-52.25h7v52.25c0 2.346 2.654 4.25 5 4.25s5-1.904 5-4.25v-55.521l4.666-47.355c6.17 5.148 9.841 12.889 9.841 21.533 0 2.346 1.771 4.248 4.117 4.248 2.34-0.01 4.11-1.908 4.11-4.254z" fill="#0EA7B5"/>
	<path d="m237.86 56.127c7.623 0 13.805-6.18 13.805-13.807 0-7.623-6.182-13.805-13.805-13.805-7.627 0-13.807 6.182-13.807 13.805 0 7.627 6.18 13.807 13.81 13.807z" fill="#E8702A"/>
	<path d="m237.86 60.375c-20.145 0-36.531 16.389-36.531 36.531 0 2.346 1.9 4.248 4.246 4.248s4.248-1.902 4.248-4.248c0-9.797 5.051-18.664 12.684-23.68l-6.96 80.778h9.45v24.25c0 2.346 2.154 4.25 4.5 4.25 2.344 0 4.5-1.904 4.5-4.25v-24.25h7v24.25c0 2.346 2.154 4.25 4.5 4.25s4.5-1.904 4.5-4.25v-24.25h8.671l-7.033-81.73c8.504 4.82 14.252 14.067 14.252 24.521 0 2.346 1.902 4.303 4.248 4.303 2.348 0 4.248-1.87 4.248-4.216 0-20.142-16.39-36.499-36.53-36.499z" fill="#E8702A"/>
	<circle cy="108.9" cx="183.8" r="10.938" fill="#0C457D"/>
	<path d="m205.57 103.49c-1.582 0-2.863 1.281-2.863 2.865 0 10.424-8.48 18.904-18.906 18.904-0.035 0-0.07 0-0.107 0.002-7.549 0.281-13.84 2.846-18.188 7.41-1.377 1.445-2.537 3.066-3.475 4.832-0.938-1.766-2.098-3.387-3.475-4.832-4.348-4.564-10.637-7.129-18.189-7.41-0.033-0.002-0.07-0.002-0.107-0.002-10.426 0-18.904-8.48-18.904-18.904 0-1.584-1.283-2.865-2.865-2.865s-2.863 1.281-2.863 2.865c0 10.525 6.635 19.639 15.947 23.16l-4.37 37.48h5.8v12.736c0 1.467 1.033 2.656 2.5 2.656 1.465 0 2.5-1.189 2.5-2.656v-12.74h6v12.736c0 1.467 1.034 2.656 2.5 2.656 1.467 0 2.5-1.189 2.5-2.656v-12.74h4.431l-4.024-33.789c6.184 2.928 9.594 8.555 9.594 16.49v0.217c0 1.584 1.501 3.082 3.083 3.082h-0.181c1.584 0 3.099-1.627 3.099-3.209v-0.004c0-7.203 1.91-12.662 7.061-15.801l1.94 20.38v25.363c0 1.467 1.033 2.656 2.5 2.656 1.466 0 2.5-1.189 2.5-2.656v-23.73h8v23.736c0 1.467 1.033 2.656 2.5 2.656s2.5-1.189 2.5-2.656v-25.365l3.643-26.354c7.684-4.176 12.854-12.318 12.854-21.66 0.01-1.6-1.34-2.88-2.92-2.88z" fill="#0C457D"/>
	<path d="m16.388 41.904h-3.223v-35.234l-10.635 3.949v-3.008l13.32-4.941h0.537v39.234z" fill="#5D5D5D"/>
<rect width="328" height="196" fill="none"/>
</svg>
