<?xml version="1.0" encoding="UTF-8" standalone="no"?>
<!-- Generator: Adobe Illustrator 16.0.3, SVG Export Plug-In . SVG Version: 6.00 Build 0)  -->
<!DOCTYPE svg  PUBLIC '-//W3C//DTD SVG 1.1//EN'  'http://www.w3.org/Graphics/SVG/1.1/DTD/svg11.dtd'>
<svg id="Capa_1" xmlns="http://www.w3.org/2000/svg" xml:space="preserve" height="196px" viewBox="0 0 328 196" width="328px" version="1.1" y="0px" x="0px" xmlns:xlink="http://www.w3.org/1999/xlink" enable-background="new 0 0 328 196">
	<path d="m51.657 70h24.707c1.379 0 2.5 1.121 2.5 2.5s-1.121 2.5-2.5 2.5h-1.364v73.954c0 0.513-0.186 1.013-0.215 1.498-0.432 7.557-4.102 11.854-10.371 11.854-6.673 0-10.414-4.866-10.414-13.352v-73.95h-2.343c-1.379 0-2.5-1.121-2.5-2.5s1.121-2.5 2.5-2.5zm18.343 5h-11v23h11v-23zm-18.646-4.003c0.1-0.015 0.199-0.03 0.303-0.03-0.103 0-0.205 0.011-0.303 0.03zm25.01-0.03c0.104 0 0.203 0.016 0.303 0.03-0.098-0.019-0.199-0.03-0.303-0.03zm-21.666 79.433" fill="#0EA7B5"/>
	<rect y="56" x="56" height="10" width="17" fill="#5D5D5D"/>
			<rect stroke-linejoin="round" height="105" width="172" stroke="#D3D3D3" stroke-linecap="round" stroke-miterlimit="10" y="73.5" x="125.5" stroke-width="5" fill="#fff"/>
		<polygon stroke-linejoin="round" points="134.5 26.434 100.36 49.5 134.5 49.5" stroke="#D3D3D3" stroke-linecap="round" stroke-miterlimit="10" stroke-width="5" fill="#fff"/>
		<polygon stroke-linejoin="round" points="125.5 73.601 125.5 152.6 125.5 178.6 100.5 152.6 100.5 49.629" stroke="#D3D3D3" stroke-linecap="round" stroke-miterlimit="10" stroke-width="5" fill="#AFAFAF"/>
		<polygon stroke-linejoin="round" points="125.01 73.55 100.16 49.5 271.62 49.5 297.16 73.539" stroke="#D3D3D3" stroke-linecap="round" stroke-miterlimit="10" stroke-width="5" fill="#fff"/>
		<polygon stroke-linejoin="round" points="125.5 73.601 155.5 86.542 155.5 191.5 125.5 178.64" stroke="#D3D3D3" stroke-linecap="round" stroke-miterlimit="10" stroke-width="5" fill="#fff"/>
	<path d="m27.922 41.904h-24.492v-2.471l13.4-15.199c2.22-2.561 3.76-4.674 4.619-6.338 0.859-1.666 1.289-3.285 1.289-4.861 0-2.471-0.725-4.426-2.176-5.867-1.449-1.441-3.446-2.162-5.988-2.162-2.632 0-4.758 0.842-6.378 2.523-1.62 1.684-2.431 3.867-2.431 6.553h-3.195c0-2.201 0.496-4.207 1.49-6.016 0.994-1.808 2.409-3.226 4.244-4.255s3.925-1.545 6.271-1.545c3.58 0 6.378 0.941 8.393 2.82 2.014 1.881 3.021 4.439 3.021 7.682 0 1.826-0.568 3.822-1.706 5.988-1.137 2.166-3.138 4.869-6.002 8.109l-10.904 12.328h20.545v2.711z" fill="#5D5D5D"/>
				<line stroke-linejoin="round" x1="193" y2="144" x2="193" stroke="#0C457D" stroke-linecap="round" y1="150" stroke-width="2" fill="none"/>
				<circle cy="150.07" cx="193.08" r="1.847" fill="#0C457D"/>
				<line stroke-linejoin="round" x1="186" y2="141" x2="186" stroke="#0C457D" stroke-linecap="round" y1="154" stroke-width="2" fill="none"/>
				<circle cy="153.44" cx="185.6" r="2.217" fill="#0C457D"/>
				<line stroke-linejoin="round" x1="178" y2="137" x2="178" stroke="#0C457D" stroke-linecap="round" y1="157" stroke-width="2" fill="none"/>
				<circle cy="156.81" cx="178.13" r="2.586" fill="#0C457D"/>
				<line stroke-linejoin="round" x1="171" y2="133" x2="171" stroke="#0C457D" stroke-linecap="round" y1="154" stroke-width="2" fill="none"/>
				<circle cy="153.44" cx="170.65" r="2.217" fill="#0C457D"/>
				<line stroke-linejoin="round" x1="163" y2="129" x2="163" stroke="#0C457D" stroke-linecap="round" y1="146" stroke-width="2" fill="none"/>
				<circle cy="146.33" cx="163.18" r="1.847" fill="#0C457D"/>
				<line stroke-linejoin="round" x1="201" y2="141" x2="201" stroke="#0C457D" stroke-linecap="round" y1="128" stroke-width="2" fill="none"/>
				<circle cy="127.59" cx="200.56" r="1.847" fill="#0C457D"/>
				<line stroke-linejoin="round" x1="238" y2="122" x2="238" stroke="#0C457D" stroke-linecap="round" y1="116" stroke-width="2" fill="none"/>
				<circle cy="116.38" cx="237.94" r="1.847" fill="#0C457D"/>
				<line stroke-linejoin="round" x1="230" y2="126" x2="230" stroke="#0C457D" stroke-linecap="round" y1="113" stroke-width="2" fill="none"/>
				<circle cy="113.01" cx="230.47" r="2.217" fill="#0C457D"/>
				<line stroke-linejoin="round" x1="223" y2="129" x2="223" stroke="#0C457D" stroke-linecap="round" y1="110" stroke-width="2" fill="none"/>
				<circle cy="109.64" cx="222.99" r="2.586" fill="#0C457D"/>
				<line stroke-linejoin="round" x1="216" y2="133" x2="216" stroke="#0C457D" stroke-linecap="round" y1="113" stroke-width="2" fill="none"/>
				<circle cy="113.01" cx="215.51" r="2.217" fill="#0C457D"/>
				<line stroke-linejoin="round" x1="208" y2="137" x2="208" stroke="#0C457D" stroke-linecap="round" y1="120" stroke-width="2" fill="none"/>
				<circle cy="120.12" cx="208.04" r="1.847" fill="#0C457D"/>
				<line stroke-linejoin="round" x1="245" y2="126" x2="245" stroke="#0C457D" stroke-linecap="round" y1="139" stroke-width="2" fill="none"/>
				<circle cy="138.86" cx="245.42" r="1.847" fill="#0C457D"/>
				<line stroke-linejoin="round" x1="283" y2="144" x2="283" stroke="#0C457D" stroke-linecap="round" y1="150" stroke-width="2" fill="none"/>
				<circle cy="150.07" cx="282.8" r="1.847" fill="#0C457D"/>
				<line stroke-linejoin="round" x1="275" y2="141" x2="275" stroke="#0C457D" stroke-linecap="round" y1="154" stroke-width="2" fill="none"/>
				<circle cy="153.44" cx="275.33" r="2.217" fill="#0C457D"/>
				<line stroke-linejoin="round" x1="268" y2="137" x2="268" stroke="#0C457D" stroke-linecap="round" y1="157" stroke-width="2" fill="none"/>
				<circle cy="156.81" cx="267.85" r="2.586" fill="#0C457D"/>
				<line stroke-linejoin="round" x1="260" y2="133" x2="260" stroke="#0C457D" stroke-linecap="round" y1="154" stroke-width="2" fill="none"/>
				<circle cy="153.44" cx="260.37" r="2.217" fill="#0C457D"/>
				<line stroke-linejoin="round" x1="253" y2="129" x2="253" stroke="#0C457D" stroke-linecap="round" y1="146" stroke-width="2" fill="none"/>
				<circle cy="146.33" cx="252.9" r="1.847" fill="#0C457D"/>
				<line stroke-linejoin="round" x1="290" y2="141" x2="290" stroke="#0C457D" stroke-linecap="round" y1="128" stroke-width="2" fill="none"/>
				<circle cy="127.59" cx="290.28" r="1.847" fill="#0C457D"/>
				<line stroke-linejoin="round" x1="186" y2="137" x2="186" stroke="#E8702A" stroke-linecap="round" y1="124" stroke-width="2" fill="none"/>
				<circle cy="123.86" cx="185.6" r="1.847" fill="#E8702A"/>
				<line stroke-linejoin="round" x1="193" y2="141" x2="193" stroke="#E8702A" stroke-linecap="round" y1="135" stroke-width="2" fill="none"/>
				<circle cy="134.7" cx="193.08" r="1.478" fill="#E8702A"/>
				<line stroke-linejoin="round" x1="163" y2="126" x2="163" stroke="#E8702A" stroke-linecap="round" y1="106" stroke-width="2" fill="none"/>
				<circle cy="105.9" cx="163.18" r="2.586" fill="#E8702A"/>
				<line stroke-linejoin="round" x1="171" y2="129" x2="171" stroke="#E8702A" stroke-linecap="round" y1="109" stroke-width="2" fill="none"/>
				<circle cy="109.27" cx="170.65" r="2.217" fill="#E8702A"/>
				<line stroke-linejoin="round" x1="178" y2="133" x2="178" stroke="#E8702A" stroke-linecap="round" y1="116" stroke-width="2" fill="none"/>
				<circle cy="116.38" cx="178.13" r="1.847" fill="#E8702A"/>
				<line stroke-linejoin="round" x1="230" y2="129" x2="230" stroke="#E8702A" stroke-linecap="round" y1="143" stroke-width="2" fill="none"/>
				<circle cy="142.59" cx="230.47" r="1.847" fill="#E8702A"/>
				<line stroke-linejoin="round" x1="238" y2="126" x2="238" stroke="#E8702A" stroke-linecap="round" y1="132" stroke-width="2" fill="none"/>
				<circle cy="131.75" cx="237.94" r="1.478" fill="#E8702A"/>
				<line stroke-linejoin="round" x1="201" y2="144" x2="201" stroke="#E8702A" stroke-linecap="round" y1="157" stroke-width="2" fill="none"/>
				<circle cy="157.18" cx="200.56" r="2.217" fill="#E8702A"/>
				<line stroke-linejoin="round" x1="208" y2="141" x2="208" stroke="#E8702A" stroke-linecap="round" y1="161" stroke-width="2" fill="none"/>
				<circle cy="160.55" cx="208.04" r="2.586" fill="#E8702A"/>
				<line stroke-linejoin="round" x1="216" y2="137" x2="216" stroke="#E8702A" stroke-linecap="round" y1="157" stroke-width="2" fill="none"/>
				<circle cy="157.18" cx="215.51" r="2.217" fill="#E8702A"/>
				<line stroke-linejoin="round" x1="223" y2="133" x2="223" stroke="#E8702A" stroke-linecap="round" y1="150" stroke-width="2" fill="none"/>
				<circle cy="150.07" cx="222.99" r="1.847" fill="#E8702A"/>
				<line stroke-linejoin="round" x1="275" y2="137" x2="275" stroke="#E8702A" stroke-linecap="round" y1="124" stroke-width="2" fill="none"/>
				<circle cy="123.86" cx="275.33" r="1.847" fill="#E8702A"/>
				<line stroke-linejoin="round" x1="283" y2="141" x2="283" stroke="#E8702A" stroke-linecap="round" y1="135" stroke-width="2" fill="none"/>
				<circle cy="134.7" cx="282.8" r="1.478" fill="#E8702A"/>
				<line stroke-linejoin="round" x1="245" y2="122" x2="245" stroke="#E8702A" stroke-linecap="round" y1="109" stroke-width="2" fill="none"/>
				<circle cy="109.27" cx="245.42" r="2.217" fill="#E8702A"/>
				<line stroke-linejoin="round" x1="253" y2="126" x2="253" stroke="#E8702A" stroke-linecap="round" y1="106" stroke-width="2" fill="none"/>
				<circle cy="105.9" cx="252.9" r="2.586" fill="#E8702A"/>
				<line stroke-linejoin="round" x1="260" y2="129" x2="260" stroke="#E8702A" stroke-linecap="round" y1="109" stroke-width="2" fill="none"/>
				<circle cy="109.27" cx="260.37" r="2.217" fill="#E8702A"/>
				<line stroke-linejoin="round" x1="268" y2="133" x2="268" stroke="#E8702A" stroke-linecap="round" y1="116" stroke-width="2" fill="none"/>
				<circle cy="116.38" cx="267.85" r="1.847" fill="#E8702A"/>
				<line stroke-linejoin="round" x1="290" y2="144" x2="290" stroke="#E8702A" stroke-linecap="round" y1="157" stroke-width="2" fill="none"/>
				<circle cy="157.18" cx="290.28" r="2.217" fill="#E8702A"/>
<rect width="328" height="196" fill="none"/>
</svg>
