<?xml version="1.0" encoding="UTF-8" standalone="no"?>
<!-- Generator: Adobe Illustrator 16.0.3, SVG Export Plug-In . SVG Version: 6.00 Build 0)  -->
<!DOCTYPE svg  PUBLIC '-//W3C//DTD SVG 1.1//EN'  'http://www.w3.org/Graphics/SVG/1.1/DTD/svg11.dtd'>
<svg id="Capa_1" xmlns="http://www.w3.org/2000/svg" xml:space="preserve" height="196px" viewBox="0 0 328 196" width="328px" version="1.1" y="0px" x="0px" xmlns:xlink="http://www.w3.org/1999/xlink" enable-background="new 0 0 328 196">
		<path d="m74.222 70h-24.707c-1.379 0-2.5 1.121-2.5 2.5s1.121 2.5 2.5 2.5h1.485v73.987c0 0.513 0.125 1.013 0.154 1.498 0.432 7.557 4.131 11.854 10.4 11.854 6.674 0 10.445-4.866 10.445-13.352v-73.99h2.222c1.379 0 2.5-1.121 2.5-2.5s-1.12-2.5-2.499-2.5zm-18.222 5h11v23h-11v-23zm18.524-3.97c-0.1-0.015-0.199-0.03-0.303-0.03 0.104 0 0.206 0.011 0.303 0.03zm-25.009-0.03c-0.104 0-0.203 0.016-0.303 0.03 0.098-0.019 0.199-0.03 0.303-0.03zm21.666 79.43" fill="#0EA7B5"/>
		<rect y="56" x="53" height="10" width="17" fill="#5D5D5D"/>
		<rect stroke-linejoin="round" height="6" width="60" stroke="#D3D3D3" stroke-linecap="round" stroke-miterlimit="10" y="176.5" x="32.5" stroke-width="5" fill="#D3D3D3"/>
		<rect stroke-linejoin="round" height="178" width="128" stroke="#D3D3D3" stroke-linecap="round" stroke-miterlimit="10" y="4.5" x="154.5" stroke-width="5" fill="#fff"/>
		<rect y="18" x="169" height="64" width="100" fill="#5D5D5D"/>
			<path d="m266 21v59h-95v-59h95m5-5h-105v69h105v-69z" fill="#fff"/>
	<g fill="#6BD2DB">
		<path d="m182.72 31.563c0.078-0.108 0.162-0.188 0.254-0.238 0.092-0.055 0.189-0.08 0.297-0.08 0.184 0 0.334 0.063 0.449 0.189 0.119 0.126 0.174 0.341 0.174 0.643v1.064c0 0.305-0.055 0.519-0.174 0.646-0.115 0.13-0.266 0.194-0.449 0.194-0.166 0-0.301-0.049-0.402-0.143-0.104-0.092-0.18-0.268-0.229-0.523-0.029-0.174-0.088-0.306-0.17-0.4-0.17-0.184-0.402-0.332-0.703-0.439-0.301-0.111-0.602-0.166-0.902-0.166-0.375 0-0.721 0.082-1.037 0.244-0.313 0.164-0.59 0.43-0.832 0.797-0.24 0.367-0.361 0.805-0.361 1.309v0.814c0 0.606 0.219 1.111 0.66 1.514 0.438 0.404 1.047 0.607 1.826 0.607 0.467 0 0.861-0.064 1.182-0.19 0.188-0.073 0.389-0.218 0.602-0.437 0.131-0.129 0.232-0.214 0.307-0.253 0.072-0.039 0.156-0.058 0.252-0.058 0.166 0 0.311 0.063 0.439 0.189 0.127 0.125 0.189 0.277 0.189 0.447 0 0.172-0.084 0.354-0.256 0.551-0.25 0.285-0.57 0.512-0.963 0.674-0.525 0.221-1.107 0.33-1.744 0.33-0.744 0-1.414-0.151-2.008-0.457-0.482-0.246-0.895-0.633-1.232-1.162-0.34-0.528-0.506-1.105-0.506-1.729v-0.854c0-0.65 0.15-1.262 0.455-1.826 0.305-0.566 0.727-1.001 1.264-1.309 0.539-0.307 1.111-0.459 1.715-0.459 0.363 0 0.703 0.043 1.018 0.126 0.31 0.085 0.61 0.212 0.88 0.385z"/>
		<path d="m189.81 36.646h-3.051l-0.305 0.766h0.305c0.303 0 0.518 0.059 0.646 0.174s0.193 0.268 0.193 0.457c0 0.182-0.064 0.334-0.193 0.448-0.129 0.118-0.344 0.176-0.646 0.176h-1.689c-0.303 0-0.518-0.058-0.646-0.176-0.129-0.114-0.193-0.268-0.193-0.454 0-0.189 0.068-0.342 0.203-0.461 0.133-0.117 0.357-0.172 0.668-0.164l1.971-4.91h-0.82c-0.303 0-0.518-0.061-0.645-0.176-0.129-0.115-0.195-0.27-0.195-0.457 0-0.186 0.066-0.338 0.195-0.457 0.127-0.114 0.342-0.172 0.645-0.172l2.713 0.006 2.498 6.166c0.293 0 0.488 0.031 0.582 0.099 0.188 0.133 0.281 0.312 0.281 0.532 0 0.182-0.063 0.334-0.189 0.448-0.127 0.118-0.34 0.176-0.643 0.176h-1.689c-0.303 0-0.52-0.058-0.646-0.176-0.129-0.114-0.193-0.268-0.193-0.454s0.064-0.336 0.193-0.451c0.127-0.115 0.344-0.174 0.646-0.174h0.307l-0.29-0.766zm-0.52-1.256l-1.012-2.488-1.014 2.488h2.02z"/>
		<path d="m198.97 36.37v1.684c-0.566 0.305-1.051 0.517-1.449 0.627-0.398 0.113-0.828 0.168-1.289 0.168-0.641 0-1.236-0.094-1.781-0.287-0.43-0.146-0.768-0.333-1.014-0.559-0.246-0.225-0.475-0.555-0.684-0.994-0.207-0.438-0.311-0.929-0.311-1.473v-0.904c0-0.839 0.254-1.586 0.764-2.242 0.686-0.891 1.619-1.336 2.799-1.336 0.344 0 0.668 0.037 0.977 0.104 0.309 0.069 0.602 0.175 0.879 0.312 0.168-0.15 0.33-0.225 0.49-0.225 0.184 0 0.332 0.063 0.447 0.189 0.113 0.126 0.172 0.341 0.172 0.643v0.813c0 0.304-0.059 0.519-0.176 0.646-0.115 0.131-0.266 0.193-0.451 0.193-0.145 0-0.271-0.045-0.377-0.134-0.084-0.062-0.15-0.196-0.207-0.409-0.055-0.208-0.117-0.35-0.188-0.423-0.109-0.119-0.305-0.224-0.582-0.316-0.281-0.093-0.594-0.138-0.941-0.138-0.498 0-0.932 0.102-1.299 0.306-0.26 0.151-0.502 0.415-0.721 0.79-0.221 0.377-0.332 0.783-0.332 1.227v0.904c0 0.675 0.195 1.186 0.584 1.535 0.393 0.35 1.01 0.523 1.859 0.523 0.576 0 1.1-0.107 1.574-0.325v-0.899h-1.279c-0.303 0-0.52-0.059-0.646-0.176-0.129-0.117-0.195-0.269-0.195-0.457 0-0.187 0.066-0.338 0.195-0.455 0.127-0.117 0.344-0.175 0.646-0.175l2.229 0.007c0.303 0 0.518 0.059 0.646 0.172 0.127 0.113 0.191 0.265 0.191 0.451 0 0.148-0.043 0.277-0.131 0.387-0.09 0.111-0.22 0.191-0.4 0.246z"/>
		<path d="m203.94 32.501v4.91h0.846c0.301 0 0.518 0.059 0.646 0.174s0.193 0.268 0.193 0.457c0 0.182-0.064 0.334-0.193 0.448-0.129 0.118-0.346 0.176-0.646 0.176h-2.939c-0.301 0-0.518-0.058-0.645-0.176-0.129-0.114-0.193-0.268-0.193-0.454s0.064-0.336 0.193-0.451c0.127-0.115 0.344-0.174 0.645-0.174h0.84v-4.91h-1.359v1.186c0 0.303-0.059 0.52-0.176 0.646-0.117 0.129-0.268 0.193-0.455 0.193-0.186 0-0.334-0.064-0.451-0.193-0.115-0.127-0.174-0.344-0.174-0.646v-2.447l6.502 0.006v2.441c0 0.303-0.059 0.52-0.174 0.646-0.115 0.129-0.27 0.193-0.455 0.193-0.184 0-0.334-0.064-0.451-0.193-0.115-0.127-0.174-0.344-0.174-0.646v-1.186h-1.38z"/>
		<path d="m212.82 31.563c0.078-0.108 0.164-0.188 0.256-0.238 0.09-0.055 0.189-0.08 0.297-0.08 0.182 0 0.334 0.063 0.449 0.189s0.174 0.341 0.174 0.643v1.064c0 0.305-0.059 0.519-0.174 0.646-0.115 0.13-0.268 0.194-0.449 0.194-0.168 0-0.303-0.049-0.406-0.143-0.102-0.092-0.178-0.268-0.225-0.523-0.029-0.174-0.088-0.306-0.172-0.4-0.168-0.184-0.4-0.332-0.699-0.439-0.301-0.111-0.604-0.166-0.904-0.166-0.375 0-0.721 0.082-1.035 0.244-0.316 0.164-0.592 0.43-0.834 0.797-0.24 0.367-0.361 0.805-0.361 1.309v0.814c0 0.606 0.219 1.111 0.66 1.514 0.436 0.404 1.047 0.607 1.826 0.607 0.467 0 0.857-0.064 1.182-0.19 0.188-0.073 0.389-0.218 0.6-0.437 0.131-0.129 0.232-0.214 0.307-0.253 0.072-0.039 0.156-0.058 0.252-0.058 0.166 0 0.314 0.063 0.439 0.189 0.127 0.125 0.191 0.277 0.191 0.447 0 0.172-0.088 0.354-0.256 0.551-0.252 0.285-0.572 0.512-0.963 0.674-0.525 0.221-1.109 0.33-1.746 0.33-0.742 0-1.412-0.151-2.008-0.457-0.48-0.246-0.893-0.633-1.23-1.162-0.34-0.528-0.508-1.105-0.508-1.729v-0.854c0-0.65 0.15-1.262 0.457-1.826 0.303-0.566 0.725-1.001 1.264-1.309 0.537-0.307 1.107-0.459 1.713-0.459 0.365 0 0.703 0.043 1.021 0.126 0.32 0.085 0.61 0.212 0.88 0.385z"/>
		<path d="m219.92 36.646h-3.049l-0.307 0.766h0.307c0.301 0 0.516 0.059 0.646 0.174 0.127 0.115 0.191 0.268 0.191 0.457 0 0.182-0.064 0.334-0.191 0.448-0.131 0.118-0.346 0.176-0.646 0.176h-1.689c-0.303 0-0.52-0.058-0.646-0.176-0.129-0.114-0.193-0.268-0.193-0.454 0-0.189 0.066-0.342 0.201-0.461 0.135-0.117 0.357-0.172 0.67-0.164l1.969-4.91h-0.82c-0.301 0-0.518-0.061-0.645-0.176-0.129-0.115-0.193-0.27-0.193-0.457 0-0.186 0.064-0.338 0.193-0.457 0.127-0.114 0.344-0.172 0.645-0.172l2.715 0.006 2.496 6.166c0.295 0 0.49 0.031 0.582 0.099 0.188 0.133 0.283 0.312 0.283 0.532 0 0.182-0.064 0.334-0.191 0.448-0.125 0.118-0.34 0.176-0.643 0.176h-1.689c-0.303 0-0.518-0.058-0.646-0.176-0.127-0.114-0.191-0.268-0.191-0.454s0.064-0.336 0.191-0.451c0.129-0.115 0.344-0.174 0.646-0.174h0.307l-0.31-0.766zm-0.52-1.256l-1.012-2.488-1.016 2.488h2.03z"/>
		<path d="m227.87 31.563c0.078-0.108 0.164-0.188 0.254-0.238 0.092-0.055 0.191-0.08 0.299-0.08 0.184 0 0.334 0.063 0.451 0.189 0.115 0.126 0.174 0.341 0.174 0.643v1.064c0 0.305-0.059 0.519-0.174 0.646-0.117 0.13-0.268 0.194-0.451 0.194-0.168 0-0.303-0.049-0.404-0.143-0.104-0.092-0.178-0.268-0.227-0.523-0.029-0.174-0.086-0.306-0.172-0.4-0.168-0.184-0.4-0.332-0.701-0.439-0.301-0.111-0.602-0.166-0.904-0.166-0.373 0-0.719 0.082-1.033 0.244-0.314 0.164-0.592 0.43-0.834 0.797-0.24 0.367-0.359 0.805-0.359 1.309v0.814c0 0.606 0.219 1.111 0.658 1.514 0.438 0.404 1.047 0.607 1.826 0.607 0.467 0 0.859-0.064 1.184-0.19 0.188-0.073 0.387-0.218 0.6-0.437 0.131-0.129 0.234-0.214 0.305-0.253 0.074-0.039 0.158-0.058 0.252-0.058 0.166 0 0.314 0.063 0.441 0.189 0.127 0.125 0.189 0.277 0.189 0.447 0 0.172-0.086 0.354-0.258 0.551-0.248 0.285-0.568 0.512-0.961 0.674-0.527 0.221-1.107 0.33-1.746 0.33-0.742 0-1.41-0.151-2.008-0.457-0.482-0.246-0.891-0.633-1.23-1.162-0.338-0.528-0.508-1.105-0.508-1.729v-0.854c0-0.65 0.15-1.262 0.457-1.826 0.303-0.566 0.725-1.001 1.262-1.309 0.541-0.307 1.111-0.459 1.717-0.459 0.363 0 0.703 0.043 1.02 0.126s0.6 0.212 0.87 0.385z"/>
		<path d="m234.97 36.646h-3.051l-0.307 0.766h0.307c0.303 0 0.518 0.059 0.646 0.174s0.193 0.268 0.193 0.457c0 0.182-0.064 0.334-0.193 0.448-0.129 0.118-0.344 0.176-0.646 0.176h-1.689c-0.303 0-0.52-0.058-0.646-0.176-0.129-0.114-0.191-0.268-0.191-0.454 0-0.189 0.066-0.342 0.201-0.461 0.135-0.117 0.357-0.172 0.666-0.164l1.971-4.91h-0.818c-0.303 0-0.518-0.061-0.646-0.176s-0.193-0.27-0.193-0.457c0-0.186 0.064-0.338 0.193-0.457 0.129-0.114 0.344-0.172 0.646-0.172l2.713 0.006 2.498 6.166c0.293 0 0.486 0.031 0.582 0.099 0.188 0.133 0.281 0.312 0.281 0.532 0 0.182-0.063 0.334-0.189 0.448-0.127 0.118-0.342 0.176-0.645 0.176h-1.689c-0.303 0-0.516-0.058-0.645-0.176-0.129-0.114-0.193-0.268-0.193-0.454s0.064-0.336 0.193-0.451 0.342-0.174 0.645-0.174h0.307l-0.28-0.766zm-0.52-1.256l-1.012-2.488-1.016 2.488h2.03z"/>
		<path d="m244.12 36.37v1.684c-0.568 0.305-1.053 0.517-1.449 0.627-0.398 0.113-0.828 0.168-1.289 0.168-0.641 0-1.236-0.094-1.783-0.287-0.426-0.146-0.766-0.333-1.014-0.559-0.246-0.225-0.475-0.555-0.682-0.994-0.209-0.438-0.313-0.929-0.313-1.473v-0.904c0-0.839 0.256-1.586 0.766-2.242 0.686-0.891 1.619-1.336 2.799-1.336 0.342 0 0.67 0.037 0.977 0.104 0.309 0.069 0.602 0.175 0.881 0.312 0.166-0.15 0.328-0.225 0.488-0.225 0.184 0 0.332 0.063 0.445 0.189s0.174 0.341 0.174 0.643v0.813c0 0.304-0.061 0.519-0.178 0.646-0.115 0.131-0.264 0.193-0.449 0.193-0.146 0-0.273-0.045-0.379-0.134-0.082-0.062-0.15-0.196-0.205-0.409-0.055-0.208-0.119-0.35-0.186-0.423-0.111-0.119-0.307-0.224-0.586-0.316s-0.592-0.138-0.939-0.138c-0.498 0-0.932 0.102-1.299 0.306-0.262 0.151-0.502 0.415-0.723 0.79-0.221 0.377-0.33 0.783-0.33 1.227v0.904c0 0.675 0.193 1.186 0.584 1.535s1.01 0.523 1.857 0.523c0.576 0 1.104-0.107 1.574-0.325v-0.899h-1.277c-0.305 0-0.52-0.059-0.648-0.176-0.127-0.117-0.189-0.269-0.189-0.457 0-0.187 0.063-0.338 0.189-0.455 0.129-0.117 0.344-0.175 0.648-0.175l2.227 0.007c0.303 0 0.518 0.059 0.646 0.172s0.195 0.265 0.195 0.451c0 0.148-0.045 0.277-0.135 0.387-0.09 0.111-0.22 0.191-0.4 0.246z"/>
		<path d="m250.02 36.646h-3.047l-0.307 0.766h0.307c0.301 0 0.516 0.059 0.646 0.174 0.127 0.115 0.189 0.268 0.189 0.457 0 0.182-0.063 0.334-0.189 0.448-0.131 0.118-0.346 0.176-0.646 0.176h-1.689c-0.305 0-0.52-0.058-0.648-0.176-0.129-0.114-0.193-0.268-0.193-0.454 0-0.189 0.066-0.342 0.203-0.461 0.133-0.117 0.355-0.172 0.668-0.164l1.971-4.91h-0.82c-0.301 0-0.518-0.061-0.646-0.176s-0.193-0.27-0.193-0.457c0-0.186 0.064-0.338 0.193-0.457 0.129-0.114 0.346-0.172 0.646-0.172l2.713 0.006 2.498 6.166c0.293 0 0.488 0.031 0.582 0.099 0.188 0.133 0.281 0.312 0.281 0.532 0 0.182-0.063 0.334-0.189 0.448-0.127 0.118-0.342 0.176-0.643 0.176h-1.689c-0.303 0-0.52-0.058-0.646-0.176-0.129-0.114-0.193-0.268-0.193-0.454s0.064-0.336 0.193-0.451c0.127-0.115 0.344-0.174 0.646-0.174h0.305l-0.3-0.766zm-0.52-1.256l-1.01-2.488-1.016 2.488h2.03z"/>
		<path d="m257.98 31.563c0.078-0.108 0.162-0.188 0.256-0.238 0.092-0.055 0.189-0.08 0.297-0.08 0.182 0 0.332 0.063 0.449 0.189 0.115 0.126 0.174 0.341 0.174 0.643v1.064c0 0.305-0.059 0.519-0.174 0.646-0.117 0.13-0.268 0.194-0.449 0.194-0.168 0-0.303-0.049-0.406-0.143-0.102-0.092-0.176-0.268-0.225-0.523-0.029-0.174-0.086-0.306-0.172-0.4-0.168-0.184-0.402-0.332-0.701-0.439-0.301-0.111-0.602-0.166-0.902-0.166-0.377 0-0.723 0.082-1.037 0.244-0.313 0.164-0.592 0.43-0.832 0.797s-0.361 0.805-0.361 1.309v0.814c0 0.606 0.221 1.111 0.658 1.514 0.439 0.404 1.049 0.607 1.828 0.607 0.465 0 0.859-0.064 1.184-0.19 0.186-0.073 0.387-0.218 0.598-0.437 0.131-0.129 0.234-0.214 0.307-0.253 0.074-0.039 0.158-0.058 0.25-0.058 0.168 0 0.316 0.063 0.441 0.189 0.129 0.125 0.189 0.277 0.189 0.447 0 0.172-0.086 0.354-0.256 0.551-0.25 0.285-0.57 0.512-0.961 0.674-0.527 0.221-1.109 0.33-1.748 0.33-0.742 0-1.41-0.151-2.006-0.457-0.482-0.246-0.893-0.633-1.23-1.162-0.342-0.528-0.51-1.105-0.51-1.729v-0.854c0-0.65 0.152-1.262 0.455-1.826 0.307-0.566 0.727-1.001 1.266-1.309 0.537-0.307 1.111-0.459 1.715-0.459 0.363 0 0.703 0.043 1.02 0.126s0.6 0.212 0.88 0.385z"/>
		<path d="m182.72 46.61c0.078-0.104 0.162-0.185 0.254-0.238s0.189-0.08 0.297-0.08c0.184 0 0.334 0.064 0.449 0.191 0.119 0.127 0.174 0.34 0.174 0.643v1.064c0 0.305-0.055 0.517-0.174 0.646-0.115 0.129-0.266 0.192-0.449 0.192-0.166 0-0.301-0.046-0.402-0.141-0.104-0.093-0.18-0.271-0.229-0.528-0.029-0.17-0.088-0.301-0.17-0.395-0.17-0.186-0.402-0.332-0.703-0.441-0.301-0.11-0.602-0.165-0.902-0.165-0.375 0-0.721 0.083-1.037 0.244-0.313 0.163-0.59 0.427-0.832 0.796-0.24 0.369-0.361 0.806-0.361 1.311v0.814c0 0.604 0.219 1.107 0.66 1.512 0.438 0.406 1.047 0.607 1.826 0.607 0.467 0 0.861-0.063 1.182-0.19 0.188-0.073 0.389-0.218 0.602-0.435 0.131-0.13 0.232-0.215 0.307-0.253 0.072-0.04 0.156-0.059 0.252-0.059 0.166 0 0.311 0.063 0.439 0.188 0.127 0.127 0.189 0.277 0.189 0.449 0 0.17-0.084 0.353-0.256 0.55-0.25 0.285-0.57 0.511-0.963 0.673-0.525 0.221-1.107 0.332-1.744 0.332-0.744 0-1.414-0.154-2.008-0.461-0.482-0.244-0.895-0.631-1.232-1.158-0.34-0.53-0.506-1.105-0.506-1.732v-0.85c0-0.654 0.15-1.263 0.455-1.828 0.305-0.564 0.727-1.001 1.264-1.309 0.539-0.305 1.111-0.459 1.715-0.459 0.363 0 0.703 0.043 1.018 0.126 0.31 0.087 0.61 0.214 0.88 0.384z"/>
		<path d="m190.25 46.61c0.076-0.104 0.16-0.185 0.252-0.238s0.191-0.08 0.297-0.08c0.184 0 0.334 0.064 0.451 0.191 0.115 0.127 0.174 0.34 0.174 0.643v1.064c0 0.305-0.059 0.517-0.174 0.646-0.117 0.129-0.268 0.192-0.451 0.192-0.166 0-0.301-0.046-0.402-0.141-0.104-0.093-0.18-0.271-0.229-0.528-0.027-0.17-0.086-0.301-0.17-0.395-0.168-0.186-0.402-0.332-0.701-0.441-0.301-0.11-0.602-0.165-0.904-0.165-0.375 0-0.721 0.083-1.035 0.244-0.314 0.163-0.59 0.427-0.834 0.796-0.238 0.369-0.359 0.806-0.359 1.311v0.814c0 0.604 0.219 1.107 0.658 1.512 0.438 0.406 1.049 0.607 1.828 0.607 0.467 0 0.859-0.063 1.182-0.19 0.188-0.073 0.387-0.218 0.6-0.435 0.131-0.13 0.232-0.215 0.307-0.253 0.072-0.04 0.156-0.059 0.252-0.059 0.166 0 0.314 0.063 0.441 0.188 0.127 0.127 0.189 0.277 0.189 0.449 0 0.17-0.086 0.353-0.258 0.55-0.248 0.285-0.57 0.511-0.961 0.673-0.527 0.221-1.109 0.332-1.746 0.332-0.744 0-1.414-0.154-2.008-0.461-0.482-0.244-0.895-0.631-1.232-1.158-0.338-0.53-0.508-1.105-0.508-1.732v-0.85c0-0.654 0.152-1.263 0.457-1.828 0.305-0.564 0.727-1.001 1.264-1.309 0.539-0.305 1.111-0.459 1.715-0.459 0.363 0 0.705 0.043 1.02 0.126 0.32 0.087 0.61 0.214 0.89 0.384z"/>
		<path d="m197.34 51.694h-3.051l-0.307 0.766h0.307c0.303 0 0.52 0.057 0.646 0.175 0.129 0.114 0.191 0.268 0.191 0.454 0 0.184-0.063 0.334-0.191 0.451-0.127 0.118-0.344 0.176-0.646 0.176h-1.689c-0.303 0-0.518-0.058-0.645-0.176-0.131-0.117-0.195-0.268-0.195-0.455 0-0.188 0.068-0.341 0.203-0.461 0.135-0.117 0.357-0.173 0.668-0.164l1.971-4.912h-0.82c-0.303 0-0.518-0.059-0.646-0.174-0.127-0.116-0.193-0.269-0.193-0.456 0-0.188 0.066-0.339 0.193-0.456 0.129-0.116 0.344-0.176 0.646-0.176l2.713 0.006 2.498 6.168c0.293 0 0.488 0.032 0.582 0.098 0.188 0.135 0.281 0.313 0.281 0.531 0 0.184-0.063 0.334-0.189 0.451-0.127 0.118-0.342 0.176-0.645 0.176h-1.689c-0.301 0-0.516-0.058-0.646-0.176-0.127-0.117-0.191-0.268-0.191-0.455 0-0.184 0.064-0.336 0.191-0.45 0.131-0.118 0.346-0.175 0.646-0.175h0.307l-0.3-0.766zm-0.52-1.256l-1.01-2.484-1.018 2.484h2.03z"/>
		<path d="m206.5 51.419v1.683c-0.57 0.308-1.053 0.516-1.449 0.628-0.4 0.113-0.828 0.17-1.291 0.17-0.641 0-1.234-0.098-1.781-0.287-0.428-0.147-0.768-0.334-1.014-0.559s-0.475-0.557-0.682-0.996c-0.209-0.438-0.314-0.929-0.314-1.473v-0.904c0-0.838 0.258-1.586 0.768-2.243 0.686-0.89 1.619-1.335 2.797-1.335 0.344 0 0.67 0.035 0.979 0.105 0.309 0.068 0.6 0.172 0.879 0.312 0.166-0.151 0.33-0.228 0.488-0.228 0.186 0 0.334 0.064 0.447 0.191 0.115 0.127 0.174 0.34 0.174 0.643v0.814c0 0.303-0.061 0.518-0.176 0.646-0.117 0.129-0.268 0.191-0.451 0.191-0.148 0-0.273-0.043-0.379-0.133-0.082-0.063-0.15-0.197-0.205-0.408-0.057-0.21-0.119-0.353-0.189-0.426-0.107-0.117-0.303-0.225-0.582-0.314-0.281-0.091-0.594-0.138-0.941-0.138-0.498 0-0.932 0.103-1.297 0.306-0.262 0.152-0.502 0.414-0.723 0.79-0.221 0.374-0.33 0.784-0.33 1.226v0.904c0 0.674 0.193 1.186 0.584 1.535 0.389 0.348 1.01 0.523 1.857 0.523 0.576 0 1.102-0.107 1.574-0.325v-0.899h-1.279c-0.303 0-0.518-0.059-0.646-0.176-0.129-0.114-0.193-0.268-0.193-0.455s0.064-0.34 0.193-0.455c0.129-0.119 0.344-0.176 0.646-0.176l2.229 0.006c0.301 0 0.518 0.059 0.645 0.172 0.131 0.113 0.195 0.266 0.195 0.453 0 0.148-0.045 0.275-0.133 0.387s-0.24 0.192-0.41 0.245z"/>
		<path d="m214.02 51.419v1.683c-0.568 0.308-1.051 0.516-1.449 0.628-0.396 0.113-0.826 0.17-1.289 0.17-0.641 0-1.234-0.098-1.781-0.287-0.43-0.147-0.766-0.334-1.014-0.559-0.246-0.225-0.475-0.557-0.682-0.996-0.209-0.438-0.313-0.929-0.313-1.473v-0.904c0-0.838 0.254-1.586 0.766-2.243 0.686-0.89 1.617-1.335 2.797-1.335 0.344 0 0.67 0.035 0.979 0.105 0.307 0.068 0.6 0.172 0.877 0.312 0.168-0.151 0.33-0.228 0.49-0.228 0.184 0 0.332 0.064 0.447 0.191 0.113 0.127 0.172 0.34 0.172 0.643v0.814c0 0.303-0.059 0.518-0.176 0.646s-0.266 0.191-0.449 0.191c-0.146 0-0.275-0.043-0.379-0.133-0.082-0.063-0.152-0.197-0.207-0.408-0.053-0.21-0.117-0.353-0.186-0.426-0.111-0.117-0.305-0.225-0.584-0.314-0.279-0.091-0.594-0.138-0.941-0.138-0.498 0-0.93 0.103-1.297 0.306-0.262 0.152-0.504 0.414-0.723 0.79-0.221 0.374-0.332 0.784-0.332 1.226v0.904c0 0.674 0.197 1.186 0.586 1.535 0.389 0.348 1.01 0.523 1.857 0.523 0.576 0 1.1-0.107 1.574-0.325v-0.899h-1.279c-0.301 0-0.518-0.059-0.646-0.176-0.129-0.114-0.193-0.268-0.193-0.455s0.064-0.34 0.193-0.455c0.129-0.119 0.346-0.176 0.646-0.176l2.227 0.006c0.303 0 0.52 0.059 0.648 0.172s0.191 0.266 0.191 0.453c0 0.148-0.043 0.275-0.131 0.387-0.11 0.112-0.24 0.192-0.42 0.245z"/>
		<path d="m218.99 47.548v4.912h0.846c0.303 0 0.518 0.057 0.648 0.175 0.127 0.114 0.189 0.268 0.189 0.454 0 0.184-0.063 0.334-0.189 0.451-0.131 0.118-0.346 0.176-0.648 0.176h-2.939c-0.301 0-0.518-0.058-0.645-0.176-0.129-0.117-0.193-0.268-0.193-0.455 0-0.184 0.064-0.336 0.193-0.45 0.127-0.118 0.344-0.175 0.645-0.175h0.838v-4.912h-1.357v1.188c0 0.302-0.059 0.517-0.174 0.647-0.115 0.129-0.27 0.191-0.457 0.191-0.184 0-0.334-0.063-0.451-0.191-0.115-0.131-0.174-0.346-0.174-0.647v-2.45l6.502 0.006v2.444c0 0.302-0.057 0.517-0.172 0.647-0.117 0.129-0.27 0.191-0.455 0.191s-0.336-0.063-0.453-0.191c-0.115-0.131-0.174-0.346-0.174-0.647v-1.188h-1.39z"/>
		<path d="m226.52 47.548v4.912h0.846c0.301 0 0.516 0.057 0.645 0.175 0.131 0.114 0.191 0.268 0.191 0.454 0 0.184-0.061 0.334-0.191 0.451-0.129 0.118-0.344 0.176-0.645 0.176h-2.941c-0.303 0-0.518-0.058-0.645-0.176-0.131-0.117-0.195-0.268-0.195-0.455 0-0.184 0.064-0.336 0.195-0.45 0.127-0.118 0.342-0.175 0.645-0.175h0.84v-4.912h-1.361v1.188c0 0.302-0.055 0.517-0.172 0.647-0.117 0.129-0.271 0.191-0.457 0.191-0.184 0-0.334-0.063-0.451-0.191-0.115-0.131-0.172-0.346-0.172-0.647v-2.45l6.502 0.006v2.444c0 0.302-0.059 0.517-0.176 0.647-0.115 0.129-0.268 0.191-0.455 0.191-0.186 0-0.334-0.063-0.449-0.191-0.117-0.131-0.176-0.346-0.176-0.647v-1.188h-1.39z"/>
		<path d="m235.4 46.61c0.078-0.104 0.164-0.185 0.254-0.238 0.092-0.053 0.191-0.08 0.299-0.08 0.182 0 0.332 0.064 0.449 0.191s0.174 0.34 0.174 0.643v1.064c0 0.305-0.057 0.517-0.174 0.646s-0.268 0.192-0.449 0.192c-0.17 0-0.305-0.046-0.406-0.141-0.102-0.093-0.176-0.271-0.227-0.528-0.027-0.17-0.084-0.301-0.172-0.395-0.166-0.186-0.4-0.332-0.701-0.441-0.301-0.11-0.602-0.165-0.902-0.165-0.375 0-0.719 0.083-1.033 0.244-0.316 0.163-0.596 0.427-0.836 0.796s-0.359 0.806-0.359 1.311v0.814c0 0.604 0.219 1.107 0.658 1.512 0.439 0.406 1.047 0.607 1.828 0.607 0.465 0 0.857-0.063 1.18-0.19 0.189-0.073 0.389-0.218 0.602-0.435 0.131-0.13 0.232-0.215 0.307-0.253 0.074-0.04 0.156-0.059 0.25-0.059 0.168 0 0.314 0.063 0.441 0.188 0.127 0.127 0.189 0.277 0.189 0.449 0 0.17-0.086 0.353-0.258 0.55-0.248 0.285-0.568 0.511-0.961 0.673-0.527 0.221-1.107 0.332-1.744 0.332-0.744 0-1.412-0.154-2.01-0.461-0.479-0.244-0.891-0.631-1.23-1.158-0.338-0.53-0.508-1.105-0.508-1.732v-0.85c0-0.654 0.152-1.263 0.455-1.828 0.305-0.564 0.727-1.001 1.266-1.309 0.539-0.305 1.111-0.459 1.715-0.459 0.361 0 0.703 0.043 1.02 0.126 0.31 0.087 0.61 0.214 0.88 0.384z"/>
		<path d="m242.49 51.694h-3.049l-0.307 0.766h0.307c0.303 0 0.516 0.057 0.646 0.175 0.129 0.114 0.193 0.268 0.193 0.454 0 0.184-0.064 0.334-0.193 0.451-0.131 0.118-0.344 0.176-0.646 0.176h-1.689c-0.303 0-0.52-0.058-0.646-0.176-0.127-0.117-0.193-0.268-0.193-0.455 0-0.188 0.066-0.341 0.201-0.461 0.135-0.117 0.357-0.173 0.668-0.164l1.973-4.912h-0.82c-0.303 0-0.518-0.059-0.646-0.174-0.129-0.116-0.193-0.269-0.193-0.456 0-0.188 0.064-0.339 0.193-0.456 0.129-0.116 0.344-0.176 0.646-0.176l2.713 0.006 2.498 6.168c0.293 0 0.488 0.032 0.58 0.098 0.189 0.135 0.283 0.313 0.283 0.531 0 0.184-0.063 0.334-0.189 0.451-0.127 0.118-0.34 0.176-0.645 0.176h-1.688c-0.305 0-0.518-0.058-0.646-0.176-0.129-0.117-0.193-0.268-0.193-0.455 0-0.184 0.064-0.336 0.193-0.45 0.129-0.118 0.342-0.175 0.646-0.175h0.305l-0.29-0.766zm-0.52-1.256l-1.01-2.484-1.018 2.484h2.03z"/>
		<path d="m251.65 51.419v1.683c-0.568 0.308-1.051 0.516-1.449 0.628-0.398 0.113-0.828 0.17-1.289 0.17-0.639 0-1.234-0.098-1.783-0.287-0.428-0.147-0.764-0.334-1.014-0.559-0.246-0.225-0.473-0.557-0.68-0.996-0.209-0.438-0.314-0.929-0.314-1.473v-0.904c0-0.838 0.256-1.586 0.766-2.243 0.686-0.89 1.619-1.335 2.799-1.335 0.344 0 0.668 0.035 0.977 0.105 0.309 0.068 0.602 0.172 0.879 0.312 0.168-0.151 0.332-0.228 0.492-0.228 0.182 0 0.33 0.064 0.443 0.191 0.115 0.127 0.174 0.34 0.174 0.643v0.814c0 0.303-0.061 0.518-0.176 0.646s-0.266 0.191-0.449 0.191c-0.148 0-0.275-0.043-0.381-0.133-0.082-0.063-0.15-0.197-0.203-0.408-0.059-0.21-0.119-0.353-0.188-0.426-0.109-0.117-0.305-0.225-0.586-0.314-0.279-0.091-0.592-0.138-0.939-0.138-0.498 0-0.93 0.103-1.299 0.306-0.262 0.152-0.5 0.414-0.721 0.79-0.223 0.374-0.332 0.784-0.332 1.226v0.904c0 0.674 0.193 1.186 0.584 1.535 0.391 0.348 1.012 0.523 1.859 0.523 0.574 0 1.1-0.107 1.574-0.325v-0.899h-1.279c-0.303 0-0.52-0.059-0.648-0.176-0.127-0.114-0.191-0.268-0.191-0.455s0.064-0.34 0.191-0.455c0.129-0.119 0.346-0.176 0.648-0.176l2.229 0.006c0.303 0 0.518 0.059 0.645 0.172 0.129 0.113 0.195 0.266 0.195 0.453 0 0.148-0.045 0.275-0.133 0.387s-0.23 0.192-0.4 0.245z"/>
		<path d="m257.98 46.61c0.078-0.104 0.162-0.185 0.256-0.238 0.092-0.053 0.189-0.08 0.297-0.08 0.182 0 0.332 0.064 0.449 0.191 0.115 0.127 0.174 0.34 0.174 0.643v1.064c0 0.305-0.059 0.517-0.174 0.646-0.117 0.129-0.268 0.192-0.449 0.192-0.168 0-0.303-0.046-0.406-0.141-0.102-0.093-0.176-0.271-0.225-0.528-0.029-0.17-0.086-0.301-0.172-0.395-0.168-0.186-0.402-0.332-0.701-0.441-0.301-0.11-0.602-0.165-0.902-0.165-0.377 0-0.723 0.083-1.037 0.244-0.313 0.163-0.592 0.427-0.832 0.796s-0.361 0.806-0.361 1.311v0.814c0 0.604 0.221 1.107 0.658 1.512 0.439 0.406 1.049 0.607 1.828 0.607 0.465 0 0.859-0.063 1.184-0.19 0.186-0.073 0.387-0.218 0.598-0.435 0.131-0.13 0.234-0.215 0.307-0.253 0.074-0.04 0.158-0.059 0.25-0.059 0.168 0 0.316 0.063 0.441 0.188 0.129 0.127 0.189 0.277 0.189 0.449 0 0.17-0.086 0.353-0.256 0.55-0.25 0.285-0.57 0.511-0.961 0.673-0.527 0.221-1.109 0.332-1.748 0.332-0.742 0-1.41-0.154-2.006-0.461-0.482-0.244-0.893-0.631-1.23-1.158-0.342-0.53-0.51-1.105-0.51-1.732v-0.85c0-0.654 0.152-1.263 0.455-1.828 0.307-0.564 0.727-1.001 1.266-1.309 0.537-0.305 1.111-0.459 1.715-0.459 0.363 0 0.703 0.043 1.02 0.126 0.31 0.087 0.6 0.214 0.88 0.384z"/>
		<path d="m181.36 62.599v4.909h0.846c0.301 0 0.516 0.058 0.645 0.174 0.129 0.118 0.193 0.27 0.193 0.458 0 0.182-0.064 0.333-0.193 0.449-0.129 0.117-0.344 0.174-0.645 0.174h-2.939c-0.303 0-0.518-0.057-0.646-0.174-0.129-0.116-0.193-0.27-0.193-0.455 0-0.184 0.064-0.334 0.193-0.452 0.129-0.116 0.344-0.174 0.646-0.174h0.838v-4.909h-1.357v1.188c0 0.301-0.061 0.517-0.176 0.646-0.117 0.127-0.27 0.191-0.455 0.191s-0.334-0.064-0.451-0.191c-0.117-0.13-0.176-0.346-0.176-0.646v-2.451l6.504 0.008v2.443c0 0.301-0.057 0.517-0.174 0.646-0.115 0.127-0.27 0.191-0.457 0.191-0.184 0-0.334-0.064-0.451-0.191-0.115-0.13-0.172-0.346-0.172-0.646v-1.188h-1.38z"/>
		<path d="m188.89 62.599v4.909h0.844c0.301 0 0.516 0.058 0.645 0.174 0.129 0.118 0.193 0.27 0.193 0.458 0 0.182-0.064 0.333-0.193 0.449-0.129 0.117-0.344 0.174-0.645 0.174h-2.941c-0.301 0-0.516-0.057-0.645-0.174-0.127-0.116-0.193-0.27-0.193-0.455 0-0.184 0.066-0.334 0.193-0.452 0.129-0.116 0.344-0.174 0.645-0.174h0.842v-4.909h-1.361v1.188c0 0.301-0.059 0.517-0.174 0.646-0.115 0.127-0.268 0.191-0.457 0.191-0.182 0-0.332-0.064-0.449-0.191-0.115-0.13-0.176-0.346-0.176-0.646v-2.451l6.504 0.008v2.443c0 0.301-0.059 0.517-0.174 0.646-0.115 0.127-0.27 0.191-0.457 0.191-0.182 0-0.334-0.064-0.449-0.191-0.117-0.13-0.174-0.346-0.174-0.646v-1.188h-1.38z"/>
		<path d="m196.42 62.599v4.909h0.844c0.303 0 0.518 0.058 0.645 0.174 0.131 0.118 0.193 0.27 0.193 0.458 0 0.182-0.063 0.333-0.193 0.449-0.127 0.117-0.342 0.174-0.645 0.174h-2.939c-0.303 0-0.52-0.057-0.646-0.174-0.129-0.116-0.193-0.27-0.193-0.455 0-0.184 0.064-0.334 0.193-0.452 0.127-0.116 0.344-0.174 0.646-0.174h0.84v-4.909h-1.36v1.188c0 0.301-0.059 0.517-0.176 0.646-0.117 0.127-0.268 0.191-0.457 0.191-0.184 0-0.334-0.064-0.449-0.191-0.115-0.13-0.174-0.346-0.174-0.646v-2.451l6.502 0.008v2.443c0 0.301-0.059 0.517-0.174 0.646-0.115 0.127-0.27 0.191-0.455 0.191s-0.334-0.064-0.451-0.191c-0.115-0.13-0.176-0.346-0.176-0.646v-1.188h-1.37z"/>
		<path d="m206.5 66.466v1.685c-0.57 0.307-1.053 0.517-1.449 0.628-0.4 0.113-0.828 0.168-1.291 0.168-0.641 0-1.234-0.094-1.781-0.287-0.428-0.146-0.768-0.333-1.014-0.557-0.246-0.227-0.475-0.557-0.682-0.996-0.209-0.438-0.314-0.929-0.314-1.471v-0.909c0-0.835 0.258-1.58 0.768-2.24 0.686-0.89 1.619-1.333 2.797-1.333 0.344 0 0.67 0.034 0.979 0.102 0.309 0.072 0.6 0.176 0.879 0.313 0.166-0.151 0.33-0.226 0.488-0.226 0.186 0 0.334 0.063 0.447 0.188 0.115 0.129 0.174 0.342 0.174 0.645v0.813c0 0.302-0.061 0.517-0.176 0.646-0.117 0.131-0.268 0.193-0.451 0.193-0.148 0-0.273-0.043-0.379-0.135-0.082-0.061-0.15-0.197-0.205-0.408-0.057-0.209-0.119-0.35-0.189-0.424-0.107-0.119-0.303-0.225-0.582-0.314-0.281-0.092-0.594-0.14-0.941-0.14-0.498 0-0.932 0.104-1.297 0.308-0.262 0.15-0.502 0.412-0.723 0.789s-0.33 0.787-0.33 1.224v0.909c0 0.672 0.193 1.185 0.584 1.533 0.389 0.35 1.01 0.523 1.857 0.523 0.576 0 1.102-0.109 1.574-0.324v-0.902h-1.279c-0.303 0-0.518-0.059-0.646-0.174-0.129-0.116-0.193-0.268-0.193-0.455 0-0.188 0.064-0.341 0.193-0.457 0.129-0.117 0.344-0.175 0.646-0.175l2.229 0.006c0.301 0 0.518 0.058 0.645 0.173 0.131 0.114 0.195 0.265 0.195 0.453 0 0.146-0.045 0.276-0.133 0.385-0.1 0.11-0.24 0.19-0.41 0.243z"/>
		<path d="m212.39 66.743h-3.047l-0.309 0.765h0.309c0.301 0 0.516 0.058 0.645 0.174 0.129 0.118 0.193 0.27 0.193 0.458 0 0.182-0.064 0.333-0.193 0.449-0.129 0.117-0.344 0.174-0.645 0.174h-1.691c-0.301 0-0.518-0.057-0.646-0.174-0.127-0.116-0.191-0.27-0.191-0.455 0-0.189 0.068-0.342 0.201-0.461 0.135-0.118 0.357-0.174 0.668-0.165l1.971-4.909h-0.82c-0.301 0-0.518-0.061-0.646-0.178-0.127-0.113-0.191-0.267-0.191-0.455s0.064-0.338 0.191-0.455c0.129-0.117 0.346-0.176 0.646-0.176l2.713 0.008 2.5 6.165c0.293 0 0.488 0.033 0.58 0.098 0.188 0.135 0.283 0.313 0.283 0.534 0 0.182-0.066 0.333-0.191 0.449-0.127 0.117-0.34 0.174-0.641 0.174h-1.691c-0.303 0-0.518-0.057-0.646-0.174-0.129-0.116-0.193-0.27-0.193-0.455 0-0.184 0.064-0.334 0.193-0.452 0.129-0.116 0.344-0.174 0.646-0.174h0.307l-0.3-0.765zm-0.52-1.255l-1.01-2.487-1.016 2.487h2.03z"/>
		<path d="m221.54 66.466v1.685c-0.566 0.307-1.049 0.517-1.449 0.628-0.396 0.113-0.826 0.168-1.287 0.168-0.643 0-1.234-0.094-1.783-0.287-0.428-0.146-0.766-0.333-1.014-0.557-0.246-0.227-0.475-0.557-0.682-0.996-0.209-0.438-0.313-0.929-0.313-1.471v-0.909c0-0.835 0.254-1.58 0.766-2.24 0.686-0.89 1.619-1.333 2.797-1.333 0.344 0 0.67 0.034 0.979 0.102 0.307 0.072 0.6 0.176 0.879 0.313 0.166-0.151 0.33-0.226 0.49-0.226 0.182 0 0.332 0.063 0.445 0.188 0.113 0.129 0.172 0.342 0.172 0.645v0.813c0 0.302-0.059 0.517-0.176 0.646-0.115 0.131-0.264 0.193-0.449 0.193-0.145 0-0.273-0.043-0.381-0.135-0.08-0.061-0.148-0.197-0.203-0.408-0.055-0.209-0.117-0.35-0.188-0.424-0.109-0.119-0.305-0.225-0.586-0.314-0.277-0.092-0.592-0.14-0.939-0.14-0.496 0-0.93 0.104-1.297 0.308-0.262 0.15-0.502 0.412-0.723 0.789s-0.33 0.787-0.33 1.224v0.909c0 0.672 0.195 1.185 0.584 1.533 0.389 0.35 1.01 0.523 1.859 0.523 0.574 0 1.098-0.109 1.572-0.324v-0.902h-1.279c-0.301 0-0.518-0.059-0.646-0.174-0.129-0.116-0.193-0.268-0.193-0.455 0-0.188 0.064-0.341 0.193-0.457 0.129-0.117 0.346-0.175 0.646-0.175l2.229 0.006c0.303 0 0.52 0.058 0.646 0.173 0.127 0.114 0.193 0.265 0.193 0.453 0 0.146-0.045 0.276-0.133 0.385-0.08 0.11-0.22 0.19-0.4 0.243z"/>
		<path d="m229.07 66.466v1.685c-0.566 0.307-1.051 0.517-1.447 0.628-0.398 0.113-0.828 0.168-1.289 0.168-0.643 0-1.236-0.094-1.783-0.287-0.43-0.146-0.766-0.333-1.012-0.557-0.25-0.227-0.477-0.557-0.686-0.996-0.205-0.438-0.311-0.929-0.311-1.471v-0.909c0-0.835 0.256-1.58 0.766-2.24 0.686-0.89 1.617-1.333 2.799-1.333 0.342 0 0.668 0.034 0.975 0.102 0.309 0.072 0.602 0.176 0.879 0.313 0.168-0.151 0.334-0.226 0.49-0.226 0.184 0 0.332 0.063 0.449 0.188 0.113 0.129 0.17 0.342 0.17 0.645v0.813c0 0.302-0.057 0.517-0.174 0.646-0.117 0.131-0.268 0.193-0.453 0.193-0.145 0-0.27-0.043-0.377-0.135-0.082-0.061-0.148-0.197-0.205-0.408-0.055-0.209-0.117-0.35-0.188-0.424-0.109-0.119-0.305-0.225-0.584-0.314-0.279-0.092-0.594-0.14-0.943-0.14-0.494 0-0.928 0.104-1.295 0.308-0.26 0.15-0.502 0.412-0.723 0.789s-0.332 0.787-0.332 1.224v0.909c0 0.672 0.197 1.185 0.586 1.533 0.391 0.35 1.008 0.523 1.859 0.523 0.576 0 1.1-0.109 1.572-0.324v-0.902h-1.279c-0.303 0-0.518-0.059-0.645-0.174-0.129-0.116-0.193-0.268-0.193-0.455 0-0.188 0.064-0.341 0.193-0.457 0.127-0.117 0.342-0.175 0.645-0.175l2.229 0.006c0.303 0 0.518 0.058 0.645 0.173 0.131 0.114 0.193 0.265 0.193 0.453 0 0.146-0.041 0.276-0.129 0.385-0.1 0.11-0.23 0.19-0.41 0.243z"/>
		<path d="m236.6 66.466v1.685c-0.566 0.307-1.049 0.517-1.447 0.628-0.398 0.113-0.83 0.168-1.289 0.168-0.641 0-1.236-0.094-1.783-0.287-0.428-0.146-0.766-0.333-1.012-0.557-0.248-0.227-0.475-0.557-0.686-0.996-0.205-0.438-0.311-0.929-0.311-1.471v-0.909c0-0.835 0.256-1.58 0.766-2.24 0.686-0.89 1.619-1.333 2.799-1.333 0.344 0 0.668 0.034 0.977 0.102 0.309 0.072 0.6 0.176 0.877 0.313 0.17-0.151 0.332-0.226 0.492-0.226 0.182 0 0.332 0.063 0.447 0.188 0.115 0.129 0.17 0.342 0.17 0.645v0.813c0 0.302-0.059 0.517-0.174 0.646-0.115 0.131-0.266 0.193-0.451 0.193-0.146 0-0.271-0.043-0.379-0.135-0.08-0.061-0.15-0.197-0.205-0.408-0.057-0.209-0.117-0.35-0.188-0.424-0.109-0.119-0.305-0.225-0.582-0.314-0.281-0.092-0.594-0.14-0.941-0.14-0.496 0-0.93 0.104-1.299 0.308-0.26 0.15-0.502 0.412-0.723 0.789-0.219 0.377-0.33 0.787-0.33 1.224v0.909c0 0.672 0.195 1.185 0.584 1.533 0.391 0.35 1.01 0.523 1.859 0.523 0.576 0 1.1-0.109 1.572-0.324v-0.902h-1.279c-0.303 0-0.518-0.059-0.645-0.174-0.131-0.116-0.193-0.268-0.193-0.455 0-0.188 0.063-0.341 0.193-0.457 0.127-0.117 0.342-0.175 0.645-0.175l2.23 0.006c0.301 0 0.516 0.058 0.645 0.173 0.129 0.114 0.195 0.265 0.195 0.453 0 0.146-0.045 0.276-0.133 0.385-0.1 0.11-0.24 0.19-0.41 0.243z"/>
		<path d="m242.93 61.659c0.078-0.105 0.162-0.185 0.254-0.236 0.092-0.055 0.189-0.08 0.297-0.08 0.186 0 0.334 0.063 0.449 0.188 0.119 0.129 0.174 0.342 0.174 0.645v1.066c0 0.301-0.055 0.516-0.174 0.645-0.115 0.127-0.264 0.193-0.449 0.193-0.168 0-0.303-0.047-0.402-0.141-0.105-0.092-0.18-0.27-0.227-0.526-0.031-0.171-0.088-0.306-0.174-0.399-0.166-0.184-0.4-0.33-0.699-0.44-0.301-0.108-0.602-0.166-0.904-0.166-0.375 0-0.721 0.082-1.035 0.246-0.314 0.163-0.592 0.429-0.834 0.796-0.24 0.367-0.361 0.805-0.361 1.311v0.814c0 0.604 0.221 1.109 0.658 1.512 0.441 0.404 1.051 0.607 1.828 0.607 0.467 0 0.861-0.064 1.182-0.189 0.189-0.073 0.389-0.221 0.602-0.437 0.131-0.13 0.232-0.214 0.307-0.253 0.072-0.039 0.156-0.057 0.25-0.057 0.168 0 0.314 0.062 0.441 0.188 0.125 0.127 0.189 0.277 0.189 0.447 0 0.173-0.084 0.354-0.256 0.551-0.252 0.287-0.57 0.511-0.963 0.675-0.525 0.22-1.107 0.329-1.744 0.329-0.744 0-1.414-0.153-2.01-0.456-0.48-0.247-0.891-0.634-1.23-1.163-0.338-0.529-0.506-1.105-0.506-1.729v-0.853c0-0.653 0.15-1.262 0.455-1.827 0.305-0.567 0.725-1.001 1.264-1.307 0.539-0.307 1.111-0.459 1.715-0.459 0.363 0 0.703 0.039 1.018 0.125 0.3 0.082 0.59 0.209 0.87 0.38z"/>
		<path d="m250.45 61.659c0.078-0.105 0.162-0.185 0.256-0.236 0.092-0.055 0.189-0.08 0.295-0.08 0.186 0 0.334 0.063 0.451 0.188 0.115 0.129 0.176 0.342 0.176 0.645v1.066c0 0.301-0.061 0.516-0.176 0.645-0.117 0.127-0.266 0.193-0.451 0.193-0.166 0-0.301-0.047-0.402-0.141-0.104-0.092-0.18-0.27-0.227-0.526-0.029-0.171-0.088-0.306-0.172-0.399-0.168-0.184-0.402-0.33-0.701-0.44-0.301-0.108-0.602-0.166-0.904-0.166-0.375 0-0.721 0.082-1.033 0.246-0.316 0.163-0.592 0.429-0.834 0.796s-0.361 0.805-0.361 1.311v0.814c0 0.604 0.219 1.109 0.658 1.512 0.439 0.404 1.049 0.607 1.828 0.607 0.465 0 0.859-0.064 1.182-0.189 0.188-0.073 0.389-0.221 0.6-0.437 0.131-0.13 0.234-0.214 0.307-0.253s0.156-0.057 0.252-0.057c0.166 0 0.314 0.062 0.441 0.188 0.125 0.127 0.189 0.277 0.189 0.447 0 0.173-0.086 0.354-0.258 0.551-0.25 0.287-0.57 0.511-0.961 0.675-0.527 0.22-1.109 0.329-1.746 0.329-0.742 0-1.412-0.153-2.008-0.456-0.482-0.247-0.895-0.634-1.232-1.163-0.34-0.529-0.508-1.105-0.508-1.729v-0.853c0-0.653 0.152-1.262 0.457-1.827 0.305-0.567 0.727-1.001 1.264-1.307 0.539-0.307 1.111-0.459 1.715-0.459 0.363 0 0.705 0.039 1.02 0.125 0.3 0.082 0.6 0.209 0.87 0.38z"/>
		<path d="m257.54 66.743h-3.051l-0.307 0.765h0.307c0.303 0 0.518 0.058 0.646 0.174 0.129 0.118 0.193 0.27 0.193 0.458 0 0.182-0.064 0.333-0.193 0.449-0.129 0.117-0.344 0.174-0.646 0.174h-1.689c-0.301 0-0.518-0.057-0.646-0.174-0.129-0.116-0.193-0.27-0.193-0.455 0-0.189 0.068-0.342 0.203-0.461 0.133-0.118 0.357-0.174 0.668-0.165l1.971-4.909h-0.82c-0.303 0-0.518-0.061-0.645-0.178-0.131-0.113-0.193-0.267-0.193-0.455s0.063-0.338 0.193-0.455c0.127-0.117 0.342-0.176 0.645-0.176l2.713 0.008 2.5 6.165c0.291 0 0.486 0.033 0.58 0.098 0.188 0.135 0.281 0.313 0.281 0.534 0 0.182-0.064 0.333-0.189 0.449-0.125 0.117-0.342 0.174-0.643 0.174h-1.691c-0.301 0-0.516-0.057-0.646-0.174-0.127-0.116-0.191-0.27-0.191-0.455 0-0.184 0.064-0.334 0.191-0.452 0.131-0.116 0.346-0.174 0.646-0.174h0.307l-0.3-0.765zm-0.52-1.255l-1.01-2.487-1.016 2.487h2.03z"/>
	</g>
		<rect stroke-linejoin="round" height="135" width="62" stroke="#D3D3D3" stroke-linecap="round" stroke-miterlimit="10" y="47.5" x="92.5" stroke-width="5" fill="#E8E8E8"/>
	<rect y="110" x="106" height="60" width="46" fill="#AFAFAF"/>
	<path d="m276.4 85.42c9.693-12.504 8.811-30.608-2.66-42.079-6.025-6.025-14.035-9.344-22.557-9.344-8.52 0-16.531 3.318-22.557 9.344-12.434 12.436-12.436 32.673-0.002 45.111 6.027 6.026 14.039 9.343 22.559 9.343 7.154 0 13.945-2.347 19.508-6.663l18.195 18.194c0.789 0.788 1.822 1.183 2.855 1.183s2.066-0.395 2.855-1.183c1.576-1.577 1.576-4.134 0-5.711l-18.2-18.2zm-8.37-2.677c-4.652 4.651-10.75 6.978-16.848 6.978s-12.193-2.326-16.846-6.978c-9.303-9.306-9.303-24.39 0-33.692 4.652-4.652 10.748-6.979 16.846-6.979s12.195 2.326 16.848 6.979c9.31 9.303 9.31 24.387 0 33.692z" fill="#0C457D"/>
		<defs>
			<path id="SVGID_12_" d="m268.03 82.743c-4.652 4.651-10.75 6.978-16.848 6.978s-12.193-2.326-16.846-6.978c-9.303-9.306-9.303-24.39 0-33.692 4.652-4.652 10.748-6.979 16.846-6.979s12.195 2.326 16.848 6.979c9.31 9.303 9.31 24.387 0 33.692z"/>
		</defs>
		<clipPath id="SVGID_2_">
			<use overflow="visible" xlink:href="#SVGID_12_"/>
		</clipPath>
		<g clip-path="url(#SVGID_2_)">
			<rect y="5" x="149" height="89" width="143" fill="#5D5D5D"/>
			<g fill="#E8702A">
				<path d="m167.31 20.778c0.115-0.163 0.242-0.281 0.381-0.357 0.139-0.082 0.285-0.12 0.445-0.12 0.275 0 0.502 0.094 0.672 0.284 0.18 0.188 0.264 0.511 0.264 0.964v1.597c0 0.457-0.084 0.778-0.264 0.968-0.17 0.195-0.396 0.292-0.672 0.292-0.25 0-0.453-0.073-0.605-0.214-0.152-0.138-0.268-0.401-0.34-0.785-0.047-0.261-0.133-0.459-0.258-0.601-0.252-0.275-0.604-0.498-1.053-0.659-0.451-0.167-0.902-0.249-1.355-0.249-0.561 0-1.078 0.123-1.553 0.366-0.471 0.246-0.885 0.645-1.248 1.195s-0.543 1.207-0.543 1.963v1.222c0 0.909 0.328 1.667 0.988 2.271 0.658 0.606 1.572 0.911 2.742 0.911 0.699 0 1.289-0.097 1.771-0.286 0.281-0.109 0.584-0.326 0.9-0.654 0.197-0.193 0.35-0.32 0.463-0.379 0.107-0.059 0.234-0.087 0.375-0.087 0.25 0 0.469 0.094 0.66 0.284 0.189 0.188 0.283 0.416 0.283 0.671 0 0.258-0.123 0.532-0.383 0.826-0.375 0.428-0.854 0.768-1.443 1.011-0.789 0.331-1.662 0.495-2.615 0.495-1.117 0-2.121-0.228-3.014-0.686-0.725-0.369-1.34-0.949-1.848-1.743-0.51-0.793-0.758-1.658-0.758-2.593v-1.28c0-0.976 0.225-1.893 0.68-2.739 0.459-0.85 1.09-1.501 1.898-1.963 0.807-0.46 1.664-0.688 2.57-0.688 0.545 0 1.057 0.064 1.527 0.189 0.45 0.123 0.9 0.314 1.31 0.574z"/>
				<path d="m177.94 28.401h-4.576l-0.455 1.148h0.455c0.455 0 0.777 0.088 0.971 0.261 0.191 0.173 0.289 0.401 0.289 0.686 0 0.272-0.098 0.501-0.289 0.672-0.193 0.178-0.516 0.264-0.971 0.264h-2.533c-0.453 0-0.777-0.086-0.971-0.264-0.191-0.171-0.289-0.4-0.289-0.681 0-0.284 0.104-0.513 0.303-0.691 0.201-0.176 0.537-0.258 1.002-0.246l2.959-7.365h-1.232c-0.453 0-0.777-0.091-0.967-0.264-0.193-0.173-0.291-0.404-0.291-0.686 0-0.278 0.098-0.507 0.291-0.686 0.189-0.171 0.514-0.258 0.967-0.258l4.068 0.009 3.75 9.249c0.439 0 0.73 0.047 0.873 0.147 0.281 0.199 0.422 0.468 0.422 0.799 0 0.272-0.096 0.501-0.285 0.672-0.191 0.178-0.512 0.264-0.963 0.264h-2.535c-0.455 0-0.779-0.086-0.969-0.264-0.193-0.171-0.293-0.4-0.293-0.681 0-0.278 0.1-0.504 0.293-0.677 0.189-0.173 0.514-0.261 0.969-0.261h0.459l-0.44-1.147zm-0.78-1.883l-1.516-3.732-1.521 3.732h3.04z"/>
				<path d="m191.68 27.988v2.525c-0.85 0.457-1.576 0.775-2.172 0.94-0.598 0.17-1.242 0.252-1.936 0.252-0.961 0-1.852-0.141-2.672-0.431-0.645-0.22-1.148-0.5-1.518-0.838-0.371-0.337-0.713-0.832-1.027-1.491-0.311-0.656-0.467-1.394-0.467-2.209v-1.356c0-1.258 0.383-2.379 1.146-3.363 1.029-1.336 2.43-2.004 4.199-2.004 0.514 0 1.002 0.056 1.465 0.156 0.463 0.104 0.9 0.263 1.318 0.468 0.25-0.226 0.496-0.337 0.734-0.337 0.275 0 0.5 0.094 0.67 0.284 0.172 0.188 0.258 0.511 0.258 0.964v1.221c0 0.455-0.086 0.777-0.262 0.968-0.174 0.196-0.398 0.29-0.678 0.29-0.217 0-0.406-0.067-0.566-0.201-0.123-0.092-0.225-0.294-0.309-0.613-0.082-0.313-0.176-0.524-0.281-0.635-0.164-0.178-0.457-0.335-0.875-0.475-0.422-0.139-0.889-0.206-1.412-0.206-0.744 0-1.395 0.152-1.945 0.458-0.391 0.228-0.754 0.623-1.084 1.186-0.33 0.565-0.496 1.175-0.496 1.84v1.356c0 1.013 0.291 1.778 0.877 2.303s1.514 0.785 2.789 0.785c0.863 0 1.648-0.161 2.359-0.487v-1.35h-1.92c-0.451 0-0.777-0.088-0.969-0.264-0.193-0.176-0.291-0.402-0.291-0.686 0-0.279 0.098-0.507 0.291-0.683 0.191-0.176 0.518-0.263 0.969-0.263l3.346 0.011c0.451 0 0.775 0.088 0.967 0.258 0.193 0.17 0.289 0.397 0.289 0.677 0 0.223-0.064 0.416-0.195 0.58-0.13 0.168-0.34 0.288-0.6 0.37z"/>
				<path d="m199.13 22.185v7.365h1.268c0.451 0 0.777 0.088 0.971 0.261 0.191 0.173 0.287 0.401 0.287 0.686 0 0.272-0.096 0.501-0.287 0.672-0.193 0.178-0.52 0.264-0.971 0.264h-4.41c-0.451 0-0.777-0.086-0.967-0.264-0.193-0.171-0.291-0.4-0.291-0.681 0-0.278 0.098-0.504 0.291-0.677 0.189-0.173 0.516-0.261 0.967-0.261h1.262v-7.365h-2.039v1.778c0 0.454-0.088 0.779-0.264 0.97-0.176 0.193-0.402 0.29-0.684 0.29-0.277 0-0.502-0.097-0.676-0.29-0.176-0.19-0.262-0.516-0.262-0.97v-3.671l9.754 0.009v3.662c0 0.454-0.088 0.779-0.262 0.97-0.172 0.193-0.404 0.29-0.682 0.29s-0.504-0.097-0.678-0.29c-0.174-0.19-0.26-0.516-0.26-0.97v-1.778h-2.07z"/>
				<path d="m212.46 20.778c0.115-0.163 0.244-0.281 0.385-0.357 0.135-0.082 0.283-0.12 0.443-0.12 0.273 0 0.5 0.094 0.674 0.284 0.174 0.188 0.262 0.511 0.262 0.964v1.597c0 0.457-0.088 0.778-0.262 0.968-0.174 0.195-0.4 0.292-0.674 0.292-0.252 0-0.455-0.073-0.607-0.214-0.154-0.138-0.268-0.401-0.34-0.785-0.041-0.261-0.129-0.459-0.256-0.601-0.252-0.275-0.602-0.498-1.051-0.659-0.449-0.167-0.902-0.249-1.355-0.249-0.563 0-1.08 0.123-1.551 0.366-0.475 0.246-0.891 0.645-1.252 1.195-0.359 0.551-0.543 1.207-0.543 1.963v1.222c0 0.909 0.33 1.667 0.99 2.271 0.654 0.606 1.57 0.911 2.74 0.911 0.701 0 1.287-0.097 1.771-0.286 0.283-0.109 0.582-0.326 0.9-0.654 0.197-0.193 0.35-0.32 0.461-0.379 0.107-0.059 0.234-0.087 0.375-0.087 0.252 0 0.473 0.094 0.662 0.284 0.189 0.188 0.285 0.416 0.285 0.671 0 0.258-0.131 0.532-0.385 0.826-0.375 0.428-0.855 0.768-1.443 1.011-0.789 0.331-1.662 0.495-2.617 0.495-1.113 0-2.119-0.228-3.012-0.686-0.723-0.369-1.34-0.949-1.848-1.743-0.508-0.793-0.762-1.658-0.762-2.593v-1.28c0-0.976 0.227-1.893 0.686-2.739 0.455-0.85 1.088-1.501 1.896-1.963 0.807-0.46 1.662-0.688 2.568-0.688 0.547 0 1.057 0.064 1.531 0.189 0.48 0.123 0.92 0.314 1.33 0.574z"/>
				<path d="m223.1 28.401h-4.572l-0.461 1.148h0.461c0.451 0 0.773 0.088 0.969 0.261 0.191 0.173 0.289 0.401 0.289 0.686 0 0.272-0.098 0.501-0.289 0.672-0.195 0.178-0.518 0.264-0.969 0.264h-2.533c-0.455 0-0.779-0.086-0.973-0.264-0.191-0.171-0.287-0.4-0.287-0.681 0-0.284 0.098-0.513 0.301-0.691 0.203-0.176 0.535-0.258 1.004-0.246l2.953-7.365h-1.229c-0.451 0-0.777-0.091-0.967-0.264-0.193-0.173-0.291-0.404-0.291-0.686 0-0.278 0.098-0.507 0.291-0.686 0.189-0.171 0.516-0.258 0.967-0.258l4.07 0.009 3.746 9.249c0.441 0 0.732 0.047 0.871 0.147 0.283 0.199 0.426 0.468 0.426 0.799 0 0.272-0.096 0.501-0.287 0.672-0.189 0.178-0.51 0.264-0.963 0.264h-2.537c-0.451 0-0.775-0.086-0.967-0.264-0.193-0.171-0.289-0.4-0.289-0.681 0-0.278 0.096-0.504 0.289-0.677 0.191-0.173 0.516-0.261 0.967-0.261h0.461l-0.45-1.147zm-0.78-1.883l-1.516-3.732-1.525 3.732h3.04z"/>
				<path d="m235.04 20.778c0.117-0.163 0.246-0.281 0.381-0.357 0.139-0.082 0.287-0.12 0.447-0.12 0.275 0 0.502 0.094 0.676 0.284 0.176 0.188 0.264 0.511 0.264 0.964v1.597c0 0.457-0.088 0.778-0.264 0.968-0.174 0.195-0.4 0.292-0.676 0.292-0.25 0-0.453-0.073-0.605-0.214-0.154-0.138-0.266-0.401-0.34-0.785-0.043-0.261-0.131-0.459-0.258-0.601-0.252-0.275-0.6-0.498-1.051-0.659-0.451-0.167-0.902-0.249-1.357-0.249-0.561 0-1.078 0.123-1.549 0.366-0.475 0.246-0.891 0.645-1.252 1.195-0.359 0.551-0.539 1.207-0.539 1.963v1.222c0 0.909 0.328 1.667 0.986 2.271 0.658 0.606 1.572 0.911 2.74 0.911 0.699 0 1.289-0.097 1.773-0.286 0.281-0.109 0.582-0.326 0.9-0.654 0.197-0.193 0.352-0.32 0.459-0.379 0.109-0.059 0.236-0.087 0.375-0.087 0.252 0 0.475 0.094 0.662 0.284 0.191 0.188 0.285 0.416 0.285 0.671 0 0.258-0.127 0.532-0.385 0.826-0.375 0.428-0.855 0.768-1.443 1.011-0.789 0.331-1.66 0.495-2.619 0.495-1.113 0-2.113-0.228-3.01-0.686-0.725-0.369-1.338-0.949-1.848-1.743-0.508-0.793-0.762-1.658-0.762-2.593v-1.28c0-0.976 0.227-1.893 0.686-2.739 0.455-0.85 1.086-1.501 1.895-1.963 0.809-0.46 1.666-0.688 2.572-0.688 0.545 0 1.057 0.064 1.531 0.189 0.49 0.123 0.93 0.314 1.34 0.574z"/>
				<path d="m245.68 28.401h-4.574l-0.461 1.148h0.461c0.453 0 0.777 0.088 0.971 0.261 0.191 0.173 0.289 0.401 0.289 0.686 0 0.272-0.098 0.501-0.289 0.672-0.193 0.178-0.518 0.264-0.971 0.264h-2.535c-0.453 0-0.777-0.086-0.971-0.264-0.193-0.171-0.287-0.4-0.287-0.681 0-0.284 0.1-0.513 0.303-0.691 0.201-0.176 0.537-0.258 1-0.246l2.957-7.365h-1.23c-0.453 0-0.775-0.091-0.967-0.264-0.193-0.173-0.291-0.404-0.291-0.686 0-0.278 0.098-0.507 0.291-0.686 0.191-0.171 0.514-0.258 0.967-0.258l4.072 0.009 3.744 9.249c0.439 0 0.732 0.047 0.873 0.147 0.281 0.199 0.424 0.468 0.424 0.799 0 0.272-0.096 0.501-0.285 0.672-0.189 0.178-0.512 0.264-0.967 0.264h-2.533c-0.453 0-0.775-0.086-0.969-0.264-0.193-0.171-0.287-0.4-0.287-0.681 0-0.278 0.094-0.504 0.287-0.677s0.516-0.261 0.969-0.261h0.461l-0.44-1.147zm-0.78-1.883l-1.518-3.732-1.523 3.732h3.04z"/>
				<path d="m259.41 27.988v2.525c-0.852 0.457-1.578 0.775-2.172 0.94-0.6 0.17-1.242 0.252-1.936 0.252-0.959 0-1.854-0.141-2.674-0.431-0.639-0.22-1.15-0.5-1.52-0.838-0.371-0.337-0.713-0.832-1.023-1.491-0.313-0.656-0.471-1.394-0.471-2.209v-1.356c0-1.258 0.385-2.379 1.15-3.363 1.029-1.336 2.428-2.004 4.197-2.004 0.514 0 1.004 0.056 1.467 0.156 0.461 0.104 0.902 0.263 1.318 0.468 0.252-0.226 0.492-0.337 0.732-0.337 0.275 0 0.5 0.094 0.67 0.284 0.17 0.188 0.26 0.511 0.26 0.964v1.221c0 0.455-0.09 0.777-0.266 0.968-0.172 0.196-0.396 0.29-0.674 0.29-0.219 0-0.41-0.067-0.568-0.201-0.125-0.092-0.225-0.294-0.307-0.613-0.084-0.313-0.18-0.524-0.281-0.635-0.164-0.178-0.457-0.335-0.877-0.475-0.418-0.139-0.889-0.206-1.408-0.206-0.75 0-1.398 0.152-1.949 0.458-0.393 0.228-0.754 0.623-1.084 1.186-0.33 0.565-0.496 1.175-0.496 1.84v1.356c0 1.013 0.291 1.778 0.875 2.303 0.586 0.524 1.518 0.785 2.789 0.785 0.863 0 1.652-0.161 2.361-0.487v-1.35h-1.918c-0.457 0-0.777-0.088-0.971-0.264-0.191-0.176-0.287-0.402-0.287-0.686 0-0.279 0.096-0.507 0.287-0.683 0.193-0.176 0.514-0.263 0.971-0.263l3.342 0.011c0.453 0 0.775 0.088 0.969 0.258s0.293 0.397 0.293 0.677c0 0.223-0.068 0.416-0.201 0.58-0.14 0.168-0.33 0.288-0.6 0.37z"/>
				<path d="m268.25 28.401h-4.572l-0.459 1.148h0.459c0.451 0 0.773 0.088 0.971 0.261 0.191 0.173 0.285 0.401 0.285 0.686 0 0.272-0.094 0.501-0.285 0.672-0.197 0.178-0.52 0.264-0.971 0.264h-2.535c-0.457 0-0.779-0.086-0.971-0.264-0.193-0.171-0.291-0.4-0.291-0.681 0-0.284 0.102-0.513 0.305-0.691 0.201-0.176 0.535-0.258 1.002-0.246l2.957-7.365h-1.23c-0.453 0-0.775-0.091-0.969-0.264s-0.291-0.404-0.291-0.686c0-0.278 0.098-0.507 0.291-0.686 0.193-0.171 0.516-0.258 0.969-0.258l4.068 0.009 3.748 9.249c0.439 0 0.73 0.047 0.871 0.147 0.283 0.199 0.424 0.468 0.424 0.799 0 0.272-0.094 0.501-0.283 0.672-0.191 0.178-0.514 0.264-0.965 0.264h-2.535c-0.455 0-0.777-0.086-0.971-0.264-0.193-0.171-0.289-0.4-0.289-0.681 0-0.278 0.096-0.504 0.289-0.677s0.516-0.261 0.971-0.261h0.459l-0.47-1.147zm-0.78-1.883l-1.516-3.732-1.525 3.732h3.05z"/>
				<path d="m280.19 20.778c0.119-0.163 0.244-0.281 0.383-0.357 0.141-0.082 0.285-0.12 0.445-0.12 0.275 0 0.5 0.094 0.674 0.284 0.176 0.188 0.262 0.511 0.262 0.964v1.597c0 0.457-0.086 0.778-0.262 0.968-0.174 0.195-0.398 0.292-0.674 0.292-0.252 0-0.453-0.073-0.607-0.214-0.152-0.138-0.266-0.401-0.338-0.785-0.043-0.261-0.129-0.459-0.258-0.601-0.25-0.275-0.602-0.498-1.051-0.659-0.451-0.167-0.902-0.249-1.354-0.249-0.566 0-1.084 0.123-1.555 0.366-0.469 0.246-0.889 0.645-1.248 1.195-0.361 0.551-0.545 1.207-0.545 1.963v1.222c0 0.909 0.332 1.667 0.99 2.271 0.658 0.606 1.572 0.911 2.74 0.911 0.699 0 1.291-0.097 1.775-0.286 0.279-0.109 0.58-0.326 0.898-0.654 0.195-0.193 0.35-0.32 0.459-0.379s0.238-0.087 0.375-0.087c0.252 0 0.475 0.094 0.662 0.284 0.191 0.188 0.285 0.416 0.285 0.671 0 0.258-0.129 0.532-0.387 0.826-0.373 0.428-0.854 0.768-1.441 1.011-0.789 0.331-1.662 0.495-2.619 0.495-1.113 0-2.117-0.228-3.01-0.686-0.723-0.369-1.34-0.949-1.848-1.743-0.51-0.793-0.762-1.658-0.762-2.593v-1.28c0-0.976 0.229-1.893 0.682-2.739 0.461-0.85 1.09-1.501 1.898-1.963 0.807-0.46 1.668-0.688 2.572-0.688 0.545 0 1.053 0.064 1.529 0.189 0.49 0.123 0.93 0.314 1.34 0.574z"/>
				<path d="m167.31 43.349c0.115-0.157 0.242-0.276 0.381-0.357 0.139-0.079 0.285-0.12 0.445-0.12 0.275 0 0.502 0.097 0.672 0.287 0.18 0.19 0.264 0.51 0.264 0.964v1.597c0 0.457-0.084 0.775-0.264 0.97-0.17 0.193-0.396 0.288-0.672 0.288-0.25 0-0.453-0.068-0.605-0.211-0.152-0.139-0.268-0.405-0.34-0.792-0.047-0.255-0.133-0.451-0.258-0.592-0.252-0.278-0.604-0.498-1.053-0.662-0.451-0.165-0.902-0.247-1.355-0.247-0.561 0-1.078 0.124-1.553 0.365-0.471 0.245-0.885 0.641-1.248 1.194s-0.543 1.208-0.543 1.966v1.222c0 0.907 0.328 1.661 0.988 2.268 0.658 0.609 1.572 0.911 2.742 0.911 0.699 0 1.289-0.094 1.771-0.285 0.281-0.11 0.584-0.327 0.9-0.652 0.197-0.195 0.35-0.322 0.463-0.379 0.107-0.061 0.234-0.088 0.375-0.088 0.25 0 0.469 0.095 0.66 0.282 0.189 0.19 0.283 0.416 0.283 0.674 0 0.255-0.123 0.528-0.383 0.825-0.375 0.428-0.854 0.766-1.443 1.009-0.789 0.331-1.662 0.498-2.615 0.498-1.117 0-2.121-0.231-3.014-0.691-0.725-0.366-1.34-0.946-1.848-1.737-0.51-0.795-0.758-1.658-0.758-2.599v-1.277c0-0.981 0.225-1.895 0.68-2.742 0.459-0.847 1.09-1.502 1.898-1.963 0.807-0.457 1.664-0.688 2.57-0.688 0.545 0 1.057 0.064 1.527 0.188 0.45 0.128 0.9 0.319 1.31 0.574z"/>
				<path d="m178.6 43.349c0.117-0.157 0.242-0.276 0.381-0.357 0.137-0.079 0.285-0.12 0.445-0.12 0.275 0 0.498 0.097 0.676 0.287 0.174 0.19 0.26 0.51 0.26 0.964v1.597c0 0.457-0.086 0.775-0.26 0.97-0.178 0.193-0.4 0.288-0.676 0.288-0.25 0-0.453-0.068-0.604-0.211-0.156-0.139-0.27-0.405-0.344-0.792-0.043-0.255-0.129-0.451-0.254-0.592-0.254-0.278-0.604-0.498-1.055-0.662-0.451-0.165-0.902-0.247-1.354-0.247-0.563 0-1.082 0.124-1.553 0.365-0.473 0.245-0.887 0.641-1.252 1.194-0.359 0.554-0.539 1.208-0.539 1.966v1.222c0 0.907 0.326 1.661 0.986 2.268 0.658 0.609 1.574 0.911 2.742 0.911 0.699 0 1.291-0.094 1.773-0.285 0.281-0.11 0.58-0.327 0.9-0.652 0.195-0.195 0.348-0.322 0.457-0.379 0.111-0.061 0.236-0.088 0.381-0.088 0.248 0 0.469 0.095 0.662 0.282 0.188 0.19 0.283 0.416 0.283 0.674 0 0.255-0.129 0.528-0.387 0.825-0.373 0.428-0.855 0.766-1.443 1.009-0.789 0.331-1.664 0.498-2.617 0.498-1.115 0-2.121-0.231-3.014-0.691-0.721-0.366-1.34-0.946-1.846-1.737-0.508-0.795-0.762-1.658-0.762-2.599v-1.277c0-0.981 0.229-1.895 0.686-2.742 0.455-0.847 1.088-1.502 1.895-1.963 0.809-0.457 1.668-0.688 2.572-0.688 0.545 0 1.057 0.064 1.527 0.188 0.46 0.128 0.91 0.319 1.32 0.574z"/>
				<path d="m189.23 50.975h-4.574l-0.459 1.148h0.459c0.453 0 0.779 0.085 0.971 0.262 0.191 0.172 0.287 0.402 0.287 0.682 0 0.275-0.096 0.501-0.287 0.677-0.191 0.177-0.518 0.264-0.971 0.264h-2.535c-0.453 0-0.775-0.087-0.967-0.264-0.197-0.176-0.291-0.401-0.291-0.683 0-0.283 0.102-0.512 0.303-0.691 0.201-0.176 0.535-0.26 1.004-0.246l2.955-7.368h-1.23c-0.453 0-0.775-0.088-0.969-0.261-0.193-0.174-0.293-0.402-0.293-0.684 0-0.283 0.1-0.509 0.293-0.685 0.193-0.175 0.516-0.264 0.969-0.264l4.068 0.009 3.746 9.252c0.441 0 0.734 0.049 0.875 0.146 0.279 0.202 0.42 0.469 0.42 0.797 0 0.275-0.094 0.501-0.281 0.677-0.191 0.177-0.514 0.264-0.967 0.264h-2.535c-0.451 0-0.775-0.087-0.969-0.264-0.191-0.176-0.289-0.401-0.289-0.683 0-0.275 0.098-0.504 0.289-0.676 0.193-0.177 0.518-0.262 0.969-0.262h0.461l-0.45-1.147zm-0.78-1.884l-1.518-3.727-1.523 3.727h3.04z"/>
				<path d="m202.97 50.562v2.524c-0.854 0.461-1.576 0.773-2.172 0.941-0.6 0.17-1.244 0.255-1.936 0.255-0.961 0-1.852-0.146-2.672-0.431-0.645-0.221-1.152-0.501-1.521-0.838-0.371-0.337-0.711-0.835-1.023-1.494-0.313-0.658-0.471-1.393-0.471-2.209v-1.356c0-1.257 0.385-2.379 1.152-3.364 1.027-1.335 2.426-2.003 4.195-2.003 0.516 0 1.002 0.053 1.465 0.158 0.463 0.103 0.9 0.258 1.318 0.468 0.252-0.228 0.496-0.342 0.734-0.342 0.277 0 0.5 0.097 0.672 0.287 0.17 0.19 0.258 0.51 0.258 0.964v1.222c0 0.454-0.09 0.776-0.264 0.97s-0.398 0.287-0.674 0.287c-0.223 0-0.41-0.064-0.57-0.199-0.123-0.094-0.225-0.296-0.309-0.612-0.082-0.314-0.176-0.529-0.281-0.639-0.162-0.176-0.457-0.337-0.875-0.472-0.42-0.136-0.891-0.206-1.41-0.206-0.748 0-1.398 0.153-1.947 0.458-0.391 0.229-0.754 0.621-1.084 1.185-0.33 0.562-0.496 1.177-0.496 1.839v1.356c0 1.011 0.291 1.778 0.877 2.303 0.584 0.521 1.514 0.785 2.787 0.785 0.865 0 1.65-0.161 2.361-0.488v-1.349h-1.918c-0.455 0-0.777-0.088-0.971-0.264-0.195-0.171-0.291-0.401-0.291-0.683s0.096-0.51 0.291-0.683c0.193-0.179 0.516-0.264 0.971-0.264l3.342 0.009c0.451 0 0.777 0.088 0.967 0.258 0.195 0.17 0.291 0.398 0.291 0.68 0 0.223-0.064 0.413-0.197 0.58-0.13 0.167-0.34 0.287-0.6 0.367z"/>
				<path d="m214.25 50.562v2.524c-0.85 0.461-1.574 0.773-2.172 0.941-0.596 0.17-1.238 0.255-1.934 0.255-0.961 0-1.852-0.146-2.672-0.431-0.645-0.221-1.15-0.501-1.52-0.838s-0.715-0.835-1.023-1.494c-0.313-0.658-0.469-1.393-0.469-2.209v-1.356c0-1.257 0.381-2.379 1.146-3.364 1.029-1.335 2.426-2.003 4.195-2.003 0.518 0 1.008 0.053 1.471 0.158 0.459 0.103 0.898 0.258 1.314 0.468 0.25-0.228 0.496-0.342 0.736-0.342 0.275 0 0.498 0.097 0.67 0.287 0.17 0.19 0.256 0.51 0.256 0.964v1.222c0 0.454-0.088 0.776-0.262 0.97-0.176 0.193-0.398 0.287-0.674 0.287-0.221 0-0.412-0.064-0.57-0.199-0.121-0.094-0.227-0.296-0.309-0.612-0.08-0.314-0.176-0.529-0.277-0.639-0.168-0.176-0.457-0.337-0.879-0.472-0.418-0.136-0.889-0.206-1.41-0.206-0.746 0-1.396 0.153-1.945 0.458-0.393 0.229-0.756 0.621-1.086 1.185-0.33 0.562-0.496 1.177-0.496 1.839v1.356c0 1.011 0.295 1.778 0.877 2.303 0.586 0.521 1.518 0.785 2.787 0.785 0.865 0 1.65-0.161 2.361-0.488v-1.349h-1.92c-0.451 0-0.775-0.088-0.967-0.264-0.193-0.171-0.291-0.401-0.291-0.683s0.098-0.51 0.291-0.683c0.191-0.179 0.516-0.264 0.967-0.264l3.342 0.009c0.455 0 0.777 0.088 0.971 0.258s0.289 0.398 0.289 0.68c0 0.223-0.064 0.413-0.197 0.58s-0.34 0.287-0.61 0.367z"/>
				<path d="m221.71 44.755v7.368h1.268c0.453 0 0.775 0.085 0.973 0.262 0.191 0.172 0.285 0.402 0.285 0.682 0 0.275-0.094 0.501-0.285 0.677-0.197 0.177-0.52 0.264-0.973 0.264h-4.408c-0.451 0-0.777-0.087-0.969-0.264-0.193-0.176-0.289-0.401-0.289-0.683 0-0.275 0.096-0.504 0.289-0.676 0.191-0.177 0.518-0.262 0.969-0.262h1.256v-7.368h-2.035v1.782c0 0.453-0.088 0.775-0.264 0.972-0.172 0.193-0.402 0.287-0.686 0.287-0.275 0-0.498-0.094-0.674-0.287-0.174-0.196-0.262-0.519-0.262-0.972v-3.675l9.754 0.009v3.666c0 0.453-0.086 0.775-0.258 0.972-0.178 0.193-0.404 0.287-0.686 0.287-0.277 0-0.504-0.094-0.678-0.287-0.174-0.196-0.26-0.519-0.26-0.972v-1.782h-2.07z"/>
				<path d="m233 44.755v7.368h1.266c0.453 0 0.775 0.085 0.967 0.262 0.197 0.172 0.289 0.402 0.289 0.682 0 0.275-0.092 0.501-0.289 0.677-0.191 0.177-0.514 0.264-0.967 0.264h-4.41c-0.453 0-0.775-0.087-0.967-0.264-0.195-0.176-0.293-0.401-0.293-0.683 0-0.275 0.098-0.504 0.293-0.676 0.191-0.177 0.514-0.262 0.967-0.262h1.258v-7.368h-2.039v1.782c0 0.453-0.084 0.775-0.26 0.972-0.176 0.193-0.406 0.287-0.684 0.287s-0.502-0.094-0.678-0.287c-0.172-0.196-0.26-0.519-0.26-0.972v-3.675l9.756 0.009v3.666c0 0.453-0.09 0.775-0.264 0.972-0.174 0.193-0.404 0.287-0.686 0.287-0.275 0-0.498-0.094-0.674-0.287-0.174-0.196-0.262-0.519-0.262-0.972v-1.782h-2.08z"/>
				<path d="m246.33 43.349c0.117-0.157 0.244-0.276 0.379-0.357 0.141-0.079 0.289-0.12 0.449-0.12 0.273 0 0.5 0.097 0.676 0.287 0.174 0.19 0.26 0.51 0.26 0.964v1.597c0 0.457-0.086 0.775-0.26 0.97-0.176 0.193-0.402 0.288-0.676 0.288-0.254 0-0.455-0.068-0.607-0.211-0.154-0.139-0.264-0.405-0.34-0.792-0.041-0.255-0.129-0.451-0.258-0.592-0.252-0.278-0.602-0.498-1.053-0.662-0.451-0.165-0.902-0.247-1.354-0.247-0.563 0-1.08 0.124-1.551 0.365-0.473 0.245-0.893 0.641-1.252 1.194-0.361 0.554-0.539 1.208-0.539 1.966v1.222c0 0.907 0.328 1.661 0.986 2.268 0.658 0.609 1.57 0.911 2.742 0.911 0.695 0 1.287-0.094 1.77-0.285 0.285-0.11 0.584-0.327 0.9-0.652 0.199-0.195 0.352-0.322 0.463-0.379 0.109-0.061 0.232-0.088 0.375-0.088 0.25 0 0.471 0.095 0.662 0.282 0.189 0.19 0.283 0.416 0.283 0.674 0 0.255-0.129 0.528-0.389 0.825-0.369 0.428-0.852 0.766-1.439 1.009-0.791 0.331-1.66 0.498-2.617 0.498-1.117 0-2.119-0.231-3.014-0.691-0.719-0.366-1.338-0.946-1.846-1.737-0.508-0.795-0.762-1.658-0.762-2.599v-1.277c0-0.981 0.227-1.895 0.684-2.742s1.09-1.502 1.896-1.963c0.809-0.457 1.666-0.688 2.572-0.688 0.543 0 1.055 0.064 1.531 0.188 0.49 0.128 0.93 0.319 1.34 0.574z"/>
				<path d="m256.96 50.975h-4.572l-0.461 1.148h0.461c0.453 0 0.773 0.085 0.969 0.262 0.191 0.172 0.291 0.402 0.291 0.682 0 0.275-0.1 0.501-0.291 0.677-0.195 0.177-0.516 0.264-0.969 0.264h-2.537c-0.453 0-0.777-0.087-0.967-0.264-0.193-0.176-0.293-0.401-0.293-0.683 0-0.283 0.102-0.512 0.305-0.691 0.201-0.176 0.535-0.26 1.002-0.246l2.957-7.368h-1.229c-0.455 0-0.779-0.088-0.971-0.261-0.193-0.174-0.289-0.402-0.289-0.684 0-0.283 0.096-0.509 0.289-0.685 0.191-0.175 0.516-0.264 0.971-0.264l4.066 0.009 3.75 9.252c0.438 0 0.732 0.049 0.869 0.146 0.285 0.202 0.426 0.469 0.426 0.797 0 0.275-0.096 0.501-0.285 0.677-0.189 0.177-0.512 0.264-0.967 0.264h-2.533c-0.455 0-0.775-0.087-0.969-0.264-0.193-0.176-0.291-0.401-0.291-0.683 0-0.275 0.098-0.504 0.291-0.676 0.193-0.177 0.514-0.262 0.969-0.262h0.457l-0.46-1.147zm-0.78-1.884l-1.512-3.727-1.527 3.727h3.04z"/>
				<path d="m270.69 50.562v2.524c-0.85 0.461-1.576 0.773-2.172 0.941-0.598 0.17-1.242 0.255-1.936 0.255-0.957 0-1.85-0.146-2.672-0.431-0.643-0.221-1.146-0.501-1.521-0.838-0.369-0.337-0.711-0.835-1.021-1.494-0.311-0.658-0.471-1.393-0.471-2.209v-1.356c0-1.257 0.385-2.379 1.15-3.364 1.027-1.335 2.428-2.003 4.195-2.003 0.516 0 1.004 0.053 1.467 0.158 0.461 0.103 0.902 0.258 1.318 0.468 0.252-0.228 0.496-0.342 0.736-0.342 0.275 0 0.498 0.097 0.668 0.287 0.172 0.19 0.258 0.51 0.258 0.964v1.222c0 0.454-0.088 0.776-0.262 0.97s-0.4 0.287-0.674 0.287c-0.223 0-0.412-0.064-0.57-0.199-0.123-0.094-0.227-0.296-0.307-0.612-0.086-0.314-0.178-0.529-0.279-0.639-0.166-0.176-0.457-0.337-0.879-0.472-0.42-0.136-0.891-0.206-1.41-0.206-0.746 0-1.395 0.153-1.947 0.458-0.393 0.229-0.752 0.621-1.084 1.185-0.332 0.562-0.496 1.177-0.496 1.839v1.356c0 1.011 0.291 1.778 0.877 2.303 0.586 0.521 1.518 0.785 2.789 0.785 0.861 0 1.646-0.161 2.359-0.488v-1.349h-1.92c-0.453 0-0.777-0.088-0.971-0.264-0.191-0.171-0.287-0.401-0.287-0.683s0.096-0.51 0.287-0.683c0.193-0.179 0.518-0.264 0.971-0.264l3.344 0.009c0.453 0 0.775 0.088 0.969 0.258s0.291 0.398 0.291 0.68c0 0.223-0.068 0.413-0.199 0.58-0.14 0.167-0.34 0.287-0.61 0.367z"/>
				<path d="m280.19 43.349c0.119-0.157 0.244-0.276 0.383-0.357 0.141-0.079 0.285-0.12 0.445-0.12 0.275 0 0.5 0.097 0.674 0.287 0.176 0.19 0.262 0.51 0.262 0.964v1.597c0 0.457-0.086 0.775-0.262 0.97-0.174 0.193-0.398 0.288-0.674 0.288-0.252 0-0.453-0.068-0.607-0.211-0.152-0.139-0.266-0.405-0.338-0.792-0.043-0.255-0.129-0.451-0.258-0.592-0.25-0.278-0.602-0.498-1.051-0.662-0.451-0.165-0.902-0.247-1.354-0.247-0.566 0-1.084 0.124-1.555 0.365-0.469 0.245-0.889 0.641-1.248 1.194-0.361 0.554-0.545 1.208-0.545 1.966v1.222c0 0.907 0.332 1.661 0.99 2.268 0.658 0.609 1.572 0.911 2.74 0.911 0.699 0 1.291-0.094 1.775-0.285 0.279-0.11 0.58-0.327 0.898-0.652 0.195-0.195 0.35-0.322 0.459-0.379 0.109-0.061 0.238-0.088 0.375-0.088 0.252 0 0.475 0.095 0.662 0.282 0.191 0.19 0.285 0.416 0.285 0.674 0 0.255-0.129 0.528-0.387 0.825-0.373 0.428-0.854 0.766-1.441 1.009-0.789 0.331-1.662 0.498-2.619 0.498-1.113 0-2.117-0.231-3.01-0.691-0.723-0.366-1.34-0.946-1.848-1.737-0.51-0.795-0.762-1.658-0.762-2.599v-1.277c0-0.981 0.229-1.895 0.682-2.742 0.461-0.847 1.09-1.502 1.898-1.963 0.807-0.457 1.668-0.688 2.572-0.688 0.545 0 1.053 0.064 1.529 0.188 0.49 0.128 0.93 0.319 1.34 0.574z"/>
				<path d="m165.27 67.331v7.364h1.27c0.453 0 0.775 0.086 0.969 0.26 0.193 0.178 0.289 0.404 0.289 0.688 0 0.272-0.096 0.5-0.289 0.674-0.193 0.176-0.516 0.261-0.969 0.261h-4.408c-0.453 0-0.775-0.085-0.971-0.261-0.193-0.174-0.289-0.404-0.289-0.683 0-0.275 0.096-0.501 0.289-0.679 0.195-0.174 0.518-0.26 0.971-0.26h1.258v-7.364h-2.039v1.781c0 0.451-0.088 0.774-0.264 0.97-0.174 0.19-0.402 0.287-0.682 0.287-0.277 0-0.502-0.097-0.676-0.287-0.176-0.195-0.264-0.519-0.264-0.97v-3.677l9.756 0.012v3.665c0 0.451-0.086 0.774-0.262 0.97-0.174 0.19-0.402 0.287-0.684 0.287-0.275 0-0.502-0.097-0.678-0.287-0.172-0.195-0.26-0.519-0.26-0.97v-1.781h-2.08z"/>
				<path d="m176.56 67.331v7.364h1.266c0.453 0 0.775 0.086 0.969 0.26 0.193 0.178 0.291 0.404 0.291 0.688 0 0.272-0.098 0.5-0.291 0.674-0.193 0.176-0.516 0.261-0.969 0.261h-4.41c-0.451 0-0.773-0.085-0.967-0.261-0.191-0.174-0.289-0.404-0.289-0.683 0-0.275 0.098-0.501 0.289-0.679 0.193-0.174 0.516-0.26 0.967-0.26h1.262v-7.364h-2.041v1.781c0 0.451-0.088 0.774-0.262 0.97-0.174 0.19-0.4 0.287-0.684 0.287-0.275 0-0.5-0.097-0.674-0.287-0.174-0.195-0.264-0.519-0.264-0.97v-3.677l9.756 0.012v3.665c0 0.451-0.088 0.774-0.262 0.97-0.172 0.19-0.404 0.287-0.686 0.287-0.271 0-0.502-0.097-0.674-0.287-0.178-0.195-0.26-0.519-0.26-0.97v-1.781h-2.09z"/>
				<path d="m187.85 67.331v7.364h1.266c0.451 0 0.773 0.086 0.967 0.26 0.193 0.178 0.289 0.404 0.289 0.688 0 0.272-0.096 0.5-0.289 0.674-0.193 0.176-0.516 0.261-0.967 0.261h-4.412c-0.451 0-0.777-0.085-0.969-0.261-0.191-0.174-0.289-0.404-0.289-0.683 0-0.275 0.098-0.501 0.289-0.679 0.191-0.174 0.518-0.26 0.969-0.26h1.26v-7.364h-2.039v1.781c0 0.451-0.088 0.774-0.262 0.97-0.176 0.19-0.402 0.287-0.686 0.287-0.275 0-0.5-0.097-0.676-0.287-0.172-0.195-0.26-0.519-0.26-0.97v-3.677l9.754 0.012v3.665c0 0.451-0.088 0.774-0.262 0.97-0.174 0.19-0.402 0.287-0.684 0.287-0.275 0-0.498-0.097-0.676-0.287-0.174-0.195-0.262-0.519-0.262-0.97v-1.781h-2.06z"/>
				<path d="m202.97 73.132v2.526c-0.854 0.461-1.576 0.775-2.172 0.942-0.6 0.17-1.244 0.252-1.936 0.252-0.961 0-1.852-0.141-2.672-0.431-0.645-0.22-1.152-0.5-1.521-0.835-0.371-0.34-0.711-0.835-1.023-1.494-0.313-0.657-0.471-1.394-0.471-2.206v-1.363c0-1.253 0.385-2.371 1.152-3.361 1.027-1.334 2.426-1.999 4.195-1.999 0.516 0 1.002 0.052 1.465 0.152 0.463 0.108 0.9 0.264 1.318 0.47 0.252-0.227 0.496-0.338 0.734-0.338 0.277 0 0.5 0.094 0.672 0.281 0.17 0.193 0.258 0.513 0.258 0.967v1.221c0 0.452-0.09 0.774-0.264 0.968-0.174 0.196-0.398 0.29-0.674 0.29-0.223 0-0.41-0.064-0.57-0.202-0.123-0.091-0.225-0.296-0.309-0.612-0.082-0.313-0.176-0.524-0.281-0.636-0.162-0.179-0.457-0.337-0.875-0.472-0.42-0.138-0.891-0.209-1.41-0.209-0.748 0-1.398 0.154-1.947 0.461-0.391 0.226-0.754 0.618-1.084 1.184s-0.496 1.181-0.496 1.836v1.363c0 1.008 0.291 1.777 0.877 2.3 0.584 0.524 1.514 0.785 2.787 0.785 0.865 0 1.65-0.164 2.361-0.486v-1.354h-1.918c-0.455 0-0.777-0.088-0.971-0.261-0.195-0.174-0.291-0.401-0.291-0.683s0.096-0.511 0.291-0.686c0.193-0.176 0.516-0.263 0.971-0.263l3.342 0.01c0.451 0 0.777 0.086 0.967 0.259 0.195 0.171 0.291 0.397 0.291 0.68 0 0.22-0.064 0.415-0.197 0.577-0.13 0.168-0.34 0.288-0.6 0.367z"/>
				<path d="m211.81 73.548h-4.57l-0.463 1.147h0.463c0.451 0 0.773 0.086 0.967 0.26 0.193 0.178 0.289 0.404 0.289 0.688 0 0.272-0.096 0.5-0.289 0.674-0.193 0.176-0.516 0.261-0.967 0.261h-2.54c-0.453 0-0.779-0.085-0.971-0.261-0.191-0.174-0.289-0.404-0.289-0.683 0-0.284 0.104-0.513 0.303-0.691 0.203-0.177 0.537-0.261 1.002-0.247l2.957-7.364h-1.23c-0.451 0-0.777-0.091-0.969-0.267-0.191-0.17-0.289-0.4-0.289-0.683 0-0.281 0.098-0.507 0.289-0.683s0.518-0.264 0.969-0.264l4.068 0.012 3.75 9.248c0.441 0 0.732 0.049 0.869 0.146 0.283 0.201 0.426 0.47 0.426 0.801 0 0.272-0.098 0.5-0.285 0.674-0.191 0.176-0.512 0.261-0.963 0.261h-2.54c-0.453 0-0.777-0.085-0.969-0.261-0.193-0.174-0.291-0.404-0.291-0.683 0-0.275 0.098-0.501 0.291-0.679 0.191-0.174 0.516-0.26 0.969-0.26h0.461l-0.45-1.146zm-0.78-1.882l-1.516-3.731-1.525 3.731h3.05z"/>
				<path d="m225.54 73.132v2.526c-0.852 0.461-1.576 0.775-2.174 0.942-0.598 0.17-1.242 0.252-1.934 0.252-0.961 0-1.852-0.141-2.672-0.431-0.643-0.22-1.15-0.5-1.521-0.835-0.371-0.34-0.711-0.835-1.021-1.494-0.314-0.657-0.469-1.394-0.469-2.206v-1.363c0-1.253 0.381-2.371 1.146-3.361 1.027-1.334 2.428-1.999 4.197-1.999 0.516 0 1.002 0.052 1.467 0.152 0.461 0.108 0.9 0.264 1.318 0.47 0.25-0.227 0.496-0.338 0.736-0.338 0.271 0 0.498 0.094 0.666 0.281 0.172 0.193 0.26 0.513 0.26 0.967v1.221c0 0.452-0.088 0.774-0.264 0.968-0.176 0.196-0.398 0.29-0.674 0.29-0.219 0-0.412-0.064-0.572-0.202-0.119-0.091-0.223-0.296-0.305-0.612-0.084-0.313-0.178-0.524-0.281-0.636-0.166-0.179-0.457-0.337-0.879-0.472-0.418-0.138-0.887-0.209-1.408-0.209-0.746 0-1.395 0.154-1.947 0.461-0.393 0.226-0.752 0.618-1.082 1.184-0.332 0.565-0.498 1.181-0.498 1.836v1.363c0 1.008 0.293 1.777 0.879 2.3 0.582 0.524 1.512 0.785 2.787 0.785 0.863 0 1.648-0.164 2.359-0.486v-1.354h-1.918c-0.453 0-0.779-0.088-0.973-0.261-0.191-0.174-0.287-0.401-0.287-0.683s0.096-0.511 0.287-0.686c0.193-0.176 0.52-0.263 0.973-0.263l3.34 0.01c0.455 0 0.779 0.086 0.973 0.259 0.189 0.171 0.289 0.397 0.289 0.68 0 0.22-0.066 0.415-0.199 0.577-0.16 0.168-0.36 0.288-0.63 0.367z"/>
				<path d="m236.83 73.132v2.526c-0.852 0.461-1.578 0.775-2.172 0.942-0.596 0.17-1.24 0.252-1.934 0.252-0.963 0-1.855-0.141-2.674-0.431-0.645-0.22-1.15-0.5-1.518-0.835-0.375-0.34-0.715-0.835-1.027-1.494-0.311-0.657-0.467-1.394-0.467-2.206v-1.363c0-1.253 0.383-2.371 1.146-3.361 1.029-1.334 2.428-1.999 4.201-1.999 0.512 0 1 0.052 1.461 0.152 0.463 0.108 0.902 0.264 1.318 0.47 0.252-0.227 0.5-0.338 0.736-0.338 0.275 0 0.498 0.094 0.672 0.281 0.17 0.193 0.256 0.513 0.256 0.967v1.221c0 0.452-0.086 0.774-0.262 0.968-0.174 0.196-0.4 0.29-0.678 0.29-0.219 0-0.406-0.064-0.568-0.202-0.121-0.091-0.223-0.296-0.307-0.612-0.082-0.313-0.176-0.524-0.279-0.636-0.164-0.179-0.457-0.337-0.877-0.472-0.42-0.138-0.891-0.209-1.414-0.209-0.744 0-1.395 0.154-1.943 0.461-0.391 0.226-0.752 0.618-1.086 1.184-0.33 0.565-0.498 1.181-0.498 1.836v1.363c0 1.008 0.297 1.777 0.879 2.3 0.586 0.524 1.514 0.785 2.791 0.785 0.863 0 1.65-0.164 2.359-0.486v-1.354h-1.92c-0.453 0-0.775-0.088-0.969-0.261-0.193-0.174-0.289-0.401-0.289-0.683s0.096-0.511 0.289-0.686c0.193-0.176 0.516-0.263 0.969-0.263l3.344 0.01c0.453 0 0.775 0.086 0.967 0.259 0.195 0.171 0.289 0.397 0.289 0.68 0 0.22-0.061 0.415-0.195 0.577-0.14 0.168-0.34 0.288-0.61 0.367z"/>
				<path d="m248.12 73.132v2.526c-0.852 0.461-1.574 0.775-2.174 0.942-0.596 0.17-1.242 0.252-1.934 0.252-0.959 0-1.854-0.141-2.672-0.431-0.645-0.22-1.148-0.5-1.518-0.835-0.375-0.34-0.713-0.835-1.029-1.494-0.307-0.657-0.465-1.394-0.465-2.206v-1.363c0-1.253 0.381-2.371 1.146-3.361 1.027-1.334 2.43-1.999 4.197-1.999 0.516 0 1.002 0.052 1.467 0.152 0.461 0.108 0.9 0.264 1.316 0.47 0.252-0.227 0.498-0.338 0.736-0.338 0.273 0 0.498 0.094 0.67 0.281 0.174 0.193 0.258 0.513 0.258 0.967v1.221c0 0.452-0.088 0.774-0.264 0.968-0.172 0.196-0.396 0.29-0.674 0.29-0.221 0-0.408-0.064-0.57-0.202-0.121-0.091-0.225-0.296-0.307-0.612-0.084-0.313-0.176-0.524-0.281-0.636-0.166-0.179-0.457-0.337-0.875-0.472-0.42-0.138-0.891-0.209-1.41-0.209-0.746 0-1.396 0.154-1.947 0.461-0.393 0.226-0.756 0.618-1.086 1.184-0.328 0.565-0.496 1.181-0.496 1.836v1.363c0 1.008 0.293 1.777 0.879 2.3 0.586 0.524 1.514 0.785 2.789 0.785 0.863 0 1.648-0.164 2.357-0.486v-1.354h-1.918c-0.455 0-0.777-0.088-0.969-0.261-0.195-0.174-0.289-0.401-0.289-0.683s0.094-0.511 0.289-0.686c0.191-0.176 0.514-0.263 0.969-0.263l3.346 0.01c0.451 0 0.773 0.086 0.965 0.259 0.195 0.171 0.293 0.397 0.293 0.68 0 0.22-0.068 0.415-0.197 0.577-0.16 0.168-0.36 0.288-0.63 0.367z"/>
				<path d="m257.62 65.922c0.115-0.158 0.24-0.277 0.381-0.354 0.135-0.082 0.283-0.12 0.443-0.12 0.277 0 0.502 0.094 0.676 0.281 0.178 0.193 0.26 0.513 0.26 0.967v1.6c0 0.451-0.082 0.773-0.26 0.967-0.174 0.19-0.398 0.29-0.676 0.29-0.25 0-0.453-0.07-0.604-0.211-0.156-0.138-0.268-0.404-0.34-0.79-0.045-0.256-0.131-0.458-0.26-0.599-0.248-0.275-0.602-0.495-1.049-0.661-0.451-0.162-0.904-0.248-1.357-0.248-0.563 0-1.082 0.123-1.551 0.369-0.473 0.244-0.889 0.643-1.252 1.193-0.359 0.551-0.541 1.207-0.541 1.966v1.222c0 0.906 0.328 1.664 0.986 2.268 0.66 0.606 1.574 0.911 2.742 0.911 0.701 0 1.291-0.097 1.773-0.284 0.281-0.109 0.582-0.331 0.902-0.654 0.193-0.195 0.346-0.321 0.459-0.38 0.109-0.059 0.234-0.085 0.375-0.085 0.252 0 0.473 0.092 0.662 0.281 0.188 0.19 0.285 0.416 0.285 0.671 0 0.259-0.129 0.532-0.387 0.826-0.375 0.431-0.855 0.767-1.441 1.013-0.791 0.329-1.664 0.493-2.617 0.493-1.115 0-2.123-0.229-3.014-0.685-0.723-0.37-1.338-0.95-1.846-1.744s-0.76-1.658-0.76-2.593v-1.278c0-0.98 0.227-1.893 0.682-2.741 0.457-0.851 1.088-1.501 1.896-1.96 0.809-0.46 1.666-0.688 2.572-0.688 0.543 0 1.055 0.059 1.527 0.188 0.49 0.122 0.93 0.313 1.35 0.569z"/>
				<path d="m268.9 65.922c0.117-0.158 0.244-0.277 0.383-0.354 0.137-0.082 0.283-0.12 0.443-0.12 0.277 0 0.502 0.094 0.676 0.281 0.174 0.193 0.264 0.513 0.264 0.967v1.6c0 0.451-0.09 0.773-0.264 0.967-0.174 0.19-0.398 0.29-0.676 0.29-0.25 0-0.453-0.07-0.605-0.211-0.152-0.138-0.268-0.404-0.338-0.79-0.045-0.256-0.131-0.458-0.26-0.599-0.252-0.275-0.602-0.495-1.049-0.661-0.451-0.162-0.902-0.248-1.357-0.248-0.564 0-1.08 0.123-1.551 0.369-0.473 0.244-0.889 0.643-1.25 1.193-0.363 0.551-0.543 1.207-0.543 1.966v1.222c0 0.906 0.33 1.664 0.986 2.268 0.66 0.606 1.576 0.911 2.742 0.911 0.699 0 1.291-0.097 1.775-0.284 0.281-0.109 0.58-0.331 0.898-0.654 0.197-0.195 0.35-0.321 0.461-0.38 0.107-0.059 0.234-0.085 0.377-0.085 0.25 0 0.471 0.092 0.66 0.281 0.188 0.19 0.285 0.416 0.285 0.671 0 0.259-0.127 0.532-0.387 0.826-0.373 0.431-0.854 0.767-1.439 1.013-0.793 0.329-1.664 0.493-2.619 0.493-1.113 0-2.121-0.229-3.014-0.685-0.725-0.37-1.34-0.95-1.848-1.744-0.51-0.794-0.762-1.658-0.762-2.593v-1.278c0-0.98 0.229-1.893 0.686-2.741 0.457-0.851 1.088-1.501 1.896-1.96 0.809-0.46 1.666-0.688 2.572-0.688 0.545 0 1.055 0.059 1.527 0.188 0.47 0.122 0.91 0.313 1.32 0.569z"/>
				<path d="m279.54 73.548h-4.574l-0.461 1.147h0.461c0.453 0 0.775 0.086 0.969 0.26 0.193 0.178 0.289 0.404 0.289 0.688 0 0.272-0.096 0.5-0.289 0.674-0.193 0.176-0.516 0.261-0.969 0.261h-2.535c-0.453 0-0.775-0.085-0.969-0.261-0.193-0.174-0.291-0.404-0.291-0.683 0-0.284 0.104-0.513 0.303-0.691 0.201-0.177 0.539-0.261 1.002-0.247l2.959-7.364h-1.23c-0.455 0-0.777-0.091-0.969-0.267-0.195-0.17-0.291-0.4-0.291-0.683 0-0.281 0.096-0.507 0.291-0.683 0.191-0.176 0.514-0.264 0.969-0.264l4.066 0.012 3.75 9.248c0.439 0 0.732 0.049 0.873 0.146 0.279 0.201 0.422 0.47 0.422 0.801 0 0.272-0.098 0.5-0.285 0.674-0.189 0.176-0.512 0.261-0.963 0.261h-2.539c-0.451 0-0.773-0.085-0.969-0.261-0.191-0.174-0.289-0.404-0.289-0.683 0-0.275 0.098-0.501 0.289-0.679 0.195-0.174 0.518-0.26 0.969-0.26h0.461l-0.46-1.146zm-0.78-1.882l-1.514-3.731-1.525 3.731h3.04z"/>
			</g>
		</g>
	<path d="m10.572 20.609h3.33c1.844 0 3.455-0.328 4.834-0.98 1.379-0.654 2.431-1.549 3.156-2.686s1.088-2.449 1.088-3.936c0-2.506-0.708-4.467-2.122-5.881-1.415-1.414-3.446-2.121-6.097-2.121-2.506 0-4.561 0.738-6.163 2.215s-2.403 3.424-2.403 5.842h-3.222c0-2.023 0.51-3.871 1.531-5.547 1.02-1.674 2.434-2.967 4.242-3.879 1.809-0.914 3.814-1.371 6.016-1.371 3.545 0 6.338 0.967 8.379 2.9s3.063 4.584 3.063 7.949c0 1.881-0.596 3.613-1.786 5.197s-2.825 2.77-4.901 3.559c2.435 0.68 4.279 1.848 5.532 3.504s1.88 3.631 1.88 5.922c0 3.348-1.092 6.043-3.276 8.084s-5.103 3.061-8.755 3.061c-2.328 0-4.463-0.465-6.405-1.396-1.942-0.93-3.446-2.232-4.512-3.906s-1.598-3.621-1.598-5.842h3.223c0 2.488 0.868 4.516 2.604 6.082 1.736 1.568 3.966 2.352 6.688 2.352 2.775 0 4.938-0.713 6.485-2.137 1.549-1.422 2.323-3.486 2.323-6.189 0-2.613-0.837-4.609-2.511-5.988-1.675-1.379-4.141-2.068-7.399-2.068h-3.223v-2.74z" fill="#5D5D5D"/>
<rect width="328" height="196" fill="none"/>
</svg>
