<?xml version="1.0" encoding="UTF-8" standalone="no"?>
<!-- Generator: Adobe Illustrator 16.0.3, SVG Export Plug-In . SVG Version: 6.00 Build 0)  -->
<!DOCTYPE svg  PUBLIC '-//W3C//DTD SVG 1.1//EN'  'http://www.w3.org/Graphics/SVG/1.1/DTD/svg11.dtd'>
<svg id="Capa_1" xmlns="http://www.w3.org/2000/svg" xml:space="preserve" height="80px" viewBox="0 0 206.73 80" width="206.73px" version="1.1" y="0px" x="0px" xmlns:xlink="http://www.w3.org/1999/xlink" enable-background="new 0 0 206.73 80">
	<path d="m32.986 20.901c7.81-0.004 15.616 0 23.425-0.002 0.797 0.002 1.596-0.017 2.391 0.029-0.29 0.142-0.584 0.277-0.881 0.4-5.582 2.261-10.869 5.233-15.736 8.775-3.241-2.149-6.34-4.528-9.197-7.171l-0.002-2.031z" fill="#0160A0"/>
	<path d="m42.947 30.572c6.79-4.332 14.261-7.582 22.049-9.635 0.003 1.869 0.003 3.739 0 5.608-5.363 1.552-10.537 3.746-15.403 6.476-0.426 0.23-0.824 0.516-1.272 0.694-0.492-0.183-0.934-0.474-1.394-0.724-1.347-0.773-2.708-1.529-3.98-2.419z" fill="#0160A0"/>
	<path d="m130.07 27.352c-1.046-2.648-3.128-4.903-5.759-6.021-1.72-0.752-3.666-0.943-5.51-0.606-2.444 0.436-4.648 1.866-6.178 3.802-1.576 1.992-2.451 4.528-2.423 7.068-0.028 2.573 0.892 5.135 2.521 7.125 1.698 2.117 4.244 3.583 6.961 3.826 1.961 0.185 3.974-0.262 5.672-1.256 2.385-1.367 4.179-3.687 4.99-6.306 0.8-2.473 0.7-5.221-0.27-7.632zm-4.14 10.48c-0.999 1.539-2.615 2.725-4.457 2.979-1.89 0.306-3.877-0.375-5.248-1.698-1.77-1.69-2.604-4.146-2.772-6.543-0.172-2.513 0.266-5.165 1.696-7.28 1.015-1.53 2.646-2.678 4.481-2.94 1.873-0.322 3.872 0.327 5.218 1.664 1.672 1.584 2.496 3.868 2.731 6.118 0.26 2.645-0.16 5.45-1.65 7.7z"/>
	<path d="m107.32 40.734c-0.641-0.375-1.045-1.021-1.438-1.628-1.481-2.281-2.958-4.563-4.44-6.844 1.25-0.216 2.517-0.687 3.39-1.643 1.233-1.255 1.522-3.139 1.336-4.825-0.197-1.57-0.964-3.176-2.373-3.995-1.342-0.773-2.938-0.866-4.448-0.862-2.854 0.004-5.706 0-8.558 0.002-0.002 0.418 0 0.837 0.005 1.255 0.793-0.006 1.585-0.006 2.38 0.002-0.008 6.24 0 12.482-0.004 18.726h-2.381v1.253h7.67v-1.253c-0.81 0-1.62 0.008-2.428-0.008 0.014-2.742 0-5.484 0.006-8.227 0.831 0 1.662-0.002 2.493 0.002 1.662 2.65 3.326 5.302 4.999 7.952 0.408 0.651 0.956 1.356 1.781 1.45 1.343 0.163 2.698 0.046 4.046 0.083v-1.253c-0.67-0.028-1.4 0.111-2.04-0.187zm-11.275-9.579c-0.01-2.895-0.002-5.788-0.002-8.682 1.205 0.015 2.416-0.027 3.621 0.019 1.313 0.092 2.622 0.829 3.153 2.072 0.609 1.474 0.578 3.25-0.209 4.653-0.649 1.163-1.943 1.886-3.266 1.93-1.1 0.019-2.199-0.003-3.299 0.008z"/>
	<path d="m167.06 21.699c-1.291-0.53-2.688-0.766-4.082-0.762-3.109 0.006-6.217 0-9.326 0.004 0 0.416 0 0.833 0.002 1.251h2.42c0 6.244 0.003 12.486-0.002 18.729h-2.42c-0.002 0.417-0.002 0.833 0 1.253 3.22-0.002 6.439 0.003 9.662-0.004 2.707-0.035 5.404-1.135 7.299-3.085 1.476-1.464 2.463-3.394 2.859-5.432v-4.247c-0.69-3.418-3.16-6.42-6.41-7.707zm0.76 16.699c-1.301 1.333-3.146 2.124-5.012 2.12h-3.879v-17.883c1.344 0 2.687 0 4.029-0.002 1.906 0.011 3.724 0.956 5.008 2.334 1.682 1.82 2.525 4.331 2.472 6.792-0.02 2.426-0.86 4.922-2.62 6.639z"/>
	<path d="m32.986 23.097c2.627 2.731 5.523 5.198 8.541 7.49-1.504 1.116-2.952 2.305-4.384 3.517-1.421-1.139-2.839-2.29-4.157-3.546v-7.461z" fill="#0160A0"/>
	<path d="m149.86 40.924c-2.686-6.872-5.347-13.755-8.029-20.628l0.137-0.002h-1.334c-2.803 6.868-5.563 13.754-8.351 20.63-0.554-0.002-1.104-0.002-1.651-0.002-0.002 0.417-0.002 0.833 0 1.253h6.176c-0.002-0.42-0.002-0.836 0-1.253h-2.674c0.781-1.909 1.547-3.826 2.333-5.735 2.724 0.008 5.448 0.004 8.172 0.004 0.738 1.911 1.486 3.82 2.229 5.731h-2.552c-0.002 0.417-0.002 0.833 0 1.253h7.349c-0.001-0.42-0.001-0.836 0-1.253-0.61 0-1.21 0-1.82 0.002zm-12.76-7.308c1.191-2.952 2.368-5.912 3.572-8.86 1.197 2.929 2.268 5.912 3.41 8.865-2.32-0.011-4.65-0.001-6.98-0.005z"/>
	<path d="m49.609 34.435c4.912-2.461 10.071-4.433 15.39-5.814-0.003 1.867 0.003 3.732-0.003 5.596-2.985 0.885-5.926 1.93-8.775 3.186-2.25-0.884-4.453-1.88-6.612-2.968z" fill="#0160A0"/>
	<path d="m32.986 30.968l0.002-0.189c1.257 1.233 2.537 2.444 3.841 3.632-1.336 1.132-2.591 2.356-3.843 3.574v-7.017z" fill="#0160A0"/>
	<path d="m37.506 34.394c1.518-1.168 3.088-2.268 4.689-3.313 1.624 1.17 3.276 2.309 4.993 3.343-1.69 1.06-3.36 2.163-4.979 3.332-1.608-1.063-3.175-2.187-4.703-3.362z" fill="#0160A0"/>
	<path d="m86.558 33.397c-1.034-1.432-2.759-2.273-4.504-2.384 1.406-0.264 2.751-0.986 3.597-2.163 0.842-1.1 1.063-2.584 0.722-3.912-0.519-2.226-2.636-3.929-4.916-3.988-3.347-0.023-6.693-0.003-10.039-0.011 0 0.418 0 0.837 0.003 1.255 0.807-0.006 1.612-0.002 2.419-0.002 0 6.244 0.002 12.486 0 18.729h-2.422v1.253c3.502 0 7 0.001 10.501-0.002 1.648-0.017 3.32-0.699 4.381-1.987 1.58-1.866 1.68-4.803 0.258-6.788zm-9.854-10.923c1.204 0.002 2.403-0.002 3.607 0 1.144-0.013 2.185 0.747 2.69 1.743 0.636 1.255 0.649 2.798 0.107 4.089-0.473 1.132-1.567 1.998-2.806 2.09-1.198 0.071-2.401 0.009-3.602 0.031 0.004-2.649 0.004-5.301 0.004-7.953zm6.083 17.58c-0.744 0.452-1.625 0.629-2.486 0.629-1.199-0.002-2.398-0.002-3.597-0.002-0.001-2.935 0-5.868 0-8.802 1.249 0.013 2.498-0.029 3.745 0.021 1.37 0.039 2.719 0.773 3.428 1.957 1.184 1.927 0.971 4.946-1.09 6.197z"/>
	<path d="m34.086 37.216c0.996-0.878 2.029-1.713 3.063-2.542 1.428 1.235 2.896 2.43 4.404 3.564-1.49 1.133-2.967 2.29-4.369 3.53-1.235-0.953-2.393-2-3.613-2.97-0.163-0.19-0.327-0.379-0.501-0.559 0.258-0.413 0.659-0.704 1.016-1.023z" fill="#0160A0"/>
	<path d="m42.977 38.264c1.715-1.158 3.535-2.157 5.354-3.14 1.935 1.139 3.921 2.192 5.945 3.158-2.027 0.941-3.993 2.007-5.93 3.127-1.825-0.986-3.616-2.034-5.369-3.145z" fill="#0160A0"/>
	<path d="m58.604 38.303c2.091-0.785 4.234-1.422 6.395-1.983-0.001 1.319-0.001 2.64-0.001 3.959-2.159-0.566-4.291-1.229-6.394-1.976z" fill="#0160A0"/>
	<path d="m32.986 38.455c1.324 1.157 2.519 2.456 3.871 3.583-1.322 1.17-2.614 2.38-3.871 3.627v-7.21z" fill="#0160A0"/>
	<path d="m37.539 42.044c1.512-1.166 3.088-2.246 4.669-3.314 1.622 1.179 3.304 2.271 4.98 3.364-1.674 1.064-3.337 2.153-4.945 3.315-1.606-1.068-3.185-2.177-4.704-3.365z" fill="#0160A0"/>
	<path d="m50.061 41.895c2.014-0.996 4.065-1.913 6.158-2.729 2.855 1.255 5.796 2.307 8.783 3.2-0.01 1.851-0.001 3.702-0.007 5.555-5.192-1.383-10.258-3.271-15.055-5.692-0.295-0.075-0.036-0.308 0.121-0.334z" fill="#0160A0"/>
	<path d="m32.986 45.881c1.324-1.264 2.759-2.412 4.193-3.545 1.429 1.236 2.897 2.425 4.404 3.561-3.038 2.285-5.949 4.754-8.599 7.479l0.002-7.495z" fill="#0160A0"/>
	<path d="m43.002 45.886c1.752-1.096 3.539-2.132 5.358-3.105 5.225 3.065 10.813 5.511 16.632 7.206 0.012 1.854 0.003 3.709 0.003 5.563-7.77-2.055-15.245-5.288-21.993-9.664z" fill="#0160A0"/>
	<path d="m32.986 53.552c2.869-2.653 6.011-5.006 9.269-7.163 5.17 3.771 10.824 6.879 16.785 9.217-8.685 0.025-17.369 0.004-26.054 0.012v-2.066z" fill="#0160A0"/>
	<path d="m106.42 47.545c0.208-0.002 0.419-0.005 0.631-0.007 0.006 0.082 0.015 0.248 0.021 0.327 1.811 0 3.62-0.004 5.432 0.004 0.004-0.083 0.011-0.245 0.016-0.326 0.226-0.002 0.45-0.002 0.676-0.003 0.007 0.671 0 1.346 0.007 2.017-0.231 0.004-0.462 0.004-0.688 0.008-0.001-0.322 0-0.646 0.002-0.971-0.648-0.002-1.297-0.006-1.944 0.008 0.013 2.135 0.001 4.272 0.006 6.409h1.09v0.524h-3.753v-0.524h1.129c-0.002-2.141 0.007-4.282-0.004-6.423-0.658 0.006-1.314 0.004-1.974 0.004-0.002 0.325-0.004 0.649-0.006 0.975-0.215-0.004-0.428-0.006-0.641-0.008-0.03-0.673-0.03-1.342-0.02-2.014z"/>
	<path d="m151.95 47.547c0.207-0.004 0.417-0.007 0.629-0.011 0.005 0.082 0.02 0.246 0.021 0.329 1.813 0.002 3.621-0.004 5.435 0.004 0.003-0.081 0.012-0.245 0.016-0.326 0.223-0.002 0.449-0.002 0.678-0.003 0.004 0.673 0 1.346 0.003 2.021-0.229 0-0.46 0-0.688 0.002 0-0.322 0-0.646 0.004-0.971-0.646 0-1.291 0.004-1.937-0.004-0.011 2.141-0.002 4.282-0.004 6.423h1.091v0.524h-3.755v-0.524h1.13c0-2.141 0.004-4.28-0.002-6.421-0.658 0.004-1.316 0.004-1.975 0-0.001 0.322-0.004 0.646-0.001 0.969-0.217 0.002-0.434 0.002-0.647 0.004v-2.016z"/>
	<path d="m169.01 47.87c-0.009-0.429 0.412-0.315 0.7-0.347 0.004 0.644 0.004 1.281 0 1.924-0.217-0.006-0.433-0.01-0.646-0.016-0.002-0.279 0.002-0.56 0.004-0.841-0.793 0-1.586 0.004-2.377-0.004-0.014 0.903-0.005 1.808-0.006 2.709h1.818c-0.004-0.269-0.004-0.537-0.004-0.806 0.227-0.001 0.457-0.001 0.688-0.004v2.304h-0.686c-0.001-0.269 0-0.537 0.003-0.804-0.606-0.006-1.213-0.004-1.816-0.006-0.005 0.94-0.003 1.886-0.003 2.826 0.822-0.002 1.646 0.004 2.468-0.004-0.006-0.281-0.009-0.563-0.007-0.843h0.688c-0.002 0.526 0 1.049 0 1.573-1.844 0-3.687 0.004-5.529-0.002-0.001-0.129-0.004-0.389-0.006-0.518 0.285-0.004 0.566-0.008 0.854-0.01-0.004-2.203 0-4.41-0.002-6.615-0.286 0-0.571-0.002-0.854-0.006 0.002-0.131 0.005-0.39 0.006-0.521 1.58 0.008 3.15 0 4.72 0.011z"/>
	<path d="m99.43 47.622c0.215 0 0.432 0 0.649 0.002-0.003 0.674-0.003 1.345 0 2.019-0.219-0.002-0.436-0.002-0.649-0.002 0-0.268 0-0.533 0.004-0.797-0.508-0.279-1.126-0.591-1.699-0.31-0.512 0.21-0.769 0.933-0.372 1.366 0.751 0.84 1.913 1.176 2.661 2.017 0.886 0.979 0.685 2.765-0.48 3.437-0.907 0.531-2.049 0.398-2.956-0.058 0.116 0.495-0.4 0.353-0.705 0.399-0.002-0.729-0.002-1.453-0.002-2.178 0.172 0 0.516 0 0.688-0.002-0.004 0.291 0 0.586-0.004 0.879 0.628 0.496 1.595 0.797 2.293 0.278 0.457-0.305 0.506-1.004 0.131-1.394-0.7-0.784-1.729-1.153-2.502-1.852-0.948-0.833-0.883-2.584 0.191-3.283 0.812-0.541 1.863-0.484 2.758-0.203 0.002-0.077-0.002-0.235-0.002-0.318z"/>
	<path d="m126.15 47.543c0.213 0 0.422-0.002 0.634-0.002 0.01 0.081 0.023 0.247 0.03 0.331 1.809-0.013 3.617-0.007 5.425-0.003 0.004-0.083 0.013-0.247 0.016-0.326h0.68v2.018h-0.686c-0.002-0.322-0.002-0.646 0-0.967-0.65-0.002-1.297-0.008-1.943 0.01 0.012 2.136 0 4.27 0.005 6.403 0.368 0.002 0.735 0.007 1.105 0.017-0.011 0.172-0.02 0.344-0.027 0.515-1.247-0.006-2.496 0.003-3.743-0.006v-0.519c0.375-0.003 0.753-0.003 1.131-0.005-0.002-2.139 0.005-4.278-0.002-6.419-0.657 0.006-1.313 0.006-1.973 0-0.004 0.323-0.004 0.646-0.004 0.971h-0.646c-0.01-0.672-0.01-1.344-0.01-2.018z"/>
	<path d="m72.744 47.872c1.091-0.015 2.183-0.003 3.272-0.007v0.523c-0.285 0.002-0.565 0.002-0.85 0.004 0.004 2.207 0.004 4.41 0 6.615h0.844c0.002 0.178 0.006 0.35 0.008 0.526h-3.27c-0.001-0.132-0.001-0.392-0.001-0.522 0.295-0.002 0.594-0.004 0.89-0.006-0.004-2.203-0.006-4.406 0-6.611-0.296-0.004-0.595-0.006-0.89-0.01-0.001-0.125-0.002-0.383-0.003-0.512z"/>
	<path d="m81.83 47.865h2.339c1.229 1.768 2.472 3.527 3.713 5.287 0.012-1.588 0.001-3.174 0.005-4.762h-0.928v-0.525c0.887-0.002 1.773 0 2.662 0 0 0.131 0 0.394 0.002 0.525h-0.971c0 2.42-0.002 4.844 0.002 7.266-0.292 0.002-0.583 0.004-0.874 0.006-1.317-1.85-2.606-3.721-3.953-5.544-0.04 1.628-0.01 3.261-0.019 4.893 0.311 0 0.618 0 0.929 0.003-0.001 0.131-0.001 0.392-0.002 0.521h-2.663v-0.524h0.971v-5.659c0.047-0.363-0.203-0.648-0.359-0.951-0.283-0.008-0.57-0.01-0.854-0.015v-0.521z"/>
	<path d="m118.12 47.865c1.097-0.002 2.192 0.007 3.289-0.006 0.012 0.171 0.024 0.348 0.039 0.519-0.304 0.011-0.606 0.015-0.908 0.021 0.007 2.203 0.005 4.406 0 6.608 0.297 0.002 0.594 0.007 0.893 0.011 0 0.129 0.002 0.385 0.002 0.515-1.104 0.009-2.209 0.002-3.313 0.004v-0.522c0.296-0.002 0.594-0.004 0.893-0.006-0.006-2.205-0.006-4.408-0.002-6.613-0.297-0.002-0.595-0.002-0.891-0.002v-0.529z"/>
	<path d="m138.46 47.87c1.104-0.009 2.207-0.003 3.313-0.005 0 0.131 0.002 0.394 0.002 0.523-0.301 0-0.596 0.002-0.892 0.004 0.011 1.51-0.007 3.019 0.007 4.526 0.026 0.54 0.076 1.147 0.492 1.545 1.126 0.938 3.228 0.304 3.375-1.247 0.104-1.604 0.016-3.219 0.045-4.826h-0.97v-0.525h2.745c0 0.131 0 0.39 0.002 0.521-0.329 0.005-0.652 0.007-0.979 0.015 0.013 1.396 0.003 2.793 0.01 4.188-0.005 0.827-0.147 1.754-0.81 2.32-1.271 1.03-3.274 1.065-4.584 0.083-0.569-0.458-0.859-1.197-0.863-1.918-0.008-1.561-0.005-3.118 0.001-4.678-0.3-0.006-0.599-0.01-0.894-0.014 0-0.127-0.01-0.385-0.01-0.512z"/>
</svg>
