<?xml version="1.0" encoding="UTF-8" standalone="no"?>
<!-- Generator: Adobe Illustrator 16.0.3, SVG Export Plug-In . SVG Version: 6.00 Build 0)  -->
<!DOCTYPE svg  PUBLIC '-//W3C//DTD SVG 1.1//EN'  'http://www.w3.org/Graphics/SVG/1.1/DTD/svg11.dtd'>
<svg id="Capa_1" xmlns="http://www.w3.org/2000/svg" xml:space="preserve" height="170.8px" viewBox="0 0 1293.057 170.802" width="1293.1px" version="1.1" y="0px" x="0px" xmlns:xlink="http://www.w3.org/1999/xlink" enable-background="new 0 0 1293.057 170.802">
					<line stroke-linejoin="round" x1="27.528" y2="106.64" x2="27.528" stroke="#0C457D" stroke-linecap="round" y1="69.64" stroke-width="6" fill="none"/>
					<circle cy="70.071" cx="27.371" r="6.021" fill="#0C457D"/>
					<line stroke-linejoin="round" x1="5.528" y2="106.64" x2="5.528" stroke="#0C457D" stroke-linecap="round" y1="89.64" stroke-width="6" fill="none"/>
					<circle cy="90.217" cx="6.021" r="4.816" fill="#0C457D"/>
					<line stroke-linejoin="round" x1="134.53" y2="53.64" x2="134.53" stroke="#0C457D" stroke-linecap="round" y1="37.64" stroke-width="6" fill="none"/>
					<circle cy="38.047" cx="134.12" r="6.021" fill="#0C457D"/>
					<line stroke-linejoin="round" x1="112.53" y2="63.64" x2="112.53" stroke="#0C457D" stroke-linecap="round" y1="28.64" stroke-width="6" fill="none"/>
					<circle cy="28.574" cx="112.77" r="7.225" fill="#0C457D"/>
					<line stroke-linejoin="round" x1="91.528" y2="74.64" x2="91.528" stroke="#0C457D" stroke-linecap="round" y1="18.64" stroke-width="6" fill="none"/>
					<circle cy="19.104" cx="91.421" r="8.429" fill="#0C457D"/>
					<line stroke-linejoin="round" x1="70.528" y2="85.64" x2="70.528" stroke="#0C457D" stroke-linecap="round" y1="28.64" stroke-width="6" fill="none"/>
					<circle cy="28.574" cx="70.071" r="7.225" fill="#0C457D"/>
					<line stroke-linejoin="round" x1="48.528" y2="95.64" x2="48.528" stroke="#0C457D" stroke-linecap="round" y1="48.64" stroke-width="6" fill="none"/>
					<circle cy="48.721" cx="48.722" r="6.021" fill="#0C457D"/>
					<line stroke-linejoin="round" x1="155.53" y2="63.64" x2="155.53" stroke="#0C457D" stroke-linecap="round" y1="100.64" stroke-width="6" fill="none"/>
					<circle cy="100.73" cx="155.47" r="6.021" fill="#0C457D"/>
					<line stroke-linejoin="round" x1="262.53" y2="117.64" x2="262.53" stroke="#0C457D" stroke-linecap="round" y1="132.64" stroke-width="6" fill="none"/>
					<circle cy="132.76" cx="262.22" r="6.021" fill="#0C457D"/>
					<line stroke-linejoin="round" x1="240.53" y2="106.64" x2="240.53" stroke="#0C457D" stroke-linecap="round" y1="142.64" stroke-width="6" fill="none"/>
					<circle cy="142.23" cx="240.87" r="7.225" fill="#0C457D"/>
					<line stroke-linejoin="round" x1="219.53" y2="95.64" x2="219.53" stroke="#0C457D" stroke-linecap="round" y1="151.64" stroke-width="6" fill="none"/>
					<circle cy="151.7" cx="219.52" r="8.429" fill="#0C457D"/>
					<line stroke-linejoin="round" x1="198.53" y2="85.64" x2="198.53" stroke="#0C457D" stroke-linecap="round" y1="142.64" stroke-width="6" fill="none"/>
					<circle cy="142.23" cx="198.17" r="7.225" fill="#0C457D"/>
					<line stroke-linejoin="round" x1="176.53" y2="74.64" x2="176.53" stroke="#0C457D" stroke-linecap="round" y1="122.64" stroke-width="6" fill="none"/>
					<circle cy="122.08" cx="176.82" r="6.021" fill="#0C457D"/>
					<line stroke-linejoin="round" x1="283.53" y2="106.64" x2="283.53" stroke="#0C457D" stroke-linecap="round" y1="69.64" stroke-width="6" fill="none"/>
					<circle cy="70.071" cx="283.57" r="6.021" fill="#0C457D"/>
					<line stroke-linejoin="round" x1="390.53" y2="53.64" x2="390.53" stroke="#0C457D" stroke-linecap="round" y1="37.64" stroke-width="6" fill="none"/>
					<circle cy="38.047" cx="390.32" r="6.021" fill="#0C457D"/>
					<line stroke-linejoin="round" x1="368.53" y2="63.64" x2="368.53" stroke="#0C457D" stroke-linecap="round" y1="28.64" stroke-width="6" fill="none"/>
					<circle cy="28.574" cx="368.98" r="7.225" fill="#0C457D"/>
					<line stroke-linejoin="round" x1="347.53" y2="74.64" x2="347.53" stroke="#0C457D" stroke-linecap="round" y1="18.64" stroke-width="6" fill="none"/>
					<circle cy="19.104" cx="347.62" r="8.429" fill="#0C457D"/>
					<line stroke-linejoin="round" x1="326.53" y2="85.64" x2="326.53" stroke="#0C457D" stroke-linecap="round" y1="28.64" stroke-width="6" fill="none"/>
					<circle cy="28.574" cx="326.27" r="7.225" fill="#0C457D"/>
					<line stroke-linejoin="round" x1="304.53" y2="95.64" x2="304.53" stroke="#0C457D" stroke-linecap="round" y1="48.64" stroke-width="6" fill="none"/>
					<circle cy="48.721" cx="304.92" r="6.021" fill="#0C457D"/>
					<line stroke-linejoin="round" x1="411.53" y2="63.64" x2="411.53" stroke="#0C457D" stroke-linecap="round" y1="100.64" stroke-width="6" fill="none"/>
					<circle cy="100.73" cx="411.68" r="6.021" fill="#0C457D"/>
					<line stroke-linejoin="round" x1="518.53" y2="117.64" x2="518.53" stroke="#0C457D" stroke-linecap="round" y1="132.64" stroke-width="6" fill="none"/>
					<circle cy="132.76" cx="518.43" r="6.021" fill="#0C457D"/>
					<line stroke-linejoin="round" x1="497.53" y2="106.64" x2="497.53" stroke="#0C457D" stroke-linecap="round" y1="142.64" stroke-width="6" fill="none"/>
					<circle cy="142.23" cx="497.08" r="7.225" fill="#0C457D"/>
					<line stroke-linejoin="round" x1="475.53" y2="95.64" x2="475.53" stroke="#0C457D" stroke-linecap="round" y1="151.64" stroke-width="6" fill="none"/>
					<circle cy="151.7" cx="475.73" r="8.429" fill="#0C457D"/>
					<line stroke-linejoin="round" x1="454.53" y2="85.64" x2="454.53" stroke="#0C457D" stroke-linecap="round" y1="142.64" stroke-width="6" fill="none"/>
					<circle cy="142.23" cx="454.38" r="7.225" fill="#0C457D"/>
					<line stroke-linejoin="round" x1="432.53" y2="74.64" x2="432.53" stroke="#0C457D" stroke-linecap="round" y1="122.64" stroke-width="6" fill="none"/>
					<circle cy="122.08" cx="433.03" r="6.021" fill="#0C457D"/>
					<line stroke-linejoin="round" x1="539.53" y2="106.64" x2="539.53" stroke="#0C457D" stroke-linecap="round" y1="69.64" stroke-width="6" fill="none"/>
					<circle cy="70.071" cx="539.78" r="6.021" fill="#0C457D"/>
					<line stroke-linejoin="round" x1="646.53" y2="53.64" x2="646.53" stroke="#0C457D" stroke-linecap="round" y1="37.64" stroke-width="6" fill="none"/>
					<circle cy="38.047" cx="646.53" r="6.021" fill="#0C457D"/>
					<line stroke-linejoin="round" x1="625.53" y2="63.64" x2="625.53" stroke="#0C457D" stroke-linecap="round" y1="28.64" stroke-width="6" fill="none"/>
					<circle cy="28.574" cx="625.18" r="7.225" fill="#0C457D"/>
					<line stroke-linejoin="round" x1="603.53" y2="74.64" x2="603.53" stroke="#0C457D" stroke-linecap="round" y1="18.64" stroke-width="6" fill="none"/>
					<circle cy="19.104" cx="603.83" r="8.429" fill="#0C457D"/>
					<line stroke-linejoin="round" x1="582.53" y2="85.64" x2="582.53" stroke="#0C457D" stroke-linecap="round" y1="28.64" stroke-width="6" fill="none"/>
					<circle cy="28.574" cx="582.48" r="7.225" fill="#0C457D"/>
					<line stroke-linejoin="round" x1="561.53" y2="95.64" x2="561.53" stroke="#0C457D" stroke-linecap="round" y1="48.64" stroke-width="6" fill="none"/>
					<circle cy="48.721" cx="561.13" r="6.021" fill="#0C457D"/>
					<line stroke-linejoin="round" x1="667.53" y2="63.64" x2="667.53" stroke="#0C457D" stroke-linecap="round" y1="100.64" stroke-width="6" fill="none"/>
					<circle cy="100.73" cx="667.88" r="6.021" fill="#0C457D"/>
					<line stroke-linejoin="round" x1="774.53" y2="117.64" x2="774.53" stroke="#0C457D" stroke-linecap="round" y1="132.64" stroke-width="6" fill="none"/>
					<circle cy="132.76" cx="774.63" r="6.021" fill="#0C457D"/>
					<line stroke-linejoin="round" x1="753.53" y2="106.64" x2="753.53" stroke="#0C457D" stroke-linecap="round" y1="142.64" stroke-width="6" fill="none"/>
					<circle cy="142.23" cx="753.28" r="7.225" fill="#0C457D"/>
					<line stroke-linejoin="round" x1="731.53" y2="95.64" x2="731.53" stroke="#0C457D" stroke-linecap="round" y1="151.64" stroke-width="6" fill="none"/>
					<circle cy="151.7" cx="731.93" r="8.429" fill="#0C457D"/>
					<line stroke-linejoin="round" x1="710.53" y2="85.64" x2="710.53" stroke="#0C457D" stroke-linecap="round" y1="142.64" stroke-width="6" fill="none"/>
					<circle cy="142.23" cx="710.58" r="7.225" fill="#0C457D"/>
					<line stroke-linejoin="round" x1="689.53" y2="74.64" x2="689.53" stroke="#0C457D" stroke-linecap="round" y1="122.64" stroke-width="6" fill="none"/>
					<circle cy="122.08" cx="689.23" r="6.021" fill="#0C457D"/>
					<line stroke-linejoin="round" x1="795.53" y2="106.64" x2="795.53" stroke="#0C457D" stroke-linecap="round" y1="69.64" stroke-width="6" fill="none"/>
					<circle cy="70.071" cx="795.98" r="6.021" fill="#0C457D"/>
					<line stroke-linejoin="round" x1="902.53" y2="53.64" x2="902.53" stroke="#0C457D" stroke-linecap="round" y1="37.64" stroke-width="6" fill="none"/>
					<circle cy="38.047" cx="902.73" r="6.021" fill="#0C457D"/>
					<line stroke-linejoin="round" x1="881.53" y2="63.64" x2="881.53" stroke="#0C457D" stroke-linecap="round" y1="28.64" stroke-width="6" fill="none"/>
					<circle cy="28.574" cx="881.38" r="7.225" fill="#0C457D"/>
					<line stroke-linejoin="round" x1="860.53" y2="74.64" x2="860.53" stroke="#0C457D" stroke-linecap="round" y1="18.64" stroke-width="6" fill="none"/>
					<circle cy="19.104" cx="860.03" r="8.429" fill="#0C457D"/>
					<line stroke-linejoin="round" x1="838.53" y2="85.64" x2="838.53" stroke="#0C457D" stroke-linecap="round" y1="28.64" stroke-width="6" fill="none"/>
					<circle cy="28.574" cx="838.68" r="7.225" fill="#0C457D"/>
					<line stroke-linejoin="round" x1="817.53" y2="95.64" x2="817.53" stroke="#0C457D" stroke-linecap="round" y1="48.64" stroke-width="6" fill="none"/>
					<circle cy="48.721" cx="817.33" r="6.021" fill="#0C457D"/>
					<line stroke-linejoin="round" x1="924.53" y2="63.64" x2="924.53" stroke="#0C457D" stroke-linecap="round" y1="100.64" stroke-width="6" fill="none"/>
					<circle cy="100.73" cx="924.08" r="6.021" fill="#0C457D"/>
					<line stroke-linejoin="round" x1="1030.5" y2="117.64" x2="1030.5" stroke="#0C457D" stroke-linecap="round" y1="132.64" stroke-width="6" fill="none"/>
					<circle cy="132.76" cx="1030.8" r="6.021" fill="#0C457D"/>
					<line stroke-linejoin="round" x1="1009.5" y2="106.64" x2="1009.5" stroke="#0C457D" stroke-linecap="round" y1="142.64" stroke-width="6" fill="none"/>
					<circle cy="142.23" cx="1009.5" r="7.225" fill="#0C457D"/>
					<line stroke-linejoin="round" x1="988.53" y2="95.64" x2="988.53" stroke="#0C457D" stroke-linecap="round" y1="151.64" stroke-width="6" fill="none"/>
					<circle cy="151.7" cx="988.13" r="8.429" fill="#0C457D"/>
					<line stroke-linejoin="round" x1="966.53" y2="85.64" x2="966.53" stroke="#0C457D" stroke-linecap="round" y1="142.64" stroke-width="6" fill="none"/>
					<circle cy="142.23" cx="966.78" r="7.225" fill="#0C457D"/>
					<line stroke-linejoin="round" x1="945.53" y2="74.64" x2="945.53" stroke="#0C457D" stroke-linecap="round" y1="122.64" stroke-width="6" fill="none"/>
					<circle cy="122.08" cx="945.43" r="6.021" fill="#0C457D"/>
					<line stroke-linejoin="round" x1="1052.5" y2="106.64" x2="1052.5" stroke="#0C457D" stroke-linecap="round" y1="69.64" stroke-width="6" fill="none"/>
					<circle cy="70.071" cx="1052.2" r="6.021" fill="#0C457D"/>
					<line stroke-linejoin="round" x1="1158.5" y2="53.64" x2="1158.5" stroke="#0C457D" stroke-linecap="round" y1="37.64" stroke-width="6" fill="none"/>
					<circle cy="38.047" cx="1158.9" r="6.021" fill="#0C457D"/>
					<line stroke-linejoin="round" x1="1137.5" y2="63.64" x2="1137.5" stroke="#0C457D" stroke-linecap="round" y1="28.64" stroke-width="6" fill="none"/>
					<circle cy="28.574" cx="1137.6" r="7.225" fill="#0C457D"/>
					<line stroke-linejoin="round" x1="1116.5" y2="74.64" x2="1116.5" stroke="#0C457D" stroke-linecap="round" y1="18.64" stroke-width="6" fill="none"/>
					<circle cy="19.104" cx="1116.2" r="8.429" fill="#0C457D"/>
					<line stroke-linejoin="round" x1="1094.5" y2="85.64" x2="1094.5" stroke="#0C457D" stroke-linecap="round" y1="28.64" stroke-width="6" fill="none"/>
					<circle cy="28.574" cx="1094.9" r="7.225" fill="#0C457D"/>
					<line stroke-linejoin="round" x1="1073.5" y2="95.64" x2="1073.5" stroke="#0C457D" stroke-linecap="round" y1="48.64" stroke-width="6" fill="none"/>
					<circle cy="48.721" cx="1073.5" r="6.021" fill="#0C457D"/>
					<line stroke-linejoin="round" x1="1180.5" y2="63.64" x2="1180.5" stroke="#0C457D" stroke-linecap="round" y1="100.64" stroke-width="6" fill="none"/>
					<circle cy="100.73" cx="1180.3" r="6.021" fill="#0C457D"/>
					<line stroke-linejoin="round" x1="1287.5" y2="117.64" x2="1287.5" stroke="#0C457D" stroke-linecap="round" y1="132.64" stroke-width="6" fill="none"/>
					<circle cy="132.76" cx="1287" r="6.021" fill="#0C457D"/>
					<line stroke-linejoin="round" x1="1265.5" y2="106.64" x2="1265.5" stroke="#0C457D" stroke-linecap="round" y1="142.64" stroke-width="6" fill="none"/>
					<circle cy="142.23" cx="1265.7" r="7.225" fill="#0C457D"/>
					<line stroke-linejoin="round" x1="1244.5" y2="95.64" x2="1244.5" stroke="#0C457D" stroke-linecap="round" y1="151.64" stroke-width="6" fill="none"/>
					<circle cy="151.7" cx="1244.3" r="8.429" fill="#0C457D"/>
					<line stroke-linejoin="round" x1="1222.5" y2="85.64" x2="1222.5" stroke="#0C457D" stroke-linecap="round" y1="142.64" stroke-width="6" fill="none"/>
					<circle cy="142.23" cx="1223" r="7.225" fill="#0C457D"/>
					<line stroke-linejoin="round" x1="1201.5" y2="74.64" x2="1201.5" stroke="#0C457D" stroke-linecap="round" y1="122.64" stroke-width="6" fill="none"/>
					<circle cy="122.08" cx="1201.6" r="6.021" fill="#0C457D"/>
					<line stroke-linejoin="round" x1="112.53" y2="74.64" x2="112.53" stroke="#E8702A" stroke-linecap="round" y1="111.64" stroke-width="6" fill="none"/>
					<circle cy="111.41" cx="112.77" r="6.021" fill="#E8702A"/>
					<line stroke-linejoin="round" x1="134.53" y2="63.64" x2="134.53" stroke="#E8702A" stroke-linecap="round" y1="80.64" stroke-width="6" fill="none"/>
					<circle cy="80.584" cx="134.12" r="4.816" fill="#E8702A"/>
					<line stroke-linejoin="round" x1="5.528" y2="117.64" x2="5.528" stroke="#E8702A" stroke-linecap="round" y1="132.64" stroke-width="6" fill="none"/>
					<circle cy="132.76" cx="6.021" r="6.021" fill="#E8702A"/>
					<line stroke-linejoin="round" x1="27.528" y2="117.64" x2="27.528" stroke="#E8702A" stroke-linecap="round" y1="153.64" stroke-width="6" fill="none"/>
					<circle cy="152.9" cx="27.371" r="7.225" fill="#E8702A"/>
					<line stroke-linejoin="round" x1="48.528" y2="106.64" x2="48.528" stroke="#E8702A" stroke-linecap="round" y1="162.64" stroke-width="6" fill="none"/>
					<circle cy="162.37" cx="48.722" r="8.429" fill="#E8702A"/>
					<line stroke-linejoin="round" x1="70.528" y2="95.64" x2="70.528" stroke="#E8702A" stroke-linecap="round" y1="153.64" stroke-width="6" fill="none"/>
					<circle cy="152.9" cx="70.071" r="7.225" fill="#E8702A"/>
					<line stroke-linejoin="round" x1="91.528" y2="85.64" x2="91.528" stroke="#E8702A" stroke-linecap="round" y1="132.64" stroke-width="6" fill="none"/>
					<circle cy="132.76" cx="91.421" r="6.021" fill="#E8702A"/>
					<line stroke-linejoin="round" x1="240.53" y2="95.64" x2="240.53" stroke="#E8702A" stroke-linecap="round" y1="58.64" stroke-width="6" fill="none"/>
					<circle cy="59.396" cx="240.87" r="6.021" fill="#E8702A"/>
					<line stroke-linejoin="round" x1="262.53" y2="106.64" x2="262.53" stroke="#E8702A" stroke-linecap="round" y1="89.64" stroke-width="6" fill="none"/>
					<circle cy="90.217" cx="262.22" r="4.816" fill="#E8702A"/>
					<line stroke-linejoin="round" x1="155.53" y2="53.64" x2="155.53" stroke="#E8702A" stroke-linecap="round" y1="17.64" stroke-width="6" fill="none"/>
					<circle cy="17.899" cx="155.47" r="7.225" fill="#E8702A"/>
					<line stroke-linejoin="round" x1="176.53" y2="63.64" x2="176.53" stroke="#E8702A" stroke-linecap="round" y1="7.64" stroke-width="6" fill="none"/>
					<circle cy="8.429" cx="176.82" r="8.429" fill="#E8702A"/>
					<line stroke-linejoin="round" x1="198.53" y2="74.64" x2="198.53" stroke="#E8702A" stroke-linecap="round" y1="17.64" stroke-width="6" fill="none"/>
					<circle cy="17.899" cx="198.17" r="7.225" fill="#E8702A"/>
					<line stroke-linejoin="round" x1="219.53" y2="85.64" x2="219.53" stroke="#E8702A" stroke-linecap="round" y1="37.64" stroke-width="6" fill="none"/>
					<circle cy="38.047" cx="219.52" r="6.021" fill="#E8702A"/>
					<line stroke-linejoin="round" x1="368.53" y2="74.64" x2="368.53" stroke="#E8702A" stroke-linecap="round" y1="111.64" stroke-width="6" fill="none"/>
					<circle cy="111.41" cx="368.98" r="6.021" fill="#E8702A"/>
					<line stroke-linejoin="round" x1="390.53" y2="63.64" x2="390.53" stroke="#E8702A" stroke-linecap="round" y1="80.64" stroke-width="6" fill="none"/>
					<circle cy="80.584" cx="390.32" r="4.816" fill="#E8702A"/>
					<line stroke-linejoin="round" x1="283.53" y2="117.64" x2="283.53" stroke="#E8702A" stroke-linecap="round" y1="153.64" stroke-width="6" fill="none"/>
					<circle cy="152.9" cx="283.57" r="7.225" fill="#E8702A"/>
					<line stroke-linejoin="round" x1="304.53" y2="106.64" x2="304.53" stroke="#E8702A" stroke-linecap="round" y1="162.64" stroke-width="6" fill="none"/>
					<circle cy="162.37" cx="304.92" r="8.429" fill="#E8702A"/>
					<line stroke-linejoin="round" x1="326.53" y2="95.64" x2="326.53" stroke="#E8702A" stroke-linecap="round" y1="153.64" stroke-width="6" fill="none"/>
					<circle cy="152.9" cx="326.27" r="7.225" fill="#E8702A"/>
					<line stroke-linejoin="round" x1="347.53" y2="85.64" x2="347.53" stroke="#E8702A" stroke-linecap="round" y1="132.64" stroke-width="6" fill="none"/>
					<circle cy="132.76" cx="347.62" r="6.021" fill="#E8702A"/>
					<line stroke-linejoin="round" x1="497.53" y2="95.64" x2="497.53" stroke="#E8702A" stroke-linecap="round" y1="58.64" stroke-width="6" fill="none"/>
					<circle cy="59.396" cx="497.08" r="6.021" fill="#E8702A"/>
					<line stroke-linejoin="round" x1="518.53" y2="106.64" x2="518.53" stroke="#E8702A" stroke-linecap="round" y1="89.64" stroke-width="6" fill="none"/>
					<circle cy="90.217" cx="518.43" r="4.816" fill="#E8702A"/>
					<line stroke-linejoin="round" x1="411.53" y2="53.64" x2="411.53" stroke="#E8702A" stroke-linecap="round" y1="17.64" stroke-width="6" fill="none"/>
					<circle cy="17.899" cx="411.68" r="7.225" fill="#E8702A"/>
					<line stroke-linejoin="round" x1="432.53" y2="63.64" x2="432.53" stroke="#E8702A" stroke-linecap="round" y1="7.64" stroke-width="6" fill="none"/>
					<circle cy="8.429" cx="433.03" r="8.429" fill="#E8702A"/>
					<line stroke-linejoin="round" x1="454.53" y2="74.64" x2="454.53" stroke="#E8702A" stroke-linecap="round" y1="17.64" stroke-width="6" fill="none"/>
					<circle cy="17.899" cx="454.38" r="7.225" fill="#E8702A"/>
					<line stroke-linejoin="round" x1="475.53" y2="85.64" x2="475.53" stroke="#E8702A" stroke-linecap="round" y1="37.64" stroke-width="6" fill="none"/>
					<circle cy="38.047" cx="475.73" r="6.021" fill="#E8702A"/>
					<line stroke-linejoin="round" x1="625.53" y2="74.64" x2="625.53" stroke="#E8702A" stroke-linecap="round" y1="111.64" stroke-width="6" fill="none"/>
					<circle cy="111.41" cx="625.18" r="6.021" fill="#E8702A"/>
					<line stroke-linejoin="round" x1="646.53" y2="63.64" x2="646.53" stroke="#E8702A" stroke-linecap="round" y1="80.64" stroke-width="6" fill="none"/>
					<circle cy="80.584" cx="646.53" r="4.816" fill="#E8702A"/>
					<line stroke-linejoin="round" x1="539.53" y2="117.64" x2="539.53" stroke="#E8702A" stroke-linecap="round" y1="153.64" stroke-width="6" fill="none"/>
					<circle cy="152.9" cx="539.78" r="7.225" fill="#E8702A"/>
					<line stroke-linejoin="round" x1="561.53" y2="106.64" x2="561.53" stroke="#E8702A" stroke-linecap="round" y1="162.64" stroke-width="6" fill="none"/>
					<circle cy="162.37" cx="561.13" r="8.429" fill="#E8702A"/>
					<line stroke-linejoin="round" x1="582.53" y2="95.64" x2="582.53" stroke="#E8702A" stroke-linecap="round" y1="153.64" stroke-width="6" fill="none"/>
					<circle cy="152.9" cx="582.48" r="7.225" fill="#E8702A"/>
					<line stroke-linejoin="round" x1="603.53" y2="85.64" x2="603.53" stroke="#E8702A" stroke-linecap="round" y1="132.64" stroke-width="6" fill="none"/>
					<circle cy="132.76" cx="603.83" r="6.021" fill="#E8702A"/>
					<line stroke-linejoin="round" x1="753.53" y2="95.64" x2="753.53" stroke="#E8702A" stroke-linecap="round" y1="58.64" stroke-width="6" fill="none"/>
					<circle cy="59.396" cx="753.28" r="6.021" fill="#E8702A"/>
					<line stroke-linejoin="round" x1="774.53" y2="106.64" x2="774.53" stroke="#E8702A" stroke-linecap="round" y1="89.64" stroke-width="6" fill="none"/>
					<circle cy="90.217" cx="774.63" r="4.816" fill="#E8702A"/>
					<line stroke-linejoin="round" x1="667.53" y2="53.64" x2="667.53" stroke="#E8702A" stroke-linecap="round" y1="17.64" stroke-width="6" fill="none"/>
					<circle cy="17.899" cx="667.88" r="7.225" fill="#E8702A"/>
					<line stroke-linejoin="round" x1="689.53" y2="63.64" x2="689.53" stroke="#E8702A" stroke-linecap="round" y1="7.64" stroke-width="6" fill="none"/>
					<circle cy="8.429" cx="689.23" r="8.429" fill="#E8702A"/>
					<line stroke-linejoin="round" x1="710.53" y2="74.64" x2="710.53" stroke="#E8702A" stroke-linecap="round" y1="17.64" stroke-width="6" fill="none"/>
					<circle cy="17.899" cx="710.58" r="7.225" fill="#E8702A"/>
					<line stroke-linejoin="round" x1="731.53" y2="85.64" x2="731.53" stroke="#E8702A" stroke-linecap="round" y1="37.64" stroke-width="6" fill="none"/>
					<circle cy="38.047" cx="731.93" r="6.021" fill="#E8702A"/>
					<line stroke-linejoin="round" x1="881.53" y2="74.64" x2="881.53" stroke="#E8702A" stroke-linecap="round" y1="111.64" stroke-width="6" fill="none"/>
					<circle cy="111.41" cx="881.38" r="6.021" fill="#E8702A"/>
					<line stroke-linejoin="round" x1="902.53" y2="63.64" x2="902.53" stroke="#E8702A" stroke-linecap="round" y1="80.64" stroke-width="6" fill="none"/>
					<circle cy="80.584" cx="902.73" r="4.816" fill="#E8702A"/>
					<line stroke-linejoin="round" x1="795.53" y2="117.64" x2="795.53" stroke="#E8702A" stroke-linecap="round" y1="153.64" stroke-width="6" fill="none"/>
					<circle cy="152.9" cx="795.98" r="7.225" fill="#E8702A"/>
					<line stroke-linejoin="round" x1="817.53" y2="106.64" x2="817.53" stroke="#E8702A" stroke-linecap="round" y1="162.64" stroke-width="6" fill="none"/>
					<circle cy="162.37" cx="817.33" r="8.429" fill="#E8702A"/>
					<line stroke-linejoin="round" x1="838.53" y2="95.64" x2="838.53" stroke="#E8702A" stroke-linecap="round" y1="153.64" stroke-width="6" fill="none"/>
					<circle cy="152.9" cx="838.68" r="7.225" fill="#E8702A"/>
					<line stroke-linejoin="round" x1="860.53" y2="85.64" x2="860.53" stroke="#E8702A" stroke-linecap="round" y1="132.64" stroke-width="6" fill="none"/>
					<circle cy="132.76" cx="860.03" r="6.021" fill="#E8702A"/>
					<line stroke-linejoin="round" x1="1009.5" y2="95.64" x2="1009.5" stroke="#E8702A" stroke-linecap="round" y1="58.64" stroke-width="6" fill="none"/>
					<circle cy="59.396" cx="1009.5" r="6.021" fill="#E8702A"/>
					<line stroke-linejoin="round" x1="1030.5" y2="106.64" x2="1030.5" stroke="#E8702A" stroke-linecap="round" y1="89.64" stroke-width="6" fill="none"/>
					<circle cy="90.217" cx="1030.8" r="4.816" fill="#E8702A"/>
					<line stroke-linejoin="round" x1="924.53" y2="53.64" x2="924.53" stroke="#E8702A" stroke-linecap="round" y1="17.64" stroke-width="6" fill="none"/>
					<circle cy="17.899" cx="924.08" r="7.225" fill="#E8702A"/>
					<line stroke-linejoin="round" x1="945.53" y2="63.64" x2="945.53" stroke="#E8702A" stroke-linecap="round" y1="7.64" stroke-width="6" fill="none"/>
					<circle cy="8.429" cx="945.43" r="8.429" fill="#E8702A"/>
					<line stroke-linejoin="round" x1="966.53" y2="74.64" x2="966.53" stroke="#E8702A" stroke-linecap="round" y1="17.64" stroke-width="6" fill="none"/>
					<circle cy="17.899" cx="966.78" r="7.225" fill="#E8702A"/>
					<line stroke-linejoin="round" x1="988.53" y2="85.64" x2="988.53" stroke="#E8702A" stroke-linecap="round" y1="37.64" stroke-width="6" fill="none"/>
					<circle cy="38.047" cx="988.13" r="6.021" fill="#E8702A"/>
					<line stroke-linejoin="round" x1="1137.5" y2="74.64" x2="1137.5" stroke="#E8702A" stroke-linecap="round" y1="111.64" stroke-width="6" fill="none"/>
					<circle cy="111.41" cx="1137.6" r="6.021" fill="#E8702A"/>
					<line stroke-linejoin="round" x1="1158.5" y2="63.64" x2="1158.5" stroke="#E8702A" stroke-linecap="round" y1="80.64" stroke-width="6" fill="none"/>
					<circle cy="80.584" cx="1158.9" r="4.816" fill="#E8702A"/>
					<line stroke-linejoin="round" x1="1052.5" y2="117.64" x2="1052.5" stroke="#E8702A" stroke-linecap="round" y1="153.64" stroke-width="6" fill="none"/>
					<circle cy="152.9" cx="1052.2" r="7.225" fill="#E8702A"/>
					<line stroke-linejoin="round" x1="1073.5" y2="106.64" x2="1073.5" stroke="#E8702A" stroke-linecap="round" y1="162.64" stroke-width="6" fill="none"/>
					<circle cy="162.37" cx="1073.5" r="8.429" fill="#E8702A"/>
					<line stroke-linejoin="round" x1="1094.5" y2="95.64" x2="1094.5" stroke="#E8702A" stroke-linecap="round" y1="153.64" stroke-width="6" fill="none"/>
					<circle cy="152.9" cx="1094.9" r="7.225" fill="#E8702A"/>
					<line stroke-linejoin="round" x1="1116.5" y2="85.64" x2="1116.5" stroke="#E8702A" stroke-linecap="round" y1="132.64" stroke-width="6" fill="none"/>
					<circle cy="132.76" cx="1116.2" r="6.021" fill="#E8702A"/>
					<line stroke-linejoin="round" x1="1265.5" y2="95.64" x2="1265.5" stroke="#E8702A" stroke-linecap="round" y1="58.64" stroke-width="6" fill="none"/>
					<circle cy="59.396" cx="1265.7" r="6.021" fill="#E8702A"/>
					<line stroke-linejoin="round" x1="1287.5" y2="106.64" x2="1287.5" stroke="#E8702A" stroke-linecap="round" y1="89.64" stroke-width="6" fill="none"/>
					<circle cy="90.217" cx="1287" r="4.816" fill="#E8702A"/>
					<line stroke-linejoin="round" x1="1180.5" y2="53.64" x2="1180.5" stroke="#E8702A" stroke-linecap="round" y1="17.64" stroke-width="6" fill="none"/>
					<circle cy="17.899" cx="1180.3" r="7.225" fill="#E8702A"/>
					<line stroke-linejoin="round" x1="1201.5" y2="63.64" x2="1201.5" stroke="#E8702A" stroke-linecap="round" y1="7.64" stroke-width="6" fill="none"/>
					<circle cy="8.429" cx="1201.6" r="8.429" fill="#E8702A"/>
					<line stroke-linejoin="round" x1="1222.5" y2="74.64" x2="1222.5" stroke="#E8702A" stroke-linecap="round" y1="17.64" stroke-width="6" fill="none"/>
					<circle cy="17.899" cx="1223" r="7.225" fill="#E8702A"/>
					<line stroke-linejoin="round" x1="1244.5" y2="85.64" x2="1244.5" stroke="#E8702A" stroke-linecap="round" y1="37.64" stroke-width="6" fill="none"/>
					<circle cy="38.047" cx="1244.3" r="6.021" fill="#E8702A"/>
</svg>
