<?xml version="1.0" encoding="utf-8"?>
<!-- Generator: Adobe Illustrator 16.0.3, SVG Export Plug-In . SVG Version: 6.00 Build 0)  -->
<!DOCTYPE svg PUBLIC "-//W3C//DTD SVG 1.1//EN" "http://www.w3.org/Graphics/SVG/1.1/DTD/svg11.dtd">
<svg version="1.1" id="Layer_1" xmlns="http://www.w3.org/2000/svg" xmlns:xlink="http://www.w3.org/1999/xlink" x="0px" y="0px"
	 width="580.807px" height="581.26px" viewBox="298.277 226.115 580.807 581.26"
	 enable-background="new 298.277 226.115 580.807 581.26" xml:space="preserve">
<path id="White_2_" fill="#0C457D" d="M847.56,226.115H330.569c-17.801,0-32.292,14.334-32.292,31.977V775.24
	c0,17.643,14.334,31.978,31.977,31.978h278.344V582.274h-75.769v-87.74h75.769v-64.742c0-75.138,45.996-115.937,112.786-115.937
	c31.978,0,59.701,2.363,67.735,3.466v78.446h-46.47c-36.388,0-43.634,17.17-43.634,42.689v55.921h86.953l-11.342,87.74h-75.611
	v225.258h148.072c17.643,0,31.977-14.334,31.977-31.977V258.092C879.695,240.449,865.202,226.115,847.56,226.115z"/>
</svg>
