<?xml version="1.0" encoding="utf-8"?>
<!-- Generator: Adobe Illustrator 16.0.3, SVG Export Plug-In . SVG Version: 6.00 Build 0)  -->
<!DOCTYPE svg PUBLIC "-//W3C//DTD SVG 1.1//EN" "http://www.w3.org/Graphics/SVG/1.1/DTD/svg11.dtd">
<svg version="1.1" id="Capa_1" xmlns="http://www.w3.org/2000/svg" xmlns:xlink="http://www.w3.org/1999/xlink" x="0px" y="0px"
	 width="116.711px" height="50px" viewBox="0 0 116.711 50" enable-background="new 0 0 116.711 50" xml:space="preserve">
<g>
	<path fill="#FFFFFF" d="M14.426,5.314v4.379c4.162,0.671,7.342,4.258,7.342,8.596c0,4.815-3.914,8.718-8.743,8.718
		c-4.349,0-7.946-3.17-8.62-7.316H0.012c0.701,6.549,6.258,11.65,13.013,11.65c3.332,0,6.362-1.251,8.674-3.294l-0.007,0.078v3.768
		c0,6.609-2.842,10.068-8.215,10.068c-2.211,0-4.249-0.722-5.707-1.959l-2.887,3.167c2.133,1.809,5.045,2.808,8.531,2.808
		c4.262,0,7.969-1.729,10.191-4.756c1.854-2.533,2.471-5.003,2.471-10.068V19.028c0.015-0.246,0.038-0.489,0.038-0.739
		C26.114,11.554,20.996,6.012,14.426,5.314"/>
	<path fill="#0C457D" d="M4.404,3.303V0.168H0v11.519v4.25h4.399v-4.229h0.005c0.547-3.368,3.027-6.079,6.269-6.982v-4.45
		C8.297,0.708,6.148,1.779,4.404,3.303"/>
	<path fill="#0C457D" d="M39.014,0.036c0.231,0,0.429,0.013,0.592,0.04c0.162,0.027,0.371,0.076,0.626,0.147l-0.311,2.381
		c-0.51-0.184-0.96-0.273-1.351-0.267c-0.427,0-0.788,0.075-1.084,0.227c-0.297,0.151-0.546,0.39-0.747,0.715v6.443h-2.736V0.187
		h2.168L36.5,1.511C37.099,0.528,37.936,0.036,39.014,0.036"/>
	<path fill="#0C457D" d="M48.264,0.996c0.718,0.664,1.076,1.626,1.076,2.888v5.838h-2.258l-0.311-1.129
		c-0.391,0.415-0.83,0.73-1.32,0.947c-0.488,0.216-1.011,0.324-1.567,0.324c-0.983,0-1.765-0.254-2.341-0.764
		c-0.577-0.509-0.867-1.193-0.867-2.052c0-0.996,0.418-1.771,1.258-2.329c0.839-0.557,2.011-0.835,3.515-0.835h1.163v-0.24
		c-0.035-1.102-0.66-1.653-1.875-1.653c-0.414,0-0.895,0.061-1.439,0.183C42.753,2.294,42.26,2.45,41.822,2.64L41.244,0.8
		c0.628-0.255,1.289-0.452,1.982-0.59C43.918,0.07,44.567,0,45.173,0C46.518,0,47.548,0.332,48.264,0.996 M43.869,5.776
		c-0.428,0.267-0.643,0.637-0.643,1.111c0,0.391,0.119,0.689,0.356,0.893c0.235,0.204,0.569,0.306,1.003,0.306
		c0.391,0,0.766-0.085,1.124-0.258c0.358-0.171,0.658-0.402,0.901-0.692v-1.76h-0.934C44.902,5.376,44.299,5.51,43.869,5.776"/>
	<path fill="#0C457D" d="M56.671,0.036c0.232,0,0.429,0.013,0.591,0.04c0.162,0.027,0.371,0.076,0.628,0.147l-0.312,2.381
		c-0.512-0.184-0.961-0.273-1.352-0.267c-0.426,0-0.787,0.075-1.084,0.227s-0.544,0.39-0.747,0.715v6.443H51.66V0.187h2.168
		l0.328,1.324C54.755,0.528,55.592,0.036,56.671,0.036"/>
	<path fill="#0C457D" d="M63.54,7.9c0.474,0,0.952-0.055,1.431-0.165c0.479-0.11,1.01-0.286,1.591-0.528l0.657,1.697
		c-1.445,0.669-2.781,1.001-4.007,0.996c-1.504,0-2.688-0.439-3.545-1.315c-0.859-0.876-1.289-2.094-1.289-3.652
		c0-1.552,0.42-2.762,1.261-3.63C60.479,0.434,61.66,0,63.176,0c2.85,0,4.275,1.614,4.275,4.843v0.622h-6.416
		C61.176,7.089,62.012,7.9,63.54,7.9 M63.193,1.893c-0.604,0-1.08,0.165-1.426,0.494c-0.348,0.329-0.574,0.828-0.68,1.497h3.855
		C64.867,2.557,64.283,1.893,63.193,1.893"/>
	<path fill="#FFFFFF" d="M39.294,16.999c0.394,0.127,0.735,0.313,1.027,0.555l0.274-0.657H42.8v9.375
		c0,1.421-0.437,2.505-1.312,3.248c-0.873,0.744-2.063,1.116-3.567,1.116c-0.764,0-1.523-0.088-2.275-0.263s-1.421-0.428-2.007-0.76
		l0.844-1.777c0.427,0.231,0.947,0.428,1.563,0.591c0.616,0.163,1.185,0.245,1.707,0.245c0.74,0,1.31-0.191,1.71-0.573
		c0.4-0.382,0.6-0.944,0.6-1.684V25.41c-0.728,0.693-1.587,1.04-2.576,1.04c-1.322,0-2.35-0.406-3.083-1.218
		c-0.735-0.812-1.103-1.952-1.103-3.421c0-1.564,0.417-2.789,1.252-3.675c0.837-0.885,1.994-1.328,3.475-1.328
		C38.478,16.809,38.9,16.872,39.294,16.999 M36.699,19.416c-0.424,0.53-0.635,1.299-0.635,2.306c0,0.9,0.17,1.592,0.51,2.075
		c0.341,0.483,0.832,0.725,1.472,0.725c0.485,0,0.91-0.139,1.274-0.418c0.364-0.278,0.611-0.654,0.742-1.128v-3.955
		c-0.463-0.267-0.971-0.4-1.528-0.4C37.734,18.621,37.123,18.886,36.699,19.416"/>
	<path fill="#FFFFFF" d="M50.583,24.61c0.474,0,0.951-0.055,1.431-0.165c0.48-0.109,1.011-0.286,1.591-0.528l0.657,1.697
		c-1.445,0.669-2.781,1.001-4.007,0.996c-1.505,0-2.687-0.439-3.546-1.316c-0.859-0.876-1.289-2.093-1.289-3.652
		c0-1.552,0.421-2.762,1.262-3.63c0.842-0.868,2.021-1.301,3.537-1.301c2.85,0,4.274,1.614,4.274,4.843v0.622h-6.416
		C48.22,23.799,49.055,24.61,50.583,24.61 M50.236,18.603c-0.604,0-1.079,0.165-1.426,0.494c-0.347,0.329-0.572,0.828-0.68,1.497
		h3.855C51.91,19.267,51.327,18.603,50.236,18.603"/>
	<path fill="#FFFFFF" d="M62.951,16.746c0.996,0,1.765,0.292,2.303,0.875s0.81,1.409,0.81,2.475v6.335h-2.729v-6.185
		c0-0.557-0.109-0.959-0.327-1.208c-0.22-0.249-0.573-0.373-1.06-0.373c-0.438,0-0.848,0.099-1.225,0.297
		c-0.38,0.199-0.685,0.466-0.916,0.804v6.665H57.07v-9.535h2.274l0.293,1.324C60.479,17.238,61.583,16.746,62.951,16.746"/>
	<path fill="#FFFFFF" d="M76.929,17.959c0.837,0.856,1.255,2.084,1.255,3.683c0,1.6-0.418,2.832-1.255,3.697
		c-0.834,0.865-2.037,1.297-3.606,1.297c-1.553,0-2.75-0.431-3.591-1.293s-1.261-2.096-1.261-3.701c0-1.599,0.417-2.827,1.252-3.683
		c0.836-0.856,2.035-1.284,3.6-1.284C74.892,16.675,76.095,17.103,76.929,17.959 M71.215,21.642c0,1.955,0.703,2.933,2.107,2.933
		c1.409,0,2.113-0.978,2.113-2.933c0-1.955-0.704-2.929-2.113-2.924C71.918,18.713,71.215,19.688,71.215,21.642"/>
	<path fill="#FFFFFF" d="M86.553,16.746c0.681,0,1.266,0.141,1.754,0.422c0.489,0.281,0.855,0.688,1.099,1.222
		c0.45-0.557,0.947-0.97,1.493-1.24c0.546-0.269,1.157-0.404,1.84-0.404c1.018,0,1.803,0.292,2.354,0.875s0.825,1.409,0.825,2.475
		v6.335H93.19v-6.185c0-0.557-0.109-0.959-0.328-1.208c-0.22-0.249-0.572-0.373-1.057-0.373c-0.439,0-0.839,0.096-1.2,0.289
		c-0.361,0.193-0.664,0.463-0.907,0.813c0,0.024,0.006,0.079,0.019,0.165c0.012,0.085,0.019,0.185,0.019,0.298v6.202h-2.729v-6.185
		c0-0.557-0.109-0.959-0.327-1.208c-0.22-0.249-0.573-0.373-1.06-0.373c-0.427,0-0.823,0.099-1.19,0.297
		c-0.367,0.199-0.66,0.466-0.88,0.804v6.665h-2.728v-9.535h2.274l0.284,1.324C84.174,17.238,85.23,16.746,86.553,16.746"/>
	<path fill="#FFFFFF" d="M103.525,24.61c0.474,0,0.951-0.055,1.43-0.165c0.479-0.109,1.011-0.286,1.592-0.528l0.656,1.697
		c-1.445,0.669-2.78,1.001-4.008,0.996c-1.504,0-2.686-0.439-3.545-1.316c-0.859-0.876-1.289-2.093-1.289-3.652
		c0-1.552,0.422-2.762,1.262-3.63c0.842-0.868,2.021-1.301,3.537-1.301c2.85,0,4.275,1.614,4.275,4.843v0.622h-6.416
		C101.161,23.799,101.996,24.61,103.525,24.61 M103.178,18.603c-0.604,0-1.079,0.165-1.426,0.494
		c-0.346,0.329-0.574,0.828-0.679,1.497h3.855C104.853,19.267,104.268,18.603,103.178,18.603"/>
	<path fill="#FFFFFF" d="M116.533,17.332l-0.567,1.787c-0.629-0.208-1.128-0.351-1.499-0.431c-0.37-0.08-0.701-0.12-0.99-0.12
		c-0.45,0-0.806,0.086-1.065,0.257c-0.263,0.172-0.391,0.403-0.391,0.693c0,0.279,0.123,0.496,0.372,0.653s0.621,0.31,1.119,0.458
		c0.693,0.196,1.244,0.378,1.648,0.547c0.406,0.169,0.767,0.45,1.08,0.844c0.313,0.394,0.471,0.932,0.471,1.613
		c0,0.937-0.348,1.666-1.045,2.19c-0.695,0.524-1.65,0.787-2.864,0.787c-1.274,0-2.495-0.255-3.661-0.765l0.656-1.795
		c0.693,0.255,1.255,0.434,1.685,0.538c0.429,0.104,0.813,0.156,1.15,0.156c0.474,0,0.834-0.089,1.075-0.267
		c0.243-0.177,0.365-0.429,0.365-0.754c0-0.326-0.141-0.566-0.418-0.72c-0.278-0.154-0.729-0.32-1.351-0.498
		c-0.581-0.172-1.064-0.348-1.454-0.529c-0.387-0.181-0.721-0.466-0.999-0.857c-0.278-0.392-0.417-0.907-0.417-1.546
		c0-0.9,0.348-1.603,1.045-2.106c0.695-0.504,1.662-0.755,2.9-0.755C114.279,16.71,115.331,16.918,116.533,17.332"/>
	<path fill="#FFFFFF" d="M42.443,37.399c0.736,0.817,1.103,1.979,1.103,3.483c0,1.055-0.21,1.964-0.632,2.729
		c-0.42,0.764-1.016,1.35-1.785,1.755c-0.771,0.406-1.684,0.609-2.736,0.609c-0.498,0-1.03-0.066-1.6-0.195V50h-2.729V36.297h2.088
		l0.419,1.128c0.401-0.438,0.823-0.756,1.265-0.955c0.441-0.198,0.95-0.298,1.525-0.298C40.683,36.173,41.709,36.582,42.443,37.399
		 M40.129,43.317c0.441-0.533,0.662-1.315,0.662-2.346c0-1.919-0.665-2.875-2-2.87c-0.484,0-0.9,0.13-1.248,0.391
		c-0.346,0.261-0.598,0.628-0.75,1.102v4.328c0.35,0.083,0.611,0.136,0.791,0.16c0.177,0.024,0.394,0.036,0.648,0.036
		C39.055,44.117,39.688,43.851,40.129,43.317"/>
	<path fill="#FFFFFF" d="M50.889,36.348c0.23,0,0.429,0.014,0.59,0.04c0.163,0.027,0.373,0.076,0.627,0.146l-0.312,2.382
		c-0.509-0.184-0.96-0.272-1.351-0.267c-0.425,0-0.786,0.076-1.084,0.227c-0.296,0.151-0.545,0.389-0.746,0.715v6.443h-2.737v-9.535
		h2.17l0.327,1.324C48.972,36.839,49.811,36.348,50.889,36.348"/>
	<path fill="#FFFFFF" d="M61.5,37.359c0.835,0.855,1.254,2.083,1.254,3.683c0,1.601-0.419,2.832-1.254,3.697
		c-0.836,0.865-2.038,1.298-3.608,1.298c-1.552,0-2.749-0.432-3.589-1.293c-0.842-0.862-1.264-2.096-1.264-3.702
		c0-1.599,0.418-2.827,1.254-3.683c0.836-0.856,2.035-1.284,3.599-1.284C59.462,36.075,60.664,36.503,61.5,37.359 M55.785,41.042
		c0,1.956,0.703,2.933,2.106,2.933c1.411,0,2.114-0.978,2.114-2.933c0-1.954-0.703-2.929-2.114-2.923
		C56.488,38.113,55.785,39.088,55.785,41.042"/>
	<path fill="#FFFFFF" d="M64.679,46.125c0.304-0.705,0.458-1.404,0.458-2.097V36.35h2.727v7.679c0,0.959-0.273,1.894-0.821,2.803
		c-0.548,0.909-1.349,1.77-2.403,2.582l-1.377-1.031C63.9,47.583,64.374,46.831,64.679,46.125 M65.137,32.458h2.727v2.488h-2.727
		V32.458z"/>
	<path fill="#FFFFFF" d="M75.322,44.011c0.473,0,0.949-0.055,1.43-0.165c0.479-0.109,1.011-0.286,1.59-0.529L79,45.015
		c-1.445,0.669-2.78,1.001-4.008,0.996c-1.505,0-2.687-0.438-3.546-1.315c-0.858-0.877-1.288-2.094-1.288-3.653
		c0-1.551,0.42-2.762,1.262-3.63c0.841-0.868,2.02-1.302,3.537-1.302c2.85,0,4.275,1.615,4.275,4.843v0.623h-6.418
		C72.958,43.199,73.793,44.011,75.322,44.011 M74.975,38.003c-0.604,0-1.079,0.165-1.426,0.494
		c-0.346,0.328-0.574,0.828-0.679,1.497h3.854C76.649,38.667,76.064,38.003,74.975,38.003"/>
	<path fill="#FFFFFF" d="M88.527,36.822l-0.604,1.803c-0.645-0.337-1.27-0.506-1.875-0.506c-0.788,0-1.396,0.254-1.826,0.764
		s-0.645,1.229-0.645,2.159c0,0.925,0.221,1.638,0.662,2.143c0.441,0.503,1.076,0.755,1.906,0.755c0.682,0,1.348-0.145,1.999-0.436
		l0.436,1.857c-0.438,0.196-0.911,0.346-1.422,0.454c-0.509,0.106-0.995,0.16-1.456,0.16c-1.577,0-2.782-0.423-3.618-1.271
		c-0.835-0.847-1.253-2.068-1.253-3.662c0-1.551,0.43-2.755,1.289-3.612c0.858-0.856,2.073-1.284,3.643-1.284
		C86.737,36.146,87.657,36.372,88.527,36.822"/>
	<path fill="#FFFFFF" d="M94.253,45.975c-2.098,0-3.146-1.001-3.146-3.004v-4.763h-1.572v-1.911h1.749l0.524-2.728h2.01v2.728h2.603
		v1.911h-2.603v4.381c0,0.485,0.089,0.833,0.27,1.04c0.182,0.208,0.491,0.312,0.929,0.312c0.374,0,0.774-0.074,1.2-0.223l0.399,1.75
		C95.793,45.806,95.005,45.975,94.253,45.975"/>
</g>
</svg>
