<?xml version="1.0" encoding="utf-8"?>
<!-- Generator: Adobe Illustrator 16.0.3, SVG Export Plug-In . SVG Version: 6.00 Build 0)  -->
<!DOCTYPE svg PUBLIC "-//W3C//DTD SVG 1.1//EN" "http://www.w3.org/Graphics/SVG/1.1/DTD/svg11.dtd">
<svg version="1.1" id="Capa_1" xmlns="http://www.w3.org/2000/svg" xmlns:xlink="http://www.w3.org/1999/xlink" x="0px" y="0px"
	 width="380px" height="105.383px" viewBox="0 0 380 105.383" enable-background="new 0 0 380 105.383" xml:space="preserve">
<g>
	<circle fill="#0C457D" cx="80" cy="9.448" r="9.448"/>
	<path fill="#0C457D" d="M105,46.806c0-13.785-11.215-25.002-25-25.002c-13.784,0-25,11.217-25,25.002
		c0,1.604,1.301,2.907,2.907,2.907c1.605,0,2.907-1.304,2.907-2.907c0-5.917,2.749-11.214,6.972-14.737l3.468,31.084v39.321
		c0,1.605,1.509,2.909,3.115,2.909c1.604,0,2.885-1.304,2.885-2.909v-36.29h7v36.29c0,1.605,1.355,2.909,2.961,2.909
		s3.039-1.304,3.039-2.909V64.477l2.786-32.408c4.223,3.523,6.529,8.82,6.529,14.737c0,1.604,1.11,2.907,2.716,2.907
		C103.893,49.713,105,48.409,105,46.806z"/>
	<circle fill="#0C457D" cx="25" cy="9.448" r="9.448"/>
	<path fill="#0C457D" d="M50,46.806c0-13.785-11.215-25.002-25-25.002c-13.784,0-25,11.217-25,25.002
		c0,1.604,1.301,2.907,2.907,2.907c1.605,0,2.907-1.304,2.907-2.907c0-5.917,2.749-11.214,6.972-14.737l3.468,31.084v39.321
		c0,1.605,1.509,2.909,3.115,2.909c1.604,0,2.885-1.304,2.885-2.909v-36.29h7v36.29c0,1.605,1.355,2.909,2.961,2.909
		s3.039-1.304,3.039-2.909V64.477l2.786-32.408c4.223,3.523,6.529,8.82,6.529,14.737c0,1.604,1.11,2.907,2.716,2.907
		C48.893,49.713,50,48.409,50,46.806z"/>
	<circle fill="#E8702A" cx="135" cy="9.448" r="9.448"/>
	<path fill="#E8702A" d="M160,46.806c0-13.785-11.215-25.002-25-25.002c-13.784,0-25,11.217-25,25.002
		c0,1.604,1.301,2.907,2.907,2.907c1.605,0,2.907-1.304,2.907-2.907c0-5.917,2.749-11.214,6.972-14.737l3.468,31.084v39.321
		c0,1.605,1.509,2.909,3.115,2.909c1.604,0,2.885-1.304,2.885-2.909v-36.29h7v36.29c0,1.605,1.355,2.909,2.961,2.909
		s3.039-1.304,3.039-2.909V64.477l2.786-32.408c4.223,3.523,6.529,8.82,6.529,14.737c0,1.604,1.11,2.907,2.716,2.907
		C158.893,49.713,160,48.409,160,46.806z"/>
	<circle fill="#0C457D" cx="190" cy="9.448" r="9.448"/>
	<path fill="#0C457D" d="M215,46.806c0-13.785-11.215-25.002-25-25.002c-13.784,0-25,11.217-25,25.002
		c0,1.604,1.301,2.907,2.907,2.907c1.605,0,2.907-1.304,2.907-2.907c0-5.917,2.749-11.214,6.972-14.737l3.468,31.084v39.321
		c0,1.605,1.509,2.909,3.115,2.909c1.604,0,2.885-1.304,2.885-2.909v-36.29h7v36.29c0,1.605,1.355,2.909,2.961,2.909
		s3.039-1.304,3.039-2.909V64.477l2.786-32.408c4.223,3.523,6.529,8.82,6.529,14.737c0,1.604,1.11,2.907,2.716,2.907
		C213.893,49.713,215,48.409,215,46.806z"/>
	<circle fill="#0C457D" cx="245" cy="9.448" r="9.448"/>
	<path fill="#0C457D" d="M270,46.806c0-13.785-11.215-25.002-25-25.002c-13.784,0-25,11.217-25,25.002
		c0,1.604,1.301,2.907,2.907,2.907c1.605,0,2.907-1.304,2.907-2.907c0-5.917,2.749-11.214,6.972-14.737l3.468,31.084v39.321
		c0,1.605,1.509,2.909,3.115,2.909c1.604,0,2.885-1.304,2.885-2.909v-36.29h7v36.29c0,1.605,1.355,2.909,2.961,2.909
		s3.039-1.304,3.039-2.909V64.477l2.786-32.408c4.223,3.523,6.529,8.82,6.529,14.737c0,1.604,1.11,2.907,2.716,2.907
		C268.893,49.713,270,48.409,270,46.806z"/>
	<circle fill="#0C457D" cx="300" cy="9.448" r="9.448"/>
	<path fill="#0C457D" d="M325,46.806c0-13.785-11.215-25.002-25-25.002c-13.784,0-25,11.217-25,25.002
		c0,1.604,1.301,2.907,2.907,2.907c1.605,0,2.907-1.304,2.907-2.907c0-5.917,2.749-11.214,6.972-14.737l3.468,31.084v39.321
		c0,1.605,1.509,2.909,3.115,2.909c1.604,0,2.885-1.304,2.885-2.909v-36.29h7v36.29c0,1.605,1.355,2.909,2.961,2.909
		s3.039-1.304,3.039-2.909V64.477l2.786-32.408c4.223,3.523,6.529,8.82,6.529,14.737c0,1.604,1.11,2.907,2.716,2.907
		C323.893,49.713,325,48.409,325,46.806z"/>
	<circle fill="#0C457D" cx="355" cy="9.448" r="9.448"/>
	<path fill="#0C457D" d="M380,46.806c0-13.785-11.215-25.002-25-25.002c-13.784,0-25,11.217-25,25.002
		c0,1.604,1.301,2.907,2.907,2.907c1.605,0,2.907-1.304,2.907-2.907c0-5.917,2.749-11.214,6.972-14.737l3.468,31.084v39.321
		c0,1.605,1.509,2.909,3.115,2.909c1.604,0,2.885-1.304,2.885-2.909v-36.29h7v36.29c0,1.605,1.355,2.909,2.961,2.909
		s3.039-1.304,3.039-2.909V64.477l2.786-32.408c4.223,3.523,6.529,8.82,6.529,14.737c0,1.604,1.11,2.907,2.716,2.907
		C378.893,49.713,380,48.409,380,46.806z"/>
</g>
</svg>
