<?xml version="1.0" encoding="utf-8"?>
<!-- Generator: Adobe Illustrator 16.0.3, SVG Export Plug-In . SVG Version: 6.00 Build 0)  -->
<!DOCTYPE svg PUBLIC "-//W3C//DTD SVG 1.1//EN" "http://www.w3.org/Graphics/SVG/1.1/DTD/svg11.dtd">
<svg version="1.1" id="Layer_1" xmlns="http://www.w3.org/2000/svg" xmlns:xlink="http://www.w3.org/1999/xlink" x="0px" y="0px"
	 width="595.122px" height="484.226px" viewBox="290.558 273.372 595.122 484.226"
	 enable-background="new 290.558 273.372 595.122 484.226" xml:space="preserve">
<path fill="#0C457D" d="M885.68,330.71c-22.053,9.767-45.524,16.383-70.098,19.218c25.203-14.964,44.579-39.065,53.873-67.577
	c-23.471,13.862-49.62,24.101-77.502,29.614c-22.211-23.786-54.03-38.593-89.158-38.593c-67.577,0-122.237,54.661-122.237,122.238
	c0,9.609,1.103,18.903,3.308,27.881c-101.445-5.041-191.391-53.873-251.722-127.594c-10.396,18.115-16.54,39.066-16.54,61.434
	c0,42.532,21.58,79.707,54.503,101.76c-20.006-0.63-38.751-6.144-55.291-15.28c0,0.473,0,1.103,0,1.575
	c0,59.229,42.059,108.534,97.979,119.718c-10.239,2.836-21.107,4.411-32.292,4.411c-7.876,0-15.438-0.945-23.156-2.206
	c15.438,48.518,60.804,83.803,114.204,84.905c-41.743,32.607-94.514,52.298-151.852,52.298c-9.767,0-19.533-0.63-29.142-1.732
	c54.03,34.655,118.3,54.817,187.295,54.817c224.628,0,347.496-186.192,347.496-347.653c0-5.198-0.157-10.712-0.473-15.91
	C848.662,376.864,869.298,355.284,885.68,330.71z"/>
</svg>
