<?xml version="1.0" encoding="utf-8"?>
<!-- Generator: Adobe Illustrator 15.0.0, SVG Export Plug-In . SVG Version: 6.00 Build 0)  -->
<!DOCTYPE svg PUBLIC "-//W3C//DTD SVG 1.1//EN" "http://www.w3.org/Graphics/SVG/1.1/DTD/svg11.dtd">
<svg version="1.1" id="Capa_1" xmlns="http://www.w3.org/2000/svg" xmlns:xlink="http://www.w3.org/1999/xlink" x="0px" y="0px"
	 width="130px" height="100px" viewBox="0 0 130 100" enable-background="new 0 0 130 100" xml:space="preserve">
<g>
	<g>
		<path fill="#FFFFFF" d="M115.722,68.699c-1.152,0-2.086,0.936-2.086,2.088V93.74c0,1.15-0.936,2.088-2.086,2.088H57.313
			c-1.148,0-2.086-0.938-2.086-2.088V37.418h18.775c1.15,0,2.084-0.934,2.084-2.084V16.559h35.463c1.15,0,2.086,0.938,2.086,2.088
			v18.904c0,1.15,0.934,2.084,2.086,2.084s2.086-0.934,2.086-2.084V18.646c0-3.453-2.807-6.26-6.258-6.26H74.003
			c-0.016,0-0.027,0.004-0.039,0.004c-0.127,0.002-0.252,0.012-0.375,0.039c-0.016,0.002-0.029,0.008-0.043,0.01
			c-0.105,0.023-0.207,0.057-0.309,0.096c-0.037,0.016-0.072,0.031-0.107,0.049c-0.08,0.037-0.156,0.078-0.23,0.125
			c-0.029,0.02-0.063,0.037-0.094,0.057c-0.098,0.07-0.189,0.145-0.275,0.229c-0.002,0.002-0.002,0.004-0.004,0.006L51.667,33.857
			c-0.088,0.088-0.162,0.184-0.232,0.281c-0.02,0.029-0.037,0.061-0.057,0.092c-0.047,0.076-0.088,0.152-0.125,0.232
			c-0.018,0.035-0.033,0.07-0.049,0.107c-0.039,0.098-0.07,0.201-0.094,0.305c-0.004,0.016-0.01,0.031-0.014,0.045
			c-0.023,0.123-0.035,0.248-0.037,0.373c0,0.014-0.004,0.027-0.004,0.041V93.74c0,3.451,2.807,6.26,6.258,6.26h54.236
			c3.451,0,6.258-2.809,6.258-6.26V70.787C117.808,69.635,116.874,68.699,115.722,68.699z M71.917,19.508v13.74h-13.74
			L71.917,19.508z"/>
		<path fill="#F5F5F5" d="M127.665,43.988c-0.156-0.092-0.322-0.154-0.488-0.203l-12.23,20.621c0.129,0.135,0.271,0.262,0.439,0.359
			c0.332,0.197,0.697,0.291,1.059,0.291c0.713,0,1.41-0.367,1.799-1.025l10.156-17.186
			C128.985,45.854,128.657,44.574,127.665,43.988z"/>
		<path fill="#F5F5F5" d="M127.745,32.639c-1.488-0.877-3.408-0.385-4.287,1.102L94.292,83.09c-0.879,1.488-0.385,3.406,1.102,4.285
			c0.502,0.295,1.049,0.436,1.59,0.436c1.07,0,2.113-0.549,2.697-1.537l29.164-49.348C129.726,35.438,129.231,33.52,127.745,32.639z
			"/>
		<path fill="#FFFFFF" d="M105.292,33.176H84.433c-1.152,0-2.088,0.934-2.088,2.086c0,1.15,0.936,2.086,2.088,2.086h20.859
			c1.152,0,2.084-0.936,2.084-2.086C107.376,34.109,106.444,33.176,105.292,33.176z"/>
		<path fill="#FFFFFF" d="M107.376,49.863c0-1.152-0.932-2.086-2.084-2.086H63.571c-1.152,0-2.086,0.934-2.086,2.086
			c0,1.15,0.934,2.086,2.086,2.086h41.721C106.444,51.949,107.376,51.014,107.376,49.863z"/>
		<path fill="#FFFFFF" d="M100.858,64.465c0-1.152-0.934-2.086-2.086-2.086H63.571c-1.152,0-2.086,0.934-2.086,2.086
			s0.934,2.086,2.086,2.086h35.201C99.925,66.551,100.858,65.617,100.858,64.465z"/>
		<path fill="#F5F5F5" d="M89.817,87.693c-0.84,0.213-1.324-0.143-2.719-2.762c-0.879-1.65-1.787-3.355-3.531-3.969
			c-2.445-0.859-4.447,1.107-6.215,2.844c-0.785,0.768-2.414,2.35-2.998,2.268c-0.49-0.086-0.729-0.807-1.193-2.93
			c-0.338-1.535-0.758-3.447-1.729-5.293c-1.029-1.961-2.568-2.064-3.182-2.021c-2.328,0.174-4.564,3.287-6.648,9.258
			c-0.381,1.088,0.193,2.275,1.281,2.656c1.088,0.379,2.277-0.193,2.656-1.283c0.762-2.18,1.836-4.451,2.645-5.689
			c0.418,1.066,0.664,2.182,0.9,3.268c0.545,2.48,1.223,5.566,4.555,6.145c2.695,0.469,4.879-1.678,6.635-3.4
			c0.578-0.566,1.492-1.467,2.012-1.764c0.336,0.379,0.822,1.293,1.131,1.873c1.035,1.943,2.684,5.039,5.957,5.039
			c0.453,0,0.939-0.061,1.459-0.191c1.117-0.279,1.795-1.414,1.516-2.531C92.067,88.092,90.935,87.414,89.817,87.693z"/>
		<path opacity="0.5" fill="#7BA946" d="M127.665,43.988c-0.156-0.092-0.322-0.154-0.488-0.203l-12.23,20.621
			c0.129,0.135,0.271,0.262,0.439,0.359c0.332,0.197,0.697,0.291,1.059,0.291c0.713,0,1.41-0.367,1.799-1.025l10.156-17.186
			C128.985,45.854,128.657,44.574,127.665,43.988z"/>
		<path opacity="0.5" fill="#7BA946" d="M127.745,32.639c-1.488-0.877-3.408-0.385-4.287,1.102L94.292,83.09
			c-0.879,1.488-0.385,3.406,1.102,4.285c0.502,0.295,1.049,0.436,1.59,0.436c1.07,0,2.113-0.549,2.697-1.537l29.164-49.348
			C129.726,35.438,129.231,33.52,127.745,32.639z"/>
		<path opacity="0.5" fill="#7BA946" d="M89.817,87.693c-0.84,0.213-1.324-0.143-2.719-2.762c-0.879-1.65-1.787-3.355-3.531-3.969
			c-2.445-0.859-4.447,1.107-6.215,2.844c-0.785,0.768-2.414,2.35-2.998,2.268c-0.49-0.086-0.729-0.807-1.193-2.93
			c-0.338-1.535-0.758-3.447-1.729-5.293c-1.029-1.961-2.568-2.064-3.182-2.021c-2.328,0.174-4.564,3.287-6.648,9.258
			c-0.381,1.088,0.193,2.275,1.281,2.656c1.088,0.379,2.277-0.193,2.656-1.283c0.762-2.18,1.836-4.451,2.645-5.689
			c0.418,1.066,0.664,2.182,0.9,3.268c0.545,2.48,1.223,5.566,4.555,6.145c2.695,0.469,4.879-1.678,6.635-3.4
			c0.578-0.566,1.492-1.467,2.012-1.764c0.336,0.379,0.822,1.293,1.131,1.873c1.035,1.943,2.684,5.039,5.957,5.039
			c0.453,0,0.939-0.061,1.459-0.191c1.117-0.279,1.795-1.414,1.516-2.531C92.067,88.092,90.935,87.414,89.817,87.693z"/>
	</g>
	<g>
		<g>
			<path fill="#F5F5F5" d="M22.072,42.72c0.601,0,1.076,0.169,1.43,0.506c0.352,0.338,0.528,0.784,0.528,1.339v3.33H1.711V46.05
				c0-0.375,0.078-0.769,0.236-1.182c0.156-0.412,0.408-0.783,0.754-1.113l9.877-9.9c0.824-0.84,1.563-1.643,2.217-2.407
				c0.652-0.766,1.195-1.522,1.631-2.272c0.435-0.75,0.768-1.512,1.001-2.284c0.232-0.772,0.349-1.586,0.349-2.441
				c0-0.779-0.112-1.466-0.338-2.059c-0.225-0.592-0.543-1.091-0.955-1.496c-0.414-0.405-0.908-0.709-1.486-0.911
				c-0.577-0.202-1.226-0.304-1.945-0.304c-0.66,0-1.271,0.094-1.834,0.281s-1.062,0.45-1.496,0.787
				c-0.436,0.338-0.803,0.731-1.103,1.182s-0.525,0.945-0.675,1.484c-0.256,0.69-0.586,1.148-0.99,1.373
				c-0.405,0.225-0.99,0.277-1.756,0.157l-2.924-0.518c0.225-1.56,0.66-2.929,1.305-4.106c0.645-1.177,1.451-2.159,2.418-2.947
				c0.969-0.787,2.078-1.38,3.33-1.777c1.253-0.397,2.6-0.596,4.039-0.596c1.5,0,2.873,0.221,4.117,0.663
				c1.246,0.442,2.311,1.069,3.195,1.879s1.575,1.785,2.07,2.925c0.495,1.141,0.742,2.408,0.742,3.803c0,1.2-0.176,2.311-0.528,3.33
				c-0.353,1.021-0.825,1.995-1.417,2.925c-0.594,0.931-1.287,1.83-2.082,2.7s-1.627,1.755-2.498,2.655l-7.334,7.492
				c0.705-0.21,1.406-0.371,2.104-0.483c0.697-0.113,1.361-0.169,1.991-0.169H22.072z"/>
		</g>
		<g opacity="0.5">
			<path fill="#7BA946" d="M22.072,42.72c0.601,0,1.076,0.169,1.43,0.506c0.352,0.338,0.528,0.784,0.528,1.339v3.33H1.711V46.05
				c0-0.375,0.078-0.769,0.236-1.182c0.156-0.412,0.408-0.783,0.754-1.113l9.877-9.9c0.824-0.84,1.563-1.643,2.217-2.407
				c0.652-0.766,1.195-1.522,1.631-2.272c0.435-0.75,0.768-1.512,1.001-2.284c0.232-0.772,0.349-1.586,0.349-2.441
				c0-0.779-0.112-1.466-0.338-2.059c-0.225-0.592-0.543-1.091-0.955-1.496c-0.414-0.405-0.908-0.709-1.486-0.911
				c-0.577-0.202-1.226-0.304-1.945-0.304c-0.66,0-1.271,0.094-1.834,0.281s-1.062,0.45-1.496,0.787
				c-0.436,0.338-0.803,0.731-1.103,1.182s-0.525,0.945-0.675,1.484c-0.256,0.69-0.586,1.148-0.99,1.373
				c-0.405,0.225-0.99,0.277-1.756,0.157l-2.924-0.518c0.225-1.56,0.66-2.929,1.305-4.106c0.645-1.177,1.451-2.159,2.418-2.947
				c0.969-0.787,2.078-1.38,3.33-1.777c1.253-0.397,2.6-0.596,4.039-0.596c1.5,0,2.873,0.221,4.117,0.663
				c1.246,0.442,2.311,1.069,3.195,1.879s1.575,1.785,2.07,2.925c0.495,1.141,0.742,2.408,0.742,3.803c0,1.2-0.176,2.311-0.528,3.33
				c-0.353,1.021-0.825,1.995-1.417,2.925c-0.594,0.931-1.287,1.83-2.082,2.7s-1.627,1.755-2.498,2.655l-7.334,7.492
				c0.705-0.21,1.406-0.371,2.104-0.483c0.697-0.113,1.361-0.169,1.991-0.169H22.072z"/>
		</g>
	</g>
	<rect fill="none" width="130" height="100"/>
</g>
</svg>
