<?xml version="1.0" encoding="utf-8"?>
<!-- Generator: Adobe Illustrator 15.0.0, SVG Export Plug-In . SVG Version: 6.00 Build 0)  -->
<!DOCTYPE svg PUBLIC "-//W3C//DTD SVG 1.1//EN" "http://www.w3.org/Graphics/SVG/1.1/DTD/svg11.dtd">
<svg version="1.1" id="Capa_1" xmlns="http://www.w3.org/2000/svg" xmlns:xlink="http://www.w3.org/1999/xlink" x="0px" y="0px"
	 width="130px" height="100px" viewBox="0 0 130 100" enable-background="new 0 0 130 100" xml:space="preserve">
<g>
	<g>
		<path fill="#F5F5F5" d="M110.608,63.92c-9.887,0-17.93,8.044-17.93,17.931c0,9.889,8.043,17.933,17.93,17.933
			c9.889,0,17.932-8.044,17.932-17.933C128.54,71.964,120.497,63.92,110.608,63.92z M110.608,95.563
			c-7.561,0-13.711-6.151-13.711-13.713c0-7.561,6.15-13.712,13.711-13.712c7.563,0,13.713,6.151,13.713,13.712
			C124.321,89.412,118.171,95.563,110.608,95.563z"/>
		<path fill="#F5F5F5" d="M117.571,79.742h-4.852V74.89c0-1.165-0.945-2.108-2.111-2.108c-1.164,0-2.107,0.943-2.107,2.108v4.853
			h-4.854c-1.164,0-2.109,0.944-2.109,2.108c0,1.166,0.945,2.11,2.109,2.11h4.854v4.853c0,1.164,0.943,2.109,2.107,2.109
			c1.166,0,2.111-0.945,2.111-2.109v-4.853h4.852c1.164,0,2.109-0.944,2.109-2.11C119.681,80.687,118.735,79.742,117.571,79.742z"/>
		<path fill="#FFFFFF" d="M92.132,95.563H56.015v-9.577c0-15.669,12.748-28.417,28.418-28.417c5.174,0,10.238,1.404,14.645,4.06
			c0.996,0.602,2.293,0.28,2.895-0.718c0.602-0.999,0.281-2.295-0.717-2.896c-2.053-1.237-4.23-2.232-6.488-2.985
			c7.496-3.841,12.643-11.643,12.643-20.629c0-12.775-10.395-23.168-23.17-23.168S61.071,21.625,61.071,34.4
			c0,9.051,5.219,16.901,12.805,20.712c-12.83,4.399-22.08,16.573-22.08,30.874v13.797h40.336c1.166,0,2.109-0.945,2.109-2.109
			C94.241,96.508,93.298,95.563,92.132,95.563z M65.29,34.4c0-10.449,8.5-18.949,18.949-18.949s18.951,8.5,18.951,18.949
			s-8.502,18.95-18.951,18.95S65.29,44.85,65.29,34.4z"/>
		<path opacity="0.5" fill="#7BA946" d="M110.608,63.92c-9.887,0-17.93,8.044-17.93,17.931c0,9.889,8.043,17.933,17.93,17.933
			c9.889,0,17.932-8.044,17.932-17.933C128.54,71.964,120.497,63.92,110.608,63.92z M110.608,95.563
			c-7.561,0-13.711-6.151-13.711-13.713c0-7.561,6.15-13.712,13.711-13.712c7.563,0,13.713,6.151,13.713,13.712
			C124.321,89.412,118.171,95.563,110.608,95.563z"/>
		<path opacity="0.5" fill="#7BA946" d="M117.571,79.742h-4.852V74.89c0-1.165-0.945-2.108-2.111-2.108
			c-1.164,0-2.107,0.943-2.107,2.108v4.853h-4.854c-1.164,0-2.109,0.944-2.109,2.108c0,1.166,0.945,2.11,2.109,2.11h4.854v4.853
			c0,1.164,0.943,2.109,2.107,2.109c1.166,0,2.111-0.945,2.111-2.109v-4.853h4.852c1.164,0,2.109-0.944,2.109-2.11
			C119.681,80.687,118.735,79.742,117.571,79.742z"/>
	</g>
	<g>
		<g>
			<path fill="#F5F5F5" d="M23.288,43.418v4.162h-18v-4.162h6.593V24.45c0-0.75,0.021-1.522,0.066-2.317l-4.68,3.915
				c-0.27,0.21-0.536,0.341-0.799,0.394c-0.262,0.053-0.51,0.057-0.742,0.011c-0.232-0.045-0.438-0.123-0.619-0.235
				c-0.18-0.113-0.314-0.236-0.404-0.372l-1.756-2.407L12.871,15h4.566v28.418H23.288z"/>
		</g>
		<g opacity="0.5">
			<path fill="#7BA946" d="M23.288,43.418v4.162h-18v-4.162h6.593V24.45c0-0.75,0.021-1.522,0.066-2.317l-4.68,3.915
				c-0.27,0.21-0.536,0.341-0.799,0.394c-0.262,0.053-0.51,0.057-0.742,0.011c-0.232-0.045-0.438-0.123-0.619-0.235
				c-0.18-0.113-0.314-0.236-0.404-0.372l-1.756-2.407L12.871,15h4.566v28.418H23.288z"/>
		</g>
	</g>
	<rect fill="none" width="130" height="100"/>
</g>
</svg>
