<?xml version="1.0" encoding="utf-8"?>
<!-- Generator: Adobe Illustrator 16.0.3, SVG Export Plug-In . SVG Version: 6.00 Build 0)  -->
<!DOCTYPE svg PUBLIC "-//W3C//DTD SVG 1.1//EN" "http://www.w3.org/Graphics/SVG/1.1/DTD/svg11.dtd">
<svg version="1.1" id="Capa_1" xmlns="http://www.w3.org/2000/svg" xmlns:xlink="http://www.w3.org/1999/xlink" x="0px" y="0px"
	 width="1920px" height="271.04px" viewBox="0 0 1920 271.04" enable-background="new 0 0 1920 271.04" xml:space="preserve">
<g>
	<g>
		<g>
			<g>
				<defs>
					<rect id="SVGID_1_" y="0" width="1920" height="271.04"/>
				</defs>
				<clipPath id="SVGID_2_">
					<use xlink:href="#SVGID_1_"  overflow="visible"/>
				</clipPath>
				<g clip-path="url(#SVGID_2_)">
					<path fill="#539DCC" d="M806.839,83.377c31.912-71.941,82.842-80.853,82.842-80.853s-39.972-0.958-58.665,1.592
						c-17.403,2.545-50.924,4.774-84.45,80.535c-4.52,10.185-48.035,104.733-48.035,104.733
						c-32.232,71.623-82.835,80.534-82.835,80.534s37.389,0.956,58.663-1.592c17.408-2.232,50.931-4.458,84.455-80.219
						C758.492,188.106,803.292,90.7,806.839,83.377z"/>
					<path fill="#539DCC" d="M979.289,83.377c31.914-71.941,82.841-80.853,82.841-80.853s-39.972-0.958-58.667,1.592
						c-17.078,2.545-50.602,4.774-84.124,80.535c-4.516,10.185-48.025,104.733-48.025,104.733
						c-32.244,71.623-83.17,80.534-83.17,80.534s37.396,0.956,58.665-1.592c17.409-2.232,50.93-4.458,84.454-80.219
						C931.263,188.106,976.063,90.7,979.289,83.377z"/>
					<path fill="#6B5757" d="M925.137,32.126c3.874,0,7.094,3.182,7.094,7.001v106.002c0,3.821-3.22,7.003-7.094,7.003
						c-3.871,0-7.095-3.185-7.095-7.003V39.451C918.042,35.308,921.266,32.126,925.137,32.126z"/>
					<path fill="#6B5757" d="M749.789,130.486c3.865,0,7.09,3.188,7.09,7.006v96.775c0,3.818-3.225,7.001-7.09,7.001
						c-3.872,0-7.098-3.185-7.098-7.001v-96.775C742.693,133.67,745.918,130.486,749.789,130.486z"/>
					<path fill="#6B5757" d="M881.302,5.388c3.864,0,7.089,3.188,7.089,7.006V222.49c0,3.816-3.226,6.998-7.089,6.998
						c-3.87,0-7.092-3.179-7.092-6.998V12.394C874.21,8.573,877.433,5.388,881.302,5.388z"/>
					<path fill="#6B5757" d="M793.623,53.136c3.87,0,7.095,3.182,7.095,7.003v200.222c0,3.824-3.226,7.009-7.095,7.009
						c-3.868,0-7.091-3.188-7.091-7.009V60.46C786.532,56.318,789.755,53.136,793.623,53.136z"/>
					<path fill="#6B5757" d="M837.459,13.028c3.871,0,7.095,3.185,7.095,6.998v231.742c0,3.827-3.224,7-7.095,7
						c-3.87,0-7.094-3.176-7.094-7V20.026C830.366,16.212,833.59,13.028,837.459,13.028z"/>
					<path fill="#6B5757" d="M694.67,142.903c3.862,0,7.088,3.185,7.088,7.006v85.945c0,3.824-3.226,7.006-7.088,7.006
						c-3.871,0-7.098-3.185-7.098-7.006v-85.945C687.25,146.084,690.472,142.903,694.67,142.903z"/>
					<path fill="#6B5757" d="M650.827,50.588c3.87,0,7.097,3.188,7.097,7.009v197.358c0,3.815-3.227,6.997-7.097,6.997
						c-3.865,0-7.089-3.185-7.089-6.997V57.597C643.42,53.776,646.645,50.588,650.827,50.588z"/>
					<path fill="#6B5757" d="M563.153,5.388c3.871,0,7.098,3.188,7.098,7.006v226.963c0,3.821-3.227,7.006-7.098,7.006
						c-3.865,0-7.088-3.185-7.088-7.006V12.394C556.065,8.573,559.288,5.388,563.153,5.388z"/>
					<rect x="602.478" y="24.805" fill="#6B5757" width="14.507" height="239.062"/>
					<path fill="#BAD6EA" d="M734.641,189.061c31.905,71.945,82.84,80.854,82.84,80.854s-39.004,0.955-58.663-1.59
						c-17.413-2.551-50.931-4.458-84.455-80.222C669.85,177.918,626.33,83.375,626.33,83.375
						C594.423,11.43,543.491,2.525,543.491,2.525s40.288-0.961,58.662,1.59c17.41,2.547,50.931,4.458,84.456,80.219
						C686.287,84.649,731.415,181.74,734.641,189.061z"/>
					<path fill="#539DCC" d="M325.92,83.377c31.911-71.941,82.84-80.853,82.84-80.853s-39.969-0.958-58.666,1.592
						c-17.403,2.545-50.926,4.774-84.449,80.535c-4.521,10.185-48.031,104.733-48.031,104.733
						c-32.236,71.623-82.84,80.534-82.84,80.534s37.39,0.956,58.665-1.592c17.409-2.232,50.928-4.458,84.453-80.219
						C277.567,188.106,322.371,90.7,325.92,83.377z"/>
					<path fill="#539DCC" d="M498.364,83.377c31.919-71.941,82.843-80.853,82.843-80.853s-39.972-0.958-58.67,1.592
						c-17.077,2.545-50.601,4.774-84.125,80.535c-4.513,10.185-48.022,104.733-48.022,104.733
						c-32.241,71.623-83.168,80.534-83.168,80.534s37.393,0.956,58.669-1.592c17.399-2.232,50.924-4.458,84.449-80.219
						C450.34,188.106,495.142,90.7,498.364,83.377z"/>
					<path fill="#539DCC" d="M-159.842,83.377c31.911-71.941,82.84-80.853,82.84-80.853s-39.971-0.958-58.664,1.592
						c-17.408,2.545-50.926,4.459-84.451,80.219c-4.512,10.18-48.027,104.729-48.027,104.729
						c-32.236,71.944-82.84,80.853-82.84,80.853s37.392,0.956,58.665-1.592c17.408-2.231,50.93-4.458,84.452-80.219
						C-208.189,188.106-163.063,90.7-159.842,83.377z"/>
					<path fill="#539DCC" d="M12.609,83.377C44.845,11.436,95.451,2.525,95.451,2.525S55.48,1.567,36.784,4.117
						C19.378,6.662-14.144,8.576-47.667,84.335c-4.51,10.18-48.025,104.729-48.025,104.729
						c-31.912,71.944-82.842,80.853-82.842,80.853s37.389,0.956,58.663-1.592c17.406-2.231,50.927-4.458,84.455-80.219
						C-35.415,188.106,9.385,90.7,12.609,83.377z"/>
					<path fill="#6B5757" d="M444.213,32.126c3.875,0,7.098,3.182,7.098,7.001v106.002c0,3.821-3.223,7.003-7.098,7.003
						c-3.869,0-7.094-3.185-7.094-7.003V39.451C437.119,35.308,440.344,32.126,444.213,32.126z"/>
					<path fill="#6B5757" d="M268.87,130.486c3.864,0,7.087,3.188,7.087,7.006v96.775c0,3.818-3.223,7.001-7.087,7.001
						c-3.874,0-7.098-3.185-7.098-7.001v-96.775C261.772,133.67,264.997,130.486,268.87,130.486z"/>
					<path fill="#6B5757" d="M400.38,5.388c3.865,0,7.087,3.188,7.087,7.006V222.49c0,3.816-3.222,6.998-7.087,6.998
						c-3.868,0-7.091-3.179-7.091-6.998V12.394C393.29,8.573,396.513,5.388,400.38,5.388z"/>
					<path fill="#6B5757" d="M312.7,53.136c3.872,0,7.095,3.182,7.095,7.003v200.222c0,3.824-3.223,7.009-7.095,7.009
						c-3.866,0-7.09-3.188-7.09-7.009V60.46C305.61,56.318,308.834,53.136,312.7,53.136z"/>
					<path fill="#6B5757" d="M356.542,13.028c3.865,0,7.089,3.185,7.089,6.998v231.742c0,3.827-3.224,7-7.089,7
						c-3.874,0-7.095-3.176-7.095-7V20.026C349.447,16.212,352.669,13.028,356.542,13.028z"/>
					<path fill="#6B5757" d="M213.747,142.903c3.866,0,7.091,3.185,7.091,7.006v85.945c0,3.824-3.226,7.006-7.091,7.006
						c-3.871,0-7.095-3.185-7.095-7.006v-85.945C206.331,146.084,209.554,142.903,213.747,142.903z"/>
					<path fill="#6B5757" d="M38.392,17.802c3.865,0,7.094,3.189,7.094,7.003v116.829c0,3.811-3.229,6.995-7.094,6.995
						c-3.864,0-7.088-3.185-7.088-6.995V24.805C31.304,20.99,34.528,17.802,38.392,17.802z"/>
					<path fill="#6B5757" d="M169.906,50.588c3.87,0,7.096,3.188,7.096,7.009v197.358c0,3.815-3.227,6.997-7.096,6.997
						c-3.867,0-7.089-3.185-7.089-6.997V57.597C162.498,53.776,165.721,50.588,169.906,50.588z"/>
					<path fill="#6B5757" d="M-273.623,142.903c3.866,0,7.092,3.185,7.092,7.006v85.945c0,3.824-3.227,7.006-7.092,7.006
						c-3.871,0-7.093-3.185-7.093-7.006v-85.945C-280.716,146.084-277.493,142.903-273.623,142.903z"/>
					<path fill="#6B5757" d="M-317.464,50.588c3.871,0,7.091,3.188,7.091,7.009v197.358c0,3.815-3.22,6.997-7.091,6.997
						c-3.867,0-7.089-3.185-7.089-6.997V57.597C-324.553,53.776-321.331,50.588-317.464,50.588z"/>
					<path fill="#6B5757" d="M82.231,5.388c3.875,0,7.098,3.188,7.098,7.006v226.963c0,3.821-3.223,7.006-7.098,7.006
						c-3.867,0-7.089-3.185-7.089-7.006V12.394C75.142,8.573,78.364,5.388,82.231,5.388z"/>
					<rect x="121.555" y="24.805" fill="#6B5757" width="14.507" height="239.062"/>
					<path fill="#6B5757" d="M-41.541,32.126c3.863,0,7.085,3.182,7.085,7.001v104.409c0,3.821-3.223,7.006-7.085,7.006
						c-3.87,0-7.094-3.185-7.094-7.006V39.451C-48.635,35.308-45.411,32.126-41.541,32.126z"/>
					<path fill="#6B5757" d="M-216.568,130.486c3.862,0,7.088,3.188,7.088,7.006v96.775c0,3.818-3.226,7.001-7.088,7.001
						c-3.87,0-7.094-3.185-7.094-7.001v-96.775C-223.986,133.67-220.761,130.486-216.568,130.486z"/>
					<path fill="#6B5757" d="M-85.381,5.388c3.868,0,7.091,3.188,7.091,7.006V222.49c0,3.816-3.223,6.998-7.091,6.998
						c-3.868,0-7.089-3.179-7.089-6.998V12.394C-92.471,8.573-89.249,5.388-85.381,5.388z"/>
					<path fill="#6B5757" d="M-173.056,53.136c3.869,0,7.088,3.182,7.088,7.003v200.222c0,3.824-3.219,7.009-7.088,7.009
						c-3.868,0-7.094-3.188-7.094-7.009V60.46C-180.149,56.318-176.924,53.136-173.056,53.136z"/>
					<path fill="#6B5757" d="M-129.22,13.028c3.868,0,7.094,3.185,7.094,6.998v231.742c0,3.827-3.226,7-7.094,7
						c-3.868,0-7.092-3.176-7.092-7V20.026C-136.311,16.212-133.088,13.028-129.22,13.028z"/>
					<path fill="#BAD6EA" d="M80.942,189.061c31.912,71.945,82.841,80.854,82.841,80.854s-39.003,0.955-58.663-1.59
						c-17.411-2.551-50.93-4.458-84.449-80.222C16.157,177.918-27.359,83.375-27.359,83.375C-59.269,11.43-110.2,2.525-110.2,2.525
						s40.293-0.961,58.665,1.59c17.406,2.547,50.928,4.458,84.453,80.219C32.918,84.649,77.726,181.74,80.942,189.061z"/>
					<path fill="#BAD6EA" d="M253.721,189.061c31.902,71.945,82.835,80.854,82.835,80.854s-39.006,0.955-58.662-1.59
						c-17.406-2.551-50.928-4.458-84.453-80.222c-4.513-10.185-48.032-104.728-48.032-104.728
						C113.502,11.43,62.568,2.525,62.568,2.525s40.289-0.961,58.664,1.59c17.409,2.547,50.931,4.458,84.454,80.219
						C205.363,84.649,250.497,181.74,253.721,189.061z"/>
					<path fill="#BAD6EA" d="M-232.046,189.061c31.91,71.945,82.841,80.854,82.841,80.854s-38.999,0.955-58.662-1.59
						c-17.407-2.551-50.925-4.458-84.452-80.222c-4.515-10.185-48.029-104.728-48.029-104.728
						c-31.909-71.945-82.84-80.851-82.84-80.851s40.293-0.961,58.667,1.59c17.405,2.547,50.927,4.458,84.452,80.219
						C-280.394,84.649-235.266,181.74-232.046,189.061z"/>
					<path fill="#6B5757" d="M519.317,17.802c3.867,0,7.089,3.189,7.089,7.003v116.829c0,3.811-3.223,6.995-7.089,6.995
						c-3.864,0-7.09-3.185-7.09-6.995V24.805C512.228,20.99,515.454,17.802,519.317,17.802z"/>
					<path fill="#BAD6EA" d="M561.866,189.061c31.917,71.945,82.842,80.854,82.842,80.854s-39,0.955-58.665-1.59
						c-17.407-2.551-50.925-4.458-84.45-80.222c-4.513-10.185-48.029-104.728-48.029-104.728
						c-31.91-71.945-82.84-80.851-82.84-80.851s40.296-0.961,58.667,1.59c17.403,2.547,50.926,4.458,84.449,80.219
						C513.838,84.649,558.642,181.74,561.866,189.061z"/>
					<path fill="#539DCC" d="M1768.683,83.377c31.916-71.941,82.845-80.853,82.845-80.853s-39.97-0.958-58.668,1.592
						c-17.402,2.545-50.923,4.774-84.447,80.535c-4.524,10.185-48.036,104.733-48.036,104.733
						c-32.235,71.623-82.835,80.534-82.835,80.534s37.387,0.956,58.661-1.592c17.411-2.232,50.932-4.458,84.452-80.219
						C1720.33,188.106,1765.136,90.7,1768.683,83.377z"/>
					<path fill="#539DCC" d="M1941.129,83.377c31.919-71.941,82.848-80.853,82.848-80.853s-39.974-0.958-58.67,1.592
						c-17.083,2.545-50.606,4.774-84.129,80.535c-4.51,10.185-48.024,104.733-48.024,104.733
						c-32.242,71.623-83.169,80.534-83.169,80.534s37.397,0.956,58.669-1.592c17.407-2.232,50.928-4.458,84.45-80.219
						C1893.104,188.106,1937.907,90.7,1941.129,83.377z"/>
					<path fill="#6B5757" d="M1886.981,32.126c3.872,0,7.095,3.182,7.095,7.001v106.002c0,3.821-3.223,7.003-7.095,7.003
						c-3.87,0-7.098-3.185-7.098-7.003V39.451C1879.884,35.308,1883.111,32.126,1886.981,32.126z"/>
					<path fill="#6B5757" d="M1711.635,130.486c3.869,0,7.09,3.188,7.09,7.006v96.775c0,3.818-3.221,7.001-7.09,7.001
						c-3.872,0-7.1-3.185-7.1-7.001v-96.775C1704.537,133.67,1707.764,130.486,1711.635,130.486z"/>
					<path fill="#6B5757" d="M1843.143,5.388c3.867,0,7.092,3.188,7.092,7.006V222.49c0,3.816-3.225,6.998-7.092,6.998
						c-3.865,0-7.091-3.179-7.091-6.998V12.394C1836.052,8.573,1839.277,5.388,1843.143,5.388z"/>
					<path fill="#6B5757" d="M1755.463,53.136c3.87,0,7.099,3.182,7.099,7.003v200.222c0,3.824-3.229,7.009-7.099,7.009
						c-3.863,0-7.089-3.188-7.089-7.009V60.46C1748.374,56.318,1751.6,53.136,1755.463,53.136z"/>
					<path fill="#6B5757" d="M1799.306,13.028c3.87,0,7.091,3.185,7.091,6.998v231.742c0,3.827-3.221,7-7.091,7
						c-3.871,0-7.091-3.176-7.091-7V20.026C1792.215,16.212,1795.435,13.028,1799.306,13.028z"/>
					<path fill="#BAD6EA" d="M2004.632,189.061c31.917,71.945,82.839,80.854,82.839,80.854s-39,0.955-58.663-1.59
						c-17.402-2.551-50.923-4.458-84.446-80.222c-4.516-10.185-48.031-104.728-48.031-104.728
						c-31.907-71.945-82.842-80.851-82.842-80.851s40.298-0.961,58.67,1.59c17.406,2.547,50.924,4.458,84.451,80.219
						C1956.605,84.649,2001.407,181.74,2004.632,189.061z"/>
					<path fill="#6B5757" d="M1656.515,142.903c3.862,0,7.088,3.185,7.088,7.006v85.945c0,3.824-3.227,7.006-7.088,7.006
						c-3.872,0-7.095-3.185-7.095-7.006v-85.945C1649.1,146.084,1652.319,142.903,1656.515,142.903z"/>
					<path fill="#6B5757" d="M1612.673,50.588c3.871,0,7.097,3.188,7.097,7.009v197.358c0,3.815-3.226,6.997-7.097,6.997
						c-3.868,0-7.092-3.185-7.092-6.997V57.597C1605.26,53.776,1608.485,50.588,1612.673,50.588z"/>
					<path fill="#6B5757" d="M1524.998,5.388c3.871,0,7.097,3.188,7.097,7.006v226.963c0,3.821-3.226,7.006-7.097,7.006
						c-3.868,0-7.091-3.185-7.091-7.006V12.394C1517.907,8.573,1521.13,5.388,1524.998,5.388z"/>
					<rect x="1564.319" y="24.805" fill="#6B5757" width="14.509" height="239.062"/>
					<path fill="#BAD6EA" d="M1696.485,189.061c31.906,71.945,82.838,80.854,82.838,80.854s-39.002,0.955-58.663-1.59
						c-17.408-2.551-50.928-4.458-84.452-80.222c-4.516-10.185-48.031-104.728-48.031-104.728
						c-31.91-71.945-82.84-80.851-82.84-80.851s40.286-0.961,58.66,1.59c17.41,2.547,50.933,4.458,84.456,80.219
						C1648.126,84.649,1693.263,181.74,1696.485,189.061z"/>
					<path fill="#539DCC" d="M1287.764,83.377c31.908-71.941,82.842-80.853,82.842-80.853s-39.969-0.958-58.668,1.592
						c-17.402,2.545-50.923,4.774-84.448,80.535c-4.52,10.185-48.032,104.733-48.032,104.733
						c-32.234,71.623-82.84,80.534-82.84,80.534s37.395,0.956,58.664-1.592c17.41-2.232,50.932-4.458,84.455-80.219
						C1239.413,188.106,1284.213,90.7,1287.764,83.377z"/>
					<path fill="#539DCC" d="M1460.211,83.377c31.916-71.941,82.84-80.853,82.84-80.853s-39.971-0.958-58.667,1.592
						c-17.079,2.545-50.601,4.774-84.128,80.535c-4.506,10.185-48.021,104.733-48.021,104.733
						c-32.242,71.623-83.171,80.534-83.171,80.534s37.397,0.956,58.669-1.592c17.407-2.232,50.925-4.458,84.451-80.219
						C1412.186,188.106,1456.987,90.7,1460.211,83.377z"/>
					<path fill="#6B5757" d="M1406.058,32.126c3.874,0,7.098,3.182,7.098,7.001v106.002c0,3.821-3.224,7.003-7.098,7.003
						c-3.868,0-7.092-3.185-7.092-7.003V39.451C1398.966,35.308,1402.189,32.126,1406.058,32.126z"/>
					<path fill="#6B5757" d="M1230.713,130.486c3.869,0,7.089,3.188,7.089,7.006v96.775c0,3.818-3.22,7.001-7.089,7.001
						c-3.87,0-7.096-3.185-7.096-7.001v-96.775C1223.617,133.67,1226.843,130.486,1230.713,130.486z"/>
					<path fill="#6B5757" d="M1362.221,5.388c3.866,0,7.092,3.188,7.092,7.006V222.49c0,3.816-3.226,6.998-7.092,6.998
						c-3.865,0-7.086-3.179-7.086-6.998V12.394C1355.135,8.573,1358.355,5.388,1362.221,5.388z"/>
					<path fill="#6B5757" d="M1274.543,53.136c3.871,0,7.098,3.182,7.098,7.003v200.222c0,3.824-3.227,7.009-7.098,7.009
						c-3.865,0-7.091-3.188-7.091-7.009V60.46C1267.452,56.318,1270.678,53.136,1274.543,53.136z"/>
					<path fill="#6B5757" d="M1318.389,13.028c3.865,0,7.085,3.185,7.085,6.998v231.742c0,3.827-3.22,7-7.085,7
						c-3.871,0-7.097-3.176-7.097-7V20.026C1311.292,16.212,1314.518,13.028,1318.389,13.028z"/>
					<path fill="#6B5757" d="M1175.592,142.903c3.865,0,7.093,3.185,7.093,7.006v85.945c0,3.824-3.228,7.006-7.093,7.006
						c-3.87,0-7.095-3.185-7.095-7.006v-85.945C1168.176,146.084,1171.396,142.903,1175.592,142.903z"/>
					<path fill="#6B5757" d="M1000.238,17.802c3.871,0,7.091,3.189,7.091,7.003v116.829c0,3.811-3.22,6.995-7.091,6.995
						c-3.862,0-7.09-3.185-7.09-6.995V24.805C993.148,20.99,996.376,17.802,1000.238,17.802z"/>
					<path fill="#6B5757" d="M1131.751,50.588c3.868,0,7.098,3.188,7.098,7.009v197.358c0,3.815-3.229,6.997-7.098,6.997
						s-7.089-3.185-7.089-6.997V57.597C1124.343,53.776,1127.566,50.588,1131.751,50.588z"/>
					<path fill="#6B5757" d="M1044.076,5.388c3.87,0,7.095,3.188,7.095,7.006v226.963c0,3.821-3.225,7.006-7.095,7.006
						c-3.868,0-7.089-3.185-7.089-7.006V12.394C1036.987,8.573,1040.208,5.388,1044.076,5.388z"/>
					<rect x="1083.402" y="24.805" fill="#6B5757" width="14.505" height="239.062"/>
					<path fill="#BAD6EA" d="M1215.562,189.061c31.902,71.945,82.839,80.854,82.839,80.854s-39.004,0.955-58.66-1.59
						c-17.413-2.551-50.93-4.458-84.455-80.222c-4.516-10.185-48.037-104.728-48.037-104.728
						c-31.901-71.945-82.834-80.851-82.834-80.851s40.287-0.961,58.656,1.59c17.413,2.547,50.939,4.458,84.46,80.219
						C1167.211,84.649,1212.336,181.74,1215.562,189.061z"/>
					<path fill="#6B5757" d="M1481.158,17.802c3.868,0,7.091,3.189,7.091,7.003v116.829c0,3.811-3.223,6.995-7.091,6.995
						c-3.865,0-7.086-3.185-7.086-6.995V24.805C1474.072,20.99,1477.293,17.802,1481.158,17.802z"/>
					<path fill="#BAD6EA" d="M1523.711,189.061c31.917,71.945,82.84,80.854,82.84,80.854s-39.001,0.955-58.664-1.59
						c-17.403-2.551-50.926-4.458-84.452-80.222c-4.515-10.185-48.022-104.728-48.022-104.728
						c-31.91-71.945-82.845-80.851-82.845-80.851s40.298-0.961,58.667,1.59c17.406,2.547,50.929,4.458,84.452,80.219
						C1475.686,84.649,1520.489,181.74,1523.711,189.061z"/>
					<path fill="#BAD6EA" d="M1042.781,189.061c31.919,71.945,82.846,80.854,82.846,80.854s-39.001,0.955-58.668-1.59
						c-17.402-2.551-50.923-4.458-84.448-80.222c-4.517-10.185-48.028-104.728-48.028-104.728
						C902.576,11.43,851.641,2.525,851.641,2.525s40.297-0.961,58.668,1.59c17.405,2.547,50.925,4.458,84.45,80.219
						C994.762,84.649,1039.563,181.74,1042.781,189.061z"/>
				</g>
			</g>
		</g>
	</g>
</g>
</svg>
