<?xml version="1.0" encoding="UTF-8" standalone="no"?>
<!-- Generator: Adobe Illustrator 16.0.3, SVG Export Plug-In . SVG Version: 6.00 Build 0)  -->
<!DOCTYPE svg  PUBLIC '-//W3C//DTD SVG 1.1//EN'  'http://www.w3.org/Graphics/SVG/1.1/DTD/svg11.dtd'>
<svg id="Capa_1" xmlns="http://www.w3.org/2000/svg" xml:space="preserve" height="271.04px" viewBox="0 0 1920 271.04" width="1920px" version="1.1" y="0px" x="0px" xmlns:xlink="http://www.w3.org/1999/xlink" enable-background="new 0 0 1920 271.04">
				<defs>
					<rect id="SVGID_1_" y="0" width="1920" height="271.04"/>
				</defs>
				<clipPath id="SVGID_2_">
					<use overflow="visible" xlink:href="#SVGID_1_"/>
				</clipPath>
				<g clip-path="url(#SVGID_2_)">
					<path d="m806.84 83.377c31.912-71.941 82.842-80.853 82.842-80.853s-39.972-0.958-58.665 1.592c-17.403 2.545-50.924 4.774-84.45 80.535-4.52 10.185-48.035 104.73-48.035 104.73-32.232 71.623-82.835 80.534-82.835 80.534s37.389 0.956 58.663-1.592c17.408-2.232 50.931-4.458 84.455-80.219-0.33 0.01 44.47-97.4 48.02-104.72z" fill="#539DCC"/>
					<path d="m979.29 83.377c31.914-71.941 82.841-80.853 82.841-80.853s-39.972-0.958-58.667 1.592c-17.078 2.545-50.602 4.774-84.124 80.535-4.516 10.185-48.025 104.73-48.025 104.73-32.244 71.623-83.17 80.534-83.17 80.534s37.396 0.956 58.665-1.592c17.409-2.232 50.93-4.458 84.454-80.219 0.05 0.01 44.85-97.4 48.08-104.72z" fill="#539DCC"/>
					<path d="m925.14 32.126c3.874 0 7.094 3.182 7.094 7.001v106c0 3.821-3.22 7.003-7.094 7.003-3.871 0-7.095-3.185-7.095-7.003v-105.68c0-4.142 3.23-7.324 7.1-7.324z" fill="#6B5757"/>
					<path d="m749.79 130.49c3.865 0 7.09 3.188 7.09 7.006v96.775c0 3.818-3.225 7.001-7.09 7.001-3.872 0-7.098-3.185-7.098-7.001v-96.775c0-3.83 3.23-7.01 7.1-7.01z" fill="#6B5757"/>
					<path d="m881.3 5.388c3.864 0 7.089 3.188 7.089 7.006v210.1c0 3.816-3.226 6.998-7.089 6.998-3.87 0-7.092-3.179-7.092-6.998v-210.1c0-3.817 3.22-7.002 7.09-7.002z" fill="#6B5757"/>
					<path d="m793.62 53.136c3.87 0 7.095 3.182 7.095 7.003v200.22c0 3.824-3.226 7.009-7.095 7.009-3.868 0-7.091-3.188-7.091-7.009v-199.9c0-4.142 3.23-7.324 7.09-7.324z" fill="#6B5757"/>
					<path d="m837.46 13.028c3.871 0 7.095 3.185 7.095 6.998v231.74c0 3.827-3.224 7-7.095 7-3.87 0-7.094-3.176-7.094-7v-231.74c0-3.818 3.22-7.002 7.09-7.002z" fill="#6B5757"/>
					<path d="m694.67 142.9c3.862 0 7.088 3.185 7.088 7.006v85.945c0 3.824-3.226 7.006-7.088 7.006-3.871 0-7.098-3.185-7.098-7.006v-85.945c-0.32-3.84 2.9-7.02 7.1-7.02z" fill="#6B5757"/>
					<path d="m650.83 50.588c3.87 0 7.097 3.188 7.097 7.009v197.36c0 3.815-3.227 6.997-7.097 6.997-3.865 0-7.089-3.185-7.089-6.997v-197.36c-0.32-3.824 2.9-7.012 7.09-7.012z" fill="#6B5757"/>
					<path d="m563.15 5.388c3.871 0 7.098 3.188 7.098 7.006v226.96c0 3.821-3.227 7.006-7.098 7.006-3.865 0-7.088-3.185-7.088-7.006v-226.96c0-3.817 3.23-7.002 7.09-7.002z" fill="#6B5757"/>
					<rect y="24.805" x="602.48" height="239.06" width="14.507" fill="#6B5757"/>
					<path d="m734.64 189.06c31.905 71.945 82.84 80.854 82.84 80.854s-39.004 0.955-58.663-1.59c-17.413-2.551-50.931-4.458-84.455-80.222-4.51-10.18-48.03-104.72-48.03-104.72-31.91-71.95-82.84-80.855-82.84-80.855s40.288-0.961 58.662 1.59c17.41 2.547 50.931 4.458 84.456 80.219-0.32 0.315 44.81 97.406 48.03 104.73z" fill="#BAD6EA"/>
					<path d="m325.92 83.377c31.911-71.941 82.84-80.853 82.84-80.853s-39.969-0.958-58.666 1.592c-17.403 2.545-50.926 4.774-84.449 80.535-4.521 10.185-48.031 104.73-48.031 104.73-32.236 71.623-82.84 80.534-82.84 80.534s37.39 0.956 58.665-1.592c17.409-2.232 50.928-4.458 84.453-80.219-0.32 0.01 44.48-97.4 48.03-104.72z" fill="#539DCC"/>
					<path d="m498.36 83.377c31.919-71.941 82.843-80.853 82.843-80.853s-39.972-0.958-58.67 1.592c-17.077 2.545-50.601 4.774-84.125 80.535-4.513 10.185-48.022 104.73-48.022 104.73-32.241 71.623-83.168 80.534-83.168 80.534s37.393 0.956 58.669-1.592c17.399-2.232 50.924-4.458 84.449-80.219 0.01 0.01 44.81-97.4 48.03-104.72z" fill="#539DCC"/>
					<path d="m-159.84 83.377c31.911-71.941 82.84-80.853 82.84-80.853s-39.971-0.958-58.664 1.592c-17.408 2.545-50.926 4.459-84.451 80.219-4.512 10.18-48.027 104.73-48.027 104.73-32.236 71.944-82.84 80.853-82.84 80.853s37.392 0.956 58.665-1.592c17.408-2.231 50.93-4.458 84.452-80.219-0.32 0.01 44.81-97.4 48.03-104.72z" fill="#539DCC"/>
					<path d="m12.609 83.377c32.236-71.941 82.842-80.852 82.842-80.852s-39.971-0.958-58.667 1.592c-17.406 2.545-50.928 4.459-84.451 80.218-4.51 10.18-48.025 104.73-48.025 104.73-31.912 71.944-82.842 80.853-82.842 80.853s37.389 0.956 58.663-1.592c17.406-2.231 50.927-4.458 84.455-80.219 0 0.01 44.8-97.4 48.024-104.72z" fill="#539DCC"/>
					<path d="m444.21 32.126c3.875 0 7.098 3.182 7.098 7.001v106c0 3.821-3.223 7.003-7.098 7.003-3.869 0-7.094-3.185-7.094-7.003v-105.68c0-4.142 3.22-7.324 7.09-7.324z" fill="#6B5757"/>
					<path d="m268.87 130.49c3.864 0 7.087 3.188 7.087 7.006v96.775c0 3.818-3.223 7.001-7.087 7.001-3.874 0-7.098-3.185-7.098-7.001v-96.775c0-3.83 3.23-7.01 7.1-7.01z" fill="#6B5757"/>
					<path d="m400.38 5.388c3.865 0 7.087 3.188 7.087 7.006v210.1c0 3.816-3.222 6.998-7.087 6.998-3.868 0-7.091-3.179-7.091-6.998v-210.1c0-3.817 3.22-7.002 7.09-7.002z" fill="#6B5757"/>
					<path d="m312.7 53.136c3.872 0 7.095 3.182 7.095 7.003v200.22c0 3.824-3.223 7.009-7.095 7.009-3.866 0-7.09-3.188-7.09-7.009v-199.9c0-4.142 3.22-7.324 7.09-7.324z" fill="#6B5757"/>
					<path d="m356.54 13.028c3.865 0 7.089 3.185 7.089 6.998v231.74c0 3.827-3.224 7-7.089 7-3.874 0-7.095-3.176-7.095-7v-231.74c0.01-3.818 3.23-7.002 7.1-7.002z" fill="#6B5757"/>
					<path d="m213.75 142.9c3.866 0 7.091 3.185 7.091 7.006v85.945c0 3.824-3.226 7.006-7.091 7.006-3.871 0-7.095-3.185-7.095-7.006v-85.945c-0.33-3.84 2.89-7.02 7.09-7.02z" fill="#6B5757"/>
					<path d="m38.392 17.802c3.865 0 7.094 3.189 7.094 7.003v116.83c0 3.811-3.229 6.995-7.094 6.995-3.864 0-7.088-3.185-7.088-6.995v-116.84c0-3.81 3.224-6.998 7.088-6.998z" fill="#6B5757"/>
					<path d="m169.91 50.588c3.87 0 7.096 3.188 7.096 7.009v197.36c0 3.815-3.227 6.997-7.096 6.997-3.867 0-7.089-3.185-7.089-6.997v-197.36c-0.32-3.824 2.9-7.012 7.09-7.012z" fill="#6B5757"/>
					<path d="m-273.62 142.9c3.866 0 7.092 3.185 7.092 7.006v85.945c0 3.824-3.227 7.006-7.092 7.006-3.871 0-7.093-3.185-7.093-7.006v-85.945c-0.01-3.84 3.22-7.02 7.09-7.02z" fill="#6B5757"/>
					<path d="m-317.46 50.588c3.871 0 7.091 3.188 7.091 7.009v197.36c0 3.815-3.22 6.997-7.091 6.997-3.867 0-7.089-3.185-7.089-6.997v-197.36c0-3.824 3.22-7.012 7.09-7.012z" fill="#6B5757"/>
					<path d="m82.231 5.388c3.875 0 7.098 3.188 7.098 7.006v226.96c0 3.821-3.223 7.006-7.098 7.006-3.867 0-7.089-3.185-7.089-7.006v-226.96c0-3.817 3.222-7.002 7.089-7.002z" fill="#6B5757"/>
					<rect y="24.805" x="121.56" height="239.06" width="14.507" fill="#6B5757"/>
					<path d="m-41.541 32.126c3.863 0 7.085 3.182 7.085 7.001v104.41c0 3.821-3.223 7.006-7.085 7.006-3.87 0-7.094-3.185-7.094-7.006v-104.09c0-4.142 3.224-7.324 7.094-7.324z" fill="#6B5757"/>
					<path d="m-216.57 130.49c3.862 0 7.088 3.188 7.088 7.006v96.775c0 3.818-3.226 7.001-7.088 7.001-3.87 0-7.094-3.185-7.094-7.001v-96.775c-0.33-3.83 2.9-7.01 7.09-7.01z" fill="#6B5757"/>
					<path d="m-85.381 5.388c3.868 0 7.091 3.188 7.091 7.006v210.1c0 3.816-3.223 6.998-7.091 6.998s-7.089-3.179-7.089-6.998v-210.1c-0.001-3.817 3.221-7.002 7.089-7.002z" fill="#6B5757"/>
					<path d="m-173.06 53.136c3.869 0 7.088 3.182 7.088 7.003v200.22c0 3.824-3.219 7.009-7.088 7.009-3.868 0-7.094-3.188-7.094-7.009v-199.9c0-4.142 3.23-7.324 7.09-7.324z" fill="#6B5757"/>
					<path d="m-129.22 13.028c3.868 0 7.094 3.185 7.094 6.998v231.74c0 3.827-3.226 7-7.094 7s-7.092-3.176-7.092-7v-231.74c0-3.818 3.22-7.002 7.09-7.002z" fill="#6B5757"/>
					<path d="m80.942 189.06c31.912 71.945 82.841 80.854 82.841 80.854s-39.003 0.955-58.663-1.59c-17.411-2.551-50.93-4.458-84.449-80.222-4.514-10.18-48.03-104.72-48.03-104.72-31.91-71.95-82.841-80.855-82.841-80.855s40.293-0.961 58.665 1.59c17.406 2.547 50.928 4.458 84.453 80.219 0 0.315 44.808 97.406 48.024 104.73z" fill="#BAD6EA"/>
					<path d="m253.72 189.06c31.902 71.945 82.835 80.854 82.835 80.854s-39.006 0.955-58.662-1.59c-17.406-2.551-50.928-4.458-84.453-80.222-4.513-10.185-48.032-104.73-48.032-104.73-31.92-71.94-82.852-80.845-82.852-80.845s40.289-0.961 58.664 1.59c17.409 2.547 50.931 4.458 84.454 80.219-0.32 0.315 44.82 97.406 48.04 104.73z" fill="#BAD6EA"/>
					<path d="m-232.05 189.06c31.91 71.945 82.841 80.854 82.841 80.854s-38.999 0.955-58.662-1.59c-17.407-2.551-50.925-4.458-84.452-80.222-4.515-10.185-48.029-104.73-48.029-104.73-31.909-71.945-82.84-80.851-82.84-80.851s40.293-0.961 58.667 1.59c17.405 2.547 50.927 4.458 84.452 80.219-0.32 0.321 44.8 97.412 48.02 104.73z" fill="#BAD6EA"/>
					<path d="m519.32 17.802c3.867 0 7.089 3.189 7.089 7.003v116.83c0 3.811-3.223 6.995-7.089 6.995-3.864 0-7.09-3.185-7.09-6.995v-116.84c0-3.81 3.22-6.998 7.09-6.998z" fill="#6B5757"/>
					<path d="m561.87 189.06c31.917 71.945 82.842 80.854 82.842 80.854s-39 0.955-58.665-1.59c-17.407-2.551-50.925-4.458-84.45-80.222-4.513-10.185-48.029-104.73-48.029-104.73-31.91-71.945-82.84-80.851-82.84-80.851s40.296-0.961 58.667 1.59c17.403 2.547 50.926 4.458 84.449 80.219 0 0.321 44.8 97.412 48.03 104.73z" fill="#BAD6EA"/>
					<path d="m1768.7 83.377c31.916-71.941 82.845-80.853 82.845-80.853s-39.97-0.958-58.668 1.592c-17.402 2.545-50.923 4.774-84.447 80.535-4.524 10.185-48.036 104.73-48.036 104.73-32.235 71.623-82.835 80.534-82.835 80.534s37.387 0.956 58.661-1.592c17.411-2.232 50.932-4.458 84.452-80.219-0.5 0.01 44.3-97.4 47.9-104.72z" fill="#539DCC"/>
					<path d="m1941.1 83.377c31.919-71.941 82.848-80.853 82.848-80.853s-39.974-0.958-58.67 1.592c-17.083 2.545-50.606 4.774-84.129 80.535-4.51 10.185-48.024 104.73-48.024 104.73-32.242 71.623-83.169 80.534-83.169 80.534s37.397 0.956 58.669-1.592c17.407-2.232 50.928-4.458 84.45-80.219 0.1 0.01 44.9-97.4 48.1-104.72z" fill="#539DCC"/>
					<path d="m1887 32.126c3.872 0 7.095 3.182 7.095 7.001v106c0 3.821-3.223 7.003-7.095 7.003-3.87 0-7.098-3.185-7.098-7.003v-105.68c0-4.142 3.2-7.324 7.1-7.324z" fill="#6B5757"/>
					<path d="m1711.6 130.49c3.869 0 7.09 3.188 7.09 7.006v96.775c0 3.818-3.221 7.001-7.09 7.001-3.872 0-7.1-3.185-7.1-7.001v-96.775c0-3.83 3.3-7.01 7.1-7.01z" fill="#6B5757"/>
					<path d="m1843.1 5.388c3.867 0 7.092 3.188 7.092 7.006v210.1c0 3.816-3.225 6.998-7.092 6.998-3.865 0-7.091-3.179-7.091-6.998v-210.1c0.1-3.817 3.3-7.002 7.1-7.002z" fill="#6B5757"/>
					<path d="m1755.5 53.136c3.87 0 7.099 3.182 7.099 7.003v200.22c0 3.824-3.229 7.009-7.099 7.009-3.863 0-7.089-3.188-7.089-7.009v-199.9c0-4.142 3.2-7.324 7.1-7.324z" fill="#6B5757"/>
					<path d="m1799.3 13.028c3.87 0 7.091 3.185 7.091 6.998v231.74c0 3.827-3.221 7-7.091 7-3.871 0-7.091-3.176-7.091-7v-231.74c0-3.818 3.2-7.002 7.1-7.002z" fill="#6B5757"/>
					<path d="m2004.6 189.06c31.917 71.945 82.839 80.854 82.839 80.854s-39 0.955-58.663-1.59c-17.402-2.551-50.923-4.458-84.446-80.222-4.516-10.185-48.031-104.73-48.031-104.73-31.907-71.945-82.842-80.851-82.842-80.851s40.298-0.961 58.67 1.59c17.406 2.547 50.924 4.458 84.451 80.219-0.1 0.321 44.7 97.412 47.9 104.73z" fill="#BAD6EA"/>
					<path d="m1656.5 142.9c3.862 0 7.088 3.185 7.088 7.006v85.945c0 3.824-3.227 7.006-7.088 7.006-3.872 0-7.095-3.185-7.095-7.006v-85.945c-0.3-3.84 2.9-7.02 7.1-7.02z" fill="#6B5757"/>
					<path d="m1612.7 50.588c3.871 0 7.097 3.188 7.097 7.009v197.36c0 3.815-3.226 6.997-7.097 6.997-3.868 0-7.092-3.185-7.092-6.997v-197.36c-0.3-3.824 2.9-7.012 7.1-7.012z" fill="#6B5757"/>
					<path d="m1525 5.388c3.871 0 7.097 3.188 7.097 7.006v226.96c0 3.821-3.226 7.006-7.097 7.006-3.868 0-7.091-3.185-7.091-7.006v-226.96c0-3.817 3.2-7.002 7.1-7.002z" fill="#6B5757"/>
					<rect y="24.805" x="1564.3" height="239.06" width="14.509" fill="#6B5757"/>
					<path d="m1696.5 189.06c31.906 71.945 82.838 80.854 82.838 80.854s-39.002 0.955-58.663-1.59c-17.408-2.551-50.928-4.458-84.452-80.222-4.516-10.185-48.031-104.73-48.031-104.73-31.91-71.945-82.84-80.851-82.84-80.851s40.286-0.961 58.66 1.59c17.41 2.547 50.933 4.458 84.456 80.219-0.4 0.321 44.8 97.412 48 104.73z" fill="#BAD6EA"/>
					<path d="m1287.8 83.377c31.908-71.941 82.842-80.853 82.842-80.853s-39.969-0.958-58.668 1.592c-17.402 2.545-50.923 4.774-84.448 80.535-4.52 10.185-48.032 104.73-48.032 104.73-32.234 71.623-82.84 80.534-82.84 80.534s37.395 0.956 58.664-1.592c17.41-2.232 50.932-4.458 84.455-80.219-0.5 0.01 44.3-97.4 47.9-104.72z" fill="#539DCC"/>
					<path d="m1460.2 83.377c31.916-71.941 82.84-80.853 82.84-80.853s-39.971-0.958-58.667 1.592c-17.079 2.545-50.601 4.774-84.128 80.535-4.506 10.185-48.021 104.73-48.021 104.73-32.242 71.623-83.171 80.534-83.171 80.534s37.397 0.956 58.669-1.592c17.407-2.232 50.925-4.458 84.451-80.219 0 0.01 44.8-97.4 48-104.72z" fill="#539DCC"/>
					<path d="m1406.1 32.126c3.874 0 7.098 3.182 7.098 7.001v106c0 3.821-3.224 7.003-7.098 7.003-3.868 0-7.092-3.185-7.092-7.003v-105.68c0-4.142 3.2-7.324 7.1-7.324z" fill="#6B5757"/>
					<path d="m1230.7 130.49c3.869 0 7.089 3.188 7.089 7.006v96.775c0 3.818-3.22 7.001-7.089 7.001-3.87 0-7.096-3.185-7.096-7.001v-96.775c0-3.83 3.2-7.01 7.1-7.01z" fill="#6B5757"/>
					<path d="m1362.2 5.388c3.866 0 7.092 3.188 7.092 7.006v210.1c0 3.816-3.226 6.998-7.092 6.998-3.865 0-7.086-3.179-7.086-6.998v-210.1c0-3.817 3.3-7.002 7.1-7.002z" fill="#6B5757"/>
					<path d="m1274.5 53.136c3.871 0 7.098 3.182 7.098 7.003v200.22c0 3.824-3.227 7.009-7.098 7.009-3.865 0-7.091-3.188-7.091-7.009v-199.9c0.1-4.142 3.3-7.324 7.1-7.324z" fill="#6B5757"/>
					<path d="m1318.4 13.028c3.865 0 7.085 3.185 7.085 6.998v231.74c0 3.827-3.22 7-7.085 7-3.871 0-7.097-3.176-7.097-7v-231.74c0-3.818 3.2-7.002 7.1-7.002z" fill="#6B5757"/>
					<path d="m1175.6 142.9c3.865 0 7.093 3.185 7.093 7.006v85.945c0 3.824-3.228 7.006-7.093 7.006-3.87 0-7.095-3.185-7.095-7.006v-85.945c-0.3-3.84 2.9-7.02 7.1-7.02z" fill="#6B5757"/>
					<path d="m1000.2 17.802c3.871 0 7.091 3.189 7.091 7.003v116.83c0 3.811-3.22 6.995-7.091 6.995-3.862 0-7.09-3.185-7.09-6.995v-116.84c0.04-3.81 3.27-6.998 7.09-6.998z" fill="#6B5757"/>
					<path d="m1131.8 50.588c3.868 0 7.098 3.188 7.098 7.009v197.36c0 3.815-3.229 6.997-7.098 6.997s-7.089-3.185-7.089-6.997v-197.36c-0.4-3.824 2.9-7.012 7.1-7.012z" fill="#6B5757"/>
					<path d="m1044.1 5.388c3.87 0 7.095 3.188 7.095 7.006v226.96c0 3.821-3.225 7.006-7.095 7.006-3.868 0-7.089-3.185-7.089-7.006v-226.96c0-3.817 3.2-7.002 7.1-7.002z" fill="#6B5757"/>
					<rect y="24.805" x="1083.4" height="239.06" width="14.505" fill="#6B5757"/>
					<path d="m1215.6 189.06c31.902 71.945 82.839 80.854 82.839 80.854s-39.004 0.955-58.66-1.59c-17.413-2.551-50.93-4.458-84.455-80.222-4.516-10.185-48.037-104.73-48.037-104.73-31.901-71.945-82.834-80.851-82.834-80.851s40.287-0.961 58.656 1.59c17.413 2.547 50.939 4.458 84.46 80.219-0.4 0.321 44.7 97.412 48 104.73z" fill="#BAD6EA"/>
					<path d="m1481.2 17.802c3.868 0 7.091 3.189 7.091 7.003v116.83c0 3.811-3.223 6.995-7.091 6.995-3.865 0-7.086-3.185-7.086-6.995v-116.84c0-3.81 3.2-6.998 7.1-6.998z" fill="#6B5757"/>
					<path d="m1523.7 189.06c31.917 71.945 82.84 80.854 82.84 80.854s-39.001 0.955-58.664-1.59c-17.403-2.551-50.926-4.458-84.452-80.222-4.515-10.185-48.022-104.73-48.022-104.73-31.91-71.945-82.845-80.851-82.845-80.851s40.298-0.961 58.667 1.59c17.406 2.547 50.929 4.458 84.452 80.219 0 0.321 44.8 97.412 48 104.73z" fill="#BAD6EA"/>
					<path d="m1042.8 189.06c31.919 71.945 82.846 80.854 82.846 80.854s-39.001 0.955-58.668-1.59c-17.402-2.551-50.923-4.458-84.448-80.222-4.517-10.185-48.028-104.73-48.028-104.73-31.84-71.94-82.78-80.845-82.78-80.845s40.297-0.961 58.668 1.59c17.405 2.547 50.925 4.458 84.45 80.219 0 0.315 44.84 97.406 48.04 104.73z" fill="#BAD6EA"/>
				</g>
</svg>
