<?xml version="1.0" encoding="utf-8"?>
<!-- Generator: Adobe Illustrator 18.1.1, SVG Export Plug-In . SVG Version: 6.00 Build 0)  -->
<svg version="1.1" id="Layer_1" xmlns="http://www.w3.org/2000/svg" xmlns:xlink="http://www.w3.org/1999/xlink" x="0px" y="0px"
	 viewBox="290.4 95.8 377.9 369" enable-background="new 290.4 95.8 377.9 369" xml:space="preserve">
<path id="White_2_" fill="#3F3F3F" d="M644.1,95.8H315.9c-11.3,0-20.5,9.1-20.5,20.3v328.3c0,11.2,9.1,20.3,20.3,20.3h176.7V321.9
	h-48.1v-55.7h48.1v-41.1c0-47.7,29.2-73.6,71.6-73.6c20.3,0,37.9,1.5,43,2.2v49.8h-29.5c-23.1,0-27.7,10.9-27.7,27.1v35.5h55.2
	l-7.2,55.7h-48v143h94c11.2,0,20.3-9.1,20.3-20.3V116.1C664.5,104.9,655.3,95.8,644.1,95.8z"/>
</svg>
