<?xml version="1.0" encoding="UTF-8" standalone="no"?>
<!-- Generator: Adobe Illustrator 22.0.1, SVG Export Plug-In . SVG Version: 6.00 Build 0)  -->
<svg id="Capa_1" style="enable-background:new 0 0 360 207.3" xmlns="http://www.w3.org/2000/svg" xml:space="preserve" viewBox="0 0 360 207.3" version="1.1" y="0px" x="0px" xmlns:xlink="http://www.w3.org/1999/xlink">
<style type="text/css">
	.st0{fill:#23A8E0;}
	.st1{fill:#231F20;}
	.st2{fill:none;}
</style>
			<path d="m56.4 54.6v54.3c0 6.2-0.2 10.5-0.7 13s-1.9 5-4.2 7.7c-2.3 2.6-5.3 4.6-9.1 6s-8.2 2-13.3 2c-5.7 0-10.7-0.8-15-2.4s-7.6-3.7-9.7-6.3-3.4-5.3-3.8-8.1c-0.4-2.9-0.6-8.9-0.6-18v-48h24.6v60.9c0 3.5 0.2 5.8 0.7 6.8 0.4 1 1.4 1.5 2.7 1.5 1.6 0 2.6-0.5 3-1.6s0.7-3.6 0.7-7.7v-60.1h24.7z"/>
			<path d="m110.5 90.5h-21v-3.6c0-3.1-0.2-5-0.6-5.8s-1.4-1.2-3.1-1.2c-1.3 0-2.3 0.4-3 1.1s-1 1.9-1 3.4c0 2 0.2 3.5 0.5 4.5s1.3 2 3 3.1 5.1 2.8 10.2 5c6.9 2.9 11.4 5.6 13.5 8.1s3.2 6.2 3.2 11.1c0 5.4-0.8 9.5-2.5 12.3-1.6 2.8-4.4 4.9-8.2 6.4s-8.5 2.2-13.9 2.2c-6 0-11.2-0.8-15.4-2.4-4.3-1.6-7.2-3.8-8.8-6.5s-2.4-6.9-2.4-12.4v-3.2h21v4.2c0 3.6 0.3 5.9 0.8 7s1.6 1.6 3.1 1.6c1.7 0 2.8-0.4 3.5-1.1s1-2.2 1-4.5c0-3.2-0.4-5.2-1.3-6s-5.5-3.2-13.8-7.1c-6.9-3.3-11.2-6.4-12.7-9.1s-2.3-6-2.3-9.7c0-5.3 0.8-9.2 2.5-11.8 1.6-2.5 4.4-4.5 8.3-5.8 3.9-1.4 8.5-2.1 13.7-2.1s9.5 0.6 13.1 1.7 6.4 2.6 8.3 4.4 3.1 3.5 3.5 5.1 0.6 4 0.6 7.4v3.7z"/>
			<path d="m238.6 54.6v16.2h-14.6v64.9h-24.6v-64.8h-14.6v-16.3h53.8z"/>
			<path d="m297.5 102.1c0 8.2-0.2 13.9-0.7 17.3-0.4 3.4-1.9 6.5-4.2 9.3-2.4 2.8-5.6 5-9.6 6.5s-8.7 2.3-14 2.3c-5.1 0-9.6-0.7-13.7-2.1-4-1.4-7.3-3.5-9.7-6.4-2.5-2.8-3.9-5.9-4.4-9.3-0.5-3.3-0.7-9.2-0.7-17.5v-13.9c0-8.2 0.2-13.9 0.7-17.3 0.4-3.4 1.9-6.5 4.2-9.3 2.4-2.8 5.6-5 9.6-6.5s8.7-2.3 14.1-2.3c5.1 0 9.6 0.7 13.7 2.1 4 1.4 7.3 3.6 9.7 6.4 2.5 2.8 3.9 5.9 4.4 9.3 0.5 3.3 0.7 9.2 0.7 17.6v13.8zm-24.7-26.6c0-3.8-0.2-6.2-0.7-7.2-0.5-1.1-1.5-1.6-3-1.6-1.3 0-2.3 0.4-3 1.3-0.7 0.8-1 3.4-1 7.5v37.9c0 4.7 0.2 7.6 0.7 8.7 0.4 1.1 1.5 1.7 3.1 1.7 1.7 0 2.8-0.6 3.2-1.9 0.5-1.3 0.7-4.3 0.7-9.1v-37.3z"/>
			<path d="m360 102.1c0 8.2-0.2 13.9-0.7 17.3s-1.9 6.5-4.2 9.3c-2.4 2.8-5.6 5-9.6 6.5s-8.7 2.3-14.1 2.3c-5.1 0-9.6-0.7-13.7-2.1-4-1.4-7.3-3.5-9.7-6.4-2.5-2.8-3.9-5.9-4.4-9.3-0.5-3.3-0.7-9.2-0.7-17.5v-13.9c0-8.2 0.2-13.9 0.7-17.3 0.4-3.4 1.9-6.5 4.2-9.3 2.4-2.8 5.5-5 9.6-6.5 4-1.5 8.7-2.3 14-2.3 5.1 0 9.6 0.7 13.7 2.1 4 1.4 7.3 3.6 9.7 6.4 2.5 2.8 3.9 5.9 4.4 9.3 0.5 3.3 0.7 9.2 0.7 17.6v13.8zm-24.6-26.6c0-3.8-0.2-6.2-0.7-7.2-0.5-1.1-1.5-1.6-3-1.6-1.3 0-2.3 0.4-3 1.3-0.7 0.8-1 3.4-1 7.5v37.9c0 4.7 0.2 7.6 0.7 8.7 0.4 1.1 1.5 1.7 3.1 1.7 1.7 0 2.8-0.6 3.2-1.9 0.5-1.3 0.7-4.3 0.7-9.1v-37.3z"/>
			<path class="st0" d="m172.2 75.4c-1.5 4.4-3.9 8.6-6.4 12.6-6.1 9.9-14.2 18.4-22.6 26.4-13 12.3-27.9 23.9-43.9 32.1-4.8 2.5 4 10.4 0 14.2 21.7-11 41.8-28 57.6-46.4 14.6-17.1 25.6-42.1 15.7-64.4-6.5-14.7-21.9-18.9-34.8-9.5s-16.1 26.7-16 41.6c0.1 33.1 27.4 54.4 55.4 66.8-2.7-3.1 3.7-12.4 0-14.2-21.9-9.8-45.7-25.6-53-49.7-4-13.3 9.2-29.5 20.6-34.5 12.1-5.3 25.9 2.3 28 14.3 0.7 3.8 0.4 7.9-0.6 10.7z"/>
		<path class="st0" d="m200 154.3v-15h4.9c1.8 0 3 0.1 3.6 0.2 0.9 0.2 1.6 0.7 2.2 1.5s0.9 1.7 0.9 2.9c0 0.9-0.2 1.7-0.5 2.3s-0.8 1.1-1.3 1.5-1 0.6-1.6 0.7c-0.7 0.1-1.8 0.2-3.1 0.2h-2v5.7h-3.1zm3.1-12.5v4.3h1.7c1.2 0 2-0.1 2.4-0.2s0.7-0.4 0.9-0.7c0.2-0.3 0.3-0.7 0.3-1.2s-0.2-1-0.5-1.4-0.7-0.6-1.2-0.7c-0.4-0.1-1.1-0.1-2.2-0.1h-1.4z"/>
		<path class="st0" d="m216.8 154.3h-2.9v-10.9h2.7v1.5c0.5-0.7 0.9-1.2 1.2-1.4 0.4-0.2 0.8-0.3 1.2-0.3 0.7 0 1.3 0.2 1.9 0.5l-0.9 2.5c-0.5-0.3-0.9-0.5-1.4-0.5-0.4 0-0.7 0.1-1 0.3s-0.5 0.6-0.7 1.2-0.2 1.8-0.2 3.7v3.4z"/>
		<path class="st0" d="m221.5 148.7c0-1 0.2-1.9 0.7-2.8s1.1-1.6 2-2.1 1.8-0.7 2.9-0.7c1.6 0 3 0.5 4.1 1.6s1.6 2.4 1.6 4.1c0 1.6-0.5 3-1.6 4.1s-2.4 1.6-4 1.6c-1 0-2-0.2-2.9-0.7s-1.6-1.1-2.1-2c-0.5-0.8-0.7-1.9-0.7-3.1zm3 0.1c0 1.1 0.3 1.9 0.8 2.5s1.1 0.9 1.9 0.9 1.4-0.3 1.9-0.9c0.5-0.6 0.8-1.4 0.8-2.5s-0.3-1.9-0.8-2.5-1.1-0.9-1.9-0.9-1.4 0.3-1.9 0.9c-0.6 0.6-0.8 1.4-0.8 2.5z"/>
		<path class="st0" d="m234 151.2l2.9-0.4c0.1 0.6 0.4 1 0.7 1.3 0.4 0.3 0.9 0.4 1.6 0.4s1.3-0.1 1.7-0.4c0.3-0.2 0.4-0.4 0.4-0.8 0-0.2-0.1-0.4-0.2-0.5s-0.5-0.3-1-0.4c-2.3-0.5-3.8-1-4.4-1.4-0.9-0.6-1.3-1.4-1.3-2.5 0-0.9 0.4-1.7 1.1-2.4s1.9-1 3.5-1c1.5 0 2.6 0.2 3.3 0.7s1.2 1.2 1.5 2.2l-2.7 0.5c-0.1-0.4-0.3-0.7-0.7-1-0.3-0.2-0.8-0.3-1.4-0.3-0.8 0-1.3 0.1-1.6 0.3-0.2 0.2-0.3 0.3-0.3 0.6 0 0.2 0.1 0.4 0.3 0.5 0.3 0.2 1.2 0.5 2.7 0.8s2.6 0.8 3.2 1.3 0.9 1.2 0.9 2.1c0 1-0.4 1.9-1.3 2.6-0.8 0.7-2.1 1.1-3.7 1.1-1.5 0-2.7-0.3-3.5-0.9-0.9-0.6-1.4-1.4-1.7-2.4z"/>
		<path class="st0" d="m251.7 143.4v2.3h-2v4.4c0 0.9 0 1.4 0.1 1.6 0 0.1 0.1 0.3 0.3 0.4 0.1 0.1 0.3 0.1 0.5 0.1 0.3 0 0.7-0.1 1.2-0.3l0.2 2.2c-0.7 0.3-1.4 0.4-2.3 0.4-0.5 0-1-0.1-1.4-0.3s-0.7-0.4-0.9-0.7-0.3-0.7-0.4-1.1c-0.1-0.3-0.1-1-0.1-2v-4.7h-1.3v-2.3h1.3v-2.2l2.9-1.7v3.8h1.9z"/>
		<path class="st0" d="m255.8 146.7l-2.6-0.5c0.3-1.1 0.8-1.8 1.5-2.3s1.8-0.8 3.2-0.8c1.3 0 2.2 0.2 2.9 0.5 0.6 0.3 1.1 0.7 1.3 1.2 0.3 0.5 0.4 1.3 0.4 2.6v3.4c0 1 0 1.7 0.1 2.1 0.1 0.5 0.3 0.9 0.5 1.5h-2.9c-0.1-0.2-0.2-0.5-0.3-0.9 0-0.2-0.1-0.3-0.1-0.3-0.5 0.5-1 0.8-1.6 1.1-0.6 0.2-1.2 0.4-1.8 0.4-1.1 0-2-0.3-2.7-0.9-0.6-0.6-1-1.4-1-2.3 0-0.6 0.1-1.2 0.4-1.6 0.3-0.5 0.7-0.9 1.2-1.1 0.5-0.3 1.3-0.5 2.3-0.7 1.3-0.3 2.3-0.5 2.8-0.7v-0.3c0-0.6-0.1-0.9-0.4-1.2-0.3-0.2-0.8-0.4-1.5-0.4-0.5 0-0.9 0.1-1.2 0.3-0.1 0-0.3 0.4-0.5 0.9zm3.9 2.3c-0.4 0.1-1 0.3-1.8 0.4-0.8 0.2-1.3 0.3-1.6 0.5-0.4 0.3-0.6 0.6-0.6 1s0.2 0.8 0.5 1 0.7 0.4 1.1 0.4c0.5 0 1-0.2 1.5-0.5 0.3-0.3 0.6-0.6 0.7-1 0.1-0.2 0.1-0.7 0.1-1.4v-0.4z"/>
		<path class="st0" d="m270.4 143.4v2.3h-2v4.4c0 0.9 0 1.4 0.1 1.6 0 0.1 0.1 0.3 0.3 0.4 0.1 0.1 0.3 0.1 0.5 0.1 0.3 0 0.7-0.1 1.2-0.3l0.2 2.2c-0.7 0.3-1.4 0.4-2.3 0.4-0.5 0-1-0.1-1.4-0.3s-0.7-0.4-0.9-0.7-0.3-0.7-0.4-1.1c-0.1-0.3-0.1-1-0.1-2v-4.7h-1.3v-2.3h1.3v-2.2l2.9-1.7v3.8h1.9z"/>
		<path class="st0" d="m278.7 150.8l2.9 0.5c-0.4 1.1-1 1.9-1.7 2.4-0.8 0.5-1.8 0.8-3 0.8-1.9 0-3.3-0.6-4.2-1.9-0.7-1-1.1-2.2-1.1-3.8 0-1.8 0.5-3.2 1.4-4.2s2.1-1.5 3.6-1.5c1.6 0 2.9 0.5 3.8 1.6s1.4 2.7 1.3 4.9h-7.2c0 0.9 0.3 1.5 0.7 2s1 0.7 1.7 0.7c0.5 0 0.8-0.1 1.1-0.4s0.5-0.6 0.7-1.1zm0.1-2.9c0-0.8-0.2-1.5-0.6-1.9s-0.9-0.7-1.5-0.7-1.1 0.2-1.6 0.7-0.6 1.1-0.6 1.9h4.3z"/>
		<path class="st0" d="m299.5 148.7l2.9 0.9c-0.5 1.6-1.2 2.9-2.3 3.7-1 0.8-2.4 1.2-4 1.2-2 0-3.6-0.7-4.9-2-1.3-1.4-1.9-3.2-1.9-5.6 0-2.5 0.6-4.4 1.9-5.8s3-2.1 5.1-2.1c1.8 0 3.3 0.5 4.5 1.6 0.7 0.6 1.2 1.6 1.5 2.8l-3 0.7c-0.2-0.8-0.5-1.4-1.1-1.8-0.6-0.5-1.2-0.7-2.1-0.7-1.1 0-2 0.4-2.7 1.2s-1 2.1-1 3.9c0 1.9 0.3 3.3 1 4.1s1.6 1.2 2.7 1.2c0.8 0 1.5-0.3 2.1-0.8 0.6-0.6 1.1-1.4 1.3-2.5z"/>
		<path class="st0" d="m307.2 146.7l-2.6-0.5c0.3-1.1 0.8-1.8 1.5-2.3s1.8-0.8 3.2-0.8c1.3 0 2.2 0.2 2.9 0.5 0.6 0.3 1.1 0.7 1.3 1.2 0.3 0.5 0.4 1.3 0.4 2.6v3.4c0 1 0 1.7 0.1 2.1 0.1 0.5 0.3 0.9 0.5 1.5h-2.9c-0.1-0.2-0.2-0.5-0.3-0.9 0-0.2-0.1-0.3-0.1-0.3-0.5 0.5-1 0.8-1.6 1.1-0.6 0.2-1.2 0.4-1.8 0.4-1.1 0-2-0.3-2.7-0.9-0.6-0.6-1-1.4-1-2.3 0-0.6 0.1-1.2 0.4-1.6 0.3-0.5 0.7-0.9 1.2-1.1 0.5-0.3 1.3-0.5 2.3-0.7 1.3-0.3 2.3-0.5 2.8-0.7v-0.3c0-0.6-0.1-0.9-0.4-1.2-0.3-0.2-0.8-0.4-1.5-0.4-0.5 0-0.9 0.1-1.2 0.3-0.1 0-0.3 0.4-0.5 0.9zm3.8 2.3c-0.4 0.1-1 0.3-1.8 0.4-0.8 0.2-1.3 0.3-1.6 0.5-0.4 0.3-0.6 0.6-0.6 1s0.2 0.8 0.5 1 0.7 0.4 1.1 0.4c0.5 0 1-0.2 1.5-0.5 0.3-0.3 0.6-0.6 0.7-1 0.1-0.2 0.1-0.7 0.1-1.4v-0.4z"/>
		<path class="st0" d="m326.6 154.3h-2.9v-5.6c0-1.2-0.1-1.9-0.2-2.3-0.1-0.3-0.3-0.6-0.6-0.8s-0.6-0.3-1-0.3c-0.5 0-0.9 0.1-1.3 0.4s-0.7 0.6-0.8 1.1-0.2 1.3-0.2 2.5v4.9h-2.9v-10.9h2.7v1.6c1-1.2 2.1-1.8 3.6-1.8 0.6 0 1.2 0.1 1.7 0.3s0.9 0.5 1.2 0.9 0.5 0.8 0.6 1.2c0.1 0.5 0.2 1.1 0.2 1.9v6.9z"/>
		<path class="st0" d="m339 146.6l-2.8 0.5c-0.1-0.6-0.3-1-0.7-1.3-0.3-0.3-0.8-0.4-1.3-0.4-0.7 0-1.3 0.2-1.7 0.7s-0.6 1.3-0.6 2.5c0 1.3 0.2 2.2 0.7 2.7 0.4 0.5 1 0.8 1.7 0.8 0.5 0 1-0.2 1.3-0.5s0.6-0.8 0.7-1.6l2.8 0.5c-0.3 1.3-0.9 2.3-1.7 2.9s-2 1-3.4 1c-1.6 0-2.9-0.5-3.8-1.5s-1.4-2.4-1.4-4.2 0.5-3.2 1.4-4.2c1-1 2.2-1.5 3.9-1.5 1.3 0 2.4 0.3 3.2 0.9 0.8 0.7 1.4 1.5 1.7 2.7z"/>
		<path class="st0" d="m347.5 150.8l2.9 0.5c-0.4 1.1-1 1.9-1.7 2.4-0.8 0.5-1.8 0.8-3 0.8-1.9 0-3.3-0.6-4.2-1.9-0.7-1-1.1-2.2-1.1-3.8 0-1.8 0.5-3.2 1.4-4.2s2.1-1.5 3.6-1.5c1.6 0 2.9 0.5 3.8 1.6s1.4 2.7 1.3 4.9h-7.2c0 0.9 0.3 1.5 0.7 2s1 0.7 1.7 0.7c0.5 0 0.8-0.1 1.1-0.4s0.6-0.6 0.7-1.1zm0.2-2.9c0-0.8-0.2-1.5-0.6-1.9s-0.9-0.7-1.5-0.7-1.1 0.2-1.6 0.7-0.6 1.1-0.6 1.9h4.3z"/>
		<path class="st0" d="m355.7 154.3h-2.9v-10.9h2.7v1.5c0.5-0.7 0.9-1.2 1.2-1.4 0.4-0.2 0.8-0.3 1.2-0.3 0.7 0 1.3 0.2 1.9 0.5l-0.9 2.5c-0.5-0.3-0.9-0.5-1.4-0.5-0.4 0-0.7 0.1-1 0.3s-0.5 0.6-0.7 1.2-0.2 1.8-0.2 3.7v3.4z"/>
		<path class="st1" d="m2.8 175.7l4.1-0.3c0.1 0.7 0.3 1.2 0.5 1.5 0.4 0.6 1.1 0.8 1.9 0.8 0.6 0 1.1-0.1 1.4-0.4s0.5-0.6 0.5-1-0.2-0.7-0.5-1-1.1-0.6-2.2-0.8c-1.9-0.4-3.2-1-4-1.7s-1.2-1.6-1.2-2.7c0-0.7 0.2-1.4 0.6-2s1-1.1 1.9-1.5c0.8-0.4 2-0.5 3.4-0.5 1.8 0 3.1 0.3 4.1 1 0.9 0.7 1.5 1.7 1.7 3.2l-4.1 0.2c-0.1-0.6-0.3-1.1-0.7-1.4-0.3-0.3-0.8-0.4-1.4-0.4-0.5 0-0.9 0.1-1.1 0.3-0.3 0.2-0.4 0.5-0.4 0.8 0 0.2 0.1 0.4 0.3 0.6s0.7 0.4 1.4 0.5c1.9 0.4 3.2 0.8 4.1 1.2 0.8 0.4 1.4 0.9 1.8 1.5s0.6 1.3 0.6 2.1c0 0.9-0.2 1.7-0.7 2.5s-1.2 1.3-2.1 1.7-2 0.6-3.4 0.6c-2.4 0-4-0.5-4.9-1.4s-1.5-1.9-1.6-3.4z"/>
		<path class="st1" d="m26.9 166.4h1.8v8.1c0 1.4-0.2 2.5-0.5 3.3s-0.9 1.5-1.7 2c-0.8 0.5-1.9 0.8-3.3 0.8-1.3 0-2.4-0.2-3.2-0.7s-1.4-1.1-1.8-2-0.5-2-0.5-3.5v-8.1h1.8v8.1c0 1.2 0.1 2.1 0.3 2.7s0.6 1 1.2 1.3c0.5 0.3 1.2 0.5 2 0.5 1.4 0 2.3-0.3 2.9-0.9s0.9-1.8 0.9-3.6v-8z"/>
		<path class="st1" d="m31.8 180.4v-14h5.3c0.9 0 1.6 0 2.1 0.1 0.7 0.1 1.3 0.3 1.7 0.7s0.8 0.8 1.1 1.3c0.3 0.6 0.4 1.2 0.4 1.9 0 1.2-0.4 2.2-1.1 3-0.8 0.8-2.1 1.2-4.1 1.2h-3.6v5.7h-1.8zm1.9-7.4h3.6c1.2 0 2-0.2 2.5-0.7s0.8-1.1 0.8-1.9c0-0.6-0.1-1.1-0.4-1.5s-0.7-0.7-1.2-0.8c-0.3-0.1-0.9-0.1-1.7-0.1h-3.6v5z"/>
		<path class="st1" d="m44.8 180.4v-14h5.3c0.9 0 1.6 0 2.1 0.1 0.7 0.1 1.3 0.3 1.7 0.7s0.8 0.8 1.1 1.3c0.3 0.6 0.4 1.2 0.4 1.9 0 1.2-0.4 2.2-1.1 3-0.8 0.8-2.1 1.2-4.1 1.2h-3.6v5.7h-1.8zm1.9-7.4h3.6c1.2 0 2-0.2 2.5-0.7s0.8-1.1 0.8-1.9c0-0.6-0.1-1.1-0.4-1.5s-0.7-0.7-1.2-0.8c-0.3-0.1-0.9-0.1-1.7-0.1h-3.6v5z"/>
		<path class="st1" d="m57.3 173.6c0-2.3 0.6-4.1 1.9-5.4 1.2-1.3 2.9-2 4.8-2 1.3 0 2.4 0.3 3.5 0.9 1 0.6 1.8 1.5 2.4 2.6 0.5 1.1 0.8 2.4 0.8 3.7 0 1.4-0.3 2.7-0.9 3.8s-1.4 2-2.4 2.5c-1 0.6-2.2 0.9-3.4 0.9-1.3 0-2.5-0.3-3.5-1s-1.8-1.5-2.4-2.6c-0.6-1-0.8-2.2-0.8-3.4zm1.9 0c0 1.7 0.5 3 1.4 4s2 1.5 3.4 1.5 2.5-0.5 3.4-1.5 1.3-2.4 1.3-4.2c0-1.1-0.2-2.1-0.6-3-0.4-0.8-0.9-1.5-1.7-2-0.7-0.5-1.6-0.7-2.5-0.7-1.3 0-2.4 0.4-3.4 1.3-0.9 1-1.3 2.5-1.3 4.6z"/>
		<path class="st1" d="m73 180.4v-14h6.2c1.2 0 2.2 0.1 2.8 0.4s1.2 0.7 1.6 1.3 0.6 1.3 0.6 2.1c0 1-0.3 1.8-1 2.5-0.6 0.7-1.6 1.1-3 1.3 0.5 0.2 0.9 0.5 1.1 0.7 0.5 0.5 1.1 1.1 1.5 1.9l2.4 3.8h-2.2l-1.8-2.9c-0.5-0.8-1-1.5-1.3-1.9s-0.7-0.8-0.9-0.9c-0.3-0.2-0.6-0.3-0.8-0.4-0.2 0-0.6-0.1-1-0.1h-2.1v6.2h-2.1zm1.9-7.8h4c0.8 0 1.5-0.1 2-0.3s0.8-0.5 1.1-0.8 0.4-0.8 0.4-1.3c0-0.7-0.2-1.2-0.7-1.6s-1.2-0.6-2.3-0.6h-4.4v4.6z"/>
		<path class="st1" d="m90.3 180.4v-12.3h-4.6v-1.6h11.1v1.6h-4.6v12.3h-1.9z"/>
		<path class="st1" d="m103.6 176.6v-2.6h5.3v2.7h-5.3z"/>
		<path class="st1" d="m115.9 166.4h11.6v3h-7.2v2.2h6.7v2.8h-6.7v2.8h7.4v3.2h-11.8v-14z"/>
		<path class="st1" d="m130 180.4v-14h4.8c1.1 0 1.9 0.1 2.5 0.2 0.8 0.2 1.5 0.5 2 1 0.7 0.6 1.3 1.4 1.7 2.4s0.5 2.1 0.5 3.3c0 1.1-0.1 2-0.4 2.8-0.2 0.8-0.6 1.5-1 2s-0.8 1-1.3 1.3c-0.5 0.3-1 0.5-1.7 0.7s-1.4 0.2-2.2 0.2h-4.9zm1.9-1.7h3c0.9 0 1.6-0.1 2.2-0.3 0.5-0.2 0.9-0.4 1.3-0.7 0.4-0.4 0.8-1 1-1.8 0.2-0.7 0.4-1.6 0.4-2.7 0-1.5-0.2-2.6-0.7-3.4s-1.1-1.3-1.7-1.6c-0.5-0.2-1.3-0.3-2.4-0.3h-2.9v10.8z"/>
		<path class="st1" d="m153.3 166.4h1.8v8.1c0 1.4-0.2 2.5-0.5 3.3s-0.9 1.5-1.7 2c-0.8 0.5-1.9 0.8-3.3 0.8-1.3 0-2.4-0.2-3.2-0.7s-1.4-1.1-1.8-2-0.5-2-0.5-3.5v-8.1h1.8v8.1c0 1.2 0.1 2.1 0.3 2.7s0.6 1 1.2 1.3c0.5 0.3 1.2 0.5 2 0.5 1.4 0 2.3-0.3 2.9-0.9s0.9-1.8 0.9-3.6v-8z"/>
		<path class="st1" d="m168.2 175.5l1.8 0.5c-0.4 1.5-1.1 2.7-2.1 3.5s-2.2 1.2-3.7 1.2-2.7-0.3-3.7-0.9c-0.9-0.6-1.7-1.5-2.2-2.7s-0.7-2.4-0.7-3.7c0-1.5 0.3-2.7 0.8-3.8 0.6-1.1 1.3-1.9 2.4-2.5 1-0.6 2.2-0.8 3.4-0.8 1.4 0 2.6 0.4 3.5 1.1s1.6 1.7 2 3l-1.8 0.4c-0.3-1-0.8-1.8-1.4-2.2-0.6-0.5-1.4-0.7-2.3-0.7-1.1 0-2 0.3-2.7 0.8s-1.2 1.2-1.5 2.1-0.4 1.8-0.4 2.7c0 1.2 0.2 2.2 0.5 3.1s0.9 1.5 1.6 2c0.7 0.4 1.5 0.7 2.4 0.7 1 0 1.9-0.3 2.6-0.9s1.2-1.8 1.5-2.9z"/>
		<path class="st1" d="m170.8 180.4l5.4-14h2l5.7 14h-2.1l-1.6-4.2h-5.8l-1.5 4.2h-2.1zm4-5.8h4.7l-1.5-3.9c-0.4-1.2-0.8-2.1-1-2.9-0.2 0.9-0.4 1.8-0.8 2.7l-1.4 4.1z"/>
		<path class="st1" d="m187.4 180.4v-12.3h-4.6v-1.6h11.1v1.6h-4.6v12.3h-1.9z"/>
		<path class="st1" d="m196.1 180.4v-14h1.8v14h-1.8z"/>
		<path class="st1" d="m200.6 173.6c0-2.3 0.6-4.1 1.9-5.4 1.2-1.3 2.9-2 4.8-2 1.3 0 2.5 0.3 3.5 0.9s1.8 1.5 2.4 2.6c0.5 1.1 0.8 2.4 0.8 3.7 0 1.4-0.3 2.7-0.9 3.8s-1.4 2-2.4 2.5c-1 0.6-2.2 0.9-3.4 0.9-1.3 0-2.5-0.3-3.5-1-1-0.6-1.8-1.5-2.4-2.6-0.5-1-0.8-2.2-0.8-3.4zm1.9 0c0 1.7 0.5 3 1.4 4s2 1.5 3.4 1.5 2.5-0.5 3.4-1.5 1.3-2.4 1.3-4.2c0-1.1-0.2-2.1-0.6-3-0.4-0.8-0.9-1.5-1.7-2s-1.6-0.7-2.5-0.7c-1.3 0-2.4 0.4-3.4 1.3s-1.3 2.5-1.3 4.6z"/>
		<path class="st1" d="m216.3 180.4v-14h1.9l7.3 11v-11h1.8v14h-1.9l-7.3-11v11h-1.8z"/>
		<path class="st1" d="m235.4 176.6v-2.6h5.3v2.7h-5.3z"/>
		<path class="st1" d="m256.3 178.1h-4.9l-0.7 2.3h-4.4l5.2-14h4.7l5.2 14h-4.4l-0.7-2.3zm-0.9-3.1l-1.5-5-1.5 5h3z"/>
		<path class="st1" d="m262.9 180.4v-14h4.8c1.1 0 1.9 0.1 2.5 0.2 0.8 0.2 1.5 0.5 2 1 0.7 0.6 1.3 1.4 1.7 2.4s0.5 2.1 0.5 3.3c0 1.1-0.1 2-0.4 2.8-0.2 0.8-0.6 1.5-1 2s-0.8 1-1.3 1.3-1 0.5-1.7 0.7-1.4 0.2-2.2 0.2h-4.9zm1.9-1.7h3c0.9 0 1.6-0.1 2.2-0.3 0.5-0.2 0.9-0.4 1.3-0.7 0.4-0.4 0.8-1 1-1.8 0.2-0.7 0.4-1.6 0.4-2.7 0-1.5-0.2-2.6-0.7-3.4s-1.1-1.3-1.7-1.6c-0.5-0.2-1.3-0.3-2.4-0.3h-2.9v10.8z"/>
		<path class="st1" d="m281 180.4l-5.4-14h2l3.6 10.1c0.3 0.8 0.5 1.6 0.7 2.3 0.2-0.8 0.5-1.5 0.8-2.3l3.8-10.1h1.9l-5.5 14h-1.9z"/>
		<path class="st1" d="m289.5 173.6c0-2.3 0.6-4.1 1.9-5.4 1.2-1.3 2.9-2 4.8-2 1.3 0 2.5 0.3 3.5 0.9s1.8 1.5 2.4 2.6c0.5 1.1 0.8 2.4 0.8 3.7 0 1.4-0.3 2.7-0.9 3.8s-1.4 2-2.4 2.5c-1 0.6-2.2 0.9-3.4 0.9-1.3 0-2.5-0.3-3.5-1-1-0.6-1.8-1.5-2.4-2.6-0.6-1-0.8-2.2-0.8-3.4zm1.9 0c0 1.7 0.5 3 1.4 4s2 1.5 3.4 1.5 2.5-0.5 3.4-1.5 1.3-2.4 1.3-4.2c0-1.1-0.2-2.1-0.6-3-0.4-0.8-0.9-1.5-1.7-2s-1.6-0.7-2.5-0.7c-1.3 0-2.4 0.4-3.4 1.3s-1.3 2.5-1.3 4.6z"/>
		<path class="st1" d="m315.1 175.5l1.8 0.5c-0.4 1.5-1.1 2.7-2.1 3.5s-2.2 1.2-3.7 1.2-2.7-0.3-3.7-0.9c-0.9-0.6-1.7-1.5-2.2-2.7s-0.7-2.4-0.7-3.7c0-1.5 0.3-2.7 0.8-3.8 0.6-1.1 1.3-1.9 2.4-2.5 1-0.6 2.2-0.8 3.4-0.8 1.4 0 2.6 0.4 3.5 1.1s1.6 1.7 2 3l-1.8 0.4c-0.3-1-0.8-1.8-1.4-2.2-0.6-0.5-1.4-0.7-2.3-0.7-1.1 0-2 0.3-2.7 0.8s-1.2 1.2-1.5 2.1-0.4 1.8-0.4 2.7c0 1.2 0.2 2.2 0.5 3.1s0.9 1.5 1.6 2c0.7 0.4 1.5 0.7 2.4 0.7 1 0 1.9-0.3 2.6-0.9 0.8-0.9 1.3-1.8 1.5-2.9z"/>
		<path class="st1" d="m317.7 180.4l5.4-14h2l5.7 14h-2.1l-1.6-4.2h-5.8l-1.5 4.2h-2.1zm4.1-5.8h4.7l-1.5-3.9c-0.4-1.2-0.8-2.1-1-2.9-0.2 0.9-0.4 1.8-0.8 2.7l-1.4 4.1z"/>
		<path class="st1" d="m342.2 175.5l1.8 0.5c-0.4 1.5-1.1 2.7-2.1 3.5s-2.2 1.2-3.7 1.2-2.7-0.3-3.7-0.9c-0.9-0.6-1.7-1.5-2.2-2.7s-0.7-2.4-0.7-3.7c0-1.5 0.3-2.7 0.8-3.8 0.6-1.1 1.3-1.9 2.4-2.5 1-0.6 2.2-0.8 3.4-0.8 1.4 0 2.6 0.4 3.5 1.1s1.6 1.7 2 3l-1.8 0.4c-0.3-1-0.8-1.8-1.4-2.2-0.6-0.5-1.4-0.7-2.3-0.7-1.1 0-2 0.3-2.7 0.8s-1.2 1.2-1.5 2.1-0.4 1.8-0.4 2.7c0 1.2 0.2 2.2 0.5 3.1s0.9 1.5 1.6 2c0.7 0.4 1.5 0.7 2.4 0.7 1 0 1.9-0.3 2.6-0.9 0.8-0.9 1.3-1.8 1.5-2.9z"/>
		<path class="st1" d="m350.3 180.4v-5.9l-5.4-8h2.2l2.8 4.2c0.5 0.8 1 1.6 1.4 2.4 0.4-0.7 0.9-1.6 1.5-2.5l2.7-4.1h2.2l-5.6 8v5.9h-1.8z"/>
<rect width="359.8" class="st2" height="207.3"/>
</svg>
