<?xml version="1.0" encoding="UTF-8" standalone="no"?>
<!-- Generator: Adobe Illustrator 22.1.0, SVG Export Plug-In . SVG Version: 6.00 Build 0)  -->
<svg style="enable-background:new 0 0 406.2 208.1" xmlns="http://www.w3.org/2000/svg" xml:space="preserve" version="1.1" y="0px" x="0px" xmlns:xlink="http://www.w3.org/1999/xlink" viewBox="0 0 406.2 208.1">
<style type="text/css">
	.st0{fill:none;stroke:#000000;stroke-miterlimit:10;}
	.st1{display:none;}
	.st2{display:inline;}
	.st3{opacity:0.5;}
	.st4{fill:url(#SVGID_1_);}
	.st5{fill:url(#SVGID_2_);}
	.st6{fill:url(#SVGID_3_);}
	.st7{fill:url(#SVGID_4_);}
</style>
<g id="Layer_1">
	<line y1="124.6" x2="113.7" x1="373.7" y2="124.6" class="st0"/>
	<g class="st1">
		<path class="st2" d="m382.2-73.9v355h-355v-355h355m1-1h-357v357h357v-357z"/>
	</g>
		<path d="m158.3 27.5l-0.7 3.4h0.1c2.8-2.8 4.7-4 8.1-4 4.2 0 6.1 3.1 4.8 9l-3.4 15.5c-1.3 5.9-4.6 9-8.8 9-2.9 0-4.1-1.2-6.2-3.4l-2.9 13h-6.7l9.4-42.5h6.3zm-5.3 25.7c1.1 1 2.1 1.7 3.5 1.7 1.8 0 3.5-1 4.4-5.2l2.7-12c0.9-4.3-0.3-5.2-2.1-5.2-1.3 0-2.7 0.7-4.2 1.7l-4.3 19z"/>
		<path d="m170 59.8l7.2-32.3h6.4l-0.8 3.8h0.1c2.2-2.8 5.4-4.4 8.6-4.4h1.4l-1.6 7c-1.1-0.3-2.2-0.7-4.2-0.7-2.3 0-4.8 1.4-5.5 4.3l-4.9 22.2h-6.7z"/>
		<path d="m192.7 38.9c1.6-7.1 5.4-12 13.1-12s9.3 4.9 7.8 12l-2.1 9.5c-1.6 7.1-5.4 12-13.1 12s-9.3-4.9-7.8-12l2.1-9.5zm14.4-1.2c0.8-3.7-0.1-5.3-2.5-5.3s-4.1 1.6-4.9 5.3l-2.6 11.9c-0.8 3.7 0.1 5.3 2.5 5.3s4.1-1.6 4.9-5.3l2.6-11.9z"/>
		<path d="m231 36.4c0.1-2.6-0.8-4-2.9-4-1.7 0-3.1 0.9-3.5 2.6-1.1 5 11 7.1 8.9 16.7-1.3 5.8-5.9 8.7-11.3 8.7-5.9 0-8.5-3.4-8.3-9l6.2-1.6c-0.2 2.7 0.2 5.1 3.3 5.1 1.7 0 3.2-1 3.6-2.8 1.2-5.6-10.9-7.7-8.9-16.5 1.1-5.1 5.9-8.6 10.9-8.6 5.3 0 8 3.5 7.9 8.6l-5.9 0.8z"/>
		<path d="m238.7 33l1.2-5.5h3.7l1.9-8.7h6.7l-1.9 8.7h4.5l-1.2 5.5h-4.5l-4.1 18.6c-0.4 1.7 0.1 2.6 1.7 2.6h2.2l-1.3 5.8c-1 0.2-1.8 0.4-3.4 0.4-5 0-7.3-2.3-6.2-7.3l4.5-20.1h-3.8z"/>
		<path d="m254.9 37c1.8-6.5 6.7-10.1 13-10.1 6.2 0 9.1 2.9 7.8 8.8l-4.6 20.7c-0.2 1-0.3 2.3-0.3 3.4h-6.4c0.1-0.9 0.1-1.7 0.2-2.5-3 2-5.3 3.1-8.6 3.1-4.6 0-6.1-3.1-5.2-7.3 1.6-7.1 7.1-11 17.6-14.6l0.4-1.9c0.6-2.7-0.2-4.1-2.4-4.1-3.1 0-4.1 1.8-4.9 4.6h-6.6zm12.5 6.4c-6.9 3.5-8.9 5.7-9.5 8.5-0.5 2.1 0.4 2.9 2.5 2.9 1.9 0 3.7-1.4 5.2-3l1.8-8.4z"/>
		<path d="m279 33l1.2-5.5h3.7l1.9-8.7h6.7l-1.9 8.7h4.5l-1.1 5.5h-4.5l-4.1 18.6c-0.4 1.7 0.1 2.6 1.7 2.6h2.2l-1.3 5.8c-1 0.2-1.8 0.4-3.4 0.4-5 0-7.3-2.3-6.2-7.3l4.5-20.1h-3.9z"/>
		<path d="m314.7 44.9h-14.2l-1 4.7c-0.8 3.7 0.1 5.3 2.5 5.3s4.1-1.6 4.9-5.3l0.2-0.7h6.7c-1.6 6.8-5.5 11.5-13 11.5-7.7 0-9.3-4.9-7.8-12l2.1-9.5c1.6-7.1 5.4-12 13.1-12s9.3 4.9 7.8 12l-1.3 6zm-5.5-5.5l0.4-1.7c0.8-3.7-0.1-5.3-2.5-5.3s-4.1 1.6-4.9 5.3l-0.4 1.7h7.4z"/>
	<g class="st3">
			<path d="m193.2 145.8c-0.7-0.5-1.3-0.9-2-1.2s-1.3-0.4-1.9-0.4c-0.8 0-1.4 0.2-1.9 0.6s-0.7 0.9-0.7 1.5c0 0.4 0.1 0.8 0.4 1 0.2 0.3 0.6 0.5 1 0.7s0.9 0.4 1.4 0.5c0.5 0.1 1 0.3 1.5 0.5 2 0.7 3.4 1.5 4.4 2.7 0.9 1.1 1.4 2.5 1.4 4.3 0 1.2-0.2 2.3-0.6 3.3s-1 1.8-1.8 2.5-1.7 1.2-2.9 1.6c-1.1 0.4-2.4 0.6-3.8 0.6-3 0-5.7-0.9-8.2-2.6l2.6-4.9c0.9 0.8 1.8 1.4 2.7 1.8s1.8 0.6 2.6 0.6c1 0 1.7-0.2 2.2-0.7s0.7-1 0.7-1.6c0-0.4-0.1-0.7-0.2-0.9-0.1-0.3-0.3-0.5-0.6-0.7s-0.7-0.4-1.1-0.6c-0.5-0.2-1-0.4-1.7-0.6-0.8-0.2-1.6-0.5-2.3-0.8-0.8-0.3-1.4-0.7-2-1.2s-1.1-1.1-1.4-1.9c-0.4-0.8-0.5-1.7-0.5-2.9s0.2-2.2 0.6-3.1 0.9-1.7 1.6-2.4 1.5-1.2 2.5-1.6 2.1-0.6 3.4-0.6c1.2 0 2.4 0.2 3.6 0.5 1.3 0.3 2.5 0.8 3.6 1.4l-2.6 4.6z"/>
			<path d="m205.2 139.8v12.7c0 0.7 0 1.4 0.1 2.1s0.2 1.4 0.5 1.9 0.7 1 1.2 1.4c0.6 0.4 1.3 0.5 2.4 0.5 1 0 1.8-0.2 2.3-0.5 0.5-0.4 1-0.8 1.2-1.4s0.4-1.2 0.5-1.9c0.1-0.7 0.1-1.4 0.1-2.1v-12.7h6v13.5c0 3.6-0.8 6.3-2.5 8s-4.2 2.5-7.7 2.5-6-0.8-7.7-2.5-2.5-4.3-2.5-8v-13.5h6.1z"/>
			<path d="m242.6 163.2h-7.6l-5.8-9v9h-6.1v-23.4h9.5c1.3 0 2.4 0.2 3.4 0.6s1.8 0.9 2.4 1.6 1.1 1.4 1.4 2.3 0.5 1.8 0.5 2.8c0 1.8-0.4 3.2-1.3 4.3s-2.1 1.9-3.8 2.2l7.4 9.6zm-13.4-13h1.1c1.2 0 2.1-0.2 2.8-0.7 0.6-0.5 1-1.2 1-2.1s-0.3-1.6-1-2.1c-0.6-0.5-1.6-0.7-2.8-0.7h-1.1v5.6z"/>
			<path d="m247.1 139.8l5.6 14.2 5.7-14.2h6.6l-9.9 23.4h-4.8l-9.8-23.4h6.6z"/>
			<path d="m272.3 139.8v23.4h-6.1v-23.4h6.1z"/>
			<path d="m280.2 139.8l5.6 14.2 5.7-14.2h6.6l-9.9 23.4h-4.8l-9.8-23.4h6.6z"/>
			<path d="m297.1 151.5c0-1.7 0.3-3.4 1-4.9 0.6-1.5 1.5-2.8 2.7-3.9 1.1-1.1 2.5-2 4.1-2.6s3.3-0.9 5.2-0.9 3.6 0.3 5.2 0.9 3 1.5 4.1 2.6 2 2.4 2.7 3.9c0.6 1.5 1 3.1 1 4.9s-0.3 3.4-1 4.9c-0.6 1.5-1.5 2.8-2.7 3.9-1.1 1.1-2.5 2-4.1 2.6s-3.3 0.9-5.2 0.9-3.6-0.3-5.2-0.9-2.9-1.5-4.1-2.6c-1.1-1.1-2-2.4-2.7-3.9-0.6-1.6-1-3.2-1-4.9zm6.4 0c0 0.9 0.2 1.8 0.5 2.6 0.4 0.8 0.8 1.5 1.4 2 0.6 0.6 1.3 1 2.1 1.3s1.6 0.5 2.5 0.5 1.7-0.2 2.5-0.5c0.8-0.3 1.5-0.8 2.1-1.3 0.6-0.6 1.1-1.3 1.4-2 0.4-0.8 0.5-1.6 0.5-2.6s-0.2-1.8-0.5-2.6c-0.4-0.8-0.8-1.5-1.4-2-0.6-0.6-1.3-1-2.1-1.3s-1.6-0.5-2.5-0.5-1.7 0.2-2.5 0.5c-0.8 0.3-1.5 0.8-2.1 1.3-0.6 0.6-1.1 1.3-1.4 2-0.3 0.8-0.5 1.6-0.5 2.6z"/>
			<path d="m345.1 163.2h-7.6l-5.8-9v9h-6.1v-23.4h9.5c1.3 0 2.4 0.2 3.4 0.6s1.8 0.9 2.4 1.6 1.1 1.4 1.4 2.3 0.5 1.8 0.5 2.8c0 1.8-0.4 3.2-1.3 4.3s-2.1 1.9-3.8 2.2l7.4 9.6zm-13.4-13h1.1c1.2 0 2.1-0.2 2.8-0.7 0.6-0.5 1-1.2 1-2.1s-0.3-1.6-1-2.1c-0.6-0.5-1.6-0.7-2.8-0.7h-1.1v5.6z"/>
			<path d="m359.2 145.8c-0.7-0.5-1.3-0.9-2-1.2s-1.3-0.4-1.9-0.4c-0.8 0-1.4 0.2-1.9 0.6s-0.7 0.9-0.7 1.5c0 0.4 0.1 0.8 0.4 1 0.2 0.3 0.6 0.5 1 0.7s0.9 0.4 1.4 0.5c0.5 0.1 1 0.3 1.5 0.5 2 0.7 3.4 1.5 4.4 2.7 0.9 1.1 1.4 2.5 1.4 4.3 0 1.2-0.2 2.3-0.6 3.3s-1 1.8-1.8 2.5-1.7 1.2-2.9 1.6c-1.1 0.4-2.4 0.6-3.8 0.6-3 0-5.7-0.9-8.2-2.6l2.6-4.9c0.9 0.8 1.8 1.4 2.7 1.8s1.8 0.6 2.6 0.6c1 0 1.7-0.2 2.2-0.7s0.7-1 0.7-1.6c0-0.4-0.1-0.7-0.2-0.9-0.1-0.3-0.3-0.5-0.6-0.7s-0.7-0.4-1.1-0.6c-0.5-0.2-1-0.4-1.7-0.6-0.8-0.2-1.6-0.5-2.3-0.8-0.8-0.3-1.4-0.7-2-1.2s-1.1-1.1-1.4-1.9c-0.4-0.8-0.5-1.7-0.5-2.9s0.2-2.2 0.6-3.1 0.9-1.7 1.6-2.4 1.5-1.2 2.5-1.6 2.1-0.6 3.4-0.6c1.2 0 2.4 0.2 3.6 0.5 1.3 0.3 2.5 0.8 3.6 1.4l-2.6 4.6z"/>
			<path d="m366.4 157.2h5.3l-5.7 10.3h-3.6l4-10.3z"/>
			<path d="m212 174.9v18.2h-6.1v-18.2h-5v-5.1h16.1v5.1h-5z"/>
			<path d="m217.1 181.5c0-1.7 0.3-3.4 1-4.9 0.6-1.5 1.5-2.8 2.7-3.9 1.1-1.1 2.5-2 4.1-2.6s3.3-0.9 5.2-0.9 3.6 0.3 5.2 0.9 3 1.5 4.1 2.6 2 2.4 2.7 3.9c0.6 1.5 1 3.1 1 4.9s-0.3 3.4-1 4.9c-0.6 1.5-1.5 2.8-2.7 3.9-1.1 1.1-2.5 2-4.1 2.6s-3.3 0.9-5.2 0.9-3.6-0.3-5.2-0.9-2.9-1.5-4.1-2.6c-1.1-1.1-2-2.4-2.7-3.9-0.6-1.6-1-3.2-1-4.9zm6.4 0c0 0.9 0.2 1.8 0.5 2.6 0.4 0.8 0.8 1.5 1.4 2 0.6 0.6 1.3 1 2.1 1.3s1.6 0.5 2.5 0.5 1.7-0.2 2.5-0.5c0.8-0.3 1.5-0.8 2.1-1.3 0.6-0.6 1.1-1.3 1.4-2 0.4-0.8 0.5-1.6 0.5-2.6s-0.2-1.8-0.5-2.6c-0.4-0.8-0.8-1.5-1.4-2-0.6-0.6-1.3-1-2.1-1.3s-1.6-0.5-2.5-0.5-1.7 0.2-2.5 0.5c-0.8 0.3-1.5 0.8-2.1 1.3-0.6 0.6-1.1 1.3-1.4 2-0.3 0.8-0.5 1.6-0.5 2.6z"/>
			<path d="m257 180.1h12.1c0 1.2-0.1 2.4-0.2 3.4s-0.3 2-0.6 2.8c-0.4 1.2-1 2.3-1.8 3.2-0.7 0.9-1.6 1.7-2.6 2.4-1 0.6-2.1 1.1-3.3 1.4s-2.5 0.5-3.8 0.5c-1.8 0-3.5-0.3-5-0.9s-2.8-1.4-3.9-2.5-1.9-2.4-2.5-3.9-0.9-3.2-0.9-5 0.3-3.5 0.9-5 1.4-2.8 2.5-3.9 2.4-1.9 3.9-2.5 3.2-0.9 5.1-0.9c2.4 0 4.6 0.5 6.4 1.6s3.3 2.7 4.4 4.9l-5.7 2.3c-0.5-1.3-1.2-2.2-2.1-2.8s-1.8-0.8-2.9-0.8c-0.9 0-1.7 0.2-2.5 0.5-0.7 0.3-1.4 0.8-1.9 1.5-0.5 0.6-0.9 1.4-1.2 2.3s-0.4 1.9-0.4 3c0 1 0.1 1.9 0.4 2.8 0.3 0.8 0.6 1.6 1.2 2.2 0.5 0.6 1.2 1.1 1.9 1.4 0.8 0.3 1.7 0.5 2.7 0.5 0.6 0 1.2-0.1 1.7-0.2s1.1-0.4 1.5-0.7c0.4-0.3 0.8-0.7 1.1-1.2s0.5-1.1 0.6-1.7h-5v-4.7z"/>
			<path d="m285 174.9h-7.2v3.9h6.8v5.1h-6.8v4h7.2v5.1h-13.3v-23.4h13.3v5.3z"/>
			<path d="m297 174.9v18.2h-6.1v-18.2h-5v-5.1h16.1v5.1h-5z"/>
			<path d="m309.5 178.8h8.8v-9h6.1v23.4h-6.1v-9.6h-8.8v9.6h-6.1v-23.4h6.1v9z"/>
			<path d="m341.3 174.9h-7.2v3.9h6.8v5.1h-6.8v4h7.2v5.1h-13.3v-23.4h13.3v5.3z"/>
			<path d="m363.9 193.2h-7.6l-5.8-9v9h-6.1v-23.4h9.5c1.3 0 2.4 0.2 3.4 0.6s1.8 0.9 2.4 1.6 1.1 1.4 1.4 2.3 0.5 1.8 0.5 2.8c0 1.8-0.4 3.2-1.3 4.3s-2.1 1.9-3.8 2.2l7.4 9.6zm-13.4-13h1.1c1.2 0 2.1-0.2 2.8-0.7 0.6-0.5 1-1.2 1-2.1s-0.3-1.6-1-2.1c-0.6-0.5-1.6-0.7-2.8-0.7h-1.1v5.6z"/>
			<path d="m364.4 190.2c0-0.5 0.1-1 0.3-1.4s0.4-0.8 0.8-1.2 0.7-0.6 1.2-0.8c0.4-0.2 0.9-0.3 1.4-0.3s1 0.1 1.4 0.3c0.4 0.2 0.8 0.4 1.2 0.8 0.3 0.3 0.6 0.7 0.8 1.2 0.2 0.4 0.3 0.9 0.3 1.4s-0.1 1-0.3 1.4c-0.2 0.4-0.4 0.8-0.8 1.2-0.3 0.3-0.7 0.6-1.2 0.8s-0.9 0.3-1.4 0.3-1-0.1-1.4-0.3c-0.4-0.2-0.8-0.4-1.2-0.8s-0.6-0.7-0.8-1.2c-0.3-0.4-0.3-0.9-0.3-1.4z"/>
	</g>
		<path d="m318.1 106.1l0.9-4.2h4.2l-0.9 4.2h-4.2z"/>
		<path d="m328.7 93.6c0.9-4.2 3.3-7.2 7.9-7.2s5.6 3 4.7 7.2l-1.3 5.7c-0.9 4.2-3.3 7.2-7.9 7.2s-5.6-3-4.7-7.2l1.3-5.7zm8.7-0.8c0.5-2.2-0.1-3.2-1.5-3.2s-2.4 0.9-2.9 3.2l-1.6 7.1c-0.5 2.2 0.1 3.2 1.5 3.2s2.4-0.9 2.9-3.2l1.6-7.1z"/>
		<path d="m342.2 106.1l4.3-19.4h3.9l-0.5 2.3h0.1c1.3-1.7 3.2-2.6 5.2-2.6h0.8l-0.9 4.2c-0.7-0.2-1.3-0.4-2.5-0.4-1.4 0-2.9 0.9-3.3 2.6l-3 13.3h-4.1z"/>
		<path d="m371.2 89.7h-0.6c-0.7 0-1.4 0.1-2.1 0.6 0.1 1-0.1 2.3-0.2 3.1-1.3 5.9-3.7 7.8-7.8 7.8h-1.3c-0.5 0.1-0.9 0.4-1 0.9-0.6 2.6 10.6-1.3 9.1 5.6-0.7 3.3-4.1 4.6-9.3 4.6-4 0-6.2-1.1-5.7-3.1 0.3-1.5 1.8-2.7 3.3-3v-0.1c-1-0.4-1.6-1.2-1.3-2.4 0.3-1.3 1.9-2.5 3.1-3.1-1.7-1.4-2.1-2.4-1.1-6.9 1.2-5.3 3.3-7.1 7.8-7.1 1.7 0 3.1 0.6 4 2.1 1.4-1.6 2.1-2.1 3.8-2.1l-0.7 3.1zm-7.7 18.2c0.2-1-0.4-1.4-3.1-1.4s-3.5 0.4-3.7 1.4 0.4 1.4 3.1 1.4 3.5-0.4 3.7-1.4zm0.6-14.2c0.7-3.3 0.5-4.1-1.1-4.1-1.3 0-2.2 0.8-2.9 4.1s-0.2 4.1 1.1 4.1c1.6 0 2.2-0.8 2.9-4.1z"/>
		<path d="m144.9 106.1l7.3-32.8h6.5l-0.7 3.3c3.4-2.4 5.2-3.9 9.2-3.9 3.6 0 5.2 2.6 4.2 6.9l-5.9 26.5h-6.8l5.6-25.4c0.4-1.6-0.4-2.4-1.9-2.4s-3 0.9-4.9 2.1l-5.7 25.7h-6.9z"/>
		<path d="m194.6 91h-14.4l-1.1 4.8c-0.8 3.8 0.2 5.4 2.6 5.4s4.1-1.6 5-5.4l0.2-0.7h6.8c-1.7 7-5.6 11.7-13.2 11.7-7.8 0-9.5-5-7.9-12.2l2.1-9.6c1.6-7.2 5.5-12.2 13.3-12.2s9.5 5 7.9 12.2l-1.3 6zm-5.5-5.6l0.4-1.7c0.8-3.8-0.2-5.4-2.6-5.4s-4.1 1.6-5 5.4l-0.4 1.7h7.6z"/>
		<path d="m199.3 78.9l1.2-5.6h3.8l2-8.8h6.8l-2 8.8h4.6l-1.2 5.6h-4.5l-4.2 18.9c-0.4 1.7 0.1 2.7 1.7 2.7h2.3l-1.3 5.9c-1 0.2-1.8 0.4-3.5 0.4-5.1 0-7.5-2.4-6.4-7.4l4.5-20.4h-3.8z"/>
		<path d="m231.9 73.3h5.1l-0.9 20.4h0.1l8.3-20.5h6.6l-14.8 32.8h-5.5l0.9-20.7h-0.1l-9.1 20.7h-5.5l0.9-32.8h6.6l-1.6 20.5h0.1l8.9-20.4z"/>
		<path d="m250.2 84.9c1.6-7.2 5.5-12.2 13.3-12.2s9.5 5 7.9 12.2l-2.1 9.6c-1.6 7.2-5.5 12.2-13.3 12.2s-9.5-5-7.9-12.2l2.1-9.6zm14.7-1.3c0.8-3.8-0.2-5.4-2.6-5.4s-4.1 1.6-5 5.4l-2.7 12.1c-0.8 3.8 0.2 5.4 2.6 5.4s4.1-1.6 5-5.4l2.7-12.1z"/>
		<path d="m271.4 106.1l7.3-32.8h6.5l-0.9 3.8h0.1c2.3-2.8 5.5-4.5 8.7-4.5h1.4l-1.6 7.1c-1.2-0.3-2.2-0.7-4.2-0.7-2.3 0-4.9 1.5-5.5 4.4l-5 22.6h-6.8z"/>
		<path d="m310.5 83.6l3 22.4h-6.9l-1.9-16.3h-0.1l-4.3 4.8-2.5 11.5h-6.8l9.8-44h6.8l-5.1 22.8h0.1l10.1-11.6h7.3l-9.5 10.4z"/>
</g>
<g id="Ribbon_option_2">
			<radialGradient id="SVGID_1_" gradientUnits="userSpaceOnUse" cy="-1100.8" cx="177.26" gradientTransform="matrix(1.2435 .00075790 -.000099469 .1632 -128.44 373.24)" r="69.902">
			<stop stop-color="#BCD2E3" offset=".1224"/>
			<stop stop-color="#D4E2ED" offset=".3214"/>
			<stop stop-color="#ECF2F7" offset=".5701"/>
			<stop stop-color="#FAFCFD" offset=".8023"/>
			<stop stop-color="#fff" offset="1"/>
		</radialGradient>
		<ellipse cy="193.7" cx="92.1" rx="86.9" class="st4" ry="11.4"/>
				<linearGradient id="SVGID_2_" y2="9.925" gradientUnits="userSpaceOnUse" x2="115.17" gradientTransform="matrix(.9347 .3554 -.3554 .9347 38.906 -24.354)" y1="9.925" x1="67.105">
				<stop stop-color="#0068B7" offset=".010373"/>
				<stop stop-color="#1881D1" offset=".046989"/>
				<stop stop-color="#2E99EA" offset=".091134"/>
				<stop stop-color="#3BA7FA" offset=".1314"/>
				<stop stop-color="#40ACFF" offset=".1639"/>
				<stop stop-color="#61BBFF" offset=".6328"/>
				<stop stop-color="#5BB6FB" offset=".6952"/>
				<stop stop-color="#48A7F0" offset=".7824"/>
				<stop stop-color="#2B90DD" offset=".884"/>
				<stop stop-color="#026FC3" offset=".9959"/>
				<stop stop-color="#006EC2" offset="1"/>
			</linearGradient>
			<path class="st5" d="m137 41.6c2-4 3.7-13 4-17.5 1.6-22.1-26.7-33-40.2-15.3-2.8 3.6-7.5 11.4-8.7 15.8 15.9-6.2 37.2 1.9 44.9 17z"/>
				<linearGradient id="SVGID_3_" y2="68.077" gradientUnits="userSpaceOnUse" x2="134.11" gradientTransform="matrix(.9347 .3554 -.3554 .9347 38.906 -24.354)" y1="106.77" x1="27.808">
				<stop stop-color="#40ACFF" offset="0"/>
				<stop stop-color="#3CA8FB" offset=".1199"/>
				<stop stop-color="#2F9DF0" offset=".2435"/>
				<stop stop-color="#1B89DE" offset=".3684"/>
				<stop stop-color="#0070C6" offset=".4876"/>
				<stop stop-color="#0083E7" offset=".529"/>
				<stop stop-color="#40ACFF" offset=".7199"/>
				<stop stop-color="#0086EC" offset=".944"/>
				<stop stop-color="#3FACFF" offset=".9979"/>
			</linearGradient>
			<path class="st6" d="m141 24.1c-0.2 2.1-0.6 4.2-1.4 6.3-7.3 24.1-50.9 67.4-112.7 78.5l-0.9 39.3c37-8.5 101.2-48.4 111.9-84 1.2-3.2 1.9-6.5 2.1-9.7l1-30.4"/>
				<linearGradient id="SVGID_4_" y2="106.77" gradientUnits="userSpaceOnUse" x2="154.47" gradientTransform="matrix(.9347 .3554 -.3554 .9347 38.906 -24.354)" y1="68.077" x1="48.165">
				<stop stop-color="#5DB9FF" offset=".031120"/>
				<stop stop-color="#0086EC" offset=".1701"/>
				<stop stop-color="#49B0FF" offset=".471"/>
				<stop stop-color="#40ACFF" offset=".6743"/>
				<stop stop-color="#31A5FD" offset=".745"/>
				<stop stop-color="#008CF7" offset=".9987"/>
			</linearGradient>
			<path class="st7" d="m100.8 8.8c-1.3 1.7-2.4 3.6-3.1 5.7-10.5 22.7-6.8 84.1 32 133.6l-25.5 29.9c-22-31-43.4-103.5-27.8-137.2 1.2-3.2 2.9-6.1 4.9-8.6l19.5-23.4"/>
</g>
</svg>
