<?xml version="1.0" encoding="utf-8"?>
<!-- Generator: Adobe Illustrator 22.1.0, SVG Export Plug-In . SVG Version: 6.00 Build 0)  -->
<svg version="1.1" xmlns="http://www.w3.org/2000/svg" xmlns:xlink="http://www.w3.org/1999/xlink" x="0px" y="0px"
	 viewBox="0 0 406.2 208.1" style="enable-background:new 0 0 406.2 208.1;" xml:space="preserve">
<style type="text/css">
	.st0{fill:none;stroke:#000000;stroke-miterlimit:10;}
	.st1{display:none;}
	.st2{display:inline;}
	.st3{opacity:0.5;}
	.st4{fill:url(#SVGID_1_);}
	.st5{fill:url(#SVGID_2_);}
	.st6{fill:url(#SVGID_3_);}
	.st7{fill:url(#SVGID_4_);}
</style>
<g id="Layer_1">
	<line class="st0" x1="373.7" y1="124.6" x2="113.7" y2="124.6"/>
	<g class="st1">
		<path class="st2" d="M382.2-73.9v355h-355v-355H382.2 M383.2-74.9h-357v357h357V-74.9L383.2-74.9z"/>
	</g>
	<g>
		<path d="M158.3,27.5l-0.7,3.4h0.1c2.8-2.8,4.7-4,8.1-4c4.2,0,6.1,3.1,4.8,9l-3.4,15.5c-1.3,5.9-4.6,9-8.8,9
			c-2.9,0-4.1-1.2-6.2-3.4l-2.9,13h-6.7l9.4-42.5H158.3z M153,53.2c1.1,1,2.1,1.7,3.5,1.7c1.8,0,3.5-1,4.4-5.2l2.7-12
			c0.9-4.3-0.3-5.2-2.1-5.2c-1.3,0-2.7,0.7-4.2,1.7L153,53.2z"/>
		<path d="M170,59.8l7.2-32.3h6.4l-0.8,3.8h0.1c2.2-2.8,5.4-4.4,8.6-4.4h1.4l-1.6,7c-1.1-0.3-2.2-0.7-4.2-0.7
			c-2.3,0-4.8,1.4-5.5,4.3l-4.9,22.2H170z"/>
		<path d="M192.7,38.9c1.6-7.1,5.4-12,13.1-12s9.3,4.9,7.8,12l-2.1,9.5c-1.6,7.1-5.4,12-13.1,12s-9.3-4.9-7.8-12L192.7,38.9z
			 M207.1,37.7c0.8-3.7-0.1-5.3-2.5-5.3s-4.1,1.6-4.9,5.3l-2.6,11.9c-0.8,3.7,0.1,5.3,2.5,5.3s4.1-1.6,4.9-5.3L207.1,37.7z"/>
		<path d="M231,36.4c0.1-2.6-0.8-4-2.9-4c-1.7,0-3.1,0.9-3.5,2.6c-1.1,5,11,7.1,8.9,16.7c-1.3,5.8-5.9,8.7-11.3,8.7
			c-5.9,0-8.5-3.4-8.3-9l6.2-1.6c-0.2,2.7,0.2,5.1,3.3,5.1c1.7,0,3.2-1,3.6-2.8c1.2-5.6-10.9-7.7-8.9-16.5c1.1-5.1,5.9-8.6,10.9-8.6
			c5.3,0,8,3.5,7.9,8.6L231,36.4z"/>
		<path d="M238.7,33l1.2-5.5h3.7l1.9-8.7h6.7l-1.9,8.7h4.5l-1.2,5.5h-4.5L245,51.6c-0.4,1.7,0.1,2.6,1.7,2.6h2.2l-1.3,5.8
			c-1,0.2-1.8,0.4-3.4,0.4c-5,0-7.3-2.3-6.2-7.3l4.5-20.1H238.7z"/>
		<path d="M254.9,37c1.8-6.5,6.7-10.1,13-10.1c6.2,0,9.1,2.9,7.8,8.8l-4.6,20.7c-0.2,1-0.3,2.3-0.3,3.4h-6.4
			c0.1-0.9,0.1-1.7,0.2-2.5c-3,2-5.3,3.1-8.6,3.1c-4.6,0-6.1-3.1-5.2-7.3c1.6-7.1,7.1-11,17.6-14.6l0.4-1.9c0.6-2.7-0.2-4.1-2.4-4.1
			c-3.1,0-4.1,1.8-4.9,4.6H254.9z M267.4,43.4c-6.9,3.5-8.9,5.7-9.5,8.5c-0.5,2.1,0.4,2.9,2.5,2.9c1.9,0,3.7-1.4,5.2-3L267.4,43.4z"
			/>
		<path d="M279,33l1.2-5.5h3.7l1.9-8.7h6.7l-1.9,8.7h4.5L294,33h-4.5l-4.1,18.6c-0.4,1.7,0.1,2.6,1.7,2.6h2.2L288,60
			c-1,0.2-1.8,0.4-3.4,0.4c-5,0-7.3-2.3-6.2-7.3l4.5-20.1H279z"/>
		<path d="M314.7,44.9h-14.2l-1,4.7c-0.8,3.7,0.1,5.3,2.5,5.3s4.1-1.6,4.9-5.3l0.2-0.7h6.7c-1.6,6.8-5.5,11.5-13,11.5
			c-7.7,0-9.3-4.9-7.8-12l2.1-9.5c1.6-7.1,5.4-12,13.1-12s9.3,4.9,7.8,12L314.7,44.9z M309.2,39.4l0.4-1.7c0.8-3.7-0.1-5.3-2.5-5.3
			s-4.1,1.6-4.9,5.3l-0.4,1.7H309.2z"/>
	</g>
	<g class="st3">
		<g>
			<path d="M193.2,145.8c-0.7-0.5-1.3-0.9-2-1.2c-0.7-0.3-1.3-0.4-1.9-0.4c-0.8,0-1.4,0.2-1.9,0.6s-0.7,0.9-0.7,1.5
				c0,0.4,0.1,0.8,0.4,1c0.2,0.3,0.6,0.5,1,0.7s0.9,0.4,1.4,0.5c0.5,0.1,1,0.3,1.5,0.5c2,0.7,3.4,1.5,4.4,2.7
				c0.9,1.1,1.4,2.5,1.4,4.3c0,1.2-0.2,2.3-0.6,3.3c-0.4,1-1,1.8-1.8,2.5c-0.8,0.7-1.7,1.2-2.9,1.6c-1.1,0.4-2.4,0.6-3.8,0.6
				c-3,0-5.7-0.9-8.2-2.6l2.6-4.9c0.9,0.8,1.8,1.4,2.7,1.8s1.8,0.6,2.6,0.6c1,0,1.7-0.2,2.2-0.7c0.5-0.5,0.7-1,0.7-1.6
				c0-0.4-0.1-0.7-0.2-0.9c-0.1-0.3-0.3-0.5-0.6-0.7c-0.3-0.2-0.7-0.4-1.1-0.6c-0.5-0.2-1-0.4-1.7-0.6c-0.8-0.2-1.6-0.5-2.3-0.8
				c-0.8-0.3-1.4-0.7-2-1.2c-0.6-0.5-1.1-1.1-1.4-1.9c-0.4-0.8-0.5-1.7-0.5-2.9c0-1.2,0.2-2.2,0.6-3.1c0.4-0.9,0.9-1.7,1.6-2.4
				c0.7-0.7,1.5-1.2,2.5-1.6c1-0.4,2.1-0.6,3.4-0.6c1.2,0,2.4,0.2,3.6,0.5c1.3,0.3,2.5,0.8,3.6,1.4L193.2,145.8z"/>
			<path d="M205.2,139.8v12.7c0,0.7,0,1.4,0.1,2.1c0.1,0.7,0.2,1.4,0.5,1.9s0.7,1,1.2,1.4c0.6,0.4,1.3,0.5,2.4,0.5
				c1,0,1.8-0.2,2.3-0.5c0.5-0.4,1-0.8,1.2-1.4s0.4-1.2,0.5-1.9c0.1-0.7,0.1-1.4,0.1-2.1v-12.7h6v13.5c0,3.6-0.8,6.3-2.5,8
				c-1.7,1.7-4.2,2.5-7.7,2.5c-3.5,0-6-0.8-7.7-2.5c-1.7-1.7-2.5-4.3-2.5-8v-13.5H205.2z"/>
			<path d="M242.6,163.2H235l-5.8-9v9h-6.1v-23.4h9.5c1.3,0,2.4,0.2,3.4,0.6c1,0.4,1.8,0.9,2.4,1.6c0.6,0.7,1.1,1.4,1.4,2.3
				c0.3,0.9,0.5,1.8,0.5,2.8c0,1.8-0.4,3.2-1.3,4.3c-0.9,1.1-2.1,1.9-3.8,2.2L242.6,163.2z M229.2,150.2h1.1c1.2,0,2.1-0.2,2.8-0.7
				c0.6-0.5,1-1.2,1-2.1s-0.3-1.6-1-2.1c-0.6-0.5-1.6-0.7-2.8-0.7h-1.1V150.2z"/>
			<path d="M247.1,139.8l5.6,14.2l5.7-14.2h6.6l-9.9,23.4h-4.8l-9.8-23.4H247.1z"/>
			<path d="M272.3,139.8v23.4h-6.1v-23.4H272.3z"/>
			<path d="M280.2,139.8l5.6,14.2l5.7-14.2h6.6l-9.9,23.4h-4.8l-9.8-23.4H280.2z"/>
			<path d="M297.1,151.5c0-1.7,0.3-3.4,1-4.9c0.6-1.5,1.5-2.8,2.7-3.9c1.1-1.1,2.5-2,4.1-2.6c1.6-0.6,3.3-0.9,5.2-0.9
				c1.9,0,3.6,0.3,5.2,0.9c1.6,0.6,3,1.5,4.1,2.6c1.1,1.1,2,2.4,2.7,3.9c0.6,1.5,1,3.1,1,4.9s-0.3,3.4-1,4.9
				c-0.6,1.5-1.5,2.8-2.7,3.9c-1.1,1.1-2.5,2-4.1,2.6c-1.6,0.6-3.3,0.9-5.2,0.9c-1.9,0-3.6-0.3-5.2-0.9c-1.6-0.6-2.9-1.5-4.1-2.6
				c-1.1-1.1-2-2.4-2.7-3.9C297.5,154.8,297.1,153.2,297.1,151.5z M303.5,151.5c0,0.9,0.2,1.8,0.5,2.6c0.4,0.8,0.8,1.5,1.4,2
				c0.6,0.6,1.3,1,2.1,1.3c0.8,0.3,1.6,0.5,2.5,0.5s1.7-0.2,2.5-0.5c0.8-0.3,1.5-0.8,2.1-1.3c0.6-0.6,1.1-1.3,1.4-2
				c0.4-0.8,0.5-1.6,0.5-2.6s-0.2-1.8-0.5-2.6c-0.4-0.8-0.8-1.5-1.4-2c-0.6-0.6-1.3-1-2.1-1.3c-0.8-0.3-1.6-0.5-2.5-0.5
				s-1.7,0.2-2.5,0.5c-0.8,0.3-1.5,0.8-2.1,1.3c-0.6,0.6-1.1,1.3-1.4,2C303.7,149.7,303.5,150.5,303.5,151.5z"/>
			<path d="M345.1,163.2h-7.6l-5.8-9v9h-6.1v-23.4h9.5c1.3,0,2.4,0.2,3.4,0.6c1,0.4,1.8,0.9,2.4,1.6c0.6,0.7,1.1,1.4,1.4,2.3
				c0.3,0.9,0.5,1.8,0.5,2.8c0,1.8-0.4,3.2-1.3,4.3c-0.9,1.1-2.1,1.9-3.8,2.2L345.1,163.2z M331.7,150.2h1.1c1.2,0,2.1-0.2,2.8-0.7
				c0.6-0.5,1-1.2,1-2.1s-0.3-1.6-1-2.1c-0.6-0.5-1.6-0.7-2.8-0.7h-1.1V150.2z"/>
			<path d="M359.2,145.8c-0.7-0.5-1.3-0.9-2-1.2c-0.7-0.3-1.3-0.4-1.9-0.4c-0.8,0-1.4,0.2-1.9,0.6s-0.7,0.9-0.7,1.5
				c0,0.4,0.1,0.8,0.4,1c0.2,0.3,0.6,0.5,1,0.7s0.9,0.4,1.4,0.5c0.5,0.1,1,0.3,1.5,0.5c2,0.7,3.4,1.5,4.4,2.7
				c0.9,1.1,1.4,2.5,1.4,4.3c0,1.2-0.2,2.3-0.6,3.3c-0.4,1-1,1.8-1.8,2.5c-0.8,0.7-1.7,1.2-2.9,1.6c-1.1,0.4-2.4,0.6-3.8,0.6
				c-3,0-5.7-0.9-8.2-2.6l2.6-4.9c0.9,0.8,1.8,1.4,2.7,1.8s1.8,0.6,2.6,0.6c1,0,1.7-0.2,2.2-0.7c0.5-0.5,0.7-1,0.7-1.6
				c0-0.4-0.1-0.7-0.2-0.9c-0.1-0.3-0.3-0.5-0.6-0.7c-0.3-0.2-0.7-0.4-1.1-0.6c-0.5-0.2-1-0.4-1.7-0.6c-0.8-0.2-1.6-0.5-2.3-0.8
				c-0.8-0.3-1.4-0.7-2-1.2c-0.6-0.5-1.1-1.1-1.4-1.9c-0.4-0.8-0.5-1.7-0.5-2.9c0-1.2,0.2-2.2,0.6-3.1c0.4-0.9,0.9-1.7,1.6-2.4
				c0.7-0.7,1.5-1.2,2.5-1.6c1-0.4,2.1-0.6,3.4-0.6c1.2,0,2.4,0.2,3.6,0.5c1.3,0.3,2.5,0.8,3.6,1.4L359.2,145.8z"/>
			<path d="M366.4,157.2h5.3l-5.7,10.3h-3.6L366.4,157.2z"/>
			<path d="M212,174.9v18.2h-6.1v-18.2h-5v-5.1h16.1v5.1H212z"/>
			<path d="M217.1,181.5c0-1.7,0.3-3.4,1-4.9c0.6-1.5,1.5-2.8,2.7-3.9c1.1-1.1,2.5-2,4.1-2.6c1.6-0.6,3.3-0.9,5.2-0.9
				c1.9,0,3.6,0.3,5.2,0.9c1.6,0.6,3,1.5,4.1,2.6c1.1,1.1,2,2.4,2.7,3.9c0.6,1.5,1,3.1,1,4.9s-0.3,3.4-1,4.9
				c-0.6,1.5-1.5,2.8-2.7,3.9c-1.1,1.1-2.5,2-4.1,2.6c-1.6,0.6-3.3,0.9-5.2,0.9c-1.9,0-3.6-0.3-5.2-0.9c-1.6-0.6-2.9-1.5-4.1-2.6
				c-1.1-1.1-2-2.4-2.7-3.9C217.5,184.8,217.1,183.2,217.1,181.5z M223.5,181.5c0,0.9,0.2,1.8,0.5,2.6c0.4,0.8,0.8,1.5,1.4,2
				c0.6,0.6,1.3,1,2.1,1.3c0.8,0.3,1.6,0.5,2.5,0.5s1.7-0.2,2.5-0.5c0.8-0.3,1.5-0.8,2.1-1.3c0.6-0.6,1.1-1.3,1.4-2
				c0.4-0.8,0.5-1.6,0.5-2.6s-0.2-1.8-0.5-2.6c-0.4-0.8-0.8-1.5-1.4-2c-0.6-0.6-1.3-1-2.1-1.3c-0.8-0.3-1.6-0.5-2.5-0.5
				s-1.7,0.2-2.5,0.5c-0.8,0.3-1.5,0.8-2.1,1.3c-0.6,0.6-1.1,1.3-1.4,2C223.7,179.7,223.5,180.5,223.5,181.5z"/>
			<path d="M257,180.1h12.1c0,1.2-0.1,2.4-0.2,3.4c-0.1,1-0.3,2-0.6,2.8c-0.4,1.2-1,2.3-1.8,3.2c-0.7,0.9-1.6,1.7-2.6,2.4
				c-1,0.6-2.1,1.1-3.3,1.4c-1.2,0.3-2.5,0.5-3.8,0.5c-1.8,0-3.5-0.3-5-0.9c-1.5-0.6-2.8-1.4-3.9-2.5c-1.1-1.1-1.9-2.4-2.5-3.9
				c-0.6-1.5-0.9-3.2-0.9-5c0-1.8,0.3-3.5,0.9-5c0.6-1.5,1.4-2.8,2.5-3.9c1.1-1.1,2.4-1.9,3.9-2.5c1.5-0.6,3.2-0.9,5.1-0.9
				c2.4,0,4.6,0.5,6.4,1.6c1.8,1.1,3.3,2.7,4.4,4.9L262,178c-0.5-1.3-1.2-2.2-2.1-2.8c-0.9-0.6-1.8-0.8-2.9-0.8
				c-0.9,0-1.7,0.2-2.5,0.5c-0.7,0.3-1.4,0.8-1.9,1.5c-0.5,0.6-0.9,1.4-1.2,2.3c-0.3,0.9-0.4,1.9-0.4,3c0,1,0.1,1.9,0.4,2.8
				c0.3,0.8,0.6,1.6,1.2,2.2c0.5,0.6,1.2,1.1,1.9,1.4c0.8,0.3,1.7,0.5,2.7,0.5c0.6,0,1.2-0.1,1.7-0.2s1.1-0.4,1.5-0.7
				c0.4-0.3,0.8-0.7,1.1-1.2c0.3-0.5,0.5-1.1,0.6-1.7h-5V180.1z"/>
			<path d="M285,174.9h-7.2v3.9h6.8v5.1h-6.8v4h7.2v5.1h-13.3v-23.4H285V174.9z"/>
			<path d="M297,174.9v18.2h-6.1v-18.2h-5v-5.1h16.1v5.1H297z"/>
			<path d="M309.5,178.8h8.8v-9h6.1v23.4h-6.1v-9.6h-8.8v9.6h-6.1v-23.4h6.1V178.8z"/>
			<path d="M341.3,174.9h-7.2v3.9h6.8v5.1h-6.8v4h7.2v5.1H328v-23.4h13.3V174.9z"/>
			<path d="M363.9,193.2h-7.6l-5.8-9v9h-6.1v-23.4h9.5c1.3,0,2.4,0.2,3.4,0.6c1,0.4,1.8,0.9,2.4,1.6c0.6,0.7,1.1,1.4,1.4,2.3
				c0.3,0.9,0.5,1.8,0.5,2.8c0,1.8-0.4,3.2-1.3,4.3c-0.9,1.1-2.1,1.9-3.8,2.2L363.9,193.2z M350.5,180.2h1.1c1.2,0,2.1-0.2,2.8-0.7
				c0.6-0.5,1-1.2,1-2.1s-0.3-1.6-1-2.1c-0.6-0.5-1.6-0.7-2.8-0.7h-1.1V180.2z"/>
			<path d="M364.4,190.2c0-0.5,0.1-1,0.3-1.4c0.2-0.4,0.4-0.8,0.8-1.2s0.7-0.6,1.2-0.8c0.4-0.2,0.9-0.3,1.4-0.3s1,0.1,1.4,0.3
				c0.4,0.2,0.8,0.4,1.2,0.8c0.3,0.3,0.6,0.7,0.8,1.2c0.2,0.4,0.3,0.9,0.3,1.4s-0.1,1-0.3,1.4c-0.2,0.4-0.4,0.8-0.8,1.2
				c-0.3,0.3-0.7,0.6-1.2,0.8s-0.9,0.3-1.4,0.3s-1-0.1-1.4-0.3c-0.4-0.2-0.8-0.4-1.2-0.8s-0.6-0.7-0.8-1.2
				C364.4,191.2,364.4,190.7,364.4,190.2z"/>
		</g>
	</g>
	<g>
		<path d="M318.1,106.1l0.9-4.2h4.2l-0.9,4.2H318.1z"/>
		<path d="M328.7,93.6c0.9-4.2,3.3-7.2,7.9-7.2s5.6,3,4.7,7.2l-1.3,5.7c-0.9,4.2-3.3,7.2-7.9,7.2s-5.6-3-4.7-7.2L328.7,93.6z
			 M337.4,92.8c0.5-2.2-0.1-3.2-1.5-3.2c-1.4,0-2.4,0.9-2.9,3.2l-1.6,7.1c-0.5,2.2,0.1,3.2,1.5,3.2c1.4,0,2.4-0.9,2.9-3.2
			L337.4,92.8z"/>
		<path d="M342.2,106.1l4.3-19.4h3.9l-0.5,2.3h0.1c1.3-1.7,3.2-2.6,5.2-2.6h0.8l-0.9,4.2c-0.7-0.2-1.3-0.4-2.5-0.4
			c-1.4,0-2.9,0.9-3.3,2.6l-3,13.3H342.2z"/>
		<path d="M371.2,89.7c-0.2,0-0.4,0-0.6,0c-0.7,0-1.4,0.1-2.1,0.6c0.1,1-0.1,2.3-0.2,3.1c-1.3,5.9-3.7,7.8-7.8,7.8h-1.3
			c-0.5,0.1-0.9,0.4-1,0.9c-0.6,2.6,10.6-1.3,9.1,5.6c-0.7,3.3-4.1,4.6-9.3,4.6c-4,0-6.2-1.1-5.7-3.1c0.3-1.5,1.8-2.7,3.3-3l0-0.1
			c-1-0.4-1.6-1.2-1.3-2.4c0.3-1.3,1.9-2.5,3.1-3.1c-1.7-1.4-2.1-2.4-1.1-6.9c1.2-5.3,3.3-7.1,7.8-7.1c1.7,0,3.1,0.6,4,2.1
			c1.4-1.6,2.1-2.1,3.8-2.1L371.2,89.7z M363.5,107.9c0.2-1-0.4-1.4-3.1-1.4c-2.7,0-3.5,0.4-3.7,1.4c-0.2,1,0.4,1.4,3.1,1.4
			C362.5,109.3,363.3,108.9,363.5,107.9z M364.1,93.7c0.7-3.3,0.5-4.1-1.1-4.1c-1.3,0-2.2,0.8-2.9,4.1c-0.7,3.3-0.2,4.1,1.1,4.1
			C362.8,97.8,363.4,97,364.1,93.7z"/>
	</g>
	<g>
		<path d="M144.9,106.1l7.3-32.8h6.5l-0.7,3.3c3.4-2.4,5.2-3.9,9.2-3.9c3.6,0,5.2,2.6,4.2,6.9l-5.9,26.5h-6.8l5.6-25.4
			c0.4-1.6-0.4-2.4-1.9-2.4c-1.5,0-3,0.9-4.9,2.1l-5.7,25.7H144.9z"/>
		<path d="M194.6,91h-14.4l-1.1,4.8c-0.8,3.8,0.2,5.4,2.6,5.4c2.4,0,4.1-1.6,5-5.4l0.2-0.7h6.8c-1.7,7-5.6,11.7-13.2,11.7
			c-7.8,0-9.5-5-7.9-12.2l2.1-9.6c1.6-7.2,5.5-12.2,13.3-12.2s9.5,5,7.9,12.2L194.6,91z M189.1,85.4l0.4-1.7
			c0.8-3.8-0.2-5.4-2.6-5.4c-2.4,0-4.1,1.6-5,5.4l-0.4,1.7H189.1z"/>
		<path d="M199.3,78.9l1.2-5.6h3.8l2-8.8h6.8l-2,8.8h4.6l-1.2,5.6H210l-4.2,18.9c-0.4,1.7,0.1,2.7,1.7,2.7h2.3l-1.3,5.9
			c-1,0.2-1.8,0.4-3.5,0.4c-5.1,0-7.5-2.4-6.4-7.4l4.5-20.4H199.3z"/>
		<path d="M231.9,73.3h5.1l-0.9,20.4h0.1l8.3-20.5h6.6l-14.8,32.8h-5.5l0.9-20.7h-0.1l-9.1,20.7h-5.5l0.9-32.8h6.6l-1.6,20.5h0.1
			L231.9,73.3z"/>
		<path d="M250.2,84.9c1.6-7.2,5.5-12.2,13.3-12.2s9.5,5,7.9,12.2l-2.1,9.6c-1.6,7.2-5.5,12.2-13.3,12.2s-9.5-5-7.9-12.2L250.2,84.9
			z M264.9,83.6c0.8-3.8-0.2-5.4-2.6-5.4c-2.4,0-4.1,1.6-5,5.4l-2.7,12.1c-0.8,3.8,0.2,5.4,2.6,5.4c2.4,0,4.1-1.6,5-5.4L264.9,83.6z
			"/>
		<path d="M271.4,106.1l7.3-32.8h6.5l-0.9,3.8h0.1c2.3-2.8,5.5-4.5,8.7-4.5h1.4l-1.6,7.1c-1.2-0.3-2.2-0.7-4.2-0.7
			c-2.3,0-4.9,1.5-5.5,4.4l-5,22.6H271.4z"/>
		<path d="M310.5,83.6l3,22.4h-6.9l-1.9-16.3h-0.1l-4.3,4.8l-2.5,11.5h-6.8l9.8-44h6.8l-5.1,22.8h0.1l10.1-11.6h7.3L310.5,83.6z"/>
	</g>
</g>
<g id="Ribbon_option_2">
	<g>
		
			<radialGradient id="SVGID_1_" cx="177.26" cy="-1100.8462" r="69.9019" gradientTransform="matrix(1.2435 7.578994e-04 -9.946858e-05 0.1632 -128.4381 373.2443)" gradientUnits="userSpaceOnUse">
			<stop  offset="0.1224" style="stop-color:#BCD2E3"/>
			<stop  offset="0.3214" style="stop-color:#D4E2ED"/>
			<stop  offset="0.5701" style="stop-color:#ECF2F7"/>
			<stop  offset="0.8023" style="stop-color:#FAFCFD"/>
			<stop  offset="1" style="stop-color:#FFFFFF"/>
		</radialGradient>
		<ellipse class="st4" cx="92.1" cy="193.7" rx="86.9" ry="11.4"/>
		<g>
			
				<linearGradient id="SVGID_2_" gradientUnits="userSpaceOnUse" x1="67.1052" y1="9.925" x2="115.1695" y2="9.925" gradientTransform="matrix(0.9347 0.3554 -0.3554 0.9347 38.9063 -24.3545)">
				<stop  offset="1.037340e-02" style="stop-color:#0068B7"/>
				<stop  offset="4.698871e-02" style="stop-color:#1881D1"/>
				<stop  offset="9.113415e-02" style="stop-color:#2E99EA"/>
				<stop  offset="0.1314" style="stop-color:#3BA7FA"/>
				<stop  offset="0.1639" style="stop-color:#40ACFF"/>
				<stop  offset="0.6328" style="stop-color:#61BBFF"/>
				<stop  offset="0.6952" style="stop-color:#5BB6FB"/>
				<stop  offset="0.7824" style="stop-color:#48A7F0"/>
				<stop  offset="0.884" style="stop-color:#2B90DD"/>
				<stop  offset="0.9959" style="stop-color:#026FC3"/>
				<stop  offset="1" style="stop-color:#006EC2"/>
			</linearGradient>
			<path class="st5" d="M137,41.6c2-4,3.7-13,4-17.5C142.6,2,114.3-8.9,100.8,8.8c-2.8,3.6-7.5,11.4-8.7,15.8
				C108,18.4,129.3,26.5,137,41.6z"/>
			
				<linearGradient id="SVGID_3_" gradientUnits="userSpaceOnUse" x1="27.8077" y1="106.7676" x2="134.1082" y2="68.0774" gradientTransform="matrix(0.9347 0.3554 -0.3554 0.9347 38.9063 -24.3545)">
				<stop  offset="0" style="stop-color:#40ACFF"/>
				<stop  offset="0.1199" style="stop-color:#3CA8FB"/>
				<stop  offset="0.2435" style="stop-color:#2F9DF0"/>
				<stop  offset="0.3684" style="stop-color:#1B89DE"/>
				<stop  offset="0.4876" style="stop-color:#0070C6"/>
				<stop  offset="0.529" style="stop-color:#0083E7"/>
				<stop  offset="0.7199" style="stop-color:#40ACFF"/>
				<stop  offset="0.944" style="stop-color:#0086EC"/>
				<stop  offset="0.9979" style="stop-color:#3FACFF"/>
			</linearGradient>
			<path class="st6" d="M141,24.1c-0.2,2.1-0.6,4.2-1.4,6.3c-7.3,24.1-50.9,67.4-112.7,78.5L26,148.2c37-8.5,101.2-48.4,111.9-84
				c1.2-3.2,1.9-6.5,2.1-9.7L141,24.1"/>
			
				<linearGradient id="SVGID_4_" gradientUnits="userSpaceOnUse" x1="48.1654" y1="68.0774" x2="154.4659" y2="106.7676" gradientTransform="matrix(0.9347 0.3554 -0.3554 0.9347 38.9063 -24.3545)">
				<stop  offset="3.112030e-02" style="stop-color:#5DB9FF"/>
				<stop  offset="0.1701" style="stop-color:#0086EC"/>
				<stop  offset="0.471" style="stop-color:#49B0FF"/>
				<stop  offset="0.6743" style="stop-color:#40ACFF"/>
				<stop  offset="0.745" style="stop-color:#31A5FD"/>
				<stop  offset="0.9987" style="stop-color:#008CF7"/>
			</linearGradient>
			<path class="st7" d="M100.8,8.8c-1.3,1.7-2.4,3.6-3.1,5.7c-10.5,22.7-6.8,84.1,32,133.6l-25.5,29.9C82.2,147,60.8,74.5,76.4,40.8
				c1.2-3.2,2.9-6.1,4.9-8.6L100.8,8.8"/>
		</g>
	</g>
</g>
</svg>
