<?xml version="1.0" encoding="UTF-8" standalone="no"?>
<!-- Generator: Adobe Illustrator 23.0.1, SVG Export Plug-In . SVG Version: 6.00 Build 0)  -->
<svg id="Layer_1" style="enable-background:new 0 0 464.84 301.68" xmlns="http://www.w3.org/2000/svg" xml:space="preserve" viewBox="0 0 464.84 301.68" version="1.1" y="0px" x="0px" xmlns:xlink="http://www.w3.org/1999/xlink">
<style type="text/css">
	.st0{fill:none;}
	.st1{fill:#1B75BC;}
	.st2{fill:#737373;}
	.st3{fill:#8BD7F8;}
	.st4{fill:#FFD200;}
	.st5{fill:#FFFFFF;}
</style>
	<path class="st0" d="m250.09 196.51h-1.08v6.08h0.94c1.83 0 2.09-1.11 2.09-2.76v-0.86c0-1.31-0.29-2.46-1.95-2.46z"/>
	<path class="st0" d="m356.33 196.65c-0.05 1.23-0.62 4.83-1.06 7.76h2.26c-0.58-3.53-0.96-6.25-1.13-7.76h-0.07z"/>
	<path class="st0" d="m221.57 207.61v0.19c0 1.11 0.34 1.97 1.3 1.97 1.13 0 1.51-0.89 1.51-2.71v-1.8h-0.6c-1.39 0-2.21 0.57-2.21 2.35z"/>
	<path class="st0" d="m373.94 207.61v0.19c0 1.11 0.34 1.97 1.3 1.97 1.13 0 1.51-0.89 1.51-2.71v-1.8h-0.6c-1.4 0-2.21 0.57-2.21 2.35z"/>
	<path class="st0" d="m282.52 207.61v0.19c0 1.11 0.34 1.97 1.3 1.97 1.13 0 1.51-0.89 1.51-2.71v-1.8h-0.6c-1.39 0-2.21 0.57-2.21 2.35z"/>
	<path class="st0" d="m296.91 200.16c-1.15 0-1.44 0.96-1.44 2.28v1.51h2.86v-1.54c0-1.12-0.19-2.25-1.42-2.25z"/>
	<path class="st0" d="m263.81 200.21c-1.03 0-1.47 0.77-1.47 2.09v5.29c0 1.35 0.46 2.19 1.47 2.19 0.96 0 1.47-0.65 1.47-2.19v-5.29c-0.01-1.2-0.39-2.09-1.47-2.09z"/>
	<path class="st0" d="m339.82 200.16c-1.15 0-1.44 0.96-1.44 2.28v1.51h2.86v-1.54c0-1.12-0.19-2.25-1.42-2.25z"/>
	<path class="st0" d="m314.21 207.61v0.19c0 1.11 0.34 1.97 1.3 1.97 1.13 0 1.51-0.89 1.51-2.71v-1.8h-0.6c-1.39 0-2.21 0.57-2.21 2.35z"/>
	<path class="st0" d="m405.29 200.16c-1.15 0-1.44 0.96-1.44 2.28v1.51h2.86v-1.54c0-1.12-0.2-2.25-1.42-2.25z"/>
	<path class="st0" d="m197.38 200.16c-1.15 0-1.44 0.96-1.44 2.28v1.51h2.86v-1.54c0-1.12-0.19-2.25-1.42-2.25z"/>
	<path class="st0" d="m389.05 200.16c-1.15 0-1.44 0.96-1.44 2.28v1.51h2.86v-1.54c0-1.12-0.2-2.25-1.42-2.25z"/>
	<path class="st0" d="m210.19 200.16c-1.15 0-1.44 0.96-1.44 2.28v1.51h2.86v-1.54c-0.01-1.12-0.2-2.25-1.42-2.25z"/>
		<path class="st0" d="m274.02 128.15c-1.71-0.68-4.6-1.02-8.58-1.02h-10.03v19.2l9.59 0.12c4.03 0 7.01-0.36 8.84-1.08 1.78-0.7 3.2-1.84 4.21-3.4 1.02-1.57 1.54-3.34 1.54-5.28 0-1.88-0.52-3.63-1.54-5.2-1.02-1.56-2.37-2.68-4.03-3.34z"/>
		<path class="st0" d="m382.66 141.36c-3.07 0-5.94 0.76-8.54 2.27-2.59 1.51-4.69 3.66-6.23 6.39s-2.32 5.66-2.32 8.71c0 3.02 0.79 5.95 2.34 8.71s3.66 4.94 6.27 6.47 5.45 2.31 8.43 2.31c3.02 0 5.92-0.77 8.63-2.3 2.7-1.52 4.81-3.61 6.26-6.2 1.46-2.6 2.19-5.57 2.19-8.84 0-4.97-1.66-9.18-4.92-12.52-3.26-3.31-7.34-5-12.11-5z"/>
		<polygon points="213.3 165.62 193.68 119.88 185.65 119.88 212.18 181.72 214.37 181.72 241.28 119.88 233.25 119.88" class="st1"/>
		<path class="st1" d="m274.9 120.8c-2.49-0.62-7.12-0.92-14.15-0.92h-12.72v61.84h7.38v-28.14h3.65c7.64 0 12.72-0.33 15.54-1.01 3.88-0.93 6.98-2.79 9.2-5.51 2.23-2.73 3.36-6.23 3.36-10.4 0-4.14-1.16-7.64-3.44-10.4-2.28-2.74-5.25-4.58-8.82-5.46zm4.68 15.89c0 1.94-0.52 3.72-1.54 5.28s-2.43 2.7-4.21 3.4c-1.83 0.72-4.81 1.08-8.84 1.08l-9.59-0.12v-19.2h10.03c3.98 0 6.87 0.34 8.58 1.02 1.66 0.66 3.01 1.78 4.03 3.34s1.54 3.31 1.54 5.2z"/>
		<path class="st1" d="m346.3 166.47c-5.55 6.45-12.53 9.72-20.76 9.72-7.49 0-13.78-2.43-18.68-7.22-4.9-4.78-7.39-10.84-7.39-17.99 0-4.74 1.11-9.06 3.3-12.85 2.19-3.78 5.32-6.84 9.31-9.09 4-2.25 8.4-3.39 13.08-3.39 4.29 0 8.29 0.87 11.87 2.59 3.58 1.71 6.68 4.27 9.24 7.6l0.4 0.53 5.81-4.46-0.38-0.52c-2.96-4.1-6.8-7.33-11.44-9.61-4.62-2.27-9.87-3.42-15.6-3.42-9.49 0-17.5 3.12-23.81 9.26-6.32 6.15-9.52 13.83-9.52 22.83 0 8.54 2.64 15.94 7.86 21.99 6.22 7.17 14.82 10.8 25.55 10.8 5.64 0 10.82-1.08 15.4-3.21 4.59-2.13 8.47-5.19 11.53-9.1l0.42-0.53-5.81-4.41-0.38 0.48z"/>
		<path class="st1" d="m399.33 135.63v6.94c-2.02-2.44-4.33-4.34-6.86-5.67-3.06-1.61-6.52-2.42-10.28-2.42-6.52 0-12.17 2.38-16.8 7.07s-6.98 10.41-6.98 17c0 6.73 2.33 12.53 6.92 17.23s10.21 7.09 16.7 7.09c3.65 0 7.06-0.77 10.15-2.29 2.59-1.28 5-3.11 7.16-5.45v6.58h7.01v-46.09h-7.02zm0.37 23.27c0 3.27-0.74 6.24-2.19 8.84-1.45 2.59-3.56 4.68-6.26 6.2-2.71 1.53-5.61 2.3-8.63 2.3-2.99 0-5.83-0.78-8.43-2.31-2.61-1.53-4.72-3.71-6.27-6.47s-2.34-5.69-2.34-8.71c0-3.05 0.78-5.98 2.32-8.71s3.63-4.88 6.23-6.39 5.47-2.27 8.54-2.27c4.78 0 8.85 1.69 12.12 5.02 3.26 3.32 4.91 7.53 4.91 12.5z"/>
	<path class="st2" d="m190.75 202.33c-0.34 2.23-0.82 4.97-0.96 6.58h-0.02c-0.14-1.66-0.62-4.4-0.94-6.66l-1.08-7.19h-1.85l2.81 16.05h2.14l2.81-16.05h-1.83l-1.08 7.27z"/>
	<path class="st2" d="m197.41 198.7c-2.52 0-3.17 2.04-3.17 3.89v4.57c0 2.48 0.58 4.16 3.15 4.16 2.72 0 3.03-2.19 3.03-3.6v-0.07h-1.66v0.1c0 1.15-0.22 2.11-1.39 2.11-1.2 0-1.44-1.27-1.44-2.5v-1.99h4.54v-2.76c-0.01-2.16-0.71-3.91-3.06-3.91zm1.39 5.26h-2.86v-1.51c0-1.32 0.29-2.28 1.44-2.28 1.23 0 1.42 1.13 1.42 2.26v1.53z"/>
	<path class="st2" d="m204.44 195.89h-1.71v3h-1.39v1.51h1.39v8.53c0 1.85 0.84 2.35 2.02 2.35 0.43 0 0.96-0.05 1.32-0.19v-1.32c-0.17 0.05-0.53 0.07-0.74 0.07-0.79 0-0.89-0.6-0.89-1.23v-8.22h1.73v-1.51h-1.73v-2.99z"/>
	<path class="st2" d="m210.21 198.7c-2.52 0-3.17 2.04-3.17 3.89v4.57c0 2.48 0.58 4.16 3.15 4.16 2.72 0 3.03-2.19 3.03-3.6v-0.07h-1.66v0.1c0 1.15-0.22 2.11-1.39 2.11-1.2 0-1.44-1.27-1.44-2.5v-1.99h4.54v-2.76c-0.01-2.16-0.7-3.91-3.06-3.91zm1.39 5.26h-2.86v-1.51c0-1.32 0.29-2.28 1.44-2.28 1.23 0 1.42 1.13 1.42 2.26v1.53z"/>
	<path class="st2" d="m216.72 200.79c0-0.82-0.02-1.59-0.05-1.9h-1.63c0.02 1.08 0.02 2.19 0.02 4.16v8.07h1.71v-7.19c0-2.21 1.03-3.1 2.52-3.1v-2.11c-1.06 0.03-2.11 0.58-2.57 2.07z"/>
	<path class="st2" d="m226.04 201.84c0-1.83-0.65-3.15-2.79-3.15-2.28 0-2.96 1.44-2.96 3.15v0.31h1.68v-0.34c0-0.94 0.26-1.68 1.2-1.68 0.96 0 1.15 0.72 1.15 1.83v1.92h-0.53c-2.19 0-3.89 0.99-3.89 3.75v0.22c0 1.9 0.7 3.46 2.48 3.46 0.84 0 1.61-0.29 1.99-1.18 0 0.19 0.07 0.7 0.12 0.99h1.59c-0.02-0.36-0.05-1.27-0.05-2.11v-7.17zm-1.65 5.22c0 1.83-0.38 2.71-1.51 2.71-0.96 0-1.3-0.86-1.3-1.97v-0.19c0-1.78 0.82-2.35 2.21-2.35h0.6v1.8z"/>
	<path class="st2" d="m232.24 198.7c-1.15 0-1.88 0.53-2.24 1.42 0-0.53-0.05-0.96-0.07-1.23h-1.63c0.02 0.6 0.02 1.27 0.02 3.73v8.51h1.71v-8.05c0-2.31 0.6-2.81 1.63-2.81 0.89 0 1.27 0.6 1.27 1.78v9.08h1.71v-9.42c0-2.24-1.05-3.01-2.4-3.01z"/>
	<path class="st2" d="m239.64 203.86c-1.23-0.82-1.51-1.23-1.51-2.19 0-0.94 0.34-1.51 1.15-1.51 0.89 0 1.18 0.6 1.18 1.63v0.67h1.66v-0.55c0-1.85-0.65-3.22-2.83-3.22-1.99 0-2.86 1.32-2.86 3.12 0 1.71 0.77 2.57 2.4 3.65 1.39 0.91 1.73 1.47 1.73 2.67 0 1.11-0.36 1.71-1.3 1.71-0.86 0-1.35-0.65-1.35-1.83v-0.53h-1.73v0.55c0 1.68 0.62 3.27 3 3.27 2.11 0 3.1-1.18 3.1-3.41 0-2.01-0.84-2.85-2.64-4.03z"/>
	<path class="st2" d="m250.24 195.07h-2.96v16.05h1.73v-7.09h1.11c2.91 0 3.63-1.78 3.63-4.18v-0.99c-0.01-2.59-1.14-3.79-3.51-3.79zm1.8 4.76c0 1.66-0.26 2.76-2.09 2.76h-0.94v-6.08h1.08c1.66 0 1.95 1.15 1.95 2.45v0.87z"/>
	<path class="st2" d="m257.06 200.79c0-0.82-0.02-1.59-0.05-1.9h-1.63c0.02 1.08 0.02 2.19 0.02 4.16v8.07h1.71v-7.19c0-2.21 1.03-3.1 2.52-3.1v-2.11c-1.06 0.03-2.12 0.58-2.57 2.07z"/>
	<path class="st2" d="m263.86 198.7c-1.99 0-3.24 1.27-3.24 3.63v5.21c0 2.62 1.18 3.77 3.17 3.77 1.97 0 3.22-1.18 3.22-3.84v-5.12c0-2.31-1.11-3.65-3.15-3.65zm1.41 8.89c0 1.54-0.5 2.19-1.47 2.19-1.01 0-1.47-0.84-1.47-2.19v-5.29c0-1.32 0.43-2.09 1.47-2.09 1.08 0 1.47 0.89 1.47 2.09v5.29z"/>
	<path class="st2" d="m271.81 203.86c-1.23-0.82-1.51-1.23-1.51-2.19 0-0.94 0.34-1.51 1.15-1.51 0.89 0 1.18 0.6 1.18 1.63v0.67h1.66v-0.55c0-1.85-0.65-3.22-2.83-3.22-1.99 0-2.86 1.32-2.86 3.12 0 1.71 0.77 2.57 2.4 3.65 1.39 0.91 1.73 1.47 1.73 2.67 0 1.11-0.36 1.71-1.3 1.71-0.86 0-1.35-0.65-1.35-1.83v-0.53h-1.73v0.55c0 1.68 0.62 3.27 3 3.27 2.11 0 3.1-1.18 3.1-3.41 0-2.01-0.84-2.85-2.64-4.03z"/>
	<path class="st2" d="m278.25 195.89h-1.71v3h-1.39v1.51h1.39v8.53c0 1.85 0.84 2.35 2.02 2.35 0.43 0 0.96-0.05 1.32-0.19v-1.32c-0.17 0.05-0.53 0.07-0.74 0.07-0.79 0-0.89-0.6-0.89-1.23v-8.22h1.73v-1.51h-1.73v-2.99z"/>
	<path class="st2" d="m286.99 201.84c0-1.83-0.65-3.15-2.79-3.15-2.28 0-2.96 1.44-2.96 3.15v0.31h1.68v-0.34c0-0.94 0.26-1.68 1.2-1.68 0.96 0 1.15 0.72 1.15 1.83v1.92h-0.53c-2.19 0-3.89 0.99-3.89 3.75v0.22c0 1.9 0.7 3.46 2.48 3.46 0.84 0 1.61-0.29 1.99-1.18 0 0.19 0.07 0.7 0.12 0.99h1.59c-0.02-0.36-0.05-1.27-0.05-2.11v-7.17zm-1.66 5.22c0 1.83-0.38 2.71-1.51 2.71-0.96 0-1.3-0.86-1.3-1.97v-0.19c0-1.78 0.82-2.35 2.21-2.35h0.6v1.8z"/>
	<path class="st2" d="m291.17 195.89h-1.71v3h-1.39v1.51h1.39v8.53c0 1.85 0.84 2.35 2.02 2.35 0.43 0 0.96-0.05 1.32-0.19v-1.32c-0.17 0.05-0.53 0.07-0.74 0.07-0.79 0-0.89-0.6-0.89-1.23v-8.22h1.73v-1.51h-1.73v-2.99z"/>
	<path class="st2" d="m296.94 198.7c-2.52 0-3.17 2.04-3.17 3.89v4.57c0 2.48 0.58 4.16 3.15 4.16 2.71 0 3.03-2.19 3.03-3.6v-0.07h-1.66v0.1c0 1.15-0.22 2.11-1.39 2.11-1.2 0-1.44-1.27-1.44-2.5v-1.99h4.54v-2.76c-0.01-2.16-0.71-3.91-3.06-3.91zm1.39 5.26h-2.86v-1.51c0-1.32 0.29-2.28 1.44-2.28 1.23 0 1.42 1.13 1.42 2.26v1.53z"/>
	<path class="st2" d="m309.5 207.18c0 1.51-0.22 2.59-1.47 2.59-1.2 0-1.56-1.06-1.56-2.67v-8.31c0-1.42 0.31-2.38 1.51-2.38 1.25 0 1.47 1.06 1.47 2.33v0.74h1.73v-0.62c0-2.09-0.48-4.01-3.17-4.01-2.19 0-3.29 1.42-3.29 3.99v8.17c0 2.35 0.48 4.33 3.27 4.33 2.91 0 3.27-2.23 3.27-4.28v-0.55h-1.75v0.67z"/>
	<path class="st2" d="m318.68 201.84c0-1.83-0.65-3.15-2.79-3.15-2.28 0-2.96 1.44-2.96 3.15v0.31h1.68v-0.34c0-0.94 0.26-1.68 1.2-1.68 0.96 0 1.15 0.72 1.15 1.83v1.92h-0.53c-2.19 0-3.89 0.99-3.89 3.75v0.22c0 1.9 0.7 3.46 2.48 3.46 0.84 0 1.61-0.29 1.99-1.18 0 0.19 0.07 0.7 0.12 0.99h1.59c-0.02-0.36-0.05-1.27-0.05-2.11v-7.17zm-1.66 5.22c0 1.83-0.38 2.71-1.51 2.71-0.96 0-1.3-0.86-1.3-1.97v-0.19c0-1.78 0.82-2.35 2.21-2.35h0.6v1.8z"/>
	<path class="st2" d="m324.88 198.7c-1.15 0-1.87 0.53-2.24 1.42 0-0.53-0.05-0.96-0.07-1.23h-1.63c0.02 0.6 0.02 1.27 0.02 3.73v8.51h1.71v-8.05c0-2.31 0.6-2.81 1.63-2.81 0.89 0 1.27 0.6 1.27 1.78v9.08h1.71v-9.42c0-2.24-1.06-3.01-2.4-3.01z"/>
	<path class="st2" d="m332.25 198.7c-2.31 0-3.08 1.66-3.08 3.72v4.76c0 2.47 0.6 4.13 2.98 4.13 2.5 0 3.05-1.78 3.05-3.89v-0.17h-1.71v0.38c0 1.56-0.34 2.21-1.3 2.21-1.08 0-1.3-1.15-1.3-2.28v-5.24c0-1.44 0.38-2.16 1.32-2.16 1.08 0 1.27 0.96 1.27 2.07v0.43h1.71v-0.5c0.02-1.64-0.41-3.46-2.94-3.46z"/>
	<path class="st2" d="m339.85 198.7c-2.52 0-3.17 2.04-3.17 3.89v4.57c0 2.48 0.58 4.16 3.15 4.16 2.71 0 3.03-2.19 3.03-3.6v-0.07h-1.66v0.1c0 1.15-0.22 2.11-1.39 2.11-1.2 0-1.44-1.27-1.44-2.5v-1.99h4.54v-2.76c-0.01-2.16-0.71-3.91-3.06-3.91zm1.39 5.26h-2.86v-1.51c0-1.32 0.29-2.28 1.44-2.28 1.23 0 1.42 1.13 1.42 2.26v1.53z"/>
	<path class="st2" d="m346.36 200.79c0-0.82-0.02-1.59-0.05-1.9h-1.63c0.02 1.08 0.02 2.19 0.02 4.16v8.07h1.71v-7.19c0-2.21 1.03-3.1 2.52-3.1v-2.11c-1.06 0.03-2.12 0.58-2.57 2.07z"/>
	<path class="st2" d="m355.17 195.07l-2.64 16.05h1.73l0.77-5.12h2.72l0.82 5.12h1.8l-2.76-16.05h-2.44zm0.1 9.35c0.43-2.93 1.01-6.54 1.06-7.76h0.07c0.17 1.51 0.55 4.23 1.13 7.76h-2.26z"/>
	<path class="st2" d="m368.56 208.74h-0.02c-0.14-1.54-0.5-3.41-1.56-9.85h-1.71c-1.08 6.34-1.42 8.29-1.59 9.88h-0.02c-0.12-1.59-0.41-3.63-1.32-9.88h-1.8l2.11 12.23h1.8c0.84-4.52 1.47-7.69 1.61-9.49h0.02c0.22 1.9 0.86 5.46 1.51 9.49h1.8l2.21-12.23h-1.73c-1.05 7.04-1.19 8.51-1.31 9.85z"/>
	<path class="st2" d="m378.41 201.84c0-1.83-0.65-3.15-2.79-3.15-2.28 0-2.96 1.44-2.96 3.15v0.31h1.68v-0.34c0-0.94 0.26-1.68 1.2-1.68 0.96 0 1.15 0.72 1.15 1.83v1.92h-0.53c-2.19 0-3.89 0.99-3.89 3.75v0.22c0 1.9 0.7 3.46 2.48 3.46 0.84 0 1.61-0.29 1.99-1.18 0 0.19 0.07 0.7 0.12 0.99h1.59c-0.02-0.36-0.05-1.27-0.05-2.11v-7.17zm-1.66 5.22c0 1.83-0.38 2.71-1.51 2.71-0.96 0-1.3-0.86-1.3-1.97v-0.19c0-1.78 0.82-2.35 2.21-2.35h0.6v1.8z"/>
	<path class="st2" d="m382.34 200.79c0-0.82-0.02-1.59-0.05-1.9h-1.63c0.02 1.08 0.02 2.19 0.02 4.16v8.07h1.71v-7.19c0-2.21 1.03-3.1 2.52-3.1v-2.11c-1.05 0.03-2.11 0.58-2.57 2.07z"/>
	<path class="st2" d="m389.07 198.7c-2.52 0-3.17 2.04-3.17 3.89v4.57c0 2.48 0.58 4.16 3.15 4.16 2.71 0 3.03-2.19 3.03-3.6v-0.07h-1.66v0.1c0 1.15-0.22 2.11-1.39 2.11-1.2 0-1.44-1.27-1.44-2.5v-1.99h4.54v-2.76c-0.01-2.16-0.7-3.91-3.06-3.91zm1.4 5.26h-2.86v-1.51c0-1.32 0.29-2.28 1.44-2.28 1.23 0 1.42 1.13 1.42 2.26v1.53z"/>
	<path class="st2" d="m397.84 198.7c-1.15 0-1.87 0.53-2.24 1.42 0-0.53-0.05-0.96-0.07-1.23h-1.63c0.02 0.6 0.02 1.27 0.02 3.73v8.51h1.71v-8.05c0-2.31 0.6-2.81 1.63-2.81 0.89 0 1.27 0.6 1.27 1.78v9.08h1.71v-9.42c0-2.24-1.05-3.01-2.4-3.01z"/>
	<path class="st2" d="m405.31 198.7c-2.52 0-3.17 2.04-3.17 3.89v4.57c0 2.48 0.58 4.16 3.15 4.16 2.71 0 3.03-2.19 3.03-3.6v-0.07h-1.66v0.1c0 1.15-0.22 2.11-1.39 2.11-1.2 0-1.44-1.27-1.44-2.5v-1.99h4.54v-2.76c-0.01-2.16-0.7-3.91-3.06-3.91zm1.4 5.26h-2.86v-1.51c0-1.32 0.29-2.28 1.44-2.28 1.23 0 1.42 1.13 1.42 2.26v1.53z"/>
	<path class="st2" d="m413.14 203.86c-1.23-0.82-1.51-1.23-1.51-2.19 0-0.94 0.34-1.51 1.15-1.51 0.89 0 1.18 0.6 1.18 1.63v0.67h1.66v-0.55c0-1.85-0.65-3.22-2.83-3.22-1.99 0-2.86 1.32-2.86 3.12 0 1.71 0.77 2.57 2.4 3.65 1.39 0.91 1.73 1.47 1.73 2.67 0 1.11-0.36 1.71-1.3 1.71-0.86 0-1.35-0.65-1.35-1.83v-0.53h-1.73v0.55c0 1.68 0.62 3.27 3 3.27 2.11 0 3.1-1.18 3.1-3.41 0.01-2.01-0.83-2.85-2.64-4.03z"/>
	<path class="st2" d="m420.45 203.86c-1.23-0.82-1.51-1.23-1.51-2.19 0-0.94 0.34-1.51 1.15-1.51 0.89 0 1.18 0.6 1.18 1.63v0.67h1.66v-0.55c0-1.85-0.65-3.22-2.83-3.22-1.99 0-2.86 1.32-2.86 3.12 0 1.71 0.77 2.57 2.4 3.65 1.39 0.91 1.73 1.47 1.73 2.67 0 1.11-0.36 1.71-1.3 1.71-0.86 0-1.35-0.65-1.35-1.83v-0.53h-1.73v0.55c0 1.68 0.62 3.27 3 3.27 2.11 0 3.1-1.18 3.1-3.41 0-2.01-0.84-2.85-2.64-4.03z"/>
	<path class="st1" d="m94.19 91.51c-0.71-1.19-1.41-2.36-2.09-3.5 0.68 1.14 1.38 2.31 2.09 3.5z"/>
	<path class="st1" d="m164.68 109.03c-0.08 0.18-0.16 0.34-0.25 0.53 0.09-0.18 0.17-0.35 0.25-0.53z"/>
	<path class="st1" d="m97.49 97.04c-0.75-1.26-1.5-2.5-2.22-3.72 0.73 1.22 1.47 2.46 2.22 3.72z"/>
	<path class="st1" d="m99.79 100.87c-0.77-1.29-1.54-2.57-2.29-3.83 0.75 1.26 1.51 2.54 2.29 3.83z"/>
	<path class="st1" d="m104.53 108.8c-1.2-2.01-2.4-4.01-3.57-5.97 1.17 1.96 2.37 3.95 3.57 5.97z"/>
	<path class="st1" d="m165.95 106.34c-0.07 0.16-0.15 0.33-0.24 0.52 0.08-0.19 0.16-0.37 0.24-0.52z"/>
	<path class="st1" d="m163.77 111c-0.15 0.31-0.3 0.63-0.45 0.96 0.15-0.33 0.3-0.65 0.45-0.96z"/>
	<path class="st1" d="m161.4 116.06c-0.62 1.32-1.27 2.72-1.96 4.19 0.68-1.47 1.34-2.88 1.96-4.19z"/>
	<path class="st1" d="m140.96 64.78l25.53 40.4-25.53-40.4h-18.59 18.59z"/>
	<path class="st1" d="m159.07 121.03c-0.2 0.43-0.41 0.87-0.61 1.31 0.2-0.44 0.4-0.88 0.61-1.31z"/>
	<path class="st1" d="m141.99 157.36c-0.68 1.43-1.31 2.78-1.9 4.02 0.59-1.24 1.23-2.59 1.9-4.02z"/>
	<path class="st1" d="m155.66 128.29l-38.2-63.51h-18.42l48.55 80.71c2.65-5.65 5.46-11.63 8.07-17.2z"/>
	<path class="st1" d="m140.07 161.42c-0.6 1.26-1.14 2.41-1.63 3.43 0.49-1.02 1.04-2.18 1.63-3.43z"/>
	<path class="st1" d="m162.79 113.08c-0.02 0.03-0.03 0.07-0.05 0.1 0.02-0.03 0.04-0.07 0.05-0.1z"/>
	<path class="st1" d="m81.2 69.79c-0.32-0.53-0.6-1.01-0.85-1.42 0.25 0.41 0.53 0.89 0.85 1.42z"/>
	<path class="st1" d="m142.02 157.31c1.06-2.24 2.21-4.68 3.42-7.24-1.21 2.56-2.37 5-3.42 7.24z"/>
	<path class="st1" d="m95.38 66.86l-1.26-2.09h-15.95 15.89l1.32 2.09z"/>
	<path class="st1" d="m166.38 105.42c-0.01 0.03-0.02 0.05-0.04 0.08 0.01-0.03 0.02-0.06 0.04-0.08z"/>
	<path class="st1" d="m158.04 123.22c-0.04 0.1-0.09 0.19-0.14 0.29 0.05-0.1 0.1-0.2 0.14-0.29z"/>
	<path class="st1" d="m92.1 88.01c-1.02-1.71-2-3.35-2.94-4.91 0.94 1.57 1.92 3.21 2.94 4.91z"/>
	<path class="st1" d="m89.16 83.1c-0.62-1.04-1.22-2.05-1.8-3.01 0.58 0.97 1.18 1.97 1.8 3.01z"/>
	<path class="st1" d="m82.26 71.56c-0.38-0.64-0.74-1.23-1.06-1.77 0.32 0.53 0.67 1.12 1.06 1.77z"/>
	<path class="st3" d="m48.39 230.35c-0.21 0.28-0.23 0.76-0.04 1.25 0.2 0.5 0.57 0.94 0.99 1.17 7.42 4.05 15.1 7.49 22.97 10.3 1.6 11.23 3.21 22.53 4.82 33.87 0.09 0.6 0.51 1.19 1.06 1.45 0.06 0.03 0.14 0.06 0.21 0.08 0.46 0.14 0.92 0.02 1.14-0.37 9.71-16.27 19.63-34.4 29.48-53.51-8.25-15.42-16.4-31.3-24.43-47.16-12.43 20.12-24.77 38.31-36.2 52.92z"/>
	<path class="st4" d="m76.47 69.53c-0.24-0.39-0.64-0.62-1.07-0.63-0.06 0-0.12 0-0.18 0.01-0.49 0.07-0.9 0.43-1.05 0.93-5.02 16.77-10.03 33.11-14.96 48.83-0.11 0.34-0.07 0.73 0.11 1.07 29.11 56.45 60.21 120.76 91.27 167.66 0.24 0.36 0.67 0.5 1.12 0.37l0.18-0.06c0.52-0.22 0.94-0.75 1.07-1.33 2.67-12.12 5.32-24.22 7.94-36.25 8.25-2.7 16.3-6.13 24.04-10.27 0.43-0.23 0.83-0.7 1.03-1.22s0.18-1-0.06-1.27c-34.64-38.48-73.98-108.04-109.44-167.84zm29.13 104.06l-2.05-7.11-7.4-0.25 6.13-4.15-2.05-7.11 5.84 4.55 6.13-4.15-2.52 6.96 5.84 4.55-7.4-0.25-2.52 6.96zm17.33 33.28l-2.9-10.06-10.46-0.35 8.67-5.87-2.9-10.06 8.26 6.43 8.67-5.87-3.56 9.84 8.26 6.43-10.46-0.35-3.58 9.86zm27 25.62l-3.72 12.15-4.13-12.02-12.71 0.22 10.15-7.64-4.13-12.02 10.41 7.29 10.15-7.64-3.72 12.15 10.41 7.29-12.71 0.22z"/>
	<path class="st3" d="m158.45 122.34c-0.14 0.29-0.27 0.58-0.41 0.87 0.14-0.29 0.28-0.58 0.41-0.87z"/>
	<path class="st3" d="m159.43 120.24c-0.12 0.26-0.24 0.52-0.37 0.79 0.13-0.26 0.25-0.52 0.37-0.79z"/>
	<path class="st3" d="m166.34 105.5c-0.09 0.2-0.22 0.48-0.39 0.84 0.17-0.36 0.3-0.65 0.39-0.84z"/>
	<path class="st3" d="m165.7 106.86c-0.28 0.59-0.62 1.32-1.02 2.18 0.4-0.86 0.75-1.6 1.02-2.18z"/>
	<path class="st3" d="m162.74 113.18c-0.42 0.9-0.87 1.86-1.35 2.88 0.48-1.02 0.93-1.98 1.35-2.88z"/>
	<path class="st3" d="m164.44 109.56c-0.21 0.45-0.43 0.93-0.67 1.44 0.23-0.51 0.46-0.99 0.67-1.44z"/>
	<path class="st3" d="m163.31 111.96c-0.17 0.36-0.34 0.73-0.52 1.12 0.18-0.38 0.36-0.76 0.52-1.12z"/>
	<path class="st3" d="m166.49 105.17s-0.04 0.09-0.11 0.24c0.06-0.14 0.11-0.24 0.11-0.24z"/>
	<path class="st3" d="m157.82 123.69c0.03-0.06 0.06-0.13 0.09-0.19-0.03 0.07-0.06 0.13-0.09 0.19z"/>
	<path class="st3" d="m122.38 64.78l35.44 58.92c0.03-0.06 0.06-0.13 0.09-0.19 0.04-0.1 0.09-0.19 0.14-0.29 0.14-0.29 0.27-0.58 0.41-0.87 0.21-0.44 0.41-0.88 0.61-1.31 0.12-0.27 0.25-0.53 0.37-0.79 0.69-1.47 1.35-2.87 1.96-4.19 0.47-1.01 0.92-1.98 1.35-2.88 0.02-0.03 0.03-0.07 0.05-0.1 0.18-0.38 0.35-0.75 0.52-1.12 0.15-0.33 0.31-0.65 0.45-0.96 0.24-0.51 0.46-0.99 0.67-1.44 0.09-0.19 0.16-0.35 0.25-0.53 0.4-0.86 0.74-1.59 1.02-2.18 0.09-0.19 0.17-0.36 0.24-0.52 0.17-0.36 0.3-0.64 0.39-0.84 0.01-0.03 0.03-0.05 0.04-0.08 0.07-0.16 0.11-0.24 0.11-0.24l-25.53-40.4c-6.65 0.01-12.74 0.01-18.58 0.01z"/>
	<path class="st3" d="m125.65 143.94c-0.7-1.16-1.41-2.34-2.14-3.55 0.72 1.21 1.44 2.39 2.14 3.55z"/>
	<path class="st3" d="m133.08 156.2c-0.53-0.87-1.08-1.78-1.66-2.73 0.58 0.95 1.13 1.86 1.66 2.73z"/>
	<path class="st3" d="m131.42 153.47c-0.58-0.95-1.18-1.94-1.8-2.97 0.62 1.03 1.22 2.02 1.8 2.97z"/>
	<path class="st3" d="m79.71 67.31c-0.51-0.85-1.03-1.69-1.54-2.54 0.52 0.85 1.03 1.7 1.54 2.54z"/>
	<path class="st3" d="m122.4 138.56c-0.74-1.23-1.5-2.48-2.26-3.76 0.77 1.28 1.52 2.53 2.26 3.76z"/>
	<path class="st3" d="m134.59 158.66c-0.47-0.77-0.98-1.6-1.51-2.46 0.53 0.86 1.03 1.68 1.51 2.46z"/>
	<path class="st3" d="m110.61 118.93c-0.81-1.35-1.62-2.71-2.44-4.06 0.81 1.35 1.62 2.71 2.44 4.06z"/>
	<path class="st3" d="m142.02 157.31c-0.01 0.02-0.01 0.03-0.02 0.05 0-0.02 0.01-0.03 0.02-0.05z"/>
	<path class="st3" d="m140.09 161.39c-0.01 0.01-0.01 0.02-0.02 0.04 0.01-0.02 0.01-0.03 0.02-0.04z"/>
	<path class="st3" d="m80.35 68.37c0.25 0.41 0.53 0.89 0.85 1.42s0.67 1.12 1.06 1.77c1.35 2.25 3.08 5.15 5.1 8.53 0.58 0.97 1.18 1.97 1.8 3.01 0.93 1.56 1.91 3.2 2.94 4.91 0.68 1.14 1.38 2.31 2.09 3.5 0.36 0.6 0.72 1.2 1.08 1.81 0.73 1.22 1.47 2.46 2.22 3.72s1.52 2.54 2.29 3.83c0.39 0.65 0.78 1.3 1.17 1.95 1.18 1.96 2.37 3.96 3.57 5.97s2.42 4.04 3.64 6.07c0.81 1.35 1.62 2.71 2.44 4.06 3.25 5.42 6.48 10.79 9.54 15.88 0.77 1.27 1.52 2.52 2.26 3.76 0.37 0.62 0.74 1.23 1.1 1.83 0.73 1.21 1.44 2.39 2.14 3.55 1.4 2.31 2.73 4.51 3.97 6.56 0.62 1.03 1.22 2.02 1.8 2.97s1.13 1.86 1.66 2.73 1.03 1.69 1.51 2.46c1.66 2.71 2.98 4.83 3.85 6.19 0.49-1.03 1.04-2.18 1.63-3.43 0.01-0.01 0.01-0.02 0.02-0.04 0.59-1.25 1.23-2.59 1.9-4.02 0.01-0.02 0.01-0.03 0.02-0.05 1.06-2.24 2.21-4.68 3.42-7.24l-50.04-83.21-1.32-2.09h-15.89c0.51 0.84 1.03 1.69 1.54 2.54 0.17 0.29 0.39 0.65 0.64 1.06z"/>
	<path class="st5" d="m157.31 124.78c0.17-0.37 0.34-0.73 0.51-1.09-0.17 0.36-0.34 0.73-0.51 1.09z"/>
</svg>
