<?xml version="1.0" encoding="utf-8"?>
<!-- Generator: Adobe Illustrator 16.0.3, SVG Export Plug-In . SVG Version: 6.00 Build 0)  -->
<!DOCTYPE svg PUBLIC "-//W3C//DTD SVG 1.1//EN" "http://www.w3.org/Graphics/SVG/1.1/DTD/svg11.dtd">
<svg version="1.1" id="Capa_1" xmlns="http://www.w3.org/2000/svg" xmlns:xlink="http://www.w3.org/1999/xlink" x="0px" y="0px"
	 width="487.334px" height="200px" viewBox="0 0 487.334 200" enable-background="new 0 0 487.334 200" xml:space="preserve">
<path id="path14" fill="#0C3A69" d="M140.505,159.235c0-7.438,4.959-12.195,11.727-12.195c2.379,0,4.892,0.603,6.5,1.374
	l-0.336,2.947c-1.842-0.637-3.752-1.44-6.165-1.44c-5.394,0-8.241,4.121-8.241,9.314s2.847,9.315,8.309,9.315
	c2.345,0,4.255-0.771,6.097-1.408l0.336,2.947c-1.709,0.771-4.121,1.341-6.466,1.341
	C145.464,171.431,140.505,166.673,140.505,159.235"/>
<path id="path16" fill="#0C3A69" d="M172.837,170.962l-0.334-1.811c-1.04,1.442-2.413,2.146-4.558,2.146
	c-3.853,0-6.064-2.278-6.064-7.203v-9.549h3.015v8.711c0,3.484,1.105,5.359,3.82,5.359c1.508,0,2.982-0.567,3.787-1.875v-12.195
	h3.016v16.417H172.837"/>
<path id="path18" fill="#0C3A69" d="M188.282,157.259h-1.038c-1.374,0-3.183,1.07-3.753,2.11v11.593h-3.216v-16.417h2.479
	l0.369,2.714c1.977-2.245,3.552-3.316,5.562-3.316h0.268L188.282,157.259"/>
<path id="path20" fill="#0C3A69" d="M191.701,170.962v-16.417h3.015v16.417H191.701z M191.701,150.859v-3.351h3.015v3.351H191.701"
	/>
<path id="path22" fill="#0C3A69" d="M211.267,170.962v-9.046c0-3.485-1.172-5.027-4.288-5.027c-1.876,0-3.651,0.671-4.49,2.146
	v11.927h-3.015v-16.417h2.346l0.334,1.743c1.875-1.676,3.686-2.078,5.429-2.078c4.79,0,6.7,2.981,6.7,7.706v9.046H211.267"/>
<path id="path24" fill="#0C3A69" d="M220.917,160.71c0,2.58,1.608,4.154,3.92,4.154c2.513,0,3.886-1.876,3.886-4.256
	c0-2.579-1.642-3.987-3.954-3.987C222.257,156.621,220.917,158.329,220.917,160.71L220.917,160.71z M223.196,171.431
	c-1.508,0.47-2.614,1.709-2.614,2.882c0,1.508,1.776,2.682,4.926,2.682c3.35,0,5.058-1.342,5.058-2.614
	c0-1.174-1.407-2.011-4.389-2.547C226.11,171.833,223.597,171.498,223.196,171.431z M217.701,174.38c0-0.905,0.334-2.78,2.915-3.687
	c-1.407-0.669-1.675-1.574-1.675-2.078c0-0.567,0.368-1.707,1.943-2.443c-2.345-1.71-2.849-3.687-2.849-5.361
	c0-3.619,2.346-6.601,6.701-6.601c1.541,0,2.848,0.368,4.189,1.206c1.005-0.537,2.345-0.938,3.987-0.938h0.268l-0.369,2.012h-0.771
	c-0.235,0-1.24,0.066-1.943,0.233c1.207,1.441,1.508,2.714,1.508,3.92c0,3.315-2.345,6.533-6.633,6.533
	c-0.771,0-1.642-0.101-2.346-0.302c-0.469,0.269-0.804,0.603-0.804,1.005c0,0.838,1.206,1.073,5.092,1.743
	c2.581,0.435,6.702,1.34,6.702,4.557c0,2.646-2.815,5.158-8.242,5.158C219.677,179.337,217.701,176.558,217.701,174.38"/>
<path id="path26" fill="#0C3A69" d="M252.912,150.391v20.571h-3.183v-20.571h-6.834v-2.882h16.854v2.882H252.912"/>
<path id="path28" fill="#0C3A69" d="M262.427,162.754c0,3.686,1.811,5.861,5.06,5.861c3.25,0,5.061-2.176,5.061-5.861
	s-1.811-5.865-5.061-5.865C264.237,156.889,262.427,159.068,262.427,162.754z M259.346,162.754c0-4.759,2.982-8.544,8.141-8.544
	c5.127,0,8.143,3.785,8.143,8.544c0,4.758-3.016,8.543-8.143,8.543C262.328,171.297,259.346,167.512,259.346,162.754"/>
<path id="path30" fill="#0C3A69" d="M281.457,160.71c0,2.58,1.61,4.154,3.922,4.154c2.512,0,3.885-1.876,3.885-4.256
	c0-2.579-1.641-3.987-3.953-3.987C282.798,156.621,281.457,158.329,281.457,160.71z M283.736,171.431
	c-1.507,0.47-2.613,1.709-2.613,2.882c0,1.508,1.775,2.682,4.926,2.682c3.351,0,5.059-1.342,5.059-2.614
	c0-1.174-1.406-2.011-4.39-2.547C286.651,171.833,284.139,171.498,283.736,171.431z M278.242,174.38c0-0.905,0.335-2.78,2.914-3.687
	c-1.407-0.669-1.675-1.574-1.675-2.078c0-0.567,0.369-1.707,1.944-2.443c-2.347-1.71-2.849-3.687-2.849-5.361
	c0-3.619,2.345-6.601,6.701-6.601c1.541,0,2.848,0.368,4.188,1.206c1.004-0.537,2.345-0.938,3.985-0.938h0.269l-0.367,2.012h-0.771
	c-0.234,0-1.241,0.066-1.942,0.233c1.205,1.441,1.507,2.714,1.507,3.92c0,3.315-2.345,6.533-6.634,6.533
	c-0.771,0-1.641-0.101-2.346-0.302c-0.469,0.269-0.804,0.603-0.804,1.005c0,0.838,1.207,1.073,5.092,1.743
	c2.58,0.435,6.701,1.34,6.701,4.557c0,2.646-2.815,5.158-8.242,5.158C280.218,179.337,278.242,176.558,278.242,174.38"/>
<path id="path32" fill="#0C3A69" d="M299.116,160.676h8.645c0-2.312-1.273-3.787-4.021-3.787
	C301.059,156.889,299.719,158.298,299.116,160.676L299.116,160.676z M298.848,162.754c0.436,4.558,3.049,5.861,6.165,5.861
	c1.507,0,3.249-0.301,4.724-0.97l0.402,2.379c-1.273,0.569-3.116,1.272-5.495,1.272c-5.796,0-8.877-3.954-8.877-8.677
	c0-4.591,2.947-8.41,8.04-8.41c4.088,0,7.068,2.513,7.068,6.935c0,0.47-0.033,1.038-0.133,1.609H298.848"/>
<path id="path34" fill="#0C3A69" d="M322.971,171.297h-2.713c-3.117,0-4.289-1.943-4.289-3.921v-10.487h-2.813l0.269-2.344h2.545
	v-4.054l3.016-0.303v4.356h4.322v2.344h-4.322v8.646c0,3.148,0.202,3.35,3.45,3.35h0.771L322.971,171.297"/>
<path id="path36" fill="#0C3A69" d="M337.78,170.962v-8.779c0-3.885-1.007-5.294-3.92-5.294c-2.01,0-3.351,0.671-4.289,2.146v11.927
	h-3.049v-25.128h3.049v10.487c1.14-1.442,2.613-2.111,4.759-2.111c4.723,0,6.466,3.249,6.466,7.973v8.779H337.78"/>
<path id="path38" fill="#0C3A69" d="M347.731,160.676h8.645c0-2.312-1.274-3.787-4.021-3.787
	C349.674,156.889,348.333,158.298,347.731,160.676L347.731,160.676z M347.462,162.754c0.436,4.558,3.049,5.861,6.165,5.861
	c1.508,0,3.249-0.301,4.726-0.97l0.401,2.379c-1.274,0.569-3.116,1.272-5.495,1.272c-5.797,0-8.878-3.954-8.878-8.677
	c0-4.591,2.948-8.41,8.041-8.41c4.087,0,7.069,2.513,7.069,6.935c0,0.47-0.035,1.038-0.135,1.609H347.462"/>
<path id="path40" fill="#0C3A69" d="M371.218,157.259h-1.039c-1.374,0-3.183,1.07-3.752,2.11v11.593h-3.217v-16.417h2.479
	l0.37,2.714c1.977-2.245,3.551-3.316,5.562-3.316h0.269L371.218,157.259"/>
<path id="path42" fill="#0C3A69" d="M373.531,170.962v-2.881h3.015v2.881H373.531"/>
<path id="path44" fill="#0C3A69" d="M148.247,28.335V42.66h6.736c4.875,0,6.785-2.714,6.785-7.439c0-5.027-2.01-6.886-8.193-6.886
	H148.247z M148.247,46.933v12.314h-5.026V24.062h11.259c6.535,0,12.264,1.508,12.264,10.957c0,9.15-6.183,11.914-10.858,11.914
	H148.247"/>
<path id="path46" fill="#0C3A69" d="M183.628,38.688h-1.559c-2.061,0-4.775,1.609-5.629,3.167v17.392h-4.825v-24.63h3.719
	l0.553,4.071c2.966-3.367,5.329-4.975,8.344-4.975h0.402L183.628,38.688"/>
<path id="path48" fill="#0C3A69" d="M191.268,46.933c0,5.529,2.714,8.795,7.59,8.795c4.875,0,7.589-3.267,7.589-8.795
	c0-5.529-2.714-8.797-7.589-8.797C193.982,38.136,191.268,41.404,191.268,46.933z M186.643,46.933
	c0-7.138,4.474-12.819,12.215-12.819c7.69,0,12.214,5.681,12.214,12.819c0,7.137-4.524,12.817-12.214,12.817
	C191.117,59.75,186.643,54.07,186.643,46.933"/>
<path id="path50" fill="#0C3A69" d="M215.29,57.589l0.552-4.373c1.056,0.955,3.922,2.512,7.69,2.512
	c3.167,0,4.927-1.105,4.927-3.065c0-2.563-2.916-3.52-4.927-4.072c-3.367-0.905-7.74-2.11-7.74-7.088
	c0-3.769,2.514-7.389,9.249-7.389c3.267,0,5.176,0.855,6.684,1.609l-0.552,4.122c-1.458-1.207-3.267-2.162-6.032-2.162
	c-2.815,0-4.775,1.004-4.775,3.318c0,2.312,1.86,2.915,5.729,4.071c2.413,0.703,7.038,2.212,7.038,7.339
	c0,3.268-1.86,7.338-9.399,7.338C219.361,59.75,216.446,58.393,215.29,57.589"/>
<path id="path52" fill="#0C3A69" d="M251.123,59.75h-4.071c-4.672,0-6.433-2.915-6.433-5.881V38.136h-4.222l0.401-3.519h3.821
	v-6.082l4.523-0.452v6.534h6.483v3.519h-6.483v12.969c0,4.725,0.301,5.026,5.176,5.026h1.157L251.123,59.75"/>
<path id="path54" fill="#0C3A69" d="M269.368,46.933c-7.189,0.251-10.104,1.759-10.104,5.428c0,2.665,1.559,3.77,3.82,3.77
	c2.413,0,4.825-1.307,6.284-3.318V46.933z M276.456,59.75h-0.354c-4.373,0-5.328-1.307-6.333-3.619
	c-1.86,2.161-4.373,3.619-7.541,3.619c-4.572,0-7.589-3.015-7.589-7.138c0-6.937,8.444-8.696,14.729-8.796
	c0-4.675-1.911-5.681-5.379-5.681c-1.859,0-3.87,0.402-6.483,2.212l-0.654-3.669c1.961-1.509,5.076-2.565,8.343-2.565
	c6.233,0,8.696,2.916,8.696,11.813v5.027c0,3.519,0.202,5.177,2.815,5.177h0.451L276.456,59.75"/>
<path id="path56" fill="#0C3A69" d="M293.691,59.75h-4.071c-4.674,0-6.434-2.915-6.434-5.881V38.136h-4.223l0.402-3.519h3.819
	v-6.082l4.524-0.452v6.534h6.484v3.519h-6.484v12.969c0,4.725,0.302,5.026,5.177,5.026h1.156L293.691,59.75"/>
<path id="path58" fill="#0C3A69" d="M302.385,43.816h12.97c0-3.468-1.911-5.681-6.032-5.681
	C305.301,38.136,303.29,40.248,302.385,43.816z M301.983,46.933c0.653,6.836,4.575,8.795,9.249,8.795
	c2.261,0,4.876-0.452,7.088-1.457l0.603,3.568c-1.91,0.854-4.675,1.91-8.243,1.91c-8.696,0-13.32-5.931-13.32-13.019
	c0-6.886,4.423-12.617,12.063-12.617c6.132,0,10.605,3.771,10.605,10.406c0,0.704-0.05,1.558-0.201,2.413H301.983"/>
<path id="path60" fill="#0C3A69" d="M336.809,41.655c0-11.16,7.439-18.296,17.595-18.296c3.568,0,7.338,0.904,9.751,2.06
	l-0.503,4.424c-2.766-0.955-5.63-2.161-9.248-2.161c-8.094,0-12.366,6.181-12.366,13.974c0,7.791,4.272,13.974,12.465,13.974
	c3.52,0,6.384-1.156,9.149-2.111l0.503,4.423c-2.564,1.156-6.183,2.011-9.701,2.011C344.248,59.952,336.809,52.813,336.809,41.655"
	/>
<path id="path62" fill="#0C3A69" d="M382.748,46.933c-7.188,0.251-10.104,1.759-10.104,5.428c0,2.665,1.559,3.77,3.821,3.77
	c2.412,0,4.825-1.307,6.283-3.318V46.933z M389.836,59.75h-0.352c-4.374,0-5.328-1.307-6.334-3.619
	c-1.86,2.161-4.374,3.619-7.541,3.619c-4.573,0-7.59-3.015-7.59-7.138c0-6.937,8.445-8.696,14.729-8.796
	c0-4.675-1.91-5.681-5.378-5.681c-1.86,0-3.871,0.402-6.484,2.212l-0.653-3.669c1.961-1.509,5.076-2.565,8.343-2.565
	c6.233,0,8.697,2.916,8.697,11.813v5.027c0,3.519,0.2,5.177,2.815,5.177h0.45L389.836,59.75"/>
<path id="path64" fill="#0C3A69" d="M412.701,59.247V45.675c0-5.227-1.757-7.54-6.434-7.54c-2.814,0-5.478,1.005-6.735,3.218v17.893
	h-4.523v-24.63h3.519l0.503,2.614c2.815-2.513,5.529-3.117,8.143-3.117c7.188,0,10.052,4.475,10.052,11.561v13.572H412.701"/>
<path id="path66" fill="#0C3A69" d="M422.701,46.882c0-7.188,4.02-12.768,12.215-12.768c3.719,0,6.131,0.655,7.589,1.458
	l-0.704,4.072c-1.961-0.957-4.07-1.509-6.384-1.509c-5.479,0-8.092,3.268-8.092,8.746c0,5.378,2.613,8.896,8.092,8.896
	c2.313,0,4.474-0.552,6.435-1.506l0.603,3.619c-1.457,0.955-3.519,1.859-7.489,1.859C426.772,59.75,422.701,53.769,422.701,46.882"
	/>
<path id="path68" fill="#0C3A69" d="M451.097,43.816h12.969c0-3.468-1.91-5.681-6.031-5.681
	C454.013,38.136,452.002,40.248,451.097,43.816z M450.694,46.933c0.654,6.836,4.575,8.795,9.25,8.795
	c2.261,0,4.876-0.452,7.088-1.457l0.604,3.568c-1.911,0.854-4.677,1.91-8.244,1.91c-8.697,0-13.321-5.931-13.321-13.019
	c0-6.886,4.423-12.617,12.064-12.617c6.133,0,10.605,3.771,10.605,10.406c0,0.704-0.051,1.558-0.201,2.413H450.694"/>
<path id="path70" fill="#0C3A69" d="M486.328,38.688h-1.558c-2.061,0-4.774,1.609-5.63,3.167v17.392h-4.825v-24.63h3.72l0.553,4.071
	c2.966-3.367,5.327-4.975,8.345-4.975h0.401L486.328,38.688"/>
<path id="path72" fill="#0C3A69" d="M147.995,84.227v10.304h12.868v4.323h-12.868v16.235h-4.774V79.904h21.462v4.322H147.995"/>
<path id="path74" fill="#0C3A69" d="M170.511,102.774c0,5.528,2.714,8.797,7.59,8.797c4.875,0,7.589-3.269,7.589-8.797
	c0-5.529-2.714-8.796-7.589-8.796C173.225,93.978,170.511,97.245,170.511,102.774z M165.886,102.774
	c0-7.137,4.475-12.818,12.215-12.818c7.69,0,12.214,5.681,12.214,12.818c0,7.138-4.524,12.817-12.214,12.817
	C170.361,115.592,165.886,109.912,165.886,102.774"/>
<path id="path76" fill="#0C3A69" d="M212.175,115.089l-0.503-2.713c-1.557,2.161-3.619,3.216-6.835,3.216
	c-5.78,0-9.098-3.418-9.098-10.807V90.459h4.524v13.068c0,5.229,1.658,8.044,5.729,8.044c2.262,0,4.474-0.855,5.679-2.815V90.459
	h4.524v24.629H212.175"/>
<path id="path78" fill="#0C3A69" d="M241.023,115.089v-13.57c0-5.228-1.759-7.541-6.434-7.541c-2.815,0-5.479,1.005-6.735,3.217
	v17.894h-4.524V90.459h3.519l0.503,2.614c2.815-2.514,5.529-3.117,8.143-3.117c7.188,0,10.053,4.474,10.053,11.562v13.57H241.023"/>
<path id="path80" fill="#0C3A69" d="M255.595,102.774c0,4.826,2.614,8.797,6.937,8.797c3.619,0,7.691-2.463,7.691-8.646
	c0-5.931-4.072-8.947-7.691-8.947C258.209,93.978,255.595,97.748,255.595,102.774z M270.223,115.089l-0.503-3.115
	c-1.859,2.412-5.328,3.618-7.54,3.618c-6.283,0-11.209-5.63-11.209-12.817c0-6.735,4.323-12.818,11.209-12.818
	c2.212,0,5.431,0.553,7.54,3.117V77.391h4.523v37.698H270.223"/>
<path id="path82" fill="#0C3A69" d="M294.194,102.774c-7.188,0.251-10.104,1.759-10.104,5.428c0,2.665,1.559,3.771,3.821,3.771
	c2.413,0,4.825-1.308,6.283-3.318V102.774z M301.28,115.592h-0.352c-4.373,0-5.327-1.307-6.332-3.618
	c-1.86,2.16-4.374,3.618-7.541,3.618c-4.573,0-7.59-3.017-7.59-7.138c0-6.936,8.445-8.695,14.729-8.797
	c0-4.674-1.911-5.679-5.38-5.679c-1.858,0-3.869,0.402-6.482,2.211l-0.654-3.669c1.961-1.508,5.076-2.563,8.344-2.563
	c6.233,0,8.696,2.916,8.696,11.812v5.027c0,3.518,0.201,5.178,2.814,5.178h0.452L301.28,115.592"/>
<path id="path84" fill="#0C3A69" d="M318.519,115.592h-4.07c-4.675,0-6.435-2.916-6.435-5.881V93.978h-4.223l0.402-3.519h3.82
	v-6.082l4.524-0.453v6.535h6.483v3.519h-6.483v12.969c0,4.724,0.301,5.026,5.178,5.026h1.154L318.519,115.592"/>
<path id="path86" fill="#0C3A69" d="M323.895,115.089V90.459h4.523v24.629H323.895z M323.895,84.93v-5.025h4.523v5.025H323.895"/>
<path id="path88" fill="#0C3A69" d="M338.72,102.774c0,5.528,2.716,8.797,7.59,8.797c4.876,0,7.591-3.269,7.591-8.797
	c0-5.529-2.715-8.796-7.591-8.796C341.436,93.978,338.72,97.245,338.72,102.774z M334.095,102.774
	c0-7.137,4.475-12.818,12.215-12.818c7.691,0,12.215,5.681,12.215,12.818c0,7.138-4.523,12.817-12.215,12.817
	C338.569,115.592,334.095,109.912,334.095,102.774"/>
<path id="path90" fill="#0C3A69" d="M381.893,115.089v-13.57c0-5.228-1.758-7.541-6.433-7.541c-2.816,0-5.479,1.005-6.735,3.217
	v17.894H364.2V90.459h3.519l0.502,2.614c2.815-2.514,5.529-3.117,8.143-3.117c7.189,0,10.054,4.474,10.054,11.562v13.57H381.893"/>
<g id="g92">
	<g id="g94">
		<defs>
			<path id="SVGID_1_" d="M100.89,113.889l-0.761-0.616l-0.833,0.514l-59.489,36.795l-11.54-7.261l-6.141-3.865l17.346-10.584
				l1.899-1.16l-1.886-1.181l-6.123-3.833l-7.493-4.687l-0.731-0.459l-0.729,0.456c-2.701,1.688-5.163,3.202-7.543,4.663
				c-3.085,1.895-5.997,3.683-9.297,5.771c-4.72,2.983-7.313,6.949-7.305,11.163c0.011,4.178,2.606,8.097,7.312,11.042l0.727,0.453
				l3.01,1.886l1.87,1.169l0.376,0.235l0.55,0.347l-0.238,0.149l-5.556,3.467c-4.731,2.961-7.362,6.618-7.608,10.58
				c-0.223,3.586,1.549,7.02,5.124,9.93l0.764,0.62l0.835-0.521c0,0,9.606-5.993,21.354-13.325l1.378-0.859
				c23.316,14.586,55.469,34.699,55.469,34.699L86.467,200l0.763-0.622c3.575-2.908,5.347-6.345,5.125-9.931
				c-0.245-3.96-2.875-7.617-7.606-10.577l-28.942-18.217c7.929-4.922,19.983-12.331,29.138-17.961
				c6.697-4.116,11.985-7.367,13.463-8.291c4.731-2.96,7.36-6.618,7.607-10.58C106.236,120.235,104.465,116.8,100.89,113.889
				 M42.164,73.284l-1.876-1.176l-7.062-4.419l-6.558-4.104l-0.73-0.457l-0.729,0.457l-3.506,2.19
				c-5.05,3.156-9.413,5.882-14.397,9.035c-2.336,1.476-4.156,3.195-5.408,5.104C0.635,81.839-0.004,83.879,0,85.976
				c0.012,4.177,2.607,8.097,7.311,11.042c5.333,3.337,13.101,8.3,20.615,13.099c7.357,4.699,14.966,9.561,20.082,12.761
				c3.661,2.293,7.377,3.454,11.044,3.454c3.665,0,7.379-1.161,11.042-3.454l10.226-6.402l13.313-8.33l1.865-1.168l-1.865-1.167
				l-10.896-6.816l-2.557-1.602l-0.733-0.458l-0.73,0.458L59.263,109.62l-37.42-23.795l18.436-11.378L42.164,73.284 M106.014,90.134
				c0.222,3.586-1.549,7.02-5.125,9.93l-0.763,0.622l-0.835-0.521c-0.82-0.513-82.251-51.378-91.63-57.248
				c-4.705-2.946-7.3-6.864-7.309-11.043c-0.011-4.213,2.582-8.179,7.303-11.164c4.958-3.137,9.295-5.846,14.316-8.984
				c3.852-2.406,7.833-4.895,12.645-7.921c4.047-2.541,7.868-3.778,11.681-3.778c3.805,0,7.628,1.237,11.69,3.778
				c4.444,2.781,10.191,6.433,16.278,10.298c8.692,5.523,17.68,11.234,24.23,15.274c4.908,3.021,7.617,6.95,7.634,11.067
				c0.015,4.135-2.692,8.113-7.626,11.2c-3.06,1.916-5.401,3.325-7.663,4.688c-2.214,1.335-4.502,2.714-7.434,4.545l-0.733,0.462
				l-0.733-0.464l-13.345-8.45l-1.861-1.178l1.876-1.157l15.664-9.661l-37.782-23.7L22.205,31.718
				c11.175,7.018,68.728,43.161,76.203,47.838C103.139,82.516,105.767,86.173,106.014,90.134"/>
		</defs>
		<clipPath id="SVGID_2_">
			<use xlink:href="#SVGID_1_"  overflow="visible"/>
		</clipPath>
		<g id="g100" clip-path="url(#SVGID_2_)">
			<path id="path106" fill="#0C3A69" d="M100.89,113.889l-0.761-0.616l-0.833,0.514l-59.489,36.795l-11.54-7.261l-6.141-3.865
				l17.346-10.584l1.899-1.16l-1.886-1.181l-6.123-3.833l-7.493-4.687l-0.731-0.459l-0.729,0.456
				c-2.701,1.688-5.163,3.202-7.543,4.663c-3.085,1.895-5.997,3.683-9.297,5.771c-4.72,2.983-7.313,6.949-7.305,11.163
				c0.011,4.178,2.606,8.097,7.312,11.042l0.727,0.453l3.01,1.886l1.87,1.169l0.376,0.235l0.55,0.347l-0.238,0.149l-5.556,3.467
				c-4.731,2.961-7.362,6.618-7.608,10.58c-0.223,3.586,1.549,7.02,5.124,9.93l0.764,0.62l0.835-0.521
				c0,0,9.606-5.993,21.354-13.325l1.378-0.859c23.316,14.586,55.469,34.699,55.469,34.699L86.467,200l0.763-0.622
				c3.575-2.908,5.347-6.345,5.125-9.931c-0.245-3.96-2.875-7.617-7.606-10.577l-28.942-18.217
				c7.929-4.922,19.983-12.331,29.138-17.961c6.697-4.116,11.985-7.367,13.463-8.291c4.731-2.96,7.36-6.618,7.607-10.58
				C106.236,120.235,104.465,116.8,100.89,113.889 M42.164,73.284l-1.876-1.176l-7.062-4.419l-6.558-4.104l-0.73-0.457l-0.729,0.457
				l-3.506,2.19c-5.05,3.156-9.413,5.882-14.397,9.035c-2.336,1.476-4.156,3.195-5.408,5.104C0.635,81.839-0.004,83.879,0,85.976
				c0.012,4.177,2.607,8.097,7.311,11.042c5.333,3.337,13.101,8.3,20.615,13.099c7.357,4.699,14.966,9.561,20.082,12.761
				c3.661,2.293,7.377,3.454,11.044,3.454c3.665,0,7.379-1.161,11.042-3.454l10.226-6.402l13.313-8.33l1.865-1.168l-1.865-1.167
				l-10.896-6.816l-2.557-1.602l-0.733-0.458l-0.73,0.458L59.263,109.62l-37.42-23.795l18.436-11.378L42.164,73.284 M106.014,90.134
				c0.222,3.586-1.549,7.02-5.125,9.93l-0.763,0.622l-0.835-0.521c-0.82-0.513-82.251-51.378-91.63-57.248
				c-4.705-2.946-7.3-6.864-7.309-11.043c-0.011-4.213,2.582-8.179,7.303-11.164c4.958-3.137,9.295-5.846,14.316-8.984
				c3.852-2.406,7.833-4.895,12.645-7.921c4.047-2.541,7.868-3.778,11.681-3.778c3.805,0,7.628,1.237,11.69,3.778
				c4.444,2.781,10.191,6.433,16.278,10.298c8.692,5.523,17.68,11.234,24.23,15.274c4.908,3.021,7.617,6.95,7.634,11.067
				c0.015,4.135-2.692,8.113-7.626,11.2c-3.06,1.916-5.401,3.325-7.663,4.688c-2.214,1.335-4.502,2.714-7.434,4.545l-0.733,0.462
				l-0.733-0.464l-13.345-8.45l-1.861-1.178l1.876-1.157l15.664-9.661l-37.782-23.7L22.205,31.718
				c11.175,7.018,68.728,43.161,76.203,47.838C103.139,82.516,105.767,86.173,106.014,90.134"/>
		</g>
	</g>
</g>
<g id="g108">
	<g>
		<defs>
			<path id="SVGID_3_" d="M100.89,113.889l-0.761-0.616l-0.833,0.514l-59.489,36.795l-11.54-7.261l-6.141-3.865l17.346-10.584
				l1.899-1.16l-1.886-1.181l-6.123-3.833l-7.493-4.687l-0.731-0.459l-0.729,0.456c-2.701,1.688-5.163,3.202-7.543,4.663
				c-3.085,1.895-5.997,3.683-9.297,5.771c-4.72,2.983-7.313,6.949-7.305,11.163c0.011,4.178,2.606,8.097,7.312,11.042l0.727,0.453
				l3.01,1.886l1.87,1.169l0.376,0.235l0.55,0.347l-0.238,0.149l-5.556,3.467c-4.731,2.961-7.362,6.618-7.608,10.58
				c-0.223,3.586,1.549,7.02,5.124,9.93l0.764,0.62l0.835-0.521c0,0,9.606-5.993,21.354-13.325l1.378-0.859
				c23.316,14.586,55.469,34.699,55.469,34.699L86.467,200l0.763-0.622c3.575-2.908,5.347-6.345,5.125-9.931
				c-0.245-3.96-2.875-7.617-7.606-10.577l-28.942-18.217c7.929-4.922,19.983-12.331,29.138-17.961
				c6.697-4.116,11.985-7.367,13.463-8.291c4.731-2.96,7.36-6.618,7.607-10.58C106.236,120.235,104.465,116.8,100.89,113.889
				 M42.164,73.284l-1.876-1.176l-7.062-4.419l-6.558-4.104l-0.73-0.457l-0.729,0.457l-3.506,2.19
				c-5.05,3.156-9.413,5.882-14.397,9.035c-2.336,1.476-4.156,3.195-5.408,5.104C0.635,81.839-0.004,83.879,0,85.976
				c0.012,4.177,2.607,8.097,7.311,11.042c5.333,3.337,13.101,8.3,20.615,13.099c7.357,4.699,14.966,9.561,20.082,12.761
				c3.661,2.293,7.377,3.454,11.044,3.454c3.665,0,7.379-1.161,11.042-3.454l10.226-6.402l13.313-8.33l1.865-1.168l-1.865-1.167
				l-10.896-6.816l-2.557-1.602l-0.733-0.458l-0.73,0.458L59.263,109.62l-37.42-23.795l18.436-11.378L42.164,73.284 M106.014,90.134
				c0.222,3.586-1.549,7.02-5.125,9.93l-0.763,0.622l-0.835-0.521c-0.82-0.513-82.251-51.378-91.63-57.248
				c-4.705-2.946-7.3-6.864-7.309-11.043c-0.011-4.213,2.582-8.179,7.303-11.164c4.958-3.137,9.295-5.846,14.316-8.984
				c3.852-2.406,7.833-4.895,12.645-7.921c4.047-2.541,7.868-3.778,11.681-3.778c3.805,0,7.628,1.237,11.69,3.778
				c4.444,2.781,10.191,6.433,16.278,10.298c8.692,5.523,17.68,11.234,24.23,15.274c4.908,3.021,7.617,6.95,7.634,11.067
				c0.015,4.135-2.692,8.113-7.626,11.2c-3.06,1.916-5.401,3.325-7.663,4.688c-2.214,1.335-4.502,2.714-7.434,4.545l-0.733,0.462
				l-0.733-0.464l-13.345-8.45l-1.861-1.178l1.876-1.157l15.664-9.661l-37.782-23.7L22.205,31.718
				c11.175,7.018,68.728,43.161,76.203,47.838C103.139,82.516,105.767,86.173,106.014,90.134"/>
		</defs>
		<clipPath id="SVGID_4_">
			<use xlink:href="#SVGID_3_"  overflow="visible"/>
		</clipPath>
		<g id="g110" clip-path="url(#SVGID_4_)">
			<g id="g116">
				<defs>
					<path id="SVGID_5_" d="M21.843,85.825L5.841,75.816c0.463-0.346,0.952-0.683,1.465-1.007c4.984-3.153,9.347-5.879,14.397-9.035
						l3.506-2.19l0.729-0.457l0.73,0.457l6.558,4.104l7.062,4.419l1.876,1.176l-1.885,1.163L21.843,85.825"/>
				</defs>
				<clipPath id="SVGID_6_">
					<use xlink:href="#SVGID_5_"  overflow="visible"/>
				</clipPath>
				<g id="g122" clip-path="url(#SVGID_6_)">
					<path id="path128" fill="#0F538F" d="M5.841,85.825h36.323V63.128H5.841V85.825z"/>
				</g>
			</g>
		</g>
	</g>
</g>
<g id="g130">
	<g id="g132">
		<defs>
			<path id="SVGID_7_" d="M100.89,113.889l-0.761-0.616l-0.833,0.514l-59.489,36.795l-11.54-7.261l-6.141-3.865l17.346-10.584
				l1.899-1.16l-1.886-1.181l-6.123-3.833l-7.493-4.687l-0.731-0.459l-0.729,0.456c-2.701,1.688-5.163,3.202-7.543,4.663
				c-3.085,1.895-5.997,3.683-9.297,5.771c-4.72,2.983-7.313,6.949-7.305,11.163c0.011,4.178,2.606,8.097,7.312,11.042l0.727,0.453
				l3.01,1.886l1.87,1.169l0.376,0.235l0.55,0.347l-0.238,0.149l-5.556,3.467c-4.731,2.961-7.362,6.618-7.608,10.58
				c-0.223,3.586,1.549,7.02,5.124,9.93l0.764,0.62l0.835-0.521c0,0,9.606-5.993,21.354-13.325l1.378-0.859
				c23.316,14.586,55.469,34.699,55.469,34.699L86.467,200l0.763-0.622c3.575-2.908,5.347-6.345,5.125-9.931
				c-0.245-3.96-2.875-7.617-7.606-10.577l-28.942-18.217c7.929-4.922,19.983-12.331,29.138-17.961
				c6.697-4.116,11.985-7.367,13.463-8.291c4.731-2.96,7.36-6.618,7.607-10.58C106.236,120.235,104.465,116.8,100.89,113.889
				 M42.164,73.284l-1.876-1.176l-7.062-4.419l-6.558-4.104l-0.73-0.457l-0.729,0.457l-3.506,2.19
				c-5.05,3.156-9.413,5.882-14.397,9.035c-2.336,1.476-4.156,3.195-5.408,5.104C0.635,81.839-0.004,83.879,0,85.976
				c0.012,4.177,2.607,8.097,7.311,11.042c5.333,3.337,13.101,8.3,20.615,13.099c7.357,4.699,14.966,9.561,20.082,12.761
				c3.661,2.293,7.377,3.454,11.044,3.454c3.665,0,7.379-1.161,11.042-3.454l10.226-6.402l13.313-8.33l1.865-1.168l-1.865-1.167
				l-10.896-6.816l-2.557-1.602l-0.733-0.458l-0.73,0.458L59.263,109.62l-37.42-23.795l18.436-11.378L42.164,73.284 M106.014,90.134
				c0.222,3.586-1.549,7.02-5.125,9.93l-0.763,0.622l-0.835-0.521c-0.82-0.513-82.251-51.378-91.63-57.248
				c-4.705-2.946-7.3-6.864-7.309-11.043c-0.011-4.213,2.582-8.179,7.303-11.164c4.958-3.137,9.295-5.846,14.316-8.984
				c3.852-2.406,7.833-4.895,12.645-7.921c4.047-2.541,7.868-3.778,11.681-3.778c3.805,0,7.628,1.237,11.69,3.778
				c4.444,2.781,10.191,6.433,16.278,10.298c8.692,5.523,17.68,11.234,24.23,15.274c4.908,3.021,7.617,6.95,7.634,11.067
				c0.015,4.135-2.692,8.113-7.626,11.2c-3.06,1.916-5.401,3.325-7.663,4.688c-2.214,1.335-4.502,2.714-7.434,4.545l-0.733,0.462
				l-0.733-0.464l-13.345-8.45l-1.861-1.178l1.876-1.157l15.664-9.661l-37.782-23.7L22.205,31.718
				c11.175,7.018,68.728,43.161,76.203,47.838C103.139,82.516,105.767,86.173,106.014,90.134"/>
		</defs>
		<clipPath id="SVGID_8_">
			<use xlink:href="#SVGID_7_"  overflow="visible"/>
		</clipPath>
		<g id="g138" clip-path="url(#SVGID_8_)">
			<path id="path144" fill="#0F538F" d="M84.274,40.431L84.274,40.431l-37.782-23.7L22.205,31.718l0,0l0,0L6.202,21.711
				c0.459-0.344,0.944-0.677,1.453-1c4.958-3.137,9.295-5.846,14.316-8.984c3.852-2.406,7.833-4.895,12.645-7.921
				c4.047-2.541,7.868-3.778,11.681-3.778c3.805,0,7.628,1.237,11.69,3.778c4.444,2.781,10.191,6.433,16.278,10.298
				c8.692,5.523,17.68,11.234,24.23,15.274c0.593,0.365,1.152,0.743,1.68,1.132L84.274,40.431"/>
			<path id="path146" fill="#0C3866" d="M82.674,61.339l-0.733-0.463l-13.345-8.45l-1.861-1.178l1.876-1.157l15.664-9.661
				l15.901-9.922c3.842,2.839,5.938,6.315,5.954,9.935c0,0.008,0,0.015,0,0.023c0.005,4.127-2.702,8.096-7.626,11.177
				c-3.06,1.916-5.401,3.325-7.663,4.688c-2.214,1.335-4.502,2.714-7.434,4.545L82.674,61.339"/>
			<path id="path148" fill="#0F538F" d="M75.277,119.631l-16.01-10.013l19.45-12.227l0.73-0.458l0.733,0.458l2.557,1.602
				l10.896,6.817l1.866,1.166l-1.866,1.168l-13.313,8.33L75.277,119.631"/>
			<path id="path150" fill="#0F538F" d="M22.146,139.475L6.11,129.446c0.461-0.347,0.948-0.681,1.459-1.004
				c3.301-2.089,6.212-3.877,9.297-5.771c2.38-1.461,4.842-2.975,7.543-4.663l0.729-0.456l0.731,0.459l7.493,4.687l6.123,3.833
				l1.886,1.181l-1.899,1.16l-17.346,10.584l0.026,0.016L22.146,139.475"/>
			<path id="path152" fill="#0F538F" d="M6.595,179.483l-0.764-0.62c-3.373-2.745-5.14-5.956-5.142-9.322
				c0-0.202,0.006-0.405,0.019-0.607c0.246-3.962,2.877-7.619,7.608-10.58l5.556-3.467l0.238-0.149l16.052,10.041l-1.378,0.859
				C17.037,172.97,7.43,178.963,7.43,178.963L6.595,179.483"/>
			<path id="path154" fill="#0F538F" d="M55.806,160.653l-16-10.072l59.489-36.795l0.833-0.514l0.761,0.616
				c3.373,2.746,5.141,5.959,5.143,9.324c0,0.203-0.006,0.405-0.019,0.608c-0.247,3.962-2.875,7.62-7.607,10.58
				c-1.479,0.924-6.767,4.175-13.463,8.291C75.789,148.322,63.735,155.731,55.806,160.653L55.806,160.653L55.806,160.653"/>
		</g>
	</g>
</g>
</svg>
