<?xml version="1.0" encoding="UTF-8" standalone="no"?>
<!-- Generator: Adobe Illustrator 16.0.3, SVG Export Plug-In . SVG Version: 6.00 Build 0)  -->
<!DOCTYPE svg  PUBLIC '-//W3C//DTD SVG 1.1//EN'  'http://www.w3.org/Graphics/SVG/1.1/DTD/svg11.dtd'>
<svg id="Capa_1" xmlns="http://www.w3.org/2000/svg" xml:space="preserve" height="200px" viewBox="0 0 487.334 200" width="487.33px" version="1.1" y="0px" x="0px" xmlns:xlink="http://www.w3.org/1999/xlink" enable-background="new 0 0 487.334 200">
<path id="path14" d="m140.5 159.24c0-7.438 4.959-12.195 11.727-12.195 2.379 0 4.892 0.603 6.5 1.374l-0.336 2.947c-1.842-0.637-3.752-1.44-6.165-1.44-5.394 0-8.241 4.121-8.241 9.314s2.847 9.315 8.309 9.315c2.345 0 4.255-0.771 6.097-1.408l0.336 2.947c-1.709 0.771-4.121 1.341-6.466 1.341-6.8 0.01-11.76-4.75-11.76-12.18" fill="#0C3A69"/>
<path id="path16" d="m172.84 170.96l-0.334-1.811c-1.04 1.442-2.413 2.146-4.558 2.146-3.853 0-6.064-2.278-6.064-7.203v-9.549h3.015v8.711c0 3.484 1.105 5.359 3.82 5.359 1.508 0 2.982-0.567 3.787-1.875v-12.195h3.016v16.417h-2.69" fill="#0C3A69"/>
<path id="path18" d="m188.28 157.26h-1.038c-1.374 0-3.183 1.07-3.753 2.11v11.593h-3.216v-16.417h2.479l0.369 2.714c1.977-2.245 3.552-3.316 5.562-3.316h0.268l-0.67 3.33" fill="#0C3A69"/>
<path id="path20" d="m191.7 170.96v-16.417h3.015v16.417h-3.02zm0-20.1v-3.351h3.015v3.351h-3.02" fill="#0C3A69"/>
<path id="path22" d="m211.27 170.96v-9.046c0-3.485-1.172-5.027-4.288-5.027-1.876 0-3.651 0.671-4.49 2.146v11.927h-3.015v-16.417h2.346l0.334 1.743c1.875-1.676 3.686-2.078 5.429-2.078 4.79 0 6.7 2.981 6.7 7.706v9.046h-3.02" fill="#0C3A69"/>
<path id="path24" d="m220.92 160.71c0 2.58 1.608 4.154 3.92 4.154 2.513 0 3.886-1.876 3.886-4.256 0-2.579-1.642-3.987-3.954-3.987-2.52 0.01-3.86 1.72-3.86 4.1zm2.28 10.72c-1.508 0.47-2.614 1.709-2.614 2.882 0 1.508 1.776 2.682 4.926 2.682 3.35 0 5.058-1.342 5.058-2.614 0-1.174-1.407-2.011-4.389-2.547-0.08 0-2.59-0.33-2.99-0.4zm-5.5 2.95c0-0.905 0.334-2.78 2.915-3.687-1.407-0.669-1.675-1.574-1.675-2.078 0-0.567 0.368-1.707 1.943-2.443-2.345-1.71-2.849-3.687-2.849-5.361 0-3.619 2.346-6.601 6.701-6.601 1.541 0 2.848 0.368 4.189 1.206 1.005-0.537 2.345-0.938 3.987-0.938h0.268l-0.369 2.012h-0.771c-0.235 0-1.24 0.066-1.943 0.233 1.207 1.441 1.508 2.714 1.508 3.92 0 3.315-2.345 6.533-6.633 6.533-0.771 0-1.642-0.101-2.346-0.302-0.469 0.269-0.804 0.603-0.804 1.005 0 0.838 1.206 1.073 5.092 1.743 2.581 0.435 6.702 1.34 6.702 4.557 0 2.646-2.815 5.158-8.242 5.158-5.7 0-7.68-2.78-7.68-4.96" fill="#0C3A69"/>
<path id="path26" d="m252.91 150.39v20.571h-3.183v-20.571h-6.834v-2.882h16.854v2.882h-6.84" fill="#0C3A69"/>
<path id="path28" d="m262.43 162.75c0 3.686 1.811 5.861 5.06 5.861 3.25 0 5.061-2.176 5.061-5.861s-1.811-5.865-5.061-5.865c-3.25 0.01-5.06 2.19-5.06 5.87zm-3.08 0c0-4.759 2.982-8.544 8.141-8.544 5.127 0 8.143 3.785 8.143 8.544 0 4.758-3.016 8.543-8.143 8.543-5.16 0.01-8.14-3.78-8.14-8.54" fill="#0C3A69"/>
<path id="path30" d="m281.46 160.71c0 2.58 1.61 4.154 3.922 4.154 2.512 0 3.885-1.876 3.885-4.256 0-2.579-1.641-3.987-3.953-3.987-2.51 0.01-3.85 1.72-3.85 4.1zm2.28 10.72c-1.507 0.47-2.613 1.709-2.613 2.882 0 1.508 1.775 2.682 4.926 2.682 3.351 0 5.059-1.342 5.059-2.614 0-1.174-1.406-2.011-4.39-2.547-0.08 0-2.59-0.33-2.99-0.4zm-5.5 2.95c0-0.905 0.335-2.78 2.914-3.687-1.407-0.669-1.675-1.574-1.675-2.078 0-0.567 0.369-1.707 1.944-2.443-2.347-1.71-2.849-3.687-2.849-5.361 0-3.619 2.345-6.601 6.701-6.601 1.541 0 2.848 0.368 4.188 1.206 1.004-0.537 2.345-0.938 3.985-0.938h0.269l-0.367 2.012h-0.771c-0.234 0-1.241 0.066-1.942 0.233 1.205 1.441 1.507 2.714 1.507 3.92 0 3.315-2.345 6.533-6.634 6.533-0.771 0-1.641-0.101-2.346-0.302-0.469 0.269-0.804 0.603-0.804 1.005 0 0.838 1.207 1.073 5.092 1.743 2.58 0.435 6.701 1.34 6.701 4.557 0 2.646-2.815 5.158-8.242 5.158-5.69 0-7.67-2.78-7.67-4.96" fill="#0C3A69"/>
<path id="path32" d="m299.12 160.68h8.645c0-2.312-1.273-3.787-4.021-3.787-2.68 0-4.02 1.41-4.62 3.79zm-0.27 2.07c0.436 4.558 3.049 5.861 6.165 5.861 1.507 0 3.249-0.301 4.724-0.97l0.402 2.379c-1.273 0.569-3.116 1.272-5.495 1.272-5.796 0-8.877-3.954-8.877-8.677 0-4.591 2.947-8.41 8.04-8.41 4.088 0 7.068 2.513 7.068 6.935 0 0.47-0.033 1.038-0.133 1.609h-11.89" fill="#0C3A69"/>
<path id="path34" d="m322.97 171.3h-2.713c-3.117 0-4.289-1.943-4.289-3.921v-10.487h-2.813l0.269-2.344h2.545v-4.054l3.016-0.303v4.356h4.322v2.344h-4.322v8.646c0 3.148 0.202 3.35 3.45 3.35h0.771l-0.25 2.4" fill="#0C3A69"/>
<path id="path36" d="m337.78 170.96v-8.779c0-3.885-1.007-5.294-3.92-5.294-2.01 0-3.351 0.671-4.289 2.146v11.927h-3.049v-25.128h3.049v10.487c1.14-1.442 2.613-2.111 4.759-2.111 4.723 0 6.466 3.249 6.466 7.973v8.779h-3.02" fill="#0C3A69"/>
<path id="path38" d="m347.73 160.68h8.645c0-2.312-1.274-3.787-4.021-3.787-2.69 0-4.03 1.41-4.63 3.79zm-0.27 2.07c0.436 4.558 3.049 5.861 6.165 5.861 1.508 0 3.249-0.301 4.726-0.97l0.401 2.379c-1.274 0.569-3.116 1.272-5.495 1.272-5.797 0-8.878-3.954-8.878-8.677 0-4.591 2.948-8.41 8.041-8.41 4.087 0 7.069 2.513 7.069 6.935 0 0.47-0.035 1.038-0.135 1.609h-11.9" fill="#0C3A69"/>
<path id="path40" d="m371.22 157.26h-1.039c-1.374 0-3.183 1.07-3.752 2.11v11.593h-3.217v-16.417h2.479l0.37 2.714c1.977-2.245 3.551-3.316 5.562-3.316h0.269l-0.67 3.33" fill="#0C3A69"/>
<path id="path42" d="m373.53 170.96v-2.881h3.015v2.881h-3.01" fill="#0C3A69"/>
<path id="path44" d="m148.25 28.335v14.325h6.736c4.875 0 6.785-2.714 6.785-7.439 0-5.027-2.01-6.886-8.193-6.886h-5.34zm0 18.598v12.314h-5.026v-35.185h11.259c6.535 0 12.264 1.508 12.264 10.957 0 9.15-6.183 11.914-10.858 11.914h-7.63" fill="#0C3A69"/>
<path id="path46" d="m183.63 38.688h-1.559c-2.061 0-4.775 1.609-5.629 3.167v17.392h-4.825v-24.63h3.719l0.553 4.071c2.966-3.367 5.329-4.975 8.344-4.975h0.402l-1 4.975" fill="#0C3A69"/>
<path id="path48" d="m191.27 46.933c0 5.529 2.714 8.795 7.59 8.795 4.875 0 7.589-3.267 7.589-8.795 0-5.529-2.714-8.797-7.589-8.797-4.88 0-7.59 3.268-7.59 8.797zm-4.63 0c0-7.138 4.474-12.819 12.215-12.819 7.69 0 12.214 5.681 12.214 12.819 0 7.137-4.524 12.817-12.214 12.817-7.74 0-12.22-5.68-12.22-12.817" fill="#0C3A69"/>
<path id="path50" d="m215.29 57.589l0.552-4.373c1.056 0.955 3.922 2.512 7.69 2.512 3.167 0 4.927-1.105 4.927-3.065 0-2.563-2.916-3.52-4.927-4.072-3.367-0.905-7.74-2.11-7.74-7.088 0-3.769 2.514-7.389 9.249-7.389 3.267 0 5.176 0.855 6.684 1.609l-0.552 4.122c-1.458-1.207-3.267-2.162-6.032-2.162-2.815 0-4.775 1.004-4.775 3.318 0 2.312 1.86 2.915 5.729 4.071 2.413 0.703 7.038 2.212 7.038 7.339 0 3.268-1.86 7.338-9.399 7.338-4.37 0.001-7.28-1.356-8.44-2.16" fill="#0C3A69"/>
<path id="path52" d="m251.12 59.75h-4.071c-4.672 0-6.433-2.915-6.433-5.881v-15.733h-4.222l0.401-3.519h3.821v-6.082l4.523-0.452v6.534h6.483v3.519h-6.483v12.969c0 4.725 0.301 5.026 5.176 5.026h1.157l-0.36 3.619" fill="#0C3A69"/>
<path id="path54" d="m269.37 46.933c-7.189 0.251-10.104 1.759-10.104 5.428 0 2.665 1.559 3.77 3.82 3.77 2.413 0 4.825-1.307 6.284-3.318v-5.88zm7.09 12.817h-0.354c-4.373 0-5.328-1.307-6.333-3.619-1.86 2.161-4.373 3.619-7.541 3.619-4.572 0-7.589-3.015-7.589-7.138 0-6.937 8.444-8.696 14.729-8.796 0-4.675-1.911-5.681-5.379-5.681-1.859 0-3.87 0.402-6.483 2.212l-0.654-3.669c1.961-1.509 5.076-2.565 8.343-2.565 6.233 0 8.696 2.916 8.696 11.813v5.027c0 3.519 0.202 5.177 2.815 5.177h0.451l-0.71 3.62" fill="#0C3A69"/>
<path id="path56" d="m293.69 59.75h-4.071c-4.674 0-6.434-2.915-6.434-5.881v-15.733h-4.223l0.402-3.519h3.819v-6.082l4.524-0.452v6.534h6.484v3.519h-6.484v12.969c0 4.725 0.302 5.026 5.177 5.026h1.156l-0.36 3.619" fill="#0C3A69"/>
<path id="path58" d="m302.38 43.816h12.97c0-3.468-1.911-5.681-6.032-5.681-4.02 0.001-6.03 2.113-6.94 5.681zm-0.4 3.117c0.653 6.836 4.575 8.795 9.249 8.795 2.261 0 4.876-0.452 7.088-1.457l0.603 3.568c-1.91 0.854-4.675 1.91-8.243 1.91-8.696 0-13.32-5.931-13.32-13.019 0-6.886 4.423-12.617 12.063-12.617 6.132 0 10.605 3.771 10.605 10.406 0 0.704-0.05 1.558-0.201 2.413h-17.84" fill="#0C3A69"/>
<path id="path60" d="m336.81 41.655c0-11.16 7.439-18.296 17.595-18.296 3.568 0 7.338 0.904 9.751 2.06l-0.503 4.424c-2.766-0.955-5.63-2.161-9.248-2.161-8.094 0-12.366 6.181-12.366 13.974 0 7.791 4.272 13.974 12.465 13.974 3.52 0 6.384-1.156 9.149-2.111l0.503 4.423c-2.564 1.156-6.183 2.011-9.701 2.011-10.2-0.001-17.64-7.14-17.64-18.298" fill="#0C3A69"/>
<path id="path62" d="m382.75 46.933c-7.188 0.251-10.104 1.759-10.104 5.428 0 2.665 1.559 3.77 3.821 3.77 2.412 0 4.825-1.307 6.283-3.318v-5.88zm7.09 12.817h-0.352c-4.374 0-5.328-1.307-6.334-3.619-1.86 2.161-4.374 3.619-7.541 3.619-4.573 0-7.59-3.015-7.59-7.138 0-6.937 8.445-8.696 14.729-8.796 0-4.675-1.91-5.681-5.378-5.681-1.86 0-3.871 0.402-6.484 2.212l-0.653-3.669c1.961-1.509 5.076-2.565 8.343-2.565 6.233 0 8.697 2.916 8.697 11.813v5.027c0 3.519 0.2 5.177 2.815 5.177h0.45l-0.71 3.62" fill="#0C3A69"/>
<path id="path64" d="m412.7 59.247v-13.572c0-5.227-1.757-7.54-6.434-7.54-2.814 0-5.478 1.005-6.735 3.218v17.893h-4.523v-24.63h3.519l0.503 2.614c2.815-2.513 5.529-3.117 8.143-3.117 7.188 0 10.052 4.475 10.052 11.561v13.572h-4.53" fill="#0C3A69"/>
<path id="path66" d="m422.7 46.882c0-7.188 4.02-12.768 12.215-12.768 3.719 0 6.131 0.655 7.589 1.458l-0.704 4.072c-1.961-0.957-4.07-1.509-6.384-1.509-5.479 0-8.092 3.268-8.092 8.746 0 5.378 2.613 8.896 8.092 8.896 2.313 0 4.474-0.552 6.435-1.506l0.603 3.619c-1.457 0.955-3.519 1.859-7.489 1.859-8.2 0.001-12.27-5.98-12.27-12.867" fill="#0C3A69"/>
<path id="path68" d="m451.1 43.816h12.969c0-3.468-1.91-5.681-6.031-5.681-4.03 0.001-6.04 2.113-6.94 5.681zm-0.41 3.117c0.654 6.836 4.575 8.795 9.25 8.795 2.261 0 4.876-0.452 7.088-1.457l0.604 3.568c-1.911 0.854-4.677 1.91-8.244 1.91-8.697 0-13.321-5.931-13.321-13.019 0-6.886 4.423-12.617 12.064-12.617 6.133 0 10.605 3.771 10.605 10.406 0 0.704-0.051 1.558-0.201 2.413h-17.85" fill="#0C3A69"/>
<path id="path70" d="m486.33 38.688h-1.558c-2.061 0-4.774 1.609-5.63 3.167v17.392h-4.825v-24.63h3.72l0.553 4.071c2.966-3.367 5.327-4.975 8.345-4.975h0.401l-1.01 4.975" fill="#0C3A69"/>
<path id="path72" d="m148 84.227v10.304h12.868v4.323h-12.868v16.235h-4.774v-35.186h21.462v4.322h-16.69" fill="#0C3A69"/>
<path id="path74" d="m170.51 102.77c0 5.528 2.714 8.797 7.59 8.797 4.875 0 7.589-3.269 7.589-8.797 0-5.529-2.714-8.796-7.589-8.796-4.88 0.004-7.59 3.271-7.59 8.796zm-4.62 0c0-7.137 4.475-12.818 12.215-12.818 7.69 0 12.214 5.681 12.214 12.818 0 7.138-4.524 12.817-12.214 12.817-7.74 0-12.21-5.68-12.21-12.82" fill="#0C3A69"/>
<path id="path76" d="m212.18 115.09l-0.503-2.713c-1.557 2.161-3.619 3.216-6.835 3.216-5.78 0-9.098-3.418-9.098-10.807v-14.331h4.524v13.068c0 5.229 1.658 8.044 5.729 8.044 2.262 0 4.474-0.855 5.679-2.815v-18.301h4.524v24.629h-4.01" fill="#0C3A69"/>
<path id="path78" d="m241.02 115.09v-13.57c0-5.228-1.759-7.541-6.434-7.541-2.815 0-5.479 1.005-6.735 3.217v17.894h-4.524v-24.631h3.519l0.503 2.614c2.815-2.514 5.529-3.117 8.143-3.117 7.188 0 10.053 4.474 10.053 11.562v13.57h-4.53" fill="#0C3A69"/>
<path id="path80" d="m255.6 102.77c0 4.826 2.614 8.797 6.937 8.797 3.619 0 7.691-2.463 7.691-8.646 0-5.931-4.072-8.947-7.691-8.947-4.33 0.005-6.94 3.775-6.94 8.797zm14.62 12.32l-0.503-3.115c-1.859 2.412-5.328 3.618-7.54 3.618-6.283 0-11.209-5.63-11.209-12.817 0-6.735 4.323-12.818 11.209-12.818 2.212 0 5.431 0.553 7.54 3.117v-15.688h4.523v37.698h-4.02" fill="#0C3A69"/>
<path id="path82" d="m294.19 102.77c-7.188 0.251-10.104 1.759-10.104 5.428 0 2.665 1.559 3.771 3.821 3.771 2.413 0 4.825-1.308 6.283-3.318v-5.88zm7.09 12.82h-0.352c-4.373 0-5.327-1.307-6.332-3.618-1.86 2.16-4.374 3.618-7.541 3.618-4.573 0-7.59-3.017-7.59-7.138 0-6.936 8.445-8.695 14.729-8.797 0-4.674-1.911-5.679-5.38-5.679-1.858 0-3.869 0.402-6.482 2.211l-0.654-3.669c1.961-1.508 5.076-2.563 8.344-2.563 6.233 0 8.696 2.916 8.696 11.812v5.027c0 3.518 0.201 5.178 2.814 5.178h0.452l-0.71 3.62" fill="#0C3A69"/>
<path id="path84" d="m318.52 115.59h-4.07c-4.675 0-6.435-2.916-6.435-5.881v-15.732h-4.223l0.402-3.519h3.82v-6.082l4.524-0.453v6.535h6.483v3.519h-6.483v12.969c0 4.724 0.301 5.026 5.178 5.026h1.154l-0.35 3.61" fill="#0C3A69"/>
<path id="path86" d="m323.9 115.09v-24.631h4.523v24.629h-4.52zm0-30.16v-5.025h4.523v5.025h-4.52" fill="#0C3A69"/>
<path id="path88" d="m338.72 102.77c0 5.528 2.716 8.797 7.59 8.797 4.876 0 7.591-3.269 7.591-8.797 0-5.529-2.715-8.796-7.591-8.796-4.87 0.004-7.59 3.271-7.59 8.796zm-4.62 0c0-7.137 4.475-12.818 12.215-12.818 7.691 0 12.215 5.681 12.215 12.818 0 7.138-4.523 12.817-12.215 12.817-7.75 0-12.22-5.68-12.22-12.82" fill="#0C3A69"/>
<path id="path90" d="m381.89 115.09v-13.57c0-5.228-1.758-7.541-6.433-7.541-2.816 0-5.479 1.005-6.735 3.217v17.894h-4.52v-24.631h3.519l0.502 2.614c2.815-2.514 5.529-3.117 8.143-3.117 7.189 0 10.054 4.474 10.054 11.562v13.57h-4.52" fill="#0C3A69"/>
<g id="g92">
	<g id="g94">
		<defs>
			<path id="SVGID_1_" d="m100.89 113.89l-0.761-0.616-0.833 0.514-59.489 36.795-11.54-7.261-6.141-3.865 17.346-10.584 1.899-1.16-1.886-1.181-6.123-3.833-7.493-4.687-0.731-0.459-0.729 0.456c-2.701 1.688-5.163 3.202-7.543 4.663-3.085 1.895-5.997 3.683-9.297 5.771-4.72 2.983-7.313 6.949-7.305 11.163 0.011 4.178 2.606 8.097 7.312 11.042l0.727 0.453 3.01 1.886 1.87 1.169 0.376 0.235 0.55 0.347-0.238 0.149-5.556 3.467c-4.731 2.961-7.362 6.618-7.608 10.58-0.223 3.586 1.549 7.02 5.124 9.93l0.764 0.62 0.835-0.521s9.606-5.993 21.354-13.325l1.378-0.859 55.469 34.699 0.835 0.5 0.763-0.622c3.575-2.908 5.347-6.345 5.125-9.931-0.245-3.96-2.875-7.617-7.606-10.577l-28.942-18.217c7.929-4.922 19.983-12.331 29.138-17.961 6.697-4.116 11.985-7.367 13.463-8.291 4.731-2.96 7.36-6.618 7.607-10.58 0.22-3.58-1.56-7.02-5.13-9.93m-58.726-40.606l-1.876-1.176-7.062-4.419-6.558-4.104-0.73-0.457-0.729 0.457-3.506 2.19c-5.05 3.156-9.413 5.882-14.397 9.035-2.336 1.476-4.156 3.195-5.408 5.104-1.263 1.925-1.902 3.965-1.898 6.062 0.012 4.177 2.607 8.097 7.311 11.042 5.333 3.337 13.101 8.3 20.615 13.099 7.357 4.699 14.966 9.561 20.082 12.761 3.661 2.293 7.377 3.454 11.044 3.454 3.665 0 7.379-1.161 11.042-3.454l10.226-6.402 13.313-8.33 1.865-1.168-1.865-1.167-10.896-6.816-2.557-1.602-0.733-0.458-0.73 0.458-19.454 12.228-37.42-23.795 18.436-11.378 1.885-1.163m63.846 16.85c0.222 3.586-1.549 7.02-5.125 9.93l-0.763 0.622-0.835-0.521c-0.82-0.513-82.251-51.378-91.63-57.248-4.705-2.946-7.3-6.864-7.309-11.043-0.011-4.213 2.582-8.179 7.303-11.164 4.958-3.137 9.295-5.846 14.316-8.984 3.852-2.406 7.833-4.895 12.645-7.921 4.047-2.541 7.868-3.778 11.681-3.778 3.805 0 7.628 1.237 11.69 3.778 4.444 2.781 10.191 6.433 16.278 10.298 8.692 5.523 17.68 11.234 24.23 15.274 4.908 3.021 7.617 6.95 7.634 11.067 0.015 4.135-2.692 8.113-7.626 11.2-3.06 1.916-5.401 3.325-7.663 4.688-2.214 1.335-4.502 2.714-7.434 4.545l-0.733 0.462-0.733-0.464-13.345-8.45-1.861-1.178 1.876-1.157 15.664-9.661-37.782-23.7-24.278 14.994c11.175 7.018 68.728 43.161 76.203 47.838 4.732 2.96 7.362 6.617 7.602 10.578"/>
		</defs>
		<clipPath id="SVGID_2_">
			<use overflow="visible" xlink:href="#SVGID_1_"/>
		</clipPath>
		<g id="g100" clip-path="url(#SVGID_2_)">
			<path id="path106" d="m100.89 113.89l-0.761-0.616-0.833 0.514-59.489 36.795-11.54-7.261-6.141-3.865 17.346-10.584 1.899-1.16-1.886-1.181-6.123-3.833-7.493-4.687-0.731-0.459-0.729 0.456c-2.701 1.688-5.163 3.202-7.543 4.663-3.085 1.895-5.997 3.683-9.297 5.771-4.72 2.983-7.313 6.949-7.305 11.163 0.011 4.178 2.606 8.097 7.312 11.042l0.727 0.453 3.01 1.886 1.87 1.169 0.376 0.235 0.55 0.347-0.238 0.149-5.556 3.467c-4.731 2.961-7.362 6.618-7.608 10.58-0.223 3.586 1.549 7.02 5.124 9.93l0.764 0.62 0.835-0.521s9.606-5.993 21.354-13.325l1.378-0.859 55.469 34.699 0.835 0.5 0.763-0.622c3.575-2.908 5.347-6.345 5.125-9.931-0.245-3.96-2.875-7.617-7.606-10.577l-28.942-18.217c7.929-4.922 19.983-12.331 29.138-17.961 6.697-4.116 11.985-7.367 13.463-8.291 4.731-2.96 7.36-6.618 7.607-10.58 0.22-3.58-1.56-7.02-5.13-9.93m-58.726-40.606l-1.876-1.176-7.062-4.419-6.558-4.104-0.73-0.457-0.729 0.457-3.506 2.19c-5.05 3.156-9.413 5.882-14.397 9.035-2.336 1.476-4.156 3.195-5.408 5.104-1.263 1.925-1.902 3.965-1.898 6.062 0.012 4.177 2.607 8.097 7.311 11.042 5.333 3.337 13.101 8.3 20.615 13.099 7.357 4.699 14.966 9.561 20.082 12.761 3.661 2.293 7.377 3.454 11.044 3.454 3.665 0 7.379-1.161 11.042-3.454l10.226-6.402 13.313-8.33 1.865-1.168-1.865-1.167-10.896-6.816-2.557-1.602-0.733-0.458-0.73 0.458-19.454 12.228-37.42-23.795 18.436-11.378 1.885-1.163m63.846 16.85c0.222 3.586-1.549 7.02-5.125 9.93l-0.763 0.622-0.835-0.521c-0.82-0.513-82.251-51.378-91.63-57.248-4.705-2.946-7.3-6.864-7.309-11.043-0.011-4.213 2.582-8.179 7.303-11.164 4.958-3.137 9.295-5.846 14.316-8.984 3.852-2.406 7.833-4.895 12.645-7.921 4.047-2.541 7.868-3.778 11.681-3.778 3.805 0 7.628 1.237 11.69 3.778 4.444 2.781 10.191 6.433 16.278 10.298 8.692 5.523 17.68 11.234 24.23 15.274 4.908 3.021 7.617 6.95 7.634 11.067 0.015 4.135-2.692 8.113-7.626 11.2-3.06 1.916-5.401 3.325-7.663 4.688-2.214 1.335-4.502 2.714-7.434 4.545l-0.733 0.462-0.733-0.464-13.345-8.45-1.861-1.178 1.876-1.157 15.664-9.661-37.782-23.7-24.278 14.994c11.175 7.018 68.728 43.161 76.203 47.838 4.732 2.96 7.362 6.617 7.602 10.578" fill="#0C3A69"/>
		</g>
	</g>
</g>
<g id="g108">
		<defs>
			<path id="SVGID_3_" d="m100.89 113.89l-0.761-0.616-0.833 0.514-59.489 36.795-11.54-7.261-6.141-3.865 17.346-10.584 1.899-1.16-1.886-1.181-6.123-3.833-7.493-4.687-0.731-0.459-0.729 0.456c-2.701 1.688-5.163 3.202-7.543 4.663-3.085 1.895-5.997 3.683-9.297 5.771-4.72 2.983-7.313 6.949-7.305 11.163 0.011 4.178 2.606 8.097 7.312 11.042l0.727 0.453 3.01 1.886 1.87 1.169 0.376 0.235 0.55 0.347-0.238 0.149-5.556 3.467c-4.731 2.961-7.362 6.618-7.608 10.58-0.223 3.586 1.549 7.02 5.124 9.93l0.764 0.62 0.835-0.521s9.606-5.993 21.354-13.325l1.378-0.859 55.469 34.699 0.835 0.5 0.763-0.622c3.575-2.908 5.347-6.345 5.125-9.931-0.245-3.96-2.875-7.617-7.606-10.577l-28.942-18.217c7.929-4.922 19.983-12.331 29.138-17.961 6.697-4.116 11.985-7.367 13.463-8.291 4.731-2.96 7.36-6.618 7.607-10.58 0.22-3.58-1.56-7.02-5.13-9.93m-58.726-40.606l-1.876-1.176-7.062-4.419-6.558-4.104-0.73-0.457-0.729 0.457-3.506 2.19c-5.05 3.156-9.413 5.882-14.397 9.035-2.336 1.476-4.156 3.195-5.408 5.104-1.263 1.925-1.902 3.965-1.898 6.062 0.012 4.177 2.607 8.097 7.311 11.042 5.333 3.337 13.101 8.3 20.615 13.099 7.357 4.699 14.966 9.561 20.082 12.761 3.661 2.293 7.377 3.454 11.044 3.454 3.665 0 7.379-1.161 11.042-3.454l10.226-6.402 13.313-8.33 1.865-1.168-1.865-1.167-10.896-6.816-2.557-1.602-0.733-0.458-0.73 0.458-19.454 12.228-37.42-23.795 18.436-11.378 1.885-1.163m63.846 16.85c0.222 3.586-1.549 7.02-5.125 9.93l-0.763 0.622-0.835-0.521c-0.82-0.513-82.251-51.378-91.63-57.248-4.705-2.946-7.3-6.864-7.309-11.043-0.011-4.213 2.582-8.179 7.303-11.164 4.958-3.137 9.295-5.846 14.316-8.984 3.852-2.406 7.833-4.895 12.645-7.921 4.047-2.541 7.868-3.778 11.681-3.778 3.805 0 7.628 1.237 11.69 3.778 4.444 2.781 10.191 6.433 16.278 10.298 8.692 5.523 17.68 11.234 24.23 15.274 4.908 3.021 7.617 6.95 7.634 11.067 0.015 4.135-2.692 8.113-7.626 11.2-3.06 1.916-5.401 3.325-7.663 4.688-2.214 1.335-4.502 2.714-7.434 4.545l-0.733 0.462-0.733-0.464-13.345-8.45-1.861-1.178 1.876-1.157 15.664-9.661-37.782-23.7-24.278 14.994c11.175 7.018 68.728 43.161 76.203 47.838 4.732 2.96 7.362 6.617 7.602 10.578"/>
		</defs>
		<clipPath id="SVGID_4_">
			<use overflow="visible" xlink:href="#SVGID_3_"/>
		</clipPath>
		<g id="g110" clip-path="url(#SVGID_4_)">
			<g id="g116">
				<defs>
					<path id="SVGID_5_" d="m21.843 85.825l-16.002-10.009c0.463-0.346 0.952-0.683 1.465-1.007 4.984-3.153 9.347-5.879 14.397-9.035l3.506-2.19 0.729-0.457 0.73 0.457 6.558 4.104 7.062 4.419 1.876 1.176-1.885 1.163-18.436 11.379"/>
				</defs>
				<clipPath id="SVGID_6_">
					<use overflow="visible" xlink:href="#SVGID_5_"/>
				</clipPath>
				<g id="g122" clip-path="url(#SVGID_6_)">
					<path id="path128" d="m5.841 85.825h36.323v-22.697h-36.323v22.697z" fill="#0F538F"/>
				</g>
			</g>
		</g>
</g>
<g id="g130">
	<g id="g132">
		<defs>
			<path id="SVGID_7_" d="m100.89 113.89l-0.761-0.616-0.833 0.514-59.489 36.795-11.54-7.261-6.141-3.865 17.346-10.584 1.899-1.16-1.886-1.181-6.123-3.833-7.493-4.687-0.731-0.459-0.729 0.456c-2.701 1.688-5.163 3.202-7.543 4.663-3.085 1.895-5.997 3.683-9.297 5.771-4.72 2.983-7.313 6.949-7.305 11.163 0.011 4.178 2.606 8.097 7.312 11.042l0.727 0.453 3.01 1.886 1.87 1.169 0.376 0.235 0.55 0.347-0.238 0.149-5.556 3.467c-4.731 2.961-7.362 6.618-7.608 10.58-0.223 3.586 1.549 7.02 5.124 9.93l0.764 0.62 0.835-0.521s9.606-5.993 21.354-13.325l1.378-0.859 55.469 34.699 0.835 0.5 0.763-0.622c3.575-2.908 5.347-6.345 5.125-9.931-0.245-3.96-2.875-7.617-7.606-10.577l-28.942-18.217c7.929-4.922 19.983-12.331 29.138-17.961 6.697-4.116 11.985-7.367 13.463-8.291 4.731-2.96 7.36-6.618 7.607-10.58 0.22-3.58-1.56-7.02-5.13-9.93m-58.726-40.606l-1.876-1.176-7.062-4.419-6.558-4.104-0.73-0.457-0.729 0.457-3.506 2.19c-5.05 3.156-9.413 5.882-14.397 9.035-2.336 1.476-4.156 3.195-5.408 5.104-1.263 1.925-1.902 3.965-1.898 6.062 0.012 4.177 2.607 8.097 7.311 11.042 5.333 3.337 13.101 8.3 20.615 13.099 7.357 4.699 14.966 9.561 20.082 12.761 3.661 2.293 7.377 3.454 11.044 3.454 3.665 0 7.379-1.161 11.042-3.454l10.226-6.402 13.313-8.33 1.865-1.168-1.865-1.167-10.896-6.816-2.557-1.602-0.733-0.458-0.73 0.458-19.454 12.228-37.42-23.795 18.436-11.378 1.885-1.163m63.846 16.85c0.222 3.586-1.549 7.02-5.125 9.93l-0.763 0.622-0.835-0.521c-0.82-0.513-82.251-51.378-91.63-57.248-4.705-2.946-7.3-6.864-7.309-11.043-0.011-4.213 2.582-8.179 7.303-11.164 4.958-3.137 9.295-5.846 14.316-8.984 3.852-2.406 7.833-4.895 12.645-7.921 4.047-2.541 7.868-3.778 11.681-3.778 3.805 0 7.628 1.237 11.69 3.778 4.444 2.781 10.191 6.433 16.278 10.298 8.692 5.523 17.68 11.234 24.23 15.274 4.908 3.021 7.617 6.95 7.634 11.067 0.015 4.135-2.692 8.113-7.626 11.2-3.06 1.916-5.401 3.325-7.663 4.688-2.214 1.335-4.502 2.714-7.434 4.545l-0.733 0.462-0.733-0.464-13.345-8.45-1.861-1.178 1.876-1.157 15.664-9.661-37.782-23.7-24.278 14.994c11.175 7.018 68.728 43.161 76.203 47.838 4.732 2.96 7.362 6.617 7.602 10.578"/>
		</defs>
		<clipPath id="SVGID_8_">
			<use overflow="visible" xlink:href="#SVGID_7_"/>
		</clipPath>
		<g id="g138" clip-path="url(#SVGID_8_)">
			<path id="path144" d="m84.274 40.431l-37.782-23.7-24.287 14.987-16.003-10.007c0.459-0.344 0.944-0.677 1.453-1 4.958-3.137 9.295-5.846 14.316-8.984 3.852-2.406 7.833-4.895 12.645-7.921 4.047-2.541 7.868-3.778 11.681-3.778 3.805 0 7.628 1.237 11.69 3.778 4.444 2.781 10.191 6.433 16.278 10.298 8.692 5.523 17.68 11.234 24.23 15.274 0.593 0.365 1.152 0.743 1.68 1.132l-15.906 9.921" fill="#0F538F"/>
			<path id="path146" d="m82.674 61.339l-0.733-0.463-13.345-8.45-1.861-1.178 1.876-1.157 15.664-9.661 15.901-9.922c3.842 2.839 5.938 6.315 5.954 9.935v0.023c0.005 4.127-2.702 8.096-7.626 11.177-3.06 1.916-5.401 3.325-7.663 4.688-2.214 1.335-4.502 2.714-7.434 4.545l-0.733 0.463" fill="#0C3866"/>
			<path id="path148" d="m75.277 119.63l-16.01-10.013 19.45-12.227 0.73-0.458 0.733 0.458 2.557 1.602 10.896 6.817 1.866 1.166-1.866 1.168-13.313 8.33-5.043 3.15" fill="#0F538F"/>
			<path id="path150" d="m22.146 139.48l-16.036-10.03c0.461-0.347 0.948-0.681 1.459-1.004 3.301-2.089 6.212-3.877 9.297-5.771 2.38-1.461 4.842-2.975 7.543-4.663l0.729-0.456 0.731 0.459 7.493 4.687 6.123 3.833 1.886 1.181-1.899 1.16-17.346 10.584 0.026 0.016h-0.006" fill="#0F538F"/>
			<path id="path152" d="m6.595 179.48l-0.764-0.62c-3.373-2.745-5.14-5.956-5.142-9.322 0-0.202 0.006-0.405 0.019-0.607 0.246-3.962 2.877-7.619 7.608-10.58l5.556-3.467 0.238-0.149 16.052 10.041-1.378 0.859c-11.747 7.34-21.354 13.33-21.354 13.33l-0.835 0.52" fill="#0F538F"/>
			<path id="path154" d="m55.806 160.65l-16-10.072 59.489-36.795 0.833-0.514 0.761 0.616c3.373 2.746 5.141 5.959 5.143 9.324 0 0.203-0.006 0.405-0.019 0.608-0.247 3.962-2.875 7.62-7.607 10.58-1.479 0.924-6.767 4.175-13.463 8.291-9.151 5.63-21.205 13.04-29.134 17.96" fill="#0F538F"/>
		</g>
	</g>
</g>
</svg>
