<?xml version="1.0" encoding="UTF-8" standalone="no"?>
<svg xmlns="http://www.w3.org/2000/svg" height="44pt" width="175pt" version="1.1" xmlns:xlink="http://www.w3.org/1999/xlink" viewBox="0 0 175 44">
 <defs>
  <clipPath id="Clip0">
   <path d="m0 0v43.812h174.22v-43.812h-174.22z" transform="translate(0 .18848)"/>
  </clipPath>
 </defs>
 <g id="Background">
  <g id="Group1" clip-path="url(#Clip0)">
   <path fill="#005c9c" d="m0 3.6728c5.996 3.0488 12.392 5.4883 19.089 7.2472v-6.965c-3.727-1.0888-7.359-2.4111-10.88-3.955-2.8077 1.1015-5.5479 2.3271-8.209 3.6728z" transform="translate(20.581 23.526)"/>
   <path fill="#005c9c" d="m0 3.9179c8.2549 5.3086 17.468 9.3921 27.343 11.986v-6.9792c-7.261-2.1192-14.167-5.1289-20.597-8.9248-2.3085 1.2216-4.5624 2.5224-6.746 3.9179z" transform="translate(12.327 28.002)"/>
   <path fill="#005c9c" d="m8.2579 10.96c3.5251-1.541 7.1611-2.8604 10.888-3.9473v-7.0127c-6.715 1.7549-13.129 4.1914-19.146 7.2383 2.6778 1.3623 5.4327 2.6035 8.2579 3.7217z" transform="translate(20.523 10.474)"/>
   <path fill="#005c9c" d="m10.664 9.332c-3.7773-2.8291-7.3368-5.958-10.664-9.332v9.3574c1.667 1.5216 3.3818 2.9946 5.166 4.3976 1.7793-1.543 3.6113-3.02 5.498-4.423z" transform="translate(0 3.6084)"/>
   <path fill="#005c9c" d="m8.0674 4.9892v-4.9892c-2.7422 0.7187-5.4345 1.5478-8.0674 2.4902 2.6329 0.9443 5.3252 1.7774 8.0674 2.499z" transform="translate(31.602 20.001)"/>
   <path fill="#005c9c" d="m12.153 4.2159c-2.148-1.3204-4.2399-2.7256-6.2731-4.2159-2.0147 1.3213-3.9834 2.6993-5.8799 4.1622 1.9062 1.4824 3.877 2.8916 5.9063 4.2265 2.0254-1.4756 4.1097-2.8672 6.2467-4.1728z" transform="translate(5.5361 13.494)"/>
   <path fill="#005c9c" d="m0 8.8682v2.5958h32.43c-7.477-2.9005-14.504-6.7628-20.933-11.464-4.081 2.6689-7.9238 5.6367-11.497 8.8682z" transform="translate(0 32.471)"/>
   <path fill="#005c9c" d="m5.2041 0c-1.7949 1.3994-3.5234 2.8682-5.2041 4.3877v9.4123c3.3535-3.376 6.9356-6.5002 10.738-9.3263-1.8991-1.419-3.7448-2.9141-5.5339-4.4737z" transform="translate(0 27.44)"/>
   <path fill="#005c9c" d="m5.8848 0c-2.0166 1.3223-3.9873 2.6973-5.8848 4.1612 1.9082 1.4824 3.8809 2.8896 5.9101 4.2256 2.0284-1.4746 4.1139-2.8672 6.2519-4.1729-2.148-1.3193-4.2411-2.7236-6.2772-4.2139z" transform="translate(5.5713 22.981)"/>
   <path fill="#005c9c" d="m6.7705 7.8877c2.4092-1.4189 4.8855-2.7324 7.4225-3.9257-2.549-1.2051-5.0348-2.5313-7.4557-3.962-2.3056 1.2208-4.5586 2.5235-6.7373 3.918 2.1905 1.4112 4.4493 2.7354 6.7705 3.9697z" transform="translate(12.286 18.515)"/>
   <path fill="#005c9c" d="m5.2002 8.8965c1.7793-1.5429 3.6142-3.0195 5.5008-4.4218-1.8983-1.419-3.742-2.9131-5.5301-4.4747-1.7822 1.3907-3.5039 2.8506-5.1709 4.3614v0.1289c1.6748 1.5273 3.4072 2.999 5.2002 4.4062z" transform="translate(0 17.952)"/>
   <path fill="#005c9c" d="m0 0v9.1328c1.5615-1.5703 3.1719-3.0869 4.834-4.542-1.6641-1.4688-3.2715-3.0069-4.834-4.5908z" transform="translate(0 13.064)"/>
   <path fill="#005c9c" d="m0 0v9.1894c1.5752-1.582 3.1914-3.1191 4.8662-4.5859-1.6748-1.4756-3.2959-3.0098-4.8662-4.6035z" transform="translate(0 22.538)"/>
   <path fill="#005c9c" d="m0 4.1612c1.9082 1.4824 3.8809 2.8896 5.9101 4.2256 2.0284-1.4746 4.1139-2.8672 6.2519-4.1729-2.148-1.3193-4.2411-2.7236-6.2772-4.2139-2.0166 1.3223-3.9873 2.6973-5.8848 4.1612z" transform="translate(5.5713 22.981)"/>
   <path fill="#005c9c" d="m12.153 4.2159c-2.148-1.3204-4.2399-2.7256-6.2731-4.2159-2.0147 1.3213-3.9834 2.6993-5.8799 4.1622 1.9062 1.4824 3.877 2.8916 5.9063 4.2265 2.0254-1.4756 4.1097-2.8672 6.2467-4.1728z" transform="translate(5.5361 13.494)"/>
   <path fill="#005c9c" d="m6.7705 7.8877c2.4092-1.4189 4.8855-2.7324 7.4225-3.9257-2.549-1.2051-5.0348-2.5313-7.4557-3.962-2.3056 1.2208-4.5586 2.5235-6.7373 3.918 2.1905 1.4112 4.4493 2.7354 6.7705 3.9697z" transform="translate(12.286 18.515)"/>
   <path fill="#005c9c" d="m27.396 0c-9.889 2.5928-19.119 6.6709-27.396 11.974 2.1894 1.411 4.4453 2.736 6.7627 3.97 6.4513-3.798 13.381-6.8102 20.665-8.9323v-7.0117h-0.032z" transform="translate(12.242 .97168)"/>
   <path fill="#005c9c" d="m32.286 0h-32.286v2.5361c3.544 3.2344 7.3486 6.2159 11.401 8.8899 6.418-4.6819 13.431-8.5315 20.885-11.426z" transform="translate(0 .97168)"/>
   <path fill="#161413" d="m4.0088 9.4463h-4.0088v-0.5996h1.0879v-8.2471h-1.0879v-0.5996h4.0088v0.5996h-1.0732v8.2471h1.0732v0.5996" transform="translate(49.278 34.367)"/>
   <path fill="#161413" d="m8.3887 9.6045h-1.002l-4.9824-7.0147v6.2569h1.1308v0.5996h-3.2343v-0.5996h1.1875v-7.5157l-0.458-0.7314h-1.0303v-0.5996h2.8486l4.6387 6.5986v-5.999h-1.1319v-0.5996h3.2364v0.5996h-1.2031v9.0049" transform="translate(60.518 34.367)"/>
   <path fill="#161413" d="m0.873 9.8643h-0.7871v-2.5762h0.7871v1.0596c0.6446 0.5146 1.1299 0.7011 1.833 0.7011 0.8868 0 1.5323-0.5302 1.5323-1.2744 0-0.6445-0.416-1.1025-1.7481-1.9619-1.4033-0.8877-1.5752-1.0312-1.9453-1.4609-0.3594-0.4161-0.5449-0.9873-0.5449-1.6172 0-1.5733 1.1601-2.6192 2.9062-2.6192 0.5577 0 1.001 0.085 1.5459 0.3145v-0.4297h0.7745v2.4482h-0.7745v-0.9873c-0.6015-0.3867-0.9882-0.5312-1.5175-0.5312-0.7442 0-1.3164 0.5312-1.3164 1.2041 0 0.5713 0.3291 0.9307 1.7041 1.8017 0.6572 0.4297 1.0722 0.6895 1.2304 0.8047 0.3291 0.2276 0.6299 0.543 0.8731 0.9307 0.2715 0.4414 0.4004 0.916 0.4004 1.4736 0 1.6328-1.1885 2.7764-2.8633 2.7764-0.8301 0-1.4317-0.1729-2.0899-0.5576v0.501" transform="translate(77.854 34.079)"/>
   <path fill="#161413" d="m6.4844 9.8477h-4.6094v-0.5996h1.3887v-8.002h-2.4766v1.1875h-0.7871v-2.4336h0.7871v0.4014h6.7851v-0.4014h0.7872v2.4336h-0.7872v-1.1875h-2.4628v8.002h1.375v0.5996" transform="translate(90.955 33.966)"/>
   <path fill="#161413" d="m4.007 9.4463h-4.007v-0.5996h1.088v-8.2471h-1.088v-0.5996h4.007v0.5996h-1.074v8.2471h1.074v0.5996" transform="translate(105.49 34.367)"/>
   <path fill="#161413" d="m6.486 9.8477h-4.609v-0.5996h1.388v-8.002h-2.476v1.1875h-0.789v-2.4336h0.789v0.4014h6.785v-0.4014h0.789v2.4336h-0.789v-1.1875h-2.463v8.002h1.375v0.5996" transform="translate(115.41 33.966)"/>
   <path fill="#161413" d="m9.965 0.5996h-1.204v5.3828c0 1.6192-0.558 2.6348-1.775 3.2061-0.629 0.2861-1.33 0.4443-2.076 0.4443-2.318 0-3.822-1.2754-3.822-3.249v-5.7842h-1.088v-0.5996h4.008v0.5996h-1.075v5.3398c0 1.4473 0.26 2.1045 0.991 2.4913 0.341 0.1699 0.757 0.2714 1.187 0.2714 1.717 0 2.719-1.0156 2.719-2.7627v-5.3261h-1.188v-0.6133h3.323v0.5996" transform="translate(130.7 34.367)"/>
   <path fill="#161413" d="m6.484 9.8477h-4.609v-0.5996h1.388v-8.002h-2.476v1.1875h-0.787v-2.4336h0.787v0.4014h6.787v-0.4014h0.787v2.4336h-0.787v-1.1875h-2.465v8.002h1.375v0.5996" transform="translate(147.36 33.966)"/>
   <path fill="#161413" d="m6.814 9.8477h-6.814v-0.5996h1.088v-8.2471h-1.088v-0.5996h5.896v-0.4014h0.774v2.2754h-0.758v-1.0293h-2.979v3.377h2.291v-0.9737l0.774-0.0136v2.8193l-0.774 0.0156v-1.0029h-2.291v3.5342h3.108v-1.0576h0.773v1.9033" transform="translate(162.65 33.966)"/>
   <path fill="#161413" d="m6.4786 24.444h4.4514c3.339 0 5.366-1.987 5.366-5.246 0-3.299-2.266-5.684-5.366-5.684h-4.4514v10.93zm0-12.718h4.0534c2.583 0 4.413-2.1069 4.413-5.0483 0-2.7822-1.71-4.8486-4.054-4.8486h-4.4124v9.8969zm-6.4786 14.506v-1.47h2.9815v-23.291l-2.9815-0.0003v-1.4707h12.083c3.616 0 6.559 2.9023 6.559 6.5195 0 2.9805-2.624 5.6035-5.843 5.8815 1.629 0.199 2.225 0.359 3.219 0.835 2.464 1.153 3.895 3.457 3.895 6.16 0 3.897-3.02 6.836-7.074 6.836h-12.839z" transform="translate(47.648 1.0225)"/>
   <path fill="#161413" d="m6.4795 12.641h3.8155c3.019 0 5.127-2.227 5.127-5.4867 0-3.418-1.868-5.3252-5.206-5.3252h-3.7365v10.812zm16.496 13.591h-3.38c-2.344 0-2.781-0.237-4.094-2.344l-5.9219-9.42h-3.0996v10.294h2.9805v1.47h-9.46v-1.47h2.9815v-23.291l-2.9815-0.0003v-1.4707h11.05c3.854 0 6.041 1.0732 7.236 3.5381 0.514 1.0732 0.792 2.2656 0.792 3.5371 0 3.8558-2.146 6.3208-5.962 6.8758l5.725 8.824c0.954 1.471 1.588 1.948 2.584 1.948h1.55v1.509z" transform="translate(71.615 1.0225)"/>
   <path fill="#161413" d="m3.9366 13.594c0 6.716 3.7353 11.567 8.9024 11.567 5.087 0 8.785-4.889 8.785-11.567s-3.698-11.527-8.744-11.527c-5.2081 0.0004-8.9434 4.7689-8.9434 11.527zm-3.9366 0.039c0-7.4728 5.8029-13.633 12.839-13.633 6.916 0 12.72 6.2002 12.72 13.594 0 7.392-5.804 13.632-12.72 13.632-6.9971 0-12.839-6.2-12.839-13.593z" transform="translate(95.661 .54590)"/>
   <path fill="#161413" d="m16.694 16.534l-4.252-11.168-4.492 11.168h8.744zm9.34 10.532h-9.061v-1.47h3.178l-2.781-7.154-10.174-0.04-2.905 7.155h3.299v1.509h-7.59v-1.509h2.067l10.334-25.557h1.43l9.937 25.557h2.266v1.509z" transform="translate(120.96 .18848)"/>
   <path fill="#161413" d="m6.478 24.246h4.77c5.445 0 9.578-4.81 9.539-11.129 0-6.1209-4.211-11.09-9.459-11.09l-4.85 0.0003v22.219zm-6.478 1.986v-1.47h2.98v-23.291l-2.98-0.0003v-1.4707h11.726c7.154 0 12.996 5.8828 12.996 13.076 0 7.354-5.724 13.156-13.037 13.156h-11.685z" transform="translate(149.5 1.0225)"/>
  </g>
 </g>
</svg>
