<svg xmlns="http://www.w3.org/2000/svg" width="388" height="173"><g fill="none" fill-rule="evenodd"><path fill="#73E800" d="M29.378 57.856c15.827 0 28.658 12.84 28.658 28.678 0 15.838-12.831 28.678-28.658 28.678C13.55 115.212.72 102.372.72 86.534c0-15.838 12.83-28.678 28.658-28.678"/><path fill="#FFB029" d="M172.663.5c15.827 0 28.658 12.84 28.658 28.678 0 15.838-12.831 28.678-28.658 28.678-15.827 0-28.658-12.84-28.658-28.678C144.005 13.34 156.835.5 172.663.5"/><path fill="#FF00DB" d="M172.663 115.212c15.827 0 28.658 12.84 28.658 28.678 0 15.838-12.831 28.678-28.658 28.678-15.827 0-28.658-12.84-28.658-28.678 0-15.838 12.83-28.678 28.658-28.678"/><path fill="#000" d="M254.333 45.73c6.767 0 9.7-3.781 10.602-8.296h4.738c-1.297 7.337-6.542 12.416-15.34 12.416-10.378 0-18.047-8.183-18.047-20.881 0-12.643 7.669-20.77 18.047-20.77 8.798 0 14.043 5.08 15.34 12.417h-4.738c-.902-4.515-3.835-8.297-10.602-8.297-8.291 0-13.084 6.603-13.084 16.65 0 10.045 4.793 16.76 13.084 16.76zm34.23 4.12c-7.838 0-13.478-5.7-13.478-14.843s5.64-14.9 13.479-14.9c7.839 0 13.479 5.757 13.479 14.9s-5.64 14.843-13.48 14.843zm0-3.781c5.528 0 8.855-4.233 8.855-11.062 0-6.83-3.327-11.118-8.854-11.118-5.527 0-8.855 4.289-8.855 11.118 0 6.829 3.328 11.062 8.855 11.062zm39.082 3.104v-5.136c-1.354 3.556-4.737 5.813-9.023 5.813-6.43 0-10.04-3.894-10.04-10.78V20.786h4.738v17.383c0 5.249 2.199 8.014 6.655 8.014 4.286 0 7.5-2.935 7.5-9.764V20.785h4.738v28.388h-4.568zm17.989-23.196c1.354-3.5 4.907-5.87 9.25-5.87 6.372 0 10.15 4.008 10.15 10.78v18.286h-4.68v-17.27c0-5.248-2.312-7.957-6.768-7.957-4.342 0-7.783 2.765-7.783 9.594v15.633h-4.681V20.785h4.512v5.192zm41.789 22.857c-2.087.62-3.723.79-4.964.79-5.188 0-7.84-2.483-7.84-7.732V24.34h-4.173v-3.556h4.174V13.56h4.625v7.224h7.444v3.556h-7.501v17.326c0 2.99 1.523 4.007 4.117 4.007 1.072 0 2.313-.113 4.118-.677v3.837zm-128.635 57.612l-13.084-35.33h-.113v35.33h-4.625V66.15h7.5l12.409 33.975h.112l12.408-33.975h7.219v40.296h-4.681v-35.33h-.113l-13.084 35.33h-3.948zm42.803.677c-8.008 0-13.648-5.587-13.648-14.73 0-9.256 5.809-15.012 13.366-15.012 8.403 0 12.182 6.716 12.182 13.996v1.862h-20.98c.225 6.547 3.666 10.159 9.08 10.159 3.836 0 6.147-1.862 7.332-5.305h4.399c-1.298 6.039-6.204 9.03-11.731 9.03zm-8.911-17.27h16.243c-.113-4.91-2.538-8.691-7.614-8.691-4.455 0-7.84 2.878-8.63 8.69zm-51.714 33.889h4.85v40.296h-4.85v-40.296zm18.272 17.1c1.354-3.5 4.907-5.868 9.25-5.868 6.373 0 10.15 4.006 10.15 10.779v18.286h-4.68v-17.27c0-5.25-2.313-7.958-6.768-7.958-4.342 0-7.782 2.765-7.782 9.595v15.633h-4.682v-28.39h4.512v5.194zM76.972 31.056h95.691v-4.063H76.972z"/><path fill="#FF6100" d="M76.972.5C92.8.5 105.63 13.34 105.63 29.178c0 15.838-12.83 28.678-28.658 28.678-15.827 0-28.658-12.84-28.658-28.678C48.314 13.34 61.145.5 76.972.5"/><path fill="#000" d="M29.377 88.621h95.691v-4.063H29.377z"/><path fill="#00D49E" d="M125.069 57.856c15.826 0 28.657 12.84 28.657 28.678 0 15.838-12.83 28.678-28.657 28.678-15.828 0-28.659-12.84-28.659-28.678 0-15.838 12.832-28.678 28.659-28.678"/><path fill="#000" d="M76.972 145.922h95.691v-4.063H76.972z"/><path fill="#7054FF" d="M76.972 115.212c15.827 0 28.658 12.84 28.658 28.678 0 15.838-12.83 28.678-28.658 28.678-15.827 0-28.658-12.84-28.658-28.678 0-15.838 12.831-28.678 28.658-28.678"/></g></svg>