<?xml version="1.0" encoding="utf-8"?>
<!-- Generator: Adobe Illustrator 22.0.1, SVG Export Plug-In . SVG Version: 6.00 Build 0)  -->
<svg version="1.1" id="Capa_1" xmlns="http://www.w3.org/2000/svg" xmlns:xlink="http://www.w3.org/1999/xlink" x="0px" y="0px"
	 viewBox="0 0 360 207.3" style="enable-background:new 0 0 360 207.3;" xml:space="preserve">
<style type="text/css">
	.st0{fill:#23A8E0;}
	.st1{fill:#231F20;}
	.st2{fill:none;}
</style>
<g>
	<g>
		<g>
			<path d="M56.4,54.6v54.3c0,6.2-0.2,10.5-0.7,13c-0.5,2.5-1.9,5-4.2,7.7c-2.3,2.6-5.3,4.6-9.1,6c-3.8,1.4-8.2,2-13.3,2
				c-5.7,0-10.7-0.8-15-2.4c-4.3-1.6-7.6-3.7-9.7-6.3c-2.1-2.6-3.4-5.3-3.8-8.1c-0.4-2.9-0.6-8.9-0.6-18v-48h24.6v60.9
				c0,3.5,0.2,5.8,0.7,6.8c0.4,1,1.4,1.5,2.7,1.5c1.6,0,2.6-0.5,3-1.6c0.4-1.1,0.7-3.6,0.7-7.7V54.6H56.4z"/>
			<path d="M110.5,90.5h-21v-3.6c0-3.1-0.2-5-0.6-5.8c-0.4-0.8-1.4-1.2-3.1-1.2c-1.3,0-2.3,0.4-3,1.1c-0.7,0.7-1,1.9-1,3.4
				c0,2,0.2,3.5,0.5,4.5c0.3,1,1.3,2,3,3.1c1.7,1.1,5.1,2.8,10.2,5c6.9,2.9,11.4,5.6,13.5,8.1c2.1,2.5,3.2,6.2,3.2,11.1
				c0,5.4-0.8,9.5-2.5,12.3c-1.6,2.8-4.4,4.9-8.2,6.4c-3.8,1.5-8.5,2.2-13.9,2.2c-6,0-11.2-0.8-15.4-2.4c-4.3-1.6-7.2-3.8-8.8-6.5
				c-1.6-2.7-2.4-6.9-2.4-12.4v-3.2h21v4.2c0,3.6,0.3,5.9,0.8,7c0.5,1.1,1.6,1.6,3.1,1.6c1.7,0,2.8-0.4,3.5-1.1c0.7-0.7,1-2.2,1-4.5
				c0-3.2-0.4-5.2-1.3-6c-0.9-0.8-5.5-3.2-13.8-7.1c-6.9-3.3-11.2-6.4-12.7-9.1c-1.5-2.7-2.3-6-2.3-9.7c0-5.3,0.8-9.2,2.5-11.8
				c1.6-2.5,4.4-4.5,8.3-5.8c3.9-1.4,8.5-2.1,13.7-2.1c5.2,0,9.5,0.6,13.1,1.7c3.6,1.1,6.4,2.6,8.3,4.4c1.9,1.8,3.1,3.5,3.5,5.1
				c0.4,1.6,0.6,4,0.6,7.4V90.5z"/>
			<path d="M238.6,54.6v16.2h-14.6v64.9h-24.6V70.9h-14.6V54.6H238.6z"/>
			<path d="M297.5,102.1c0,8.2-0.2,13.9-0.7,17.3c-0.4,3.4-1.9,6.5-4.2,9.3c-2.4,2.8-5.6,5-9.6,6.5c-4,1.5-8.7,2.3-14,2.3
				c-5.1,0-9.6-0.7-13.7-2.1c-4-1.4-7.3-3.5-9.7-6.4c-2.5-2.8-3.9-5.9-4.4-9.3c-0.5-3.3-0.7-9.2-0.7-17.5V88.3
				c0-8.2,0.2-13.9,0.7-17.3c0.4-3.4,1.9-6.5,4.2-9.3c2.4-2.8,5.6-5,9.6-6.5c4-1.5,8.7-2.3,14.1-2.3c5.1,0,9.6,0.7,13.7,2.1
				c4,1.4,7.3,3.6,9.7,6.4c2.5,2.8,3.9,5.9,4.4,9.3c0.5,3.3,0.7,9.2,0.7,17.6V102.1z M272.8,75.5c0-3.8-0.2-6.2-0.7-7.2
				c-0.5-1.1-1.5-1.6-3-1.6c-1.3,0-2.3,0.4-3,1.3c-0.7,0.8-1,3.4-1,7.5v37.9c0,4.7,0.2,7.6,0.7,8.7c0.4,1.1,1.5,1.7,3.1,1.7
				c1.7,0,2.8-0.6,3.2-1.9c0.5-1.3,0.7-4.3,0.7-9.1V75.5z"/>
			<path d="M360,102.1c0,8.2-0.2,13.9-0.7,17.3c-0.5,3.4-1.9,6.5-4.2,9.3c-2.4,2.8-5.6,5-9.6,6.5c-4,1.5-8.7,2.3-14.1,2.3
				c-5.1,0-9.6-0.7-13.7-2.1c-4-1.4-7.3-3.5-9.7-6.4c-2.5-2.8-3.9-5.9-4.4-9.3c-0.5-3.3-0.7-9.2-0.7-17.5V88.3
				c0-8.2,0.2-13.9,0.7-17.3c0.4-3.4,1.9-6.5,4.2-9.3c2.4-2.8,5.5-5,9.6-6.5c4-1.5,8.7-2.3,14-2.3c5.1,0,9.6,0.7,13.7,2.1
				c4,1.4,7.3,3.6,9.7,6.4c2.5,2.8,3.9,5.9,4.4,9.3c0.5,3.3,0.7,9.2,0.7,17.6V102.1z M335.4,75.5c0-3.8-0.2-6.2-0.7-7.2
				c-0.5-1.1-1.5-1.6-3-1.6c-1.3,0-2.3,0.4-3,1.3c-0.7,0.8-1,3.4-1,7.5v37.9c0,4.7,0.2,7.6,0.7,8.7c0.4,1.1,1.5,1.7,3.1,1.7
				c1.7,0,2.8-0.6,3.2-1.9c0.5-1.3,0.7-4.3,0.7-9.1V75.5z"/>
		</g>
		<g>
			<path class="st0" d="M172.2,75.4c-1.5,4.4-3.9,8.6-6.4,12.6c-6.1,9.9-14.2,18.4-22.6,26.4c-13,12.3-27.9,23.9-43.9,32.1
				c-4.8,2.5,4,10.4,0,14.2c21.7-11,41.8-28,57.6-46.4c14.6-17.1,25.6-42.1,15.7-64.4c-6.5-14.7-21.9-18.9-34.8-9.5
				c-12.9,9.4-16.1,26.7-16,41.6c0.1,33.1,27.4,54.4,55.4,66.8c-2.7-3.1,3.7-12.4,0-14.2l0,0c-21.9-9.8-45.7-25.6-53-49.7
				c-4-13.3,9.2-29.5,20.6-34.5c12.1-5.3,25.9,2.3,28,14.3C173.5,68.5,173.2,72.6,172.2,75.4L172.2,75.4L172.2,75.4z"/>
		</g>
	</g>
	<g>
		<path class="st0" d="M200,154.3v-15h4.9c1.8,0,3,0.1,3.6,0.2c0.9,0.2,1.6,0.7,2.2,1.5c0.6,0.8,0.9,1.7,0.9,2.9
			c0,0.9-0.2,1.7-0.5,2.3c-0.3,0.6-0.8,1.1-1.3,1.5c-0.5,0.4-1,0.6-1.6,0.7c-0.7,0.1-1.8,0.2-3.1,0.2h-2v5.7H200z M203.1,141.8v4.3
			h1.7c1.2,0,2-0.1,2.4-0.2s0.7-0.4,0.9-0.7c0.2-0.3,0.3-0.7,0.3-1.2c0-0.5-0.2-1-0.5-1.4c-0.3-0.4-0.7-0.6-1.2-0.7
			c-0.4-0.1-1.1-0.1-2.2-0.1H203.1z"/>
		<path class="st0" d="M216.8,154.3h-2.9v-10.9h2.7v1.5c0.5-0.7,0.9-1.2,1.2-1.4c0.4-0.2,0.8-0.3,1.2-0.3c0.7,0,1.3,0.2,1.9,0.5
			l-0.9,2.5c-0.5-0.3-0.9-0.5-1.4-0.5c-0.4,0-0.7,0.1-1,0.3c-0.3,0.2-0.5,0.6-0.7,1.2c-0.2,0.6-0.2,1.8-0.2,3.7V154.3z"/>
		<path class="st0" d="M221.5,148.7c0-1,0.2-1.9,0.7-2.8c0.5-0.9,1.1-1.6,2-2.1c0.9-0.5,1.8-0.7,2.9-0.7c1.6,0,3,0.5,4.1,1.6
			c1.1,1.1,1.6,2.4,1.6,4.1c0,1.6-0.5,3-1.6,4.1c-1.1,1.1-2.4,1.6-4,1.6c-1,0-2-0.2-2.9-0.7c-0.9-0.5-1.6-1.1-2.1-2
			C221.7,151,221.5,149.9,221.5,148.7z M224.5,148.8c0,1.1,0.3,1.9,0.8,2.5c0.5,0.6,1.1,0.9,1.9,0.9s1.4-0.3,1.9-0.9
			c0.5-0.6,0.8-1.4,0.8-2.5c0-1.1-0.3-1.9-0.8-2.5c-0.5-0.6-1.1-0.9-1.9-0.9s-1.4,0.3-1.9,0.9C224.7,146.9,224.5,147.7,224.5,148.8z
			"/>
		<path class="st0" d="M234,151.2l2.9-0.4c0.1,0.6,0.4,1,0.7,1.3c0.4,0.3,0.9,0.4,1.6,0.4c0.7,0,1.3-0.1,1.7-0.4
			c0.3-0.2,0.4-0.4,0.4-0.8c0-0.2-0.1-0.4-0.2-0.5c-0.1-0.1-0.5-0.3-1-0.4c-2.3-0.5-3.8-1-4.4-1.4c-0.9-0.6-1.3-1.4-1.3-2.5
			c0-0.9,0.4-1.7,1.1-2.4s1.9-1,3.5-1c1.5,0,2.6,0.2,3.3,0.7c0.7,0.5,1.2,1.2,1.5,2.2l-2.7,0.5c-0.1-0.4-0.3-0.7-0.7-1
			c-0.3-0.2-0.8-0.3-1.4-0.3c-0.8,0-1.3,0.1-1.6,0.3c-0.2,0.2-0.3,0.3-0.3,0.6c0,0.2,0.1,0.4,0.3,0.5c0.3,0.2,1.2,0.5,2.7,0.8
			c1.5,0.3,2.6,0.8,3.2,1.3c0.6,0.5,0.9,1.2,0.9,2.1c0,1-0.4,1.9-1.3,2.6c-0.8,0.7-2.1,1.1-3.7,1.1c-1.5,0-2.7-0.3-3.5-0.9
			C234.8,153,234.3,152.2,234,151.2z"/>
		<path class="st0" d="M251.7,143.4v2.3h-2v4.4c0,0.9,0,1.4,0.1,1.6c0,0.1,0.1,0.3,0.3,0.4c0.1,0.1,0.3,0.1,0.5,0.1
			c0.3,0,0.7-0.1,1.2-0.3l0.2,2.2c-0.7,0.3-1.4,0.4-2.3,0.4c-0.5,0-1-0.1-1.4-0.3c-0.4-0.2-0.7-0.4-0.9-0.7
			c-0.2-0.3-0.3-0.7-0.4-1.1c-0.1-0.3-0.1-1-0.1-2v-4.7h-1.3v-2.3h1.3v-2.2l2.9-1.7v3.8H251.7z"/>
		<path class="st0" d="M255.8,146.7l-2.6-0.5c0.3-1.1,0.8-1.8,1.5-2.3s1.8-0.8,3.2-0.8c1.3,0,2.2,0.2,2.9,0.5
			c0.6,0.3,1.1,0.7,1.3,1.2c0.3,0.5,0.4,1.3,0.4,2.6l0,3.4c0,1,0,1.7,0.1,2.1c0.1,0.5,0.3,0.9,0.5,1.5h-2.9
			c-0.1-0.2-0.2-0.5-0.3-0.9c0-0.2-0.1-0.3-0.1-0.3c-0.5,0.5-1,0.8-1.6,1.1c-0.6,0.2-1.2,0.4-1.8,0.4c-1.1,0-2-0.3-2.7-0.9
			c-0.6-0.6-1-1.4-1-2.3c0-0.6,0.1-1.2,0.4-1.6c0.3-0.5,0.7-0.9,1.2-1.1c0.5-0.3,1.3-0.5,2.3-0.7c1.3-0.3,2.3-0.5,2.8-0.7v-0.3
			c0-0.6-0.1-0.9-0.4-1.2c-0.3-0.2-0.8-0.4-1.5-0.4c-0.5,0-0.9,0.1-1.2,0.3C256.2,145.8,256,146.2,255.8,146.7z M259.7,149
			c-0.4,0.1-1,0.3-1.8,0.4c-0.8,0.2-1.3,0.3-1.6,0.5c-0.4,0.3-0.6,0.6-0.6,1c0,0.4,0.2,0.8,0.5,1s0.7,0.4,1.1,0.4
			c0.5,0,1-0.2,1.5-0.5c0.3-0.3,0.6-0.6,0.7-1c0.1-0.2,0.1-0.7,0.1-1.4V149z"/>
		<path class="st0" d="M270.4,143.4v2.3h-2v4.4c0,0.9,0,1.4,0.1,1.6c0,0.1,0.1,0.3,0.3,0.4c0.1,0.1,0.3,0.1,0.5,0.1
			c0.3,0,0.7-0.1,1.2-0.3l0.2,2.2c-0.7,0.3-1.4,0.4-2.3,0.4c-0.5,0-1-0.1-1.4-0.3c-0.4-0.2-0.7-0.4-0.9-0.7
			c-0.2-0.3-0.3-0.7-0.4-1.1c-0.1-0.3-0.1-1-0.1-2v-4.7h-1.3v-2.3h1.3v-2.2l2.9-1.7v3.8H270.4z"/>
		<path class="st0" d="M278.7,150.8l2.9,0.5c-0.4,1.1-1,1.9-1.7,2.4c-0.8,0.5-1.8,0.8-3,0.8c-1.9,0-3.3-0.6-4.2-1.9
			c-0.7-1-1.1-2.2-1.1-3.8c0-1.8,0.5-3.2,1.4-4.2c0.9-1,2.1-1.5,3.6-1.5c1.6,0,2.9,0.5,3.8,1.6c0.9,1.1,1.4,2.7,1.3,4.9h-7.2
			c0,0.9,0.3,1.5,0.7,2c0.4,0.5,1,0.7,1.7,0.7c0.5,0,0.8-0.1,1.1-0.4S278.5,151.3,278.7,150.8z M278.8,147.9c0-0.8-0.2-1.5-0.6-1.9
			c-0.4-0.4-0.9-0.7-1.5-0.7c-0.6,0-1.1,0.2-1.6,0.7s-0.6,1.1-0.6,1.9H278.8z"/>
		<path class="st0" d="M299.5,148.7l2.9,0.9c-0.5,1.6-1.2,2.9-2.3,3.7c-1,0.8-2.4,1.2-4,1.2c-2,0-3.6-0.7-4.9-2
			c-1.3-1.4-1.9-3.2-1.9-5.6c0-2.5,0.6-4.4,1.9-5.8c1.3-1.4,3-2.1,5.1-2.1c1.8,0,3.3,0.5,4.5,1.6c0.7,0.6,1.2,1.6,1.5,2.8l-3,0.7
			c-0.2-0.8-0.5-1.4-1.1-1.8c-0.6-0.5-1.2-0.7-2.1-0.7c-1.1,0-2,0.4-2.7,1.2c-0.7,0.8-1,2.1-1,3.9c0,1.9,0.3,3.3,1,4.1
			s1.6,1.2,2.7,1.2c0.8,0,1.5-0.3,2.1-0.8C298.8,150.6,299.3,149.8,299.5,148.7z"/>
		<path class="st0" d="M307.2,146.7l-2.6-0.5c0.3-1.1,0.8-1.8,1.5-2.3s1.8-0.8,3.2-0.8c1.3,0,2.2,0.2,2.9,0.5
			c0.6,0.3,1.1,0.7,1.3,1.2c0.3,0.5,0.4,1.3,0.4,2.6l0,3.4c0,1,0,1.7,0.1,2.1c0.1,0.5,0.3,0.9,0.5,1.5h-2.9
			c-0.1-0.2-0.2-0.5-0.3-0.9c0-0.2-0.1-0.3-0.1-0.3c-0.5,0.5-1,0.8-1.6,1.1c-0.6,0.2-1.2,0.4-1.8,0.4c-1.1,0-2-0.3-2.7-0.9
			c-0.6-0.6-1-1.4-1-2.3c0-0.6,0.1-1.2,0.4-1.6c0.3-0.5,0.7-0.9,1.2-1.1c0.5-0.3,1.3-0.5,2.3-0.7c1.3-0.3,2.3-0.5,2.8-0.7v-0.3
			c0-0.6-0.1-0.9-0.4-1.2c-0.3-0.2-0.8-0.4-1.5-0.4c-0.5,0-0.9,0.1-1.2,0.3C307.6,145.8,307.4,146.2,307.2,146.7z M311,149
			c-0.4,0.1-1,0.3-1.8,0.4c-0.8,0.2-1.3,0.3-1.6,0.5c-0.4,0.3-0.6,0.6-0.6,1c0,0.4,0.2,0.8,0.5,1s0.7,0.4,1.1,0.4
			c0.5,0,1-0.2,1.5-0.5c0.3-0.3,0.6-0.6,0.7-1c0.1-0.2,0.1-0.7,0.1-1.4V149z"/>
		<path class="st0" d="M326.6,154.3h-2.9v-5.6c0-1.2-0.1-1.9-0.2-2.3c-0.1-0.3-0.3-0.6-0.6-0.8c-0.3-0.2-0.6-0.3-1-0.3
			c-0.5,0-0.9,0.1-1.3,0.4c-0.4,0.3-0.7,0.6-0.8,1.1c-0.1,0.5-0.2,1.3-0.2,2.5v4.9h-2.9v-10.9h2.7v1.6c1-1.2,2.1-1.8,3.6-1.8
			c0.6,0,1.2,0.1,1.7,0.3c0.5,0.2,0.9,0.5,1.2,0.9c0.3,0.4,0.5,0.8,0.6,1.2c0.1,0.5,0.2,1.1,0.2,1.9V154.3z"/>
		<path class="st0" d="M339,146.6l-2.8,0.5c-0.1-0.6-0.3-1-0.7-1.3c-0.3-0.3-0.8-0.4-1.3-0.4c-0.7,0-1.3,0.2-1.7,0.7
			c-0.4,0.5-0.6,1.3-0.6,2.5c0,1.3,0.2,2.2,0.7,2.7c0.4,0.5,1,0.8,1.7,0.8c0.5,0,1-0.2,1.3-0.5c0.3-0.3,0.6-0.8,0.7-1.6l2.8,0.5
			c-0.3,1.3-0.9,2.3-1.7,2.9s-2,1-3.4,1c-1.6,0-2.9-0.5-3.8-1.5c-0.9-1-1.4-2.4-1.4-4.2c0-1.8,0.5-3.2,1.4-4.2c1-1,2.2-1.5,3.9-1.5
			c1.3,0,2.4,0.3,3.2,0.9C338.1,144.6,338.7,145.4,339,146.6z"/>
		<path class="st0" d="M347.5,150.8l2.9,0.5c-0.4,1.1-1,1.9-1.7,2.4c-0.8,0.5-1.8,0.8-3,0.8c-1.9,0-3.3-0.6-4.2-1.9
			c-0.7-1-1.1-2.2-1.1-3.8c0-1.8,0.5-3.2,1.4-4.2c0.9-1,2.1-1.5,3.6-1.5c1.6,0,2.9,0.5,3.8,1.6c0.9,1.1,1.4,2.7,1.3,4.9h-7.2
			c0,0.9,0.3,1.5,0.7,2c0.4,0.5,1,0.7,1.7,0.7c0.5,0,0.8-0.1,1.1-0.4S347.4,151.3,347.5,150.8z M347.7,147.9c0-0.8-0.2-1.5-0.6-1.9
			c-0.4-0.4-0.9-0.7-1.5-0.7c-0.6,0-1.1,0.2-1.6,0.7s-0.6,1.1-0.6,1.9H347.7z"/>
		<path class="st0" d="M355.7,154.3h-2.9v-10.9h2.7v1.5c0.5-0.7,0.9-1.2,1.2-1.4c0.4-0.2,0.8-0.3,1.2-0.3c0.7,0,1.3,0.2,1.9,0.5
			l-0.9,2.5c-0.5-0.3-0.9-0.5-1.4-0.5c-0.4,0-0.7,0.1-1,0.3c-0.3,0.2-0.5,0.6-0.7,1.2c-0.2,0.6-0.2,1.8-0.2,3.7V154.3z"/>
	</g>
	<g>
		<path class="st1" d="M2.8,175.7l4.1-0.3c0.1,0.7,0.3,1.2,0.5,1.5c0.4,0.6,1.1,0.8,1.9,0.8c0.6,0,1.1-0.1,1.4-0.4
			c0.3-0.3,0.5-0.6,0.5-1c0-0.4-0.2-0.7-0.5-1c-0.3-0.3-1.1-0.6-2.2-0.8c-1.9-0.4-3.2-1-4-1.7c-0.8-0.7-1.2-1.6-1.2-2.7
			c0-0.7,0.2-1.4,0.6-2c0.4-0.6,1-1.1,1.9-1.5c0.8-0.4,2-0.5,3.4-0.5c1.8,0,3.1,0.3,4.1,1c0.9,0.7,1.5,1.7,1.7,3.2l-4.1,0.2
			c-0.1-0.6-0.3-1.1-0.7-1.4c-0.3-0.3-0.8-0.4-1.4-0.4c-0.5,0-0.9,0.1-1.1,0.3c-0.3,0.2-0.4,0.5-0.4,0.8c0,0.2,0.1,0.4,0.3,0.6
			c0.2,0.2,0.7,0.4,1.4,0.5c1.9,0.4,3.2,0.8,4.1,1.2c0.8,0.4,1.4,0.9,1.8,1.5c0.4,0.6,0.6,1.3,0.6,2.1c0,0.9-0.2,1.7-0.7,2.5
			c-0.5,0.8-1.2,1.3-2.1,1.7c-0.9,0.4-2,0.6-3.4,0.6c-2.4,0-4-0.5-4.9-1.4S2.9,177.2,2.8,175.7z"/>
		<path class="st1" d="M26.9,166.4h1.8v8.1c0,1.4-0.2,2.5-0.5,3.3s-0.9,1.5-1.7,2c-0.8,0.5-1.9,0.8-3.3,0.8c-1.3,0-2.4-0.2-3.2-0.7
			c-0.8-0.5-1.4-1.1-1.8-2c-0.4-0.9-0.5-2-0.5-3.5v-8.1h1.8v8.1c0,1.2,0.1,2.1,0.3,2.7c0.2,0.6,0.6,1,1.2,1.3c0.5,0.3,1.2,0.5,2,0.5
			c1.4,0,2.3-0.3,2.9-0.9c0.6-0.6,0.9-1.8,0.9-3.6V166.4z"/>
		<path class="st1" d="M31.8,180.4v-14h5.3c0.9,0,1.6,0,2.1,0.1c0.7,0.1,1.3,0.3,1.7,0.7s0.8,0.8,1.1,1.3c0.3,0.6,0.4,1.2,0.4,1.9
			c0,1.2-0.4,2.2-1.1,3c-0.8,0.8-2.1,1.2-4.1,1.2h-3.6v5.7H31.8z M33.7,173h3.6c1.2,0,2-0.2,2.5-0.7s0.8-1.1,0.8-1.9
			c0-0.6-0.1-1.1-0.4-1.5c-0.3-0.4-0.7-0.7-1.2-0.8c-0.3-0.1-0.9-0.1-1.7-0.1h-3.6V173z"/>
		<path class="st1" d="M44.8,180.4v-14h5.3c0.9,0,1.6,0,2.1,0.1c0.7,0.1,1.3,0.3,1.7,0.7s0.8,0.8,1.1,1.3c0.3,0.6,0.4,1.2,0.4,1.9
			c0,1.2-0.4,2.2-1.1,3c-0.8,0.8-2.1,1.2-4.1,1.2h-3.6v5.7H44.8z M46.7,173h3.6c1.2,0,2-0.2,2.5-0.7s0.8-1.1,0.8-1.9
			c0-0.6-0.1-1.1-0.4-1.5c-0.3-0.4-0.7-0.7-1.2-0.8c-0.3-0.1-0.9-0.1-1.7-0.1h-3.6V173z"/>
		<path class="st1" d="M57.3,173.6c0-2.3,0.6-4.1,1.9-5.4c1.2-1.3,2.9-2,4.8-2c1.3,0,2.4,0.3,3.5,0.9c1,0.6,1.8,1.5,2.4,2.6
			c0.5,1.1,0.8,2.4,0.8,3.7c0,1.4-0.3,2.7-0.9,3.8s-1.4,2-2.4,2.5c-1,0.6-2.2,0.9-3.4,0.9c-1.3,0-2.5-0.3-3.5-1s-1.8-1.5-2.4-2.6
			C57.5,176,57.3,174.8,57.3,173.6z M59.2,173.6c0,1.7,0.5,3,1.4,4c0.9,1,2,1.5,3.4,1.5c1.4,0,2.5-0.5,3.4-1.5
			c0.9-1,1.3-2.4,1.3-4.2c0-1.1-0.2-2.1-0.6-3c-0.4-0.8-0.9-1.5-1.7-2c-0.7-0.5-1.6-0.7-2.5-0.7c-1.3,0-2.4,0.4-3.4,1.3
			C59.6,170,59.2,171.5,59.2,173.6z"/>
		<path class="st1" d="M73,180.4v-14h6.2c1.2,0,2.2,0.1,2.8,0.4s1.2,0.7,1.6,1.3s0.6,1.3,0.6,2.1c0,1-0.3,1.8-1,2.5
			c-0.6,0.7-1.6,1.1-3,1.3c0.5,0.2,0.9,0.5,1.1,0.7c0.5,0.5,1.1,1.1,1.5,1.9l2.4,3.8H83l-1.8-2.9c-0.5-0.8-1-1.5-1.3-1.9
			s-0.7-0.8-0.9-0.9c-0.3-0.2-0.6-0.3-0.8-0.4c-0.2,0-0.6-0.1-1-0.1h-2.1v6.2H73z M74.9,172.6h4c0.8,0,1.5-0.1,2-0.3
			s0.8-0.5,1.1-0.8s0.4-0.8,0.4-1.3c0-0.7-0.2-1.2-0.7-1.6c-0.5-0.4-1.2-0.6-2.3-0.6h-4.4V172.6z"/>
		<path class="st1" d="M90.3,180.4v-12.3h-4.6v-1.6h11.1v1.6h-4.6v12.3H90.3z"/>
		<path class="st1" d="M103.6,176.6V174h5.3v2.7H103.6z"/>
		<path class="st1" d="M115.9,166.4h11.6v3h-7.2v2.2h6.7v2.8h-6.7v2.8h7.4v3.2h-11.8V166.4z"/>
		<path class="st1" d="M130,180.4v-14h4.8c1.1,0,1.9,0.1,2.5,0.2c0.8,0.2,1.5,0.5,2,1c0.7,0.6,1.3,1.4,1.7,2.4
			c0.4,1,0.5,2.1,0.5,3.3c0,1.1-0.1,2-0.4,2.8c-0.2,0.8-0.6,1.5-1,2s-0.8,1-1.3,1.3c-0.5,0.3-1,0.5-1.7,0.7
			c-0.7,0.2-1.4,0.2-2.2,0.2H130z M131.9,178.7h3c0.9,0,1.6-0.1,2.2-0.3c0.5-0.2,0.9-0.4,1.3-0.7c0.4-0.4,0.8-1,1-1.8
			c0.2-0.7,0.4-1.6,0.4-2.7c0-1.5-0.2-2.6-0.7-3.4c-0.5-0.8-1.1-1.3-1.7-1.6c-0.5-0.2-1.3-0.3-2.4-0.3h-2.9V178.7z"/>
		<path class="st1" d="M153.3,166.4h1.8v8.1c0,1.4-0.2,2.5-0.5,3.3s-0.9,1.5-1.7,2c-0.8,0.5-1.9,0.8-3.3,0.8c-1.3,0-2.4-0.2-3.2-0.7
			c-0.8-0.5-1.4-1.1-1.8-2c-0.4-0.9-0.5-2-0.5-3.5v-8.1h1.8v8.1c0,1.2,0.1,2.1,0.3,2.7c0.2,0.6,0.6,1,1.2,1.3c0.5,0.3,1.2,0.5,2,0.5
			c1.4,0,2.3-0.3,2.9-0.9c0.6-0.6,0.9-1.8,0.9-3.6V166.4z"/>
		<path class="st1" d="M168.2,175.5l1.8,0.5c-0.4,1.5-1.1,2.7-2.1,3.5c-1,0.8-2.2,1.2-3.7,1.2c-1.5,0-2.7-0.3-3.7-0.9
			c-0.9-0.6-1.7-1.5-2.2-2.7c-0.5-1.2-0.7-2.4-0.7-3.7c0-1.5,0.3-2.7,0.8-3.8c0.6-1.1,1.3-1.9,2.4-2.5c1-0.6,2.2-0.8,3.4-0.8
			c1.4,0,2.6,0.4,3.5,1.1s1.6,1.7,2,3l-1.8,0.4c-0.3-1-0.8-1.8-1.4-2.2c-0.6-0.5-1.4-0.7-2.3-0.7c-1.1,0-2,0.3-2.7,0.8
			c-0.7,0.5-1.2,1.2-1.5,2.1s-0.4,1.8-0.4,2.7c0,1.2,0.2,2.2,0.5,3.1c0.3,0.9,0.9,1.5,1.6,2c0.7,0.4,1.5,0.7,2.4,0.7
			c1,0,1.9-0.3,2.6-0.9S167.9,176.6,168.2,175.5z"/>
		<path class="st1" d="M170.8,180.4l5.4-14h2l5.7,14h-2.1l-1.6-4.2h-5.8l-1.5,4.2H170.8z M174.8,174.6h4.7l-1.5-3.9
			c-0.4-1.2-0.8-2.1-1-2.9c-0.2,0.9-0.4,1.8-0.8,2.7L174.8,174.6z"/>
		<path class="st1" d="M187.4,180.4v-12.3h-4.6v-1.6h11.1v1.6h-4.6v12.3H187.4z"/>
		<path class="st1" d="M196.1,180.4v-14h1.8v14H196.1z"/>
		<path class="st1" d="M200.6,173.6c0-2.3,0.6-4.1,1.9-5.4c1.2-1.3,2.9-2,4.8-2c1.3,0,2.5,0.3,3.5,0.9c1,0.6,1.8,1.5,2.4,2.6
			c0.5,1.1,0.8,2.4,0.8,3.7c0,1.4-0.3,2.7-0.9,3.8s-1.4,2-2.4,2.5c-1,0.6-2.2,0.9-3.4,0.9c-1.3,0-2.5-0.3-3.5-1
			c-1-0.6-1.8-1.5-2.4-2.6C200.9,176,200.6,174.8,200.6,173.6z M202.5,173.6c0,1.7,0.5,3,1.4,4c0.9,1,2,1.5,3.4,1.5
			c1.4,0,2.5-0.5,3.4-1.5s1.3-2.4,1.3-4.2c0-1.1-0.2-2.1-0.6-3c-0.4-0.8-0.9-1.5-1.7-2s-1.6-0.7-2.5-0.7c-1.3,0-2.4,0.4-3.4,1.3
			S202.5,171.5,202.5,173.6z"/>
		<path class="st1" d="M216.3,180.4v-14h1.9l7.3,11v-11h1.8v14h-1.9l-7.3-11v11H216.3z"/>
		<path class="st1" d="M235.4,176.6V174h5.3v2.7H235.4z"/>
		<path class="st1" d="M256.3,178.1h-4.9l-0.7,2.3h-4.4l5.2-14h4.7l5.2,14H257L256.3,178.1z M255.4,175l-1.5-5l-1.5,5H255.4z"/>
		<path class="st1" d="M262.9,180.4v-14h4.8c1.1,0,1.9,0.1,2.5,0.2c0.8,0.2,1.5,0.5,2,1c0.7,0.6,1.3,1.4,1.7,2.4
			c0.4,1,0.5,2.1,0.5,3.3c0,1.1-0.1,2-0.4,2.8c-0.2,0.8-0.6,1.5-1,2c-0.4,0.5-0.8,1-1.3,1.3c-0.5,0.3-1,0.5-1.7,0.7
			c-0.7,0.2-1.4,0.2-2.2,0.2H262.9z M264.8,178.7h3c0.9,0,1.6-0.1,2.2-0.3c0.5-0.2,0.9-0.4,1.3-0.7c0.4-0.4,0.8-1,1-1.8
			c0.2-0.7,0.4-1.6,0.4-2.7c0-1.5-0.2-2.6-0.7-3.4c-0.5-0.8-1.1-1.3-1.7-1.6c-0.5-0.2-1.3-0.3-2.4-0.3h-2.9V178.7z"/>
		<path class="st1" d="M281,180.4l-5.4-14h2l3.6,10.1c0.3,0.8,0.5,1.6,0.7,2.3c0.2-0.8,0.5-1.5,0.8-2.3l3.8-10.1h1.9l-5.5,14H281z"
			/>
		<path class="st1" d="M289.5,173.6c0-2.3,0.6-4.1,1.9-5.4c1.2-1.3,2.9-2,4.8-2c1.3,0,2.5,0.3,3.5,0.9c1,0.6,1.8,1.5,2.4,2.6
			c0.5,1.1,0.8,2.4,0.8,3.7c0,1.4-0.3,2.7-0.9,3.8s-1.4,2-2.4,2.5c-1,0.6-2.2,0.9-3.4,0.9c-1.3,0-2.5-0.3-3.5-1
			c-1-0.6-1.8-1.5-2.4-2.6C289.7,176,289.5,174.8,289.5,173.6z M291.4,173.6c0,1.7,0.5,3,1.4,4c0.9,1,2,1.5,3.4,1.5
			c1.4,0,2.5-0.5,3.4-1.5s1.3-2.4,1.3-4.2c0-1.1-0.2-2.1-0.6-3c-0.4-0.8-0.9-1.5-1.7-2s-1.6-0.7-2.5-0.7c-1.3,0-2.4,0.4-3.4,1.3
			S291.4,171.5,291.4,173.6z"/>
		<path class="st1" d="M315.1,175.5l1.8,0.5c-0.4,1.5-1.1,2.7-2.1,3.5c-1,0.8-2.2,1.2-3.7,1.2c-1.5,0-2.7-0.3-3.7-0.9
			c-0.9-0.6-1.7-1.5-2.2-2.7c-0.5-1.2-0.7-2.4-0.7-3.7c0-1.5,0.3-2.7,0.8-3.8c0.6-1.1,1.3-1.9,2.4-2.5c1-0.6,2.2-0.8,3.4-0.8
			c1.4,0,2.6,0.4,3.5,1.1s1.6,1.7,2,3l-1.8,0.4c-0.3-1-0.8-1.8-1.4-2.2c-0.6-0.5-1.4-0.7-2.3-0.7c-1.1,0-2,0.3-2.7,0.8
			c-0.7,0.5-1.2,1.2-1.5,2.1s-0.4,1.8-0.4,2.7c0,1.2,0.2,2.2,0.5,3.1s0.9,1.5,1.6,2c0.7,0.4,1.5,0.7,2.4,0.7c1,0,1.9-0.3,2.6-0.9
			C314.4,177.5,314.9,176.6,315.1,175.5z"/>
		<path class="st1" d="M317.7,180.4l5.4-14h2l5.7,14h-2.1l-1.6-4.2h-5.8l-1.5,4.2H317.7z M321.8,174.6h4.7l-1.5-3.9
			c-0.4-1.2-0.8-2.1-1-2.9c-0.2,0.9-0.4,1.8-0.8,2.7L321.8,174.6z"/>
		<path class="st1" d="M342.2,175.5l1.8,0.5c-0.4,1.5-1.1,2.7-2.1,3.5c-1,0.8-2.2,1.2-3.7,1.2c-1.5,0-2.7-0.3-3.7-0.9
			c-0.9-0.6-1.7-1.5-2.2-2.7c-0.5-1.2-0.7-2.4-0.7-3.7c0-1.5,0.3-2.7,0.8-3.8c0.6-1.1,1.3-1.9,2.4-2.5c1-0.6,2.2-0.8,3.4-0.8
			c1.4,0,2.6,0.4,3.5,1.1s1.6,1.7,2,3l-1.8,0.4c-0.3-1-0.8-1.8-1.4-2.2c-0.6-0.5-1.4-0.7-2.3-0.7c-1.1,0-2,0.3-2.7,0.8
			c-0.7,0.5-1.2,1.2-1.5,2.1s-0.4,1.8-0.4,2.7c0,1.2,0.2,2.2,0.5,3.1s0.9,1.5,1.6,2c0.7,0.4,1.5,0.7,2.4,0.7c1,0,1.9-0.3,2.6-0.9
			C341.5,177.5,342,176.6,342.2,175.5z"/>
		<path class="st1" d="M350.3,180.4v-5.9l-5.4-8h2.2l2.8,4.2c0.5,0.8,1,1.6,1.4,2.4c0.4-0.7,0.9-1.6,1.5-2.5l2.7-4.1h2.2l-5.6,8v5.9
			H350.3z"/>
	</g>
</g>
<rect class="st2" width="359.8" height="207.3"/>
</svg>
