<?xml version="1.0" encoding="utf-8"?>
<!-- Generator: Adobe Illustrator 16.0.3, SVG Export Plug-In . SVG Version: 6.00 Build 0)  -->
<!DOCTYPE svg PUBLIC "-//W3C//DTD SVG 1.1//EN" "http://www.w3.org/Graphics/SVG/1.1/DTD/svg11.dtd">
<svg version="1.1" id="Capa_1" xmlns="http://www.w3.org/2000/svg" xmlns:xlink="http://www.w3.org/1999/xlink" x="0px" y="0px"
	 width="21px" height="67.936px" viewBox="0 0 21 67.936" enable-background="new 0 0 21 67.936" xml:space="preserve">
<g>
	<rect x="-0.098" y="11.104" fill="#1862AB" width="21.196" height="2.021"/>
	<rect x="-0.098" y="13.122" fill="#BAD6EA" width="21.196" height="2.019"/>
	<rect x="-0.098" y="2.02" fill="#1862AB" width="21.196" height="1.01"/>
	<rect x="-0.098" y="0" fill="#539DCC" width="21.196" height="2.02"/>
	<rect x="-0.098" y="7.065" fill="#539DCC" width="21.196" height="4.039"/>
	<rect x="-0.098" y="4.037" fill="#1862AB" width="21.196" height="1.01"/>
	<rect x="-0.098" y="15.141" fill="#1862AB" width="21.196" height="1.01"/>
	<rect x="-0.098" y="3.028" fill="#539DCC" width="21.196" height="1.01"/>
	<rect x="-0.098" y="6.057" fill="#BAD6EA" width="21.196" height="1.01"/>
	<rect x="-0.098" y="5.047" fill="#539DCC" width="21.196" height="1.01"/>
	<rect x="-0.098" y="49.463" fill="#1862AB" width="21.196" height="1.01"/>
	<rect x="-0.098" y="38.358" fill="#1862AB" width="21.196" height="1.011"/>
	<rect x="-0.098" y="54.51" fill="#BAD6EA" width="21.196" height="4.038"/>
	<rect x="-0.098" y="46.434" fill="#539DCC" width="21.196" height="3.029"/>
	<rect x="-0.098" y="53.501" fill="#1862AB" width="21.196" height="1.009"/>
	<rect x="-0.098" y="50.473" fill="#539DCC" width="21.196" height="1.01"/>
	<rect x="-0.098" y="51.481" fill="#BAD6EA" width="21.196" height="2.021"/>
	<rect x="-0.098" y="37.35" fill="#BAD6EA" width="21.196" height="1.01"/>
	<rect x="-0.098" y="40.377" fill="#1862AB" width="21.196" height="1.01"/>
	<rect x="-0.098" y="39.367" fill="#BAD6EA" width="21.196" height="1.01"/>
	<rect x="-0.098" y="41.387" fill="#BAD6EA" width="21.196" height="2.021"/>
	<rect x="-0.098" y="27.255" fill="#BAD6EA" width="21.196" height="1.009"/>
	<rect x="-0.098" y="59.559" fill="#1862AB" width="21.196" height="1.01"/>
	<rect x="-0.098" y="60.567" fill="#BAD6EA" width="21.196" height="2.02"/>
	<rect x="-0.098" y="58.548" fill="#539DCC" width="21.196" height="1.011"/>
	<rect x="-0.098" y="43.406" fill="#1862AB" width="21.196" height="3.026"/>
	<rect x="-0.098" y="28.264" fill="#1862AB" width="21.196" height="1.012"/>
	<rect x="-0.098" y="34.321" fill="#1862AB" width="21.196" height="3.027"/>
	<rect x="-0.098" y="62.586" fill="#1862AB" width="21.196" height="3.028"/>
	<rect x="-0.098" y="29.274" fill="#539DCC" width="21.196" height="5.047"/>
	<rect x="-0.098" y="16.149" fill="#BAD6EA" width="21.196" height="5.049"/>
	<rect x="-0.098" y="21.198" fill="#539DCC" width="21.196" height="6.058"/>
</g>
</svg>
