<?xml version="1.0" encoding="utf-8"?>
<!-- Generator: Adobe Illustrator 21.1.0, SVG Export Plug-In . SVG Version: 6.00 Build 0)  -->
<svg version="1.1" id="Capa_1" xmlns="http://www.w3.org/2000/svg" xmlns:xlink="http://www.w3.org/1999/xlink" x="0px" y="0px"
	 viewBox="0 0 280.3 231.8" style="enable-background:new 0 0 280.3 231.8;" xml:space="preserve">
<style type="text/css">
	.st0{fill:#BAD6EA;}
	.st1{fill:#6B5757;}
	.st2{fill:#539DCC;}
	.st3{fill:#E6E7E8;}
	.st4{fill:#F1F2F2;}
	.st5{fill:none;stroke:#6B5757;stroke-width:2;stroke-miterlimit:10;}
	.st6{fill:#D1D3D4;}
	.st7{fill:none;stroke:#A7A9AC;stroke-linejoin:round;stroke-miterlimit:10;}
	.st8{fill:#414042;}
	.st9{fill:#FFFFFF;}
	.st10{fill:#00A651;}
	.st11{fill:#FBFBFB;}
	.st12{fill:#808285;}
	.st13{fill:#EDEDEE;}
	.st14{fill:none;stroke:#FFFFFF;stroke-miterlimit:10;}
</style>
<g>
	<path class="st0" d="M214.6,16.6C221.1,1.9,231.4,0,231.4,0s-8.1-0.2-11.9,0.3c-3.5,0.5-10.3,1-17.1,16.5
		c-0.9,2.1-9.7,21.5-9.7,21.5c-6.5,14.7-16.8,16.5-16.8,16.5s7.6,0.2,11.9-0.3c3.5-0.5,10.3-0.9,17.1-16.5
		C204.8,38.1,213.9,18.1,214.6,16.6z"/>
	<path class="st0" d="M249.5,16.6C256,1.9,266.3,0,266.3,0s-8.1-0.2-11.9,0.3c-3.5,0.5-10.3,1-17,16.5c-0.9,2.1-9.7,21.5-9.7,21.5
		c-6.5,14.7-16.8,16.5-16.8,16.5s7.6,0.2,11.9-0.3c3.5-0.5,10.3-0.9,17.1-16.5C239.8,38.1,248.9,18.1,249.5,16.6z"/>
	<path class="st0" d="M116.2,16.6C122.7,1.9,133,0,133,0s-8.1-0.2-11.9,0.3c-3.5,0.5-10.3,0.9-17.1,16.5c-0.9,2.1-9.7,21.5-9.7,21.5
		C87.7,53,77.5,54.9,77.5,54.9s7.6,0.2,11.9-0.3c3.5-0.5,10.3-0.9,17.1-16.5C106.4,38.1,115.6,18.1,116.2,16.6z"/>
	<path class="st0" d="M151.1,16.6C157.7,1.9,167.9,0,167.9,0s-8.1-0.2-11.9,0.3c-3.5,0.5-10.3,0.9-17.1,16.5
		c-0.9,2.1-9.7,21.5-9.7,21.5c-6.5,14.8-16.8,16.6-16.8,16.6s7.6,0.2,11.9-0.3c3.5-0.5,10.3-0.9,17.1-16.5
		C141.4,38.1,150.5,18.1,151.1,16.6z"/>
	<path class="st1" d="M238.6,6.1c0.8,0,1.4,0.7,1.4,1.4v21.7c0,0.8-0.7,1.4-1.4,1.4c-0.8,0-1.4-0.6-1.4-1.4V7.6
		C237.1,6.8,237.8,6.1,238.6,6.1z"/>
	<path class="st1" d="M203,26.3c0.8,0,1.4,0.7,1.4,1.4v19.9c0,0.8-0.7,1.4-1.4,1.4s-1.4-0.7-1.4-1.4V27.7
		C201.6,26.9,202.3,26.3,203,26.3z"/>
	<path class="st1" d="M229.7,0.6c0.8,0,1.4,0.7,1.4,1.4v43.1c0,0.8-0.7,1.4-1.4,1.4s-1.4-0.6-1.4-1.4V2.1
		C228.2,1.3,228.9,0.6,229.7,0.6z"/>
	<path class="st1" d="M211.9,10.4c0.8,0,1.4,0.7,1.4,1.4v41.1c0,0.8-0.7,1.4-1.4,1.4s-1.4-0.7-1.4-1.4v-41
		C210.5,11.1,211.1,10.4,211.9,10.4z"/>
	<path class="st1" d="M220.8,2.2c0.8,0,1.4,0.7,1.4,1.4v47.5c0,0.8-0.7,1.4-1.4,1.4s-1.4-0.7-1.4-1.4V3.6
		C219.4,2.8,220,2.2,220.8,2.2z"/>
	<path class="st2" d="M262.4,38.3c6.5,14.8,16.8,16.6,16.8,16.6s-7.9,0.2-11.9-0.3c-3.5-0.5-10.3-0.9-17.1-16.5
		c-0.9-2.1-9.7-21.5-9.7-21.5C234,1.9,223.7,0,223.7,0s8.2-0.2,11.9,0.3c3.5,0.5,10.3,0.9,17.1,16.5
		C252.7,16.9,261.7,36.8,262.4,38.3z"/>
	<path class="st1" d="M191.9,28.8c0.8,0,1.4,0.7,1.4,1.4v17.6c0,0.8-0.7,1.4-1.4,1.4c-0.8,0-1.4-0.7-1.4-1.4V30.3
		C190.4,29.5,191,28.8,191.9,28.8z"/>
	<path class="st1" d="M156.4,3.2c0.8,0,1.4,0.7,1.4,1.4v24c0,0.8-0.7,1.4-1.4,1.4s-1.4-0.7-1.4-1.4v-24
		C154.9,3.8,155.6,3.2,156.4,3.2z"/>
	<path class="st1" d="M183,9.9c0.8,0,1.4,0.7,1.4,1.4v40.5c0,0.8-0.7,1.4-1.4,1.4c-0.8,0-1.4-0.7-1.4-1.4V11.3
		C181.5,10.5,182.2,9.9,183,9.9z"/>
	<path class="st1" d="M93.2,28.8c0.8,0,1.4,0.7,1.4,1.4v17.6c0,0.8-0.7,1.4-1.4,1.4c-0.8,0-1.4-0.7-1.4-1.4V30.3
		C91.7,29.5,92.4,28.8,93.2,28.8z"/>
	<path class="st1" d="M84.3,9.9c0.8,0,1.4,0.7,1.4,1.4v40.5c0,0.8-0.6,1.4-1.4,1.4c-0.8,0-1.4-0.7-1.4-1.4V11.3
		C82.8,10.5,83.5,9.9,84.3,9.9z"/>
	<path class="st1" d="M165.2,0.6c0.8,0,1.4,0.7,1.4,1.4v46.5c0,0.8-0.7,1.4-1.4,1.4s-1.4-0.7-1.4-1.4V2.1
		C163.8,1.3,164.5,0.6,165.2,0.6z"/>
	<rect x="173.2" y="4.6" class="st1" width="2.9" height="49"/>
	<path class="st1" d="M140.2,6.1c0.8,0,1.4,0.7,1.4,1.4V29c0,0.8-0.7,1.4-1.4,1.4s-1.4-0.7-1.4-1.4V7.6
		C138.7,6.8,139.4,6.1,140.2,6.1z"/>
	<path class="st1" d="M104.7,26.3c0.8,0,1.4,0.7,1.4,1.4v19.9c0,0.8-0.7,1.4-1.4,1.4c-0.8,0-1.4-0.7-1.4-1.4V27.7
		C103.2,26.9,103.9,26.3,104.7,26.3z"/>
	<path class="st1" d="M131.3,0.6c0.8,0,1.4,0.7,1.4,1.4v43.1c0,0.8-0.7,1.4-1.4,1.4s-1.4-0.6-1.4-1.4V2.1
		C129.9,1.3,130.5,0.6,131.3,0.6z"/>
	<path class="st1" d="M113.5,10.4c0.8,0,1.4,0.7,1.4,1.4v41.1c0,0.8-0.7,1.4-1.4,1.4s-1.4-0.7-1.4-1.4v-41
		C112.1,11.1,112.8,10.4,113.5,10.4z"/>
	<path class="st1" d="M122.4,2.2c0.8,0,1.4,0.7,1.4,1.4v47.5c0,0.8-0.7,1.4-1.4,1.4c-0.8,0-1.4-0.7-1.4-1.4V3.6
		C121,2.8,121.6,2.2,122.4,2.2z"/>
	<path class="st2" d="M165,38.3c6.5,14.8,16.8,16.6,16.8,16.6s-7.9,0.2-11.9-0.3c-3.5-0.5-10.3-0.9-17.1-16.5
		c-0.9-2.1-9.7-21.5-9.7-21.5C136.6,1.9,126.3,0,126.3,0s8.2-0.2,11.9,0.3c3.5,0.5,10.3,0.9,17.1,16.5
		C155.3,16.9,164.3,36.8,165,38.3z"/>
	<path class="st2" d="M200,38.3c6.5,14.8,16.8,16.6,16.8,16.6s-7.9,0.2-11.9-0.3c-3.5-0.5-10.3-0.9-17.1-16.5
		c-0.9-2.1-9.7-21.5-9.7-21.5C171.6,1.9,161.3,0,161.3,0s8.2-0.2,11.9,0.3c3.5,0.5,10.3,0.9,17.1,16.5
		C190.2,16.9,199.3,36.8,200,38.3z"/>
	<path class="st2" d="M101.6,38.3c6.5,14.8,16.8,16.6,16.8,16.6s-7.9,0.2-11.9-0.3C103,54,96.2,53.6,89.4,38.1
		c-0.9-2.1-9.7-21.5-9.7-21.5C73.2,1.9,62.9,0,62.9,0S71-0.2,74.8,0.4c3.5,0.5,10.3,0.9,17.1,16.5C91.8,16.9,100.9,36.8,101.6,38.3z
		"/>
	<path class="st2" d="M275.4,145.4h-32.8c-1.4,0-2.5-1.1-2.5-2.5V84.4h37.7v58.5C277.9,144.3,276.8,145.4,275.4,145.4z"/>
	<path class="st3" d="M240.3,74h37.5c1.4,0,2.5,1.1,2.5,2.5v7.9h-42.4v-7.9C237.8,75.1,238.9,74,240.3,74z"/>
	<rect x="252.3" y="101.5" class="st4" width="25.6" height="18.3"/>
	<path class="st1" d="M252.7,169.7h21.5c1.4,0,2.5,1.1,2.5,2.5v4h-26.4v-4C250.3,170.8,251.4,169.7,252.7,169.7z"/>
	<polygon class="st2" points="268.5,230.1 258.5,230.1 252.5,176.1 274.5,176.1 	"/>
	<path class="st5" d="M275.1,181.1h-25.9c-1.2,0-2.1-1-2.1-2.1v-0.7c0-1.2,1-2.1,2.1-2.1h27.5"/>
	<rect y="193.4" class="st6" width="153.3" height="38"/>
	<polygon class="st3" points="153.3,231.4 221.5,163.3 221.6,125.1 153.3,193.4 	"/>
	<polygon class="st4" points="68.3,125.1 0,193.4 153.3,193.4 221.6,125.1 	"/>
	<polygon class="st2" points="71,131.8 68.3,134.5 201.2,134.5 203.9,131.8 	"/>
	<polygon class="st2" points="66.2,136.6 63.5,139.3 196.5,139.3 199.2,136.6 	"/>
	<polygon class="st2" points="61,141.5 58.4,144.2 191.4,144.2 194,141.5 	"/>
	<polygon class="st2" points="56.3,146.3 53.7,149 186.6,149 189.3,146.3 	"/>
	<polygon class="st2" points="51.2,151.2 48.5,153.9 181.4,153.9 184.1,151.2 	"/>
	<polygon class="st2" points="46.4,156.1 43.7,158.7 176.7,158.7 179.3,156.1 	"/>
	<polygon class="st2" points="41.3,161 38.6,163.6 171.5,163.6 174.2,161 	"/>
	<polygon class="st2" points="36.5,165.8 33.8,168.5 166.8,168.5 169.5,165.8 	"/>
	<polygon class="st2" points="32.3,170.7 29.6,173.4 162.5,173.4 165.2,170.7 	"/>
	<polygon class="st2" points="27.5,175.5 24.8,178.2 157.7,178.2 160.4,175.5 	"/>
	<polygon class="st2" points="22.3,180.4 19.7,183.1 100.2,183.1 102.8,180.4 	"/>
	<g>
		<line class="st7" x1="0" y1="201.4" x2="64" y2="201.4"/>
		<line class="st7" x1="115.9" y1="212.8" x2="32" y2="212.8"/>
		<line class="st7" x1="92.6" y1="223.5" x2="153.3" y2="223.5"/>
		<line class="st7" x1="153.3" y1="223.5" x2="194.6" y2="182.2"/>
		<line class="st7" x1="173.9" y1="193.4" x2="206" y2="161.3"/>
		<line class="st7" x1="192.1" y1="164.7" x2="221.4" y2="135.5"/>
	</g>
	<path class="st1" d="M105.6,186.6c1.3-0.7,2.6-1.3,3.7-2.2c0.1-0.1,1-0.9,1-1c1-1,2-2.1,2.9-3.2c-0.5,1.1-0.8,2.2-1.2,3.3
		c-0.3,0.6-0.4,1.2-0.4,1.9c0,0.5,0.1,0.8,0.5,0.8c1.7-0.5,3-1.6,4.2-2.7c0.6-0.6,1.2-1.2,1.9-1.8c0.1,0.1,0.3,0.3,0.3,0.4
		c0.3,0.4,0.5,0.6,1,0.7c0.5,0,1-0.1,1.4,0.1c0.5,0.2,1,0.3,1.6,0.5c0.3,0.1,0.6,0.2,0.9,0.3c0.6,0.1,1.4,0.1,1.9,0.1
		c1.2,0,2.3,0.1,3.5,0.1c2.9,0.1,5.9,0.2,8.9,0.2c1.6,0,2.2-0.1,3.7-0.1c0.6-0.1,1.1-0.1,1.7-0.1l1.8-1.2c-0.6,0.1-1.1,0.1-1.7,0.1
		c-1.4,0.1-2.3,0.1-3.7,0.1c-2.9,0.1-5.9-0.1-8.9-0.2c-1.2-0.1-2.2-0.1-3.4-0.1c-0.3,0-1.4-0.1-1.8-0.1c-0.3-0.1-0.6-0.1-0.9-0.3
		c-0.5-0.2-1-0.3-1.6-0.6c-0.5-0.1-1-0.1-1.5-0.1c-0.5,0-0.6-0.1-0.9-0.5c-0.1-0.1-0.3-0.3-0.3-0.4c-1-0.9-2.7,0.7-3.3,1
		c-1,0.9-2,1.9-3.1,2.8c-0.1,0.1-0.2,0.2-0.3,0.3c0-0.1,0-0.2,0-0.2c0-0.7,0.1-1.2,0.3-1.8c0.4-1.2,0.8-2.3,1.2-3.4
		c0.4-0.9,0.8-1.8,1.2-2.6c0.5-1,1-2.1,1.4-3.2c0.3-0.7,0.5-1.4,0.5-2.1c-0.3-1.4-2.4,0.5-2.7,1.4c-0.6,1.1-1.2,2.2-1.7,3.4
		c-0.1,0.2-0.6,1.2-0.7,1.4c-0.5,1-1.2,2-1.9,2.9c-1.1,1.4-2.3,2.7-3.5,3.9c-0.5,0.5-1,0.9-1.6,1.4c-0.1,0.1-0.6,0.4-0.5,0.3
		c0.7-0.3,2.5-1.3,1.5-0.8L105.6,186.6z M117.8,181.5C116.9,182.1,117.3,181.7,117.8,181.5L117.8,181.5z M114.3,184.7
		c-0.1,0-0.1,0.1-0.1,0.1C114.6,184.6,114.8,184.5,114.3,184.7z"/>
	<g>
		<path class="st2" d="M50.7,52.7H15.6v-6.9l16.5-17.6c2.3-2.5,3.9-4.6,5-6.5c1.1-1.8,1.6-3.6,1.6-5.3c0-2.3-0.6-4-1.7-5.4
			c-1.2-1.3-2.8-2-4.9-2c-2.3,0-4.1,0.8-5.4,2.4c-1.3,1.6-2,3.7-2,6.2H14.6c0-3.1,0.7-5.9,2.2-8.6c1.5-2.5,3.6-4.6,6.3-6.1
			c2.7-1.4,5.8-2.2,9.2-2.2c5.3,0,9.3,1.2,12.3,3.8c2.9,2.5,4.4,6.1,4.4,10.7c0,2.5-0.7,5.1-2,7.7c-1.3,2.6-3.5,5.7-6.7,9.1
			L28.7,44.5h21.9L50.7,52.7L50.7,52.7L50.7,52.7z"/>
	</g>
	<rect x="23.2" y="75.9" class="st2" width="158" height="31.6"/>
	<rect x="159.4" y="83.7" class="st4" width="15.9" height="15.9"/>
	<rect x="135.9" y="83.7" class="st4" width="15.9" height="15.9"/>
	<rect x="112.4" y="83.7" class="st4" width="15.9" height="15.9"/>
	<rect x="88.8" y="83.7" class="st4" width="15.9" height="15.9"/>
	<rect x="65.3" y="83.7" class="st4" width="15.9" height="15.9"/>
	<rect x="41.8" y="83.7" class="st4" width="15.9" height="15.9"/>
	<rect x="23.2" y="78.5" class="st8" width="6.4" height="0.8"/>
	<rect x="23.2" y="80.2" class="st8" width="6.4" height="1.1"/>
	<rect x="23.2" y="82.1" class="st8" width="6.4" height="0.4"/>
	<rect x="23.2" y="103.3" class="st8" width="6.4" height="1.1"/>
	<rect x="23.2" y="105.2" class="st8" width="6.4" height="0.4"/>
	<rect x="23.2" y="98.3" class="st8" width="6.4" height="0.8"/>
	<rect x="23.2" y="100.1" class="st8" width="6.4" height="1.1"/>
	<rect x="23.2" y="84" class="st8" width="6.4" height="1.1"/>
	<rect x="23.2" y="85.8" class="st8" width="6.4" height="1.1"/>
	<rect x="23.2" y="87.7" class="st8" width="6.4" height="0.4"/>
	<rect x="23.2" y="93.7" class="st8" width="6.4" height="1.1"/>
	<rect x="23.2" y="95.5" class="st8" width="6.4" height="1.1"/>
	<rect x="23.2" y="97.4" class="st8" width="6.4" height="0.4"/>
	<rect x="23.2" y="91.5" class="st8" width="6.4" height="0.4"/>
	<rect x="23.2" y="92.5" class="st8" width="6.4" height="0.4"/>
	<rect x="23.2" y="89.6" class="st8" width="6.4" height="1.1"/>
</g>
<rect class="st14" width="280.3" height="231.8"/>
</svg>
