<?xml version="1.0" encoding="utf-8"?>
<!-- Generator: Adobe Illustrator 21.1.0, SVG Export Plug-In . SVG Version: 6.00 Build 0)  -->
<svg version="1.1" id="Capa_1" xmlns="http://www.w3.org/2000/svg" xmlns:xlink="http://www.w3.org/1999/xlink" x="0px" y="0px"
	 viewBox="0 0 280.3 231.8" style="enable-background:new 0 0 280.3 231.8;" xml:space="preserve">
<style type="text/css">
	.st0{fill:#BAD6EA;}
	.st1{fill:#6B5757;}
	.st2{fill:#539DCC;}
	.st3{fill:#E6E7E8;}
	.st4{fill:#F1F2F2;}
	.st5{fill:none;stroke:#6B5757;stroke-width:2;stroke-miterlimit:10;}
	.st6{fill:#D1D3D4;}
	.st7{fill:none;stroke:#A7A9AC;stroke-linejoin:round;stroke-miterlimit:10;}
	.st8{fill:#414042;}
	.st9{fill:#FFFFFF;}
	.st10{fill:#00A651;}
	.st11{fill:#FBFBFB;}
	.st12{fill:#808285;}
	.st13{fill:#EDEDEE;}
	.st14{fill:none;stroke:#FFFFFF;stroke-miterlimit:10;}
</style>
<g>
	<circle class="st2" cx="10" cy="139.7" r="4.2"/>
	<rect x="113.4" y="3.9" class="st4" width="164.9" height="213.4"/>
	<path class="st1" d="M14.2,214.8c2.7-1.3,5.3-2.6,7.6-4.5c0.1-0.1,2.1-1.9,2.2-2c2.1-2.1,4.1-4.3,5.9-6.5c-0.8,2.3-1.6,4.5-2.5,6.8
		c-0.6,1.2-0.8,2.5-0.8,3.9c0,0.9,0.1,1.6,1.1,1.6c3.4-0.9,6.1-3.2,8.7-5.6c1.3-1.2,2.5-2.5,3.9-3.7c0.3,0.2,0.5,0.5,0.7,0.7
		c0.5,0.8,1,1.2,1.9,1.4c1,0.1,2-0.1,3,0.1c1,0.4,2.1,0.7,3.2,1.1c0.6,0.2,1.2,0.4,1.9,0.5c1.2,0.2,2.8,0.2,3.9,0.2
		c2.4,0.1,4.8,0.1,7.2,0.1c6.1,0.1,12.1,0.5,18.2,0.4c3.1,0,4.4-0.1,7.5-0.3c1.2-0.1,2.3-0.2,3.4-0.3l3.7-2.5
		c-1.2,0.1-2.3,0.2-3.5,0.3c-2.8,0.1-4.7,0.3-7.6,0.3c-6,0.1-12.1-0.1-18.1-0.5c-2.5-0.1-4.5-0.2-7-0.3c-0.6,0-2.9-0.1-3.7-0.3
		c-0.6-0.1-1.2-0.3-1.8-0.5c-1-0.4-2.1-0.7-3.2-1.2c-1-0.3-2-0.2-3-0.2c-0.9,0-1.2-0.1-1.7-1c-0.1-0.2-0.5-0.7-0.6-0.8
		c-2-1.9-5.6,1.5-6.7,2.1C36,206,34,208,31.9,210c-0.2,0.2-0.4,0.4-0.6,0.5c0-0.2,0-0.3,0-0.4c0-1.3,0.3-2.5,0.7-3.7
		c0.8-2.3,1.6-4.7,2.5-7c0.8-1.8,1.6-3.6,2.5-5.4c1-2.1,1.9-4.3,2.8-6.5c0.5-1.4,1-2.8,1-4.3c-0.5-2.9-4.9,1-5.5,2.9
		c-1.2,2.3-2.4,4.6-3.4,7c-0.2,0.4-1.2,2.5-1.4,2.8c-1.1,2.1-2.5,3.9-3.8,5.8c-2.3,2.8-4.6,5.4-7.2,7.8c-1.1,1-2.1,1.9-3.3,2.8
		c-0.3,0.2-1.2,0.8-0.9,0.6c1.5-0.6,5.2-2.7,3.1-1.6L14.2,214.8z M39.1,204.6C37.1,205.6,38.1,204.9,39.1,204.6L39.1,204.6z
		 M31.9,211.1c-0.1,0.1-0.2,0.1-0.3,0.1C32.4,210.8,32.8,210.6,31.9,211.1z"/>
	<path class="st6" d="M10,123.4c-4.4,0-8-3.6-8-7.9c0-4.4,3.6-7.9,8-7.9s7.9,3.6,7.9,7.9C17.9,119.9,14.3,123.4,10,123.4z M10,110.1
		c-3,0-5.5,2.5-5.5,5.5c0,3,2.5,5.5,5.5,5.5c3,0,5.5-2.5,5.5-5.5C15.5,112.5,13.1,110.1,10,110.1z"/>
	<path class="st6" d="M10,147.7c-4.4,0-8-3.6-8-7.9c0-4.4,3.6-7.9,8-7.9s7.9,3.6,7.9,7.9C17.9,144.1,14.3,147.7,10,147.7z M10,134.3
		c-3,0-5.5,2.5-5.5,5.5c0,3,2.5,5.5,5.5,5.5c3,0,5.5-2.5,5.5-5.5C15.5,136.7,13.1,134.3,10,134.3z"/>
	<path class="st6" d="M10,99.7c-4.4,0-8-3.6-8-7.9c0-4.4,3.6-7.9,8-7.9s7.9,3.6,7.9,7.9C17.9,96.1,14.3,99.7,10,99.7z M10,86.2
		c-3,0-5.5,2.5-5.5,5.5c0,3,2.5,5.5,5.5,5.5c3,0,5.5-2.5,5.5-5.5C15.5,88.7,13.1,86.2,10,86.2z"/>
	<path class="st6" d="M10,171.9c-4.4,0-8-3.6-8-7.9c0-4.4,3.6-7.9,8-7.9s7.9,3.6,7.9,7.9C17.9,168.4,14.3,171.9,10,171.9z M10,158.5
		c-3,0-5.5,2.5-5.5,5.5c0,3,2.5,5.5,5.5,5.5c3,0,5.5-2.5,5.5-5.5C15.5,160.9,13.1,158.5,10,158.5z"/>
	<rect x="119.3" y="14.1" class="st9" width="141" height="22.8"/>
	<rect x="119.3" y="98.9" class="st9" width="141" height="23.5"/>
	<rect x="119.3" y="154.3" class="st9" width="141" height="23.1"/>
	<polygon class="st2" points="138.4,18.3 128,28.6 123.8,24.4 122,26.3 126.2,30.5 128,32.3 129.9,30.5 140.2,20.2 	"/>
	<rect x="142.6" y="25.3" class="st2" width="112.8" height="3.2"/>
	<rect x="142.6" y="42.1" class="st6" width="112.8" height="3.2"/>
	<rect x="142.6" y="58.7" class="st6" width="112.8" height="3.2"/>
	<rect x="27.6" y="88.5" class="st6" width="69.5" height="5.8"/>
	<rect x="3.3" y="213.5" class="st6" width="93.8" height="2.5"/>
	<rect x="27.6" y="112.1" class="st6" width="69.5" height="5.8"/>
	<rect x="27.6" y="135.7" class="st2" width="69.5" height="5.8"/>
	<rect x="27.6" y="160.3" class="st6" width="69.5" height="5.8"/>
	<polygon class="st2" points="138.4,101.1 128,111.5 123.8,107.3 122,109.2 126.2,113.4 128,115.2 129.9,113.4 140.2,103 	"/>
	<rect x="142.6" y="91.4" class="st6" width="112.8" height="3.2"/>
	<rect x="142.6" y="108.2" class="st2" width="112.8" height="3.2"/>
	<rect x="142.6" y="124.9" class="st6" width="112.8" height="3.2"/>
	<polygon class="st2" points="138.4,158.3 128,168.7 123.8,164.5 122,166.3 126.2,170.5 128,172.4 129.9,170.5 140.2,160.2 	"/>
	<rect x="142.6" y="165.4" class="st2" width="112.8" height="3.2"/>
	<rect x="142.6" y="182.1" class="st6" width="112.8" height="3.2"/>
	<rect x="142.6" y="198.9" class="st6" width="112.8" height="3.2"/>
	<g>
		<path class="st2" d="M24.9,47.7h-9.4V11.2L4.2,14.7V7.1L23.9,0h1L24.9,47.7L24.9,47.7L24.9,47.7z"/>
	</g>
</g>
<rect class="st14" width="280.3" height="231.8"/>
</svg>
