<?xml version="1.0" encoding="utf-8"?>
<!-- Generator: Adobe Illustrator 21.1.0, SVG Export Plug-In . SVG Version: 6.00 Build 0)  -->
<svg version="1.1" id="Capa_1" xmlns="http://www.w3.org/2000/svg" xmlns:xlink="http://www.w3.org/1999/xlink" x="0px" y="0px"
	 viewBox="0 0 280.3 231.8" style="enable-background:new 0 0 280.3 231.8;" xml:space="preserve">
<style type="text/css">
	.st0{fill:#BAD6EA;}
	.st1{fill:#6B5757;}
	.st2{fill:#539DCC;}
	.st3{fill:#E6E7E8;}
	.st4{fill:#F1F2F2;}
	.st5{fill:none;stroke:#6B5757;stroke-width:2;stroke-miterlimit:10;}
	.st6{fill:#D1D3D4;}
	.st7{fill:none;stroke:#A7A9AC;stroke-linejoin:round;stroke-miterlimit:10;}
	.st8{fill:#414042;}
	.st9{fill:#FFFFFF;}
	.st10{fill:#00A651;}
	.st11{fill:#FBFBFB;}
	.st12{fill:#808285;}
	.st13{fill:#EDEDEE;}
	.st14{fill:none;stroke:#FFFFFF;stroke-miterlimit:10;}
</style>
<g>
	<path class="st6" d="M130.6,73.7H87c-6.8,0-12.3-5.5-12.3-12.3V17.8C74.7,11,80.2,5.5,87,5.5h43.6c6.8,0,12.3,5.5,12.3,12.3v43.6
		C142.9,68.2,137.3,73.7,130.6,73.7z"/>
	<g>
		<rect x="84.1" y="24" class="st9" width="49.2" height="31.3"/>
		<polygon class="st9" points="110.1,40.4 84.1,24 133.4,24 		"/>
	</g>
	<path class="st10" d="M243.9,72.9h-80.7c-1.8,0-3.3-1.4-3.3-3.3V3.3c0-1.8,1.4-3.3,3.3-3.3h80.7c1.8,0,3.3,1.4,3.3,3.3v66.3
		C247.2,71.4,245.7,72.9,243.9,72.9z"/>
	<path class="st2" d="M243.9,72.9h-80.7c-1.8,0-3.3-1.4-3.3-3.3V3.3c0-1.8,1.4-3.3,3.3-3.3h80.7c1.8,0,3.3,1.4,3.3,3.3v66.3
		C247.2,71.4,245.7,72.9,243.9,72.9z"/>
	<rect x="168.9" y="7.7" class="st11" width="74.8" height="57.8"/>
	<path class="st3" d="M255.6,31.1h-6.8v-9.9c0-1.3-1.1-2.4-2.4-2.4h-5.8v35.8h5.8c1.3,0,2.4-1.1,2.4-2.4v-9.9h6.8
		c3.1,0,5.6-2.5,5.6-5.6C261.1,33.5,258.6,31.1,255.6,31.1z"/>
	<circle class="st12" cx="255.6" cy="36.6" r="1.4"/>
	<g>
		<rect x="84.1" y="24" class="st13" width="49.2" height="31.3"/>
		<polygon class="st4" points="108.8,38.7 133.4,55.2 84.1,55.2 		"/>
		<polygon class="st11" points="108.8,40.4 84.1,24 133.4,24 		"/>
	</g>
	<circle class="st2" cx="137.9" cy="12.9" r="11.2"/>
	<path class="st9" d="M249.9,228.8h-108V90.6h108c4.9,0,8.8,3.9,8.8,8.8V220C258.7,224.9,254.8,228.8,249.9,228.8z"/>
	<path class="st9" d="M30.5,155.7h104.1v73.5H30.5c-4.6,0-8.3-3.7-8.3-8.3v-56.9C22.2,159.4,25.9,155.7,30.5,155.7z"/>
	<g>
		<path class="st4" d="M248.9,231.8H145.2V87.7h103.7c6.8,0,12.4,5.6,12.4,12.4v119.3C261.2,226.2,255.6,231.8,248.9,231.8z"/>
	</g>
	<g>
		<path class="st4" d="M31.5,153.2h105.9v78.5h-115c-1.8,0-3.3-1.4-3.3-3.3v-62.9C19.2,158.8,24.8,153.2,31.5,153.2z"/>
	</g>
	<path class="st12" d="M22.5,231.8h116.4c1.8,0,3.3-1.4,3.3-3.3v-32.7c0-1.8-1.4-3.3-3.3-3.3H22.5c-1.8,0-3.3,1.4-3.3,3.3v32.7
		C19.2,230.3,20.6,231.8,22.5,231.8z"/>
	<path class="st1" d="M153.5,154v-9.2c0-1.2,0.9-2.1,2.1-2.1h13.9V89.8c0-1.2-0.9-2.1-2.1-2.1h-27.8c-1.2,0-2.1,0.9-2.1,2.1v139.8
		c0,1.2,0.9,2.1,2.1,2.1h27.8c1.2,0,2.1-0.9,2.1-2.1v-73.5h-13.9C154.4,156.1,153.5,155.1,153.5,154z"/>
	<path class="st2" d="M157.4,150.4H222c0.6,0,1-0.5,1-1.1l0,0c0-0.6-0.5-1.1-1-1.1h-64.6c-0.6,0-1.1,0.5-1.1,1.1l0,0
		C156.4,150,156.8,150.4,157.4,150.4z"/>
	<rect x="73.8" y="145.6" class="st6" width="10.7" height="7.6"/>
	<g>
		<path class="st1" d="M126.7,92.9v50H31.7v-50H126.7 M127.4,89H31c-1.8,0-3.3,1.4-3.3,3.3v51.3c0,1.8,1.4,3.3,3.3,3.3h96.4
			c1.8,0,3.3-1.4,3.3-3.3V92.2C130.7,90.4,129.2,89,127.4,89L127.4,89z"/>
	</g>
	<g>
		<path class="st2" d="M30.6,22.3H36c2.6,0,4.5-0.7,5.8-2c1.2-1.3,1.8-3,1.8-5.1c0-2.1-0.6-3.7-1.8-4.9c-1.2-1.2-3-1.7-5.1-1.7
			c-2,0-3.6,0.5-4.9,1.6c-1.3,1.1-2,2.5-2,4.2H19.6c0-2.7,0.7-5.1,2.2-7.2c1.4-2.1,3.5-3.8,6-5c2.6-1.2,5.4-1.8,8.6-1.8
			c5.4,0,9.7,1.3,12.8,3.9c3.1,2.6,4.6,6.2,4.6,10.8c0,2.4-0.7,4.5-2.2,6.5c-1.4,2-3.4,3.5-5.6,4.5c2.9,1,5.1,2.6,6.5,4.7
			c1.4,2.1,2.2,4.5,2.2,7.4c0,4.6-1.6,8.2-5,11c-3.3,2.8-7.7,4.1-13.2,4.1c-5.1,0-9.3-1.4-12.6-4.1c-3.3-2.7-4.9-6.3-4.9-10.7h10.2
			c0,1.9,0.7,3.5,2.2,4.7c1.4,1.2,3.2,1.8,5.3,1.8c2.4,0,4.3-0.7,5.7-1.9c1.4-1.3,2-3,2-5.1c0-5.1-2.8-7.7-8.5-7.7h-5.4L30.6,22.3
			L30.6,22.3L30.6,22.3L30.6,22.3z"/>
	</g>
</g>
<rect class="st14" width="280.3" height="231.8"/>
</svg>
