<?xml version="1.0" encoding="UTF-8" standalone="no"?>
<!-- Generator: Adobe Illustrator 21.1.0, SVG Export Plug-In . SVG Version: 6.00 Build 0)  -->
<svg id="Capa_1" style="enable-background:new 0 0 280.3 231.8" xmlns="http://www.w3.org/2000/svg" xml:space="preserve" viewBox="0 0 280.3 231.8" version="1.1" y="0px" x="0px" xmlns:xlink="http://www.w3.org/1999/xlink">
<style type="text/css">
	.st0{fill:#BAD6EA;}
	.st1{fill:#6B5757;}
	.st2{fill:#539DCC;}
	.st3{fill:#E6E7E8;}
	.st4{fill:#F1F2F2;}
	.st5{fill:none;stroke:#6B5757;stroke-width:2;stroke-miterlimit:10;}
	.st6{fill:#D1D3D4;}
	.st7{fill:none;stroke:#A7A9AC;stroke-linejoin:round;stroke-miterlimit:10;}
	.st8{fill:#414042;}
	.st9{fill:#FFFFFF;}
	.st10{fill:#00A651;}
	.st11{fill:#FBFBFB;}
	.st12{fill:#808285;}
	.st13{fill:#EDEDEE;}
	.st14{fill:none;stroke:#FFFFFF;stroke-miterlimit:10;}
</style>
	<path class="st0" d="m214.6 16.6c6.5-14.7 16.8-16.6 16.8-16.6s-8.1-0.2-11.9 0.3c-3.5 0.5-10.3 1-17.1 16.5-0.9 2.1-9.7 21.5-9.7 21.5-6.5 14.7-16.8 16.5-16.8 16.5s7.6 0.2 11.9-0.3c3.5-0.5 10.3-0.9 17.1-16.5-0.1 0.1 9-19.9 9.7-21.4z"/>
	<path class="st0" d="m249.5 16.6c6.5-14.7 16.8-16.6 16.8-16.6s-8.1-0.2-11.9 0.3c-3.5 0.5-10.3 1-17 16.5-0.9 2.1-9.7 21.5-9.7 21.5-6.5 14.7-16.8 16.5-16.8 16.5s7.6 0.2 11.9-0.3c3.5-0.5 10.3-0.9 17.1-16.5-0.1 0.1 9-19.9 9.6-21.4z"/>
	<path class="st0" d="m116.2 16.6c6.5-14.7 16.8-16.6 16.8-16.6s-8.1-0.2-11.9 0.3c-3.5 0.5-10.3 0.9-17.1 16.5-0.9 2.1-9.7 21.5-9.7 21.5-6.6 14.7-16.8 16.6-16.8 16.6s7.6 0.2 11.9-0.3c3.5-0.5 10.3-0.9 17.1-16.5-0.1 0 9.1-20 9.7-21.5z"/>
	<path class="st0" d="m151.1 16.6c6.6-14.7 16.8-16.6 16.8-16.6s-8.1-0.2-11.9 0.3c-3.5 0.5-10.3 0.9-17.1 16.5-0.9 2.1-9.7 21.5-9.7 21.5-6.5 14.8-16.8 16.6-16.8 16.6s7.6 0.2 11.9-0.3c3.5-0.5 10.3-0.9 17.1-16.5 0 0 9.1-20 9.7-21.5z"/>
	<path class="st1" d="m238.6 6.1c0.8 0 1.4 0.7 1.4 1.4v21.7c0 0.8-0.7 1.4-1.4 1.4-0.8 0-1.4-0.6-1.4-1.4v-21.6c-0.1-0.8 0.6-1.5 1.4-1.5z"/>
	<path class="st1" d="m203 26.3c0.8 0 1.4 0.7 1.4 1.4v19.9c0 0.8-0.7 1.4-1.4 1.4s-1.4-0.7-1.4-1.4v-19.9c0-0.8 0.7-1.4 1.4-1.4z"/>
	<path class="st1" d="m229.7 0.6c0.8 0 1.4 0.7 1.4 1.4v43.1c0 0.8-0.7 1.4-1.4 1.4s-1.4-0.6-1.4-1.4v-43c-0.1-0.8 0.6-1.5 1.4-1.5z"/>
	<path class="st1" d="m211.9 10.4c0.8 0 1.4 0.7 1.4 1.4v41.1c0 0.8-0.7 1.4-1.4 1.4s-1.4-0.7-1.4-1.4v-41c0-0.8 0.6-1.5 1.4-1.5z"/>
	<path class="st1" d="m220.8 2.2c0.8 0 1.4 0.7 1.4 1.4v47.5c0 0.8-0.7 1.4-1.4 1.4s-1.4-0.7-1.4-1.4v-47.5c0-0.8 0.6-1.4 1.4-1.4z"/>
	<path class="st2" d="m262.4 38.3c6.5 14.8 16.8 16.6 16.8 16.6s-7.9 0.2-11.9-0.3c-3.5-0.5-10.3-0.9-17.1-16.5-0.9-2.1-9.7-21.5-9.7-21.5-6.5-14.7-16.8-16.6-16.8-16.6s8.2-0.2 11.9 0.3c3.5 0.5 10.3 0.9 17.1 16.5 0 0.1 9 20 9.7 21.5z"/>
	<path class="st1" d="m191.9 28.8c0.8 0 1.4 0.7 1.4 1.4v17.6c0 0.8-0.7 1.4-1.4 1.4-0.8 0-1.4-0.7-1.4-1.4v-17.5c-0.1-0.8 0.5-1.5 1.4-1.5z"/>
	<path class="st1" d="m156.4 3.2c0.8 0 1.4 0.7 1.4 1.4v24c0 0.8-0.7 1.4-1.4 1.4s-1.4-0.7-1.4-1.4v-24c-0.1-0.8 0.6-1.4 1.4-1.4z"/>
	<path class="st1" d="m183 9.9c0.8 0 1.4 0.7 1.4 1.4v40.5c0 0.8-0.7 1.4-1.4 1.4-0.8 0-1.4-0.7-1.4-1.4v-40.5c-0.1-0.8 0.6-1.4 1.4-1.4z"/>
	<path class="st1" d="m93.2 28.8c0.8 0 1.4 0.7 1.4 1.4v17.6c0 0.8-0.7 1.4-1.4 1.4-0.8 0-1.4-0.7-1.4-1.4v-17.5c-0.1-0.8 0.6-1.5 1.4-1.5z"/>
	<path class="st1" d="m84.3 9.9c0.8 0 1.4 0.7 1.4 1.4v40.5c0 0.8-0.6 1.4-1.4 1.4s-1.4-0.7-1.4-1.4v-40.5c-0.1-0.8 0.6-1.4 1.4-1.4z"/>
	<path class="st1" d="m165.2 0.6c0.8 0 1.4 0.7 1.4 1.4v46.5c0 0.8-0.7 1.4-1.4 1.4s-1.4-0.7-1.4-1.4v-46.4c0-0.8 0.7-1.5 1.4-1.5z"/>
	<rect y="4.6" x="173.2" height="49" class="st1" width="2.9"/>
	<path class="st1" d="m140.2 6.1c0.8 0 1.4 0.7 1.4 1.4v21.5c0 0.8-0.7 1.4-1.4 1.4s-1.4-0.7-1.4-1.4v-21.4c-0.1-0.8 0.6-1.5 1.4-1.5z"/>
	<path class="st1" d="m104.7 26.3c0.8 0 1.4 0.7 1.4 1.4v19.9c0 0.8-0.7 1.4-1.4 1.4-0.8 0-1.4-0.7-1.4-1.4v-19.9c-0.1-0.8 0.6-1.4 1.4-1.4z"/>
	<path class="st1" d="m131.3 0.6c0.8 0 1.4 0.7 1.4 1.4v43.1c0 0.8-0.7 1.4-1.4 1.4s-1.4-0.6-1.4-1.4v-43c0-0.8 0.6-1.5 1.4-1.5z"/>
	<path class="st1" d="m113.5 10.4c0.8 0 1.4 0.7 1.4 1.4v41.1c0 0.8-0.7 1.4-1.4 1.4s-1.4-0.7-1.4-1.4v-41c0-0.8 0.7-1.5 1.4-1.5z"/>
	<path class="st1" d="m122.4 2.2c0.8 0 1.4 0.7 1.4 1.4v47.5c0 0.8-0.7 1.4-1.4 1.4-0.8 0-1.4-0.7-1.4-1.4v-47.5c0-0.8 0.6-1.4 1.4-1.4z"/>
	<path class="st2" d="m165 38.3c6.5 14.8 16.8 16.6 16.8 16.6s-7.9 0.2-11.9-0.3c-3.5-0.5-10.3-0.9-17.1-16.5-0.9-2.1-9.7-21.5-9.7-21.5-6.5-14.7-16.8-16.6-16.8-16.6s8.2-0.2 11.9 0.3c3.5 0.5 10.3 0.9 17.1 16.5 0 0.1 9 20 9.7 21.5z"/>
	<path class="st2" d="m200 38.3c6.5 14.8 16.8 16.6 16.8 16.6s-7.9 0.2-11.9-0.3c-3.5-0.5-10.3-0.9-17.1-16.5-0.9-2.1-9.7-21.5-9.7-21.5-6.5-14.7-16.8-16.6-16.8-16.6s8.2-0.2 11.9 0.3c3.5 0.5 10.3 0.9 17.1 16.5-0.1 0.1 9 20 9.7 21.5z"/>
	<path class="st2" d="m101.6 38.3c6.5 14.8 16.8 16.6 16.8 16.6s-7.9 0.2-11.9-0.3c-3.5-0.6-10.3-1-17.1-16.5-0.9-2.1-9.7-21.5-9.7-21.5-6.5-14.7-16.8-16.6-16.8-16.6s8.1-0.2 11.9 0.4c3.5 0.5 10.3 0.9 17.1 16.5-0.1 0 9 19.9 9.7 21.4z"/>
	<path class="st2" d="m275.4 145.4h-32.8c-1.4 0-2.5-1.1-2.5-2.5v-58.5h37.7v58.5c0.1 1.4-1 2.5-2.4 2.5z"/>
	<path class="st3" d="m240.3 74h37.5c1.4 0 2.5 1.1 2.5 2.5v7.9h-42.4v-7.9c-0.1-1.4 1-2.5 2.4-2.5z"/>
	<rect y="101.5" x="252.3" height="18.3" class="st4" width="25.6"/>
	<path class="st1" d="m252.7 169.7h21.5c1.4 0 2.5 1.1 2.5 2.5v4h-26.4v-4c0-1.4 1.1-2.5 2.4-2.5z"/>
	<polygon points="268.5 230.1 258.5 230.1 252.5 176.1 274.5 176.1" class="st2"/>
	<path class="st5" d="m275.1 181.1h-25.9c-1.2 0-2.1-1-2.1-2.1v-0.7c0-1.2 1-2.1 2.1-2.1h27.5"/>
	<rect y="193.4" width="153.3" class="st6" height="38"/>
	<polygon points="153.3 231.4 221.5 163.3 221.6 125.1 153.3 193.4" class="st3"/>
	<polygon points="68.3 125.1 0 193.4 153.3 193.4 221.6 125.1" class="st4"/>
	<polygon points="71 131.8 68.3 134.5 201.2 134.5 203.9 131.8" class="st2"/>
	<polygon points="66.2 136.6 63.5 139.3 196.5 139.3 199.2 136.6" class="st2"/>
	<polygon points="61 141.5 58.4 144.2 191.4 144.2 194 141.5" class="st2"/>
	<polygon points="56.3 146.3 53.7 149 186.6 149 189.3 146.3" class="st2"/>
	<polygon points="51.2 151.2 48.5 153.9 181.4 153.9 184.1 151.2" class="st2"/>
	<polygon points="46.4 156.1 43.7 158.7 176.7 158.7 179.3 156.1" class="st2"/>
	<polygon points="41.3 161 38.6 163.6 171.5 163.6 174.2 161" class="st2"/>
	<polygon points="36.5 165.8 33.8 168.5 166.8 168.5 169.5 165.8" class="st2"/>
	<polygon points="32.3 170.7 29.6 173.4 162.5 173.4 165.2 170.7" class="st2"/>
	<polygon points="27.5 175.5 24.8 178.2 157.7 178.2 160.4 175.5" class="st2"/>
	<polygon points="22.3 180.4 19.7 183.1 100.2 183.1 102.8 180.4" class="st2"/>
		<line y1="201.4" x2="64" y2="201.4" class="st7"/>
		<line y1="212.8" x2="32" x1="115.9" y2="212.8" class="st7"/>
		<line y1="223.5" x2="153.3" x1="92.6" y2="223.5" class="st7"/>
		<line y1="223.5" x2="194.6" x1="153.3" y2="182.2" class="st7"/>
		<line y1="193.4" x2="206" x1="173.9" y2="161.3" class="st7"/>
		<line y1="164.7" x2="221.4" x1="192.1" y2="135.5" class="st7"/>
	<path class="st1" d="m105.6 186.6c1.3-0.7 2.6-1.3 3.7-2.2 0.1-0.1 1-0.9 1-1 1-1 2-2.1 2.9-3.2-0.5 1.1-0.8 2.2-1.2 3.3-0.3 0.6-0.4 1.2-0.4 1.9 0 0.5 0.1 0.8 0.5 0.8 1.7-0.5 3-1.6 4.2-2.7 0.6-0.6 1.2-1.2 1.9-1.8 0.1 0.1 0.3 0.3 0.3 0.4 0.3 0.4 0.5 0.6 1 0.7 0.5 0 1-0.1 1.4 0.1 0.5 0.2 1 0.3 1.6 0.5 0.3 0.1 0.6 0.2 0.9 0.3 0.6 0.1 1.4 0.1 1.9 0.1 1.2 0 2.3 0.1 3.5 0.1 2.9 0.1 5.9 0.2 8.9 0.2 1.6 0 2.2-0.1 3.7-0.1 0.6-0.1 1.1-0.1 1.7-0.1l1.8-1.2c-0.6 0.1-1.1 0.1-1.7 0.1-1.4 0.1-2.3 0.1-3.7 0.1-2.9 0.1-5.9-0.1-8.9-0.2-1.2-0.1-2.2-0.1-3.4-0.1-0.3 0-1.4-0.1-1.8-0.1-0.3-0.1-0.6-0.1-0.9-0.3-0.5-0.2-1-0.3-1.6-0.6-0.5-0.1-1-0.1-1.5-0.1s-0.6-0.1-0.9-0.5c-0.1-0.1-0.3-0.3-0.3-0.4-1-0.9-2.7 0.7-3.3 1-1 0.9-2 1.9-3.1 2.8l-0.3 0.3v-0.2c0-0.7 0.1-1.2 0.3-1.8 0.4-1.2 0.8-2.3 1.2-3.4 0.4-0.9 0.8-1.8 1.2-2.6 0.5-1 1-2.1 1.4-3.2 0.3-0.7 0.5-1.4 0.5-2.1-0.3-1.4-2.4 0.5-2.7 1.4-0.6 1.1-1.2 2.2-1.7 3.4l-0.7 1.4c-0.5 1-1.2 2-1.9 2.9-1.1 1.4-2.3 2.7-3.5 3.9-0.5 0.5-1 0.9-1.6 1.4-0.1 0.1-0.6 0.4-0.5 0.3 0.7-0.3 2.5-1.3 1.5-0.8l-1.4 1.3zm12.2-5.1c-0.9 0.6-0.5 0.2 0 0zm-3.5 3.2c-0.1 0-0.1 0.1-0.1 0.1 0.4-0.2 0.6-0.3 0.1-0.1z"/>
		<path class="st2" d="m50.7 52.7h-35.1v-6.9l16.5-17.6c2.3-2.5 3.9-4.6 5-6.5 1.1-1.8 1.6-3.6 1.6-5.3 0-2.3-0.6-4-1.7-5.4-1.2-1.3-2.8-2-4.9-2-2.3 0-4.1 0.8-5.4 2.4s-2 3.7-2 6.2h-10.1c0-3.1 0.7-5.9 2.2-8.6 1.5-2.5 3.6-4.6 6.3-6.1 2.7-1.4 5.8-2.2 9.2-2.2 5.3 0 9.3 1.2 12.3 3.8 2.9 2.5 4.4 6.1 4.4 10.7 0 2.5-0.7 5.1-2 7.7s-3.5 5.7-6.7 9.1l-11.6 12.5h21.9l0.1 8.2z"/>
	<rect y="75.9" x="23.2" height="31.6" class="st2" width="158"/>
	<rect y="83.7" x="159.4" height="15.9" class="st4" width="15.9"/>
	<rect y="83.7" x="135.9" height="15.9" class="st4" width="15.9"/>
	<rect y="83.7" x="112.4" height="15.9" class="st4" width="15.9"/>
	<rect y="83.7" x="88.8" height="15.9" class="st4" width="15.9"/>
	<rect y="83.7" x="65.3" height="15.9" class="st4" width="15.9"/>
	<rect y="83.7" x="41.8" height="15.9" class="st4" width="15.9"/>
	<rect y="78.5" x="23.2" height=".8" class="st8" width="6.4"/>
	<rect y="80.2" x="23.2" height="1.1" class="st8" width="6.4"/>
	<rect y="82.1" x="23.2" height=".4" class="st8" width="6.4"/>
	<rect y="103.3" x="23.2" height="1.1" class="st8" width="6.4"/>
	<rect y="105.2" x="23.2" height=".4" class="st8" width="6.4"/>
	<rect y="98.3" x="23.2" height=".8" class="st8" width="6.4"/>
	<rect y="100.1" x="23.2" height="1.1" class="st8" width="6.4"/>
	<rect y="84" x="23.2" height="1.1" class="st8" width="6.4"/>
	<rect y="85.8" x="23.2" height="1.1" class="st8" width="6.4"/>
	<rect y="87.7" x="23.2" height=".4" class="st8" width="6.4"/>
	<rect y="93.7" x="23.2" height="1.1" class="st8" width="6.4"/>
	<rect y="95.5" x="23.2" height="1.1" class="st8" width="6.4"/>
	<rect y="97.4" x="23.2" height=".4" class="st8" width="6.4"/>
	<rect y="91.5" x="23.2" height=".4" class="st8" width="6.4"/>
	<rect y="92.5" x="23.2" height=".4" class="st8" width="6.4"/>
	<rect y="89.6" x="23.2" height="1.1" class="st8" width="6.4"/>
<rect width="280.3" class="st14" height="231.8"/>
</svg>
