<?xml version="1.0" encoding="utf-8"?>
<!-- Generator: Adobe Illustrator 15.0.0, SVG Export Plug-In . SVG Version: 6.00 Build 0)  -->
<!DOCTYPE svg PUBLIC "-//W3C//DTD SVG 1.1//EN" "http://www.w3.org/Graphics/SVG/1.1/DTD/svg11.dtd">
<svg version="1.1" id="Capa_1" xmlns="http://www.w3.org/2000/svg" xmlns:xlink="http://www.w3.org/1999/xlink" x="0px" y="0px"
	 width="1920px" height="271.04px" viewBox="0 0 1920 271.04" enable-background="new 0 0 1920 271.04" xml:space="preserve">
<g>
	<defs>
		<rect id="SVGID_1_" width="1920" height="271.039"/>
	</defs>
	<clipPath id="SVGID_2_">
		<use xlink:href="#SVGID_1_"  overflow="visible"/>
	</clipPath>
	<g clip-path="url(#SVGID_2_)">
		<path fill="#ED933A" d="M806.84,83.378c31.911-71.942,82.844-80.853,82.844-80.853s-39.973-0.958-58.669,1.591
			c-17.4,2.545-50.924,4.777-84.449,80.535c-4.519,10.185-48.033,104.733-48.033,104.733c-32.233,71.62-82.835,80.533-82.835,80.533
			s37.389,0.954,58.663-1.591c17.409-2.232,50.933-4.459,84.455-80.221C758.491,188.105,803.292,90.699,806.84,83.378z"/>
		<path fill="#ED933A" d="M979.288,83.378c31.916-71.942,82.842-80.853,82.842-80.853s-39.971-0.958-58.666,1.591
			c-17.082,2.545-50.604,4.777-84.125,80.535c-4.514,10.185-48.025,104.733-48.025,104.733
			c-32.243,71.62-83.169,80.533-83.169,80.533s37.397,0.954,58.667-1.591c17.405-2.232,50.93-4.459,84.452-80.221
			C931.263,188.105,976.065,90.699,979.288,83.378z"/>
		<path fill="#2BB673" d="M925.137,32.127c3.874,0,7.095,3.183,7.095,7.006v106c0,3.819-3.221,7.002-7.095,7.002
			c-3.869,0-7.095-3.183-7.095-7.002V39.454C918.042,35.31,921.268,32.127,925.137,32.127z"/>
		<path fill="#2BB673" d="M749.789,130.486c3.867,0,7.091,3.183,7.091,7.007v96.774c0,3.816-3.224,7-7.091,7
			c-3.87,0-7.096-3.184-7.096-7v-96.774C742.693,133.669,745.919,130.486,749.789,130.486z"/>
		<path fill="#2BB673" d="M881.302,5.39c3.863,0,7.09,3.183,7.09,7.006V222.49c0,3.817-3.227,6.994-7.09,6.994
			c-3.867,0-7.091-3.177-7.091-6.994V12.396C874.211,8.573,877.435,5.39,881.302,5.39z"/>
		<path fill="#2BB673" d="M793.622,53.136c3.869,0,7.097,3.183,7.097,7.007v200.222c0,3.824-3.228,7.008-7.097,7.008
			c-3.868,0-7.09-3.184-7.09-7.008V60.462C786.532,56.319,789.754,53.136,793.622,53.136z"/>
		<path fill="#2BB673" d="M837.461,13.028c3.869,0,7.094,3.185,7.094,7.001v231.743c0,3.823-3.225,7-7.094,7
			c-3.868,0-7.094-3.177-7.094-7V20.03C830.367,16.213,833.593,13.028,837.461,13.028z"/>
		<path fill="#2BB673" d="M694.668,142.902c3.864,0,7.09,3.184,7.09,7.008v85.942c0,3.823-3.226,7.007-7.09,7.007
			c-3.869,0-7.095-3.184-7.095-7.007V149.91C687.252,146.086,690.475,142.902,694.668,142.902z"/>
		<path fill="#2BB673" d="M650.828,50.59c3.869,0,7.095,3.186,7.095,7.007v197.358c0,3.817-3.226,7.002-7.095,7.002
			c-3.866,0-7.09-3.185-7.09-7.002V57.597C643.419,53.776,646.645,50.59,650.828,50.59z"/>
		<path fill="#2BB673" d="M563.154,5.39c3.87,0,7.096,3.183,7.096,7.006v226.962c0,3.82-3.226,7.007-7.096,7.007
			c-3.866,0-7.089-3.187-7.089-7.007V12.396C556.065,8.573,559.288,5.39,563.154,5.39z"/>
		<rect x="602.479" y="24.807" fill="#2BB673" width="14.506" height="239.061"/>
		<path fill="#FEDD42" d="M734.641,189.063c31.906,71.941,82.838,80.854,82.838,80.854s-39.005,0.954-58.663-1.591
			c-17.411-2.551-50.932-4.459-84.455-80.221c-4.513-10.186-48.033-104.728-48.033-104.728
			C594.422,11.436,543.49,2.525,543.49,2.525s40.288-0.958,58.663,1.591c17.411,2.545,50.933,4.457,84.456,80.22
			C686.286,84.65,731.415,181.738,734.641,189.063z"/>
		<path fill="#ED933A" d="M325.921,83.378c31.91-71.942,82.84-80.853,82.84-80.853s-39.971-0.958-58.667,1.591
			c-17.403,2.545-50.926,4.777-84.449,80.535c-4.52,10.185-48.032,104.733-48.032,104.733
			c-32.233,71.62-82.838,80.533-82.838,80.533s37.391,0.954,58.665-1.591c17.409-2.232,50.931-4.459,84.453-80.221
			C277.568,188.105,322.372,90.699,325.921,83.378z"/>
		<path fill="#ED933A" d="M498.365,83.378c31.918-71.942,82.844-80.853,82.844-80.853s-39.971-0.958-58.669,1.591
			c-17.079,2.545-50.602,4.777-84.125,80.535c-4.513,10.185-48.025,104.733-48.025,104.733
			c-32.241,71.62-83.167,80.533-83.167,80.533s37.393,0.954,58.669-1.591c17.401-2.232,50.925-4.459,84.449-80.221
			C450.341,188.105,495.143,90.699,498.365,83.378z"/>
		<path fill="#ED933A" d="M-159.84,83.378C-127.929,11.436-77,2.525-77,2.525s-39.97-0.958-58.666,1.591
			c-17.406,2.545-50.927,4.457-84.45,80.22c-4.512,10.181-48.026,104.727-48.026,104.727
			c-32.236,71.941-82.842,80.854-82.842,80.854s37.392,0.954,58.666-1.591c17.406-2.232,50.93-4.459,84.451-80.221
			C-208.189,188.105-163.062,90.699-159.84,83.378z"/>
		<path fill="#ED933A" d="M12.609,83.378C44.844,11.436,95.452,2.525,95.452,2.525S55.481,1.567,36.783,4.116
			c-17.404,2.545-50.926,4.457-84.449,80.22c-4.513,10.181-48.027,104.727-48.027,104.727
			c-31.912,71.941-82.841,80.854-82.841,80.854s37.391,0.954,58.665-1.591c17.405-2.232,50.928-4.459,84.453-80.221
			C-35.416,188.105,9.385,90.699,12.609,83.378z"/>
		<path fill="#2BB673" d="M444.216,32.127c3.871,0,7.095,3.183,7.095,7.006v106c0,3.819-3.224,7.002-7.095,7.002
			s-7.095-3.183-7.095-7.002V39.454C437.121,35.31,440.345,32.127,444.216,32.127z"/>
		<path fill="#2BB673" d="M268.869,130.486c3.865,0,7.088,3.183,7.088,7.007v96.774c0,3.816-3.223,7-7.088,7
			c-3.872,0-7.097-3.184-7.097-7v-96.774C261.772,133.669,264.997,130.486,268.869,130.486z"/>
		<path fill="#2BB673" d="M400.38,5.39c3.865,0,7.088,3.183,7.088,7.006V222.49c0,3.817-3.223,6.994-7.088,6.994
			c-3.867,0-7.091-3.177-7.091-6.994V12.396C393.289,8.573,396.513,5.39,400.38,5.39z"/>
		<path fill="#2BB673" d="M312.699,53.136c3.872,0,7.096,3.183,7.096,7.007v200.222c0,3.824-3.224,7.008-7.096,7.008
			c-3.865,0-7.089-3.184-7.089-7.008V60.462C305.61,56.319,308.834,53.136,312.699,53.136z"/>
		<path fill="#2BB673" d="M356.542,13.028c3.865,0,7.09,3.185,7.09,7.001v231.743c0,3.823-3.225,7-7.09,7
			c-3.872,0-7.095-3.177-7.095-7V20.03C349.447,16.213,352.67,13.028,356.542,13.028z"/>
		<path fill="#2BB673" d="M213.749,142.902c3.863,0,7.089,3.184,7.089,7.008v85.942c0,3.823-3.226,7.007-7.089,7.007
			c-3.872,0-7.096-3.184-7.096-7.007V149.91C206.33,146.086,209.554,142.902,213.749,142.902z"/>
		<path fill="#2BB673" d="M38.395,17.804c3.865,0,7.092,3.186,7.092,7.003v116.829c0,3.811-3.227,6.995-7.092,6.995
			s-7.089-3.185-7.089-6.995V24.807C31.306,20.989,34.529,17.804,38.395,17.804z"/>
		<path fill="#2BB673" d="M169.905,50.59c3.871,0,7.097,3.186,7.097,7.007v197.358c0,3.817-3.226,7.002-7.097,7.002
			c-3.865,0-7.089-3.185-7.089-7.002V57.597C162.499,53.776,165.722,50.59,169.905,50.59z"/>
		<path fill="#2BB673" d="M-273.624,142.902c3.868,0,7.094,3.184,7.094,7.008v85.942c0,3.823-3.226,7.007-7.094,7.007
			s-7.092-3.184-7.092-7.007V149.91C-280.716,146.086-277.492,142.902-273.624,142.902z"/>
		<path fill="#2BB673" d="M-317.463,50.59c3.87,0,7.092,3.186,7.092,7.007v197.358c0,3.817-3.222,7.002-7.092,7.002
			c-3.867,0-7.091-3.185-7.091-7.002V57.597C-324.554,53.776-321.33,50.59-317.463,50.59z"/>
		<path fill="#2BB673" d="M82.231,5.39c3.873,0,7.096,3.183,7.096,7.006v226.962c0,3.82-3.223,7.007-7.096,7.007
			c-3.866,0-7.089-3.187-7.089-7.007V12.396C75.143,8.573,78.365,5.39,82.231,5.39z"/>
		<rect x="121.557" y="24.807" fill="#2BB673" width="14.509" height="239.061"/>
		<path fill="#2BB673" d="M-41.541,32.127c3.865,0,7.088,3.183,7.088,7.006v104.408c0,3.822-3.223,7.006-7.088,7.006
			c-3.868,0-7.093-3.184-7.093-7.006V39.454C-48.634,35.31-45.409,32.127-41.541,32.127z"/>
		<path fill="#2BB673" d="M-216.569,130.486c3.866,0,7.09,3.183,7.09,7.007v96.774c0,3.816-3.224,7-7.09,7
			c-3.868,0-7.094-3.184-7.094-7v-96.774C-223.984,133.669-220.76,130.486-216.569,130.486z"/>
		<path fill="#2BB673" d="M-85.381,5.39c3.868,0,7.092,3.183,7.092,7.006V222.49c0,3.817-3.224,6.994-7.092,6.994
			s-7.09-3.177-7.09-6.994V12.396C-92.471,8.573-89.249,5.39-85.381,5.39z"/>
		<path fill="#2BB673" d="M-173.055,53.136c3.868,0,7.088,3.183,7.088,7.007v200.222c0,3.824-3.22,7.008-7.088,7.008
			s-7.094-3.184-7.094-7.008V60.462C-180.148,56.319-176.923,53.136-173.055,53.136z"/>
		<path fill="#2BB673" d="M-129.219,13.028c3.868,0,7.094,3.185,7.094,7.001v231.743c0,3.823-3.226,7-7.094,7s-7.092-3.177-7.092-7
			V20.03C-136.311,16.213-133.087,13.028-129.219,13.028z"/>
		<path fill="#FEDD42" d="M80.943,189.063c31.911,71.941,82.839,80.854,82.839,80.854s-39.003,0.954-58.664-1.591
			c-17.41-2.551-50.93-4.459-84.449-80.221c-4.513-10.186-48.03-104.728-48.03-104.728C-59.27,11.436-110.199,2.525-110.199,2.525
			s40.292-0.958,58.664,1.591c17.406,2.545,50.929,4.457,84.453,80.22C32.918,84.65,77.725,181.738,80.943,189.063z"/>
		<path fill="#FEDD42" d="M253.72,189.063c31.903,71.941,82.836,80.854,82.836,80.854s-39.005,0.954-58.663-1.591
			c-17.407-2.551-50.93-4.459-84.453-80.221c-4.514-10.186-48.032-104.728-48.032-104.728C113.502,11.436,62.569,2.525,62.569,2.525
			s40.289-0.958,58.663,1.591c17.408,2.545,50.933,4.457,84.455,80.22C205.364,84.65,250.495,181.738,253.72,189.063z"/>
		<path fill="#FEDD42" d="M-232.044,189.063c31.91,71.941,82.84,80.854,82.84,80.854s-39,0.954-58.663-1.591
			c-17.407-2.551-50.927-4.459-84.451-80.221c-4.514-10.186-48.03-104.728-48.03-104.728
			c-31.909-71.942-82.839-80.853-82.839-80.853s40.292-0.958,58.666,1.591c17.405,2.545,50.929,4.457,84.452,80.22
			C-280.393,84.65-235.265,181.738-232.044,189.063z"/>
		<path fill="#2BB673" d="M519.316,17.804c3.866,0,7.089,3.186,7.089,7.003v116.829c0,3.811-3.223,6.995-7.089,6.995
			c-3.864,0-7.09-3.185-7.09-6.995V24.807C512.227,20.989,515.452,17.804,519.316,17.804z"/>
		<path fill="#FEDD42" d="M561.866,189.063c31.916,71.941,82.843,80.854,82.843,80.854s-39.002,0.954-58.669-1.591
			c-17.404-2.551-50.927-4.459-84.448-80.221c-4.514-10.186-48.028-104.728-48.028-104.728
			c-31.909-71.942-82.842-80.853-82.842-80.853s40.295-0.958,58.667,1.591c17.405,2.545,50.927,4.457,84.45,80.22
			C513.839,84.65,558.642,181.738,561.866,189.063z"/>
		<path fill="#ED933A" d="M1768.682,83.378c31.914-71.942,82.844-80.853,82.844-80.853s-39.969-0.958-58.666,1.591
			c-17.402,2.545-50.928,4.777-84.449,80.535c-4.521,10.185-48.033,104.733-48.033,104.733
			c-32.234,71.62-82.838,80.533-82.838,80.533s37.391,0.954,58.666-1.591c17.408-2.232,50.932-4.459,84.451-80.221
			C1720.333,188.105,1765.135,90.699,1768.682,83.378z"/>
		<path fill="#ED933A" d="M1941.129,83.378c31.92-71.942,82.848-80.853,82.848-80.853s-39.975-0.958-58.67,1.591
			c-17.08,2.545-50.605,4.777-84.127,80.535c-4.512,10.185-48.025,104.733-48.025,104.733
			c-32.244,71.62-83.168,80.533-83.168,80.533s37.396,0.954,58.666-1.591c17.408-2.232,50.93-4.459,84.451-80.221
			C1893.104,188.105,1937.907,90.699,1941.129,83.378z"/>
		<path fill="#2BB673" d="M1886.981,32.127c3.873,0,7.096,3.183,7.096,7.006v106c0,3.819-3.223,7.002-7.096,7.002
			c-3.871,0-7.098-3.183-7.098-7.002V39.454C1879.883,35.31,1883.11,32.127,1886.981,32.127z"/>
		<path fill="#2BB673" d="M1711.633,130.486c3.869,0,7.088,3.183,7.088,7.007v96.774c0,3.816-3.219,7-7.088,7
			c-3.871,0-7.096-3.184-7.096-7v-96.774C1704.538,133.669,1707.762,130.486,1711.633,130.486z"/>
		<path fill="#2BB673" d="M1843.145,5.39c3.865,0,7.09,3.183,7.09,7.006V222.49c0,3.817-3.225,6.994-7.09,6.994
			c-3.869,0-7.092-3.177-7.092-6.994V12.396C1836.053,8.573,1839.276,5.39,1843.145,5.39z"/>
		<path fill="#2BB673" d="M1755.463,53.136c3.871,0,7.098,3.183,7.098,7.007v200.222c0,3.824-3.227,7.008-7.098,7.008
			c-3.865,0-7.088-3.184-7.088-7.008V60.462C1748.375,56.319,1751.598,53.136,1755.463,53.136z"/>
		<path fill="#2BB673" d="M1799.305,13.028c3.869,0,7.092,3.185,7.092,7.001v231.743c0,3.823-3.223,7-7.092,7
			c-3.871,0-7.094-3.177-7.094-7V20.03C1792.211,16.213,1795.434,13.028,1799.305,13.028z"/>
		<path fill="#FEDD42" d="M2004.631,189.063c31.918,71.941,82.84,80.854,82.84,80.854s-39.002,0.954-58.666-1.591
			c-17.402-2.551-50.924-4.459-84.449-80.221c-4.514-10.186-48.027-104.728-48.027-104.728
			c-31.908-71.942-82.844-80.853-82.844-80.853s40.297-0.958,58.668,1.591c17.406,2.545,50.928,4.457,84.453,80.22
			C1956.606,84.65,2001.407,181.738,2004.631,189.063z"/>
		<path fill="#2BB673" d="M1656.514,142.902c3.863,0,7.088,3.184,7.088,7.008v85.942c0,3.823-3.225,7.007-7.088,7.007
			c-3.871,0-7.096-3.184-7.096-7.007V149.91C1649.096,146.086,1652.319,142.902,1656.514,142.902z"/>
		<path fill="#2BB673" d="M1612.67,50.59c3.871,0,7.096,3.186,7.096,7.007v197.358c0,3.817-3.225,7.002-7.096,7.002
			c-3.865,0-7.088-3.185-7.088-7.002V57.597C1605.26,53.776,1608.487,50.59,1612.67,50.59z"/>
		<path fill="#2BB673" d="M1524.999,5.39c3.871,0,7.096,3.183,7.096,7.006v226.962c0,3.82-3.225,7.007-7.096,7.007
			c-3.869,0-7.092-3.187-7.092-7.007V12.396C1517.907,8.573,1521.129,5.39,1524.999,5.39z"/>
		<rect x="1564.321" y="24.807" fill="#2BB673" width="14.51" height="239.061"/>
		<path fill="#FEDD42" d="M1696.485,189.063c31.906,71.941,82.836,80.854,82.836,80.854s-39.002,0.954-58.664-1.591
			c-17.406-2.551-50.93-4.459-84.451-80.221c-4.516-10.186-48.033-104.728-48.033-104.728
			c-31.908-71.942-82.838-80.853-82.838-80.853s40.289-0.958,58.662,1.591c17.41,2.545,50.934,4.457,84.457,80.22
			C1648.127,84.65,1693.26,181.738,1696.485,189.063z"/>
		<path fill="#ED933A" d="M1287.762,83.378c31.912-71.942,82.844-80.853,82.844-80.853s-39.971-0.958-58.668,1.591
			c-17.402,2.545-50.926,4.777-84.449,80.535c-4.52,10.185-48.033,104.733-48.033,104.733
			c-32.232,71.62-82.838,80.533-82.838,80.533s37.393,0.954,58.666-1.591c17.406-2.232,50.93-4.459,84.453-80.221
			C1239.413,188.105,1284.215,90.699,1287.762,83.378z"/>
		<path fill="#ED933A" d="M1460.211,83.378c31.916-71.942,82.84-80.853,82.84-80.853s-39.969-0.958-58.666,1.591
			c-17.08,2.545-50.604,4.777-84.129,80.535c-4.51,10.185-48.021,104.733-48.021,104.733c-32.242,71.62-83.17,80.533-83.17,80.533
			s37.398,0.954,58.668-1.591c17.406-2.232,50.928-4.459,84.453-80.221C1412.186,188.105,1456.987,90.699,1460.211,83.378z"/>
		<path fill="#2BB673" d="M1406.057,32.127c3.875,0,7.098,3.183,7.098,7.006v106c0,3.819-3.223,7.002-7.098,7.002
			c-3.869,0-7.094-3.183-7.094-7.002V39.454C1398.963,35.31,1402.188,32.127,1406.057,32.127z"/>
		<path fill="#2BB673" d="M1230.711,130.486c3.867,0,7.09,3.183,7.09,7.007v96.774c0,3.816-3.223,7-7.09,7
			c-3.869,0-7.096-3.184-7.096-7v-96.774C1223.616,133.669,1226.842,130.486,1230.711,130.486z"/>
		<path fill="#2BB673" d="M1362.223,5.39c3.865,0,7.09,3.183,7.09,7.006V222.49c0,3.817-3.225,6.994-7.09,6.994
			c-3.867,0-7.09-3.177-7.09-6.994V12.396C1355.133,8.573,1358.356,5.39,1362.223,5.39z"/>
		<path fill="#2BB673" d="M1274.543,53.136c3.871,0,7.096,3.183,7.096,7.007v200.222c0,3.824-3.225,7.008-7.096,7.008
			c-3.865,0-7.09-3.184-7.09-7.008V60.462C1267.454,56.319,1270.678,53.136,1274.543,53.136z"/>
		<path fill="#2BB673" d="M1318.385,13.028c3.867,0,7.088,3.185,7.088,7.001v231.743c0,3.823-3.221,7-7.088,7
			c-3.871,0-7.094-3.177-7.094-7V20.03C1311.292,16.213,1314.514,13.028,1318.385,13.028z"/>
		<path fill="#2BB673" d="M1175.592,142.902c3.863,0,7.09,3.184,7.09,7.008v85.942c0,3.823-3.227,7.007-7.09,7.007
			c-3.871,0-7.096-3.184-7.096-7.007V149.91C1168.174,146.086,1171.397,142.902,1175.592,142.902z"/>
		<path fill="#2BB673" d="M1000.239,17.804c3.867,0,7.09,3.186,7.09,7.003v116.829c0,3.811-3.223,6.995-7.09,6.995
			c-3.865,0-7.09-3.185-7.09-6.995V24.807C993.149,20.989,996.374,17.804,1000.239,17.804z"/>
		<path fill="#2BB673" d="M1131.75,50.59c3.871,0,7.096,3.186,7.096,7.007v197.358c0,3.817-3.225,7.002-7.096,7.002
			c-3.867,0-7.09-3.185-7.09-7.002V57.597C1124.34,53.776,1127.567,50.59,1131.75,50.59z"/>
		<path fill="#2BB673" d="M1044.077,5.39c3.869,0,7.096,3.183,7.096,7.006v226.962c0,3.82-3.227,7.007-7.096,7.007
			c-3.867,0-7.09-3.187-7.09-7.007V12.396C1036.987,8.573,1040.209,5.39,1044.077,5.39z"/>
		<rect x="1083.401" y="24.807" fill="#2BB673" width="14.506" height="239.061"/>
		<path fill="#FEDD42" d="M1215.563,189.063c31.904,71.941,82.838,80.854,82.838,80.854s-39.006,0.954-58.664-1.591
			c-17.41-2.551-50.93-4.459-84.453-80.221c-4.514-10.186-48.035-104.728-48.035-104.728
			c-31.904-71.942-82.836-80.853-82.836-80.853s40.289-0.958,58.662,1.591c17.41,2.545,50.936,4.457,84.457,80.22
			C1167.208,84.65,1212.336,181.738,1215.563,189.063z"/>
		<path fill="#2BB673" d="M1481.159,17.804c3.869,0,7.092,3.186,7.092,7.003v116.829c0,3.811-3.223,6.995-7.092,6.995
			c-3.865,0-7.088-3.185-7.088-6.995V24.807C1474.071,20.989,1477.293,17.804,1481.159,17.804z"/>
		<path fill="#FEDD42" d="M1523.711,189.063c31.916,71.941,82.84,80.854,82.84,80.854s-39.002,0.954-58.668-1.591
			c-17.402-2.551-50.926-4.459-84.449-80.221c-4.514-10.186-48.025-104.728-48.025-104.728
			c-31.91-71.942-82.844-80.853-82.844-80.853s40.297-0.958,58.668,1.591c17.406,2.545,50.928,4.457,84.453,80.22
			C1475.686,84.65,1520.489,181.738,1523.711,189.063z"/>
		<path fill="#FEDD42" d="M1042.786,189.063c31.918,71.941,82.844,80.854,82.844,80.854s-39.002,0.954-58.668-1.591
			c-17.402-2.551-50.926-4.459-84.449-80.221c-4.514-10.186-48.027-104.728-48.027-104.728
			c-31.909-71.942-82.843-80.853-82.843-80.853s40.296-0.958,58.669,1.591c17.404,2.545,50.927,4.457,84.451,80.22
			C994.762,84.65,1039.563,181.738,1042.786,189.063z"/>
	</g>
</g>
</svg>
