<?xml version="1.0" encoding="utf-8"?>
<!-- Generator: Adobe Illustrator 15.0.0, SVG Export Plug-In . SVG Version: 6.00 Build 0)  -->
<!DOCTYPE svg PUBLIC "-//W3C//DTD SVG 1.1//EN" "http://www.w3.org/Graphics/SVG/1.1/DTD/svg11.dtd">
<svg version="1.1" id="Capa_1" xmlns="http://www.w3.org/2000/svg" xmlns:xlink="http://www.w3.org/1999/xlink" x="0px" y="0px"
	 width="21.6px" height="21.6px" viewBox="0 0 21.6 21.6" enable-background="new 0 0 21.6 21.6" xml:space="preserve">
<circle fill="none" stroke="#ED933A" stroke-width="1.6" stroke-miterlimit="10" cx="10.8" cy="10.8" r="10"/>
<g>
	<g>
		<path fill="#ED933A" d="M10.813,7.697c-0.339,0-0.628-0.104-0.868-0.312c-0.241-0.208-0.36-0.502-0.36-0.881
			c0-0.344,0.123-0.628,0.369-0.851s0.532-0.334,0.859-0.334c0.314,0,0.594,0.101,0.837,0.303c0.243,0.202,0.364,0.496,0.364,0.882
			c0,0.374-0.118,0.667-0.355,0.877S11.14,7.697,10.813,7.697z M11.958,10.428v5.243c0,0.464-0.111,0.814-0.331,1.052
			c-0.221,0.237-0.501,0.356-0.84,0.356c-0.34,0-0.614-0.122-0.827-0.365c-0.212-0.243-0.318-0.591-0.318-1.043v-5.175
			c0-0.458,0.106-0.803,0.318-1.035c0.213-0.231,0.487-0.348,0.827-0.348c0.339,0,0.619,0.116,0.84,0.348
			C11.847,9.693,11.958,10.015,11.958,10.428z"/>
	</g>
</g>
</svg>
