<?xml version="1.0" encoding="utf-8"?>
<!-- Generator: Adobe Illustrator 15.0.0, SVG Export Plug-In . SVG Version: 6.00 Build 0)  -->
<!DOCTYPE svg PUBLIC "-//W3C//DTD SVG 1.1//EN" "http://www.w3.org/Graphics/SVG/1.1/DTD/svg11.dtd">
<svg version="1.1" id="Capa_1" xmlns="http://www.w3.org/2000/svg" xmlns:xlink="http://www.w3.org/1999/xlink" x="0px" y="0px"
	 width="21px" height="67.936px" viewBox="0 0 21 67.936" enable-background="new 0 0 21 67.936" xml:space="preserve">
<rect fill="#EEEEEE" width="21" height="65.001"/>
<rect fill="#FFDE3F" width="21" height="2"/>
<rect y="31" fill="#ED933A" width="21" height="7"/>
<rect y="3" fill="#FFDE3F" width="21" height="4"/>
<rect y="47.001" fill="#FFDE3F" width="21" height="4"/>
<rect y="58.001" fill="#2BB673" width="21" height="3"/>
<rect y="61.001" fill="#ED933A" width="21" height="3"/>
<rect y="2" fill="#2BB673" width="21" height="1"/>
<rect y="7" fill="#2BB673" width="21" height="1"/>
<rect y="8" fill="#FFDE3F" width="21" height="2"/>
<rect y="15" fill="#FFDE3F" width="21" height="1"/>
<rect y="16" fill="#F2AE25" width="21" height="1"/>
<rect y="17" fill="#E0B810" width="21" height="1"/>
<rect y="18" fill="#ED933A" width="21" height="1"/>
<rect y="13" fill="#FFDE3F" width="21" height="1"/>
<rect y="14" fill="#ED933A" width="21" height="1"/>
<rect y="15" fill="#FFDE3F" width="21" height="1"/>
<rect y="16" fill="#ED933A" width="21" height="1"/>
<rect y="17" fill="#FFDE3F" width="21" height="1"/>
<rect y="19" fill="#2BB673" width="21" height="2"/>
<rect y="23" fill="#FFDE3F" width="21" height="2"/>
<rect y="45.001" fill="#ED933A" width="21" height="2"/>
<rect y="10" fill="#ED933A" width="21" height="3"/>
<rect y="44.001" fill="#2BB673" width="21" height="1"/>
<rect y="30" fill="#2BB673" width="21" height="1"/>
<rect y="51.001" fill="#2BB673" width="21" height="2"/>
<rect y="53.001" fill="#ED933A" width="21" height="1"/>
<rect y="54.001" fill="#FFDE3F" width="21" height="4"/>
<rect y="64.001" fill="#FFDE3F" width="21" height="1"/>
<rect y="28" fill="#FFDE3F" width="21" height="2"/>
<rect y="25" fill="#ED933A" width="21" height="3"/>
<rect y="21" fill="#ED933A" width="21" height="2"/>
<rect y="38" fill="#FFDE3F" width="21" height="6.001"/>
</svg>
