<?xml version="1.0" encoding="utf-8"?>
<!-- Generator: Adobe Illustrator 15.0.0, SVG Export Plug-In . SVG Version: 6.00 Build 0)  -->
<!DOCTYPE svg PUBLIC "-//W3C//DTD SVG 1.1//EN" "http://www.w3.org/Graphics/SVG/1.1/DTD/svg11.dtd">
<svg version="1.1" id="Capa_1" xmlns="http://www.w3.org/2000/svg" xmlns:xlink="http://www.w3.org/1999/xlink" x="0px" y="0px"
	 width="242.273px" height="231.769px" viewBox="0 0 242.273 231.769" enable-background="new 0 0 242.273 231.769"
	 xml:space="preserve">
<g>
	<path fill="#D1D3D4" d="M111.551,73.666H67.955c-6.762,0-12.277-5.514-12.277-12.277V17.793c0-6.764,5.516-12.279,12.277-12.279
		h43.596c6.764,0,12.279,5.516,12.279,12.279v43.596C123.896,68.152,118.314,73.666,111.551,73.666z"/>
	<g>
		<rect x="65.131" y="23.963" fill="#FFFFFF" width="49.244" height="31.254"/>
		<polygon fill="#FFFFFF" points="91.131,40.445 65.131,23.963 114.375,23.963 		"/>
	</g>
	<path fill="#00A651" d="M224.939,72.943h-80.691c-1.838,0-3.283-1.443-3.283-3.281V3.281c0-1.77,1.445-3.281,3.283-3.281h80.691
		c1.839,0,3.283,1.445,3.283,3.281v66.314C228.223,71.436,226.713,72.943,224.939,72.943z"/>
	<path fill="#00A651" d="M224.939,72.943h-80.691c-1.838,0-3.283-1.443-3.283-3.281V3.281c0-1.77,1.445-3.281,3.283-3.281h80.691
		c1.839,0,3.283,1.445,3.283,3.281v66.314C228.223,71.436,226.713,72.943,224.939,72.943z"/>
	<rect x="149.895" y="7.748" fill="#FBFBFB" width="74.783" height="57.775"/>
	<path fill="#E6E7E8" d="M236.563,31.057h-6.83v-9.914c0-1.316-1.115-2.43-2.43-2.43h-5.842v35.781h5.842
		c1.314,0,2.43-1.115,2.43-2.428v-9.85h6.83c3.084,0,5.58-2.494,5.58-5.58S239.646,31.057,236.563,31.057z"/>
	<circle fill="#808285" cx="236.563" cy="36.637" r="1.445"/>
	<g>
		<rect x="65.131" y="23.963" fill="#EDEDEE" width="49.244" height="31.254"/>
		<polygon fill="#F1F2F2" points="89.752,38.74 114.375,55.217 65.131,55.217 		"/>
		<polygon fill="#FBFBFB" points="89.752,40.445 65.131,23.963 114.375,23.963 		"/>
	</g>
	<path fill="#00A651" d="M118.904,1.641c6.201,0,11.229,5.029,11.229,11.227c0,6.201-5.027,11.229-11.229,11.229
		c-6.199,0-11.227-5.027-11.227-11.229C107.678,6.67,112.705,1.641,118.904,1.641z"/>
	<path fill="#FFFFFF" d="M230.916,228.812H122.91V90.607h108.006c4.857,0,8.797,3.938,8.797,8.797v120.612
		C239.713,224.874,235.773,228.812,230.916,228.812z"/>
	<path fill="#FFFFFF" d="M11.49,155.671h104.066v73.537H11.49c-4.596,0-8.338-3.744-8.338-8.342v-56.924
		C3.152,159.415,6.895,155.671,11.49,155.671z"/>
	<g>
		<path fill="#F1F2F2" d="M229.863,231.769h-103.67V87.65h103.67c6.828,0,12.41,5.58,12.41,12.41v119.298
			C242.209,226.188,236.627,231.769,229.863,231.769z"/>
	</g>
	<g>
		<path fill="#F1F2F2" d="M12.541,153.177h105.903V231.7H3.414c-1.771,0-3.281-1.443-3.281-3.281v-62.898
			C0.199,158.757,5.777,153.177,12.541,153.177z"/>
	</g>
	<path fill="#808285" d="M3.48,231.769h116.41c1.838,0,3.281-1.447,3.281-3.285v-32.695c0-1.84-1.443-3.283-3.281-3.283H3.48
		c-1.838,0-3.281,1.443-3.281,3.283v32.695C0.199,230.257,1.643,231.769,3.48,231.769z"/>
	<path fill="#414042" d="M134.467,153.964v-9.193c0-1.18,0.918-2.1,2.1-2.1h13.92V89.752c0-1.182-0.92-2.102-2.102-2.102h-27.838
		c-1.183,0-2.103,0.92-2.103,2.102v139.849c0,1.18,0.92,2.1,2.103,2.1h27.838c1.182,0,2.102-0.92,2.102-2.1v-73.535h-13.92
		C135.449,156.065,134.467,155.146,134.467,153.964z"/>
	<path fill="#00A651" d="M138.404,150.419h64.607c0.59,0,1.049-0.459,1.049-1.051l0,0c0-0.592-0.459-1.053-1.049-1.053h-64.607
		c-0.592,0-1.051,0.461-1.051,1.053l0,0C137.354,149.96,137.813,150.419,138.404,150.419z"/>
	<rect x="54.824" y="145.562" fill="#D1D3D4" width="10.701" height="7.615"/>
	<g>
		<path fill="#414042" d="M107.744,92.904v50.028H12.672V92.904H107.744 M108.4,88.965H12.016c-1.838,0-3.283,1.443-3.283,3.283
			v51.343c0,1.838,1.445,3.281,3.283,3.281H108.4c1.837,0,3.283-1.443,3.283-3.281V92.248
			C111.684,90.408,110.172,88.965,108.4,88.965L108.4,88.965z"/>
	</g>
	<g>
		<path fill="#00A651" d="M11.557,22.258h5.449c2.561,0,4.531-0.658,5.777-1.973c1.247-1.311,1.84-3.02,1.84-5.119
			c0-2.102-0.593-3.676-1.84-4.857C21.537,9.127,19.828,8.6,17.662,8.6c-1.969,0-3.611,0.527-4.925,1.578
			c-1.312,1.049-1.968,2.494-1.968,4.201H0.592c0-2.691,0.723-5.055,2.166-7.221C4.203,5.057,6.237,3.35,8.799,2.166
			c2.627-1.18,5.449-1.773,8.602-1.773c5.449,0,9.717,1.313,12.803,3.875c3.084,2.625,4.596,6.17,4.596,10.768
			c0,2.363-0.723,4.529-2.166,6.498c-1.445,1.971-3.35,3.482-5.646,4.531c2.889,1.051,5.055,2.563,6.5,4.662
			c1.443,2.1,2.166,4.529,2.166,7.355c0,4.594-1.641,8.205-4.99,10.963c-3.348,2.758-7.746,4.135-13.197,4.135
			c-5.121,0-9.322-1.377-12.605-4.068C1.576,46.418,0,42.807,0,38.41h10.178c0,1.902,0.723,3.479,2.166,4.725
			c1.445,1.248,3.219,1.838,5.318,1.838c2.43,0,4.334-0.654,5.713-1.9c1.379-1.314,2.035-2.957,2.035-5.123
			c0-5.123-2.824-7.682-8.471-7.682h-5.383V22.258z"/>
	</g>
</g>
</svg>
