<?xml version="1.0" encoding="utf-8"?>
<!-- Generator: Adobe Illustrator 15.0.0, SVG Export Plug-In . SVG Version: 6.00 Build 0)  -->
<!DOCTYPE svg PUBLIC "-//W3C//DTD SVG 1.1//EN" "http://www.w3.org/Graphics/SVG/1.1/DTD/svg11.dtd">
<svg version="1.1" id="Capa_1" xmlns="http://www.w3.org/2000/svg" xmlns:xlink="http://www.w3.org/1999/xlink" x="0px" y="0px"
	 width="276.15px" height="217.34px" viewBox="0 0 276.15 217.34" enable-background="new 0 0 276.15 217.34" xml:space="preserve">
<g>
	<circle fill="#ED933A" cx="7.95" cy="139.723" r="4.201"/>
	<rect x="111.288" y="3.943" fill="#F1F2F2" width="164.862" height="213.396"/>
	<path fill="#808285" d="M12.15,214.754c2.649-1.293,5.3-2.65,7.562-4.523c0.129-0.129,2.133-1.939,2.197-2.004
		c2.132-2.066,4.071-4.266,5.945-6.527c-0.84,2.262-1.615,4.523-2.455,6.787c-0.582,1.227-0.776,2.52-0.776,3.877
		c0,0.904,0.064,1.551,1.099,1.615c3.426-0.906,6.14-3.23,8.661-5.623c1.292-1.229,2.52-2.457,3.877-3.684
		c0.259,0.193,0.517,0.453,0.711,0.711c0.517,0.777,1.034,1.227,1.938,1.357c0.97,0.064,2.004-0.064,2.973,0.129
		c1.034,0.387,2.133,0.711,3.232,1.1c0.581,0.193,1.228,0.451,1.874,0.518c1.162,0.193,2.843,0.193,3.942,0.193
		c2.391,0.064,4.847,0.064,7.237,0.129c6.075,0.129,12.086,0.453,18.16,0.387c3.103,0,4.395-0.129,7.497-0.258
		c1.163-0.064,2.327-0.193,3.425-0.258l3.685-2.52c-1.164,0.129-2.327,0.193-3.49,0.322c-2.844,0.127-4.718,0.258-7.562,0.322
		c-6.01,0.131-12.085-0.129-18.096-0.451c-2.455-0.131-4.523-0.193-6.979-0.324c-0.582,0-2.908-0.131-3.685-0.258
		c-0.582-0.064-1.227-0.324-1.809-0.518c-1.034-0.389-2.132-0.711-3.167-1.164c-0.969-0.322-2.003-0.191-2.973-0.191
		c-0.904,0-1.229-0.131-1.745-0.971c-0.129-0.195-0.517-0.711-0.646-0.84c-2.004-1.875-5.559,1.486-6.722,2.133
		c-2.133,1.809-4.137,3.813-6.204,5.752c-0.193,0.193-0.388,0.387-0.582,0.516c0-0.193,0-0.322,0-0.387
		c0-1.293,0.259-2.521,0.711-3.684c0.776-2.328,1.616-4.654,2.521-6.98c0.775-1.809,1.615-3.619,2.521-5.363
		c1.034-2.135,1.938-4.33,2.778-6.527c0.518-1.357,1.035-2.779,0.97-4.266c-0.517-2.908-4.911,0.969-5.493,2.908
		c-1.162,2.326-2.391,4.588-3.425,6.979c-0.193,0.389-1.228,2.521-1.422,2.844c-1.099,2.068-2.456,3.941-3.813,5.818
		c-2.261,2.777-4.588,5.426-7.173,7.818c-1.099,0.969-2.133,1.939-3.296,2.779c-0.323,0.193-1.229,0.775-0.904,0.645
		c1.485-0.645,5.17-2.713,3.102-1.549L12.15,214.754z M37.032,204.607C35.028,205.576,35.998,204.865,37.032,204.607L37.032,204.607
		z M29.858,211.07c-0.065,0.066-0.193,0.131-0.259,0.131C30.374,210.811,30.764,210.617,29.858,211.07z"/>
	<path fill="#D1D3D4" d="M7.95,123.438c-4.396,0-7.95-3.555-7.95-7.951c0-4.395,3.555-7.947,7.95-7.947
		c4.395,0,7.883,3.553,7.883,7.947C15.833,119.883,12.28,123.438,7.95,123.438z M7.95,110.059c-3.038,0-5.494,2.457-5.494,5.494
		s2.456,5.492,5.494,5.492c3.036,0,5.493-2.455,5.493-5.492S10.986,110.059,7.95,110.059z"/>
	<path fill="#D1D3D4" d="M7.95,147.672c-4.396,0-7.95-3.555-7.95-7.949c0-4.396,3.555-7.885,7.95-7.885
		c4.395,0,7.883,3.553,7.883,7.885C15.833,144.117,12.28,147.672,7.95,147.672z M7.95,134.293c-3.038,0-5.494,2.457-5.494,5.494
		s2.456,5.494,5.494,5.494c3.036,0,5.493-2.457,5.493-5.494S10.986,134.293,7.95,134.293z"/>
	<path fill="#D1D3D4" d="M7.95,99.656c-4.396,0-7.95-3.555-7.95-7.949c0-4.396,3.555-7.949,7.95-7.949
		c4.395,0,7.883,3.553,7.883,7.949C15.833,96.102,12.28,99.656,7.95,99.656z M7.95,86.213c-3.038,0-5.494,2.455-5.494,5.494
		c0,3.037,2.456,5.492,5.494,5.492c3.036,0,5.493-2.455,5.493-5.492C13.443,88.668,10.986,86.213,7.95,86.213z"/>
	<path fill="#D1D3D4" d="M7.95,171.906c-4.396,0-7.95-3.555-7.95-7.949s3.555-7.949,7.95-7.949c4.395,0,7.883,3.555,7.883,7.949
		S12.28,171.906,7.95,171.906z M7.95,158.463c-3.038,0-5.494,2.457-5.494,5.494s2.456,5.492,5.494,5.492
		c3.036,0,5.493-2.455,5.493-5.492S10.986,158.463,7.95,158.463z"/>
	<rect x="117.234" y="14.152" fill="#FFFFFF" width="140.951" height="22.814"/>
	<rect x="117.234" y="98.879" fill="#FFFFFF" width="140.951" height="23.459"/>
	<rect x="117.234" y="154.264" fill="#FFFFFF" width="140.951" height="23.07"/>
	<polygon fill="#ED933A" points="136.299,18.289 125.958,28.631 121.758,24.428 119.948,26.303 124.148,30.504 125.958,32.313 
		127.832,30.504 138.174,20.162 	"/>
	<rect x="140.498" y="25.334" fill="#ED933A" width="112.841" height="3.23"/>
	<rect x="140.498" y="42.072" fill="#D1D3D4" width="112.841" height="3.232"/>
	<rect x="140.498" y="58.746" fill="#D1D3D4" width="112.841" height="3.232"/>
	<rect x="25.528" y="88.539" fill="#D1D3D4" width="69.475" height="5.75"/>
	<rect x="1.229" y="213.527" fill="#D1D3D4" width="93.774" height="2.455"/>
	<rect x="25.528" y="112.125" fill="#D1D3D4" width="69.475" height="5.754"/>
	<rect x="25.528" y="135.715" fill="#ED933A" width="69.475" height="5.752"/>
	<rect x="25.528" y="160.338" fill="#D1D3D4" width="69.475" height="5.754"/>
	<polygon fill="#ED933A" points="136.299,101.141 125.958,111.479 121.758,107.279 119.948,109.152 124.148,113.354 
		125.958,115.229 127.832,113.354 138.174,103.014 	"/>
	<rect x="140.498" y="91.447" fill="#D1D3D4" width="112.841" height="3.232"/>
	<rect x="140.498" y="108.186" fill="#ED933A" width="112.841" height="3.23"/>
	<rect x="140.498" y="124.922" fill="#D1D3D4" width="112.841" height="3.232"/>
	<polygon fill="#ED933A" points="136.299,158.336 125.958,168.676 121.758,164.473 119.948,166.348 124.148,170.549 
		125.958,172.424 127.832,170.549 138.174,160.209 	"/>
	<rect x="140.498" y="165.381" fill="#ED933A" width="112.841" height="3.23"/>
	<rect x="140.498" y="182.117" fill="#D1D3D4" width="112.841" height="3.232"/>
	<rect x="140.498" y="198.855" fill="#D1D3D4" width="112.841" height="3.23"/>
	<g>
		<path fill="#ED933A" d="M22.813,47.693h-9.435V11.244l-11.245,3.49V7.109L21.845,0h1.033v47.693H22.813z"/>
	</g>
</g>
</svg>
