<?xml version="1.0" encoding="utf-8"?>
<!-- Generator: Adobe Illustrator 15.0.0, SVG Export Plug-In . SVG Version: 6.00 Build 0)  -->
<!DOCTYPE svg PUBLIC "-//W3C//DTD SVG 1.1//EN" "http://www.w3.org/Graphics/SVG/1.1/DTD/svg11.dtd">
<svg version="1.1" id="Capa_1" xmlns="http://www.w3.org/2000/svg" xmlns:xlink="http://www.w3.org/1999/xlink" x="0px" y="0px"
	 width="280.275px" height="231.412px" viewBox="0 0 280.275 231.412" enable-background="new 0 0 280.275 231.412"
	 xml:space="preserve">
<g>
	<g>
		<path fill="#F1C010" d="M214.598,16.62c6.465-14.756,16.781-16.584,16.781-16.584s-8.098-0.197-11.883,0.326
			c-3.527,0.521-10.314,0.98-17.105,16.516c-0.916,2.092-9.729,21.482-9.729,21.482c-6.529,14.689-16.779,16.52-16.779,16.52
			s7.572,0.193,11.883-0.33c3.525-0.457,10.314-0.912,17.105-16.451C204.805,38.099,213.881,18.12,214.598,16.62z"/>
		<path fill="#F1C010" d="M249.527,16.62c6.465-14.756,16.777-16.584,16.777-16.584s-8.096-0.197-11.881,0.326
			c-3.461,0.521-10.25,0.98-17.041,16.516c-0.914,2.092-9.727,21.482-9.727,21.482c-6.531,14.689-16.844,16.52-16.844,16.52
			s7.573,0.193,11.881-0.33c3.526-0.457,10.315-0.912,17.105-16.451C239.799,38.099,248.873,18.12,249.527,16.62z"/>
		<path fill="#F1C010" d="M116.211,16.62C122.676,1.864,132.99,0.036,132.99,0.036s-8.096-0.197-11.883,0.326
			c-3.525,0.521-10.314,0.914-17.104,16.453c-0.916,2.088-9.729,21.479-9.729,21.479C87.746,53.05,77.496,54.88,77.496,54.88
			s7.574,0.193,11.883-0.33c3.525-0.457,10.314-0.912,17.105-16.451C106.418,38.099,115.559,18.12,116.211,16.62z"/>
		<path fill="#F1C010" d="M151.141,16.62c6.527-14.756,16.777-16.584,16.777-16.584s-8.096-0.197-11.883,0.326
			c-3.523,0.521-10.315,0.914-17.104,16.453c-0.914,2.088-9.729,21.479-9.729,21.479C122.74,53.05,112.424,54.88,112.424,54.88
			s7.574,0.193,11.883-0.33c3.525-0.457,10.314-0.912,17.105-16.451C141.412,38.099,150.486,18.12,151.141,16.62z"/>
		<path fill="#808285" d="M238.559,6.106c0.784,0,1.438,0.654,1.438,1.438v21.742c0,0.781-0.653,1.434-1.438,1.434
			c-0.785,0-1.438-0.652-1.438-1.434V7.61C237.121,6.761,237.773,6.106,238.559,6.106z"/>
		<path fill="#808285" d="M203.043,26.282c0.783,0,1.438,0.65,1.438,1.436v19.85c0,0.783-0.654,1.434-1.438,1.434
			c-0.784,0-1.436-0.65-1.436-1.434v-19.85C201.607,26.933,202.259,26.282,203.043,26.282z"/>
		<path fill="#808285" d="M229.68,0.624c0.783,0,1.438,0.652,1.438,1.438v43.09c0,0.783-0.654,1.434-1.438,1.434
			s-1.436-0.65-1.436-1.434V2.062C228.244,1.276,228.896,0.624,229.68,0.624z"/>
		<path fill="#808285" d="M211.922,10.417c0.783,0,1.438,0.65,1.438,1.438v41.063c0,0.787-0.654,1.439-1.438,1.439
			s-1.436-0.652-1.436-1.439V11.919C210.486,11.067,211.139,10.417,211.922,10.417z"/>
		<path fill="#808285" d="M220.801,2.192c0.783,0,1.436,0.652,1.436,1.436v47.527c0,0.783-0.652,1.438-1.436,1.438
			c-0.785,0-1.438-0.654-1.438-1.438V3.628C219.363,2.845,220.016,2.192,220.801,2.192z"/>
		<path fill="#FEDD42" d="M262.389,38.294c6.463,14.756,16.779,16.586,16.779,16.586s-7.9,0.193-11.885-0.33
			c-3.524-0.521-10.314-0.912-17.104-16.451c-0.914-2.09-9.729-21.479-9.729-21.479c-6.463-14.756-16.777-16.584-16.777-16.584
			s8.16-0.197,11.883,0.326c3.523,0.521,10.314,0.914,17.104,16.453C252.66,16.878,261.734,36.792,262.389,38.294z"/>
		<path fill="#808285" d="M191.879,28.827c0.783,0,1.436,0.652,1.436,1.439v17.625c0,0.783-0.652,1.438-1.436,1.438
			s-1.438-0.654-1.438-1.438V30.267C190.377,29.479,191.029,28.827,191.879,28.827z"/>
		<path fill="#808285" d="M156.363,3.171c0.783,0,1.436,0.652,1.436,1.436v23.961c0,0.781-0.652,1.436-1.436,1.436
			s-1.438-0.654-1.438-1.436V4.606C154.926,3.823,155.58,3.171,156.363,3.171z"/>
		<path fill="#808285" d="M182.998,9.894c0.785,0,1.439,0.654,1.439,1.438V51.81c0,0.783-0.654,1.436-1.439,1.436
			c-0.781,0-1.436-0.652-1.436-1.436V11.331C181.498,10.548,182.152,9.894,182.998,9.894z"/>
		<path fill="#808285" d="M93.164,28.827c0.785,0,1.438,0.652,1.438,1.439v17.625c0,0.783-0.652,1.438-1.438,1.438
			c-0.783,0-1.436-0.654-1.436-1.438V30.267C91.729,29.479,92.381,28.827,93.164,28.827z"/>
		<path fill="#808285" d="M84.287,9.894c0.783,0,1.434,0.654,1.434,1.438V51.81c0,0.783-0.65,1.436-1.434,1.436
			s-1.438-0.652-1.438-1.436V11.331C82.85,10.548,83.504,9.894,84.287,9.894z"/>
		<path fill="#808285" d="M165.242,0.624c0.783,0,1.438,0.652,1.438,1.438v46.547c0,0.785-0.654,1.438-1.438,1.438
			s-1.438-0.652-1.438-1.438V2.062C163.805,1.276,164.459,0.624,165.242,0.624z"/>
		<rect x="173.205" y="4.606" fill="#808285" width="2.939" height="49.031"/>
		<path fill="#808285" d="M140.172,6.106c0.783,0,1.436,0.654,1.436,1.438v21.414c0,0.783-0.652,1.438-1.436,1.438
			s-1.436-0.654-1.436-1.438V7.61C138.736,6.761,139.389,6.106,140.172,6.106z"/>
		<path fill="#808285" d="M104.72,26.282c0.784,0,1.437,0.65,1.437,1.436v19.85c0,0.783-0.652,1.434-1.437,1.434
			c-0.782,0-1.435-0.65-1.435-1.434v-19.85C103.219,26.933,103.873,26.282,104.72,26.282z"/>
		<path fill="#808285" d="M131.293,0.624c0.783,0,1.436,0.652,1.436,1.438v43.09c0,0.783-0.652,1.434-1.436,1.434
			c-0.784,0-1.438-0.65-1.438-1.434V2.062C129.855,1.276,130.509,0.624,131.293,0.624z"/>
		<path fill="#808285" d="M113.535,10.417c0.783,0,1.436,0.65,1.436,1.438v41.063c0,0.787-0.652,1.439-1.436,1.439
			s-1.438-0.652-1.438-1.439V11.919C112.098,11.067,112.752,10.417,113.535,10.417z"/>
		<path fill="#808285" d="M122.414,2.192c0.783,0,1.436,0.652,1.436,1.436v47.527c0,0.783-0.652,1.438-1.436,1.438
			s-1.438-0.654-1.438-1.438V3.628C120.977,2.845,121.631,2.192,122.414,2.192z"/>
		<path fill="#FEDD42" d="M164.98,38.294c6.463,14.756,16.777,16.586,16.777,16.586s-7.898,0.193-11.881-0.33
			c-3.527-0.521-10.316-0.912-17.104-16.451c-0.916-2.09-9.729-21.479-9.729-21.479C136.58,1.864,126.266,0.036,126.266,0.036
			s8.161-0.197,11.883,0.326c3.525,0.521,10.314,0.914,17.104,16.453C155.252,16.878,164.328,36.792,164.98,38.294z"/>
		<path fill="#FEDD42" d="M199.975,38.294c6.463,14.756,16.779,16.586,16.779,16.586s-7.9,0.193-11.883-0.33
			c-3.525-0.521-10.316-0.912-17.105-16.451c-0.914-2.09-9.729-21.479-9.729-21.479c-6.463-14.756-16.778-16.584-16.778-16.584
			s8.159-0.197,11.882,0.326c3.525,0.521,10.314,0.914,17.105,16.453C190.182,16.878,199.322,36.792,199.975,38.294z"/>
		<path fill="#FEDD42" d="M101.586,38.294c6.463,14.756,16.781,16.586,16.781,16.586s-7.9,0.193-11.883-0.33
			c-3.527-0.521-10.316-0.912-17.105-16.451c-0.914-2.09-9.729-21.479-9.729-21.479C73.188,1.864,62.873,0.036,62.873,0.036
			s8.16-0.197,11.881,0.326c3.525,0.521,10.316,0.914,17.105,16.453C91.793,16.878,100.934,36.792,101.586,38.294z"/>
	</g>
	<g>
		<path fill="#FEDD42" d="M275.445,145.365h-32.838c-1.371,0-2.482-1.109-2.482-2.48V84.388h37.736v58.497
			C277.927,144.256,276.816,145.365,275.445,145.365z"/>
		<path fill="#E6E7E8" d="M240.32,74.007h37.477c1.371,0,2.479,1.109,2.479,2.48v7.9h-42.371v-7.9
			C237.84,75.116,238.949,74.007,240.32,74.007z"/>
		<rect x="252.334" y="101.493" fill="#F1F2F2" width="25.593" height="18.345"/>
	</g>
	<path fill="#808285" d="M252.727,169.65h21.479c1.371,0,2.48,1.109,2.48,2.48v3.984h-26.439v-3.984
		C250.311,170.76,251.355,169.65,252.727,169.65z"/>
	<polygon fill="#FEDD42" points="268.461,230.107 258.471,230.107 252.465,176.115 274.533,176.115 	"/>
	<path fill="none" stroke="#808285" stroke-width="2" stroke-miterlimit="10" d="M275.119,181.076h-25.918
		c-1.176,0-2.09-0.979-2.09-2.09v-0.719c0-1.174,0.979-2.086,2.09-2.086h27.484"/>
	<g>
		<rect y="193.416" fill="#D1D3D4" width="153.295" height="37.996"/>
		<polygon fill="#E6E7E8" points="153.295,231.412 221.453,163.254 221.584,125.127 153.295,193.416 		"/>
		<polygon fill="#F1F2F2" points="68.291,125.127 0,193.416 153.295,193.416 221.584,125.127 		"/>
		<polygon fill="#FEDD42" points="70.968,131.785 68.291,134.463 201.215,134.463 203.891,131.785 		"/>
		<polygon fill="#FEDD42" points="66.201,136.615 63.525,139.293 196.514,139.293 199.191,136.615 		"/>
		<polygon fill="#FEDD42" points="61.043,141.514 58.367,144.188 191.357,144.188 194.031,141.514 		"/>
		<polygon fill="#FEDD42" points="56.342,146.344 53.666,149.021 186.59,149.021 189.268,146.344 		"/>
		<polygon fill="#FEDD42" points="51.186,151.238 48.508,153.918 181.434,153.918 184.109,151.238 		"/>
		<polygon fill="#FEDD42" points="46.42,156.072 43.742,158.748 176.666,158.748 179.343,156.072 		"/>
		<polygon fill="#FEDD42" points="41.262,160.969 38.584,163.645 171.509,163.645 174.186,160.969 		"/>
		<polygon fill="#FEDD42" points="36.496,165.799 33.82,168.477 166.809,168.477 169.484,165.799 		"/>
		<polygon fill="#FEDD42" points="32.252,170.695 29.574,173.371 162.498,173.371 165.176,170.695 		"/>
		<polygon fill="#FEDD42" points="27.486,175.527 24.809,178.203 157.732,178.203 160.41,175.527 		"/>
		<polygon fill="#FEDD42" points="22.328,180.424 19.652,183.102 100.15,183.102 102.828,180.424 		"/>
		<g>
			
				<line fill="none" stroke="#A7A9AC" stroke-linejoin="round" stroke-miterlimit="10" x1="0" y1="201.379" x2="63.98" y2="201.379"/>
			
				<line fill="none" stroke="#A7A9AC" stroke-linejoin="round" stroke-miterlimit="10" x1="115.949" y1="212.805" x2="31.992" y2="212.805"/>
			
				<line fill="none" stroke="#A7A9AC" stroke-linejoin="round" stroke-miterlimit="10" x1="92.643" y1="223.514" x2="153.295" y2="223.514"/>
			
				<line fill="none" stroke="#A7A9AC" stroke-linejoin="round" stroke-miterlimit="10" x1="153.295" y1="223.514" x2="194.555" y2="182.186"/>
			
				<line fill="none" stroke="#A7A9AC" stroke-linejoin="round" stroke-miterlimit="10" x1="173.924" y1="193.416" x2="206.047" y2="161.295"/>
			
				<line fill="none" stroke="#A7A9AC" stroke-linejoin="round" stroke-miterlimit="10" x1="192.139" y1="164.689" x2="221.389" y2="135.508"/>
		</g>
	</g>
	<path fill="#939598" d="M105.635,186.561c1.307-0.652,2.611-1.307,3.721-2.221c0.066-0.063,1.045-0.912,1.045-0.977
		c1.045-0.98,2.023-2.092,2.939-3.201c-0.459,1.109-0.785,2.221-1.242,3.33c-0.26,0.586-0.393,1.24-0.393,1.893
		c0,0.457,0.068,0.783,0.523,0.783c1.697-0.457,3.004-1.564,4.244-2.74c0.588-0.59,1.24-1.242,1.895-1.828
		c0.129,0.064,0.26,0.26,0.324,0.391c0.262,0.393,0.523,0.586,0.98,0.654c0.457,0,0.979-0.068,1.436,0.064
		c0.523,0.197,1.045,0.328,1.568,0.521c0.326,0.133,0.585,0.197,0.912,0.262c0.588,0.066,1.371,0.066,1.895,0.133
		c1.174,0,2.35,0.063,3.525,0.063c2.938,0.064,5.939,0.195,8.879,0.195c1.566,0,2.154-0.064,3.656-0.131
		c0.588-0.064,1.109-0.064,1.697-0.127l1.764-1.242c-0.59,0.064-1.111,0.131-1.697,0.131c-1.373,0.063-2.287,0.131-3.725,0.131
		c-2.936,0.064-5.939-0.068-8.877-0.197c-1.24-0.064-2.221-0.064-3.395-0.129c-0.262,0-1.438-0.066-1.764-0.133
		c-0.326-0.064-0.588-0.129-0.914-0.26c-0.523-0.195-1.045-0.326-1.566-0.586c-0.457-0.135-0.98-0.068-1.502-0.135
		c-0.457,0-0.588-0.063-0.85-0.455c-0.064-0.066-0.26-0.326-0.324-0.391c-0.98-0.916-2.744,0.717-3.266,1.043
		c-1.045,0.916-2.023,1.895-3.068,2.809c-0.131,0.066-0.195,0.195-0.326,0.26c0-0.064,0-0.193,0-0.193
		c0-0.652,0.131-1.242,0.326-1.83c0.393-1.176,0.783-2.285,1.24-3.395c0.391-0.914,0.783-1.762,1.242-2.613
		c0.521-1.043,0.979-2.086,1.371-3.197c0.26-0.652,0.521-1.371,0.457-2.09c-0.262-1.436-2.418,0.457-2.68,1.438
		c-0.586,1.109-1.174,2.219-1.695,3.395c-0.066,0.197-0.588,1.24-0.719,1.438c-0.521,1.043-1.176,1.957-1.893,2.871
		c-1.109,1.371-2.285,2.678-3.527,3.854c-0.521,0.457-1.043,0.912-1.631,1.369c-0.131,0.131-0.588,0.393-0.459,0.326
		c0.721-0.326,2.547-1.305,1.502-0.783L105.635,186.561z M117.843,181.533C116.865,182.057,117.322,181.664,117.843,181.533
		L117.843,181.533z M114.318,184.732c-0.064,0-0.064,0.066-0.133,0.066C114.578,184.604,114.773,184.471,114.318,184.732z"/>
	<g>
		<path fill="#FEDD42" d="M50.664,52.657H15.605v-6.918l16.516-17.631c2.287-2.48,3.918-4.635,5.027-6.463s1.633-3.59,1.633-5.287
			c0-2.287-0.588-4.049-1.697-5.352c-1.176-1.309-2.809-1.963-4.896-1.963c-2.287,0-4.113,0.785-5.418,2.354
			c-1.307,1.564-1.961,3.656-1.961,6.201H14.625c0-3.135,0.718-5.941,2.221-8.555c1.5-2.545,3.59-4.566,6.266-6.07
			c2.744-1.436,5.813-2.219,9.207-2.219c5.287,0,9.336,1.24,12.273,3.787c2.938,2.545,4.373,6.07,4.373,10.707
			c0,2.545-0.652,5.09-1.959,7.703c-1.305,2.613-3.523,5.68-6.723,9.141L28.662,44.497h21.936v8.16H50.664z"/>
	</g>
	<rect x="23.244" y="75.901" fill="#FEDD42" width="157.992" height="31.598"/>
	<rect x="159.367" y="83.733" fill="#F1F2F2" width="15.93" height="15.93"/>
	<rect x="135.863" y="83.733" fill="#F1F2F2" width="15.93" height="15.93"/>
	<rect x="112.359" y="83.733" fill="#D1D3D4" width="15.93" height="15.93"/>
	<rect x="88.791" y="83.733" fill="#F1F2F2" width="15.929" height="15.93"/>
	<rect x="65.287" y="83.733" fill="#F1F2F2" width="15.931" height="15.93"/>
	<rect x="41.785" y="83.733" fill="#F1F2F2" width="15.93" height="15.93"/>
	<rect x="23.244" y="78.513" fill="#414042" width="6.396" height="0.781"/>
	<rect x="23.244" y="80.21" fill="#414042" width="6.396" height="1.109"/>
	<rect x="23.244" y="82.103" fill="#414042" width="6.396" height="0.391"/>
	<rect x="23.244" y="103.319" fill="#414042" width="6.396" height="1.109"/>
	<rect x="23.244" y="105.212" fill="#414042" width="6.396" height="0.395"/>
	<rect x="23.244" y="98.292" fill="#414042" width="6.396" height="0.783"/>
	<rect x="23.244" y="100.056" fill="#414042" width="6.396" height="1.111"/>
	<rect x="23.244" y="83.995" fill="#414042" width="6.396" height="1.109"/>
	<rect x="23.244" y="85.825" fill="#414042" width="6.396" height="1.107"/>
	<rect x="23.244" y="87.718" fill="#414042" width="6.396" height="0.391"/>
	<rect x="23.244" y="93.659" fill="#414042" width="6.396" height="1.109"/>
	<rect x="23.244" y="95.485" fill="#414042" width="6.396" height="1.109"/>
	<rect x="23.244" y="97.38" fill="#414042" width="6.396" height="0.391"/>
	<rect x="23.244" y="91.503" fill="#414042" width="6.396" height="0.393"/>
	<rect x="23.244" y="92.548" fill="#414042" width="6.396" height="0.393"/>
	<rect x="23.244" y="89.61" fill="#414042" width="6.396" height="1.109"/>
</g>
</svg>
