<?xml version="1.0" encoding="utf-8"?>
<!-- Generator: Adobe Illustrator 15.0.0, SVG Export Plug-In . SVG Version: 6.00 Build 0)  -->
<!DOCTYPE svg PUBLIC "-//W3C//DTD SVG 1.1//EN" "http://www.w3.org/Graphics/SVG/1.1/DTD/svg11.dtd">
<svg version="1.1" id="Capa_1" xmlns="http://www.w3.org/2000/svg" xmlns:xlink="http://www.w3.org/1999/xlink" x="0px" y="0px"
	 width="250px" height="250px" viewBox="25 0 250 250" enable-background="new 25 0 250 250" xml:space="preserve">
<g>
	<g>
		<path fill="#89CCB6" d="M111.964,133.545c-0.051-1.229-0.103-2.479-0.159-3.754c0.868,0.039,1.732,0.072,2.591,0.102
			c0.859,0.029,1.722,0.043,2.594,0.043c0.871,0,1.751-0.014,2.636-0.043c0.887-0.029,1.854-0.063,2.898-0.102
			c-0.058,0.291-0.088,0.578-0.088,0.869s0.031,0.58,0.088,0.869c-0.522-0.057-1.151-0.109-1.883-0.16
			c-0.734-0.047-1.481-0.084-2.244-0.115c-0.765-0.031-1.5-0.053-2.203-0.072c-0.705-0.018-1.29-0.029-1.753-0.029
			c-0.019,0.678-0.035,1.324-0.046,1.941c-0.013,0.615-0.013,1.236-0.013,1.855c0,0.678,0,1.299,0.013,1.867
			c0.012,0.57,0.019,1.164,0.019,1.785c1.272,0,2.534-0.018,3.778-0.059c1.248-0.039,2.477-0.115,3.695-0.232
			c-0.081,0.293-0.118,0.582-0.118,0.869c0,0.293,0.037,0.58,0.118,0.869c-0.483-0.059-1.032-0.1-1.639-0.131
			c-0.609-0.025-1.241-0.051-1.898-0.07c-0.657-0.018-1.323-0.029-1.999-0.029c-0.675,0-1.322,0-1.936,0v2.465
			c0,1.271,0.021,2.527,0.069,3.768c0.048,1.232,0.103,2.449,0.157,3.648c-0.441-0.039-0.918-0.057-1.418-0.057
			c-0.503,0-0.974,0.018-1.419,0.057c0.057-1.199,0.109-2.414,0.158-3.648c0.049-1.236,0.072-2.494,0.072-3.768v-4.982
			C112.036,136.021,112.013,134.771,111.964,133.545z M124.484,139.51c0.415-0.916,0.96-1.656,1.638-2.227
			c0.677-0.572,1.436-0.988,2.273-1.248c0.842-0.26,1.678-0.393,2.508-0.393c0.851,0,1.692,0.131,2.519,0.393
			c0.832,0.26,1.584,0.678,2.261,1.248s1.222,1.313,1.639,2.227c0.416,0.92,0.624,2.033,0.624,3.352
			c0,1.313-0.207,2.426-0.624,3.346c-0.417,0.916-0.962,1.66-1.639,2.232c-0.678,0.568-1.429,0.969-2.261,1.199
			c-0.826,0.232-1.67,0.346-2.519,0.346c-0.83,0-1.666-0.113-2.508-0.346c-0.838-0.232-1.597-0.635-2.273-1.199
			c-0.676-0.572-1.223-1.316-1.638-2.232c-0.414-0.92-0.62-2.031-0.62-3.346C123.866,141.543,124.071,140.43,124.484,139.51z
			 M126.632,145.203c0.146,0.754,0.391,1.426,0.739,2.018c0.349,0.586,0.811,1.057,1.388,1.402c0.582,0.352,1.295,0.521,2.146,0.521
			c0.852,0,1.564-0.17,2.144-0.521c0.578-0.346,1.043-0.816,1.393-1.402c0.345-0.592,0.592-1.264,0.739-2.018
			c0.146-0.75,0.216-1.535,0.216-2.344c0-0.813-0.07-1.592-0.216-2.346c-0.147-0.754-0.395-1.426-0.739-2.014
			c-0.349-0.588-0.814-1.059-1.393-1.406c-0.578-0.35-1.292-0.523-2.144-0.523c-0.85,0-1.563,0.174-2.145,0.523
			c-0.578,0.346-1.04,0.816-1.389,1.406c-0.349,0.588-0.594,1.26-0.739,2.014c-0.144,0.754-0.218,1.537-0.218,2.346
			C126.412,143.67,126.488,144.453,126.632,145.203z M140.455,142.699c0.03-0.725,0.044-1.443,0.044-2.16
			c0-0.676-0.003-1.406-0.015-2.201c-0.011-0.791-0.022-1.594-0.045-2.406c0.481,0.098,0.892,0.146,1.217,0.146
			c0.31,0,0.704-0.049,1.188-0.146c-0.099,1.16-0.171,2.428-0.22,3.811c-0.047,1.381-0.071,2.795-0.071,4.242
			c0,1.008,0.087,1.775,0.261,2.307s0.386,0.932,0.64,1.199c0.27,0.311,0.61,0.568,1.027,0.77c0.415,0.203,0.9,0.303,1.461,0.303
			c0.813,0,1.49-0.18,2.029-0.535c0.54-0.359,0.938-0.797,1.187-1.32c0.134-0.326,0.242-0.607,0.319-0.84
			c0.074-0.23,0.142-0.537,0.187-0.924c0.051-0.389,0.079-0.91,0.089-1.568c0.011-0.654,0.016-1.553,0.016-2.691v-2.436
			c0-0.424-0.005-0.828-0.016-1.215c-0.01-0.387-0.022-0.754-0.046-1.102c0.214,0.041,0.418,0.07,0.61,0.102
			c0.195,0.027,0.396,0.045,0.606,0.045c0.214,0,0.415-0.018,0.609-0.045c0.191-0.031,0.386-0.061,0.579-0.102
			c-0.098,1.508-0.156,2.961-0.178,4.359c-0.017,1.4-0.025,2.881-0.025,4.447c0,0.869,0.01,1.719,0.025,2.551
			c0.02,0.83,0.049,1.631,0.09,2.406c-0.389-0.039-0.768-0.057-1.129-0.057c-0.369,0-0.747,0.018-1.134,0.057
			c0.022-0.172,0.034-0.359,0.045-0.551c0.01-0.191,0.014-0.398,0.014-0.609v-1.244h-0.056c-0.503,0.926-1.15,1.607-1.941,2.039
			c-0.793,0.438-1.649,0.654-2.581,0.654c-1.504,0-2.686-0.4-3.547-1.199c-0.859-0.807-1.287-1.959-1.287-3.463
			C140.413,144.295,140.429,143.424,140.455,142.699z M163.019,138.266c-0.56-0.746-1.334-1.115-2.317-1.115
			c-1.351,0-2.341,0.414-2.969,1.244c-0.627,0.832-0.94,2-0.94,3.508v2.463c0,0.869,0.015,1.781,0.042,2.736
			c0.026,0.955,0.091,1.822,0.19,2.592c-0.444-0.039-0.879-0.057-1.303-0.057s-0.861,0.018-1.304,0.057
			c0.096-0.773,0.159-1.637,0.191-2.592c0.027-0.955,0.044-1.867,0.044-2.736v-3.012c0-0.871-0.017-1.783-0.044-2.74
			c-0.029-0.955-0.093-1.852-0.191-2.682c0.538,0.098,0.978,0.148,1.304,0.148c0.154,0,0.322-0.018,0.505-0.045
			c0.183-0.031,0.4-0.061,0.651-0.104c-0.057,0.777-0.086,1.549-0.086,2.318h0.059c0.537-0.828,1.188-1.471,1.94-1.926
			c0.755-0.453,1.657-0.68,2.705-0.68c0.54,0,1.093,0.08,1.644,0.229c0.555,0.156,1.051,0.42,1.497,0.797
			c0.444,0.379,0.809,0.889,1.091,1.535c0.281,0.648,0.421,1.477,0.421,2.48c0,0.832-0.018,1.686-0.057,2.564
			c-0.039,0.877-0.058,1.809-0.058,2.795v1.885c0,0.307,0.005,0.609,0.013,0.91c0.018,0.299,0.026,0.584,0.048,0.855
			c-0.393-0.039-0.799-0.057-1.232-0.057c-0.414,0-0.814,0.018-1.2,0.057c0.037-1.006,0.081-2.037,0.126-3.104
			c0.053-1.059,0.073-2.152,0.073-3.273v-1.768C163.858,140.105,163.582,139.01,163.019,138.266z M179.193,146.939
			c-0.151,0.313-0.359,0.646-0.621,1.002c-0.261,0.361-0.59,0.691-0.985,1.002c-0.397,0.309-0.862,0.557-1.406,0.75
			c-0.538,0.191-1.168,0.289-1.882,0.289c-0.738,0-1.455-0.125-2.16-0.375c-0.707-0.252-1.335-0.662-1.885-1.23
			c-0.547-0.574-0.995-1.303-1.335-2.205c-0.335-0.898-0.506-1.975-0.506-3.23c0-1.232,0.187-2.309,0.553-3.215
			c0.366-0.91,0.845-1.666,1.435-2.275c0.589-0.607,1.255-1.061,1.998-1.363c0.742-0.297,1.489-0.449,2.245-0.449
			c2.145,0,3.631,0.967,4.461,2.9h0.062v-2.838c0-0.736-0.002-1.475-0.015-2.215c-0.008-0.748-0.02-1.455-0.029-2.131
			c-0.008-0.678-0.021-1.313-0.027-1.914c-0.01-0.598-0.026-1.127-0.046-1.594c0.234,0.041,0.454,0.076,0.667,0.104
			c0.214,0.027,0.427,0.043,0.637,0.043c0.215,0,0.422-0.016,0.622-0.043c0.203-0.027,0.433-0.063,0.682-0.104
			c-0.056,0.619-0.104,1.514-0.145,2.682c-0.039,1.17-0.068,2.459-0.102,3.869c-0.029,1.408-0.055,2.861-0.071,4.346
			c-0.02,1.486-0.031,2.85-0.031,4.082c0,1.334,0.012,2.529,0.031,3.594c0.017,1.061,0.037,2.154,0.055,3.273
			c-0.384-0.039-0.758-0.057-1.129-0.057c-0.345,0-0.712,0.018-1.1,0.057l0.087-2.754H179.193L179.193,146.939z M171.333,145.986
			c0.237,0.756,0.548,1.359,0.923,1.813c0.376,0.455,0.809,0.766,1.288,0.941c0.484,0.172,0.956,0.262,1.42,0.262
			c0.752,0,1.399-0.189,1.941-0.564c0.539-0.377,0.991-0.869,1.35-1.477c0.353-0.607,0.611-1.299,0.781-2.07
			c0.161-0.773,0.244-1.547,0.244-2.318c0-1.855-0.358-3.271-1.071-4.246c-0.715-0.973-1.766-1.461-3.159-1.461
			c-0.693,0-1.297,0.158-1.81,0.475c-0.513,0.32-0.938,0.762-1.274,1.334c-0.338,0.57-0.589,1.234-0.753,1.998
			s-0.246,1.578-0.246,2.447C170.968,144.277,171.089,145.234,171.333,145.986z M187.403,135.994c0.735-0.232,1.487-0.35,2.261-0.35
			c0.696,0,1.336,0.102,1.912,0.303c0.581,0.205,1.079,0.494,1.489,0.873c0.41,0.373,0.731,0.826,0.969,1.359
			c0.232,0.531,0.352,1.113,0.352,1.754c0,1.1-0.017,2.197-0.059,3.287c-0.037,1.092-0.056,2.246-0.056,3.463
			c0,0.23,0.005,0.475,0.017,0.738c0.008,0.26,0.052,0.496,0.13,0.695c0.077,0.201,0.19,0.371,0.332,0.506
			c0.145,0.137,0.359,0.201,0.651,0.201c0.095,0,0.198-0.002,0.306-0.012c0.104-0.014,0.207-0.047,0.302-0.104v0.637
			c-0.212,0.098-0.48,0.178-0.796,0.234c-0.321,0.055-0.671,0.088-1.06,0.088c-0.624,0-1.103-0.16-1.44-0.48
			c-0.331-0.318-0.527-0.729-0.586-1.23c-0.692,0.693-1.376,1.207-2.048,1.535c-0.676,0.328-1.504,0.492-2.482,0.492
			c-0.483,0-0.95-0.068-1.417-0.203c-0.459-0.135-0.871-0.357-1.228-0.67c-0.354-0.305-0.643-0.678-0.864-1.111
			c-0.227-0.436-0.332-0.932-0.332-1.494c0-1.16,0.363-2.055,1.082-2.693c0.723-0.637,1.72-1.059,2.99-1.273
			c1.037-0.172,1.849-0.324,2.437-0.447c0.586-0.127,1.023-0.258,1.302-0.393c0.279-0.133,0.445-0.293,0.505-0.479
			c0.054-0.184,0.087-0.418,0.087-0.709c0-0.484-0.055-0.947-0.174-1.391c-0.115-0.445-0.296-0.83-0.548-1.16
			c-0.253-0.33-0.579-0.594-0.988-0.797c-0.405-0.201-0.898-0.303-1.476-0.303c-0.776,0-1.491,0.174-2.16,0.521
			c-0.666,0.348-1.164,0.832-1.494,1.447h-0.319v-1.508C185.87,136.668,186.669,136.225,187.403,135.994z M191.017,142.771
			c-0.434,0.08-0.869,0.158-1.312,0.244c-0.444,0.088-0.879,0.199-1.312,0.336c-0.434,0.135-0.816,0.318-1.153,0.549
			c-0.336,0.23-0.607,0.521-0.807,0.869c-0.205,0.346-0.305,0.791-0.305,1.334c0,0.906,0.26,1.592,0.779,2.059
			c0.521,0.461,1.096,0.693,1.729,0.693c0.73,0,1.401-0.203,2.002-0.607c0.608-0.406,1.071-0.877,1.402-1.422l0.114-4.344
			C191.827,142.598,191.448,142.695,191.017,142.771z M201.336,132.053c-0.063,0.736-0.104,1.453-0.132,2.158
			c-0.028,0.705-0.062,1.416-0.104,2.131c0.216,0,0.61-0.006,1.189-0.016c0.58-0.012,1.209-0.035,1.883-0.072
			c-0.018,0.055-0.027,0.162-0.027,0.318v0.291v0.318c0,0.135,0.014,0.23,0.027,0.291c-0.249-0.021-0.507-0.031-0.782-0.047
			c-0.271-0.01-0.557-0.014-0.867-0.014h-1.42c-0.018,0.078-0.045,0.389-0.073,0.928c-0.028,0.537-0.053,1.182-0.071,1.924
			c-0.017,0.748-0.036,1.523-0.046,2.334c-0.01,0.813-0.015,1.537-0.015,2.174c0,0.537,0.015,1.07,0.043,1.59
			c0.03,0.521,0.122,0.988,0.274,1.406c0.156,0.416,0.388,0.75,0.698,0.998c0.308,0.252,0.751,0.377,1.333,0.377
			c0.156,0,0.361-0.018,0.624-0.057c0.26-0.039,0.483-0.088,0.679-0.145v0.693c-0.329,0.057-0.69,0.131-1.088,0.217
			c-0.399,0.088-0.782,0.131-1.144,0.131c-1.218,0-2.113-0.299-2.694-0.898c-0.579-0.598-0.872-1.477-0.872-2.635
			c0-0.525,0.012-1.088,0.032-1.695c0.021-0.607,0.043-1.275,0.072-1.998s0.052-1.525,0.071-2.404
			c0.018-0.881,0.027-1.857,0.027-2.939h-0.928c-0.154,0-0.317,0.004-0.489,0.014c-0.176,0.014-0.358,0.023-0.551,0.045
			c0.019-0.117,0.036-0.227,0.043-0.332c0.011-0.105,0.017-0.217,0.017-0.334c0-0.094-0.006-0.193-0.017-0.291
			c-0.007-0.094-0.023-0.189-0.043-0.289c0.869,0.057,1.509,0.088,1.911,0.088c-0.017-0.387-0.036-0.871-0.042-1.449
			c-0.012-0.578-0.036-1.178-0.072-1.793l2.407-1.014L201.336,132.053L201.336,132.053L201.336,132.053z M207.147,129.85
			c0.29-0.291,0.637-0.434,1.044-0.434c0.403,0,0.75,0.145,1.041,0.434c0.288,0.291,0.435,0.639,0.435,1.043
			c0,0.402-0.15,0.754-0.435,1.043c-0.288,0.291-0.638,0.436-1.041,0.436c-0.407,0-0.754-0.146-1.044-0.436
			c-0.291-0.289-0.435-0.641-0.435-1.043C206.713,130.488,206.856,130.141,207.147,129.85z M207.074,138.613
			c-0.027-0.955-0.093-1.852-0.188-2.682c0.538,0.098,0.975,0.148,1.303,0.148c0.33,0,0.762-0.051,1.303-0.148
			c-0.101,0.83-0.16,1.725-0.188,2.682c-0.029,0.955-0.047,1.867-0.047,2.738v3.012c0,0.871,0.016,1.783,0.047,2.736
			c0.026,0.957,0.088,1.82,0.188,2.594c-0.444-0.039-0.884-0.059-1.303-0.059c-0.427,0-0.862,0.018-1.303,0.059
			c0.094-0.775,0.157-1.639,0.188-2.594c0.031-0.953,0.044-1.865,0.044-2.736v-3.012
			C207.118,140.482,207.105,139.57,207.074,138.613z M212.445,139.51c0.417-0.916,0.961-1.656,1.64-2.227
			c0.673-0.572,1.433-0.988,2.272-1.248c0.844-0.26,1.676-0.393,2.505-0.393c0.854,0,1.691,0.131,2.521,0.393
			c0.833,0.26,1.584,0.678,2.261,1.248c0.678,0.57,1.219,1.313,1.638,2.227c0.413,0.92,0.619,2.033,0.619,3.352
			c0,1.313-0.206,2.426-0.619,3.346c-0.419,0.916-0.958,1.66-1.638,2.232c-0.677,0.568-1.429,0.969-2.261,1.199
			c-0.83,0.232-1.668,0.346-2.521,0.346c-0.827,0-1.661-0.113-2.505-0.346c-0.84-0.232-1.6-0.635-2.272-1.199
			c-0.678-0.572-1.223-1.316-1.64-2.232c-0.416-0.92-0.621-2.031-0.621-3.346C211.822,141.543,212.029,140.43,212.445,139.51z
			 M214.589,145.203c0.146,0.754,0.393,1.426,0.739,2.018c0.345,0.586,0.813,1.057,1.39,1.402c0.576,0.352,1.297,0.521,2.144,0.521
			c0.852,0,1.567-0.17,2.144-0.521c0.58-0.346,1.044-0.816,1.391-1.402c0.348-0.592,0.596-1.264,0.74-2.018
			c0.145-0.75,0.218-1.535,0.218-2.344c0-0.813-0.073-1.592-0.218-2.346c-0.146-0.754-0.393-1.426-0.74-2.014
			c-0.347-0.588-0.811-1.059-1.391-1.406c-0.577-0.35-1.292-0.523-2.144-0.523c-0.85,0-1.568,0.174-2.144,0.523
			c-0.576,0.346-1.045,0.816-1.39,1.406s-0.594,1.26-0.739,2.014c-0.146,0.754-0.216,1.537-0.216,2.346
			C214.373,143.67,214.442,144.453,214.589,145.203z M236.756,138.266c-0.563-0.746-1.336-1.115-2.318-1.115
			c-1.353,0-2.342,0.414-2.969,1.244c-0.631,0.832-0.943,2-0.943,3.508v2.463c0,0.869,0.018,1.781,0.045,2.736
			c0.025,0.955,0.087,1.822,0.19,2.592c-0.444-0.039-0.879-0.057-1.305-0.057c-0.425,0-0.859,0.018-1.303,0.057
			c0.097-0.773,0.16-1.637,0.188-2.592c0.029-0.955,0.042-1.867,0.042-2.736v-3.012c0-0.871-0.013-1.783-0.042-2.74
			c-0.027-0.955-0.091-1.852-0.188-2.682c0.542,0.098,0.974,0.148,1.303,0.148c0.156,0,0.326-0.018,0.508-0.045
			c0.182-0.031,0.398-0.061,0.65-0.104c-0.055,0.777-0.088,1.549-0.088,2.318h0.058c0.542-0.828,1.191-1.471,1.946-1.926
			c0.757-0.453,1.653-0.68,2.703-0.68c0.54,0,1.088,0.08,1.638,0.229c0.554,0.156,1.058,0.42,1.501,0.797
			c0.444,0.379,0.811,0.889,1.092,1.535c0.278,0.648,0.418,1.477,0.418,2.48c0,0.832-0.017,1.686-0.055,2.564
			c-0.037,0.877-0.054,1.809-0.054,2.795v1.885c0,0.307,0.003,0.609,0.01,0.91c0.015,0.299,0.027,0.584,0.049,0.855
			c-0.393-0.039-0.803-0.057-1.232-0.057c-0.412,0-0.816,0.018-1.204,0.057c0.039-1.006,0.086-2.037,0.13-3.104
			c0.049-1.059,0.075-2.152,0.075-3.273v-1.768C237.596,140.105,237.315,139.01,236.756,138.266z M113.251,101.841
			c-3.041,0.024-5.157,0.145-6.433,0.403c0.059-0.319,0.119-0.579,0.119-1.014c0-0.464-0.058-0.724-0.119-1.014
			c1.797,0.173,5.504,0.173,7.795,0.173c2.837,0,5.909,0,7.763-0.173c-0.057,0.259-0.115,0.577-0.115,1.014
			c0,0.435,0.058,0.694,0.115,1.014c-0.898-0.174-2.694-0.379-6.168-0.403c-0.03,1.997-0.059,4.027-0.059,5.995
			c0,3.506-0.115,8.053,0.201,12.43c-0.982-0.145-1.618-0.174-1.854-0.174c-0.669,0-1.248,0.117-1.507,0.174
			c0.232-3.188,0.32-7.416,0.32-11.328C113.313,106.3,113.281,103.808,113.251,101.841z M121.56,109.662l0.116-1.881
			c0.897-0.726,2.318-1.769,4.692-1.769c1.134,0,2.727,0.229,3.885,1.302c0.669,0.639,1.187,1.479,1.187,3.247
			c0,0.838-0.115,4.461-0.115,5.214c0,2.55,0,3.389,1.075,3.389c0.347,0,0.576-0.086,0.723-0.146l0.027,0.813
			c-0.633,0.321-1.273,0.636-2.085,0.636c-0.956,0-1.883-0.578-2.201-1.883c-0.9,0.931-2.116,2.03-4.378,2.03
			c-2.983,0-3.997-2.258-3.997-3.854c0-3.071,2.461-3.621,4.81-4.144l2.522-0.549c0.81-0.204,1.07-0.578,1.07-1.392
			c0-1.971-1.364-3.158-3.247-3.158c-2.404,0-3.042,1.537-3.302,2.144h-0.783v-0.001H121.56z M128.831,113.023
			c-4.981,0.754-5.531,1.941-5.531,3.507c0,1.882,1.448,2.432,2.46,2.432c1.476,0,3.07-1.161,3.07-2.754V113.023z M143.054,108.88
			c-0.378-0.202-0.728-0.376-1.508-0.376c-1.652,0-2.553,1.1-2.839,1.649c-0.406,0.897-0.466,1.535-0.466,5.1
			c0,0.289,0,1.276,0.03,1.883c0.116,2.03,0.116,2.232,0.146,3.129c-0.434-0.114-0.813-0.173-1.565-0.173
			c-0.695,0-1.016,0.059-1.452,0.173c0.205-1.883,0.321-2.865,0.321-7.386c0-3.275-0.116-4.869-0.229-6.753
			c0.434,0.115,0.84,0.173,1.476,0.173c0.64,0,1.016-0.058,1.479-0.173c-0.234,1.593-0.234,2.752-0.234,3.274
			c0.495-1.159,1.856-3.652,5.246-3.36c-0.119,0.434-0.263,1.015-0.263,1.884c0,0.173,0,0.348,0.061,0.813L143.054,108.88z
			 M150.667,105.984c0.667,0,1.276,0.028,1.941,0.145c1.538,0.262,1.884,0.292,3.013,0.292c0.93,0,1.218,0,2.634-0.119
			c-0.024,0.233-0.083,0.492-0.083,0.724c0,0.26,0.056,0.493,0.083,0.755c-0.749-0.06-1.851-0.06-2.661-0.06
			c0.695,0.607,1.216,1.537,1.216,2.783c0,3.069-2.52,4.75-5.82,4.75c-0.322,0-1.973-0.113-2.03-0.113
			c-0.839,0-1.273,0.693-1.273,1.391c0,0.781,0.201,1.534,3.388,1.534c0.318,0,1.769-0.029,2.062-0.029
			c2.46,0.056,3.327,0.58,3.937,1.13c0.727,0.64,1.163,1.59,1.163,2.724c0,2.085-1.538,6.229-7.651,6.229
			c-4.667,0-6.143-2.406-6.143-4.317c0-2.667,2.575-3.563,3.185-3.797c-1.884-0.52-2.142-1.621-2.142-2.402
			c0-1.942,1.851-2.726,2.345-2.839c-1.998-0.753-2.811-2.289-2.811-4.057C145.018,107.634,147.568,105.984,150.667,105.984z
			 M155.826,123.278c0-2.693-2.871-3.128-4.697-3.128c-0.693,0-4.52,0-4.52,3.331c0,2.146,1.857,3.448,4.58,3.448
			C154.202,126.93,155.826,125.22,155.826,123.278z M154.059,110.443c0-2.519-1.622-3.479-3.13-3.479
			c-2.897,0-3.16,2.727-3.16,3.826c0,2.432,1.362,3.48,3.016,3.48C153.419,114.271,154.059,112.037,154.059,110.443z
			 M162.911,113.224c0,0.814,0,2.464,0.783,3.797c1.335,2.174,3.212,2.261,4.055,2.261c2.841,0,4.175-1.737,4.604-2.345l0.348,0.086
			c-0.174,0.813-0.174,1.276-0.2,1.74c-1.277,1.217-3.041,1.882-5.391,1.882c-4.402,0-7.099-2.783-7.099-7.242
			c0-3.997,2.203-7.357,6.953-7.357c6.462,0,6.372,5.62,6.346,7.183H162.91L162.911,113.224L162.911,113.224z M170.416,112.01
			c0-0.956,0-4.81-3.477-4.81c-2.522,0-3.74,1.91-3.999,4.81H170.416z M177.779,107.78c-0.929,0-1.102,0.026-2.317,0.116
			c0.027-0.205,0.059-0.407,0.059-0.725c0-0.292-0.031-0.495-0.059-0.727c0.229,0.03,0.55,0.058,0.924,0.089
			c0.38,0.029,0.84,0.057,1.394,0.057c0-1.017,0-1.709-0.059-3.215c0.813-0.146,2.404-1.016,2.957-1.335
			c-0.149,2.403-0.149,2.636-0.208,4.549c1.076,0,2.146-0.057,3.13-0.146c-0.026,0.231-0.055,0.406-0.055,0.726
			c0,0.317,0.028,0.492,0.055,0.694c-0.722-0.027-1.939-0.086-3.13-0.086c-0.114,2.638-0.144,5.301-0.144,7.937
			c0,2.347,0.375,3.619,2.027,3.619c0.262,0,0.958-0.115,1.333-0.172c-0.053,0.32-0.053,0.435,0,0.813
			c-0.664,0.376-1.791,0.552-2.457,0.552c-1.651,0-2.609-0.901-3.103-1.739c-0.229-0.405-0.403-0.898-0.403-2.727
			c0-0.465,0-0.984,0.057-3.707L177.779,107.78L177.779,107.78z M204.139,116.384c-0.146,0.668-0.263,1.276-0.321,2.346
			c-2.144,1.273-4.635,1.883-7.184,1.883c-6.721,0-10.635-4.404-10.635-10.372c0-5.59,3.478-10.227,11.102-10.227
			c3.504,0,5.85,0.957,7.151,1.538c-0.435,1.186-0.55,1.563-0.694,2.896h-0.291c-0.782-1.649-3.333-3.185-6.287-3.185
			c-4.575,0-7.62,3.359-7.62,8.952c0,6.025,3.737,9.011,7.854,9.011c1.303,0,4.313-0.29,6.574-2.982L204.139,116.384z
			 M207.396,109.662l0.113-1.881c0.9-0.726,2.318-1.769,4.694-1.769c1.13,0,2.727,0.229,3.884,1.302
			c0.667,0.639,1.188,1.479,1.188,3.247c0,0.838-0.113,4.461-0.113,5.214c0,2.55,0,3.389,1.069,3.389
			c0.348,0,0.581-0.086,0.724-0.146l0.028,0.813c-0.637,0.321-1.271,0.636-2.089,0.636c-0.955,0-1.881-0.578-2.204-1.883
			c-0.893,0.931-2.114,2.03-4.375,2.03c-2.985,0-3.996-2.258-3.996-3.854c0-3.071,2.461-3.621,4.809-4.144l2.52-0.549
			c0.81-0.204,1.071-0.578,1.071-1.392c0-1.971-1.36-3.158-3.244-3.158c-2.406,0-3.045,1.537-3.304,2.144h-0.78v-0.001H207.396
			L207.396,109.662z M214.667,113.023c-4.982,0.754-5.533,1.941-5.533,3.507c0,1.882,1.446,2.432,2.462,2.432
			c1.479,0,3.071-1.161,3.071-2.754V113.023L214.667,113.023z M221.378,106.128c0.521,0.087,0.9,0.172,1.45,0.172
			s0.924-0.086,1.419-0.172c-0.029,0.435-0.121,2.345-0.148,2.752c0.754-1.363,2.345-2.839,5.099-2.839
			c4.751,0,4.983,3.389,4.983,5.041c0,0.29-0.119,5.187-0.119,6.172c0,0.548,0.031,2.578,0.09,3.011
			c-0.403-0.114-0.754-0.173-1.479-0.173c-0.75,0-1.096,0.059-1.535,0.173c0.261-3.099,0.261-6.286,0.261-6.81
			c0-2.896-0.144-5.648-3.357-5.648c-1.537,0-2.754,0.697-3.447,1.999c-0.524,1.014-0.524,4.287-0.524,5.648
			c0,2.26,0.145,3.738,0.232,4.809c-0.405-0.086-0.869-0.173-1.536-0.173c-0.666,0-1.101,0.087-1.536,0.173
			c0.146-1.767,0.289-3.621,0.289-7.966C221.522,110.387,221.438,108.155,221.378,106.128z M248.954,117.833
			c-0.259,0.782-0.288,1.272-0.317,1.683c-0.869,0.577-2.379,1.128-4.288,1.128c-5.503,0-7.681-3.623-7.681-7.302
			c0-4.432,2.869-7.358,7.649-7.358c1.711,0,3.333,0.317,4.778,1.159c-0.43,1.102-0.545,1.911-0.633,2.461h-0.35
			c-0.839-2.145-2.49-2.406-3.534-2.406c-3.214,0-4.896,2.289-4.896,5.91c0,5.332,3.387,6.203,5.07,6.203
			c1.189,0,2.896-0.437,3.941-1.567L248.954,117.833z M254.107,113.224c0,0.814,0,2.464,0.782,3.797
			c1.331,2.174,3.219,2.261,4.055,2.261c2.841,0,4.173-1.737,4.606-2.345l0.349,0.086c-0.173,0.813-0.173,1.276-0.202,1.74
			c-1.273,1.217-3.041,1.882-5.389,1.882c-4.403,0-7.1-2.783-7.1-7.242c0-3.997,2.2-7.357,6.953-7.357
			c6.461,0,6.373,5.62,6.348,7.183h-10.402V113.224z M261.612,112.01c0-0.956,0-4.81-3.481-4.81c-2.52,0-3.733,1.91-3.997,4.81
			H261.612z M274.594,108.88c-0.376-0.202-0.728-0.376-1.509-0.376c-1.648,0-2.55,1.1-2.838,1.649
			c-0.407,0.897-0.464,1.535-0.464,5.1c0,0.289,0,1.276,0.025,1.883c0.119,2.03,0.119,2.232,0.15,3.129
			c-0.437-0.114-0.814-0.173-1.566-0.173c-0.696,0-1.016,0.059-1.451,0.173c0.203-1.883,0.32-2.865,0.32-7.386
			c0-3.275-0.117-4.869-0.229-6.753c0.432,0.115,0.837,0.173,1.476,0.173c0.641,0,1.016-0.058,1.476-0.173
			c-0.229,1.593-0.229,2.752-0.229,3.274c0.493-1.159,1.858-3.652,5.246-3.36c-0.118,0.434-0.261,1.015-0.261,1.884
			c0,0.173,0,0.348,0.055,0.813L274.594,108.88z M80.91,136.732l-1.622,2.113l-8.56-11.838l13.627,5.238l-1.649,2.146l8.119,6.232
			c3.046-5.771,4.772-11.838,5.246-17.754l-11.384,1.525l0.352,2.635l-13.721-2.409l12.63-5.835l0.355,2.683l11.892-1.564
			c0.075-7.796-2.02-15.175-6.096-21.063l-10.237,13.396l2.11,1.618l-11.83,8.576l5.232-13.641l2.146,1.648l10.738-13.995
			c-2.245-2.647-4.951-4.912-8.094-6.658c-4.862-2.699-10.215-3.861-15.624-3.667l2.989,22.347l2.634-0.348l-2.414,13.691
			l-5.833-12.604l2.688-0.356l-2.964-22.503c-8.794,1.096-17.519,5.712-24.331,13.131l18.075,13.808l1.619-2.11l8.564,11.82
			l-13.628-5.219l1.647-2.15l-18.177-13.949c-1.678,2.076-3.211,4.34-4.565,6.782c-3.728,6.699-5.626,13.846-5.846,20.706
			l26.631-3.561l-0.348-2.637l13.673,2.413l-12.59,5.835l-0.353-2.688l-26.996,3.555c0.437,11.4,5.597,21.691,14.793,27.404
			l16.599-21.721l-2.11-1.621l11.825-8.52l-5.226,13.582l-2.148-1.648l-16.379,21.344c8.996,4.402,19.485,3.803,28.85-0.816
			l-2.485-18.555l-2.634,0.348l2.411-13.688l5.839,12.598l-2.686,0.355l2.295,17.451c5.982-3.543,11.364-8.768,15.405-15.396
			L80.91,136.732z"/>
	</g>
	<rect x="25" fill="none" width="249.999" height="250"/>
</g>
</svg>
