<?xml version="1.0" encoding="utf-8"?>
<!-- Generator: Adobe Illustrator 15.0.0, SVG Export Plug-In . SVG Version: 6.00 Build 0)  -->
<!DOCTYPE svg PUBLIC "-//W3C//DTD SVG 1.1//EN" "http://www.w3.org/Graphics/SVG/1.1/DTD/svg11.dtd">
<svg version="1.1" id="Capa_1" xmlns="http://www.w3.org/2000/svg" xmlns:xlink="http://www.w3.org/1999/xlink" x="0px" y="0px"
	 width="100.405px" height="125.694px" viewBox="0 0 100.405 125.694" enable-background="new 0 0 100.405 125.694"
	 xml:space="preserve">
<g>
	<path fill="#FFDE3F" d="M46.232,117.11c0.389,5.192,2.037,8.584,4.014,8.584c1.975,0,3.623-3.392,4.014-8.584
		c-1.32,0.14-2.66,0.216-4.014,0.216S47.555,117.25,46.232,117.11z"/>
	<path fill="#FFDE3F" d="M50.246,27.539c4.51,0,8.85,0.802,12.914,2.264c0.711-3.182,1.121-6.551,1.121-9.912
		C64.281,6.441,57.998,0,50.248,0c-7.754,0-14.035,6.441-14.035,19.891c0,3.361,0.41,6.73,1.119,9.912
		C41.398,28.342,45.736,27.539,50.246,27.539z"/>
	<path fill="#FFDE3F" d="M75.475,70.388h11.531c-0.58-12.737-6.557-23.931-15.457-30.896L64.592,51.54L75.475,70.388z"/>
	<path fill="#FFDE3F" d="M99.773,41.21c-2.506-4.34-11.922-3.672-19.783,0.149c4.246,4.808,7.518,10.635,9.471,17.111
		C96.852,53.59,102.313,45.609,99.773,41.21z"/>
	<path fill="#FFDE3F" d="M9.939,86.198c-6.676,6.675-10.629,16.867-6.781,20.715c3.203,3.202,10.789,0.984,17.094-3.693
		c-4.33-4.99-7.625-11.051-9.5-17.779C10.48,85.689,10.211,85.929,9.939,86.198z"/>
	<polygon fill="#FFDE3F" points="39.398,53.414 28.377,72.42 39.287,91.319 61.088,91.362 72.107,72.36 61.168,53.414 	"/>
	<path fill="#FFDE3F" d="M11.016,58.521c1.949-6.483,5.219-12.318,9.462-17.133c-7.872-3.848-17.333-4.531-19.847-0.179
		C-1.916,45.625,3.59,53.645,11.016,58.521z"/>
	<path fill="#FFDE3F" d="M75.502,74.291l-10.92,18.828l7.041,12.196c8.902-7.004,14.859-18.247,15.389-31.024H75.502z"/>
	<path fill="#FFDE3F" d="M24.912,74.292l-11.469-0.001c0.531,12.833,6.537,24.118,15.504,31.114l6.963-12.062L24.912,74.292z"/>
	<path fill="#FFDE3F" d="M61.258,49.51l7.082-12.266c-5.348-3.331-11.52-5.243-18.094-5.243c-6.523,0-12.65,1.882-17.969,5.165
		l7.127,12.344H61.258z"/>
	<path fill="#FFDE3F" d="M39.332,95.224l-7.174,12.426c5.338,3.313,11.494,5.215,18.049,5.215c6.606,0,12.807-1.931,18.172-5.292
		l-7.105-12.307L39.332,95.224z"/>
	<path fill="#FFDE3F" d="M25.043,70.388l10.977-18.93l-6.959-12.056c-8.965,6.958-14.99,18.194-15.574,30.985H25.043z"/>
	<path fill="#FFDE3F" d="M89.768,85.345c-1.865,6.737-5.148,12.809-9.471,17.811c6.311,4.69,13.912,6.919,17.119,3.712
		c3.848-3.847-0.107-14.04-6.783-20.715C90.346,85.864,90.057,85.608,89.768,85.345z"/>
</g>
</svg>
