<?xml version="1.0" encoding="utf-8"?>
<!-- Generator: Adobe Illustrator 18.1.1, SVG Export Plug-In . SVG Version: 6.00 Build 0)  -->
<svg version="1.1" id="Layer_1" xmlns="http://www.w3.org/2000/svg" xmlns:xlink="http://www.w3.org/1999/xlink" x="0px" y="0px"
	 viewBox="0 0 142.3 48.6" enable-background="new 0 0 142.3 48.6" xml:space="preserve">
<polygon fill="#717073" points="51.1,26.7 51.1,34.8 46.2,34.8 46.2,26.7 40.3,15.1 45.5,15.1 48.6,22.1 51.7,15.1 57,15.1 "/>
<g>
	<defs>
		<rect id="SVGID_1_" x="-4.2" y="-3.9" width="151.8" height="57.1"/>
	</defs>
	<clipPath id="SVGID_2_">
		<use xlink:href="#SVGID_1_"  overflow="visible"/>
	</clipPath>
	<path clip-path="url(#SVGID_2_)" fill="#717073" d="M62.4,34.9c-3,0-5.5-0.6-7.5-2.6l3.1-3.1c1,1,2.8,1.4,4.4,1.4
		c1.9,0,2.8-0.6,2.8-1.8c0-0.5-0.1-0.9-0.4-1.2c-0.2-0.2-0.7-0.4-1.3-0.5l-2.4-0.3c-1.7-0.2-3.1-0.8-4-1.7c-0.9-0.9-1.4-2.3-1.4-4
		c0-3.6,2.7-6.2,7.2-6.2c2.8,0,5,0.7,6.6,2.4l-3,3c-1.2-1.2-2.9-1.2-3.7-1.2c-1.7,0-2.4,1-2.4,1.8c0,0.2,0.1,0.6,0.4,0.9
		c0.2,0.2,0.7,0.5,1.4,0.6l2.4,0.3c1.8,0.2,3,0.8,3.9,1.6c1.1,1,1.5,2.5,1.5,4.3C70,32.7,66.6,34.9,62.4,34.9"/>
	<path clip-path="url(#SVGID_2_)" fill="#717073" d="M78.4,34.9c-2.3,0-4-0.8-5.5-2.2c-2.1-2.1-2-4.8-2-7.8c0-3-0.1-5.7,2-7.8
		c1.4-1.4,3.2-2.2,5.5-2.2c3.7,0,6.8,2.1,7.5,6.4h-4.9c-0.3-1.1-0.9-2.1-2.5-2.1c-0.9,0-1.5,0.4-1.9,0.8c-0.4,0.6-0.7,1.3-0.7,4.9
		c0,3.6,0.3,4.3,0.7,4.9c0.4,0.5,1,0.8,1.9,0.8c1.6,0,2.2-1,2.5-2.1h4.9C85.2,32.9,82.1,34.9,78.4,34.9"/>
	<polygon clip-path="url(#SVGID_2_)" fill="#717073" points="91.7,24 91.3,24 91.3,22 89.9,19.2 90.3,19.2 91.5,21.6 92.7,19.2 
		93.1,19.2 91.7,22 	"/>
	<path clip-path="url(#SVGID_2_)" fill="#717073" d="M96.5,23.5c-0.3,0.3-0.7,0.5-1.2,0.5c-0.5,0-0.9-0.2-1.2-0.5
		c-0.4-0.4-0.4-0.9-0.4-1.9c0-1.1,0-1.5,0.4-1.9c0.3-0.3,0.7-0.5,1.2-0.5c0.5,0,0.9,0.2,1.2,0.5c0.4,0.4,0.4,0.9,0.4,1.9
		C96.9,22.7,96.9,23.1,96.5,23.5 M96.2,19.9c-0.2-0.2-0.6-0.4-0.9-0.4c-0.3,0-0.7,0.1-0.9,0.4C94,20.2,94,20.6,94,21.6
		c0,1,0,1.4,0.4,1.7c0.2,0.2,0.6,0.4,0.9,0.4c0.3,0,0.7-0.1,0.9-0.4c0.3-0.3,0.4-0.7,0.4-1.7C96.6,20.6,96.5,20.2,96.2,19.9"/>
	<path clip-path="url(#SVGID_2_)" fill="#717073" d="M99.8,24c-1,0-1.6-0.7-1.6-1.6v-3.2h0.4v3.2c0,0.8,0.5,1.3,1.3,1.3
		c0.8,0,1.3-0.5,1.3-1.3v-3.2h0.4v3.2C101.4,23.4,100.7,24,99.8,24"/>
	<polygon clip-path="url(#SVGID_2_)" fill="#717073" points="103.2,19.9 103.2,24 102.8,24 102.8,19.2 103.2,19.2 105.9,23.4 
		105.9,19.2 106.3,19.2 106.3,24 105.9,24 	"/>
	<path clip-path="url(#SVGID_2_)" fill="#717073" d="M110.4,23.5c-0.3,0.3-0.8,0.5-1.2,0.5c-0.5,0-0.9-0.2-1.2-0.5
		c-0.4-0.4-0.4-0.9-0.4-1.9c0-1.1,0-1.5,0.4-1.9c0.3-0.3,0.7-0.5,1.2-0.5c0.8,0,1.5,0.6,1.6,1.4h-0.4c-0.1-0.7-0.6-1.1-1.3-1.1
		c-0.3,0-0.7,0.1-0.9,0.4c-0.3,0.3-0.4,0.7-0.4,1.7c0,1,0,1.4,0.4,1.7c0.2,0.2,0.6,0.4,0.9,0.4c0.4,0,0.7-0.2,1-0.5
		c0.2-0.3,0.3-0.5,0.3-0.9v-0.4h-1.3v-0.3h1.6v0.8C110.8,22.8,110.7,23.2,110.4,23.5"/>
	<path clip-path="url(#SVGID_2_)" fill="#717073" d="M115,24c-0.7,0-1.1-0.2-1.6-0.6l0.3-0.3c0.4,0.4,0.8,0.6,1.4,0.6
		c0.8,0,1.2-0.4,1.2-1c0-0.3-0.1-0.5-0.3-0.7c-0.2-0.1-0.3-0.2-0.7-0.3l-0.6-0.1c-0.4-0.1-0.6-0.2-0.8-0.3c-0.2-0.2-0.4-0.5-0.4-0.9
		c0-0.8,0.6-1.3,1.5-1.3c0.6,0,1,0.2,1.4,0.5l-0.2,0.2c-0.3-0.3-0.6-0.4-1.2-0.4c-0.7,0-1.1,0.4-1.1,1c0,0.3,0.1,0.5,0.2,0.6
		c0.2,0.1,0.4,0.2,0.7,0.3l0.5,0.1c0.4,0.1,0.7,0.1,0.8,0.3c0.3,0.2,0.4,0.5,0.4,0.9C116.6,23.5,116,24,115,24"/>
	<path clip-path="url(#SVGID_2_)" fill="#717073" d="M119.3,24c-1,0-1.6-0.7-1.6-1.6v-3.2h0.4v3.2c0,0.8,0.5,1.3,1.3,1.3
		c0.8,0,1.3-0.5,1.3-1.3v-3.2h0.4v3.2C120.9,23.4,120.2,24,119.3,24"/>
	<path clip-path="url(#SVGID_2_)" fill="#717073" d="M124,21.8h-1.3V24h-0.4v-4.8h1.8c0.8,0,1.4,0.4,1.4,1.3c0,0.7-0.4,1.2-1.1,1.3
		l1.1,2.2h-0.4L124,21.8z M124.1,19.6h-1.4v1.9h1.4c0.6,0,1-0.3,1-1C125.1,19.9,124.7,19.6,124.1,19.6"/>
	<polygon clip-path="url(#SVGID_2_)" fill="#717073" points="127.6,24 126,19.2 126.4,19.2 127.7,23.4 129.1,19.2 129.4,19.2 
		127.9,24 	"/>
	<rect x="130.2" y="19.2" clip-path="url(#SVGID_2_)" fill="#717073" width="0.4" height="4.8"/>
	<polygon clip-path="url(#SVGID_2_)" fill="#717073" points="133,24 131.4,19.2 131.8,19.2 133.1,23.4 134.5,19.2 134.8,19.2 
		133.3,24 	"/>
	<path clip-path="url(#SVGID_2_)" fill="#717073" d="M137.8,22.8h-2.2l-0.4,1.2h-0.4l1.8-4.8h0.3l1.8,4.8h-0.4L137.8,22.8z
		 M135.7,22.5h2l-1-2.8L135.7,22.5z"/>
	<polygon clip-path="url(#SVGID_2_)" fill="#717073" points="139.4,19.2 139.8,19.2 139.8,23.7 142.3,23.7 142.3,24 139.4,24 	"/>
	<path clip-path="url(#SVGID_2_)" fill="#717073" d="M92,30.9c-0.5,0-0.9-0.2-1.2-0.5c-0.4-0.4-0.4-0.9-0.4-1.9c0-1.1,0-1.5,0.4-1.9
		c0.3-0.3,0.7-0.5,1.2-0.5c0.9,0,1.5,0.5,1.6,1.4h-0.4c-0.1-0.7-0.6-1.1-1.2-1.1c-0.3,0-0.7,0.1-0.9,0.4c-0.3,0.3-0.4,0.7-0.4,1.7
		c0,1,0,1.4,0.4,1.7c0.2,0.2,0.6,0.4,0.9,0.4c0.6,0,1.1-0.4,1.3-1.1h0.4C93.5,30.4,92.9,30.9,92,30.9"/>
	<path clip-path="url(#SVGID_2_)" fill="#717073" d="M97.5,30.4c-0.3,0.3-0.7,0.5-1.2,0.5c-0.5,0-0.9-0.2-1.2-0.5
		c-0.4-0.4-0.4-0.9-0.4-1.9c0-1.1,0-1.5,0.4-1.9c0.3-0.3,0.7-0.5,1.2-0.5c0.5,0,0.9,0.2,1.2,0.5C98,27,98,27.4,98,28.5
		C98,29.6,98,30,97.5,30.4 M97.2,26.8c-0.2-0.2-0.6-0.4-0.9-0.4c-0.3,0-0.7,0.1-0.9,0.4c-0.3,0.3-0.4,0.7-0.4,1.7c0,1,0,1.4,0.4,1.7
		c0.2,0.2,0.6,0.4,0.9,0.4c0.3,0,0.7-0.1,0.9-0.4c0.3-0.3,0.4-0.7,0.4-1.7C97.6,27.5,97.6,27.1,97.2,26.8"/>
	<path clip-path="url(#SVGID_2_)" fill="#717073" d="M101.6,29.7h-2.2l-0.4,1.2h-0.4l1.8-4.8h0.3l1.8,4.8H102L101.6,29.7z
		 M99.5,29.4h2l-1-2.8L99.5,29.4z"/>
	<polygon clip-path="url(#SVGID_2_)" fill="#717073" points="103.2,26.1 103.6,26.1 103.6,30.6 106.1,30.6 106.1,30.9 103.2,30.9 	
		"/>
	<rect x="107" y="26.1" clip-path="url(#SVGID_2_)" fill="#717073" width="0.4" height="4.8"/>
	<polygon clip-path="url(#SVGID_2_)" fill="#717073" points="110.1,30.9 109.7,30.9 109.7,26.4 108.3,26.4 108.3,26.1 111.5,26.1 
		111.5,26.4 110.1,26.4 	"/>
	<rect x="112.5" y="26.1" clip-path="url(#SVGID_2_)" fill="#717073" width="0.4" height="4.8"/>
	<path clip-path="url(#SVGID_2_)" fill="#717073" d="M116.9,30.4c-0.3,0.3-0.7,0.5-1.2,0.5c-0.5,0-0.9-0.2-1.2-0.5
		c-0.4-0.4-0.4-0.9-0.4-1.9c0-1.1,0-1.5,0.4-1.9c0.3-0.3,0.7-0.5,1.2-0.5c0.5,0,0.9,0.2,1.2,0.5c0.4,0.4,0.4,0.9,0.4,1.9
		C117.4,29.6,117.4,30,116.9,30.4 M116.6,26.8c-0.2-0.2-0.6-0.4-0.9-0.4c-0.3,0-0.7,0.1-0.9,0.4c-0.3,0.3-0.4,0.7-0.4,1.7
		c0,1,0,1.4,0.4,1.7c0.2,0.2,0.6,0.4,0.9,0.4c0.3,0,0.7-0.1,0.9-0.4c0.3-0.3,0.4-0.7,0.4-1.7C117,27.5,117,27.1,116.6,26.8"/>
	<polygon clip-path="url(#SVGID_2_)" fill="#717073" points="119,26.7 119,30.9 118.7,30.9 118.7,26.1 119,26.1 121.8,30.2 
		121.8,26.1 122.1,26.1 122.1,30.9 121.8,30.9 	"/>
	<path clip-path="url(#SVGID_2_)" fill="#C1D72F" d="M5.1,48.6c2.8,0,5.1-2.3,5.1-5.1s-2.3-5.1-5.1-5.1c-2.8,0-5.1,2.3-5.1,5.1
		S2.3,48.6,5.1,48.6"/>
	<path clip-path="url(#SVGID_2_)" fill="#EC008C" d="M12.2,40.5c2.6,0,4.7-2.1,4.7-4.7c0-2.6-2.1-4.7-4.7-4.7
		c-2.6,0-4.7,2.1-4.7,4.7C7.5,38.4,9.6,40.5,12.2,40.5"/>
	<path clip-path="url(#SVGID_2_)" fill="#EC008C" d="M17.9,32.3c2.4,0,4.3-1.9,4.3-4.3c0-2.4-1.9-4.3-4.3-4.3
		c-2.4,0-4.3,1.9-4.3,4.3C13.6,30.4,15.5,32.3,17.9,32.3"/>
	<path clip-path="url(#SVGID_2_)" fill="#EC008C" d="M22.2,24.5c2.1,0,3.9-1.7,3.9-3.9c0-2.1-1.7-3.9-3.9-3.9
		c-2.1,0-3.9,1.7-3.9,3.9C18.3,22.7,20.1,24.5,22.2,24.5"/>
	<path clip-path="url(#SVGID_2_)" fill="#EC008C" d="M25,16.8c2.1,0,3.8-1.7,3.8-3.8c0-2.1-1.7-3.8-3.8-3.8c-2.1,0-3.8,1.7-3.8,3.8
		C21.2,15.1,22.9,16.8,25,16.8"/>
	<path clip-path="url(#SVGID_2_)" fill="#EC008C" d="M22.8,9c2,0,3.6-1.6,3.6-3.6c0-2-1.6-3.6-3.6-3.6c-2,0-3.6,1.6-3.6,3.6
		C19.2,7.4,20.8,9,22.8,9"/>
	<path clip-path="url(#SVGID_2_)" fill="#EC008C" d="M15.6,6.9c1.9,0,3.4-1.5,3.4-3.4c0-1.9-1.5-3.4-3.4-3.4c-1.9,0-3.4,1.5-3.4,3.4
		C12.2,5.4,13.7,6.9,15.6,6.9"/>
	<path clip-path="url(#SVGID_2_)" fill="#EC008C" d="M11.4,13.3c2,0,3.6-1.6,3.6-3.6c0-2-1.6-3.6-3.6-3.6c-2,0-3.6,1.6-3.6,3.6
		C7.8,11.7,9.4,13.3,11.4,13.3"/>
	<path clip-path="url(#SVGID_2_)" fill="#EC008C" d="M14.9,20.6c2.1,0,3.8-1.7,3.8-3.8c0-2.1-1.7-3.8-3.8-3.8
		c-2.1,0-3.8,1.7-3.8,3.8C11.1,18.8,12.8,20.6,14.9,20.6"/>
	<path clip-path="url(#SVGID_2_)" fill="#EC008C" d="M28.5,28.7c1.9,0,3.5-1.6,3.5-3.5c0-1.9-1.6-3.5-3.5-3.5
		c-1.9,0-3.5,1.6-3.5,3.5C25,27.2,26.6,28.7,28.5,28.7"/>
	<path clip-path="url(#SVGID_2_)" fill="#EC008C" d="M34.1,32.3c1.6,0,3-1.3,3-3c0-1.6-1.3-3-3-3c-1.6,0-3,1.3-3,3
		C31.1,31,32.4,32.3,34.1,32.3"/>
	<path clip-path="url(#SVGID_2_)" fill="#EC008C" d="M39.5,35.2c1.6,0,2.8-1.3,2.8-2.8c0-1.6-1.3-2.8-2.8-2.8
		c-1.6,0-2.8,1.3-2.8,2.8C36.7,34,38,35.2,39.5,35.2"/>
	<rect x="87.6" y="15.1" clip-path="url(#SVGID_2_)" fill="#C1D72F" width="0.6" height="19.7"/>
	<path clip-path="url(#SVGID_2_)" fill="#717073" d="M49,37.9l-0.5-0.1v-0.2c0.1,0,0.4,0,0.7,0c0.3,0,0.5,0,0.7,0v0.2l-0.5,0.1
		l-1.1,1.7c0,0.7,0,1.5,0,1.6l0.5,0v0.2c-0.1,0-0.5,0-0.9,0c-0.3,0-0.7,0-0.9,0v-0.2l0.5,0c0-0.2,0-0.9,0-1.6c0,0-1.1-1.8-1.1-1.8
		L46,37.8v-0.2c0.1,0,0.5,0,0.7,0c0.3,0,0.7,0,0.9,0v0.2l-0.5,0.1l0.9,1.4L49,37.9z"/>
	<path clip-path="url(#SVGID_2_)" fill="#717073" d="M49.4,40.3c0-0.7,0.6-1.2,1.2-1.2c0.7,0,1.2,0.5,1.2,1.2c0,0.7-0.6,1.3-1.2,1.3
		C50,41.5,49.4,41,49.4,40.3 M51.3,40.3c0-0.6-0.3-1.1-0.7-1.1c-0.5,0-0.7,0.3-0.7,1c0,0.6,0.3,1,0.7,1
		C51.1,41.3,51.3,40.9,51.3,40.3"/>
	<path clip-path="url(#SVGID_2_)" fill="#717073" d="M53.9,39.8c0-0.2,0-0.4,0-0.4l-0.4,0v-0.2c0,0,0.4,0,0.6,0l0.2,0v1.7
		c0,0.2,0,0.4,0,0.4l0.3,0v0.2L54,41.5h-0.1l0-0.4c-0.2,0.3-0.5,0.5-0.7,0.5c-0.4,0-0.7-0.2-0.7-0.6v-1.2c0-0.2,0-0.4,0-0.4l-0.3,0
		v-0.2c0,0,0.4,0,0.6,0l0.2,0v1.7c0,0.3,0.2,0.4,0.4,0.4c0.3,0,0.4-0.2,0.6-0.4V39.8z"/>
	<path clip-path="url(#SVGID_2_)" fill="#717073" d="M56.6,39.1c0.4,0,0.6,0.2,0.6,0.6v1.2c0,0.2,0,0.4,0,0.4l0.3,0v0.2
		c-0.1,0-0.3,0-0.6,0c-0.2,0-0.4,0-0.6,0v-0.2l0.3,0c0,0,0-0.2,0-0.4v-0.9c0-0.4-0.2-0.5-0.4-0.5c-0.2,0-0.4,0.2-0.5,0.4v1.1
		c0,0.2,0,0.4,0,0.4l0.3,0v0.2c-0.1,0-0.3,0-0.6,0c-0.2,0-0.4,0-0.6,0v-0.2l0.3,0c0,0,0-0.2,0-0.4v-1.3L55,39.5v-0.1l0.7-0.3h0.1
		v0.5C55.9,39.3,56.2,39.1,56.6,39.1"/>
	<path clip-path="url(#SVGID_2_)" fill="#717073" d="M60,39.1c0.2,0,0.1,0.3,0.1,0.3l-0.5,0.1c0,0.1,0.1,0.2,0.1,0.3
		c0,0.4-0.5,0.9-1,0.9c-0.1,0-0.1,0-0.2,0c-0.2,0-0.4,0.1-0.4,0.3c0,0.1,0.1,0.3,0.2,0.3c0.2,0,0.9-0.1,1.1-0.1
		c0.3,0,0.6,0.3,0.6,0.7c0,0.6-0.6,1.1-1.3,1.1c-0.7,0-1.1-0.2-1.1-0.7c0-0.3,0.2-0.5,0.5-0.6c-0.2,0-0.4-0.2-0.4-0.5
		c0-0.2,0.2-0.5,0.5-0.6c-0.3-0.1-0.5-0.4-0.5-0.7c0-0.4,0.4-0.8,1-0.8c0.4,0,0.7,0.2,0.8,0.4C59.7,39.3,59.8,39.1,60,39.1
		 M58.1,42.2c0,0.4,0.2,0.6,0.7,0.6c0.6,0,0.9-0.3,0.9-0.7c0-0.3-0.1-0.4-0.4-0.4c-0.1,0-0.7,0-0.9,0.1C58.2,41.8,58.1,42,58.1,42.2
		 M59.2,39.9c0-0.4-0.2-0.7-0.5-0.7c-0.3,0-0.5,0.3-0.5,0.6c0,0.4,0.2,0.6,0.5,0.6C59.1,40.5,59.2,40.3,59.2,39.9"/>
	<path clip-path="url(#SVGID_2_)" fill="#717073" d="M63.3,39.4l-0.3,0v-0.2c0.1,0,0.4,0,0.6,0s0.4,0,0.5,0v0.2l-0.3,0l0.6,1.5
		l0.5-1.5l-0.3,0v-0.2c0.1,0,0.3,0,0.5,0c0.2,0,0.3,0,0.4,0v0.2l-0.3,0l-0.7,2.2h-0.2l-0.7-1.7c0,0-0.6,1.7-0.6,1.7h-0.2l-0.8-2.1
		l-0.3-0.1v-0.2c0.1,0,0.3,0,0.6,0s0.5,0,0.6,0v0.2l-0.3,0l0.5,1.5l0.5-1.3L63.3,39.4z"/>
	<path clip-path="url(#SVGID_2_)" fill="#717073" d="M65.5,40.3c0-0.7,0.6-1.2,1.2-1.2c0.7,0,1.2,0.5,1.2,1.2c0,0.7-0.6,1.3-1.2,1.3
		C66.1,41.5,65.5,41,65.5,40.3 M67.4,40.3c0-0.6-0.3-1.1-0.7-1.1c-0.5,0-0.7,0.3-0.7,1c0,0.6,0.3,1,0.7,1
		C67.2,41.3,67.4,40.9,67.4,40.3"/>
	<path clip-path="url(#SVGID_2_)" fill="#717073" d="M71.1,39.1c0.5,0,0.7,0.3,0.7,0.9v0.9c0,0.2,0,0.4,0,0.4l0.3,0v0.2
		c-0.1,0-0.4,0-0.6,0c-0.2,0-0.4,0-0.5,0v-0.2l0.3,0c0,0,0-0.2,0-0.4v-0.9c0-0.3-0.2-0.5-0.4-0.5c-0.2,0-0.4,0.1-0.5,0.3v1.1
		c0,0.2,0,0.4,0,0.4l0.3,0v0.2c-0.1,0-0.3,0-0.5,0c-0.2,0-0.4,0-0.5,0v-0.2l0.3,0c0,0,0-0.2,0-0.4v-0.9c0-0.3-0.2-0.5-0.4-0.5
		c-0.2,0-0.4,0.1-0.5,0.3v1.2c0,0.2,0,0.4,0,0.4l0.3,0v0.2c-0.1,0-0.3,0-0.5,0c-0.2,0-0.4,0-0.6,0v-0.2l0.3,0c0,0,0-0.2,0-0.4v-1.3
		l-0.3-0.1v-0.1l0.7-0.3h0.1v0.4c0.2-0.2,0.4-0.4,0.7-0.4c0.3,0,0.6,0.2,0.6,0.4C70.5,39.3,70.8,39.1,71.1,39.1"/>
	<path clip-path="url(#SVGID_2_)" fill="#717073" d="M72.8,40.2c0,0.7,0.4,0.9,0.8,0.9c0.3,0,0.5-0.1,0.7-0.3l0.1,0.1
		c-0.1,0.3-0.4,0.7-0.9,0.7c-0.7,0-1.2-0.5-1.2-1.2c0-0.7,0.5-1.2,1.1-1.2c0.6,0,1,0.4,1,1h-1.6C72.8,40.1,72.8,40.1,72.8,40.2
		 M74,39.8c0-0.4-0.2-0.6-0.5-0.6c-0.3,0-0.5,0.2-0.6,0.6H74z"/>
	<path clip-path="url(#SVGID_2_)" fill="#717073" d="M76.4,39.1c0.4,0,0.6,0.2,0.6,0.6v1.2c0,0.2,0,0.4,0,0.4l0.3,0v0.2
		c-0.1,0-0.4,0-0.6,0c-0.2,0-0.4,0-0.6,0v-0.2l0.3,0c0,0,0-0.2,0-0.4v-0.9c0-0.4-0.2-0.5-0.4-0.5c-0.2,0-0.4,0.2-0.5,0.4v1.1
		c0,0.2,0,0.4,0,0.4l0.3,0v0.2c-0.1,0-0.3,0-0.6,0c-0.2,0-0.4,0-0.6,0v-0.2l0.3,0c0,0,0-0.2,0-0.4v-1.3l-0.3-0.1v-0.1l0.7-0.3h0.1
		v0.5C75.7,39.3,76,39.1,76.4,39.1"/>
	<path clip-path="url(#SVGID_2_)" fill="#717073" d="M78.8,39.5v-0.2l0.4-0.1V39c0-1,0.4-1.6,1.2-1.6c0.3,0,0.5,0.2,0.5,0.4
		c0,0.4-0.4,0.3-0.4,0.2c0-0.2-0.1-0.4-0.3-0.4c-0.3,0-0.5,0.3-0.5,1.2v0.4h0.6v0.3h-0.6v1.4c0,0.2,0,0.4,0,0.4l0.4,0v0.2
		c-0.1,0-0.4,0-0.6,0c-0.2,0-0.4,0-0.5,0v-0.2l0.3,0c0,0,0-0.2,0-0.4v-1.4C79.2,39.4,78.8,39.5,78.8,39.5"/>
	<path clip-path="url(#SVGID_2_)" fill="#717073" d="M81.8,39.5c0-0.1-0.1-0.2-0.4-0.2c-0.2,0-0.3,0-0.4,0.1v0.2
		c0,0-0.4,0.1-0.5,0.1c-0.1,0-0.1,0-0.1-0.1c0-0.2,0.4-0.5,1-0.5c0.4,0,0.7,0.1,0.7,0.3v1.4c0,0.2,0,0.4,0,0.4l0.4,0v0.1
		c-0.1,0.1-0.3,0.1-0.4,0.1c-0.2,0-0.3-0.1-0.4-0.4c-0.2,0.2-0.4,0.4-0.7,0.4c-0.4,0-0.6-0.3-0.6-0.6c0-0.5,0.5-0.7,1.3-0.8V39.5z
		 M81.8,40.4c-0.5,0-0.9,0.2-0.9,0.5c0,0.2,0.1,0.4,0.4,0.4c0.2,0,0.4-0.1,0.5-0.2V40.4z"/>
	<path clip-path="url(#SVGID_2_)" fill="#717073" d="M82.9,40.3c0-0.7,0.5-1.3,1.2-1.3c0.5,0,0.8,0.2,0.8,0.5c0,0.1-0.1,0.2-0.2,0.2
		c-0.2,0-0.3-0.1-0.3-0.1v-0.3c-0.1-0.1-0.2-0.1-0.3-0.1c-0.4,0-0.7,0.4-0.7,1c0,0.5,0.3,0.9,0.8,0.9c0.4,0,0.5-0.1,0.7-0.3l0.1,0.1
		c-0.1,0.3-0.3,0.7-0.9,0.7C83.3,41.5,82.9,41.1,82.9,40.3"/>
	<path clip-path="url(#SVGID_2_)" fill="#717073" d="M85.2,41.3l0.3,0c0,0,0-0.2,0-0.4v-1.3l-0.3-0.1v-0.1l0.7-0.3H86v1.8
		c0,0.2,0,0.4,0,0.4l0.3,0v0.2c-0.1,0-0.3,0-0.6,0c-0.2,0-0.4,0-0.6,0V41.3z M85.4,38c0-0.2,0.1-0.3,0.3-0.3c0.2,0,0.3,0.1,0.3,0.3
		c0,0.2-0.1,0.3-0.3,0.3C85.5,38.3,85.4,38.2,85.4,38"/>
	<path clip-path="url(#SVGID_2_)" fill="#717073" d="M88.2,39.1c0.4,0,0.6,0.2,0.6,0.6v1.2c0,0.2,0,0.4,0,0.4l0.3,0v0.2
		c-0.1,0-0.4,0-0.6,0c-0.2,0-0.4,0-0.6,0v-0.2l0.3,0c0,0,0-0.2,0-0.4v-0.9c0-0.4-0.2-0.5-0.4-0.5c-0.2,0-0.4,0.2-0.5,0.4v1.1
		c0,0.2,0,0.4,0,0.4l0.3,0v0.2c-0.1,0-0.3,0-0.6,0c-0.2,0-0.4,0-0.6,0v-0.2l0.3,0c0,0,0-0.2,0-0.4v-1.3l-0.3-0.1v-0.1l0.7-0.3h0.1
		v0.5C87.6,39.3,87.8,39.1,88.2,39.1"/>
	<path clip-path="url(#SVGID_2_)" fill="#717073" d="M91.6,39.1c0.2,0,0.1,0.3,0.1,0.3l-0.5,0.1c0,0.1,0.1,0.2,0.1,0.3
		c0,0.4-0.5,0.9-1,0.9c-0.1,0-0.1,0-0.2,0c-0.2,0-0.4,0.1-0.4,0.3c0,0.1,0.1,0.3,0.2,0.3c0.2,0,0.9-0.1,1.1-0.1
		c0.3,0,0.6,0.3,0.6,0.7c0,0.6-0.6,1.1-1.3,1.1c-0.7,0-1.1-0.2-1.1-0.7c0-0.3,0.2-0.5,0.5-0.6c-0.2,0-0.4-0.2-0.4-0.5
		c0-0.2,0.2-0.5,0.5-0.6c-0.3-0.1-0.5-0.4-0.5-0.7c0-0.4,0.4-0.8,1-0.8c0.4,0,0.7,0.2,0.8,0.4C91.3,39.3,91.4,39.1,91.6,39.1
		 M89.7,42.2c0,0.4,0.2,0.6,0.7,0.6c0.6,0,0.9-0.3,0.9-0.7c0-0.3-0.1-0.4-0.4-0.4c-0.1,0-0.7,0-0.9,0.1C89.8,41.8,89.7,42,89.7,42.2
		 M90.9,39.9c0-0.4-0.2-0.7-0.5-0.7c-0.3,0-0.5,0.3-0.5,0.6c0,0.4,0.2,0.6,0.5,0.6C90.7,40.5,90.9,40.3,90.9,39.9"/>
	<path clip-path="url(#SVGID_2_)" fill="#717073" d="M94.7,39.1c0.6,0,1,0.5,1,1.2c0,0.8-0.4,1.3-1.1,1.3c-0.3,0-0.5-0.1-0.7-0.3
		l-0.1,0.3h-0.1l-0.6-0.1v-0.2l0.3,0c0,0,0-0.2,0-0.4v-2.9l-0.4-0.1v-0.1l0.8-0.3H94v2C94.1,39.2,94.4,39.1,94.7,39.1 M94.5,41.3
		c0.4,0,0.6-0.4,0.6-1c0-0.6-0.2-1-0.7-1c-0.2,0-0.4,0.1-0.5,0.3V41C94.1,41.2,94.3,41.3,94.5,41.3"/>
	<path clip-path="url(#SVGID_2_)" fill="#717073" d="M97.4,39.1c0.2,0,0.3,0.1,0.3,0.3c0,0.1-0.1,0.2-0.2,0.3h-0.1
		c-0.1-0.1-0.1-0.2-0.3-0.2c-0.2,0-0.3,0.1-0.4,0.4v1c0,0.2,0,0.4,0,0.4l0.4,0v0.2c-0.1,0-0.4,0-0.6,0c-0.2,0-0.4,0-0.6,0v-0.2
		l0.3,0c0,0,0-0.2,0-0.4v-1.3L96,39.5v-0.1l0.7-0.3h0.1v0.5C97,39.3,97.2,39.1,97.4,39.1"/>
	<path clip-path="url(#SVGID_2_)" fill="#717073" d="M98.4,40.2c0,0.7,0.4,0.9,0.8,0.9c0.3,0,0.5-0.1,0.7-0.3l0.1,0.1
		c-0.1,0.3-0.4,0.7-0.9,0.7c-0.7,0-1.2-0.5-1.2-1.2c0-0.7,0.5-1.2,1.1-1.2c0.6,0,1,0.4,1,1h-1.6C98.4,40.1,98.4,40.1,98.4,40.2
		 M99.5,39.8c0-0.4-0.2-0.6-0.5-0.6c-0.3,0-0.5,0.2-0.6,0.6H99.5z"/>
	<path clip-path="url(#SVGID_2_)" fill="#717073" d="M101.6,39.5c0-0.1-0.1-0.2-0.4-0.2c-0.2,0-0.3,0-0.4,0.1v0.2
		c0,0-0.4,0.1-0.5,0.1c-0.1,0-0.1,0-0.1-0.1c0-0.2,0.4-0.5,1-0.5c0.4,0,0.7,0.1,0.7,0.3v1.4c0,0.2,0,0.4,0,0.4l0.4,0v0.1
		c-0.1,0.1-0.3,0.1-0.4,0.1c-0.2,0-0.4-0.1-0.4-0.4c-0.2,0.2-0.4,0.4-0.7,0.4c-0.4,0-0.6-0.3-0.6-0.6c0-0.5,0.5-0.7,1.3-0.8V39.5z
		 M101.6,40.4c-0.5,0-0.9,0.2-0.9,0.5c0,0.2,0.1,0.4,0.4,0.4c0.2,0,0.4-0.1,0.5-0.2V40.4z"/>
	<path clip-path="url(#SVGID_2_)" fill="#717073" d="M102.7,41.4l0-0.5l0.2,0c0.1,0.4,0.3,0.5,0.6,0.5c0.3,0,0.4-0.2,0.4-0.4
		c0-0.2-0.3-0.4-0.5-0.5c-0.4-0.1-0.6-0.3-0.6-0.7c0-0.3,0.2-0.7,0.8-0.7c0.3,0,0.6,0.1,0.6,0.2l0,0.5l-0.2,0
		c-0.1-0.3-0.3-0.5-0.6-0.5c-0.2,0-0.4,0.2-0.4,0.4c0,0.2,0.1,0.3,0.5,0.5c0.4,0.2,0.7,0.3,0.7,0.7c0,0.4-0.4,0.8-0.9,0.8
		C103,41.5,102.8,41.4,102.7,41.4"/>
	<path clip-path="url(#SVGID_2_)" fill="#717073" d="M106.1,39.1v0.3h-0.8v1.3c0,0.4,0.1,0.5,0.4,0.5c0.2,0,0.3,0,0.4-0.1l0,0.2
		c-0.2,0.1-0.5,0.2-0.8,0.2c-0.3,0-0.5-0.1-0.5-0.2v-1.9l-0.4,0v-0.1l0.8-0.6l0.1,0l0,0.4H106.1z"/>
	<path clip-path="url(#SVGID_2_)" fill="#717073" d="M107.7,40.3c0-0.7,0.5-1.3,1.2-1.3c0.5,0,0.8,0.2,0.8,0.5
		c0,0.1-0.1,0.2-0.2,0.2c-0.2,0-0.3-0.1-0.3-0.1v-0.3c-0.1-0.1-0.2-0.1-0.3-0.1c-0.4,0-0.7,0.4-0.7,1c0,0.5,0.3,0.9,0.8,0.9
		c0.4,0,0.5-0.1,0.7-0.3l0.1,0.1c-0.1,0.3-0.4,0.7-0.9,0.7C108.2,41.5,107.7,41.1,107.7,40.3"/>
	<path clip-path="url(#SVGID_2_)" fill="#717073" d="M111.4,39.5c0-0.1-0.1-0.2-0.4-0.2c-0.2,0-0.3,0-0.4,0.1v0.2
		c0,0-0.4,0.1-0.5,0.1c-0.1,0-0.1,0-0.1-0.1c0-0.2,0.4-0.5,1-0.5c0.4,0,0.7,0.1,0.7,0.3v1.4c0,0.2,0,0.4,0,0.4l0.4,0v0.1
		c-0.1,0.1-0.3,0.1-0.4,0.1c-0.2,0-0.4-0.1-0.4-0.4c-0.2,0.2-0.4,0.4-0.7,0.4c-0.4,0-0.6-0.3-0.6-0.6c0-0.5,0.5-0.7,1.3-0.8V39.5z
		 M111.4,40.4c-0.5,0-0.9,0.2-0.9,0.5c0,0.2,0.1,0.4,0.4,0.4c0.2,0,0.4-0.1,0.5-0.2V40.4z"/>
	<path clip-path="url(#SVGID_2_)" fill="#717073" d="M114.1,39.1c0.4,0,0.6,0.2,0.6,0.6v1.2c0,0.2,0,0.4,0,0.4l0.3,0v0.2
		c-0.1,0-0.4,0-0.6,0c-0.2,0-0.4,0-0.6,0v-0.2l0.3,0c0,0,0-0.2,0-0.4v-0.9c0-0.4-0.2-0.5-0.4-0.5c-0.2,0-0.4,0.2-0.5,0.4v1.1
		c0,0.2,0,0.4,0,0.4l0.3,0v0.2c-0.1,0-0.3,0-0.6,0c-0.2,0-0.4,0-0.6,0v-0.2l0.3,0c0,0,0-0.2,0-0.4v-1.3l-0.3-0.1v-0.1l0.7-0.3h0.1
		v0.5C113.5,39.3,113.7,39.1,114.1,39.1"/>
	<path clip-path="url(#SVGID_2_)" fill="#717073" d="M115.3,40.3c0-0.7,0.5-1.3,1.2-1.3c0.5,0,0.8,0.2,0.8,0.5
		c0,0.1-0.1,0.2-0.2,0.2c-0.2,0-0.3-0.1-0.3-0.1v-0.3c-0.1-0.1-0.2-0.1-0.3-0.1c-0.4,0-0.7,0.4-0.7,1c0,0.5,0.3,0.9,0.8,0.9
		c0.4,0,0.5-0.1,0.7-0.3l0.1,0.1c-0.1,0.3-0.3,0.7-0.9,0.7C115.7,41.5,115.3,41.1,115.3,40.3"/>
	<path clip-path="url(#SVGID_2_)" fill="#717073" d="M118.1,40.2c0,0.7,0.4,0.9,0.8,0.9c0.3,0,0.5-0.1,0.7-0.3l0.1,0.1
		c-0.1,0.3-0.4,0.7-0.9,0.7c-0.7,0-1.2-0.5-1.2-1.2c0-0.7,0.5-1.2,1.1-1.2c0.6,0,1,0.4,1,1h-1.6C118.1,40.1,118.1,40.1,118.1,40.2
		 M119.2,39.8c0-0.4-0.2-0.6-0.5-0.6c-0.3,0-0.5,0.2-0.6,0.6H119.2z"/>
	<path clip-path="url(#SVGID_2_)" fill="#717073" d="M121.4,39.1c0.2,0,0.3,0.1,0.3,0.3c0,0.1-0.1,0.2-0.2,0.3h-0.1
		c-0.1-0.1-0.1-0.2-0.3-0.2c-0.2,0-0.3,0.1-0.4,0.4v1c0,0.2,0,0.4,0,0.4l0.4,0v0.2c-0.1,0-0.4,0-0.6,0c-0.2,0-0.4,0-0.6,0v-0.2
		l0.3,0c0,0,0-0.2,0-0.4v-1.3l-0.3-0.1v-0.1l0.7-0.3h0.1v0.5C120.9,39.3,121.2,39.1,121.4,39.1"/>
	<path clip-path="url(#SVGID_2_)" fill="#717073" d="M124.8,39.1v0.3H124v1.3c0,0.4,0.1,0.5,0.4,0.5c0.2,0,0.3,0,0.4-0.1l0,0.2
		c-0.2,0.1-0.5,0.2-0.8,0.2c-0.3,0-0.5-0.1-0.5-0.2v-1.9l-0.4,0v-0.1l0.8-0.6l0.1,0l0,0.4H124.8z"/>
	<path clip-path="url(#SVGID_2_)" fill="#717073" d="M125.1,40.3c0-0.7,0.6-1.2,1.2-1.2c0.7,0,1.2,0.5,1.2,1.2
		c0,0.7-0.6,1.3-1.2,1.3C125.6,41.5,125.1,41,125.1,40.3 M127,40.3c0-0.6-0.3-1.1-0.7-1.1c-0.5,0-0.7,0.3-0.7,1c0,0.6,0.3,1,0.7,1
		C126.7,41.3,127,40.9,127,40.3"/>
	<path clip-path="url(#SVGID_2_)" fill="#717073" d="M130,39.1c0.2,0,0.1,0.3,0.1,0.3l-0.5,0.1c0,0.1,0.1,0.2,0.1,0.3
		c0,0.4-0.5,0.9-1,0.9c-0.1,0-0.1,0-0.2,0c-0.2,0-0.4,0.1-0.4,0.3c0,0.1,0.1,0.3,0.2,0.3c0.2,0,0.9-0.1,1.1-0.1
		c0.3,0,0.6,0.3,0.6,0.7c0,0.6-0.6,1.1-1.3,1.1c-0.7,0-1.1-0.2-1.1-0.7c0-0.3,0.2-0.5,0.5-0.6c-0.2,0-0.4-0.2-0.4-0.5
		c0-0.2,0.2-0.5,0.5-0.6c-0.3-0.1-0.5-0.4-0.5-0.7c0-0.4,0.4-0.8,1-0.8c0.4,0,0.7,0.2,0.8,0.4C129.7,39.3,129.8,39.1,130,39.1
		 M128.2,42.2c0,0.4,0.2,0.6,0.7,0.6c0.6,0,0.9-0.3,0.9-0.7c0-0.3-0.1-0.4-0.4-0.4c-0.1,0-0.7,0-0.9,0.1
		C128.2,41.8,128.2,42,128.2,42.2 M129.3,39.9c0-0.4-0.2-0.7-0.5-0.7c-0.3,0-0.5,0.3-0.5,0.6c0,0.4,0.2,0.6,0.5,0.6
		C129.1,40.5,129.3,40.3,129.3,39.9"/>
	<path clip-path="url(#SVGID_2_)" fill="#717073" d="M130.8,40.2c0,0.7,0.4,0.9,0.8,0.9c0.3,0,0.5-0.1,0.7-0.3l0.1,0.1
		c-0.1,0.3-0.4,0.7-0.9,0.7c-0.7,0-1.2-0.5-1.2-1.2c0-0.7,0.5-1.2,1.1-1.2c0.5,0,1,0.4,1,1h-1.6C130.8,40.1,130.8,40.1,130.8,40.2
		 M131.9,39.8c0-0.4-0.2-0.6-0.5-0.6c-0.3,0-0.5,0.2-0.6,0.6H131.9z"/>
	<path clip-path="url(#SVGID_2_)" fill="#717073" d="M134.2,39.1v0.3h-0.8v1.3c0,0.4,0.1,0.5,0.4,0.5c0.2,0,0.3,0,0.4-0.1l0,0.2
		c-0.2,0.1-0.5,0.2-0.8,0.2c-0.3,0-0.5-0.1-0.5-0.2v-1.9l-0.4,0v-0.1l0.8-0.6l0.1,0l0,0.4H134.2z"/>
	<path clip-path="url(#SVGID_2_)" fill="#717073" d="M136.1,39.1c0.4,0,0.6,0.2,0.6,0.6v1.2c0,0.2,0,0.4,0,0.4l0.3,0v0.2
		c-0.1,0-0.3,0-0.6,0c-0.2,0-0.4,0-0.6,0v-0.2l0.3,0c0,0,0-0.2,0-0.4v-0.9c0-0.4-0.2-0.5-0.4-0.5c-0.2,0-0.4,0.2-0.5,0.4v1.1
		c0,0.2,0,0.4,0,0.4l0.3,0v0.2c-0.1,0-0.3,0-0.6,0c-0.2,0-0.4,0-0.6,0v-0.2l0.3,0c0,0,0-0.2,0-0.4v-2.9l-0.4-0.1v-0.1l0.8-0.3h0.1
		v2.1C135.4,39.3,135.7,39.1,136.1,39.1"/>
	<path clip-path="url(#SVGID_2_)" fill="#717073" d="M137.8,40.2c0,0.7,0.4,0.9,0.8,0.9c0.3,0,0.5-0.1,0.7-0.3l0.1,0.1
		c-0.1,0.3-0.4,0.7-0.9,0.7c-0.7,0-1.2-0.5-1.2-1.2c0-0.7,0.5-1.2,1.1-1.2c0.6,0,1,0.4,1,1h-1.6C137.8,40.1,137.8,40.1,137.8,40.2
		 M138.9,39.8c0-0.4-0.2-0.6-0.5-0.6c-0.3,0-0.5,0.2-0.6,0.6H138.9z"/>
	<path clip-path="url(#SVGID_2_)" fill="#717073" d="M141.1,39.1c0.2,0,0.3,0.1,0.3,0.3c0,0.1-0.1,0.2-0.2,0.3h-0.1
		c-0.1-0.1-0.1-0.2-0.3-0.2c-0.2,0-0.3,0.1-0.4,0.4v1c0,0.2,0,0.4,0,0.4l0.4,0v0.2c-0.1,0-0.4,0-0.6,0c-0.2,0-0.4,0-0.5,0v-0.2
		l0.3,0c0,0,0-0.2,0-0.4v-1.3l-0.3-0.1v-0.1l0.7-0.3h0.1v0.5C140.6,39.3,140.8,39.1,141.1,39.1"/>
	<path clip-path="url(#SVGID_2_)" fill="#717073" d="M141.5,41.2c0-0.2,0.2-0.4,0.4-0.4c0.2,0,0.4,0.2,0.4,0.4
		c0,0.2-0.2,0.4-0.4,0.4C141.7,41.6,141.5,41.4,141.5,41.2"/>
	<path clip-path="url(#SVGID_2_)" fill="#717073" d="M123.7,27.4c-0.4,0-0.7-0.3-0.7-0.7s0.3-0.7,0.7-0.7c0.4,0,0.7,0.3,0.7,0.7
		S124,27.4,123.7,27.4 M123.7,26.2c-0.3,0-0.6,0.3-0.6,0.6c0,0.3,0.3,0.6,0.6,0.6c0.3,0,0.6-0.3,0.6-0.6
		C124.2,26.4,124,26.2,123.7,26.2 M123.8,27.1l-0.2-0.3h-0.1v0.3h-0.1v-0.7h0.3c0.1,0,0.2,0.1,0.2,0.2c0,0.1-0.1,0.2-0.2,0.2
		l0.2,0.3H123.8z M123.7,26.5h-0.1v0.3h0.1c0.1,0,0.1-0.1,0.1-0.1C123.8,26.5,123.8,26.5,123.7,26.5"/>
</g>
</svg>
