<?xml version="1.0" encoding="utf-8"?>
<!-- Generator: Adobe Illustrator 19.1.0, SVG Export Plug-In . SVG Version: 6.00 Build 0)  -->
<svg version="1.1" id="Layer_1" xmlns="http://www.w3.org/2000/svg" xmlns:xlink="http://www.w3.org/1999/xlink" x="0px" y="0px"
	 viewBox="0 0 262.1 211.3" enable-background="new 0 0 262.1 211.3" xml:space="preserve">
<path fill="#B56185" d="M66.3,15.6c1.4,4.4,12.1,36.5,44.4,44.9c-0.6,0.2-1,0.4-1,0.4C67.6,75.8,94.4,120.1,95.1,121l6.7-14.4l2.3-5
	c-0.8-1.3-14.7-25.8,18.5-39.7l0,0h0v0c0.2-0.1,2.6-1,0.3-2c-0.1,0-0.2-0.1-0.4-0.1v0C90.9,48,83.8,19.2,82.7,14
	C76.9,13.4,71,13.6,66.3,15.6"/>
<path fill="#8E0B56" d="M135.7,85.6c-0.9-2.6-1.7-5.1-2.3-7.4c-0.3-1.4-0.6-2.7-0.9-4c-4.7,13-16.1,21-28.6,27.4l-2.3,5L95.1,121
	l0,0c0,0,0,0,0,0l0,0l0,0C119.1,115.5,130.4,99.6,135.7,85.6"/>
<path fill="#F7A800" d="M207.9,1.7L207.9,1.7c0,0-55.4-12.8-72,34.9c0,0,0,0,0,0c-1.5,4.2-2.6,9-3.4,14.2c-0.5,3.5-0.9,7.1-1.1,11
	c0,0-0.1,5.1,1.2,12.3c0.2,1.3,0.5,2.6,0.9,4c0.6,2.4,1.3,4.8,2.3,7.4c5.1,13.9,16.2,29.9,40.2,35.4l-8.9-19.5c0,0,0,0,0,0
	c-12.1-6.2-23.2-13.9-28.2-26.3c-0.9-2.2-1.6-4.6-2-7c-1.2-6.3-0.2-12.8,2.4-18.9c0,0,0-0.1,0.1-0.1c6.3-15.3,22-28.5,36.5-32.7
	c3.6-1,8-2,12.6-2.5c5.4-0.6,10.8-0.4,15.3,1.2c0.4,0.1,0.7,0.3,1.1,0.4v0c0,0,0,0,0,0s0,0,0,0c0,0,0,0,0,0l0-0.2
	C206,11.2,207.1,6.7,207.9,1.7C207.8,1.7,207.8,1.7,207.9,1.7L207.9,1.7C207.9,1.7,207.9,1.7,207.9,1.7L207.9,1.7z"/>
<path fill="#8E0B56" d="M139.2,49.2c-0.7-4.3-1.8-8.5-3.3-12.6c-4.6-12.7-13.1-23.9-25.8-29.8C105,4.4,99,2.1,93.4,1.2
	C88.3,0.4,82.9-0.1,77.7,0c-4.1,0.1-8.3,0.5-12.4,1.2c-0.7,0.1-1.4,0.2-2.1,0.4c0,0-0.1,0-0.1,0c0,0,0,0,0,0c0,0,0,0,0,0
	c0.8,5,1.9,9.6,3.2,13.8c0,0,0,0.1,0,0.1c0,0,0,0,0,0c4.6-2,10.6-2.2,16.4-1.6c4.5,0.5,8.9,1.5,12.5,2.5c15,4.3,31.3,18.4,37.1,34.4
	c0,0,0,0,0,0c1.3,3.3,2.8,7,3.5,11.5c0,0,0.3,2.1,0.3,2.1c0.3,2.3,0.2,2.1,0.5,3.9c0.5,2.5,1.1,4.8,2,7c1-4.4,1.4-8.9,1.4-13.4
	C140.2,57.7,139.9,53.4,139.2,49.2"/>
<path fill="#FFC25C" d="M204.7,15.6c-1.4,4.4-12.1,36.5-44.4,44.9c0.6,0.2,1,0.4,1,0.4c42.1,14.9,15.1,59.2,14.5,60.2l-8.9-19.5
	c0.8-1.3,14.8-25.8-18.4-39.7l0,0h0v0c-0.2-0.1-2.6-1-0.3-2c0.1,0,0.2-0.1,0.4-0.1v0C180.2,48,187.3,19.2,188.4,14
	C194.1,13.4,200.1,13.6,204.7,15.6"/>
<path fill="#8E0B56" d="M247.7,199.3v-7.9h5.8c2.1,0,4,1.8,4,3.9c0,2.2-1.9,4-4,4H247.7z M244.2,210.4c0,0.3,0.3,0.6,0.6,0.6h2.1
	c0.3,0,0.6-0.3,0.6-0.6v-8.3h4.9l4.3,8.6c0.1,0.1,0.3,0.3,0.5,0.3h2.5c0.6,0,0.8-0.5,0.6-0.9l-4.5-8.3c2.8-1.1,4.8-3.6,4.8-6.6
	c0-3.9-3.2-7-7.1-7h-8.8c-0.4,0-0.6,0.3-0.6,0.6V210.4z M224.8,210.4c0,0.3,0.3,0.6,0.6,0.6h13c0.4,0,0.6-0.3,0.6-0.6v-1.8
	c0-0.3-0.3-0.6-0.6-0.6h-10.3v-7h8.7c0.3,0,0.6-0.3,0.6-0.6v-1.8c0-0.3-0.3-0.6-0.6-0.6h-8.7v-6.6h10.3c0.4,0,0.6-0.3,0.6-0.6v-1.8
	c0-0.3-0.3-0.6-0.6-0.6h-13c-0.4,0-0.6,0.3-0.6,0.6V210.4z M199.6,199.6c0,6.5,5.2,11.7,11.7,11.7c2.9,0,5.7-1,7.9-3.2
	c0.2-0.2,0.3-0.7,0-0.9l-1.5-1.5c-0.2-0.2-0.5-0.2-0.8,0c-1.6,1.2-3.2,2.1-5.6,2.1c-4.6,0-8.2-3.9-8.2-8.4c0-4.6,3.5-8.5,8.2-8.5
	c2,0,4.1,0.8,5.6,2.2c0.3,0.3,0.6,0.3,0.8,0l1.4-1.5c0.3-0.3,0.3-0.7,0-0.9c-2.2-1.9-4.6-3-7.9-3
	C204.8,187.9,199.6,193.1,199.6,199.6 M176,210.4c0,0.3,0.3,0.6,0.6,0.6h2c0.4,0,0.6-0.3,0.6-0.6v-15.8h0l14.1,16.8h0.8
	c0.3,0,0.6-0.3,0.6-0.6v-21.9c0-0.3-0.3-0.6-0.6-0.6h-2.1c-0.4,0-0.6,0.3-0.6,0.6v15.4h0l-14.1-16.3h-0.8c-0.3,0-0.6,0.3-0.6,0.6
	V210.4z M157,203.3l4-8.9h0.2l4,8.9H157z M151,211h2c0.4,0,0.7-0.3,0.7-0.5c0.7-1.5,1.3-3,2-4.5h10.6l2,4.5c0.1,0.3,0.4,0.5,0.7,0.5
	h2c0.5,0,0.7-0.4,0.6-0.8l-9.9-21.9c-0.1-0.2-0.4-0.4-0.6-0.4H161c-0.2,0-0.5,0.2-0.6,0.4l-10,21.9C150.3,210.6,150.5,211,151,211
	 M127.5,199.6c0,6.5,6,11.7,12.5,11.7c2.9,0,5.7-1,7.9-3.2c0.2-0.2,0.3-0.7,0-0.9l-1.5-1.5c-0.2-0.2-0.5-0.2-0.8,0
	c-1.6,1.2-3.2,2.1-5.6,2.1c-4.6,0-8.2-3.9-8.2-8.4c0-4.6,3.5-8.5,8.2-8.5c2,0,4.1,0.8,5.6,2.2c0.3,0.3,0.6,0.3,0.8,0l1.4-1.5
	c0.3-0.3,0.3-0.7,0-0.9c-2.2-1.9-4.6-3-7.9-3C133.5,187.9,127.5,193.1,127.5,199.6 M108,210.4c0,0.3,0.3,0.6,0.6,0.6h2.1
	c0.3,0,0.6-0.3,0.6-0.6v-19.1h5.3c0.4,0,0.6-0.3,0.6-0.6v-1.8c0-0.3-0.3-0.6-0.6-0.6h-14c-0.4,0-0.6,0.3-0.6,0.6v1.8
	c0,0.3,0.3,0.6,0.6,0.6h5.3V210.4z M85.2,208.8c0.5,0.5,3,2.6,7,2.6c4.2,0,7.3-2.8,7.3-6.1c0-4-3.2-5.8-7-7.3
	c-2.7-1.1-4.1-2.2-4.1-4.1c0-1.2,0.9-2.9,3.7-2.9c1.9,0,4.2,1.5,4.4,1.6c0.5,0.3,0.9,0.1,1.1-0.3c0.3-0.4,0.6-0.8,0.8-1.2
	c0.3-0.5,0.1-0.9-0.2-1.1c-0.3-0.2-2.8-1.9-6-1.9c-5.2,0-7.1,3.5-7.1,6c0,3.8,2.6,5.5,5.9,6.9c3.2,1.3,4.9,2.6,4.9,4.5
	c0,1.7-1.4,3-3.7,3c-2.5,0-5-2.1-5.2-2.2c-0.4-0.3-0.8-0.2-1.1,0.3c-0.3,0.4-0.6,0.9-0.8,1.3C84.6,208.3,84.9,208.5,85.2,208.8
	 M67.5,203.3l4-8.9h0.2l4,8.9H67.5z M61.4,211h2c0.4,0,0.6-0.3,0.7-0.5c0.7-1.5,1.3-3,2-4.5h10.6l2,4.5c0.1,0.3,0.4,0.5,0.7,0.5h2
	c0.5,0,0.7-0.4,0.6-0.8l-9.9-21.9c-0.1-0.2-0.4-0.4-0.6-0.4h-0.3c-0.2,0-0.5,0.2-0.6,0.4l-10,21.9C60.7,210.6,60.9,211,61.4,211
	 M43.8,210.4c0,0.3,0.3,0.6,0.6,0.6h13c0.4,0,0.6-0.3,0.6-0.6v-1.8c0-0.3-0.3-0.6-0.6-0.6H47.1v-7h8.7c0.3,0,0.6-0.3,0.6-0.6v-1.8
	c0-0.3-0.3-0.6-0.6-0.6h-8.7v-6.6h10.3c0.4,0,0.6-0.3,0.6-0.6v-1.8c0-0.3-0.3-0.6-0.6-0.6h-13c-0.4,0-0.6,0.3-0.6,0.6V210.4z
	 M24.6,199.3v-7.9h5.8c2.1,0,4,1.8,4,3.9c0,2.2-1.9,4-4,4H24.6z M21.2,210.4c0,0.3,0.3,0.6,0.6,0.6h2.1c0.3,0,0.6-0.3,0.6-0.6v-8.3
	h4.9l4.3,8.6c0.1,0.1,0.3,0.3,0.5,0.3h2.5c0.6,0,0.8-0.5,0.6-0.9l-4.5-8.3c2.8-1.1,4.8-3.6,4.8-6.6c0-3.9-3.2-7-7.1-7h-8.8
	c-0.4,0-0.6,0.3-0.6,0.6V210.4z M3.3,208v-7h4.5c2.1,0,4,1.4,4,3.4c0,2-1.5,3.5-3.5,3.5H3.3z M3.3,198.1v-6.8h4.4
	c2.1,0,3.3,1.4,3.3,3.3c0,2-1.3,3.5-3.3,3.5H3.3z M0,210.4c0,0.3,0.3,0.6,0.6,0.6h7.6c4.1,0,7.1-2.6,7.1-6.3c0-3-2.3-4.6-4.1-5.3
	c1.5-0.9,3.4-2.7,3.4-5.2c0-3.4-2.8-6-6.8-6H0.6c-0.4,0-0.6,0.3-0.6,0.6V210.4z"/>
<path fill="#8E0B56" d="M246.1,166.8v-14.2h3.4c4,0,6.9,3.1,6.9,7.1c0,4-2.9,7.1-6.9,7.1H246.1z M240.6,171.3c0,0.4,0.3,0.7,0.6,0.7
	h8.6c6.8,0,12.3-5.5,12.3-12.3c0-6.7-5.6-12.3-12.3-12.3h-8.6c-0.4,0-0.6,0.3-0.6,0.7V171.3z M214.2,171.3c0,0.4,0.3,0.7,0.7,0.7
	h4.2c0.4,0,0.7-0.3,0.7-0.7v-13.1h0l13.9,14c0.1,0.1,0.4,0.2,0.5,0.2h0.6c0.4,0,0.7-0.3,0.7-0.6V148c0-0.4-0.3-0.7-0.7-0.7h-4.2
	c-0.4,0-0.7,0.3-0.7,0.7v12.5h0l-14-13.5h-0.9c-0.4,0-0.7,0.3-0.7,0.6L214.2,171.3z M191.1,159.7c0-3.9,3.2-7.1,7-7.1
	c3.9,0,7,3.2,7,7.1c0,3.8-3.2,7-7,7C194.3,166.7,191.1,163.5,191.1,159.7 M185.5,159.7c0,7,5.6,12.6,12.6,12.6s12.7-5.6,12.7-12.6
	s-5.6-12.7-12.7-12.7S185.5,152.7,185.5,159.7 M172.3,171.3c0,0.4,0.3,0.7,0.7,0.7h4.2c0.4,0,0.7-0.3,0.7-0.7v-11.2l7.9-11.7
	c0.3-0.5,0-1-0.6-1h-4.6c-0.3,0-0.5,0.2-0.6,0.3l-4.9,7.2l-4.9-7.2c-0.1-0.1-0.3-0.3-0.6-0.3h-4.6c-0.6,0-0.8,0.6-0.6,1l7.8,11.7
	V171.3z M145.6,171.3c0,0.4,0.3,0.7,0.7,0.7h14.6c0.4,0,0.7-0.3,0.7-0.7v-3.8c0-0.4-0.3-0.7-0.7-0.7h-9.7v-4.7h8
	c0.4,0,0.7-0.3,0.7-0.7v-3.8c0-0.4-0.3-0.7-0.7-0.7h-8v-4.4h9.7c0.4,0,0.7-0.3,0.7-0.7V148c0-0.4-0.3-0.7-0.7-0.7h-14.6
	c-0.4,0-0.7,0.3-0.7,0.7V171.3z M129.6,167v-5h2.8c1.4,0,2.9,1.1,2.9,2.5c0,1.4-1.2,2.6-2.5,2.6H129.6z M129.6,157.4v-4.9h2.7
	c1.3,0,2.5,1,2.5,2.4s-1.1,2.5-2.5,2.5H129.6z M124.1,171.3c0,0.4,0.3,0.7,0.7,0.7h8.7c4.2,0,7.7-2.8,7.7-6.8c0-3.2-2.8-5-4.7-5.7
	c1.7-0.9,4.1-2.8,4.1-5.6c0-3.7-3.4-6.5-7.6-6.5h-8.2c-0.4,0-0.7,0.3-0.7,0.7V171.3z M89.9,159.7c0,7,5.6,12.6,12.6,12.6
	c5.1,0,8.7-2.3,8.7-2.3c0.1-0.1,0.3-0.4,0.3-0.6l0-9.5c0-0.4-0.3-0.7-0.6-0.7h-7.1c-0.4,0-0.7,0.3-0.7,0.7v3.5
	c0,0.4,0.3,0.6,0.7,0.6h2.2v2c-1.1,0.4-2.1,0.6-3.1,0.6c-3.8,0-7-3.2-7-7c0-3.9,3.1-7.1,6.9-7.1c1.7,0,3.3,0.5,4.6,1.7
	c0.3,0.2,0.7,0.2,0.9,0l2.8-3c0.3-0.3,0.2-0.7-0.1-0.9c-2.4-2.1-5.6-3.3-8.6-3.3C95.5,147.1,89.9,152.7,89.9,159.7 M64.5,171.3
	c0,0.4,0.3,0.7,0.7,0.7h4.2c0.4,0,0.7-0.3,0.7-0.7v-13.1h0l13.9,14c0.1,0.1,0.4,0.2,0.5,0.2h0.6c0.4,0,0.7-0.3,0.7-0.6V148
	c0-0.4-0.3-0.7-0.7-0.7h-4.2c-0.4,0-0.7,0.3-0.7,0.7v12.5h0L66,147h-0.9c-0.4,0-0.7,0.3-0.7,0.6L64.5,171.3z M52.9,171.3
	c0,0.4,0.3,0.7,0.7,0.7h4.2c0.4,0,0.7-0.3,0.7-0.7V148c0-0.4-0.3-0.7-0.7-0.7h-4.2c-0.4,0-0.7,0.3-0.7,0.7V171.3z M37.4,171.9
	c0.1,0.2,0.3,0.4,0.6,0.4h0.4c0.3,0,0.5-0.2,0.6-0.4l11-23.7c0.2-0.5-0.1-0.9-0.6-0.9h-4.7c-0.3,0-0.5,0.2-0.6,0.4l-5.8,12.8h-0.2
	l-5.8-12.8c-0.1-0.2-0.3-0.4-0.6-0.4H27c-0.5,0-0.8,0.5-0.6,0.9L37.4,171.9z M18,171.3c0,0.4,0.3,0.7,0.7,0.7h4.2
	c0.4,0,0.7-0.3,0.7-0.7V148c0-0.4-0.3-0.7-0.7-0.7h-4.2c-0.4,0-0.7,0.3-0.7,0.7V171.3z M0,171.3c0,0.4,0.3,0.7,0.7,0.7h13.2
	c0.4,0,0.7-0.3,0.7-0.7v-3.8c0-0.4-0.3-0.7-0.7-0.7H5.6V148c0-0.4-0.3-0.7-0.7-0.7H0.7c-0.4,0-0.7,0.3-0.7,0.7V171.3z"/>
</svg>

