<?xml version="1.0" encoding="utf-8"?>
<!-- Generator: Adobe Illustrator 19.2.0, SVG Export Plug-In . SVG Version: 6.00 Build 0)  -->
<svg version="1.1" id="Layer_1" xmlns="http://www.w3.org/2000/svg" xmlns:xlink="http://www.w3.org/1999/xlink" x="0px" y="0px"
	 viewBox="0 0 307.6 316.6" style="enable-background:new 0 0 307.6 316.6;" xml:space="preserve">
<style type="text/css">
	.st0{fill:#AF2070;}
	.st1{fill:#FFFFFF;stroke:#FFFFFF;stroke-width:4;}
	.st2{fill:#FFFFFF;}
</style>
<rect x="35" y="35" class="st0" width="237.7" height="246.6"/>
<g>
	<path class="st1" d="M108.2,57.3h16.4v104.6h-16.4V57.3z"/>
	<path class="st1" d="M185.8,81.4v3.7c0,10.8-3.3,17.6-10.6,21.1c8.8,3.4,12.3,11.4,12.3,22.4v8.5c0,16.1-8.5,24.8-25,24.8h-25.9
		V57.3h24.8C178.5,57.3,185.8,65.2,185.8,81.4z M153.1,72.3v27.7h6.4c6.1,0,9.9-2.7,9.9-11.1V83c0-7.5-2.5-10.8-8.4-10.8H153.1z
		 M153.1,114.9V147h9.4c5.5,0,8.5-2.5,8.5-10.3v-9.1c0-9.7-3.1-12.7-10.6-12.7H153.1z"/>
	<path class="st1" d="M245,122.9v13.9c0,16.7-8.4,26.3-24.5,26.3c-16.1,0-24.5-9.6-24.5-26.3V82.4c0-16.7,8.4-26.3,24.5-26.3
		c16.1,0,24.5,9.6,24.5,26.3v10.2h-15.5V81.4c0-7.5-3.3-10.3-8.5-10.3c-5.2,0-8.5,2.8-8.5,10.3v56.5c0,7.5,3.3,10.2,8.5,10.2
		c5.2,0,8.5-2.7,8.5-10.2v-14.9H245z"/>
</g>
<g>
	<path class="st2" d="M64.7,182.9v34h-6.6v-47h9.3l7.6,28.1V170h6.6v47h-7.6L64.7,182.9z"/>
	<path class="st2" d="M94.2,189.8h10.1v6.7H94.2v13.8H107v6.7H86.8v-47H107v6.7H94.2V189.8z"/>
	<path class="st2" d="M109.4,170h22.8v6.7h-7.7V217h-7.4v-40.3h-7.7V170z"/>
	<path class="st2" d="M151.8,191.9l-2.7,25H139l-5.2-47h7.2l4,37.1l3.6-37.1h7.1l3.7,37.3l3.8-37.3h6.4l-5.2,47h-9.8L151.8,191.9z"
		/>
	<path class="st2" d="M172.6,181.2c0-7.5,4-11.8,11.2-11.8c7.3,0,11.2,4.3,11.2,11.8v24.4c0,7.5-4,11.8-11.2,11.8
		c-7.2,0-11.2-4.3-11.2-11.8V181.2z M180,206.1c0,3.4,1.5,4.6,3.8,4.6c2.4,0,3.8-1.3,3.8-4.6v-25.4c0-3.4-1.5-4.6-3.8-4.6
		c-2.3,0-3.8,1.3-3.8,4.6V206.1z"/>
	<path class="st2" d="M215.3,217c-0.4-1.2-0.7-1.9-0.7-5.8v-7.4c0-4.4-1.5-6-4.8-6h-2.6V217h-7.4v-47H211c7.7,0,10.9,3.6,10.9,10.8
		v3.7c0,4.8-1.5,8-4.8,9.5c3.7,1.5,4.9,5.1,4.9,10v7.3c0,2.3,0.1,4,0.8,5.7H215.3z M207.2,176.7v14.4h2.9c2.8,0,4.4-1.2,4.4-5v-4.6
		c0-3.4-1.1-4.8-3.8-4.8H207.2z"/>
	<path class="st2" d="M236.5,198.2l-2.3,4.3V217h-7.4v-47h7.4v20.5l9.7-20.5h7.4L241,190.9l10.3,26h-7.6L236.5,198.2z"/>
</g>
<g>
	<path class="st2" d="M63.5,239.6H71v5.3h-7.6v15.4h-5.9v-37.3h15.5v5.3h-9.6V239.6z"/>
	<path class="st2" d="M75.4,232c0-6,3.1-9.4,8.9-9.4s8.9,3.4,8.9,9.4v19.4c0,6-3.1,9.4-8.9,9.4s-8.9-3.4-8.9-9.4V232z M81.3,251.8
		c0,2.7,1.2,3.7,3,3.7c1.9,0,3-1,3-3.7v-20.1c0-2.7-1.2-3.7-3-3.7c-1.9,0-3,1-3,3.7V251.8z"/>
	<path class="st2" d="M102.6,223.1v28.7c0,2.7,1.2,3.6,3,3.6c1.9,0,3-1,3-3.6v-28.7h5.5v28.4c0,6-3,9.4-8.7,9.4
		c-5.8,0-8.7-3.4-8.7-9.4v-28.4H102.6z"/>
	<path class="st2" d="M123.4,233.4v27h-5.3v-37.3h7.3l6,22.3v-22.3h5.2v37.3h-6L123.4,233.4z"/>
	<path class="st2" d="M140.9,223.1h9.3c5.9,0,8.7,3.2,8.7,9.2v18.8c0,6-2.9,9.2-8.7,9.2h-9.3V223.1z M146.8,228.4V255h3.3
		c1.9,0,3-1,3-3.6V232c0-2.7-1.1-3.6-3-3.6H146.8z"/>
	<path class="st2" d="M181.5,260.4h-5.9l-1-6.8h-7.2l-1,6.8H161l6-37.3h8.6L181.5,260.4z M168.2,248.5h5.6l-2.8-18.8L168.2,248.5z"
		/>
	<path class="st2" d="M180.5,223.1h18.1v5.3h-6.1v31.9h-5.9v-31.9h-6.1V223.1z"/>
	<path class="st2" d="M201.2,223.1h5.9v37.3h-5.9V223.1z"/>
	<path class="st2" d="M210.8,232c0-6,3.1-9.4,8.9-9.4s8.9,3.4,8.9,9.4v19.4c0,6-3.1,9.4-8.9,9.4s-8.9-3.4-8.9-9.4V232z M216.7,251.8
		c0,2.7,1.2,3.7,3,3.7c1.9,0,3-1,3-3.7v-20.1c0-2.7-1.2-3.7-3-3.7c-1.9,0-3,1-3,3.7V251.8z"/>
	<path class="st2" d="M237.6,233.4v27h-5.3v-37.3h7.3l6,22.3v-22.3h5.2v37.3h-6L237.6,233.4z"/>
</g>
<g>
	<g>
		<path class="st2" d="M55.8,134.7H69v3.9h-4.5v23.4h-4.3v-23.4h-4.5V134.7z"/>
		<path class="st2" d="M75.2,161.9h-4.3v-27.2h4.3v11.7H80v-11.7h4.4v27.2H80v-11.7h-4.9V161.9z"/>
		<path class="st2" d="M91.8,146.2h5.9v3.9h-5.9v8h7.4v3.9H87.5v-27.2h11.7v3.9h-7.4V146.2z"/>
	</g>
</g>
</svg>
