<?xml version="1.0" encoding="utf-8"?>
<!-- Generator: Adobe Illustrator 19.2.0, SVG Export Plug-In . SVG Version: 6.00 Build 0)  -->
<svg version="1.1" id="Layer_1" xmlns="http://www.w3.org/2000/svg" xmlns:xlink="http://www.w3.org/1999/xlink" x="0px" y="0px"
	 viewBox="0 0 514.2 168.9" style="enable-background:new 0 0 514.2 168.9;" xml:space="preserve">
<style type="text/css">
	.st0{fill:#5E3B7A;}
	.st1{fill:#532E63;}
	.st2{fill:#3B73B9;}
	.st3{fill:#2A78BB;}
	.st4{fill:#D15980;}
</style>
<g>
	<path class="st0" d="M26.3,129c-0.8-2-1.4-3.9-2.1-5.9c-2.1-0.8-4.1-1.9-6.2-3c2.4,6.2,5.5,13.5,9.8,18.2c4.5,5,5.9,3.8,3.8,0.6
		C29,134.9,27.8,132.9,26.3,129z"/>
	<path class="st1" d="M151.2,15.5c-18.9-14.1-54.9-21-83.7-9.8C24.8,22.2,2,70.7,15.8,113.9c2.2,1.1,4.4,1.9,6.7,2.6
		c-10.1-43,10.8-89.5,54.9-103.3c23.7-7.4,51.5-5.6,71.1,4.3C154.9,20.8,155.3,17.9,151.2,15.5z"/>
</g>
<g>
	<path class="st2" d="M132.5,28.7C100.9,15,63.4,25.8,43.6,54c-13.4,19.1-16.3,43.3-9.3,64.8c3,0.2,6.1,0.2,9-0.1
		c-2.3-7.8-3.4-16-2.9-24.3c1.5-25.6,17.4-48.5,40.4-59.5c15.9-7.3,33.6-8.4,50.5-3.6C134.8,32.3,136.7,30.6,132.5,28.7z"/>
	<path class="st3" d="M79.5,161.9c-15-7.5-26.5-20-33.1-34.8c-2.9,0.1-5.9,0-9.1-0.4c1.8,3.9,3.9,7.8,6.5,11.4
		c8.4,12.2,20.8,21.3,34.6,26.5C80.1,165.2,81.2,162.7,79.5,161.9z"/>
</g>
<path class="st4" d="M125.3,161.8c-17-0.9-29.9-5.1-40.6-15.4c-6.1-5.9-11.3-12.6-15-20c2-0.8,4-1.6,5.8-2.5
	c15.3-7.2,28.7-22,34.2-38c8-23.2,4.6-41.9-12.8-41.7c-20.5,1.6-39.1,24.1-42.3,48.4c-1.3,9.8-0.3,19.4,2.6,28.2
	C39.5,126.1,19,124.4,2.3,108c-1.1-1-3.1,0.6-2,1.7c23.1,23.7,44,24.2,60.4,19.6c2.7,5.3,6.1,10.4,10.2,14.9
	c13.7,15.2,33.7,20.9,54.7,19.6C127.2,163.8,126.9,161.9,125.3,161.8z M64.9,113.4c-2.8-11.3-0.9-22.3,2.5-33.5
	C72,64.5,87,47.7,97.1,47.4c13.3,0.8,7,32.2-6,50.4c-5.3,7.5-14.3,14.8-25.1,19.7C65.7,116.1,65.3,114.8,64.9,113.4z"/>
<g>
	<g>
		<path class="st2" d="M152.9,76.4v13.4c0,1.6,0.3,2.9,0.9,3.7c0.6,0.8,1.8,1.2,3.4,1.2c0.6,0,1.2,0,1.8-0.1
			c0.6-0.1,1.2-0.2,1.6-0.4l0.1,8.4c-0.8,0.3-1.8,0.5-3,0.7c-1.2,0.2-2.4,0.3-3.6,0.3c-2.3,0-4.3-0.3-5.9-0.9
			c-1.6-0.6-2.9-1.4-3.8-2.5c-1-1.1-1.6-2.4-2.1-3.9c-0.4-1.5-0.6-3.2-0.6-5.1V76.4H136v-8.6h5.5v-9.2h11.3v9.2h8.2v8.6H152.9z"/>
		<path class="st2" d="M189.5,102.8V83.9c0-1-0.1-1.9-0.2-2.8c-0.1-0.9-0.4-1.7-0.8-2.3c-0.4-0.7-0.9-1.2-1.6-1.6
			c-0.7-0.4-1.5-0.6-2.5-0.6c-2,0-3.6,0.7-4.6,2.1c-1.1,1.4-1.6,3.2-1.6,5.3v18.9h-11.5v-53h11.5v22.5h0.1c0.8-1.4,2.1-2.7,3.8-3.8
			c1.7-1.1,3.8-1.6,6.2-1.6c2.4,0,4.4,0.4,6,1.3c1.6,0.8,2.9,1.9,3.9,3.3c1,1.3,1.7,2.9,2.2,4.6c0.4,1.7,0.7,3.5,0.7,5.2v21.6H189.5
			z"/>
		<path class="st2" d="M242.9,85.7c0,0.5,0,0.9,0,1.4c0,0.5,0,0.9-0.1,1.3h-25.3c0.1,1,0.4,1.9,0.9,2.7c0.5,0.8,1.1,1.5,1.9,2.1
			c0.8,0.6,1.6,1,2.6,1.4c1,0.3,2,0.5,3,0.5c1.8,0,3.4-0.3,4.6-1c1.3-0.7,2.3-1.6,3.1-2.6l8,5c-1.6,2.4-3.8,4.2-6.5,5.5
			c-2.7,1.3-5.8,1.9-9.4,1.9c-2.6,0-5.1-0.4-7.4-1.2c-2.3-0.8-4.4-2-6.1-3.6c-1.8-1.6-3.1-3.5-4.1-5.8c-1-2.3-1.5-4.9-1.5-7.9
			c0-2.9,0.5-5.4,1.5-7.7c1-2.3,2.3-4.3,4-5.9c1.7-1.6,3.7-2.9,6-3.8c2.3-0.9,4.8-1.3,7.4-1.3c2.6,0,4.9,0.4,7.1,1.3
			c2.1,0.9,4,2.1,5.5,3.8c1.5,1.6,2.7,3.6,3.6,6C242.5,80.1,242.9,82.8,242.9,85.7z M232.4,81.3c0-1.8-0.6-3.4-1.7-4.7
			c-1.1-1.3-2.9-2-5.2-2c-1.1,0-2.2,0.2-3.1,0.5c-0.9,0.4-1.8,0.8-2.5,1.4c-0.7,0.6-1.3,1.3-1.7,2.1c-0.4,0.8-0.7,1.7-0.7,2.6H232.4
			z"/>
		<path class="st2" d="M269.9,77.3c-0.5-0.1-1-0.2-1.5-0.3c-0.5,0-1-0.1-1.4-0.1c-1.5,0-2.8,0.3-3.9,0.8c-1.1,0.6-1.9,1.2-2.5,2
			c-0.6,0.8-1.1,1.7-1.4,2.6c-0.3,0.9-0.4,1.7-0.4,2.4v17.9h-11.5V67.9h11.1v5h0.1c0.9-1.8,2.1-3.2,3.8-4.4c1.6-1.1,3.5-1.7,5.7-1.7
			c0.5,0,0.9,0,1.4,0.1c0.4,0,0.8,0.1,1.1,0.2L269.9,77.3z"/>
		<path class="st2" d="M308.4,85.7c0,0.5,0,0.9,0,1.4c0,0.5,0,0.9-0.1,1.3H283c0.1,1,0.4,1.9,0.9,2.7c0.5,0.8,1.1,1.5,1.9,2.1
			c0.8,0.6,1.6,1,2.6,1.4c1,0.3,2,0.5,3,0.5c1.8,0,3.4-0.3,4.6-1c1.3-0.7,2.3-1.6,3.1-2.6l8,5c-1.6,2.4-3.8,4.2-6.5,5.5
			c-2.7,1.3-5.8,1.9-9.4,1.9c-2.6,0-5.1-0.4-7.4-1.2c-2.3-0.8-4.4-2-6.1-3.6c-1.8-1.6-3.1-3.5-4.1-5.8c-1-2.3-1.5-4.9-1.5-7.9
			c0-2.9,0.5-5.4,1.5-7.7c1-2.3,2.3-4.3,4-5.9c1.7-1.6,3.7-2.9,6-3.8c2.3-0.9,4.8-1.3,7.4-1.3c2.6,0,4.9,0.4,7.1,1.3
			c2.1,0.9,4,2.1,5.5,3.8c1.5,1.6,2.7,3.6,3.6,6C308,80.1,308.4,82.8,308.4,85.7z M297.8,81.3c0-1.8-0.6-3.4-1.7-4.7
			c-1.1-1.3-2.9-2-5.2-2c-1.1,0-2.1,0.2-3.1,0.5c-0.9,0.4-1.8,0.8-2.5,1.4c-0.7,0.6-1.3,1.3-1.7,2.1c-0.4,0.8-0.7,1.7-0.7,2.6H297.8
			z"/>
		<path class="st2" d="M334.7,78.2c-0.9-0.9-2-1.6-3.3-2.2c-1.3-0.6-2.6-0.9-4-0.9c-1.1,0-2.1,0.2-3,0.6c-0.9,0.4-1.4,1.1-1.4,2.2
			c0,1,0.5,1.7,1.5,2.1c1,0.4,2.6,0.9,4.9,1.4c1.3,0.3,2.6,0.7,4,1.2c1.3,0.5,2.5,1.2,3.6,2c1.1,0.8,1.9,1.9,2.6,3.1
			c0.7,1.2,1,2.7,1,4.3c0,2.2-0.4,4.1-1.3,5.6c-0.9,1.5-2,2.7-3.5,3.7c-1.4,0.9-3,1.6-4.8,2c-1.8,0.4-3.6,0.6-5.3,0.6
			c-2.9,0-5.6-0.5-8.4-1.4c-2.7-0.9-5-2.3-6.8-4l6.4-6.8c1,1.1,2.3,2.1,3.8,2.8c1.5,0.7,3.1,1.1,4.8,1.1c0.9,0,1.9-0.2,2.8-0.7
			c0.9-0.4,1.4-1.2,1.4-2.3c0-1.1-0.6-1.9-1.7-2.4c-1.1-0.5-2.9-1.1-5.3-1.6c-1.2-0.3-2.4-0.7-3.6-1.1c-1.2-0.5-2.3-1.1-3.3-1.9
			c-1-0.8-1.7-1.8-2.3-2.9c-0.6-1.2-0.9-2.6-0.9-4.2c0-2.1,0.4-3.9,1.3-5.4c0.9-1.5,2-2.7,3.4-3.6c1.4-0.9,3-1.6,4.7-2.1
			c1.7-0.4,3.4-0.7,5.1-0.7c2.6,0,5.2,0.4,7.7,1.2c2.5,0.8,4.6,2,6.3,3.7L334.7,78.2z"/>
		<path class="st2" d="M345.4,72.6c2.1-2,4.5-3.4,7.2-4.4c2.7-1,5.5-1.5,8.4-1.5c2.9,0,5.4,0.4,7.5,1.1c2,0.7,3.7,1.8,4.9,3.4
			c1.3,1.5,2.2,3.4,2.8,5.7c0.6,2.3,0.9,5.1,0.9,8.2v17.6h-10.5v-3.7h-0.2c-0.9,1.4-2.2,2.6-4,3.4c-1.8,0.8-3.8,1.2-5.9,1.2
			c-1.4,0-2.9-0.2-4.3-0.6c-1.5-0.4-2.9-1-4.1-1.8c-1.2-0.8-2.3-2-3-3.4c-0.8-1.4-1.2-3.1-1.2-5.2c0-2.5,0.7-4.6,2.1-6.1
			c1.4-1.5,3.2-2.7,5.3-3.6c2.2-0.8,4.6-1.4,7.3-1.7c2.7-0.3,5.3-0.4,7.8-0.4v-0.6c0-1.7-0.6-3-1.8-3.8c-1.2-0.8-2.7-1.2-4.5-1.2
			c-1.6,0-3.2,0.4-4.7,1.1c-1.5,0.7-2.8,1.5-3.9,2.5L345.4,72.6z M366.5,87.6H365c-1.3,0-2.5,0.1-3.8,0.2c-1.3,0.1-2.4,0.3-3.4,0.7
			c-1,0.3-1.8,0.8-2.5,1.4c-0.7,0.6-1,1.5-1,2.5c0,0.7,0.2,1.2,0.5,1.7c0.3,0.5,0.7,0.8,1.2,1.1c0.5,0.3,1,0.5,1.6,0.6
			c0.6,0.1,1.2,0.2,1.8,0.2c2.3,0,4.1-0.6,5.4-1.9c1.2-1.3,1.9-3,1.9-5.2V87.6z"/>
		<path class="st2" d="M389.7,72.1h-8.8l5-19H396L389.7,72.1z"/>
		<path class="st2" d="M416.4,78.2c-0.9-0.9-2-1.6-3.3-2.2c-1.3-0.6-2.6-0.9-4-0.9c-1.1,0-2.1,0.2-3,0.6c-0.9,0.4-1.4,1.1-1.4,2.2
			c0,1,0.5,1.7,1.5,2.1c1,0.4,2.6,0.9,4.9,1.4c1.3,0.3,2.6,0.7,4,1.2c1.3,0.5,2.5,1.2,3.6,2c1.1,0.8,1.9,1.9,2.6,3.1
			c0.7,1.2,1,2.7,1,4.3c0,2.2-0.4,4.1-1.3,5.6c-0.9,1.5-2,2.7-3.5,3.7c-1.4,0.9-3,1.6-4.8,2c-1.8,0.4-3.6,0.6-5.3,0.6
			c-2.9,0-5.6-0.5-8.4-1.4c-2.7-0.9-5-2.3-6.8-4l6.4-6.8c1,1.1,2.3,2.1,3.8,2.8c1.5,0.7,3.1,1.1,4.8,1.1c0.9,0,1.9-0.2,2.8-0.7
			c0.9-0.4,1.4-1.2,1.4-2.3c0-1.1-0.6-1.9-1.7-2.4c-1.1-0.5-2.9-1.1-5.3-1.6c-1.2-0.3-2.4-0.7-3.6-1.1c-1.2-0.5-2.3-1.1-3.3-1.9
			c-1-0.8-1.7-1.8-2.3-2.9c-0.6-1.2-0.9-2.6-0.9-4.2c0-2.1,0.4-3.9,1.3-5.4c0.9-1.5,2-2.7,3.4-3.6c1.4-0.9,3-1.6,4.7-2.1
			c1.7-0.4,3.4-0.7,5.1-0.7c2.6,0,5.2,0.4,7.7,1.2c2.5,0.8,4.6,2,6.3,3.7L416.4,78.2z"/>
	</g>
	<g>
		<path class="st1" d="M109.8,123.6c0-0.8-0.1-1.4-0.1-2h2.5c0,0.5,0.1,1,0.1,1.6c0,0.6,0,1.1,0,1.4h0.1c0.5-1,1.3-1.9,2.3-2.5
			c1-0.6,2.1-1,3.4-1c0.3,0,0.6,0,0.9,0c0.3,0,0.5,0.1,0.8,0.2l-0.3,2.5c-0.2-0.1-0.4-0.1-0.8-0.2c-0.4-0.1-0.7-0.1-1.1-0.1
			c-0.7,0-1.3,0.1-2,0.4c-0.6,0.3-1.2,0.6-1.6,1.2c-0.5,0.5-0.8,1.2-1.1,2.1c-0.3,0.8-0.4,1.9-0.4,3v9h-2.6v-13.8
			C109.8,124.9,109.8,124.3,109.8,123.6z"/>
		<path class="st1" d="M138.8,129.8c0,0.2,0,0.4,0,0.6c0,0.2,0,0.4,0,0.6h-14.6c0,0.9,0.2,1.7,0.5,2.5c0.3,0.8,0.8,1.5,1.4,2
			c0.6,0.6,1.3,1,2,1.4c0.8,0.3,1.6,0.5,2.5,0.5c1.3,0,2.5-0.3,3.5-0.9c1-0.6,1.7-1.3,2.2-2.1l1.9,1.5c-1.1,1.3-2.2,2.3-3.5,2.9
			c-1.3,0.6-2.6,0.9-4.1,0.9c-1.3,0-2.5-0.2-3.6-0.7c-1.1-0.5-2.1-1.1-2.9-1.9c-0.8-0.8-1.4-1.8-1.9-2.9c-0.5-1.1-0.7-2.4-0.7-3.7
			c0-1.3,0.2-2.6,0.7-3.7c0.5-1.1,1.1-2.1,1.9-2.9c0.8-0.8,1.7-1.5,2.8-1.9c1.1-0.5,2.3-0.7,3.5-0.7c1.4,0,2.6,0.2,3.7,0.7
			c1.1,0.5,1.9,1.1,2.6,1.9c0.7,0.8,1.2,1.7,1.6,2.8C138.7,127.5,138.8,128.6,138.8,129.8z M136.2,129c-0.1-1.7-0.6-3-1.6-4.1
			c-1-1.1-2.4-1.6-4.2-1.6c-0.9,0-1.6,0.2-2.4,0.5c-0.7,0.3-1.4,0.7-1.9,1.3c-0.6,0.5-1,1.2-1.3,1.8c-0.3,0.7-0.5,1.4-0.6,2.2H136.2
			z"/>
		<path class="st1" d="M153.7,125.7c-0.4-0.7-1-1.3-1.7-1.8c-0.8-0.5-1.6-0.7-2.6-0.7c-0.5,0-0.9,0.1-1.4,0.2
			c-0.5,0.1-0.9,0.3-1.2,0.5c-0.4,0.2-0.6,0.5-0.8,0.9c-0.2,0.4-0.3,0.8-0.3,1.2c0,0.8,0.3,1.5,1,1.9c0.7,0.4,1.7,0.8,3.2,1.1
			c2.1,0.4,3.6,1.1,4.6,1.9c1,0.8,1.5,1.9,1.5,3.3c0,1-0.2,1.9-0.6,2.5c-0.4,0.7-0.9,1.3-1.5,1.7c-0.6,0.4-1.3,0.8-2.1,0.9
			c-0.8,0.2-1.6,0.3-2.4,0.3c-1.3,0-2.6-0.3-3.9-0.8c-1.3-0.6-2.3-1.4-3.1-2.6l2-1.5c0.5,0.8,1.1,1.4,2,2c0.9,0.5,1.9,0.8,2.9,0.8
			c0.6,0,1.1-0.1,1.6-0.2c0.5-0.1,0.9-0.3,1.3-0.5c0.4-0.3,0.7-0.6,0.9-1c0.2-0.4,0.3-0.9,0.3-1.5c0-0.9-0.4-1.6-1.3-2.1
			c-0.9-0.5-2.2-0.9-3.9-1.3c-0.5-0.1-1.1-0.3-1.7-0.5c-0.6-0.2-1.1-0.5-1.6-0.8c-0.5-0.4-0.9-0.8-1.2-1.4c-0.3-0.6-0.5-1.2-0.5-2.1
			c0-0.9,0.2-1.7,0.5-2.3c0.4-0.6,0.8-1.2,1.4-1.6c0.6-0.4,1.3-0.7,2-0.9c0.8-0.2,1.5-0.3,2.3-0.3c1.2,0,2.4,0.3,3.6,0.8
			c1.2,0.6,2,1.3,2.6,2.3L153.7,125.7z"/>
		<path class="st1" d="M177.2,129.8c0,0.2,0,0.4,0,0.6c0,0.2,0,0.4,0,0.6h-14.6c0,0.9,0.2,1.7,0.5,2.5c0.3,0.8,0.8,1.5,1.4,2
			c0.6,0.6,1.3,1,2,1.4c0.8,0.3,1.6,0.5,2.5,0.5c1.3,0,2.5-0.3,3.5-0.9c1-0.6,1.7-1.3,2.2-2.1l1.9,1.5c-1.1,1.3-2.2,2.3-3.5,2.9
			c-1.3,0.6-2.6,0.9-4.1,0.9c-1.3,0-2.5-0.2-3.6-0.7c-1.1-0.5-2.1-1.1-2.9-1.9c-0.8-0.8-1.4-1.8-1.9-2.9c-0.5-1.1-0.7-2.4-0.7-3.7
			c0-1.3,0.2-2.6,0.7-3.7c0.5-1.1,1.1-2.1,1.9-2.9c0.8-0.8,1.7-1.5,2.8-1.9c1.1-0.5,2.3-0.7,3.5-0.7c1.4,0,2.6,0.2,3.7,0.7
			c1.1,0.5,1.9,1.1,2.6,1.9c0.7,0.8,1.2,1.7,1.6,2.8C177,127.5,177.2,128.6,177.2,129.8z M174.6,129c-0.1-1.7-0.6-3-1.6-4.1
			c-1-1.1-2.4-1.6-4.2-1.6c-0.9,0-1.6,0.2-2.4,0.5c-0.7,0.3-1.4,0.7-1.9,1.3c-0.6,0.5-1,1.2-1.3,1.8c-0.3,0.7-0.5,1.4-0.6,2.2H174.6
			z"/>
		<path class="st1" d="M193.6,127.7c0-1.5-0.4-2.7-1.2-3.4c-0.8-0.7-2-1.1-3.5-1.1c-1.1,0-2,0.2-2.9,0.6c-0.9,0.4-1.7,0.9-2.3,1.5
			l-1.4-1.7c0.7-0.7,1.7-1.3,2.9-1.8c1.2-0.5,2.5-0.7,4.1-0.7c1,0,1.8,0.1,2.7,0.4c0.8,0.3,1.6,0.7,2.2,1.2c0.6,0.5,1.1,1.2,1.5,2
			c0.4,0.8,0.5,1.7,0.5,2.8v7.7c0,0.7,0,1.4,0.1,2.1c0,0.7,0.1,1.3,0.2,1.8H194c-0.1-0.4-0.1-0.9-0.2-1.4c-0.1-0.5-0.1-1-0.1-1.5
			h-0.1c-0.8,1.2-1.7,2-2.7,2.5c-1,0.5-2.2,0.8-3.7,0.8c-0.7,0-1.4-0.1-2.1-0.3c-0.7-0.2-1.4-0.5-2-0.9c-0.6-0.4-1.1-1-1.5-1.7
			c-0.4-0.7-0.6-1.5-0.6-2.5c0-1.4,0.3-2.4,1-3.2c0.7-0.8,1.6-1.4,2.8-1.8c1.2-0.4,2.5-0.6,4-0.8c1.5-0.1,3.1-0.2,4.7-0.2V127.7z
			 M192.9,130.3c-1.1,0-2.1,0-3.2,0.1c-1.1,0.1-2,0.3-2.9,0.5c-0.9,0.3-1.6,0.6-2.1,1.2c-0.6,0.5-0.8,1.2-0.8,2
			c0,0.6,0.1,1.2,0.4,1.6c0.2,0.4,0.6,0.8,1,1c0.4,0.3,0.8,0.5,1.3,0.6c0.5,0.1,1,0.2,1.5,0.2c0.9,0,1.7-0.2,2.4-0.5
			c0.7-0.3,1.3-0.7,1.8-1.3c0.5-0.5,0.8-1.2,1.1-1.9c0.3-0.7,0.4-1.4,0.4-2.2v-1.3H192.9z"/>
		<path class="st1" d="M202.6,123.6c0-0.8-0.1-1.4-0.1-2h2.5c0,0.5,0.1,1,0.1,1.6c0,0.6,0,1.1,0,1.4h0.1c0.5-1,1.3-1.9,2.3-2.5
			c1-0.6,2.1-1,3.4-1c0.3,0,0.6,0,0.9,0c0.3,0,0.5,0.1,0.8,0.2l-0.3,2.5c-0.2-0.1-0.4-0.1-0.8-0.2c-0.4-0.1-0.7-0.1-1.1-0.1
			c-0.7,0-1.3,0.1-2,0.4c-0.6,0.3-1.2,0.6-1.6,1.2c-0.5,0.5-0.8,1.2-1.1,2.1c-0.3,0.8-0.4,1.9-0.4,3v9h-2.6v-13.8
			C202.6,124.9,202.6,124.3,202.6,123.6z"/>
		<path class="st1" d="M228.3,125.6c-0.4-0.7-1.1-1.2-1.9-1.7c-0.8-0.4-1.7-0.7-2.7-0.7c-1,0-2,0.2-2.8,0.5
			c-0.8,0.4-1.5,0.9-2.1,1.5c-0.6,0.6-1,1.4-1.4,2.3c-0.3,0.9-0.5,1.8-0.5,2.8c0,1,0.2,1.9,0.5,2.8c0.3,0.9,0.8,1.6,1.3,2.2
			c0.6,0.6,1.3,1.1,2.1,1.5c0.8,0.4,1.8,0.5,2.8,0.5c1.1,0,2.1-0.2,2.9-0.6c0.8-0.4,1.4-1,1.9-1.7l1.9,1.4c-0.8,0.9-1.7,1.7-2.8,2.2
			c-1.1,0.6-2.4,0.8-3.9,0.8c-1.4,0-2.7-0.2-3.9-0.7c-1.2-0.5-2.1-1.1-3-1.9c-0.8-0.8-1.5-1.8-1.9-2.9c-0.5-1.1-0.7-2.4-0.7-3.7
			c0-1.3,0.2-2.6,0.7-3.7c0.5-1.1,1.1-2.1,1.9-2.9c0.8-0.8,1.8-1.5,3-1.9c1.2-0.5,2.5-0.7,3.9-0.7c1.2,0,2.4,0.3,3.6,0.8
			c1.2,0.5,2.2,1.3,3,2.3L228.3,125.6z"/>
		<path class="st1" d="M237.1,124.4c0.5-1,1.3-1.8,2.4-2.5c1.1-0.6,2.3-0.9,3.5-0.9c2.2,0,3.9,0.7,5,2c1.1,1.3,1.7,3.1,1.7,5.3v10.8
			h-2.6v-9.8c0-0.9-0.1-1.8-0.2-2.5c-0.2-0.8-0.4-1.4-0.8-1.9c-0.4-0.5-0.9-1-1.5-1.3c-0.6-0.3-1.4-0.5-2.3-0.5
			c-0.7,0-1.3,0.1-2,0.4c-0.6,0.3-1.2,0.7-1.7,1.3c-0.5,0.6-0.9,1.3-1.2,2.2c-0.3,0.9-0.5,1.9-0.5,3.1v9.1h-2.6v-28.5h2.6
			L237.1,124.4L237.1,124.4z"/>
		<path class="st1" d="M273.3,123.7h-4.2v15.5h-2.6v-15.5h-3.7v-2.2h3.7v-4.8c0-2,0.5-3.6,1.5-4.8c1-1.2,2.5-1.7,4.5-1.7
			c0.3,0,0.7,0,1.1,0.1c0.4,0,0.7,0.1,1.1,0.2l-0.5,2.3c-0.3-0.1-0.6-0.1-0.8-0.2c-0.3-0.1-0.6-0.1-0.9-0.1c-0.7,0-1.2,0.1-1.7,0.3
			c-0.4,0.2-0.8,0.5-1,1c-0.2,0.4-0.4,0.9-0.5,1.5c-0.1,0.6-0.1,1.1-0.1,1.8v4.5h4.2V123.7z"/>
		<path class="st1" d="M294.5,130.3c0,1.3-0.2,2.6-0.7,3.7c-0.5,1.1-1.1,2.1-1.9,2.9c-0.8,0.8-1.8,1.5-3,1.9
			c-1.2,0.5-2.4,0.7-3.8,0.7c-1.4,0-2.6-0.2-3.8-0.7c-1.2-0.5-2.2-1.1-3-1.9c-0.8-0.8-1.5-1.8-1.9-2.9c-0.5-1.1-0.7-2.4-0.7-3.7
			c0-1.3,0.2-2.6,0.7-3.7c0.5-1.1,1.1-2.1,1.9-2.9c0.8-0.8,1.8-1.5,3-1.9c1.2-0.5,2.4-0.7,3.8-0.7c1.4,0,2.7,0.2,3.8,0.7
			c1.2,0.5,2.2,1.1,3,1.9c0.8,0.8,1.5,1.8,1.9,2.9C294.3,127.8,294.5,129,294.5,130.3z M291.8,130.3c0-1-0.2-1.9-0.5-2.8
			c-0.3-0.9-0.8-1.6-1.3-2.3c-0.6-0.6-1.3-1.2-2.1-1.5c-0.8-0.4-1.8-0.6-2.8-0.6c-1,0-2,0.2-2.8,0.6c-0.8,0.4-1.5,0.9-2.1,1.5
			c-0.6,0.6-1,1.4-1.3,2.3c-0.3,0.9-0.5,1.8-0.5,2.8c0,1,0.2,1.9,0.5,2.8c0.3,0.9,0.8,1.6,1.3,2.3c0.6,0.6,1.3,1.1,2.1,1.5
			c0.8,0.4,1.7,0.5,2.8,0.5c1,0,2-0.2,2.8-0.5c0.8-0.4,1.5-0.9,2.1-1.5c0.6-0.6,1-1.4,1.3-2.3C291.7,132.3,291.8,131.3,291.8,130.3z
			"/>
		<path class="st1" d="M312.9,139.2c-0.1-0.5-0.1-1-0.1-1.6c0-0.6,0-1.1,0-1.4h-0.1c-0.5,1-1.3,1.9-2.5,2.5c-1.1,0.6-2.3,1-3.6,1
			c-2.2,0-3.9-0.7-5-2c-1.1-1.3-1.7-3.1-1.7-5.3v-10.8h2.6v9.8c0,0.9,0.1,1.8,0.2,2.5c0.2,0.8,0.4,1.4,0.8,1.9
			c0.4,0.5,0.9,1,1.5,1.3c0.6,0.3,1.4,0.5,2.3,0.5c0.7,0,1.3-0.1,2-0.4c0.6-0.3,1.2-0.7,1.7-1.3c0.5-0.6,0.9-1.3,1.2-2.2
			c0.3-0.9,0.5-1.9,0.5-3.1v-9.1h2.6v13.8c0,0.5,0,1.1,0,1.8c0,0.8,0.1,1.4,0.1,2H312.9z"/>
		<path class="st1" d="M324.3,121.5c0,0.5,0.1,1,0.1,1.6c0,0.6,0,1.1,0,1.4h0.1c0.5-1,1.3-1.9,2.5-2.5c1.1-0.6,2.3-1,3.6-1
			c2.2,0,3.9,0.7,5,2c1.1,1.3,1.7,3.1,1.7,5.3v10.8h-2.6v-9.8c0-0.9-0.1-1.8-0.2-2.5c-0.2-0.8-0.4-1.4-0.8-1.9
			c-0.4-0.5-0.9-1-1.5-1.3c-0.6-0.3-1.4-0.5-2.3-0.5c-0.7,0-1.3,0.1-2,0.4c-0.6,0.3-1.2,0.7-1.7,1.3c-0.5,0.6-0.9,1.3-1.2,2.2
			c-0.3,0.9-0.5,1.9-0.5,3.1v9.1H322v-13.8c0-0.5,0-1.1,0-1.8c0-0.8-0.1-1.4-0.1-2H324.3z"/>
		<path class="st1" d="M358.5,136.2c-0.8,1.1-1.7,2-2.9,2.6c-1.2,0.6-2.5,0.9-3.7,0.9c-1.4,0-2.6-0.2-3.8-0.7
			c-1.1-0.5-2.1-1.1-2.9-2c-0.8-0.8-1.4-1.8-1.8-2.9c-0.4-1.1-0.7-2.4-0.7-3.7c0-1.3,0.2-2.5,0.7-3.7c0.4-1.1,1.1-2.1,1.8-2.9
			c0.8-0.8,1.7-1.5,2.9-2c1.1-0.5,2.4-0.7,3.8-0.7c1.3,0,2.5,0.3,3.7,0.9c1.2,0.6,2.2,1.5,2.9,2.6h0.1v-13.9h2.6v28.5h-2.6
			L358.5,136.2L358.5,136.2z M345.4,130.3c0,1,0.2,1.9,0.5,2.8c0.3,0.9,0.7,1.6,1.3,2.3c0.6,0.6,1.3,1.1,2.1,1.5
			c0.8,0.4,1.8,0.5,2.8,0.5c1,0,1.9-0.2,2.7-0.5c0.8-0.4,1.5-0.9,2.2-1.5c0.6-0.6,1.1-1.4,1.4-2.2c0.3-0.9,0.5-1.8,0.5-2.8
			c0-1-0.2-1.9-0.5-2.8c-0.3-0.9-0.8-1.6-1.4-2.3c-0.6-0.6-1.3-1.1-2.2-1.5c-0.8-0.4-1.7-0.5-2.7-0.5c-1.1,0-2,0.2-2.8,0.6
			c-0.8,0.4-1.5,0.9-2.1,1.5c-0.6,0.6-1,1.4-1.3,2.3C345.5,128.4,345.4,129.4,345.4,130.3z"/>
		<path class="st1" d="M379.1,127.7c0-1.5-0.4-2.7-1.2-3.4c-0.8-0.7-2-1.1-3.5-1.1c-1.1,0-2,0.2-2.9,0.6c-0.9,0.4-1.7,0.9-2.3,1.5
			l-1.4-1.7c0.7-0.7,1.7-1.3,2.9-1.8c1.2-0.5,2.5-0.7,4.1-0.7c1,0,1.8,0.1,2.7,0.4c0.8,0.3,1.6,0.7,2.2,1.2c0.6,0.5,1.1,1.2,1.5,2
			c0.4,0.8,0.5,1.7,0.5,2.8v7.7c0,0.7,0,1.4,0.1,2.1c0.1,0.7,0.1,1.3,0.2,1.8h-2.3c-0.1-0.4-0.1-0.9-0.2-1.4c-0.1-0.5-0.1-1-0.1-1.5
			h-0.1c-0.8,1.2-1.7,2-2.7,2.5c-1,0.5-2.2,0.8-3.7,0.8c-0.7,0-1.4-0.1-2.1-0.3c-0.7-0.2-1.4-0.5-2-0.9c-0.6-0.4-1.1-1-1.5-1.7
			c-0.4-0.7-0.6-1.5-0.6-2.5c0-1.4,0.3-2.4,1-3.2c0.7-0.8,1.6-1.4,2.8-1.8c1.2-0.4,2.5-0.6,4-0.8c1.5-0.1,3.1-0.2,4.7-0.2V127.7z
			 M378.3,130.3c-1.1,0-2.1,0-3.2,0.1c-1.1,0.1-2,0.3-2.9,0.5c-0.9,0.3-1.6,0.6-2.1,1.2c-0.6,0.5-0.8,1.2-0.8,2
			c0,0.6,0.1,1.2,0.4,1.6c0.2,0.4,0.6,0.8,1,1c0.4,0.3,0.8,0.5,1.3,0.6c0.5,0.1,1,0.2,1.5,0.2c0.9,0,1.7-0.2,2.4-0.5
			c0.7-0.3,1.3-0.7,1.8-1.3c0.5-0.5,0.8-1.2,1.1-1.9c0.3-0.7,0.4-1.4,0.4-2.2v-1.3H378.3z"/>
		<path class="st1" d="M395.7,123.7h-5V134c0,0.7,0.1,1.2,0.2,1.6c0.1,0.4,0.3,0.8,0.5,1c0.2,0.2,0.5,0.4,0.8,0.5
			c0.3,0.1,0.7,0.1,1.1,0.1c0.4,0,0.7-0.1,1.1-0.2c0.4-0.1,0.8-0.2,1.1-0.4l0.1,2.2c-0.5,0.2-0.9,0.3-1.4,0.4
			c-0.5,0.1-1,0.1-1.6,0.1c-0.5,0-1-0.1-1.5-0.2c-0.5-0.1-1-0.4-1.5-0.7c-0.5-0.4-0.8-0.8-1.1-1.4c-0.3-0.6-0.4-1.4-0.4-2.4v-11
			h-3.7v-2.2h3.7v-5h2.6v5h5V123.7z"/>
		<path class="st1" d="M402.8,114.7c0,0.5-0.2,1-0.6,1.3c-0.4,0.3-0.8,0.5-1.2,0.5s-0.9-0.2-1.2-0.5c-0.4-0.3-0.6-0.8-0.6-1.3
			c0-0.5,0.2-1,0.6-1.3c0.4-0.3,0.8-0.5,1.2-0.5s0.9,0.2,1.2,0.5C402.7,113.8,402.8,114.2,402.8,114.7z M402.3,139.2h-2.6v-17.7h2.6
			V139.2z"/>
		<path class="st1" d="M426.7,130.3c0,1.3-0.2,2.6-0.7,3.7c-0.5,1.1-1.1,2.1-1.9,2.9c-0.8,0.8-1.8,1.5-3,1.9
			c-1.2,0.5-2.4,0.7-3.8,0.7c-1.4,0-2.6-0.2-3.8-0.7c-1.2-0.5-2.2-1.1-3-1.9c-0.8-0.8-1.5-1.8-1.9-2.9c-0.5-1.1-0.7-2.4-0.7-3.7
			c0-1.3,0.2-2.6,0.7-3.7c0.5-1.1,1.1-2.1,1.9-2.9c0.8-0.8,1.8-1.5,3-1.9c1.2-0.5,2.4-0.7,3.8-0.7c1.4,0,2.7,0.2,3.8,0.7
			c1.2,0.5,2.2,1.1,3,1.9c0.8,0.8,1.5,1.8,1.9,2.9C426.5,127.8,426.7,129,426.7,130.3z M424,130.3c0-1-0.2-1.9-0.5-2.8
			c-0.3-0.9-0.8-1.6-1.3-2.3c-0.6-0.6-1.3-1.2-2.1-1.5c-0.8-0.4-1.8-0.6-2.8-0.6c-1,0-2,0.2-2.8,0.6c-0.8,0.4-1.5,0.9-2.1,1.5
			c-0.6,0.6-1,1.4-1.3,2.3c-0.3,0.9-0.5,1.8-0.5,2.8c0,1,0.2,1.9,0.5,2.8c0.3,0.9,0.8,1.6,1.3,2.3c0.6,0.6,1.3,1.1,2.1,1.5
			c0.8,0.4,1.7,0.5,2.8,0.5c1,0,2-0.2,2.8-0.5c0.8-0.4,1.5-0.9,2.1-1.5c0.6-0.6,1-1.4,1.3-2.3C423.8,132.3,424,131.3,424,130.3z"/>
		<path class="st1" d="M434.5,121.5c0,0.5,0.1,1,0.1,1.6c0,0.6,0,1.1,0,1.4h0.1c0.5-1,1.3-1.9,2.5-2.5c1.1-0.6,2.3-1,3.6-1
			c2.2,0,3.9,0.7,5,2c1.1,1.3,1.7,3.1,1.7,5.3v10.8h-2.6v-9.8c0-0.9-0.1-1.8-0.2-2.5c-0.2-0.8-0.4-1.4-0.8-1.9
			c-0.4-0.5-0.9-1-1.5-1.3c-0.6-0.3-1.4-0.5-2.3-0.5c-0.7,0-1.3,0.1-2,0.4c-0.6,0.3-1.2,0.7-1.7,1.3c-0.5,0.6-0.9,1.3-1.2,2.2
			c-0.3,0.9-0.5,1.9-0.5,3.1v9.1h-2.6v-13.8c0-0.5,0-1.1,0-1.8c0-0.8-0.1-1.4-0.1-2H434.5z"/>
	</g>
</g>
<g>
	<path class="st2" d="M142.2,159.2c-0.2-0.3-0.5-0.5-0.8-0.7c-0.4-0.2-0.7-0.3-1.1-0.3c-0.4,0-0.8,0.1-1.2,0.2
		c-0.4,0.2-0.7,0.4-0.9,0.6c-0.3,0.3-0.4,0.6-0.6,1c-0.1,0.4-0.2,0.8-0.2,1.2c0,0.4,0.1,0.8,0.2,1.2c0.1,0.4,0.3,0.7,0.6,1
		c0.2,0.3,0.5,0.5,0.9,0.6c0.4,0.2,0.8,0.2,1.2,0.2c0.5,0,0.9-0.1,1.2-0.3s0.6-0.4,0.8-0.7l0.8,0.6c-0.3,0.4-0.7,0.7-1.2,1
		c-0.5,0.2-1,0.4-1.7,0.4c-0.6,0-1.2-0.1-1.7-0.3c-0.5-0.2-0.9-0.5-1.3-0.8c-0.4-0.4-0.6-0.8-0.8-1.3c-0.2-0.5-0.3-1-0.3-1.6
		c0-0.6,0.1-1.1,0.3-1.6c0.2-0.5,0.5-0.9,0.8-1.3c0.4-0.4,0.8-0.6,1.3-0.8c0.5-0.2,1.1-0.3,1.7-0.3c0.5,0,1,0.1,1.5,0.3
		c0.5,0.2,0.9,0.5,1.3,1L142.2,159.2z"/>
	<path class="st2" d="M146,158.7c0.2-0.4,0.5-0.8,1-1.1c0.5-0.3,1-0.4,1.5-0.4c1,0,1.7,0.3,2.2,0.9c0.5,0.6,0.7,1.3,0.7,2.3v4.6
		h-1.1v-4.2c0-0.4,0-0.8-0.1-1.1c-0.1-0.3-0.2-0.6-0.3-0.8c-0.2-0.2-0.4-0.4-0.6-0.5c-0.3-0.1-0.6-0.2-1-0.2c-0.3,0-0.6,0.1-0.8,0.2
		c-0.3,0.1-0.5,0.3-0.7,0.5c-0.2,0.2-0.4,0.6-0.5,0.9c-0.1,0.4-0.2,0.8-0.2,1.3v3.9h-1.1v-12.2h1.1L146,158.7L146,158.7z"/>
	<path class="st2" d="M159,160.1c0-0.7-0.2-1.1-0.5-1.5c-0.3-0.3-0.8-0.5-1.5-0.5c-0.5,0-0.9,0.1-1.3,0.2c-0.4,0.2-0.7,0.4-1,0.6
		l-0.6-0.7c0.3-0.3,0.7-0.6,1.2-0.8c0.5-0.2,1.1-0.3,1.7-0.3c0.4,0,0.8,0.1,1.1,0.2c0.4,0.1,0.7,0.3,0.9,0.5
		c0.3,0.2,0.5,0.5,0.6,0.9c0.2,0.3,0.2,0.7,0.2,1.2v3.3c0,0.3,0,0.6,0,0.9c0,0.3,0.1,0.6,0.1,0.8h-1c0-0.2-0.1-0.4-0.1-0.6
		c0-0.2,0-0.4,0-0.6h0c-0.3,0.5-0.7,0.9-1.2,1.1c-0.4,0.2-1,0.3-1.6,0.3c-0.3,0-0.6,0-0.9-0.1c-0.3-0.1-0.6-0.2-0.8-0.4
		c-0.3-0.2-0.5-0.4-0.6-0.7c-0.2-0.3-0.3-0.6-0.3-1.1c0-0.6,0.1-1,0.4-1.4c0.3-0.3,0.7-0.6,1.2-0.8c0.5-0.2,1.1-0.3,1.7-0.3
		c0.6,0,1.3-0.1,2-0.1V160.1z M158.7,161.2c-0.5,0-0.9,0-1.4,0.1c-0.5,0-0.9,0.1-1.2,0.2c-0.4,0.1-0.7,0.3-0.9,0.5
		c-0.2,0.2-0.4,0.5-0.4,0.9c0,0.3,0.1,0.5,0.2,0.7c0.1,0.2,0.2,0.3,0.4,0.4c0.2,0.1,0.4,0.2,0.6,0.2c0.2,0,0.4,0.1,0.6,0.1
		c0.4,0,0.7-0.1,1-0.2c0.3-0.1,0.6-0.3,0.8-0.5c0.2-0.2,0.4-0.5,0.5-0.8c0.1-0.3,0.2-0.6,0.2-1v-0.6H158.7z"/>
	<path class="st2" d="M163.9,157.5c0,0.2,0,0.4,0,0.7c0,0.2,0,0.5,0,0.6h0c0.2-0.4,0.6-0.8,1.1-1.1c0.5-0.3,1-0.4,1.5-0.4
		c1,0,1.7,0.3,2.2,0.9c0.5,0.6,0.7,1.3,0.7,2.3v4.6h-1.1v-4.2c0-0.4,0-0.8-0.1-1.1c-0.1-0.3-0.2-0.6-0.3-0.8
		c-0.2-0.2-0.4-0.4-0.6-0.5c-0.3-0.1-0.6-0.2-1-0.2c-0.3,0-0.6,0.1-0.8,0.2c-0.3,0.1-0.5,0.3-0.7,0.5c-0.2,0.2-0.4,0.6-0.5,0.9
		c-0.1,0.4-0.2,0.8-0.2,1.3v3.9h-1.1v-5.9c0-0.2,0-0.5,0-0.8c0-0.3,0-0.6,0-0.9H163.9z"/>
	<path class="st2" d="M172.7,166.6c0.3,0.4,0.7,0.7,1.2,1c0.5,0.3,1.1,0.4,1.7,0.4c0.5,0,1-0.1,1.4-0.2c0.4-0.2,0.7-0.4,0.9-0.6
		c0.2-0.3,0.4-0.6,0.5-0.9c0.1-0.4,0.2-0.7,0.2-1.2v-1.4h0c-0.3,0.5-0.7,0.8-1.2,1.1c-0.5,0.3-1.1,0.4-1.6,0.4
		c-0.6,0-1.1-0.1-1.6-0.3c-0.5-0.2-0.9-0.5-1.2-0.8c-0.3-0.3-0.6-0.7-0.8-1.2c-0.2-0.5-0.3-1-0.3-1.5c0-0.5,0.1-1,0.3-1.5
		c0.2-0.5,0.5-0.9,0.8-1.2c0.3-0.4,0.7-0.6,1.2-0.8c0.5-0.2,1-0.3,1.6-0.3c0.6,0,1.1,0.1,1.6,0.4c0.5,0.3,0.9,0.6,1.2,1.1h0v-1.3
		h1.1v7.5c0,0.4-0.1,0.8-0.2,1.3c-0.1,0.5-0.3,0.9-0.6,1.3c-0.3,0.4-0.7,0.7-1.3,1c-0.5,0.3-1.2,0.4-2.1,0.4c-0.7,0-1.4-0.1-2-0.4
		c-0.6-0.3-1.2-0.6-1.6-1.1L172.7,166.6z M172.9,161.1c0,0.4,0.1,0.8,0.2,1.1c0.1,0.4,0.3,0.7,0.6,0.9c0.2,0.3,0.5,0.5,0.9,0.6
		c0.4,0.2,0.8,0.2,1.2,0.2c0.4,0,0.8-0.1,1.2-0.2c0.4-0.1,0.7-0.3,0.9-0.6c0.3-0.3,0.5-0.6,0.6-0.9c0.1-0.4,0.2-0.8,0.2-1.2
		c0-0.4-0.1-0.8-0.2-1.1c-0.1-0.4-0.3-0.7-0.6-0.9c-0.3-0.3-0.6-0.5-0.9-0.6c-0.4-0.2-0.7-0.2-1.2-0.2c-0.5,0-0.9,0.1-1.2,0.2
		c-0.4,0.2-0.7,0.4-0.9,0.6c-0.2,0.3-0.4,0.6-0.6,0.9C173,160.4,172.9,160.7,172.9,161.1z"/>
	<path class="st2" d="M183.9,154.5c0,0.2-0.1,0.4-0.2,0.6c-0.2,0.1-0.3,0.2-0.5,0.2c-0.2,0-0.4-0.1-0.5-0.2
		c-0.2-0.1-0.2-0.3-0.2-0.6c0-0.2,0.1-0.4,0.2-0.6c0.2-0.1,0.3-0.2,0.5-0.2c0.2,0,0.4,0.1,0.5,0.2
		C183.8,154.1,183.9,154.3,183.9,154.5z M183.6,165h-1.1v-7.6h1.1V165z"/>
	<path class="st2" d="M187.5,157.5c0,0.2,0,0.4,0,0.7c0,0.2,0,0.5,0,0.6h0c0.2-0.4,0.6-0.8,1.1-1.1c0.5-0.3,1-0.4,1.5-0.4
		c1,0,1.7,0.3,2.2,0.9c0.5,0.6,0.7,1.3,0.7,2.3v4.6H192v-4.2c0-0.4,0-0.8-0.1-1.1c-0.1-0.3-0.2-0.6-0.3-0.8
		c-0.2-0.2-0.4-0.4-0.6-0.5c-0.3-0.1-0.6-0.2-1-0.2c-0.3,0-0.6,0.1-0.8,0.2c-0.3,0.1-0.5,0.3-0.7,0.5c-0.2,0.2-0.4,0.6-0.5,0.9
		c-0.1,0.4-0.2,0.8-0.2,1.3v3.9h-1.1v-5.9c0-0.2,0-0.5,0-0.8c0-0.3,0-0.6,0-0.9H187.5z"/>
	<path class="st2" d="M196.4,166.6c0.3,0.4,0.7,0.7,1.2,1c0.5,0.3,1.1,0.4,1.7,0.4c0.5,0,1-0.1,1.4-0.2c0.4-0.2,0.7-0.4,0.9-0.6
		c0.2-0.3,0.4-0.6,0.5-0.9c0.1-0.4,0.2-0.7,0.2-1.2v-1.4h0c-0.3,0.5-0.7,0.8-1.2,1.1c-0.5,0.3-1.1,0.4-1.6,0.4
		c-0.6,0-1.1-0.1-1.6-0.3c-0.5-0.2-0.9-0.5-1.2-0.8c-0.3-0.3-0.6-0.7-0.8-1.2c-0.2-0.5-0.3-1-0.3-1.5c0-0.5,0.1-1,0.3-1.5
		c0.2-0.5,0.5-0.9,0.8-1.2c0.3-0.4,0.7-0.6,1.2-0.8c0.5-0.2,1-0.3,1.6-0.3c0.6,0,1.1,0.1,1.6,0.4c0.5,0.3,0.9,0.6,1.2,1.1h0v-1.3
		h1.1v7.5c0,0.4-0.1,0.8-0.2,1.3c-0.1,0.5-0.3,0.9-0.6,1.3c-0.3,0.4-0.7,0.7-1.3,1c-0.5,0.3-1.2,0.4-2.1,0.4c-0.7,0-1.4-0.1-2-0.4
		c-0.6-0.3-1.2-0.6-1.6-1.1L196.4,166.6z M196.6,161.1c0,0.4,0.1,0.8,0.2,1.1c0.1,0.4,0.3,0.7,0.6,0.9c0.2,0.3,0.5,0.5,0.9,0.6
		c0.4,0.2,0.8,0.2,1.2,0.2c0.4,0,0.8-0.1,1.2-0.2c0.4-0.1,0.7-0.3,0.9-0.6c0.3-0.3,0.5-0.6,0.6-0.9c0.1-0.4,0.2-0.8,0.2-1.2
		c0-0.4-0.1-0.8-0.2-1.1c-0.1-0.4-0.3-0.7-0.6-0.9c-0.3-0.3-0.6-0.5-0.9-0.6c-0.4-0.2-0.7-0.2-1.2-0.2c-0.5,0-0.9,0.1-1.2,0.2
		c-0.4,0.2-0.7,0.4-0.9,0.6c-0.2,0.3-0.4,0.6-0.6,0.9C196.6,160.4,196.6,160.7,196.6,161.1z"/>
	<path class="st2" d="M213.6,158.4h-2.1v4.4c0,0.3,0,0.5,0.1,0.7c0.1,0.2,0.1,0.3,0.2,0.4c0.1,0.1,0.2,0.2,0.4,0.2
		c0.1,0,0.3,0.1,0.5,0.1c0.2,0,0.3,0,0.5-0.1c0.2,0,0.3-0.1,0.5-0.2l0,1c-0.2,0.1-0.4,0.1-0.6,0.2c-0.2,0-0.4,0.1-0.7,0.1
		c-0.2,0-0.4,0-0.6-0.1c-0.2-0.1-0.4-0.2-0.6-0.3c-0.2-0.2-0.4-0.4-0.5-0.6c-0.1-0.3-0.2-0.6-0.2-1v-4.7h-1.6v-0.9h1.6v-2.1h1.1v2.1
		h2.1V158.4z"/>
	<path class="st2" d="M216.5,158.7c0.2-0.4,0.5-0.8,1-1.1c0.5-0.3,1-0.4,1.5-0.4c1,0,1.7,0.3,2.2,0.9c0.5,0.6,0.7,1.3,0.7,2.3v4.6
		h-1.1v-4.2c0-0.4,0-0.8-0.1-1.1c-0.1-0.3-0.2-0.6-0.3-0.8c-0.2-0.2-0.4-0.4-0.6-0.5c-0.3-0.1-0.6-0.2-1-0.2c-0.3,0-0.6,0.1-0.8,0.2
		c-0.3,0.1-0.5,0.3-0.7,0.5c-0.2,0.2-0.4,0.6-0.5,0.9c-0.1,0.4-0.2,0.8-0.2,1.3v3.9h-1.1v-12.2h1.1L216.5,158.7L216.5,158.7z"/>
	<path class="st2" d="M231.7,161c0,0.1,0,0.2,0,0.2c0,0.1,0,0.2,0,0.3h-6.3c0,0.4,0.1,0.7,0.2,1.1c0.1,0.3,0.3,0.6,0.6,0.9
		c0.2,0.2,0.5,0.4,0.9,0.6c0.3,0.1,0.7,0.2,1.1,0.2c0.6,0,1.1-0.1,1.5-0.4c0.4-0.3,0.7-0.6,0.9-0.9l0.8,0.6c-0.5,0.6-1,1-1.5,1.2
		c-0.5,0.2-1.1,0.4-1.8,0.4c-0.6,0-1.1-0.1-1.6-0.3c-0.5-0.2-0.9-0.5-1.2-0.8c-0.3-0.4-0.6-0.8-0.8-1.3c-0.2-0.5-0.3-1-0.3-1.6
		c0-0.6,0.1-1.1,0.3-1.6c0.2-0.5,0.5-0.9,0.8-1.3c0.3-0.4,0.8-0.6,1.2-0.8c0.5-0.2,1-0.3,1.5-0.3c0.6,0,1.1,0.1,1.6,0.3
		c0.5,0.2,0.8,0.5,1.1,0.8c0.3,0.3,0.5,0.7,0.7,1.2C231.6,160,231.7,160.5,231.7,161z M230.6,160.7c0-0.7-0.3-1.3-0.7-1.8
		c-0.4-0.5-1-0.7-1.8-0.7c-0.4,0-0.7,0.1-1,0.2c-0.3,0.1-0.6,0.3-0.8,0.5c-0.2,0.2-0.4,0.5-0.6,0.8c-0.1,0.3-0.2,0.6-0.2,0.9H230.6z
		"/>
	<path class="st2" d="M245.6,161.2c0,0.6-0.1,1.1-0.3,1.6c-0.2,0.5-0.5,0.9-0.8,1.3c-0.4,0.4-0.8,0.6-1.3,0.8
		c-0.5,0.2-1,0.3-1.6,0.3c-0.6,0-1.1-0.1-1.6-0.3c-0.5-0.2-0.9-0.5-1.3-0.8c-0.4-0.4-0.6-0.8-0.8-1.3c-0.2-0.5-0.3-1-0.3-1.6
		c0-0.6,0.1-1.1,0.3-1.6c0.2-0.5,0.5-0.9,0.8-1.3c0.4-0.4,0.8-0.6,1.3-0.8c0.5-0.2,1-0.3,1.6-0.3c0.6,0,1.1,0.1,1.6,0.3
		c0.5,0.2,0.9,0.5,1.3,0.8c0.4,0.4,0.6,0.8,0.8,1.3C245.5,160.1,245.6,160.7,245.6,161.2z M244.4,161.2c0-0.4-0.1-0.8-0.2-1.2
		c-0.1-0.4-0.3-0.7-0.6-1c-0.2-0.3-0.6-0.5-0.9-0.7c-0.4-0.2-0.8-0.2-1.2-0.2c-0.4,0-0.8,0.1-1.2,0.2c-0.4,0.2-0.6,0.4-0.9,0.7
		c-0.2,0.3-0.4,0.6-0.6,1c-0.1,0.4-0.2,0.8-0.2,1.2c0,0.4,0.1,0.8,0.2,1.2c0.1,0.4,0.3,0.7,0.6,1c0.2,0.3,0.5,0.5,0.9,0.6
		c0.4,0.2,0.7,0.2,1.2,0.2c0.4,0,0.8-0.1,1.2-0.2c0.4-0.2,0.7-0.4,0.9-0.6c0.2-0.3,0.4-0.6,0.6-1
		C244.4,162.1,244.4,161.7,244.4,161.2z"/>
	<path class="st2" d="M254.2,163.8c-0.3,0.5-0.7,0.9-1.3,1.1c-0.5,0.2-1.1,0.4-1.6,0.4c-0.6,0-1.1-0.1-1.6-0.3
		c-0.5-0.2-0.9-0.5-1.2-0.8c-0.3-0.4-0.6-0.8-0.8-1.3c-0.2-0.5-0.3-1-0.3-1.6c0-0.6,0.1-1.1,0.3-1.6c0.2-0.5,0.5-0.9,0.8-1.3
		c0.3-0.4,0.7-0.6,1.2-0.8c0.5-0.2,1-0.3,1.6-0.3c0.5,0,1.1,0.1,1.6,0.4c0.5,0.3,0.9,0.6,1.3,1.1h0v-6h1.1V165h-1.1L254.2,163.8
		L254.2,163.8z M248.6,161.2c0,0.4,0.1,0.8,0.2,1.2c0.1,0.4,0.3,0.7,0.6,1c0.2,0.3,0.5,0.5,0.9,0.6c0.4,0.2,0.8,0.2,1.2,0.2
		c0.4,0,0.8-0.1,1.2-0.2c0.4-0.2,0.7-0.4,0.9-0.6c0.3-0.3,0.5-0.6,0.6-1c0.1-0.4,0.2-0.8,0.2-1.2c0-0.4-0.1-0.8-0.2-1.2
		c-0.1-0.4-0.3-0.7-0.6-1c-0.3-0.3-0.6-0.5-0.9-0.6c-0.4-0.2-0.7-0.2-1.2-0.2c-0.5,0-0.9,0.1-1.2,0.2c-0.4,0.2-0.7,0.4-0.9,0.7
		c-0.2,0.3-0.4,0.6-0.6,1C248.6,160.4,248.6,160.8,248.6,161.2z"/>
	<path class="st2" d="M264.5,163.8c-0.3,0.5-0.7,0.9-1.3,1.1c-0.5,0.2-1.1,0.4-1.6,0.4c-0.6,0-1.1-0.1-1.6-0.3
		c-0.5-0.2-0.9-0.5-1.2-0.8c-0.3-0.4-0.6-0.8-0.8-1.3c-0.2-0.5-0.3-1-0.3-1.6c0-0.6,0.1-1.1,0.3-1.6c0.2-0.5,0.5-0.9,0.8-1.3
		c0.3-0.4,0.8-0.6,1.2-0.8c0.5-0.2,1-0.3,1.6-0.3c0.6,0,1.1,0.1,1.6,0.4c0.5,0.3,0.9,0.6,1.3,1.1h0v-6h1.1V165h-1.1L264.5,163.8
		L264.5,163.8z M258.9,161.2c0,0.4,0.1,0.8,0.2,1.2c0.1,0.4,0.3,0.7,0.6,1c0.2,0.3,0.5,0.5,0.9,0.6c0.4,0.2,0.8,0.2,1.2,0.2
		c0.4,0,0.8-0.1,1.2-0.2c0.4-0.2,0.7-0.4,0.9-0.6c0.3-0.3,0.5-0.6,0.6-1c0.1-0.4,0.2-0.8,0.2-1.2c0-0.4-0.1-0.8-0.2-1.2
		c-0.1-0.4-0.3-0.7-0.6-1c-0.3-0.3-0.6-0.5-0.9-0.6c-0.4-0.2-0.7-0.2-1.2-0.2c-0.5,0-0.9,0.1-1.2,0.2c-0.4,0.2-0.7,0.4-0.9,0.7
		c-0.2,0.3-0.4,0.6-0.6,1C259,160.4,258.9,160.8,258.9,161.2z"/>
	<path class="st2" d="M272.6,159.3c-0.2-0.3-0.4-0.6-0.7-0.8c-0.3-0.2-0.7-0.3-1.1-0.3c-0.2,0-0.4,0-0.6,0.1c-0.2,0-0.4,0.1-0.5,0.2
		c-0.2,0.1-0.3,0.2-0.4,0.4c-0.1,0.2-0.1,0.3-0.1,0.5c0,0.4,0.1,0.6,0.4,0.8c0.3,0.2,0.7,0.3,1.4,0.5c0.9,0.2,1.6,0.5,2,0.8
		c0.4,0.4,0.6,0.8,0.6,1.4c0,0.4-0.1,0.8-0.3,1.1c-0.2,0.3-0.4,0.5-0.7,0.7c-0.3,0.2-0.6,0.3-0.9,0.4c-0.3,0.1-0.7,0.1-1,0.1
		c-0.6,0-1.1-0.1-1.7-0.4c-0.5-0.2-1-0.6-1.3-1.1l0.9-0.6c0.2,0.3,0.5,0.6,0.9,0.8c0.4,0.2,0.8,0.3,1.2,0.3c0.2,0,0.5,0,0.7-0.1
		c0.2,0,0.4-0.1,0.6-0.2c0.2-0.1,0.3-0.2,0.4-0.4c0.1-0.2,0.1-0.4,0.1-0.6c0-0.4-0.2-0.7-0.6-0.9c-0.4-0.2-0.9-0.4-1.7-0.6
		c-0.2-0.1-0.5-0.1-0.7-0.2c-0.3-0.1-0.5-0.2-0.7-0.4c-0.2-0.2-0.4-0.4-0.5-0.6c-0.1-0.2-0.2-0.5-0.2-0.9c0-0.4,0.1-0.7,0.2-1
		c0.2-0.3,0.4-0.5,0.6-0.7c0.3-0.2,0.5-0.3,0.9-0.4c0.3-0.1,0.7-0.1,1-0.1c0.5,0,1,0.1,1.5,0.4c0.5,0.2,0.9,0.6,1.1,1L272.6,159.3z"
		/>
	<path class="st2" d="M284.6,160.1c0-0.7-0.2-1.1-0.5-1.5c-0.3-0.3-0.8-0.5-1.5-0.5c-0.5,0-0.9,0.1-1.3,0.2c-0.4,0.2-0.7,0.4-1,0.6
		l-0.6-0.7c0.3-0.3,0.7-0.6,1.2-0.8c0.5-0.2,1.1-0.3,1.7-0.3c0.4,0,0.8,0.1,1.1,0.2c0.4,0.1,0.7,0.3,0.9,0.5
		c0.3,0.2,0.5,0.5,0.6,0.9c0.2,0.3,0.2,0.7,0.2,1.2v3.3c0,0.3,0,0.6,0,0.9c0,0.3,0.1,0.6,0.1,0.8h-1c0-0.2-0.1-0.4-0.1-0.6
		c0-0.2,0-0.4,0-0.6h0c-0.3,0.5-0.7,0.9-1.2,1.1c-0.4,0.2-1,0.3-1.6,0.3c-0.3,0-0.6,0-0.9-0.1c-0.3-0.1-0.6-0.2-0.8-0.4
		c-0.3-0.2-0.5-0.4-0.6-0.7c-0.2-0.3-0.2-0.6-0.2-1.1c0-0.6,0.1-1,0.4-1.4c0.3-0.3,0.7-0.6,1.2-0.8c0.5-0.2,1.1-0.3,1.7-0.3
		c0.6,0,1.3-0.1,2-0.1V160.1z M284.3,161.2c-0.5,0-0.9,0-1.4,0.1c-0.5,0-0.9,0.1-1.2,0.2c-0.4,0.1-0.7,0.3-0.9,0.5
		c-0.2,0.2-0.4,0.5-0.4,0.9c0,0.3,0.1,0.5,0.2,0.7c0.1,0.2,0.2,0.3,0.4,0.4c0.2,0.1,0.4,0.2,0.6,0.2c0.2,0,0.4,0.1,0.6,0.1
		c0.4,0,0.7-0.1,1-0.2c0.3-0.1,0.6-0.3,0.8-0.5c0.2-0.2,0.4-0.5,0.5-0.8c0.1-0.3,0.2-0.6,0.2-1v-0.6H284.3z"/>
	<path class="st2" d="M288.9,166.6c0.3,0.4,0.7,0.7,1.2,1c0.5,0.3,1.1,0.4,1.7,0.4c0.5,0,1-0.1,1.4-0.2c0.4-0.2,0.7-0.4,0.9-0.6
		c0.2-0.3,0.4-0.6,0.5-0.9c0.1-0.4,0.2-0.7,0.2-1.2v-1.4h0c-0.3,0.5-0.7,0.8-1.2,1.1c-0.5,0.3-1.1,0.4-1.6,0.4
		c-0.6,0-1.1-0.1-1.6-0.3c-0.5-0.2-0.9-0.5-1.2-0.8c-0.3-0.3-0.6-0.7-0.8-1.2c-0.2-0.5-0.3-1-0.3-1.5c0-0.5,0.1-1,0.3-1.5
		c0.2-0.5,0.5-0.9,0.8-1.2c0.3-0.4,0.8-0.6,1.2-0.8c0.5-0.2,1-0.3,1.6-0.3c0.6,0,1.1,0.1,1.6,0.4c0.5,0.3,0.9,0.6,1.2,1.1h0v-1.3
		h1.1v7.5c0,0.4-0.1,0.8-0.2,1.3c-0.1,0.5-0.3,0.9-0.6,1.3c-0.3,0.4-0.7,0.7-1.3,1c-0.5,0.3-1.2,0.4-2.1,0.4c-0.7,0-1.4-0.1-2-0.4
		c-0.6-0.3-1.2-0.6-1.6-1.1L288.9,166.6z M289.1,161.1c0,0.4,0.1,0.8,0.2,1.1c0.1,0.4,0.3,0.7,0.6,0.9c0.2,0.3,0.5,0.5,0.9,0.6
		c0.4,0.2,0.8,0.2,1.2,0.2c0.4,0,0.8-0.1,1.2-0.2c0.4-0.1,0.7-0.3,0.9-0.6c0.3-0.3,0.5-0.6,0.6-0.9c0.1-0.4,0.2-0.8,0.2-1.2
		c0-0.4-0.1-0.8-0.2-1.1c-0.1-0.4-0.3-0.7-0.6-0.9c-0.3-0.3-0.6-0.5-0.9-0.6c-0.4-0.2-0.7-0.2-1.2-0.2c-0.5,0-0.9,0.1-1.2,0.2
		c-0.4,0.2-0.7,0.4-0.9,0.6c-0.2,0.3-0.4,0.6-0.6,0.9C289.1,160.4,289.1,160.7,289.1,161.1z"/>
	<path class="st2" d="M303.4,160.1c0-0.7-0.2-1.1-0.5-1.5c-0.3-0.3-0.8-0.5-1.5-0.5c-0.5,0-0.9,0.1-1.3,0.2c-0.4,0.2-0.7,0.4-1,0.6
		l-0.6-0.7c0.3-0.3,0.7-0.6,1.2-0.8c0.5-0.2,1.1-0.3,1.7-0.3c0.4,0,0.8,0.1,1.1,0.2c0.4,0.1,0.7,0.3,0.9,0.5
		c0.3,0.2,0.5,0.5,0.6,0.9c0.2,0.3,0.2,0.7,0.2,1.2v3.3c0,0.3,0,0.6,0,0.9c0,0.3,0.1,0.6,0.1,0.8h-1c0-0.2-0.1-0.4-0.1-0.6
		c0-0.2,0-0.4,0-0.6h0c-0.3,0.5-0.7,0.9-1.2,1.1c-0.4,0.2-1,0.3-1.6,0.3c-0.3,0-0.6,0-0.9-0.1c-0.3-0.1-0.6-0.2-0.8-0.4
		c-0.3-0.2-0.5-0.4-0.6-0.7c-0.2-0.3-0.2-0.6-0.2-1.1c0-0.6,0.1-1,0.4-1.4c0.3-0.3,0.7-0.6,1.2-0.8c0.5-0.2,1.1-0.3,1.7-0.3
		c0.6,0,1.3-0.1,2-0.1V160.1z M303.1,161.2c-0.5,0-0.9,0-1.4,0.1c-0.5,0-0.9,0.1-1.2,0.2c-0.4,0.1-0.7,0.3-0.9,0.5
		c-0.2,0.2-0.4,0.5-0.4,0.9c0,0.3,0.1,0.5,0.2,0.7c0.1,0.2,0.2,0.3,0.4,0.4c0.2,0.1,0.4,0.2,0.6,0.2c0.2,0,0.4,0.1,0.6,0.1
		c0.4,0,0.7-0.1,1-0.2c0.3-0.1,0.6-0.3,0.8-0.5c0.2-0.2,0.4-0.5,0.5-0.8c0.1-0.3,0.2-0.6,0.2-1v-0.6H303.1z"/>
	<path class="st2" d="M308.7,154.5c0,0.2-0.1,0.4-0.2,0.6c-0.2,0.1-0.3,0.2-0.5,0.2c-0.2,0-0.4-0.1-0.5-0.2
		c-0.2-0.1-0.2-0.3-0.2-0.6c0-0.2,0.1-0.4,0.2-0.6c0.2-0.1,0.3-0.2,0.5-0.2c0.2,0,0.4,0.1,0.5,0.2
		C308.6,154.1,308.7,154.3,308.7,154.5z M308.4,165h-1.1v-7.6h1.1V165z"/>
	<path class="st2" d="M312.3,157.5c0,0.2,0,0.4,0,0.7c0,0.2,0,0.5,0,0.6h0c0.2-0.4,0.6-0.8,1.1-1.1c0.5-0.3,1-0.4,1.5-0.4
		c1,0,1.7,0.3,2.2,0.9c0.5,0.6,0.7,1.3,0.7,2.3v4.6h-1.1v-4.2c0-0.4,0-0.8-0.1-1.1c-0.1-0.3-0.2-0.6-0.3-0.8
		c-0.2-0.2-0.4-0.4-0.6-0.5c-0.3-0.1-0.6-0.2-1-0.2c-0.3,0-0.6,0.1-0.8,0.2c-0.3,0.1-0.5,0.3-0.7,0.5c-0.2,0.2-0.4,0.6-0.5,0.9
		c-0.1,0.4-0.2,0.8-0.2,1.3v3.9h-1.1v-5.9c0-0.2,0-0.5,0-0.8c0-0.3,0-0.6,0-0.9H312.3z"/>
	<path class="st2" d="M324.8,159.3c-0.2-0.3-0.4-0.6-0.7-0.8c-0.3-0.2-0.7-0.3-1.1-0.3c-0.2,0-0.4,0-0.6,0.1c-0.2,0-0.4,0.1-0.5,0.2
		c-0.2,0.1-0.3,0.2-0.4,0.4c-0.1,0.2-0.1,0.3-0.1,0.5c0,0.4,0.1,0.6,0.4,0.8c0.3,0.2,0.8,0.3,1.4,0.5c0.9,0.2,1.6,0.5,2,0.8
		c0.4,0.4,0.6,0.8,0.6,1.4c0,0.4-0.1,0.8-0.2,1.1c-0.2,0.3-0.4,0.5-0.7,0.7c-0.3,0.2-0.6,0.3-0.9,0.4c-0.3,0.1-0.7,0.1-1,0.1
		c-0.6,0-1.1-0.1-1.7-0.4c-0.5-0.2-1-0.6-1.3-1.1l0.9-0.6c0.2,0.3,0.5,0.6,0.9,0.8c0.4,0.2,0.8,0.3,1.2,0.3c0.2,0,0.5,0,0.7-0.1
		c0.2,0,0.4-0.1,0.6-0.2c0.2-0.1,0.3-0.2,0.4-0.4c0.1-0.2,0.1-0.4,0.1-0.6c0-0.4-0.2-0.7-0.6-0.9c-0.4-0.2-0.9-0.4-1.7-0.6
		c-0.2-0.1-0.5-0.1-0.7-0.2c-0.3-0.1-0.5-0.2-0.7-0.4c-0.2-0.2-0.4-0.4-0.5-0.6c-0.1-0.2-0.2-0.5-0.2-0.9c0-0.4,0.1-0.7,0.2-1
		c0.2-0.3,0.4-0.5,0.6-0.7c0.3-0.2,0.5-0.3,0.9-0.4c0.3-0.1,0.7-0.1,1-0.1c0.5,0,1,0.1,1.5,0.4c0.5,0.2,0.9,0.6,1.1,1L324.8,159.3z"
		/>
	<path class="st2" d="M331.3,158.4h-2.1v4.4c0,0.3,0,0.5,0.1,0.7c0.1,0.2,0.1,0.3,0.2,0.4c0.1,0.1,0.2,0.2,0.4,0.2
		c0.1,0,0.3,0.1,0.5,0.1c0.2,0,0.3,0,0.5-0.1c0.2,0,0.3-0.1,0.5-0.2l0,1c-0.2,0.1-0.4,0.1-0.6,0.2c-0.2,0-0.4,0.1-0.7,0.1
		c-0.2,0-0.4,0-0.6-0.1c-0.2-0.1-0.4-0.2-0.6-0.3c-0.2-0.2-0.4-0.4-0.5-0.6c-0.1-0.3-0.2-0.6-0.2-1v-4.7h-1.6v-0.9h1.6v-2.1h1.1v2.1
		h2.1V158.4z"/>
	<path class="st2" d="M339.2,157.7c0.4-0.3,0.9-0.4,1.5-0.4c0.2,0,0.4,0,0.6,0.1c0.2,0,0.4,0.1,0.6,0.3c0.2,0.1,0.4,0.3,0.6,0.5
		c0.2,0.2,0.3,0.5,0.5,0.8c0.3-0.5,0.6-0.9,1.1-1.2c0.4-0.3,1-0.4,1.6-0.4c1,0,1.7,0.3,2.2,0.9c0.5,0.6,0.7,1.3,0.7,2.3v4.6h-1.1
		v-4.2c0-0.8-0.1-1.4-0.4-1.9c-0.3-0.5-0.8-0.7-1.5-0.7c-0.4,0-0.7,0.1-1,0.2c-0.3,0.2-0.5,0.4-0.7,0.6c-0.2,0.3-0.3,0.6-0.4,0.9
		c-0.1,0.3-0.1,0.7-0.1,1v4h-1.1v-4.4c0-0.4,0-0.7-0.1-1c-0.1-0.3-0.1-0.6-0.3-0.8c-0.1-0.2-0.3-0.4-0.6-0.5
		c-0.2-0.1-0.5-0.2-0.9-0.2c-0.3,0-0.5,0.1-0.8,0.2c-0.3,0.1-0.5,0.3-0.7,0.5c-0.2,0.2-0.4,0.6-0.5,0.9c-0.1,0.4-0.2,0.8-0.2,1.3
		v3.9h-1.1v-5.9c0-0.2,0-0.5,0-0.8c0-0.3,0-0.6,0-0.9h1.1c0,0.2,0,0.4,0,0.7c0,0.2,0,0.5,0,0.6h0C338.4,158.3,338.7,158,339.2,157.7
		z"/>
	<path class="st2" d="M358.3,161c0,0.1,0,0.2,0,0.2c0,0.1,0,0.2,0,0.3H352c0,0.4,0.1,0.7,0.2,1.1c0.1,0.3,0.3,0.6,0.6,0.9
		c0.2,0.2,0.5,0.4,0.9,0.6c0.3,0.1,0.7,0.2,1.1,0.2c0.6,0,1.1-0.1,1.5-0.4c0.4-0.3,0.7-0.6,0.9-0.9l0.8,0.6c-0.5,0.6-1,1-1.5,1.2
		c-0.5,0.2-1.1,0.4-1.8,0.4c-0.6,0-1.1-0.1-1.6-0.3c-0.5-0.2-0.9-0.5-1.2-0.8c-0.3-0.4-0.6-0.8-0.8-1.3c-0.2-0.5-0.3-1-0.3-1.6
		c0-0.6,0.1-1.1,0.3-1.6c0.2-0.5,0.5-0.9,0.8-1.3c0.3-0.4,0.8-0.6,1.2-0.8c0.5-0.2,1-0.3,1.5-0.3c0.6,0,1.1,0.1,1.6,0.3
		c0.5,0.2,0.8,0.5,1.1,0.8c0.3,0.3,0.5,0.7,0.7,1.2C358.2,160,358.3,160.5,358.3,161z M357.2,160.7c0-0.7-0.3-1.3-0.7-1.8
		c-0.4-0.5-1-0.7-1.8-0.7c-0.4,0-0.7,0.1-1,0.2c-0.3,0.1-0.6,0.3-0.8,0.5c-0.2,0.2-0.4,0.5-0.6,0.8c-0.1,0.3-0.2,0.6-0.2,0.9H357.2z
		"/>
	<path class="st2" d="M364.1,158.4h-2.1v4.4c0,0.3,0,0.5,0.1,0.7c0.1,0.2,0.1,0.3,0.2,0.4c0.1,0.1,0.2,0.2,0.4,0.2
		c0.1,0,0.3,0.1,0.5,0.1c0.2,0,0.3,0,0.5-0.1c0.2,0,0.3-0.1,0.5-0.2l0,1c-0.2,0.1-0.4,0.1-0.6,0.2c-0.2,0-0.4,0.1-0.7,0.1
		c-0.2,0-0.4,0-0.6-0.1c-0.2-0.1-0.4-0.2-0.6-0.3c-0.2-0.2-0.4-0.4-0.5-0.6c-0.1-0.3-0.2-0.6-0.2-1v-4.7h-1.6v-0.9h1.6v-2.1h1.1v2.1
		h2.1V158.4z"/>
	<path class="st2" d="M370.5,160.1c0-0.7-0.2-1.1-0.5-1.5c-0.3-0.3-0.8-0.5-1.5-0.5c-0.5,0-0.9,0.1-1.3,0.2c-0.4,0.2-0.7,0.4-1,0.6
		l-0.6-0.7c0.3-0.3,0.7-0.6,1.2-0.8c0.5-0.2,1.1-0.3,1.7-0.3c0.4,0,0.8,0.1,1.1,0.2c0.4,0.1,0.7,0.3,0.9,0.5
		c0.3,0.2,0.5,0.5,0.6,0.9c0.2,0.3,0.2,0.7,0.2,1.2v3.3c0,0.3,0,0.6,0,0.9c0,0.3,0.1,0.6,0.1,0.8h-1c0-0.2-0.1-0.4-0.1-0.6
		c0-0.2,0-0.4,0-0.6h0c-0.3,0.5-0.7,0.9-1.2,1.1c-0.4,0.2-1,0.3-1.6,0.3c-0.3,0-0.6,0-0.9-0.1c-0.3-0.1-0.6-0.2-0.8-0.4
		c-0.3-0.2-0.5-0.4-0.6-0.7c-0.2-0.3-0.3-0.6-0.3-1.1c0-0.6,0.1-1,0.4-1.4c0.3-0.3,0.7-0.6,1.2-0.8c0.5-0.2,1.1-0.3,1.7-0.3
		c0.6,0,1.3-0.1,2-0.1V160.1z M370.2,161.2c-0.5,0-0.9,0-1.4,0.1c-0.5,0-0.9,0.1-1.2,0.2c-0.4,0.1-0.7,0.3-0.9,0.5
		c-0.2,0.2-0.4,0.5-0.4,0.9c0,0.3,0.1,0.5,0.2,0.7c0.1,0.2,0.2,0.3,0.4,0.4c0.2,0.1,0.4,0.2,0.6,0.2c0.2,0,0.4,0.1,0.6,0.1
		c0.4,0,0.7-0.1,1-0.2c0.3-0.1,0.6-0.3,0.8-0.5c0.2-0.2,0.4-0.5,0.5-0.8c0.1-0.3,0.2-0.6,0.2-1v-0.6H370.2z"/>
	<path class="st2" d="M378.4,159.3c-0.2-0.3-0.4-0.6-0.7-0.8c-0.3-0.2-0.7-0.3-1.1-0.3c-0.2,0-0.4,0-0.6,0.1c-0.2,0-0.4,0.1-0.5,0.2
		c-0.2,0.1-0.3,0.2-0.4,0.4c-0.1,0.2-0.1,0.3-0.1,0.5c0,0.4,0.1,0.6,0.4,0.8c0.3,0.2,0.7,0.3,1.4,0.5c0.9,0.2,1.6,0.5,2,0.8
		c0.4,0.4,0.6,0.8,0.6,1.4c0,0.4-0.1,0.8-0.3,1.1c-0.2,0.3-0.4,0.5-0.7,0.7c-0.3,0.2-0.6,0.3-0.9,0.4c-0.3,0.1-0.7,0.1-1,0.1
		c-0.6,0-1.1-0.1-1.7-0.4c-0.5-0.2-1-0.6-1.3-1.1l0.9-0.6c0.2,0.3,0.5,0.6,0.9,0.8c0.4,0.2,0.8,0.3,1.2,0.3c0.2,0,0.5,0,0.7-0.1
		c0.2,0,0.4-0.1,0.6-0.2c0.2-0.1,0.3-0.2,0.4-0.4c0.1-0.2,0.1-0.4,0.1-0.6c0-0.4-0.2-0.7-0.6-0.9c-0.4-0.2-0.9-0.4-1.7-0.6
		c-0.2-0.1-0.5-0.1-0.7-0.2c-0.3-0.1-0.5-0.2-0.7-0.4c-0.2-0.2-0.4-0.4-0.5-0.6c-0.1-0.2-0.2-0.5-0.2-0.9c0-0.4,0.1-0.7,0.2-1
		c0.2-0.3,0.4-0.5,0.6-0.7c0.3-0.2,0.5-0.3,0.9-0.4c0.3-0.1,0.7-0.1,1-0.1c0.5,0,1,0.1,1.5,0.4c0.5,0.2,0.9,0.6,1.1,1L378.4,159.3z"
		/>
	<path class="st2" d="M385,158.4h-2.1v4.4c0,0.3,0,0.5,0.1,0.7c0.1,0.2,0.1,0.3,0.2,0.4c0.1,0.1,0.2,0.2,0.4,0.2
		c0.1,0,0.3,0.1,0.5,0.1c0.2,0,0.3,0,0.5-0.1c0.2,0,0.3-0.1,0.5-0.2l0,1c-0.2,0.1-0.4,0.1-0.6,0.2c-0.2,0-0.4,0.1-0.7,0.1
		c-0.2,0-0.4,0-0.6-0.1c-0.2-0.1-0.4-0.2-0.6-0.3c-0.2-0.2-0.4-0.4-0.5-0.6c-0.1-0.3-0.2-0.6-0.2-1v-4.7h-1.6v-0.9h1.6v-2.1h1.1v2.1
		h2.1V158.4z"/>
	<path class="st2" d="M391.5,160.1c0-0.7-0.2-1.1-0.5-1.5c-0.3-0.3-0.8-0.5-1.5-0.5c-0.5,0-0.9,0.1-1.3,0.2c-0.4,0.2-0.7,0.4-1,0.6
		l-0.6-0.7c0.3-0.3,0.7-0.6,1.2-0.8c0.5-0.2,1.1-0.3,1.7-0.3c0.4,0,0.8,0.1,1.1,0.2c0.4,0.1,0.7,0.3,0.9,0.5
		c0.3,0.2,0.5,0.5,0.6,0.9c0.2,0.3,0.2,0.7,0.2,1.2v3.3c0,0.3,0,0.6,0,0.9c0,0.3,0.1,0.6,0.1,0.8h-1c0-0.2-0.1-0.4-0.1-0.6
		c0-0.2,0-0.4,0-0.6h0c-0.3,0.5-0.7,0.9-1.2,1.1c-0.4,0.2-1,0.3-1.6,0.3c-0.3,0-0.6,0-0.9-0.1c-0.3-0.1-0.6-0.2-0.8-0.4
		c-0.3-0.2-0.5-0.4-0.6-0.7c-0.2-0.3-0.3-0.6-0.3-1.1c0-0.6,0.1-1,0.4-1.4c0.3-0.3,0.7-0.6,1.2-0.8c0.5-0.2,1.1-0.3,1.7-0.3
		c0.6,0,1.3-0.1,2-0.1V160.1z M391.2,161.2c-0.5,0-0.9,0-1.4,0.1c-0.5,0-0.9,0.1-1.2,0.2c-0.4,0.1-0.7,0.3-0.9,0.5
		c-0.2,0.2-0.4,0.5-0.4,0.9c0,0.3,0.1,0.5,0.2,0.7c0.1,0.2,0.2,0.3,0.4,0.4c0.2,0.1,0.4,0.2,0.6,0.2c0.2,0,0.4,0.1,0.6,0.1
		c0.4,0,0.7-0.1,1-0.2c0.3-0.1,0.6-0.3,0.8-0.5c0.2-0.2,0.4-0.5,0.5-0.8c0.1-0.3,0.2-0.6,0.2-1v-0.6H391.2z"/>
	<path class="st2" d="M398.6,158.4h-2.1v4.4c0,0.3,0,0.5,0.1,0.7c0.1,0.2,0.1,0.3,0.2,0.4c0.1,0.1,0.2,0.2,0.4,0.2
		c0.1,0,0.3,0.1,0.5,0.1c0.2,0,0.3,0,0.5-0.1c0.2,0,0.3-0.1,0.5-0.2l0,1c-0.2,0.1-0.4,0.1-0.6,0.2c-0.2,0-0.4,0.1-0.7,0.1
		c-0.2,0-0.4,0-0.6-0.1c-0.2-0.1-0.4-0.2-0.6-0.3c-0.2-0.2-0.4-0.4-0.5-0.6c-0.1-0.3-0.2-0.6-0.2-1v-4.7h-1.6v-0.9h1.6v-2.1h1.1v2.1
		h2.1V158.4z"/>
	<path class="st2" d="M401.7,154.5c0,0.2-0.1,0.4-0.2,0.6c-0.2,0.1-0.3,0.2-0.5,0.2c-0.2,0-0.4-0.1-0.5-0.2
		c-0.2-0.1-0.2-0.3-0.2-0.6c0-0.2,0.1-0.4,0.2-0.6c0.2-0.1,0.3-0.2,0.5-0.2c0.2,0,0.4,0.1,0.5,0.2
		C401.6,154.1,401.7,154.3,401.7,154.5z M401.4,165h-1.1v-7.6h1.1V165z"/>
	<path class="st2" d="M409.8,159.2c-0.2-0.3-0.5-0.5-0.8-0.7c-0.4-0.2-0.7-0.3-1.1-0.3c-0.4,0-0.8,0.1-1.2,0.2
		c-0.4,0.2-0.7,0.4-0.9,0.6c-0.3,0.3-0.4,0.6-0.6,1c-0.1,0.4-0.2,0.8-0.2,1.2c0,0.4,0.1,0.8,0.2,1.2c0.1,0.4,0.3,0.7,0.6,1
		c0.2,0.3,0.5,0.5,0.9,0.6c0.4,0.2,0.8,0.2,1.2,0.2c0.5,0,0.9-0.1,1.2-0.3c0.3-0.2,0.6-0.4,0.8-0.7l0.8,0.6c-0.3,0.4-0.7,0.7-1.2,1
		c-0.5,0.2-1,0.4-1.7,0.4c-0.6,0-1.2-0.1-1.7-0.3c-0.5-0.2-0.9-0.5-1.3-0.8c-0.4-0.4-0.6-0.8-0.8-1.3c-0.2-0.5-0.3-1-0.3-1.6
		c0-0.6,0.1-1.1,0.3-1.6c0.2-0.5,0.5-0.9,0.8-1.3c0.4-0.4,0.8-0.6,1.3-0.8c0.5-0.2,1.1-0.3,1.7-0.3c0.5,0,1,0.1,1.5,0.3
		c0.5,0.2,0.9,0.5,1.3,1L409.8,159.2z"/>
	<path class="st2" d="M417.6,163.8v1.3h-1.1v-12.2h1.1v6h0c0.3-0.5,0.7-0.9,1.3-1.1c0.5-0.3,1.1-0.4,1.6-0.4c0.6,0,1.1,0.1,1.6,0.3
		c0.5,0.2,0.9,0.5,1.2,0.8c0.3,0.4,0.6,0.8,0.8,1.3c0.2,0.5,0.3,1,0.3,1.6c0,0.6-0.1,1.1-0.3,1.6c-0.2,0.5-0.5,0.9-0.8,1.3
		c-0.3,0.4-0.8,0.6-1.2,0.8c-0.5,0.2-1,0.3-1.6,0.3c-0.6,0-1.1-0.1-1.6-0.4C418.4,164.6,418,164.2,417.6,163.8L417.6,163.8z
		 M423.3,161.2c0-0.4-0.1-0.8-0.2-1.2c-0.1-0.4-0.3-0.7-0.6-1c-0.2-0.3-0.5-0.5-0.9-0.7c-0.4-0.2-0.8-0.2-1.2-0.2
		c-0.4,0-0.8,0.1-1.2,0.2c-0.4,0.2-0.7,0.4-0.9,0.6c-0.3,0.3-0.5,0.6-0.6,1c-0.1,0.4-0.2,0.8-0.2,1.2c0,0.4,0.1,0.8,0.2,1.2
		c0.1,0.4,0.3,0.7,0.6,1c0.3,0.3,0.6,0.5,0.9,0.6c0.4,0.2,0.7,0.2,1.2,0.2c0.5,0,0.9-0.1,1.2-0.2c0.4-0.2,0.7-0.4,0.9-0.6
		c0.2-0.3,0.4-0.6,0.6-1C423.2,162.1,423.3,161.7,423.3,161.2z"/>
	<path class="st2" d="M426.8,158.3c0-0.3,0-0.6,0-0.9h1.1c0,0.2,0,0.4,0,0.7c0,0.2,0,0.5,0,0.6h0c0.2-0.4,0.5-0.8,1-1.1
		c0.4-0.3,0.9-0.4,1.5-0.4c0.1,0,0.3,0,0.4,0c0.1,0,0.2,0,0.3,0.1l-0.1,1.1c-0.1,0-0.2,0-0.3-0.1c-0.2,0-0.3,0-0.5,0
		c-0.3,0-0.6,0.1-0.8,0.2c-0.3,0.1-0.5,0.3-0.7,0.5c-0.2,0.2-0.4,0.5-0.5,0.9c-0.1,0.4-0.2,0.8-0.2,1.3v3.9h-1.1v-5.9
		C426.8,158.9,426.8,158.7,426.8,158.3z"/>
	<path class="st2" d="M439.2,161c0,0.1,0,0.2,0,0.2c0,0.1,0,0.2,0,0.3h-6.3c0,0.4,0.1,0.7,0.2,1.1c0.1,0.3,0.3,0.6,0.6,0.9
		c0.2,0.2,0.5,0.4,0.9,0.6c0.3,0.1,0.7,0.2,1.1,0.2c0.6,0,1.1-0.1,1.5-0.4c0.4-0.3,0.7-0.6,0.9-0.9l0.8,0.6c-0.5,0.6-1,1-1.5,1.2
		c-0.5,0.2-1.1,0.4-1.8,0.4c-0.6,0-1.1-0.1-1.6-0.3c-0.5-0.2-0.9-0.5-1.2-0.8c-0.3-0.4-0.6-0.8-0.8-1.3c-0.2-0.5-0.3-1-0.3-1.6
		c0-0.6,0.1-1.1,0.3-1.6c0.2-0.5,0.5-0.9,0.8-1.3c0.3-0.4,0.7-0.6,1.2-0.8c0.5-0.2,1-0.3,1.5-0.3c0.6,0,1.1,0.1,1.6,0.3
		c0.5,0.2,0.8,0.5,1.1,0.8c0.3,0.3,0.5,0.7,0.7,1.2C439.2,160,439.2,160.5,439.2,161z M438.1,160.7c0-0.7-0.3-1.3-0.7-1.8
		c-0.4-0.5-1-0.7-1.8-0.7c-0.4,0-0.7,0.1-1,0.2c-0.3,0.1-0.6,0.3-0.8,0.5c-0.2,0.2-0.4,0.5-0.6,0.8c-0.1,0.3-0.2,0.6-0.2,0.9H438.1z
		"/>
	<path class="st2" d="M446.3,160.1c0-0.7-0.2-1.1-0.5-1.5c-0.3-0.3-0.8-0.5-1.5-0.5c-0.5,0-0.9,0.1-1.3,0.2c-0.4,0.2-0.7,0.4-1,0.6
		l-0.6-0.7c0.3-0.3,0.7-0.6,1.2-0.8c0.5-0.2,1.1-0.3,1.7-0.3c0.4,0,0.8,0.1,1.1,0.2c0.4,0.1,0.7,0.3,0.9,0.5
		c0.3,0.2,0.5,0.5,0.6,0.9c0.2,0.3,0.2,0.7,0.2,1.2v3.3c0,0.3,0,0.6,0,0.9c0,0.3,0.1,0.6,0.1,0.8h-1c0-0.2-0.1-0.4-0.1-0.6
		c0-0.2,0-0.4,0-0.6h0c-0.3,0.5-0.7,0.9-1.2,1.1c-0.4,0.2-1,0.3-1.6,0.3c-0.3,0-0.6,0-0.9-0.1c-0.3-0.1-0.6-0.2-0.8-0.4
		c-0.3-0.2-0.5-0.4-0.6-0.7c-0.2-0.3-0.3-0.6-0.3-1.1c0-0.6,0.1-1,0.4-1.4c0.3-0.3,0.7-0.6,1.2-0.8c0.5-0.2,1.1-0.3,1.7-0.3
		c0.6,0,1.3-0.1,2-0.1V160.1z M445.9,161.2c-0.5,0-0.9,0-1.4,0.1c-0.5,0-0.9,0.1-1.2,0.2c-0.4,0.1-0.7,0.3-0.9,0.5
		c-0.2,0.2-0.4,0.5-0.4,0.9c0,0.3,0.1,0.5,0.2,0.7c0.1,0.2,0.2,0.3,0.4,0.4c0.2,0.1,0.4,0.2,0.6,0.2c0.2,0,0.4,0.1,0.6,0.1
		c0.4,0,0.7-0.1,1-0.2c0.3-0.1,0.6-0.3,0.8-0.5c0.2-0.2,0.4-0.5,0.5-0.8c0.1-0.3,0.2-0.6,0.2-1v-0.6H445.9z"/>
	<path class="st2" d="M454.2,159.3c-0.2-0.3-0.4-0.6-0.7-0.8c-0.3-0.2-0.7-0.3-1.1-0.3c-0.2,0-0.4,0-0.6,0.1c-0.2,0-0.4,0.1-0.5,0.2
		c-0.2,0.1-0.3,0.2-0.4,0.4c-0.1,0.2-0.1,0.3-0.1,0.5c0,0.4,0.1,0.6,0.4,0.8c0.3,0.2,0.7,0.3,1.4,0.5c0.9,0.2,1.6,0.5,2,0.8
		c0.4,0.4,0.6,0.8,0.6,1.4c0,0.4-0.1,0.8-0.3,1.1c-0.2,0.3-0.4,0.5-0.7,0.7c-0.3,0.2-0.6,0.3-0.9,0.4c-0.3,0.1-0.7,0.1-1,0.1
		c-0.6,0-1.1-0.1-1.7-0.4c-0.5-0.2-1-0.6-1.3-1.1l0.9-0.6c0.2,0.3,0.5,0.6,0.9,0.8c0.4,0.2,0.8,0.3,1.2,0.3c0.2,0,0.5,0,0.7-0.1
		c0.2,0,0.4-0.1,0.6-0.2c0.2-0.1,0.3-0.2,0.4-0.4c0.1-0.2,0.1-0.4,0.1-0.6c0-0.4-0.2-0.7-0.6-0.9c-0.4-0.2-0.9-0.4-1.7-0.6
		c-0.2-0.1-0.5-0.1-0.7-0.2c-0.3-0.1-0.5-0.2-0.7-0.4c-0.2-0.2-0.4-0.4-0.5-0.6c-0.1-0.2-0.2-0.5-0.2-0.9c0-0.4,0.1-0.7,0.2-1
		c0.2-0.3,0.4-0.5,0.6-0.7c0.3-0.2,0.5-0.3,0.9-0.4c0.3-0.1,0.7-0.1,1-0.1c0.5,0,1,0.1,1.5,0.4c0.5,0.2,0.9,0.6,1.1,1L454.2,159.3z"
		/>
	<path class="st2" d="M460.7,158.4h-2.1v4.4c0,0.3,0,0.5,0.1,0.7c0.1,0.2,0.1,0.3,0.2,0.4c0.1,0.1,0.2,0.2,0.4,0.2
		c0.1,0,0.3,0.1,0.5,0.1c0.2,0,0.3,0,0.5-0.1c0.2,0,0.3-0.1,0.5-0.2l0,1c-0.2,0.1-0.4,0.1-0.6,0.2c-0.2,0-0.4,0.1-0.7,0.1
		c-0.2,0-0.4,0-0.6-0.1c-0.2-0.1-0.4-0.2-0.6-0.3c-0.2-0.2-0.4-0.4-0.5-0.6c-0.1-0.3-0.2-0.6-0.2-1v-4.7h-1.6v-0.9h1.6v-2.1h1.1v2.1
		h2.1V158.4z"/>
	<path class="st2" d="M471.9,159.2c-0.2-0.3-0.5-0.5-0.8-0.7c-0.4-0.2-0.7-0.3-1.1-0.3c-0.4,0-0.8,0.1-1.2,0.2
		c-0.4,0.2-0.7,0.4-0.9,0.6c-0.3,0.3-0.4,0.6-0.6,1c-0.1,0.4-0.2,0.8-0.2,1.2c0,0.4,0.1,0.8,0.2,1.2c0.1,0.4,0.3,0.7,0.6,1
		c0.2,0.3,0.6,0.5,0.9,0.6c0.4,0.2,0.8,0.2,1.2,0.2c0.5,0,0.9-0.1,1.2-0.3c0.3-0.2,0.6-0.4,0.8-0.7l0.8,0.6c-0.3,0.4-0.7,0.7-1.2,1
		c-0.5,0.2-1,0.4-1.7,0.4c-0.6,0-1.2-0.1-1.7-0.3c-0.5-0.2-0.9-0.5-1.3-0.8c-0.4-0.4-0.6-0.8-0.8-1.3c-0.2-0.5-0.3-1-0.3-1.6
		c0-0.6,0.1-1.1,0.3-1.6c0.2-0.5,0.5-0.9,0.8-1.3c0.4-0.4,0.8-0.6,1.3-0.8c0.5-0.2,1.1-0.3,1.7-0.3c0.5,0,1,0.1,1.5,0.3
		c0.5,0.2,0.9,0.5,1.3,1L471.9,159.2z"/>
	<path class="st2" d="M479.4,160.1c0-0.7-0.2-1.1-0.5-1.5c-0.3-0.3-0.8-0.5-1.5-0.5c-0.5,0-0.9,0.1-1.3,0.2c-0.4,0.2-0.7,0.4-1,0.6
		l-0.6-0.7c0.3-0.3,0.7-0.6,1.2-0.8c0.5-0.2,1.1-0.3,1.7-0.3c0.4,0,0.8,0.1,1.1,0.2c0.4,0.1,0.7,0.3,0.9,0.5
		c0.3,0.2,0.5,0.5,0.6,0.9c0.2,0.3,0.2,0.7,0.2,1.2v3.3c0,0.3,0,0.6,0,0.9c0,0.3,0.1,0.6,0.1,0.8h-1c0-0.2-0.1-0.4-0.1-0.6
		c0-0.2,0-0.4,0-0.6h0c-0.3,0.5-0.7,0.9-1.2,1.1c-0.4,0.2-1,0.3-1.6,0.3c-0.3,0-0.6,0-0.9-0.1c-0.3-0.1-0.6-0.2-0.8-0.4
		c-0.3-0.2-0.5-0.4-0.6-0.7c-0.2-0.3-0.3-0.6-0.3-1.1c0-0.6,0.1-1,0.4-1.4c0.3-0.3,0.7-0.6,1.2-0.8c0.5-0.2,1.1-0.3,1.7-0.3
		c0.6,0,1.3-0.1,2-0.1V160.1z M479,161.2c-0.5,0-0.9,0-1.4,0.1c-0.5,0-0.9,0.1-1.2,0.2c-0.4,0.1-0.7,0.3-0.9,0.5
		c-0.2,0.2-0.4,0.5-0.4,0.9c0,0.3,0.1,0.5,0.2,0.7c0.1,0.2,0.2,0.3,0.4,0.4c0.2,0.1,0.4,0.2,0.6,0.2c0.2,0,0.4,0.1,0.6,0.1
		c0.4,0,0.7-0.1,1-0.2c0.3-0.1,0.6-0.3,0.8-0.5c0.2-0.2,0.4-0.5,0.5-0.8c0.1-0.3,0.2-0.6,0.2-1v-0.6H479z"/>
	<path class="st2" d="M484.2,157.5c0,0.2,0,0.4,0,0.7c0,0.2,0,0.5,0,0.6h0c0.2-0.4,0.6-0.8,1.1-1.1c0.5-0.3,1-0.4,1.5-0.4
		c1,0,1.7,0.3,2.2,0.9c0.5,0.6,0.7,1.3,0.7,2.3v4.6h-1.1v-4.2c0-0.4,0-0.8-0.1-1.1c-0.1-0.3-0.2-0.6-0.3-0.8
		c-0.2-0.2-0.4-0.4-0.6-0.5c-0.3-0.1-0.6-0.2-1-0.2c-0.3,0-0.6,0.1-0.8,0.2c-0.3,0.1-0.5,0.3-0.7,0.5c-0.2,0.2-0.4,0.6-0.5,0.9
		c-0.1,0.4-0.2,0.8-0.2,1.3v3.9h-1.1v-5.9c0-0.2,0-0.5,0-0.8c0-0.3,0-0.6,0-0.9H484.2z"/>
	<path class="st2" d="M498.1,159.2c-0.2-0.3-0.5-0.5-0.8-0.7c-0.4-0.2-0.7-0.3-1.1-0.3c-0.4,0-0.8,0.1-1.2,0.2
		c-0.4,0.2-0.7,0.4-0.9,0.6c-0.3,0.3-0.4,0.6-0.6,1c-0.1,0.4-0.2,0.8-0.2,1.2c0,0.4,0.1,0.8,0.2,1.2c0.1,0.4,0.3,0.7,0.6,1
		c0.2,0.3,0.6,0.5,0.9,0.6c0.4,0.2,0.8,0.2,1.2,0.2c0.5,0,0.9-0.1,1.2-0.3c0.3-0.2,0.6-0.4,0.8-0.7l0.8,0.6c-0.3,0.4-0.7,0.7-1.2,1
		c-0.5,0.2-1,0.4-1.7,0.4c-0.6,0-1.2-0.1-1.7-0.3c-0.5-0.2-0.9-0.5-1.3-0.8c-0.4-0.4-0.6-0.8-0.8-1.3c-0.2-0.5-0.3-1-0.3-1.6
		c0-0.6,0.1-1.1,0.3-1.6c0.2-0.5,0.5-0.9,0.8-1.3c0.4-0.4,0.8-0.6,1.3-0.8c0.5-0.2,1.1-0.3,1.7-0.3c0.5,0,1,0.1,1.5,0.3
		c0.5,0.2,0.9,0.5,1.3,1L498.1,159.2z"/>
	<path class="st2" d="M507.6,161c0,0.1,0,0.2,0,0.2c0,0.1,0,0.2,0,0.3h-6.3c0,0.4,0.1,0.7,0.2,1.1c0.1,0.3,0.3,0.6,0.6,0.9
		c0.2,0.2,0.5,0.4,0.9,0.6c0.3,0.1,0.7,0.2,1.1,0.2c0.6,0,1.1-0.1,1.5-0.4c0.4-0.3,0.7-0.6,0.9-0.9l0.8,0.6c-0.5,0.6-1,1-1.5,1.2
		c-0.5,0.2-1.1,0.4-1.8,0.4c-0.6,0-1.1-0.1-1.6-0.3c-0.5-0.2-0.9-0.5-1.2-0.8c-0.3-0.4-0.6-0.8-0.8-1.3c-0.2-0.5-0.3-1-0.3-1.6
		c0-0.6,0.1-1.1,0.3-1.6c0.2-0.5,0.5-0.9,0.8-1.3c0.3-0.4,0.8-0.6,1.2-0.8c0.5-0.2,1-0.3,1.5-0.3c0.6,0,1.1,0.1,1.6,0.3
		c0.5,0.2,0.8,0.5,1.1,0.8c0.3,0.3,0.5,0.7,0.7,1.2C507.5,160,507.6,160.5,507.6,161z M506.5,160.7c0-0.7-0.3-1.3-0.7-1.8
		c-0.4-0.5-1-0.7-1.8-0.7c-0.4,0-0.7,0.1-1,0.2c-0.3,0.1-0.6,0.3-0.8,0.5c-0.2,0.2-0.4,0.5-0.6,0.8c-0.1,0.3-0.2,0.6-0.2,0.9H506.5z
		"/>
	<path class="st2" d="M509.9,158.3c0-0.3,0-0.6,0-0.9h1.1c0,0.2,0,0.4,0,0.7c0,0.2,0,0.5,0,0.6h0c0.2-0.4,0.5-0.8,1-1.1
		c0.4-0.3,0.9-0.4,1.5-0.4c0.1,0,0.3,0,0.4,0c0.1,0,0.2,0,0.3,0.1l-0.1,1.1c-0.1,0-0.2,0-0.3-0.1c-0.2,0-0.3,0-0.5,0
		c-0.3,0-0.6,0.1-0.8,0.2c-0.3,0.1-0.5,0.3-0.7,0.5c-0.2,0.2-0.4,0.5-0.5,0.9c-0.1,0.4-0.2,0.8-0.2,1.3v3.9H510v-5.9
		C510,158.9,510,158.7,509.9,158.3z"/>
</g>
</svg>
