<?xml version="1.0" encoding="utf-8"?>
<!-- Generator: Adobe Illustrator 19.2.0, SVG Export Plug-In . SVG Version: 6.00 Build 0)  -->
<svg version="1.1" id="Layer_1" xmlns="http://www.w3.org/2000/svg" xmlns:xlink="http://www.w3.org/1999/xlink" x="0px" y="0px"
	 viewBox="0 0 264.4 97.7" style="enable-background:new 0 0 264.4 97.7;" xml:space="preserve">
<style type="text/css">
	.st0{fill-rule:evenodd;clip-rule:evenodd;}
	.st1{fill-rule:evenodd;clip-rule:evenodd;fill:none;}
	.st2{fill:#E9128C;}
	.st3{fill:#29AAE2;}
	.st4{fill:#FFFFFF;}
</style>
<g>
	<path class="st0" d="M42.8,23.2c0.1,5.8-1.3,10.6-3.1,15.4c-0.3,0.7-0.3,1.3,0,2c3,6.4,6.1,12.8,9,19.2c2.4,5.3,5.1,10.5,7.7,15.7
		c0.7,1.4,0.6,2.7,0,4.1c-2.6,5.7-5.2,11.4-7.8,17c-0.2,0.4-0.4,0.9-1,0.9c-0.6,0-0.9-0.4-1.1-0.9c-1.1-2.2-2.1-4.4-3.1-6.7
		c-2.4-5.3-4.8-10.7-7.5-16c-1.5-2.9-2.8-5.9-4.2-8.8c-0.4-0.9-0.9-1.7-1.4-2.5c-0.5-0.8-1.2-0.7-1.7,0.1c-0.6,1.1-1.2,2.4-1.7,3.5
		C22.8,75.7,19,85,14.4,94c-0.3,0.6-0.5,1.3-0.8,1.9c-0.7,2-2.1,2.4-3.5,0.8C9,95.4,7.9,94,6.8,92.6c-2-2.4-3.9-5-5.9-7.3
		c-1.1-1.3-1.1-2.4-0.3-3.9C7.1,69,13.5,56.6,20,44.2c0.8-1.4,0.9-2.6,0.2-4.2c-1.4-3-2.8-6.1-3.8-9.3c-1.1-3.7-1.7-7.4-1.2-11.2
		c0.3-2.7,1.5-5.1,2.9-7.4c2.5-4.2,5.7-7.9,9.6-10.9C30-0.6,32.9-0.3,35,1.8c1.1,1.1,1.9,2.4,2.5,3.8c0.7,1.6,1.5,3.2,2.1,4.8
		C41.5,14.7,42.5,19.2,42.8,23.2z M29.3,8.1c-2.9,0-3.4,0.6-2.8,3c0.7,3,1.8,5.8,3.2,8.5c0.7,1.3,1.6,1.3,2.4,0.1
		c0.5-0.8,0.9-1.6,1.3-2.4c1.1-2.1,1.6-4.4,1.9-6.7c0.1-0.6,0.2-1.3-0.6-1.4C32.7,8.7,30.8,8.1,29.3,8.1z M16.5,18
		c1.2-3.6,3.1-6.7,5.2-9.7c-1.2,1.5-2.5,2.9-3.5,4.5c-0.6,1-0.9,2.1-1.6,3.1C16.3,16.5,16,17.2,16.5,18z M22.5,39.7
		c0.1,0,0.2,0.1,0.3,0.1c1.5-3.4,3.6-6.5,4.6-10.2C25.8,33,24.1,36.4,22.5,39.7z"/>
	<path class="st1" d="M29.3,8.1c1.5,0.1,3.4,0.6,5.3,1c0.8,0.2,0.7,0.9,0.6,1.4c-0.3,2.3-0.8,4.6-1.9,6.7c-0.4,0.8-0.8,1.6-1.3,2.4
		c-0.8,1.2-1.7,1.2-2.4-0.1c-1.4-2.7-2.5-5.5-3.2-8.5C25.9,8.7,26.4,8.1,29.3,8.1z"/>
	<path class="st0" d="M16.5,18c-0.5-0.8-0.2-1.5,0.1-2c0.7-1,1-2.1,1.6-3.1c0.9-1.6,2.2-3.1,3.5-4.5C19.6,11.3,17.7,14.4,16.5,18z"
		/>
	<path class="st1" d="M22.5,39.7c1.7-3.3,3.3-6.7,5-10c-1.1,3.6-3.1,6.8-4.6,10.2C22.7,39.8,22.6,39.8,22.5,39.7z"/>
	<path class="st2" d="M25.7,6.6V4.5c0,0,1.2-3.9,5.4-3.5c4.1,0.4,5.2,5.6,5.2,5.6L36.1,8C36.1,8,31.5,5,25.7,6.6z"/>
	<path class="st3" d="M25.5,4.8c0,0,0.1,7.9,1.6,11.6c1.5,3.7,29,61.1,29,61.1l-8.2,17.2L17.8,31.9C17.8,31.9,11.5,17.3,25.5,4.8z"
		/>
	<path class="st2" d="M36.2,6.6c0,0,7.8,12,3.9,25.9c-3.9,13.9-29,63.2-29,63.2L0.6,82.7C0.6,82.7,36,20.1,36.2,6.6z"/>
	<g>
		<path class="st4" d="M12.6,77.2C12.5,77.2,12.5,77.2,12.6,77.2c0,0.1-0.1,0.1-0.1,0.2c-0.1,0-0.1,0-0.1,0.1c0,0,0,0-0.1,0
			c0,0,0,0,0,0.1c0,0,0,0-0.1,0c0,0,0,0,0,0.1c-0.1,0-0.1,0-0.1,0.1c0,0-0.1,0-0.1,0c0,0,0,0.1,0,0.1c-0.1-0.1,0,0-0.1,0.1
			c0,0-0.1,0-0.1,0.1c-0.1,0-0.1,0-0.1,0c0,0,0,0.1,0,0.1c-0.1,0-0.1,0-0.1,0.1c-0.1,0-0.1,0-0.1,0.1c-0.1,0,0-0.1-0.1-0.1
			c0,0.1,0,0.2,0,0.3c-0.1,0,0,0.1-0.1,0.1c0,0.1,0,0.1,0,0.1c0,0-0.1,0-0.1,0c0,0,0,0.1-0.1,0.1c0,0,0,0.1,0,0.1
			c-0.1,0-0.1,0-0.1,0.1c0,0-0.1,0-0.1,0.1c-0.1,0,0,0.1-0.1,0.1c0,0,0,0,0,0.1c0,0-0.1,0-0.1,0.1c-0.1,0-0.3,0-0.4,0
			c0,0,0,0.1-0.1,0.1c0,0,0,0,0,0.1c0,0,0.1,0,0.1,0c0,0.1,0,0.1,0,0.2c-0.1,0-0.1,0-0.1,0.1c0,0,0,0-0.1,0c0,0.1,0,0.1-0.1,0.1
			c0,0,0,0.1,0,0.1c-0.1,0-0.1,0-0.1,0.1c-0.1,0-0.1,0-0.2,0c0,0,0,0,0-0.1c-0.1,0-0.1,0-0.2,0c0,0,0,0,0-0.1c-0.1,0-0.1,0-0.2,0
			c0,0,0,0,0-0.1c-0.1,0-0.2,0-0.2,0c0,0,0-0.1-0.1-0.1c0-0.2,0-0.3,0-0.5c0,0,0,0,0.1,0c0,0,0-0.1,0-0.1c0.1,0,0.1,0,0.1-0.1
			c0,0,0,0,0.1,0c0,0,0,0,0-0.1c0.1,0,0.1,0,0.1-0.1c0.1,0,0.1,0,0.2,0c0,0,0,0,0-0.1c0.1,0,0.1,0,0.2,0c0-0.2,0-0.3,0-0.5
			c0.1,0,0,0,0.1-0.1c0,0,0,0,0.1,0c0,0,0-0.1,0.1-0.1c0,0,0-0.1,0-0.1c0.1,0,0-0.1,0.1-0.1c0,0,0,0,0-0.1c0,0,0,0,0.1,0
			c0,0,0,0,0-0.1c0,0,0,0,0.1,0c0,0,0-0.1,0-0.1c0.1,0,0.1,0,0.1-0.1c0,0,0.1,0,0.1-0.1c0,0,0.1,0,0.1-0.1c0,0,0,0,0.1,0
			c0,0,0,0,0-0.1c0,0,0.1,0,0.1,0c0,0,0-0.1,0-0.1c0.1,0,0.1,0,0.1-0.1c0,0,0.1,0,0.1,0c0,0,0,0,0-0.1c0,0,0,0,0.1,0
			c0,0,0-0.1,0.1-0.1c0-0.1,0-0.1,0-0.1c0,0,0,0,0.1,0c0,0,0-0.1,0-0.1c0,0,0,0,0.1,0c0-0.1,0-0.1,0-0.1c0,0,0,0,0.1,0
			c0,0,0-0.1,0-0.1c0.1,0,0-0.1,0.1-0.1c0,0,0,0,0-0.1c0,0,0.1,0,0.1-0.1c0,0,0.1,0,0.1,0c0,0,0-0.1,0-0.1c0.1,0,0.2,0,0.4,0
			c0,0,0,0,0,0.1c0.1,0,0.1,0.1,0.1,0.1c0,0.1,0.1,0,0.1,0.1c0,0,0,0,0.1,0c0,0,0,0.1,0.1,0.1c0,0,0,0,0,0.1c0.1,0,0,0.1,0.1,0.1
			c0,0,0,0.1,0.1,0.1C12.6,77,12.6,77.1,12.6,77.2z"/>
		<path class="st4" d="M11.8,84.4C11.8,84.4,11.8,84.5,11.8,84.4C11.8,84.5,11.8,84.5,11.8,84.4C11.8,84.4,11.8,84.4,11.8,84.4z"/>
		<path class="st4" d="M11.4,84.9C11.4,85,11.4,85,11.4,84.9C11.3,85,11.3,85,11.4,84.9C11.3,85,11.3,85,11.4,84.9
			C11.3,84.9,11.3,84.9,11.4,84.9z"/>
		<path class="st4" d="M10.2,77.2C10.1,77.2,10.1,77.2,10.2,77.2c-0.1,0-0.1,0.1-0.1,0.1c0,0,0,0-0.1,0c0,0,0,0.1-0.1,0.1
			c0,0,0,0,0,0.1c0,0,0,0-0.1,0c0,0,0,0,0,0.1c0,0-0.1,0-0.1,0.1c-0.1,0-0.1,0-0.1,0.1c-0.1,0-0.1,0-0.1,0.1c0,0-0.1,0-0.1,0.1
			c-0.1,0-0.2,0-0.2,0.1c0,0-0.1,0-0.1,0c0,0,0,0.1,0,0.1c0,0,0,0,0.1,0c0,0.1,0,0.2,0,0.3c-0.1,0,0,0.1-0.1,0.1c0,0,0,0.1,0,0.1
			c0,0-0.1,0-0.1,0.1c-0.1,0-0.1,0-0.1,0.1c-0.1,0-0.1,0-0.1,0.1c-0.1,0-0.2,0-0.2,0c0,0,0,0.1-0.1,0.1c0,0.1,0,0.2,0,0.3
			c0,0,0,0-0.1,0c0,0.1,0,0.2,0,0.2c-0.1,0,0-0.1-0.1-0.1c0,0,0,0.1,0,0.1c-0.1,0-0.2,0-0.3,0c0,0,0,0.1,0,0.1c-0.1,0,0-0.3-0.1-0.3
			c0-0.1,0-0.2-0.1-0.1c0-0.1,0-0.1,0-0.2c0.1,0,0-0.1,0.1-0.1c0,0,0-0.1,0-0.1c0.1,0,0.1,0,0.1-0.1c0.1,0,0.1,0,0.1-0.1
			c0,0,0,0,0,0.1c0,0,0,0,0.1,0c0,0,0-0.1,0.1-0.1c0,0,0-0.1,0-0.1c0,0,0,0-0.1,0c0-0.1,0-0.1,0-0.2c0,0,0.1,0,0.1,0
			c0,0-0.1,0-0.1,0c0-0.1,0-0.1,0.1-0.1c0-0.1,0-0.2,0-0.3c0.1,0,0.1,0,0.1-0.1c0,0,0.1,0,0.1,0c0-0.1,0-0.1,0-0.1
			c0.1,0,0.1,0,0.1-0.1c0.1,0,0.1,0,0.1-0.1c0,0,0,0,0.1,0c0,0,0,0,0,0.1c0,0,0.1,0,0.1,0c0,0,0-0.1,0.1-0.1c0-0.1,0-0.2,0-0.3
			C9,77.1,9,77,9,77c0.1,0,0.1,0,0.1-0.1c0,0,0,0,0.1,0c0,0,0-0.1,0-0.1c0,0,0.1,0,0.1,0c0-0.1,0.1-0.1,0.1-0.1c0,0,0.1,0,0.1,0
			c0,0,0-0.1,0-0.1c0.1,0,0.1,0,0.1-0.1c0.1,0,0.2,0,0.2-0.1c0,0,0.1,0,0.1,0c0,0.1,0,0.1,0.1,0.1c0,0,0,0,0,0.1c0.1,0,0.1,0,0.2,0
			c0,0,0,0.1,0,0.2c0.1,0,0,0.1,0.1,0.1C10.2,76.9,10.2,77.1,10.2,77.2z"/>
		<path class="st4" d="M8.9,84C8.9,84,8.9,84.1,8.9,84C8.9,84.1,8.9,84.1,8.9,84C8.8,84,8.9,84,8.9,84z"/>
		<path class="st4" d="M7.9,82.7c0,0-0.1,0-0.1,0c0,0,0-0.1,0-0.1C7.8,82.6,7.8,82.6,7.9,82.7C7.9,82.7,7.9,82.7,7.9,82.7z"/>
		<path class="st4" d="M7.8,83.4C7.8,83.4,7.8,83.4,7.8,83.4c-0.1,0.1-0.2,0.1-0.2,0.1c0,0,0,0,0-0.1c-0.1,0-0.1,0-0.2,0
			c0,0,0-0.1,0-0.1c0,0-0.1,0-0.1-0.1c0-0.1,0.1,0,0.1,0c0,0,0,0.1,0,0.1c0.1,0,0.1,0,0.2,0c0,0,0-0.1,0-0.1c0.1,0,0,0.1,0,0.1
			C7.7,83.4,7.8,83.4,7.8,83.4z"/>
		<path class="st4" d="M7.6,83C7.6,83,7.6,83,7.6,83C7.6,83,7.6,83,7.6,83C7.6,83,7.6,83,7.6,83z"/>
		<path class="st4" d="M7.6,83.2C7.6,83.2,7.6,83.2,7.6,83.2C7.6,83.2,7.6,83.2,7.6,83.2C7.6,83.2,7.6,83.2,7.6,83.2
			C7.6,83.2,7.6,83.2,7.6,83.2z"/>
		<path class="st4" d="M7.5,83C7.5,83,7.5,83,7.5,83C7.5,83,7.5,83,7.5,83C7.5,83,7.5,83,7.5,83z"/>
		<path class="st4" d="M7.4,82.9c0,0.1,0,0.1,0,0.2c0,0-0.1,0-0.1,0c0,0,0-0.1,0-0.1C7.4,83,7.3,82.9,7.4,82.9z"/>
		<path class="st4" d="M7.1,84c0,0.1,0,0.1,0,0.1c-0.1,0-0.2,0-0.2,0c0-0.1,0.1,0,0.1-0.1c0,0-0.1,0-0.1,0c0-0.1-0.1,0-0.1-0.1
			c0.1,0,0.2,0,0.3,0C7,83.9,7,84,7.1,84z"/>
		<path class="st4" d="M6.7,80.2C6.7,80.2,6.6,80.2,6.7,80.2C6.6,80.2,6.6,80.2,6.7,80.2C6.6,80.1,6.7,80.1,6.7,80.2
			C6.7,80.1,6.7,80.2,6.7,80.2z"/>
		<path class="st4" d="M6.5,84C6.5,84,6.5,84,6.5,84c-0.1,0-0.1-0.1-0.1-0.1c0,0,0,0,0,0C6.5,83.9,6.5,84,6.5,84z"/>
		<path class="st4" d="M6.4,84.6c0,0,0,0.1,0,0.1c-0.1,0,0-0.1-0.1-0.1c0,0,0,0,0-0.1C6.4,84.6,6.4,84.6,6.4,84.6z"/>
		<path class="st4" d="M6.3,84.1C6.3,84.1,6.3,84.1,6.3,84.1c0,0.1-0.1,0.1-0.1,0.1c0-0.1,0-0.1,0-0.2c0,0,0.1,0,0.1,0
			C6.4,84,6.3,84,6.3,84.1C6.3,84.1,6.3,84.1,6.3,84.1z"/>
		<path class="st4" d="M6.3,84.2C6.3,84.2,6.3,84.3,6.3,84.2C6.3,84.3,6.3,84.3,6.3,84.2C6.3,84.3,6.3,84.2,6.3,84.2
			C6.3,84.2,6.3,84.2,6.3,84.2z"/>
		<path class="st4" d="M6.3,84.4C6.3,84.4,6.3,84.4,6.3,84.4C6.3,84.4,6.3,84.4,6.3,84.4C6.3,84.4,6.3,84.3,6.3,84.4z"/>
		<path class="st4" d="M6.1,84.1c0,0,0,0.1,0,0.1C6.1,84.2,6.1,84.2,6.1,84.1c-0.1,0-0.1,0.1-0.1,0C6,84.1,6.1,84.1,6.1,84.1z"/>
		<path class="st4" d="M6.1,84.7C6.1,84.7,6.1,84.7,6.1,84.7C6.1,84.7,6,84.7,6.1,84.7C6,84.7,6,84.7,6.1,84.7
			C6,84.7,6.1,84.7,6.1,84.7z"/>
		<path class="st4" d="M6,83.8C6,83.8,6,83.8,6,83.8C5.9,83.8,5.9,83.8,6,83.8c-0.1,0-0.1,0-0.1-0.1C5.9,83.7,5.9,83.7,6,83.8
			C5.9,83.8,6,83.7,6,83.8z"/>
		<path class="st4" d="M6,81.2C6,81.2,6,81.2,6,81.2C5.9,81.3,5.9,81.3,6,81.2C5.9,81.2,5.9,81.2,6,81.2C5.9,81.2,5.9,81.2,6,81.2z"
			/>
		<path class="st4" d="M5.8,83.6C5.8,83.6,5.8,83.6,5.8,83.6C5.7,83.6,5.7,83.5,5.8,83.6z"/>
		<path class="st4" d="M14.2,81.1C14.2,81,14.2,81,14.2,81.1C14.2,81,14.1,81,14.2,81.1C14.1,81,14.1,81,14.2,81.1
			C14.1,81.1,14.2,81,14.2,81.1C14.2,81.1,14.2,81.1,14.2,81.1c0,0.1-0.1,0.1-0.1,0.1c0,0,0-0.1,0-0.1c-0.1,0,0,0,0,0.1
			c-0.1,0-0.1,0-0.2,0c0,0,0,0,0-0.1c0,0,0,0,0,0c0,0,0,0.1,0,0.2c0,0,0,0-0.1,0c0,0,0,0.1-0.1,0.1c0,0,0,0.1,0,0.1c0,0-0.1,0-0.1,0
			c0,0,0,0,0,0.1c0,0,0.1,0,0.1,0.1c0,0-0.1,0-0.1-0.1c0,0,0,0-0.1,0c0,0,0,0.1,0,0.1c0,0,0,0,0-0.1c-0.1,0-0.1,0-0.2,0
			c0,0,0,0.1-0.1,0.1c0,0.1,0,0.1,0,0.1c0,0-0.1,0-0.1,0c0,0,0,0.1,0,0.1c-0.1,0-0.1,0-0.2,0c-0.1,0,0,0.2-0.1,0.2c0,0,0,0,0.1,0
			c0,0.1,0,0.1,0,0.2c-0.1,0,0,0.1-0.1,0.1c0,0.1,0,0.1,0,0.1c0,0-0.1,0-0.1,0c0,0,0,0.1-0.1,0.1c0,0,0,0,0,0.1c0,0,0,0-0.1,0
			c0,0,0,0,0,0.1c-0.1,0-0.1,0-0.1,0.1c-0.1,0-0.1,0-0.1,0.1c0,0-0.1,0-0.1,0.1c-0.1,0-0.1,0-0.1,0.1c0,0-0.1,0-0.1,0.1
			c0,0-0.1,0-0.1,0.1c-0.1,0-0.1,0-0.2,0c0,0,0,0,0-0.1c0,0-0.1,0-0.1,0c0,0.1,0,0.2,0,0.3c-0.1,0-0.1,0-0.1,0.1
			c-0.1,0-0.1,0-0.1,0.1c-0.1,0-0.2,0-0.2,0c0,0.1-0.1,0-0.1,0.1c-0.1,0-0.1,0-0.2,0c0,0,0,0,0,0.1c-0.1,0-0.1,0-0.1,0.1
			c-0.1,0,0,0,0-0.1c-0.1,0-0.2,0-0.3,0c0,0,0,0.1,0,0.1c0,0-0.1,0-0.1,0c0,0,0,0.1,0,0.1c0,0,0,0,0.1,0c0,0.1,0,0.1,0,0.2
			c0,0,0,0-0.1,0c0,0.1,0,0.1,0,0.2c-0.1,0-0.1,0-0.1,0c0,0,0,0.1-0.1,0.1c0,0.1,0,0.2,0,0.3c0,0,0,0-0.1,0c0,0,0,0.1,0,0.1
			c0.1,0,0,0.1,0.1,0.1c0,0,0,0,0,0c0,0,0,0-0.1,0c0,0,0,0.1,0,0.1c-0.1,0-0.1,0-0.1,0.1c0,0,0,0-0.1,0c0,0.1,0,0.2,0,0.2
			c0,0,0.1,0,0.1,0c0-0.1,0-0.1,0-0.2c0.1,0,0.1,0,0.1-0.1c0,0,0,0,0,0c0,0,0,0,0,0.1c0.1,0,0.1,0,0.2,0c0,0,0,0,0,0.1
			c0.1,0,0.2,0,0.3,0c0,0,0,0,0-0.1c0,0-0.1,0-0.1,0c0-0.1,0.1,0,0.2,0c0,0,0-0.1,0-0.1c0.1,0,0,0.1,0,0.1c0,0,0.1,0,0.1,0
			c0,0,0,0,0-0.1c0.1,0,0.1,0,0.1-0.1c0,0,0,0.1,0,0.1c0.1,0,0.1,0,0.2,0c0,0,0-0.1,0-0.1c0.1,0,0,0,0,0.1c0,0,0.1,0,0.1,0
			c0,0,0,0,0,0c0,0-0.1,0-0.1,0.1c-0.1,0-0.1,0-0.2,0c0,0,0,0,0,0.1c0,0,0,0,0.1,0c0,0,0,0.1,0,0.1c0,0,0,0-0.1,0c0,0.1,0,0.1,0,0.1
			c0,0-0.1,0-0.1,0c0-0.1,0-0.1,0-0.2c0,0,0,0,0,0c0,0.1,0,0.2,0,0.3c-0.1,0-0.1,0-0.2,0c0,0,0,0,0,0c0,0,0.1,0,0.2,0c0,0,0,0,0,0.1
			c0,0,0,0,0,0c0,0,0-0.1,0-0.1c0.1,0,0,0,0.1-0.1c0,0,0.1,0,0.1-0.1c0.1,0,0,0.1,0.1,0.1c0,0,0,0,0-0.1c0.1,0,0.1,0,0.2,0
			c0,0,0,0.1,0,0.1c0,0,0-0.1,0-0.1c0,0,0,0-0.1,0c0-0.1,0-0.3,0-0.4c0,0-0.1,0-0.1,0c0,0,0,0,0,0c0-0.1,0,0,0.1,0
			c0,0,0-0.1,0.1-0.1c0,0,0,0,0-0.1c0,0,0,0,0.1,0c0,0,0-0.1,0-0.1c0.1,0,0.1,0,0.1-0.1c0,0,0,0,0.1,0c0-0.1,0-0.1,0.1-0.1
			c0-0.1,0,0-0.1-0.1c0,0,0,0,0-0.1c0,0,0,0,0,0c0.1,0,0,0.1,0.1,0.1c0,0,0-0.1,0-0.1c0.1,0,0.1,0,0.1-0.1c0.1,0,0.1,0,0.1-0.1
			c0.1,0,0.3,0,0.4,0c0,0,0,0,0,0.1c0.1,0,0.1,0,0.2,0c0,0,0,0.1,0,0.1c0,0,0.1,0,0.1,0c0,0.1,0.1,0,0.1,0.1c0,0.1,0.1,0,0.1,0.1
			c0.1,0,0.1,0,0.1,0c0,0.1,0,0.2,0.1,0.2c0,0.1,0,0.2,0,0.3c-0.1,0,0,0.1-0.1,0.1c0,0,0,0,0,0c0,0,0,0.1-0.1,0.1c0,0,0,0.1,0,0.1
			c-0.1,0-0.1,0-0.1,0.1c0,0-0.1,0-0.1,0c0,0,0,0,0,0.1c0,0-0.1,0-0.1,0.1c0,0-0.1,0-0.1,0c0,0.1-0.1,0-0.1,0.1c0,0-0.1,0-0.1,0
			c0,0.1-0.1,0-0.1,0.1c-0.1,0-0.1,0-0.1,0.1c0,0-0.1,0-0.1,0.1c-0.1,0-0.1,0-0.2,0c0,0,0,0.1,0,0.1c0,0-0.1,0-0.1,0.1
			c-0.1,0-0.2,0-0.1,0.1c-0.1,0-0.2,0-0.2,0c0-0.1,0-0.1,0-0.1c0-0.1-0.1,0-0.2,0c0,0,0,0,0,0.1c0,0,0,0-0.1,0c0-0.1,0-0.1,0-0.2
			c0,0,0,0-0.1,0c0,0.1-0.1,0-0.1,0.1c0,0-0.1,0-0.1,0c0,0,0,0.1,0,0.1c-0.1,0-0.1,0-0.1,0.1c0,0,0,0-0.1,0c0,0,0,0,0-0.1
			c0,0,0,0,0.1,0c0,0,0,0,0-0.1c0,0-0.1,0-0.1,0c0,0,0,0.1,0,0.1c-0.1,0-0.1,0-0.2,0c0,0,0,0,0,0.1c0,0,0.1,0,0.1,0c0,0,0,0,0,0
			c0,0,0,0-0.1,0c0,0.1,0,0.1,0,0.1c0,0-0.1,0-0.1,0c0,0,0,0.1-0.1,0.1c0,0,0,0.1,0,0.1c-0.1,0-0.1,0-0.1,0.1c-0.1,0-0.1,0-0.1,0.1
			c-0.1,0-0.2,0-0.2,0c0,0,0,0,0,0.1c-0.2,0-0.3,0-0.5,0c0,0,0-0.1,0-0.1c0,0,0,0,0,0.1c-0.1,0-0.1,0-0.1,0.1c-0.1,0-0.2,0-0.3,0
			c0,0,0,0,0,0.1c-0.3,0-0.6,0-0.8,0c0,0,0-0.1,0-0.1c-0.1,0,0,0-0.1,0.1c0,0-0.1,0-0.1,0.1c-0.1,0-0.2,0-0.3,0c0,0,0,0,0-0.1
			c-0.1,0-0.2,0-0.2,0c0,0,0,0,0-0.1c-0.1,0-0.1,0-0.1,0c0,0,0,0,0-0.1c-0.1,0-0.1,0-0.1,0c0-0.1,0-0.1-0.1-0.1c0,0,0,0,0-0.1
			c0,0-0.1,0-0.1,0c0-0.1,0-0.1-0.1-0.1c0,0,0-0.1-0.1-0.1c0-0.1,0-0.1,0-0.2c0,0,0,0,0,0c0,0,0,0.1,0,0.1c0,0,0,0-0.1,0
			c0,0,0,0,0-0.1c0,0,0,0-0.1,0c0,0,0,0.1,0,0.1c-0.1,0,0,0,0-0.1c0,0-0.1,0-0.1,0c0-0.1,0-0.1,0-0.2c-0.1,0,0-0.1-0.1-0.1
			c0,0,0-0.1-0.1-0.1c0-0.1,0-0.1,0-0.2c0,0,0,0-0.1,0c0,0,0-0.1,0-0.1c0,0,0,0-0.1,0c0-0.1-0.1-0.1-0.1-0.1c0,0-0.1,0-0.1,0
			c0,0,0,0,0-0.1c0.1,0,0.1,0,0.2,0c0,0,0,0,0,0c0,0-0.1,0-0.2,0c0-0.1,0-0.1-0.1-0.1c0-0.1,0.1-0.1,0.1-0.1c0,0,0,0,0,0.1
			c0,0,0.1,0,0.1,0c0,0,0,0,0-0.1c0,0,0,0,0.1,0c0,0.1,0,0.1,0,0.2c0.1,0,0-0.1,0.1-0.1c0,0,0,0,0-0.1c-0.1,0,0-0.1-0.1-0.1
			c0,0,0,0,0,0c0,0,0.1,0,0.1-0.1c0,0,0,0,0.1,0c0,0,0,0,0-0.1c0,0-0.1,0-0.1,0c0,0,0,0,0,0c0,0,0,0,0.1,0c0,0,0,0,0-0.1
			c0,0-0.1,0-0.1,0c0,0,0.1,0,0.1,0c0-0.1,0-0.1,0-0.1c0,0,0.1,0,0.1,0c0,0-0.1,0-0.1-0.1c-0.1,0-0.1,0-0.2,0c0-0.1,0-0.1-0.1-0.1
			c0,0,0-0.1,0-0.1c0.1,0,0,0.1,0.1,0.1c0,0,0,0,0,0.1c0,0,0.1,0,0.1,0.1c0,0,0,0,0.1,0c0,0,0-0.1,0-0.2c0,0,0,0-0.1,0
			c0,0,0,0,0-0.1c0,0,0,0,0.1,0c0,0.1,0,0.1,0.1,0.1c0,0,0,0.1,0.1,0.1c0,0,0,0.1,0,0.1c0,0,0-0.1,0-0.1c0,0,0,0,0.1,0
			c0,0,0,0.1,0,0.1c0,0,0-0.1,0-0.1c0,0,0.1,0,0.1,0c0-0.1,0-0.1,0-0.1c0,0,0.1,0,0.1,0c0,0,0,0.1,0,0.2c0,0,0.1,0,0.1,0
			c0,0,0,0-0.1,0c0-0.1,0-0.1,0-0.2c-0.1,0-0.1-0.1-0.1-0.1c0,0,0,0,0,0.1c-0.1,0,0,0.1-0.1,0.1c-0.1,0,0-0.1,0-0.1c0,0,0,0,0.1,0
			c0-0.1,0-0.1,0-0.1c0,0-0.1,0-0.2,0c0,0,0,0,0-0.1c0.1,0,0.1,0,0.2,0c0,0,0,0.1,0.1,0.1c0,0.1,0.1,0,0.1,0.1c0,0,0,0,0.1,0
			c0,0,0-0.1,0-0.1c0,0,0,0,0,0c0,0.1-0.1,0-0.1,0.1c0,0,0,0,0.1,0c0,0,0-0.1,0-0.1c0.1,0,0,0.1,0,0.1c0,0,0,0,0.1,0
			c0,0,0-0.1,0-0.1c-0.1,0,0-0.1-0.1-0.1c0-0.1,0-0.1,0-0.1c0.1,0,0,0,0,0.1c0,0,0.1,0,0.1,0.1c0.1,0,0.1,0,0.2,0c0,0,0-0.1,0-0.1
			c0,0,0,0.1,0,0.1c0.1,0,0.1,0,0.1,0c0,0,0,0.1,0,0.1c0.1,0,0-0.1,0.1-0.1c0,0,0-0.1,0-0.1c0.1,0,0-0.1,0.1-0.1c0,0,0,0.1,0,0.1
			c0.1,0,0.1,0,0.2,0c0,0,0,0.1,0,0.1c0.1,0,0,0,0-0.1c0,0,0-0.1-0.1-0.1c0,0,0,0,0,0c0,0,0,0,0.1,0c0-0.1,0-0.1,0-0.2
			c0,0-0.1,0-0.1,0c0,0,0-0.1,0-0.1c0,0,0,0-0.1,0c0,0,0,0.1,0,0.1c-0.1,0,0-0.1,0-0.1c0,0,0,0-0.1,0c0,0,0,0.1,0,0.1c0,0,0,0,0-0.1
			c-0.1,0-0.1,0-0.1,0.1c0,0,0,0,0-0.1c0.1,0,0-0.1,0.1-0.1c0-0.1,0-0.1-0.1-0.1c0-0.1,0-0.2,0-0.3c0.1,0,0,0,0,0.1
			c0.1,0,0.2,0,0.3,0c0,0,0-0.1,0-0.1c0,0-0.1,0-0.1-0.1c0,0-0.1,0-0.1,0c0,0,0-0.1,0-0.1c-0.1,0-0.1,0-0.2,0c0-0.1,0-0.1,0-0.1
			c-0.1,0-0.1,0-0.2,0c0,0,0,0,0-0.1c0,0-0.1,0-0.1,0c0,0.1,0,0.1,0,0.2c0,0,0,0-0.1,0c0,0,0,0,0,0.1c0.1,0,0,0.1,0.1,0.1
			c0,0,0,0.1,0,0.1c0,0,0.1,0,0.1,0c0,0,0,0.1,0,0.1c-0.1,0,0,0-0.1,0.1c0,0,0-0.1,0-0.1c0,0-0.1,0-0.1,0c0,0,0,0,0-0.1
			c0,0-0.1,0-0.1-0.1c0,0,0,0-0.1,0c0,0,0,0,0,0.1c0,0-0.1,0-0.1,0c0-0.1,0-0.1,0-0.2c0,0,0,0,0,0c0,0,0,0.1,0,0.2c0,0,0,0,0-0.1
			c0,0,0,0-0.1,0c0,0,0,0.1,0,0.2c0,0,0,0,0.1,0c0,0,0,0.1,0,0.1c0,0-0.1,0-0.1,0.1c-0.1,0-0.1,0-0.1,0c0,0,0,0.1-0.1,0.1
			c0,0,0,0,0,0.1c0,0,0,0,0.1,0c0,0,0,0,0-0.1c0.1,0,0.1,0,0.1-0.1c0.1,0,0.1,0,0.2,0c0,0,0-0.1,0-0.1c0.1,0,0,0.2,0,0.2
			c0,0,0,0,0.1,0c0,0,0,0,0,0.1c-0.1,0-0.1,0-0.1,0.1c-0.1,0-0.1,0-0.1,0.1c-0.1,0-0.1,0-0.2,0c0,0,0,0.1,0,0.1c0,0,0,0,0-0.1
			c0,0-0.1,0-0.1,0c0,0,0,0,0-0.1c0,0,0,0,0.1,0c0,0,0,0,0-0.1c0,0,0,0-0.1,0c0,0,0,0.1-0.1,0.1c0,0,0,0,0,0.1c-0.1,0-0.1,0-0.1,0.1
			c0,0-0.1,0-0.1,0c0,0,0,0,0,0.1c0,0,0.1,0,0.1,0c0,0,0-0.1,0-0.1c0.1,0,0,0,0,0.1c0,0,0.1,0,0.1,0c0,0,0,0,0,0.1
			c-0.1,0-0.1,0-0.2,0c0,0,0,0.1,0,0.1c-0.1,0-0.1,0-0.1,0c0-0.1,0-0.1,0-0.2c0,0,0,0,0,0c0,0,0,0.2,0,0.2c-0.1,0,0-0.1-0.1-0.1
			c-0.1,0,0,0.1,0,0.1c0,0-0.1,0-0.2,0c0,0,0,0,0,0c0,0,0,0,0.1,0c0,0,0,0,0-0.1c0,0,0,0,0,0c0,0.1-0.1,0-0.1,0.1c0,0-0.1,0-0.1,0
			c0,0,0,0,0,0c0,0,0,0,0.1,0c0-0.1,0-0.1,0-0.2c0,0-0.1,0-0.1,0c0,0,0,0,0-0.1c0,0-0.1,0-0.1,0c0,0,0,0,0-0.1c0,0-0.1,0-0.1,0
			c0,0.1-0.1,0-0.1,0.1c0,0-0.1,0-0.1,0c0,0,0-0.1,0-0.1c-0.1,0,0,0.1-0.1,0.1c0,0,0,0,0-0.1c0,0,0,0-0.1,0c0,0,0,0.1,0,0.1
			c-0.1,0,0,0,0-0.1c0,0,0,0,0.1,0c0,0,0,0,0-0.1c0,0,0,0-0.1,0c0,0,0-0.1,0-0.1c0,0,0,0,0,0.1c0,0,0,0,0.1,0c0,0,0,0,0-0.1
			c0,0,0,0-0.1,0c0,0,0-0.1,0-0.1c-0.1,0,0,0.1-0.1,0.1c-0.1,0,0-0.1,0-0.1c0,0,0,0-0.1,0c0,0,0,0.1,0,0.1c-0.1,0,0-0.1-0.1-0.1
			c0-0.1,0-0.3,0-0.4c0,0,0.1,0,0.1,0c0-0.1,0,0-0.1-0.1c0,0,0,0,0,0c0,0,0,0,0.1,0c0-0.1,0-0.2,0.1-0.2c0-0.1-0.1,0,0-0.1
			c0.1,0,0.1-0.1,0-0.2c0,0,0,0,0.1,0c0-0.1,0-0.1,0-0.1c0,0,0,0-0.1,0c0,0,0,0,0-0.1c0,0,0.1,0,0.1,0c0-0.1,0-0.1,0-0.1
			c0-0.1,0.2,0,0.2-0.1c0,0-0.1,0-0.1-0.1c0.1,0,0,0.1,0.1,0.1c0,0,0-0.1,0-0.1c0.1,0,0.1,0,0.1-0.1c0.1,0,0.1,0,0.1,0
			c0,0,0,0,0,0.1c0,0,0.1,0,0.1,0c0,0,0,0,0,0c0,0-0.1,0-0.1,0c0,0,0,0,0.1,0c0-0.1,0-0.1,0-0.2c0,0,0,0,0.1,0c0,0,0,0.1,0,0.1
			c0,0,0,0,0,0c0,0,0-0.1,0-0.1c0,0,0,0-0.1,0c0,0,0,0,0-0.1c0,0,0,0,0.1,0c0,0,0,0,0,0.1c0.1,0,0.1,0,0.1,0c0,0,0-0.1,0.1-0.1
			c0-0.1,0,0-0.1-0.1c0,0,0-0.1,0-0.1c0,0,0,0,0,0.1c0.1,0,0,0.1,0.1,0.1c0,0,0-0.1-0.1-0.1c0,0,0-0.1,0-0.1c0,0,0,0,0.1,0
			c0,0,0-0.1,0-0.1c0,0,0.1,0,0.1,0c0,0,0,0,0-0.1c-0.1,0,0-0.1-0.1-0.2c0,0,0.1,0,0.1,0c0,0,0,0,0,0.1c0,0,0,0,0,0c0,0,0,0,0-0.1
			c0,0-0.1,0-0.1,0c0-0.1,0.1,0,0.1-0.1c0.1,0,0.1,0,0.2,0c0-0.1,0-0.1,0.1-0.1c0,0,0-0.1,0-0.1c0,0,0,0,0,0c0,0,0,0,0,0.1
			c-0.1,0-0.1,0-0.1-0.1c0,0,0,0,0.1,0c0-0.1,0-0.2,0-0.3c0.1,0,0.1-0.1,0.1-0.1c0.1,0,0-0.1,0.1-0.1c0,0,0,0,0-0.1
			c0.1,0,0.1,0,0.1-0.1c0,0,0.1,0,0.1,0c0-0.1,0.1,0,0.1-0.1c0.1,0,0.2,0,0.3,0c0-0.1,0.1,0,0.1-0.1c0.1,0,0.2,0,0.3,0
			c0,0,0,0,0,0.1c0.1,0,0.1,0,0.2,0c0,0,0,0,0,0.1c0.1,0,0.3,0,0.4,0c0,0,0,0,0,0.1c0,0,0.1,0,0.1,0c0,0.1,0,0.1,0.1,0.1
			c0,0.1,0.1,0,0.1,0.1c0.2,0,0.3,0,0.5,0c0,0.1,0.1,0,0.1,0.1c0,0,0,0,0.1,0c0,0,0-0.1,0-0.1c0.1,0,0,0,0,0.1c0,0,0.1,0,0.1,0
			c0,0,0,0,0,0.1c0,0,0.1,0,0.1,0.1c0.1,0,0.2,0,0.3,0c0,0.1,0,0.1,0.1,0.1c0,0.1,0,0.1,0.1,0.1c0,0,0,0.1,0.1,0.1
			c0,0.1,0,0.1,0.1,0.1c0,0,0,0,0,0.1c0,0,0.1,0,0.1,0c0,0.1,0,0.1,0.1,0.1c0,0,0,0,0,0.1c0.1,0,0,0.1,0.1,0.1c0,0,0,0.1,0,0.1
			c0,0,0.1,0,0.1,0c0,0,0,0,0,0.1c0,0,0,0,0.1,0c0,0,0-0.1,0-0.1c0,0,0,0-0.1,0c0-0.1,0-0.3,0-0.4c0,0,0,0,0.1,0c0-0.1,0-0.3,0-0.4
			c0.1,0,0.1,0,0.1-0.1c0,0,0,0,0.1,0c0-0.1,0.1,0,0.1-0.1c0.1,0,0.1,0,0.1-0.1c0.1,0,0.1,0,0.1-0.1c0.1,0,0.1,0,0.2,0
			c0,0,0,0,0,0.1c0.1,0,0.1,0,0.1,0c0,0,0,0,0-0.1c0,0,0.1,0,0.1,0c0-0.1,0-0.2,0-0.3c0,0,0.1,0,0.1-0.1c0,0,0.1,0,0.1-0.1
			c0,0,0,0,0.1,0c0,0,0-0.1,0-0.1c0,0,0.1,0,0.1-0.1c0,0,0.1,0,0.1,0c0-0.1,0-0.1,0-0.1c0.1,0,0.1,0,0.1-0.1c0,0,0.1,0,0.1-0.1
			c0.1,0,0.1,0,0.1-0.1c0.1,0,0.1,0,0.1-0.1c0.1,0,0.2,0,0.3,0c0,0,0-0.1,0.1-0.1c0-0.1,0-0.1,0-0.2c0,0,0,0,0.1,0
			c0-0.1,0.1-0.1,0.1-0.1c0,0,0-0.1,0.1-0.1c0,0,0,0,0-0.1c0.1,0,0-0.1,0.1-0.1c0-0.1,0-0.1,0.1-0.1c0-0.1,0.1,0,0.1-0.1
			c0.1,0,0.1,0,0.1,0c0-0.1,0.1,0,0.1-0.1c0.1,0,0.2,0,0.2-0.1c0.1,0,0.1,0,0.1-0.1c0,0,0.1,0,0.1,0c0,0.1,0.1,0,0.1,0.1
			c0,0,0.1,0,0.1,0c0,0.1,0,0.1,0,0.2c0,0,0.1,0,0.1,0.1c0,0,0.1,0,0.1,0c0,0.1,0,0.3,0.1,0.3c0,0,0,0.1,0,0.1
			c-0.1,0-0.1,0.1-0.1,0.1c0,0,0,0-0.1,0c0,0,0,0.1,0,0.1c0,0,0,0-0.1,0c0,0.1,0,0.1,0,0.1c0,0-0.1,0-0.1,0c0,0,0,0.1-0.1,0.1
			c0,0,0,0,0,0.1c0,0,0,0-0.1,0c0,0,0,0,0,0.1c-0.1,0,0,0.1-0.1,0.1c0,0,0,0,0,0.1c0,0-0.1,0-0.1,0.1c-0.1,0,0,0.1-0.1,0.1
			c0,0,0,0.1,0,0.1c0,0-0.1,0-0.1,0.1c-0.1,0-0.1,0-0.2,0c0,0,0,0.1,0,0.1c0,0.1,0,0.1,0,0.2c0,0-0.1,0-0.1,0.1
			c-0.1,0-0.1,0-0.1,0.1c0,0,0,0-0.1,0c0,0,0,0,0,0.1c0,0,0,0-0.1,0c0,0,0,0.1-0.1,0.1c0,0,0,0,0,0.1c-0.1,0-0.1,0-0.1,0.1
			c-0.1,0-0.1,0-0.2,0c0,0,0,0.1,0,0.1c-0.1,0-0.1,0-0.2,0c0,0,0,0,0,0.1c-0.1,0-0.2,0-0.3,0c0,0,0,0,0-0.1c0,0-0.1,0-0.1,0
			c0,0,0-0.1,0-0.1c-0.1,0,0,0.1-0.1,0.1c-0.1,0-0.1,0-0.2,0c0,0,0,0,0,0.1c0,0,0,0,0.1,0c0,0.1,0,0.3,0,0.4c-0.1,0-0.1,0-0.1,0.1
			c-0.1,0,0,0-0.1,0.1c-0.1,0,0,0.1-0.1,0.1c0,0,0,0,0,0.1c-0.1,0-0.1,0-0.1,0.1c0,0,0,0-0.1,0c0,0,0,0,0,0.1c-0.1,0-0.2,0-0.4,0
			c0,0,0-0.1,0-0.1c0,0,0,0.1,0,0.2c0,0,0,0,0.1,0c0,0.1,0,0,0.1,0.1c0,0,0,0.1,0.1,0.1c0,0,0,0.1,0.1,0.1c0,0,0,0.1,0,0.1
			c0,0,0,0,0.1,0c0,0.1,0,0,0.1,0.1c0,0,0,0.1,0.1,0.1c0,0,0,0,0,0.1c0.1,0,0,0.1,0.1,0.1c0,0,0,0,0-0.1c0,0,0.1,0,0.1,0
			c0,0,0,0,0-0.1c0.1,0,0-0.1,0.1-0.1c0,0,0,0,0-0.1c0.1,0,0-0.1,0.1-0.1c0,0,0-0.1,0-0.1c0,0,0.1,0,0.1-0.1c0.1,0,0.2,0,0.2-0.1
			c0.1,0,0.2,0,0.1-0.1c0.1,0,0.2,0,0.3,0c0,0,0-0.1,0.1-0.1c0,0,0,0,0-0.1c0,0,0,0,0.1,0c0,0,0,0,0-0.1c0.1,0,0-0.1,0.1-0.1
			c0,0,0-0.1,0.1-0.1c0,0,0,0,0-0.1c0.1,0,0.1,0,0.1-0.1c0.1,0,0.2,0,0.1-0.1c0.1,0,0.2,0,0.2-0.1c0.1,0,0.1,0,0.2,0c0,0,0,0,0,0.1
			c0.1,0,0.1,0,0.1,0c0,0,0-0.1,0.1-0.1c0,0,0-0.1,0-0.1c0,0,0,0,0.1,0c0-0.1,0.1,0,0.1-0.1c0,0,0.1,0,0.1-0.1c0.1,0,0.1,0,0.1-0.1
			c0,0,0.1,0,0.1-0.1c0.1,0,0.1,0,0.1,0c0,0,0-0.1,0-0.1c0,0,0,0,0,0.1c0.1,0,0-0.1,0.1-0.1c0,0,0-0.1,0-0.1c0,0,0,0,0.1,0
			c0-0.1,0-0.1,0-0.1c0.1,0,0.2,0,0.2,0c0,0.1,0,0,0.1,0.1c0,0,0,0,0,0.1c0,0,0.1,0,0.1,0.1c0,0,0.1,0,0.1,0c0,0.1,0,0.1,0,0.1
			c0.1,0,0,0.1,0.1,0.1c0,0,0,0.2,0.1,0.1c0,0.1,0,0.1,0,0.2c0,0,0,0-0.1,0c0,0.1,0,0.1,0,0.1c-0.1,0,0,0.1-0.1,0.1
			c0,0.1-0.1,0.1-0.1,0.1c-0.1,0-0.1,0-0.1,0.1c-0.1,0-0.1,0-0.1,0.1c-0.1,0-0.2,0-0.2,0.1C14.3,81,14.2,81,14.2,81.1
			C14.2,81.1,14.2,81.1,14.2,81.1z M12.3,81.7C12.3,81.7,12.3,81.7,12.3,81.7C12.3,81.7,12.4,81.7,12.3,81.7
			C12.4,81.7,12.4,81.7,12.3,81.7C12.4,81.7,12.3,81.7,12.3,81.7z M11.9,82.2C11.9,82.3,11.9,82.3,11.9,82.2
			C11.9,82.3,11.9,82.3,11.9,82.2C11.9,82.3,11.9,82.3,11.9,82.2C11.9,82.2,11.9,82.2,11.9,82.2z M11.5,82.8
			C11.5,82.8,11.5,82.8,11.5,82.8C11.6,82.8,11.6,82.8,11.5,82.8C11.6,82.8,11.6,82.8,11.5,82.8C11.6,82.8,11.6,82.8,11.5,82.8z
			 M11.5,82.4C11.5,82.5,11.5,82.5,11.5,82.4C11.5,82.5,11.5,82.5,11.5,82.4C11.5,82.5,11.5,82.5,11.5,82.4
			C11.5,82.4,11.5,82.4,11.5,82.4z M11.4,82.4c-0.1,0,0-0.1-0.1-0.1c0,0,0-0.1,0-0.1c0,0-0.1,0-0.1,0c0,0,0-0.1,0-0.1c0,0,0,0-0.1,0
			c0,0.1,0,0.2,0,0.3c0.1,0,0,0.1,0.1,0.1c0,0,0,0.1,0,0.1c0,0,0,0-0.1,0c0,0.1,0,0.2,0,0.3c0,0,0,0,0.1,0c0-0.1,0-0.2,0-0.3
			c0,0.1,0,0.2,0,0.3c0.1,0,0.1,0,0.1,0c0,0,0-0.1,0-0.1c0,0,0,0,0.1,0c0-0.1,0-0.1,0-0.1C11.4,82.6,11.4,82.5,11.4,82.4z
			 M10.7,80.7c0,0,0,0.1,0,0.1c0,0,0.1,0,0.1,0c0,0,0,0,0,0C10.7,80.8,10.8,80.7,10.7,80.7z M10.5,81.2
			C10.5,81.2,10.5,81.2,10.5,81.2C10.5,81.3,10.5,81.3,10.5,81.2C10.5,81.2,10.5,81.2,10.5,81.2C10.5,81.2,10.5,81.2,10.5,81.2z
			 M10.5,81.4C10.5,81.4,10.5,81.4,10.5,81.4C10.5,81.4,10.5,81.3,10.5,81.4C10.5,81.3,10.4,81.3,10.5,81.4z M10.3,81.5
			c0,0,0,0.1,0,0.1c0.1,0,0.2,0,0.2,0C10.5,81.5,10.4,81.5,10.3,81.5C10.3,81.5,10.3,81.5,10.3,81.5c0.1,0,0.1,0,0.2,0
			c0,0,0,0,0-0.1c-0.1,0-0.1-0.1-0.1-0.1c0-0.1,0-0.2,0-0.3c-0.1,0-0.1,0-0.2,0c0,0.1,0,0.1,0.1,0.1c0,0.1,0,0.1,0,0.2
			C10.3,81.3,10.3,81.4,10.3,81.5C10.3,81.4,10.3,81.4,10.3,81.5C10.3,81.5,10.3,81.5,10.3,81.5z M10.3,83.6
			C10.3,83.6,10.3,83.7,10.3,83.6C10.4,83.7,10.4,83.7,10.3,83.6C10.4,83.7,10.4,83.6,10.3,83.6C10.4,83.6,10.4,83.6,10.3,83.6z
			 M8.9,83.9C8.9,83.9,8.9,83.9,8.9,83.9c-0.1,0-0.1,0.1-0.1,0.1c0,0,0,0,0-0.1c0,0,0,0-0.1,0c0,0.1,0,0.1,0.1,0.1c0,0,0,0.1,0,0.1
			c0.1,0,0.1,0,0.1,0.1c0,0,0.1,0,0.1,0c0,0,0-0.1,0.1-0.1c0,0,0,0.1,0,0.1c0.1,0,0-0.2,0-0.3C9,83.9,9,83.9,8.9,83.9
			c0,0,0.1,0.1,0,0.1c0,0,0,0,0,0C8.9,84,8.9,83.9,8.9,83.9z M9,84.3C9,84.3,9,84.3,9,84.3C9,84.3,9.1,84.3,9,84.3
			C9.1,84.3,9.1,84.3,9,84.3C9.1,84.3,9,84.3,9,84.3z M8.6,84.2C8.6,84.2,8.5,84.2,8.6,84.2c0,0,0,0.1,0,0.1c0,0,0.1-0.1,0.1-0.1
			c0,0,0,0.1,0,0.1c0,0,0-0.1,0.1-0.1c0,0,0,0,0-0.1C8.8,84.2,8.7,84.2,8.6,84.2C8.6,84.3,8.6,84.3,8.6,84.2
			C8.6,84.3,8.6,84.2,8.6,84.2z M8.7,84.9C8.7,84.9,8.7,84.9,8.7,84.9C8.7,84.9,8.7,84.9,8.7,84.9C8.7,84.9,8.7,84.9,8.7,84.9
			C8.7,84.9,8.7,84.9,8.7,84.9z M8.6,86C8.6,86,8.6,85.9,8.6,86C8.6,85.9,8.7,85.9,8.6,86c0.1-0.1,0.1-0.1,0.1-0.1
			c-0.1,0-0.1,0-0.1,0C8.5,85.9,8.6,86,8.6,86c-0.1,0-0.1,0-0.1-0.1c-0.1,0-0.1,0-0.2,0c0,0.1,0,0.1,0,0.2c0,0,0,0,0.1,0
			c0,0,0,0,0,0.1c-0.1,0-0.2,0-0.2,0c0,0,0,0,0-0.1c0,0-0.1,0-0.1,0c0,0,0,0,0-0.1c0,0-0.1,0-0.1,0c0,0.1,0,0.1,0,0.2
			c0.1,0,0.1,0,0.2,0c0,0,0,0.1,0,0.1c0,0,0.1,0,0.1,0c0,0,0-0.1,0-0.1c0,0,0,0,0,0.1c0,0,0.1,0,0.1,0c0-0.1,0.1,0,0.1-0.1
			c0.1,0,0.1,0,0.1-0.1c0,0,0.1,0,0.1,0c0-0.1,0-0.1,0.1-0.1c0,0,0-0.1,0.1-0.1c0,0,0,0,0-0.1C8.7,86,8.6,86,8.6,86z M8.5,83.7
			C8.5,83.7,8.5,83.7,8.5,83.7C8.5,83.7,8.5,83.7,8.5,83.7c0.1,0,0.1,0,0.1,0c0,0,0,0,0-0.1C8.6,83.6,8.6,83.6,8.5,83.7
			C8.5,83.7,8.5,83.7,8.5,83.7z M8.1,82.2c0,0,0,0.1,0,0.1c0,0-0.1,0-0.1,0c0,0,0,0,0,0c0,0,0.1,0,0.1,0c0,0,0,0.1,0,0.1
			c0,0,0,0-0.1,0c0,0.1,0,0.1,0.1,0.1c0,0,0-0.1,0-0.1c0,0,0.1,0,0.1,0c0,0,0,0,0,0.1c0.1,0,0.1,0,0.2,0c0,0,0,0,0-0.1
			c0,0-0.1,0-0.1,0c0,0,0,0,0-0.1c-0.1,0-0.1,0-0.2,0c0,0,0-0.1,0-0.1c0,0-0.1,0-0.1,0C8.2,82.3,8.2,82.3,8.1,82.2
			c0.1,0,0.1,0,0.1,0C8.2,82.2,8.2,82.2,8.1,82.2C8.2,82.2,8.2,82.3,8.1,82.2z M8.5,84.8C8.5,84.8,8.4,84.8,8.5,84.8
			C8.4,84.8,8.4,84.9,8.5,84.8c0,0.1,0,0.1,0,0.1c0,0,0,0,0.1,0C8.5,84.9,8.5,84.9,8.5,84.8C8.5,84.9,8.5,84.9,8.5,84.8z M8.3,85.6
			c0,0,0-0.1,0-0.1C8.2,85.5,8.2,85.6,8.3,85.6C8.3,85.6,8.3,85.6,8.3,85.6c0,0.1,0.1,0.1,0.1,0C8.4,85.6,8.3,85.6,8.3,85.6z
			 M8.3,84.7C8.3,84.7,8.3,84.7,8.3,84.7C8.4,84.7,8.4,84.6,8.3,84.7C8.3,84.6,8.3,84.6,8.3,84.7z M8.3,86.5
			C8.3,86.5,8.3,86.5,8.3,86.5C8.4,86.5,8.4,86.5,8.3,86.5C8.3,86.5,8.3,86.5,8.3,86.5z M8.2,84.9C8.2,85,8.2,85,8.2,84.9
			C8.3,85,8.3,85,8.2,84.9C8.3,85,8.3,85,8.2,84.9C8.3,84.9,8.3,84.9,8.2,84.9z M7.9,85.9C7.9,86,7.9,86,7.9,85.9c0,0,0.1,0,0.2,0
			c0,0,0,0,0-0.1c0,0-0.1,0-0.1,0c0,0,0,0,0-0.1c0.1,0,0-0.1,0.1-0.1c0-0.1,0-0.1,0.1-0.1c0,0,0,0,0,0c0,0-0.1,0-0.1,0
			c0,0,0,0,0-0.1c0,0,0.1,0,0.1,0c0,0-0.1,0-0.1,0c0,0,0,0.1,0,0.1c0,0,0.1,0,0.1,0c0,0-0.1,0.1-0.1,0.1c-0.1,0,0-0.1-0.1-0.1
			c-0.1,0-0.1,0-0.2,0c0-0.1,0-0.1,0-0.2c0,0-0.1,0-0.1-0.1c0,0-0.1,0-0.1,0c0,0,0,0,0,0.1c0.1,0,0,0.1,0.1,0.2c0,0,0.1,0,0.1,0
			c0,0.1,0,0.1,0,0.2c0,0,0,0-0.1,0c0,0.1,0,0.2,0,0.3c0.1,0,0,0.1,0.1,0.1c0,0,0,0,0-0.1c-0.1,0-0.1-0.2,0-0.3
			C7.9,85.8,7.9,85.9,7.9,85.9C7.9,85.9,7.9,85.9,7.9,85.9C7.9,85.9,7.9,85.9,7.9,85.9z M8,84C8,84.1,8,84.1,8,84
			C8.1,84.1,8.1,84,8,84C8,84,8,84,8,84z M7.9,83.1C7.9,83.1,7.9,83.1,7.9,83.1C8,83.2,8,83.2,7.9,83.1C8,83.1,8,83.1,7.9,83.1
			C8,83.1,8,83.1,7.9,83.1z M7.9,84.7C8,84.7,8,84.7,7.9,84.7C8,84.7,8,84.6,7.9,84.7C8,84.6,7.9,84.6,7.9,84.7z M7.8,84.7
			c0,0,0,0.2,0,0.1C7.8,84.8,7.8,84.7,7.8,84.7C7.8,84.7,7.8,84.7,7.8,84.7z M7.6,83.9C7.6,83.9,7.6,83.9,7.6,83.9
			C7.7,83.9,7.7,83.9,7.6,83.9C7.7,83.9,7.7,83.9,7.6,83.9C7.7,83.9,7.7,83.9,7.6,83.9z M7.6,85.7c0-0.1,0-0.1,0-0.2
			c-0.1,0,0,0-0.1-0.1c0,0-0.1,0-0.1,0c0,0,0,0.1-0.1,0.1c0,0.1,0,0.1,0,0.2c0.1,0,0.1,0.1,0.1,0.1c0.1,0,0,0.1,0.1,0.1c0,0,0,0,0,0
			c0,0,0-0.1,0.1-0.1c0,0,0,0.1,0,0.1C7.7,86,7.6,85.8,7.6,85.7c0.1,0,0.1,0,0.1,0c0,0,0,0,0-0.1C7.6,85.6,7.7,85.8,7.6,85.7z
			 M7.5,85.3C7.5,85.3,7.5,85.4,7.5,85.3C7.6,85.3,7.6,85.3,7.5,85.3C7.6,85.3,7.5,85.3,7.5,85.3z M7.4,84.1
			C7.4,84.1,7.4,84.1,7.4,84.1C7.5,84.1,7.5,84,7.4,84.1C7.4,84,7.4,84,7.4,84.1z M7.3,84.7C7.3,84.7,7.3,84.7,7.3,84.7
			C7.3,84.7,7.3,84.6,7.3,84.7C7.3,84.6,7.3,84.6,7.3,84.7z M7.3,85.3C7.3,85.3,7.3,85.3,7.3,85.3C7.3,85.3,7.3,85.3,7.3,85.3
			C7.3,85.3,7.3,85.3,7.3,85.3C7.3,85.3,7.3,85.3,7.3,85.3z M7,83.4C7,83.4,7,83.4,7,83.4C7,83.4,7,83.4,7,83.5c0,0,0,0,0.1,0
			C7,83.4,7.1,83.4,7,83.4z M6.9,85.3C6.9,85.3,6.9,85.3,6.9,85.3C6.9,85.3,7,85.3,6.9,85.3c0.1,0,0.1,0,0.1,0c0,0,0,0,0-0.1
			C7,85.2,7,85.2,6.9,85.3C7,85.3,7,85.3,6.9,85.3z M6.9,82.8c0,0.1,0,0.2,0,0.2C7,83,7,82.9,6.9,82.8C7,82.8,7,82.8,6.9,82.8z
			 M6.8,83C6.8,83,6.8,83,6.8,83C6.9,82.9,6.9,82.9,6.8,83C6.8,82.9,6.8,82.9,6.8,83z M6.8,85.3C6.8,85.3,6.8,85.3,6.8,85.3
			C6.8,85.3,6.8,85.3,6.8,85.3C6.9,85.3,6.9,85.3,6.8,85.3C6.8,85.3,6.8,85.3,6.8,85.3z M6.7,82.9C6.7,82.9,6.7,83,6.7,82.9
			C6.7,83,6.7,83,6.7,82.9C6.7,83,6.7,82.9,6.7,82.9C6.7,82.9,6.7,82.9,6.7,82.9z M6.7,83.1C6.7,83.1,6.7,83.1,6.7,83.1
			C6.7,83.2,6.7,83.2,6.7,83.1C6.7,83.1,6.7,83.1,6.7,83.1C6.7,83.1,6.7,83.1,6.7,83.1z M6.6,83.4C6.6,83.4,6.6,83.4,6.6,83.4
			C6.6,83.4,6.7,83.4,6.6,83.4C6.7,83.4,6.7,83.4,6.6,83.4C6.7,83.4,6.6,83.4,6.6,83.4z M6.6,83.2C6.5,83.2,6.5,83.2,6.6,83.2
			C6.5,83.2,6.5,83.2,6.6,83.2c0,0.1,0,0.1,0,0.1c0,0,0,0,0.1,0C6.6,83.3,6.6,83.2,6.6,83.2C6.6,83.2,6.5,83.2,6.6,83.2z M6.3,83.7
			C6.3,83.7,6.3,83.7,6.3,83.7C6.3,83.7,6.3,83.7,6.3,83.7C6.3,83.7,6.3,83.7,6.3,83.7z M5.5,82.9C5.5,82.9,5.5,82.9,5.5,82.9
			C5.5,82.9,5.5,82.9,5.5,82.9C5.5,83,5.5,83,5.5,82.9C5.6,82.9,5.5,82.9,5.5,82.9z M5.4,83.2C5.4,83.2,5.4,83.3,5.4,83.2
			C5.4,83.3,5.5,83.3,5.4,83.2C5.5,83.3,5.5,83.2,5.4,83.2C5.5,83.2,5.4,83.2,5.4,83.2z M5.3,82.3C5.3,82.3,5.3,82.4,5.3,82.3
			C5.3,82.4,5.3,82.4,5.3,82.3C5.4,82.4,5.4,82.3,5.3,82.3C5.3,82.3,5.3,82.3,5.3,82.3z M5.3,82.4c0,0.1-0.1,0-0.1,0.1
			c0,0,0.1,0,0.1,0C5.4,82.5,5.4,82.5,5.3,82.4C5.3,82.4,5.3,82.4,5.3,82.4z M5.2,82.6C5.2,82.7,5.2,82.7,5.2,82.6
			c0.1,0.1,0.1,0.1,0.2,0.1c0,0,0,0,0-0.1C5.3,82.6,5.2,82.6,5.2,82.6z M5.3,83C5.2,83,5.3,83.1,5.3,83c-0.1,0.1-0.2,0.1-0.1,0.1
			c0.1,0,0.2,0,0.2,0C5.4,83.1,5.4,83.1,5.3,83C5.3,83.1,5.3,83,5.3,83z M5.2,82.8C5.2,82.8,5.2,82.8,5.2,82.8
			C5.1,82.9,5.1,82.9,5.2,82.8C5.2,82.9,5.2,82.9,5.2,82.8z"/>
		<path class="st4" d="M7,83.7C7,83.7,7,83.7,7,83.7c0,0.1-0.1,0.1-0.1,0.1c0,0,0-0.1-0.1-0.1c0,0,0-0.1,0-0.1c0,0,0,0,0,0.1
			C6.9,83.7,6.9,83.7,7,83.7z"/>
		<path class="st4" d="M7.2,83.7C7.2,83.6,7.2,83.6,7.2,83.7c0-0.1-0.1-0.1,0-0.1C7.2,83.5,7.2,83.6,7.2,83.7c0-0.1,0.1-0.1,0.1-0.1
			c0,0,0,0,0,0.1C7.3,83.7,7.3,83.7,7.2,83.7z"/>
	</g>
	<g>
		<path class="st4" d="M42.8,76.8C42.8,76.8,42.8,76.8,42.8,76.8C42.8,76.7,42.8,76.7,42.8,76.8C42.8,76.8,42.8,76.8,42.8,76.8
			C42.8,76.8,42.8,76.8,42.8,76.8z"/>
		<path class="st4" d="M43.3,74.8C43.3,74.8,43.3,74.7,43.3,74.8C43.4,74.7,43.3,74.8,43.3,74.8z"/>
		<path class="st4" d="M43.4,77.4C43.4,77.4,43.4,77.4,43.4,77.4C43.4,77.4,43.4,77.4,43.4,77.4C43.5,77.4,43.5,77.4,43.4,77.4
			C43.4,77.4,43.4,77.4,43.4,77.4z"/>
		<path class="st4" d="M43.5,77.3C43.5,77.3,43.5,77.3,43.5,77.3c0-0.1,0.1-0.1,0.1-0.1C43.6,77.3,43.5,77.3,43.5,77.3z"/>
		<path class="st4" d="M43.5,77.6c0-0.1,0-0.1,0-0.2c0.1,0,0.2,0,0.2,0c0,0.1-0.1,0-0.1,0C43.6,77.5,43.6,77.5,43.5,77.6
			C43.6,77.6,43.5,77.6,43.5,77.6z"/>
		<path class="st4" d="M43.5,77.2C43.5,77.2,43.5,77.1,43.5,77.2C43.6,77.1,43.6,77.2,43.5,77.2z"/>
		<path class="st4" d="M43.8,77.6C43.8,77.6,43.8,77.6,43.8,77.6C43.8,77.6,43.8,77.6,43.8,77.6C43.8,77.6,43.8,77.6,43.8,77.6z"/>
		<path class="st4" d="M44.1,72.6C44.1,72.6,44.1,72.6,44.1,72.6C44.1,72.5,44.1,72.5,44.1,72.6C44.1,72.6,44.1,72.6,44.1,72.6z"/>
		<path class="st4" d="M44.2,72.6C44.2,72.6,44.2,72.6,44.2,72.6C44.2,72.5,44.2,72.5,44.2,72.6C44.2,72.6,44.2,72.6,44.2,72.6z"/>
		<path class="st4" d="M44.2,72.7C44.2,72.6,44.2,72.6,44.2,72.7C44.3,72.6,44.3,72.7,44.2,72.7z"/>
		<path class="st4" d="M44.4,72.6C44.4,72.5,44.4,72.5,44.4,72.6C44.5,72.6,44.5,72.6,44.4,72.6C44.4,72.6,44.4,72.6,44.4,72.6z"/>
		<path class="st4" d="M44.7,72.9C44.7,72.9,44.7,72.8,44.7,72.9C44.7,72.9,44.7,72.9,44.7,72.9C44.7,72.9,44.7,72.9,44.7,72.9z"/>
		<path class="st4" d="M44.8,72.4C44.8,72.4,44.8,72.4,44.8,72.4c0.1-0.1,0.1-0.1,0.2-0.1c0,0,0-0.1,0.1-0.1c0,0,0-0.1,0-0.1
			c0,0-0.1,0-0.1-0.1c0,0,0.1,0,0.1,0c0,0.1,0.1,0.1,0.1,0.1c0,0.1,0,0.1,0,0.2c0,0,0.1,0,0,0.1c0,0-0.1,0-0.1-0.1c0,0-0.1,0-0.1,0
			c0,0.1,0,0.1,0,0.2c-0.1,0-0.1,0-0.1,0c0-0.1-0.1,0-0.1-0.1C44.8,72.4,44.8,72.4,44.8,72.4z M45.1,72.3C45,72.3,45,72.3,45.1,72.3
			C45,72.3,45,72.3,45.1,72.3C45,72.3,45.1,72.3,45.1,72.3z"/>
		<path class="st4" d="M45.1,79.5C45.1,79.5,45.1,79.5,45.1,79.5C45.1,79.4,45.1,79.4,45.1,79.5C45.2,79.5,45.2,79.5,45.1,79.5z"/>
		<path class="st4" d="M45.2,78.2C45.2,78.2,45.2,78.2,45.2,78.2C45.2,78.1,45.2,78.2,45.2,78.2z"/>
		<path class="st4" d="M45.3,74C45.3,74,45.3,74,45.3,74C45.4,74,45.4,74,45.3,74C45.4,74,45.4,74,45.3,74z"/>
		<path class="st4" d="M45.5,74.1C45.5,74.1,45.5,74,45.5,74.1C45.5,74,45.5,74,45.5,74.1C45.5,74,45.5,74.1,45.5,74.1
			C45.5,74.1,45.5,74.1,45.5,74.1z"/>
		<path class="st4" d="M45.5,80c0-0.1,0-0.1,0-0.2c0,0,0.1,0,0.1,0c0,0.1,0,0.1,0,0.2C45.6,80,45.6,80,45.5,80z"/>
		<path class="st4" d="M45.5,74.2C45.5,74.2,45.5,74.2,45.5,74.2c0-0.1,0.1-0.1,0.2-0.1c0,0,0,0.1,0,0.1c0,0,0,0,0-0.1
			C45.6,74.2,45.6,74.2,45.5,74.2z"/>
		<path class="st4" d="M45.7,80.2c0,0,0-0.1,0-0.1c0.1,0,0-0.1,0.1-0.1c0,0,0,0.1,0,0.1c0.1,0,0.1,0,0.1-0.1c0.1,0,0,0.1,0.1,0.1
			c0,0,0,0,0,0.1c-0.1,0-0.1,0-0.1,0.1C45.8,80.2,45.8,80.2,45.7,80.2z"/>
		<path class="st4" d="M45.8,79.8C45.8,79.8,45.8,79.8,45.8,79.8C45.8,79.8,45.9,79.8,45.8,79.8C45.9,79.8,45.9,79.8,45.8,79.8
			C45.9,79.8,45.8,79.8,45.8,79.8z"/>
		<path class="st4" d="M45.9,80c0,0,0-0.1,0-0.1C46,79.8,45.9,79.9,45.9,80C45.9,80,45.9,80,45.9,80z"/>
		<path class="st4" d="M45.9,80.3C45.9,80.3,45.9,80.3,45.9,80.3C45.9,80.3,45.9,80.3,45.9,80.3C45.9,80.3,45.9,80.3,45.9,80.3
			C45.9,80.3,45.9,80.3,45.9,80.3z"/>
		<path class="st4" d="M45.9,75C45.9,75,45.9,74.9,45.9,75C46,74.9,46,74.9,45.9,75C46,75,46,75,45.9,75z"/>
		<path class="st4" d="M45.9,74.6C45.9,74.6,45.9,74.6,45.9,74.6C46,74.5,46,74.5,45.9,74.6C46,74.6,46,74.6,45.9,74.6
			C46,74.6,46,74.6,45.9,74.6z"/>
		<path class="st4" d="M46,74.9C46,74.9,46,74.9,46,74.9C46,74.9,46,74.9,46,74.9C46.1,74.9,46,74.9,46,74.9z"/>
		<path class="st4" d="M46.1,75c0,0,0-0.1,0-0.1C46.1,74.9,46.1,75,46.1,75C46.1,75,46.1,75,46.1,75z"/>
		<path class="st4" d="M46.1,75.2C46.1,75.2,46.1,75.2,46.1,75.2C46.1,75.2,46.2,75.2,46.1,75.2C46.2,75.2,46.2,75.2,46.1,75.2
			C46.2,75.2,46.1,75.2,46.1,75.2z"/>
		<path class="st4" d="M46.2,78.8c0,0,0-0.1,0-0.1C46.2,78.7,46.2,78.7,46.2,78.8C46.2,78.8,46.2,78.8,46.2,78.8z"/>
		<path class="st4" d="M46.4,77.5C46.4,77.5,46.4,77.5,46.4,77.5C46.4,77.4,46.4,77.4,46.4,77.5C46.4,77.5,46.4,77.5,46.4,77.5z"/>
		<path class="st4" d="M46.5,77.6C46.5,77.5,46.5,77.5,46.5,77.6C46.5,77.5,46.5,77.5,46.5,77.6C46.5,77.6,46.5,77.6,46.5,77.6z"/>
		<path class="st4" d="M46.5,76.6C46.5,76.6,46.5,76.6,46.5,76.6C46.5,76.5,46.5,76.5,46.5,76.6C46.5,76.6,46.5,76.6,46.5,76.6z"/>
		<path class="st4" d="M46.5,77.6c0,0,0.1,0,0.1,0c0,0,0,0,0,0C46.7,77.7,46.6,77.7,46.5,77.6c0,0.1,0.1,0.1,0,0.1
			C46.5,77.8,46.5,77.7,46.5,77.6z"/>
		<path class="st4" d="M46.7,77.1C46.7,77.1,46.7,77.1,46.7,77.1c0.1,0,0.1,0.1,0.1,0.1C46.7,77.2,46.7,77.2,46.7,77.1z"/>
		<path class="st4" d="M46.8,77.8C46.8,77.8,46.8,77.8,46.8,77.8C46.8,77.8,46.9,77.8,46.8,77.8C46.9,77.8,46.9,77.8,46.8,77.8
			C46.9,77.8,46.8,77.8,46.8,77.8z"/>
		<path class="st4" d="M47.3,75.6C47.3,75.6,47.3,75.6,47.3,75.6C47.4,75.6,47.4,75.6,47.3,75.6C47.4,75.6,47.4,75.6,47.3,75.6
			C47.4,75.6,47.4,75.6,47.3,75.6z"/>
		<path class="st4" d="M47.4,81.4C47.4,81.4,47.4,81.3,47.4,81.4c0-0.1,0.1-0.1,0.1-0.1c0,0,0,0,0.1,0c0,0,0,0,0,0.1
			C47.5,81.3,47.5,81.3,47.4,81.4C47.4,81.4,47.4,81.4,47.4,81.4z"/>
		<path class="st4" d="M47.5,80.9C47.5,80.8,47.5,80.8,47.5,80.9C47.5,80.8,47.5,80.8,47.5,80.9C47.5,80.8,47.5,80.9,47.5,80.9z"/>
		<path class="st4" d="M47.5,76.3C47.5,76.3,47.5,76.3,47.5,76.3C47.5,76.3,47.5,76.3,47.5,76.3C47.5,76.3,47.5,76.3,47.5,76.3z"/>
		<path class="st4" d="M47.5,75.6C47.5,75.6,47.5,75.6,47.5,75.6C47.5,75.6,47.5,75.6,47.5,75.6C47.5,75.6,47.5,75.6,47.5,75.6
			C47.5,75.6,47.5,75.6,47.5,75.6z"/>
		<path class="st4" d="M47.5,75.2C47.5,75.2,47.5,75.1,47.5,75.2C47.5,75.1,47.5,75.1,47.5,75.2C47.5,75.2,47.5,75.2,47.5,75.2z"/>
		<path class="st4" d="M47.5,76.5c0-0.1,0-0.1,0-0.1c0.1,0,0.2,0,0.2-0.1c0.1,0,0,0.1,0.1,0.1c0,0.1,0,0.1,0.1,0.1c0,0,0,0,0,0.1
			C47.8,76.5,47.7,76.5,47.5,76.5C47.6,76.5,47.6,76.5,47.5,76.5z"/>
		<path class="st4" d="M47.5,75.5C47.5,75.5,47.5,75.5,47.5,75.5c0-0.1,0.1-0.1,0.2-0.1c0,0,0-0.1,0-0.1c0,0,0,0-0.1,0
			c0,0,0-0.1,0-0.1c0.1,0,0,0,0,0.1c0.1,0,0.2,0,0.2,0c0,0.1,0,0.2,0.1,0.1c0,0.1,0,0.1,0,0.2c0,0,0,0-0.1,0c0,0.1,0,0.2,0,0.3
			c-0.1,0,0-0.1-0.1-0.1c-0.1,0,0,0.1-0.1,0.1c0,0,0-0.1,0-0.1c0,0,0,0-0.1,0c0-0.1-0.1,0-0.1-0.1C47.6,75.5,47.6,75.5,47.5,75.5z"
			/>
		<path class="st4" d="M47.5,77.2C47.5,77.2,47.5,77.1,47.5,77.2C47.5,77.1,47.6,77.1,47.5,77.2C47.6,77.2,47.6,77.2,47.5,77.2z"/>
		<path class="st4" d="M47.6,75.7C47.6,75.7,47.6,75.7,47.6,75.7C47.6,75.6,47.6,75.6,47.6,75.7C47.6,75.7,47.6,75.7,47.6,75.7
			C47.6,75.7,47.6,75.7,47.6,75.7z"/>
		<path class="st4" d="M47.6,75.8C47.6,75.7,47.6,75.7,47.6,75.8C47.7,75.7,47.7,75.7,47.6,75.8C47.7,75.7,47.7,75.7,47.6,75.8
			C47.7,75.8,47.7,75.8,47.6,75.8z"/>
		<path class="st4" d="M47.8,73.7c0-0.1,0.1,0,0.2-0.1c0,0,0,0.1,0,0.1C47.9,73.8,47.8,73.8,47.8,73.7z"/>
		<path class="st4" d="M47.8,76.9C47.8,76.8,47.8,76.8,47.8,76.9C47.8,76.8,47.8,76.8,47.8,76.9C47.9,76.8,47.9,76.8,47.8,76.9
			C47.8,76.9,47.8,76.9,47.8,76.9z"/>
		<path class="st4" d="M47.9,76.9C47.9,76.9,47.9,76.9,47.9,76.9C47.9,76.9,47.9,76.9,47.9,76.9C47.9,76.9,47.9,76.9,47.9,76.9
			C47.9,76.9,47.9,76.9,47.9,76.9z"/>
		<path class="st4" d="M48,82.7C48,82.7,48,82.7,48,82.7C48,82.7,48,82.7,48,82.7C48,82.7,48,82.7,48,82.7C48,82.7,48,82.7,48,82.7z
			"/>
		<path class="st4" d="M48,75.9c0,0,0-0.1,0-0.1c0,0,0,0,0,0C48.1,75.8,48.1,75.8,48,75.9c0.1-0.1,0.1-0.1,0.2-0.1
			c0,0.1,0,0.1,0,0.1c0,0,0,0,0-0.1C48.1,75.9,48.1,75.9,48,75.9z"/>
		<path class="st4" d="M48,73.8C48,73.8,48,73.8,48,73.8C48.1,73.8,48.1,73.8,48,73.8C48.1,73.8,48.1,73.8,48,73.8z"/>
		<path class="st4" d="M48.1,77.5c0,0,0-0.1,0-0.1c0,0,0.1,0,0.1,0C48.2,77.4,48.2,77.4,48.1,77.5C48.2,77.5,48.2,77.5,48.1,77.5z"
			/>
		<path class="st4" d="M48.2,82.8C48.2,82.8,48.2,82.8,48.2,82.8C48.2,82.7,48.2,82.7,48.2,82.8C48.2,82.8,48.2,82.8,48.2,82.8
			C48.2,82.8,48.2,82.8,48.2,82.8z"/>
		<path class="st4" d="M48.2,73.8C48.2,73.8,48.2,73.8,48.2,73.8C48.2,73.8,48.2,73.8,48.2,73.8C48.2,73.8,48.2,73.8,48.2,73.8z"/>
		<path class="st4" d="M48.3,78.2C48.3,78.2,48.3,78.2,48.3,78.2C48.3,78.2,48.3,78.2,48.3,78.2C48.3,78.2,48.3,78.2,48.3,78.2
			C48.3,78.2,48.3,78.2,48.3,78.2z"/>
		<path class="st4" d="M48.3,77.4C48.3,77.4,48.3,77.3,48.3,77.4C48.3,77.3,48.3,77.3,48.3,77.4C48.3,77.4,48.3,77.4,48.3,77.4z"/>
		<path class="st4" d="M48.3,76C48.3,76,48.3,76,48.3,76C48.3,76,48.3,76,48.3,76C48.3,76,48.3,76,48.3,76C48.3,76,48.3,76,48.3,76z
			"/>
		<path class="st4" d="M48.3,77.2C48.3,77.2,48.3,77.1,48.3,77.2C48.4,77.1,48.4,77.1,48.3,77.2C48.4,77.1,48.4,77.2,48.3,77.2
			C48.4,77.2,48.4,77.2,48.3,77.2z"/>
		<path class="st4" d="M48.4,77.3c0.1,0,0,0.2,0,0.2c0,0,0,0,0,0C48.4,77.5,48.4,77.3,48.4,77.3z"/>
		<path class="st4" d="M48.4,77.1C48.4,77.1,48.4,77.1,48.4,77.1C48.4,77.1,48.4,77.1,48.4,77.1C48.5,77.1,48.4,77.1,48.4,77.1z"/>
		<path class="st4" d="M48.5,79.2C48.5,79.2,48.5,79.2,48.5,79.2c0.1-0.1,0.2-0.1,0.2-0.1c0,0,0,0,0,0c0,0-0.1,0-0.1,0.1
			c0,0,0,0,0,0c0,0,0,0,0-0.1C48.6,79.2,48.6,79.2,48.5,79.2z"/>
		<path class="st4" d="M48.5,77.6C48.5,77.6,48.5,77.6,48.5,77.6C48.5,77.6,48.6,77.6,48.5,77.6C48.6,77.6,48.6,77.6,48.5,77.6z"/>
		<path class="st4" d="M48.7,79C48.7,78.9,48.7,78.9,48.7,79C48.8,78.9,48.8,79,48.7,79C48.7,79,48.7,79,48.7,79z"/>
		<path class="st4" d="M48.7,77.6C48.7,77.5,48.7,77.5,48.7,77.6C48.7,77.5,48.7,77.5,48.7,77.6C48.8,77.6,48.7,77.6,48.7,77.6z"/>
		<path class="st4" d="M48.8,80C48.8,79.9,48.8,79.9,48.8,80C48.8,79.9,48.8,79.9,48.8,80C48.8,79.9,48.8,79.9,48.8,80
			C48.8,80,48.8,80,48.8,80z"/>
		<path class="st4" d="M48.8,79.2C48.8,79.2,48.8,79.2,48.8,79.2c0-0.1,0.1-0.1,0.1-0.1c0,0,0,0,0,0.1
			C48.9,79.2,48.8,79.2,48.8,79.2z"/>
		<path class="st4" d="M48.8,79.5C48.9,79.5,48.9,79.6,48.8,79.5C48.8,79.6,48.8,79.5,48.8,79.5z"/>
		<path class="st4" d="M48.8,77.7C48.8,77.7,48.8,77.7,48.8,77.7C48.8,77.6,48.9,77.6,48.8,77.7C48.9,77.7,48.9,77.7,48.8,77.7z"/>
		<path class="st4" d="M48.9,79.1C48.9,79,48.9,79,48.9,79.1C48.9,79,48.9,79,48.9,79.1C48.9,79,48.9,79,48.9,79.1
			C48.9,79.1,48.9,79.1,48.9,79.1z"/>
		<path class="st4" d="M49,80.2c0,0,0-0.1,0-0.1c0.1,0,0.1,0,0.1-0.1c0.1,0,0,0.1,0,0.1C49,80.1,49.1,80.2,49,80.2z"/>
		<path class="st4" d="M49.2,79.6C49.2,79.6,49.2,79.5,49.2,79.6C49.2,79.5,49.2,79.5,49.2,79.6C49.2,79.5,49.2,79.6,49.2,79.6
			C49.2,79.6,49.2,79.6,49.2,79.6z"/>
		<path class="st4" d="M49.2,80.5C49.2,80.5,49.2,80.4,49.2,80.5c0-0.1,0.1-0.1,0.1-0.1c0,0,0-0.1,0-0.1c0.1,0,0,0.1,0,0.2
			C49.3,80.5,49.3,80.5,49.2,80.5z"/>
		<path class="st4" d="M49.5,79.5C49.5,79.5,49.5,79.5,49.5,79.5C49.5,79.4,49.5,79.4,49.5,79.5C49.5,79.5,49.5,79.5,49.5,79.5z"/>
		<path class="st4" d="M49.6,79.2C49.6,79.2,49.6,79.1,49.6,79.2C49.6,79.1,49.6,79.1,49.6,79.2C49.6,79.2,49.6,79.2,49.6,79.2z"/>
		<path class="st4" d="M44.1,78.7C44,78.7,44.1,78.7,44.1,78.7c0.1-0.1,0.1-0.1,0.1-0.1c0,0-0.1,0-0.1,0c0-0.1-0.1,0-0.1-0.1
			c0,0,0,0-0.1,0c0,0,0-0.1-0.1-0.1c0,0,0-0.1,0-0.1c-0.1,0-0.1,0-0.2,0c0-0.1-0.1,0-0.1-0.1c-0.1,0-0.1,0-0.2,0c0,0,0,0,0-0.1
			c0,0-0.1,0-0.1,0c0,0,0,0,0,0c0,0,0,0,0.1,0c0,0,0,0,0-0.1c0,0,0,0,0,0c0,0,0,0.1,0,0.1c0,0,0,0-0.1,0c0-0.1,0,0-0.1-0.1
			c0,0,0-0.1-0.1-0.1c0-0.1,0-0.1,0-0.1c0,0,0.1,0,0.1,0c0,0-0.1,0-0.1,0c0,0,0,0.1,0,0.1c-0.1,0,0-0.1-0.1-0.1c0,0,0-0.1,0-0.1
			c0,0-0.1,0-0.1-0.1c0,0,0,0,0.1,0c0,0,0-0.1,0-0.1c0,0,0,0-0.1,0c0,0,0-0.1,0-0.1c-0.1,0,0,0.1-0.1,0.1c0,0,0-0.1,0-0.1
			c0-0.1,0-0.2,0-0.3c0,0,0.1,0,0.1,0c0,0,0-0.1,0.1-0.1c0,0,0,0,0-0.1c0.1,0,0.1,0,0.1-0.1c0,0,0,0,0.1,0c0,0,0,0,0,0.1
			c0,0,0.1,0,0.1,0c0,0,0,0,0,0.1c0.1,0,0.2,0,0.2,0c0,0.1,0,0.1,0,0.1c0,0,0,0,0,0c0,0,0,0.1-0.1,0.1c0,0.1,0,0.1-0.1,0.1
			c0,0.1,0,0.1,0,0.2c0.1,0,0-0.1,0.1-0.1c0.1,0,0,0.1,0,0.1c0,0,0,0-0.1,0c0,0.1,0,0.1,0,0.2c0.1,0,0.1,0,0.2,0c0,0,0,0,0,0.1
			c0.1,0,0.1,0,0.2,0c0,0,0,0.1,0,0.1c0,0,0.1,0,0.2,0c0,0,0,0,0,0.1c0.1,0,0.1,0,0.2,0c0-0.1,0.1-0.1,0.1-0.1c0,0,0,0,0,0
			c0,0,0.1,0.1,0.1,0.1c0,0,0,0,0,0.1c0,0,0.1,0,0.1,0c0,0.1,0,0.1,0,0.2c0.1,0,0.2,0,0.3,0c0,0,0,0,0,0.1c0.1,0,0.1,0,0.2,0
			c0,0.1,0,0.1,0.1,0.1c0,0.1,0.1,0.1,0.1,0.1c0,0,0,0.1,0,0.1c0,0,0,0,0-0.1c0.2,0,0.4,0,0.6,0c0,0,0,0,0,0.1c0.1,0,0.2,0,0.3,0
			c0,0.1,0,0.1,0,0.1c0,0,0,0-0.1,0c0,0,0,0,0,0.1c0,0,0.1,0,0.1,0c0,0,0,0-0.1,0c0,0,0,0,0,0.1c0,0,0,0,0,0c0,0,0,0,0-0.1
			c0,0,0,0,0.1,0c0,0,0,0,0,0c0,0-0.1,0-0.1,0c0,0.1,0,0.1,0,0.2c0,0,0,0,0.1,0c0,0.1,0,0.2,0.1,0.1c0,0.1,0,0.2,0,0.2
			c0,0,0,0,0.1,0c0,0.1,0,0.2,0.1,0.1c0,0,0,0.1,0,0.1c0.1,0,0,0.1,0.1,0.1c0,0,0,0.1,0,0.1c0,0,0,0,0,0c0-0.1,0-0.2,0-0.3
			c0,0,0,0,0.1,0c0-0.1,0-0.1,0-0.1c0,0,0,0,0.1,0c0-0.1,0-0.1,0-0.2c0,0,0,0,0.1,0c0-0.1,0-0.1,0-0.1c0,0,0,0,0.1,0
			c0-0.1,0-0.1,0-0.2c0.1,0,0-0.1,0.1-0.1c0-0.1,0-0.3,0-0.4c0.1,0,0-0.1,0.1-0.1c0-0.1,0-0.1,0-0.2c0,0,0,0,0.1,0
			c0-0.1,0-0.1,0-0.1c0.1,0,0.1,0,0.2,0c0,0,0,0,0-0.1c0,0-0.1,0-0.1,0c0,0,0,0,0,0c0,0,0,0,0.1,0c0,0,0-0.1,0-0.1
			c0.1,0,0-0.1,0.1-0.1c0.1,0,0,0.1,0,0.1c0,0,0,0,0.1,0c0,0,0-0.1,0-0.1c0,0-0.1,0-0.1-0.1c0-0.1,0.1,0,0.2,0c0,0,0-0.1,0.1-0.1
			c0,0,0,0,0-0.1c0,0,0,0,0,0c0,0,0,0,0,0.1c-0.1,0-0.1,0-0.1,0c0-0.1,0-0.1,0-0.1c0,0,0.1,0,0.1-0.1c0.1,0,0.1,0,0.2,0
			c0,0,0-0.1,0.1-0.1c0,0,0-0.1,0-0.1c0.1,0,0,0.1,0,0.1c0,0,0,0,0.1,0c0,0,0-0.1,0-0.1c0.1,0,0,0.1,0.1,0.1c0,0,0,0,0-0.1
			c0,0,0.1,0,0.1,0c0,0.1-0.1,0-0.1,0c0,0.1,0,0.1,0,0.2c0,0,0,0-0.1,0c0,0,0,0,0,0.1c0,0,0,0,0,0c0,0,0,0,0-0.1c0,0,0.1,0,0.1,0
			c0,0,0,0,0,0.1c0,0,0,0,0.1,0c0,0,0-0.1,0-0.1c0.1,0,0,0.1,0,0.2c0,0,0,0,0.1,0c0,0.1,0,0.2,0,0.3c0,0,0,0-0.1,0c0,0,0,0.1,0,0.1
			c0,0,0.1,0,0.1,0c0,0,0-0.1,0-0.1c0,0,0,0,0,0c0,0,0,0-0.1,0c0,0,0,0,0,0.1c0.1,0,0.1,0.1,0.1,0.1c0,0,0.1,0,0.2,0
			c0-0.1,0-0.1,0-0.2c0.1,0,0-0.1,0.1-0.1c0,0,0,0,0,0.1c0,0,0.1,0,0.1,0c0,0,0,0,0,0.1c0,0,0.1,0,0.1,0c0,0,0-0.1,0-0.1
			c0,0,0,0,0.1,0c0,0,0,0,0,0.1c0,0,0.1,0,0.1,0c0,0,0,0,0-0.1c0.1,0,0.2,0,0.2,0c0,0,0,0,0-0.1c0,0-0.1,0-0.1,0c0,0,0,0,0,0
			c0,0,0,0,0.1,0c0,0,0-0.1,0-0.1c0,0-0.1,0-0.1,0c0,0,0,0,0-0.1c0,0-0.1,0-0.1,0c0-0.1,0-0.1,0-0.1c0,0,0,0,0.1,0c0,0,0,0.1,0,0.1
			c0.1,0,0-0.1,0.1-0.1c0-0.1,0-0.3,0-0.5c0,0,0,0,0.1,0c0-0.1,0-0.1,0-0.2c0,0,0,0,0.1,0c0-0.1,0-0.1,0-0.1c0,0,0,0,0.1,0
			c0,0,0-0.1,0-0.1c0,0,0,0,0.1,0c0-0.1,0-0.1,0-0.1c0,0,0,0-0.1,0c0,0,0,0.1,0,0.1c-0.1,0,0,0.1-0.1,0.1c0,0.1,0,0.1,0,0.2
			c0,0,0,0-0.1,0c0,0.1,0,0.1,0,0.2c0,0,0,0-0.1,0c0,0.1,0,0.1,0,0.2c0,0,0,0-0.1,0c0,0.1,0,0.1,0.1,0.1c0,0.1,0,0.1,0,0.2
			c-0.1,0,0,0-0.1,0.1c-0.1,0,0-0.1,0-0.1c0,0-0.1,0-0.1-0.1c0,0,0,0,0,0.1c-0.1,0-0.1,0-0.2,0c0-0.1,0-0.1,0-0.2c0,0,0.1,0,0.1-0.1
			c0,0,0,0-0.1,0c0-0.1,0-0.1-0.1-0.1c0,0,0,0,0,0c0,0,0,0,0.1,0c0,0,0,0,0-0.1c0,0-0.1,0-0.1,0c0,0,0,0,0-0.1c0,0,0,0,0.1,0
			c0-0.1,0-0.1,0-0.2c0,0,0,0-0.1,0c0-0.1,0-0.1,0-0.2c0,0-0.1,0-0.1,0c0,0,0-0.1,0-0.1c0.1,0,0,0.2,0.1,0.1c0,0,0,0.1,0,0.1
			c0,0,0.1,0,0.1,0c0,0,0-0.1,0-0.1c0.1,0,0,0.1,0,0.1c0,0,0,0,0,0c0,0,0-0.1,0-0.1c0.1,0,0-0.1,0.1-0.1c0-0.1,0-0.1,0-0.1
			c0.1,0,0.1,0,0.1-0.1c0,0,0.1,0,0.1-0.1c0,0,0.1,0,0.1,0c0,0,0-0.1,0.1-0.1c0,0,0,0,0-0.1c0.1,0,0.1,0,0.1-0.1
			c0.1,0,0.1,0,0.1-0.1c0.1,0,0.2,0,0.2-0.1c0.1,0,0.2,0,0.2-0.1c0,0,0.1,0,0.1,0c0,0,0,0,0,0.1c0,0,0,0,0.1,0c0-0.1,0,0-0.1-0.1
			c0,0,0,0,0-0.1c0.1,0,0.1,0,0.2,0c0-0.1,0.1,0,0.1-0.1c0,0,0,0,0.1,0c0,0,0,0,0,0c0,0.1-0.1,0-0.1,0.1c0,0,0.1,0,0.1,0
			c0.1,0,0.1,0,0.2,0c0,0,0,0,0-0.1c0,0,0.1,0,0.1,0c0,0,0,0,0,0.1c0,0,0.1,0,0.1,0c0,0.1,0,0.1,0.1,0.1c0,0,0,0.1,0,0.1
			c0,0-0.1,0-0.1,0.1c0.1,0,0-0.1,0.1-0.1c0.1,0,0,0.1,0.1,0.1c0,0,0,0.1,0,0.1c0.1,0,0,0.1,0.1,0.1c0,0,0,0.1,0.1,0.1
			c0,0.1,0,0.1,0,0.2c0,0,0,0,0.1,0c0,0,0-0.1,0-0.1c0.1,0,0,0.1,0.1,0.1c0,0,0,0.1,0,0.1c-0.1,0-0.1,0-0.1,0.1c0,0,0,0-0.1,0
			c0,0,0,0.1,0,0.1c0,0,0.1,0,0.1,0.1c0.1,0,0.1,0,0.2,0c0,0,0,0,0,0.1c0.1,0,0.1,0,0.2,0c0,0,0,0,0,0.1c0.1,0,0,0.1,0.1,0.1
			c0,0.1,0,0.1,0.1,0.2c0,0,0,0,0.1,0c0,0.1,0,0.1,0.1,0.1c0,0.1-0.1,0-0.1,0.1c0,0,0.1,0,0.1,0c0,0.1,0,0.1,0,0.2c0,0,0,0,0.1,0
			c0,0.1,0.1,0,0.1,0.1c0,0,0,0,0.1,0c0,0,0-0.1,0-0.1c0.1,0,0,0.1,0.1,0.1c0.1,0,0-0.1,0.1-0.1c0,0,0,0.1-0.1,0.1c0,0,0,0,0,0.1
			c0,0,0.1,0,0.1,0c0,0.1,0,0.1,0,0.1c0,0,0.1,0,0.1,0c0,0,0,0.1,0.1,0.1c0,0.1,0,0.2,0.1,0.1c0,0.1,0,0.1,0,0.2c0,0,0.1,0,0.1,0
			c0,0,0,0,0,0.1c0,0,0,0,0.1,0c0,0.1,0,0.1,0.1,0.1c0,0,0,0.1,0.1,0.1c0,0.1,0,0.2,0.1,0.1c0,0,0,0.1,0.1,0.1c0,0.1,0,0.2,0,0.3
			c0,0,0,0,0.1,0c0,0.2,0,0.5,0,0.7c0,0,0.1,0,0.1,0c0,0,0,0-0.1,0c0,0.1,0,0.1,0,0.2c0,0,0,0-0.1,0c0,0.1,0,0.1,0,0.2
			c0,0,0,0-0.1,0c0,0,0,0.1,0,0.1c0,0,0,0-0.1,0c0,0.1,0,0.2,0,0.3c-0.1,0,0,0.1-0.1,0.1c0,0,0,0,0,0.1c0,0,0.1,0,0.1,0c0,0,0,0,0,0
			c0,0-0.1,0.1-0.1,0.1c-0.1,0,0,0.1-0.1,0.1c0,0,0-0.1,0-0.1c-0.1,0,0,0.1-0.1,0.1c0,0,0,0.1,0,0.1c0,0,0,0-0.1,0
			c0,0.1-0.1,0.1-0.1,0.1c0,0-0.1,0-0.1,0.1c0,0-0.1,0-0.1,0c0,0,0-0.1,0-0.1c0,0,0,0,0,0.1c0,0-0.1,0-0.1,0c0,0.1-0.1,0-0.1,0.1
			c-0.1,0-0.1,0-0.1,0.1c0,0-0.1,0-0.1,0c0,0.1,0,0.1,0,0.1c0,0-0.1,0-0.1,0c0,0,0,0.1-0.1,0.1c0,0.1,0,0.1,0,0.1c0,0-0.1,0-0.1,0
			c0,0,0,0.1-0.1,0.1c0,0,0,0.1,0,0.1c-0.1,0,0,0.1-0.1,0.1c0,0,0,0.1,0,0.1c-0.1,0,0,0.1-0.1,0.1c0,0,0,0.1,0,0.1
			c-0.1-0.1,0-0.2,0-0.3c0,0,0,0,0,0c0,0,0,0.1,0,0.1c0,0,0,0-0.1,0c0,0.1,0,0.1,0,0.1c-0.1,0-0.1,0-0.1,0.1c-0.1,0-0.1,0-0.2,0
			c0,0,0,0.1,0,0.1c-0.1,0,0,0-0.1-0.1c0,0,0,0,0,0.1c-0.1,0-0.1,0-0.1,0.1c0,0-0.1,0-0.1,0c0,0,0-0.1,0-0.1c0,0,0,0-0.1,0
			c0,0,0,0.1,0,0.1c-0.1,0-0.1,0-0.1,0.1c-0.1,0,0-0.1-0.1-0.1c-0.1,0,0,0,0,0.1c0,0-0.1,0-0.1,0.1c-0.1,0-0.1,0-0.1,0.1
			c-0.1,0-0.2,0-0.2,0.1c0,0,0,0,0,0c-0.1,0,0-0.1-0.1-0.1c-0.1,0,0,0.1,0,0.1c0,0,0,0,0,0c-0.1,0,0-0.1-0.1-0.1c0,0,0,0,0,0.1
			c-0.1,0-0.1,0-0.2,0c0,0,0,0,0-0.1c-0.2,0-0.3,0-0.5,0c0-0.1,0-0.1-0.1-0.1c0,0,0-0.1,0-0.1c0,0,0,0.1,0,0.2c-0.1,0,0,0,0-0.1
			c0,0-0.1,0-0.1,0c0,0,0,0.1,0,0.1c-0.1,0,0-0.1,0-0.1c0,0-0.1,0-0.1,0c-0.1,0,0,0.1,0,0.1c-0.1,0,0-0.1,0-0.1c0,0,0,0-0.1,0
			c0,0,0,0.1,0,0.1c-0.1,0,0-0.1-0.1-0.1c0,0,0,0,0-0.1c0,0,0.1,0,0.1,0c0,0,0-0.1,0.1-0.1c0,0,0-0.1,0-0.1c-0.1,0-0.1,0-0.1,0.1
			c-0.1,0-0.1,0-0.1,0.1c-0.1,0,0-0.1-0.1-0.1c0,0,0,0,0-0.1c0,0-0.1,0-0.1,0c0,0,0,0,0,0c0,0,0.1,0,0.1,0c0,0.1,0,0.1,0.1,0.1
			c0,0,0,0.1,0,0.1c-0.1,0,0,0-0.1,0.1c0,0,0,0,0,0c0,0,0,0,0.1,0c0,0,0,0,0-0.1c-0.1,0-0.1,0-0.2,0c0-0.1,0-0.1-0.1-0.1
			c0,0,0,0,0-0.1c-0.1,0-0.1,0-0.2,0c0,0,0,0,0-0.1c-0.1,0-0.1,0-0.2,0c0,0,0,0,0-0.1c-0.1,0-0.1,0-0.1,0.1c0,0,0,0-0.1,0
			c0,0,0-0.1,0-0.1c-0.1,0-0.1,0-0.2,0c0,0,0,0.1,0,0.1c0,0,0,0,0-0.1c0,0,0,0-0.1,0c0,0,0,0.1,0,0.1c0,0,0,0,0-0.1c0,0-0.1,0-0.1,0
			c0,0,0,0,0-0.1c-0.1,0-0.1,0-0.2,0c0,0,0,0,0,0.1c0,0-0.1,0-0.1,0c0,0,0,0.1,0,0.1c0,0-0.1,0-0.1,0.1c-0.1,0,0,0.1-0.1,0.1
			c0,0,0,0,0,0.1c-0.1,0-0.1,0-0.1,0c0,0,0,0,0-0.1c-0.1,0-0.2,0-0.2,0c0-0.1,0-0.1-0.1-0.1c0,0,0,0,0-0.1c0,0-0.1,0-0.1,0
			c0,0,0,0,0-0.1c-0.1,0-0.1,0-0.1,0c0,0,0,0,0-0.1c-0.1,0-0.1,0-0.1-0.1c-0.1,0-0.1,0-0.1-0.1c-0.1,0-0.1,0-0.2,0c0,0,0,0,0-0.1
			c-0.1,0-0.2,0-0.3,0c0-0.1,0-0.1-0.1-0.1c0-0.2-0.1-0.2-0.1-0.4c0,0,0.1,0,0.1-0.1c0,0,0,0,0.1,0c0,0,0,0,0-0.1c0.1,0,0,0,0.1-0.1
			c0,0,0,0,0.1,0c0-0.1,0.1,0,0.1-0.1c0,0,0,0,0.1,0c0,0,0-0.1,0-0.1c0.1,0,0-0.1,0.1-0.1c0-0.1,0-0.1,0-0.1c0.1,0,0.1,0,0.1-0.1
			c0.1,0,0.1,0,0.1-0.1c0.1,0,0.2,0,0.2-0.1c0.2,0,0.3,0,0.5,0c0,0,0-0.1,0.1-0.1c0,0,0,0,0-0.1c0,0-0.1,0-0.1,0c0,0,0,0,0,0
			c0.1,0,0.1,0,0.2,0c0,0,0,0,0,0.1c-0.1,0,0,0.1-0.1,0.1c0,0,0,0.1,0,0.1c0,0,0.1,0,0.1,0.1c0,0,0.1,0,0.1,0c0,0.1,0,0.1,0.1,0.1
			c0,0,0,0.1,0.1,0.1c0,0,0,0.1,0.1,0.1c0,0,0,0.1,0,0.1c0,0,0,0,0.1,0c0,0.1,0,0.1,0.1,0.1c0,0,0,0,0,0.1c0.1,0,0,0.1,0.1,0.1
			c0,0.1,0,0.1,0,0.1c0,0,0,0,0,0c0,0,0-0.1,0-0.1c0.1,0,0.1,0,0.1-0.1c0.1,0,0,0,0.1-0.1c0,0,0,0.1,0,0.1c0,0,0.1,0,0.1,0
			c0,0,0,0,0-0.1c0.1,0,0.1,0,0.2,0c0,0,0,0,0,0.1c0.1,0,0.2,0,0.2,0c0,0.1-0.1,0-0.1,0c0,0,0,0.1,0,0.1c0.1,0,0.1,0,0.2,0
			c0,0,0,0,0-0.1c0,0,0.1,0,0.1,0c0,0.1,0,0,0.1,0.1c0,0,0,0,0,0.1c0,0,0.1,0,0.1,0.1c0,0,0,0,0.1,0c0,0,0,0,0-0.1c0,0-0.1,0-0.1,0
			c0,0,0,0,0-0.1c0.1,0,0.1,0,0.2,0c0,0,0,0,0-0.1c0.1,0,0.1,0,0.1,0c0,0,0,0,0,0.1c0.1,0,0.1,0,0.2,0c0,0,0-0.1,0-0.1
			c0.1,0,0-0.1,0.1-0.1c0,0,0,0.1,0,0.1c0.1,0,0-0.1,0.1-0.1c0,0,0,0,0-0.1c0,0-0.1,0-0.1,0c0-0.1,0-0.1-0.1-0.1c0,0,0-0.1,0-0.1
			c0,0,0,0,0,0.1c0,0,0.1,0,0.1,0c0,0.1-0.1,0-0.1,0.1c0,0-0.1,0-0.1,0c0-0.1-0.1-0.2,0.1-0.2c0,0,0,0,0-0.1c0,0,0,0-0.1,0
			c0,0,0,0.1-0.1,0.1c0,0,0-0.1,0.1-0.1c0-0.1,0-0.1,0-0.2c0,0-0.1,0-0.1,0c0,0,0,0,0-0.1c0.1,0,0.1-0.1,0.2-0.1
			c0-0.1,0.1-0.1,0.1-0.1c0,0-0.1,0-0.1,0c0,0,0,0,0,0.1c0,0-0.1,0-0.1,0.1c-0.1,0-0.2,0-0.3,0c0-0.1,0-0.1-0.1-0.1
			c0-0.1,0-0.1-0.1-0.1c0,0,0,0,0,0c0,0,0,0,0.1,0c0-0.1,0-0.3,0-0.4c0,0,0,0,0.1,0c0-0.1,0-0.1,0.1-0.1c0,0,0,0,0-0.1
			c-0.1,0-0.2,0-0.3,0c0,0.1-0.1,0.1-0.1,0.1c0,0,0,0,0,0c0,0,0,0,0-0.1c0,0,0,0-0.1,0c0,0.1-0.1,0-0.1,0.1c-0.1,0-0.1,0-0.2,0
			c0,0,0,0,0-0.1c-0.1,0-0.2,0-0.2,0c0,0,0-0.1-0.1-0.1c0,0,0,0,0-0.1c-0.1,0-0.1,0-0.1,0c0-0.1-0.1,0-0.1-0.1c0,0,0,0-0.1,0
			c0,0,0,0,0-0.1c-0.1,0-0.1-0.1-0.1-0.1c0,0,0,0.1-0.1,0.1c0,0.1,0,0,0.1,0.1c0,0,0,0,0,0c0,0,0,0-0.1,0c0,0,0,0.1,0,0.1
			c0,0,0,0-0.1,0c0,0.1,0,0.2,0,0.2c-0.1,0-0.1,0-0.1,0.1c-0.1,0-0.1,0-0.2,0c0,0,0,0,0-0.1c0,0,0,0,0.1,0c0-0.1,0-0.2,0-0.2
			c0,0,0,0,0.1,0c0,0,0,0,0-0.1c0,0-0.1,0-0.1,0c0,0,0-0.1-0.1-0.1c0-0.1,0-0.2-0.1-0.2c0-0.1-0.1-0.1-0.1-0.1c0,0,0,0-0.1,0
			c0,0,0,0.1,0,0.1c0,0,0,0-0.1,0c0,0.1,0,0.1,0,0.2c-0.1,0,0-0.2,0-0.3c0,0-0.1,0-0.1-0.1c-0.1,0-0.1,0-0.1-0.1c0,0-0.1,0-0.1,0
			c0-0.1-0.1,0-0.1-0.1c0,0-0.1,0-0.1,0c0,0,0,0.1,0,0.1c-0.1,0-0.1,0-0.1,0c0,0,0-0.1,0-0.1c-0.1,0-0.1,0-0.2,0c0,0,0-0.1,0-0.1
			c0,0-0.1,0-0.1,0c0,0,0,0,0,0c0-0.1,0.1,0,0.1-0.1c0,0,0,0-0.1,0c0,0,0-0.1,0-0.1c0,0,0.1,0,0.1,0c-0.1-0.1-0.2,0-0.2,0
			c-0.1,0-0.1,0-0.2,0c0,0,0,0,0-0.1c-0.1,0-0.1,0-0.1,0c0-0.1-0.1,0-0.1-0.1c0,0-0.1,0-0.1-0.1C44.2,78.7,44.1,78.7,44.1,78.7
			C44.1,78.7,44.1,78.7,44.1,78.7z M43,77.6C43,77.6,43,77.6,43,77.6C42.9,77.6,42.9,77.6,43,77.6C43,77.6,43,77.6,43,77.6z
			 M43.1,77.5C43.1,77.5,43.1,77.5,43.1,77.5C43.1,77.6,43.1,77.5,43.1,77.5z M43.2,77.3c0,0,0-0.1,0-0.1c0,0,0,0-0.1,0
			C43.2,77.2,43.2,77.2,43.2,77.3C43.2,77.3,43.2,77.3,43.2,77.3z M43.3,77.5C43.3,77.5,43.3,77.5,43.3,77.5
			C43.3,77.4,43.3,77.4,43.3,77.5C43.2,77.5,43.2,77.5,43.3,77.5C43.3,77.5,43.3,77.5,43.3,77.5z M45.9,78.4c0-0.1-0.1,0-0.1,0
			c0,0,0,0,0,0.1C45.9,78.5,45.9,78.5,45.9,78.4z M46.2,79.8C46.2,79.7,46.2,79.7,46.2,79.8C46.1,79.7,46.1,79.7,46.2,79.8
			C46.1,79.8,46.1,79.8,46.2,79.8z M45.9,80.7C45.9,80.7,45.9,80.7,45.9,80.7C45.9,80.8,45.9,80.8,45.9,80.7
			C45.9,80.8,45.9,80.8,45.9,80.7z M47.3,78.8c0,0,0-0.1,0-0.1C47.2,78.7,47.2,78.8,47.3,78.8C47.2,78.8,47.3,78.8,47.3,78.8z
			 M47.3,78.3C47.3,78.3,47.2,78.3,47.3,78.3C47.2,78.4,47.2,78.4,47.3,78.3C47.3,78.4,47.3,78.4,47.3,78.3z M47.4,79.1
			c0,0,0-0.1,0-0.1C47.3,78.9,47.4,79,47.4,79.1C47.4,79.1,47.4,79.1,47.4,79.1z M47.4,78.8c0,0,0-0.1-0.1-0.1
			C47.3,78.7,47.4,78.8,47.4,78.8C47.4,78.8,47.4,78.8,47.4,78.8z M47.4,77.6C47.4,77.6,47.4,77.6,47.4,77.6
			C47.3,77.7,47.3,77.7,47.4,77.6C47.4,77.7,47.4,77.7,47.4,77.6z M47.8,79.3c0,0,0-0.1,0-0.1C47.7,79.2,47.8,79.3,47.8,79.3
			C47.8,79.3,47.8,79.3,47.8,79.3z M47.9,77.7C47.8,77.7,47.8,77.7,47.9,77.7C47.8,77.7,47.8,77.7,47.9,77.7
			C47.9,77.8,47.9,77.8,47.9,77.7z M47.9,77.8C47.9,77.8,47.9,77.8,47.9,77.8C47.9,77.8,47.9,77.8,47.9,77.8
			C47.9,77.8,47.9,77.8,47.9,77.8z M48,78.2C48,78.2,48,78.2,48,78.2C47.9,78.2,47.9,78.2,48,78.2C48,78.2,48,78.2,48,78.2z
			 M48,79.7c0,0,0-0.2,0-0.2C48,79.5,48,79.7,48,79.7z M48,77.9c0,0,0-0.1,0-0.1C48,77.8,48,77.9,48,77.9C48,77.9,48,77.9,48,77.9z
			 M48.2,81C48.2,81,48.2,81,48.2,81C48.2,80.9,48.2,80.9,48.2,81C48.2,81,48.2,81,48.2,81C48.2,81,48.2,81,48.2,81z M48.2,79.1
			C48.2,79,48.2,79,48.2,79.1C48.2,79,48.2,79,48.2,79.1C48.2,79,48.2,79,48.2,79.1C48.2,79.1,48.2,79.1,48.2,79.1z M48.2,78.9
			C48.2,78.8,48.2,78.8,48.2,78.9C48.3,78.8,48.3,78.9,48.2,78.9c0.1,0.1,0.2,0.1,0.2,0c0,0-0.1,0-0.1-0.1c0.1,0,0.1,0,0.1-0.1
			c0,0,0.1,0,0.1,0c0,0,0-0.1,0-0.1c-0.1,0-0.1,0-0.2,0c0,0,0,0.1,0,0.1c-0.1,0,0-0.1-0.1-0.1c0,0,0,0,0,0
			C48.2,78.7,48.2,78.8,48.2,78.9C48.2,78.8,48.2,78.8,48.2,78.9C48.2,78.9,48.2,78.9,48.2,78.9z M49.7,80.7
			C49.7,80.7,49.7,80.7,49.7,80.7C49.7,80.7,49.7,80.7,49.7,80.7c0,0,0,0.1,0,0.1c-0.1,0-0.1,0-0.2,0c0,0,0,0,0,0.1
			c0.1,0,0,0.1,0.1,0.1c0,0,0-0.1,0-0.1c0.1,0,0.1,0,0.2,0c0,0,0,0,0,0.1c0,0-0.1,0-0.1,0c0,0,0,0,0.1,0c0-0.1,0.1,0,0.1-0.1
			c0,0,0,0,0,0c0,0-0.1,0-0.1,0c0-0.1,0-0.1,0.1-0.1c0,0,0-0.1,0-0.1c0.1,0,0-0.1,0.1-0.1c0,0,0,0,0-0.1c0,0-0.1,0-0.1,0
			c0,0,0,0,0-0.1c0,0,0,0,0.1,0c0,0,0-0.1,0-0.1c0,0,0,0-0.1,0c0,0,0,0.1,0,0.1c0,0,0,0,0,0c0,0,0-0.1,0-0.1c0,0,0,0,0.1,0
			c0-0.1,0-0.1,0-0.2c0,0,0,0,0.1,0c0,0,0-0.1,0-0.1c0.1,0,0.1,0,0.1-0.1c0,0,0.1,0,0.1,0c0-0.1,0-0.1,0.1-0.1c0,0,0-0.1,0-0.1
			c0,0,0,0-0.1,0c0,0,0,0,0-0.1c0,0,0,0,0.1,0c0,0,0-0.1,0-0.1c-0.1,0,0,0.1-0.1,0.1c0,0,0-0.1,0.1-0.1c0-0.1,0-0.2,0-0.3
			c-0.1,0-0.1,0-0.1-0.1c0,0-0.1,0-0.1,0c0-0.1,0-0.1-0.1-0.1c0,0,0-0.1,0-0.1c0,0-0.1,0-0.1,0c0,0,0,0,0-0.1c0,0,0.1,0,0.1,0
			c0,0,0,0-0.1,0c0,0.1-0.1,0-0.1,0.1c0,0,0,0,0,0.1c0,0,0.1,0,0.1,0c0,0,0,0.1,0,0.1c0,0,0,0-0.1,0c0-0.1,0-0.1-0.1-0.1
			c0,0,0,0,0-0.1c0,0,0.1,0,0.1,0c0,0,0,0,0,0c0,0-0.1,0-0.1,0c0,0,0,0.1,0,0.1c-0.1,0,0-0.1-0.1-0.1c-0.1,0,0,0.1-0.1,0.1
			c0,0,0,0.1,0,0.1c-0.1,0,0-0.1-0.1-0.1c0,0,0,0,0-0.1c0.1,0,0-0.1,0.1-0.1c0.1,0,0.1,0,0.1-0.1c0,0,0.1,0,0.1,0c0,0,0,0,0-0.1
			c-0.1,0-0.1-0.1-0.1-0.1c-0.1,0-0.1,0-0.1-0.1c0,0,0,0,0,0c0,0,0,0.1-0.1,0.1c0,0,0,0.1,0,0.1c0,0-0.1,0-0.1,0c0,0,0,0.1,0,0.1
			c-0.1,0,0-0.1-0.1-0.1c-0.1,0,0,0.1,0,0.1c0,0,0,0-0.1,0c0-0.1-0.1,0-0.1-0.1c0,0,0.1,0,0.1-0.1c0,0,0,0-0.1,0
			c0,0.1,0,0.1-0.1,0.1c0,0,0,0.1,0,0.1c0,0,0.1,0,0.1,0c0,0,0,0.1,0,0.1c0,0,0,0-0.1,0c0,0,0-0.1,0-0.1c-0.1,0-0.1,0-0.2,0
			c0-0.1,0-0.1-0.1-0.1c0,0,0,0.1,0,0.1c0,0,0.1,0,0.1,0c0,0,0,0-0.1,0c0,0,0,0.1,0,0.1c0,0,0,0-0.1,0c0,0,0,0.1,0,0.1
			c0,0-0.1,0-0.1,0c0,0,0,0.1,0,0.1c-0.1,0-0.1,0-0.1,0c0,0,0,0.1,0,0.1c0,0,0,0-0.1,0c0,0.1,0,0.1,0,0.2c0,0.1,0,0.2,0,0.2
			c0-0.1,0-0.2,0-0.2c0,0,0,0,0,0c0,0,0,0.1,0,0.1c0.1,0,0-0.1,0.1-0.2c0,0,0.1,0,0.1,0c0,0,0,0,0,0.1c0,0,0,0-0.1,0
			c0,0,0,0.1,0,0.1c0,0,0.1,0,0.1,0c0,0,0,0,0,0.1c-0.1,0-0.1,0-0.2,0c0,0,0.1,0,0.1,0.1c0.1,0,0.1,0,0.2,0c0,0,0-0.1,0-0.1
			c0.1,0,0,0,0,0.1c0,0,0,0,0.1,0c0,0,0,0.1,0,0.1c0,0,0.1-0.1,0.1,0c0,0,0,0-0.1,0c0,0,0,0.1,0,0.1c-0.1,0,0-0.1-0.1,0c0,0,0,0,0,0
			c0,0,0,0,0,0.1c0.1,0,0,0.1,0.1,0.1c0,0,0.1,0,0.1,0c0,0.1-0.1,0-0.1,0.1c0,0,0.1,0,0.1,0c0,0,0,0,0,0.1c-0.1,0,0,0.1-0.1,0.1
			c0,0,0,0-0.1,0c0,0.1,0,0.1,0,0.1c-0.1,0,0,0-0.1,0.1c0,0,0,0-0.1,0c0-0.1,0-0.1-0.1-0.1c0-0.1,0-0.3,0-0.3c0,0,0,0.1-0.1,0.1
			c0,0.1,0,0.1,0,0.2c0,0,0,0,0.1,0c0,0,0,0.1,0,0.1c0,0-0.1,0-0.1,0c0,0,0,0,0,0.1c0.1,0,0.1,0,0.2,0c0,0,0-0.1,0-0.1
			c0.1,0,0.1,0,0.2,0c0,0,0-0.1,0-0.1c0,0,0,0,0,0c0,0,0,0.1,0,0.1c-0.1,0,0,0.1-0.1,0.1c0,0,0,0,0-0.1c0,0-0.1,0-0.1,0
			c0,0,0,0,0,0.1c0,0,0.1,0,0.1,0c0,0,0,0.1,0,0.1c0,0-0.1,0-0.1,0c0,0,0.1,0,0.1,0c0-0.1,0.1-0.1,0.1-0.1c0-0.1,0.1,0,0.1-0.1
			c0-0.1-0.1,0-0.1,0c0-0.1,0-0.2,0-0.2c0,0,0.1,0,0.1,0c0-0.1,0-0.1,0-0.1c0.1,0,0.1-0.1,0.1,0c0,0.1-0.1,0-0.1,0.1c0,0,0,0,0,0
			c0,0,0.1,0,0.1,0c0,0,0,0,0,0.1c0,0-0.1,0-0.1,0c0,0,0,0,0,0c0,0,0.1,0,0.1,0c0,0,0,0,0,0.1c0,0-0.1,0-0.1,0c0,0,0,0,0,0
			c0.1,0,0.1,0,0.2,0c0,0,0-0.1,0-0.1c0,0,0.1,0,0.1,0c0,0,0,0,0,0.1c0,0,0,0-0.1,0c0,0,0,0.1,0,0.1c0,0,0.1,0,0.1,0
			c0,0,0-0.1,0-0.1c0,0-0.1,0-0.1,0c0,0,0.1,0,0.1-0.1c0,0,0.1,0,0.1,0c0-0.1,0-0.1,0.1-0.1c0-0.1,0.1-0.1,0.1-0.1c0,0,0.1,0,0.1,0
			c0,0,0,0,0,0.1c0,0,0,0-0.1,0C49.6,80.5,49.6,80.6,49.7,80.7C49.6,80.7,49.6,80.7,49.7,80.7C49.6,80.7,49.6,80.7,49.7,80.7
			C49.6,80.7,49.6,80.7,49.7,80.7z M48.3,81.6c0,0,0-0.1,0-0.1C48.3,81.5,48.3,81.5,48.3,81.6C48.3,81.6,48.3,81.6,48.3,81.6z
			 M48.5,79.9C48.5,79.9,48.5,79.9,48.5,79.9C48.4,80,48.4,80,48.5,79.9c-0.1,0.1-0.1,0.1,0,0.1c0-0.1,0.1,0,0.1-0.1
			C48.6,79.9,48.5,79.9,48.5,79.9C48.5,79.9,48.5,79.8,48.5,79.9c0-0.1,0-0.1,0-0.1c0,0-0.1,0-0.1,0c0,0,0,0,0,0.1
			C48.4,79.8,48.4,79.9,48.5,79.9z M48.4,79.1C48.4,79,48.4,79,48.4,79.1C48.4,79,48.4,79,48.4,79.1C48.3,79,48.3,79,48.4,79.1
			C48.4,79.1,48.4,79.1,48.4,79.1z M48.6,78.6C48.6,78.5,48.7,78.6,48.6,78.6c0.1-0.1,0.1-0.1,0.1-0.2c0,0-0.1,0-0.1,0
			c0,0,0,0.1,0,0.1c0,0,0,0-0.1,0c0,0.1-0.1,0.1-0.1,0.1c0,0,0,0,0,0.1C48.5,78.6,48.5,78.6,48.6,78.6z M48.6,81.2
			C48.6,81.2,48.6,81.1,48.6,81.2c-0.1,0,0-0.2-0.1-0.1c0,0,0,0.1,0,0.1C48.5,81.2,48.5,81.2,48.6,81.2z M48.6,80.2
			c0-0.1-0.1,0-0.1,0c0,0,0,0,0,0.1C48.5,80.2,48.6,80.2,48.6,80.2z M48.5,78.2C48.5,78.2,48.5,78.2,48.5,78.2
			C48.5,78.2,48.5,78.2,48.5,78.2C48.5,78.2,48.5,78.2,48.5,78.2C48.5,78.2,48.5,78.2,48.5,78.2z M48.5,80.3
			C48.5,80.3,48.5,80.3,48.5,80.3C48.5,80.3,48.5,80.3,48.5,80.3C48.5,80.4,48.5,80.3,48.5,80.3z M48.5,78.3
			C48.5,78.3,48.5,78.3,48.5,78.3C48.5,78.3,48.5,78.3,48.5,78.3C48.5,78.3,48.5,78.3,48.5,78.3z M48.6,81.3
			C48.6,81.3,48.6,81.3,48.6,81.3c0-0.1-0.1-0.1-0.1-0.1c0,0,0,0,0,0.1C48.6,81.3,48.6,81.3,48.6,81.3z M48.6,80
			C48.6,80,48.6,80,48.6,80C48.6,80,48.6,80.1,48.6,80C48.6,80.1,48.6,80.1,48.6,80z M48.7,81.4C48.7,81.4,48.7,81.4,48.7,81.4
			C48.6,81.4,48.6,81.4,48.7,81.4C48.7,81.4,48.7,81.4,48.7,81.4z M48.7,77.4C48.7,77.3,48.7,77.3,48.7,77.4
			C48.6,77.3,48.6,77.3,48.7,77.4C48.7,77.4,48.7,77.4,48.7,77.4z M48.8,81C48.8,81,48.8,81,48.8,81c0.1-0.1,0.1-0.1,0.1-0.1
			c-0.1,0-0.1,0-0.1-0.1c0,0,0,0-0.1,0C48.8,80.9,48.8,81,48.8,81C48.8,81,48.8,81,48.8,81z M48.8,80.7
			C48.8,80.7,48.8,80.7,48.8,80.7C48.8,80.8,48.8,80.8,48.8,80.7C48.8,80.8,48.8,80.8,48.8,80.7z M48.8,77.3
			C48.8,77.3,48.8,77.3,48.8,77.3C48.8,77.3,48.8,77.3,48.8,77.3C48.8,77.3,48.8,77.3,48.8,77.3z M48.9,81.2
			C48.9,81.1,48.9,81.1,48.9,81.2c0.1-0.1,0.1-0.1,0.1-0.1c0,0,0,0-0.1,0C48.9,81.1,48.9,81.1,48.9,81.2
			C48.8,81.1,48.8,81.2,48.9,81.2C48.8,81.2,48.9,81.2,48.9,81.2z M48.9,80.9C48.9,80.9,48.9,80.9,48.9,80.9
			C48.9,80.9,48.9,80.9,48.9,80.9C48.9,80.9,48.9,80.9,48.9,80.9C48.9,80.9,48.9,80.9,48.9,80.9z M48.9,76.9
			C49,76.9,49,76.9,48.9,76.9C49,76.9,49,76.9,48.9,76.9c0,0,0-0.1,0-0.1c0,0,0,0-0.1,0C48.9,76.8,48.9,76.8,48.9,76.9
			C48.9,76.8,48.9,76.9,48.9,76.9z M49,81c0,0,0-0.1,0-0.1C48.9,80.9,48.9,81,49,81C49,81,49,81,49,81z M49,80.8
			C49,80.8,49,80.8,49,80.8C49,80.8,49,80.8,49,80.8C49,80.9,49,80.8,49,80.8z M49.1,76.7C49.1,76.6,49.1,76.6,49.1,76.7
			c-0.1-0.1,0,0-0.1,0c0,0,0,0.1,0,0.1c0,0,0,0,0.1,0C49.1,76.7,49,76.7,49.1,76.7C49.1,76.7,49.1,76.7,49.1,76.7z M49.1,80.9
			C49.1,80.9,49.1,80.9,49.1,80.9C49.1,80.9,49.1,80.9,49.1,80.9C49.1,80.9,49.1,80.9,49.1,80.9C49.1,80.9,49.1,80.9,49.1,80.9z
			 M49.2,81.3C49.2,81.3,49.2,81.3,49.2,81.3C49.1,81.2,49.1,81.2,49.2,81.3C49.1,81.3,49.1,81.3,49.2,81.3
			C49.1,81.3,49.1,81.3,49.2,81.3z M49.2,81.1C49.1,81.1,49.1,81.1,49.2,81.1C49.1,81.1,49.1,81.2,49.2,81.1
			C49.2,81.2,49.2,81.2,49.2,81.1z M49.2,78.5c0,0,0-0.1,0-0.1c0,0,0.1,0,0.1-0.1c0,0-0.1,0-0.1,0C49.1,78.3,49.1,78.4,49.2,78.5
			C49.1,78.5,49.1,78.5,49.2,78.5z M49.2,78.2C49.2,78.2,49.2,78.2,49.2,78.2C49.1,78.2,49.1,78.2,49.2,78.2
			C49.1,78.2,49.1,78.2,49.2,78.2C49.1,78.2,49.1,78.2,49.2,78.2z M49.3,81.4C49.3,81.4,49.3,81.4,49.3,81.4
			C49.3,81.4,49.2,81.4,49.3,81.4C49.2,81.4,49.2,81.4,49.3,81.4C49.2,81.4,49.3,81.4,49.3,81.4z M49.3,77.1
			C49.3,77.1,49.3,77.1,49.3,77.1C49.3,77.1,49.2,77.1,49.3,77.1C49.2,77.1,49.2,77.1,49.3,77.1C49.2,77.1,49.3,77.1,49.3,77.1z
			 M49.3,76.8C49.4,76.9,49.3,76.9,49.3,76.8c-0.1,0.1-0.1,0.2-0.1,0.2c0,0,0.1,0,0.1,0c0-0.1-0.1,0-0.1,0c0,0,0,0,0-0.1
			c0.1,0,0,0.1,0.1,0.1c0,0,0,0,0,0.1c0,0,0,0,0.1,0c0-0.1,0-0.1,0-0.2c0,0,0.1,0,0.1,0c0,0,0-0.1,0-0.1c0,0,0,0,0,0.1
			c0,0,0.1,0,0.1,0c0,0,0,0,0-0.1c0,0-0.1,0-0.1-0.1c0,0-0.1,0-0.1,0c0,0,0-0.1,0-0.1c-0.1,0,0,0.1-0.1,0.1c0,0-0.1,0-0.1,0
			c0,0,0-0.1,0-0.1c-0.1,0-0.1,0-0.1-0.1c0,0,0,0,0,0c0,0,0,0.1,0,0.1C49.4,76.6,49.4,76.8,49.3,76.8c0.1,0,0.1-0.1,0.1-0.1
			c0,0,0,0,0,0c0,0,0,0,0,0.1c-0.1,0,0,0.1-0.1,0.1c0,0,0,0,0,0C49.4,76.9,49.4,76.8,49.3,76.8C49.4,76.8,49.4,76.8,49.3,76.8z
			 M49.3,78.2C49.3,78.2,49.3,78.2,49.3,78.2C49.3,78.2,49.3,78.3,49.3,78.2C49.3,78.3,49.3,78.3,49.3,78.2z M49.4,77.9
			C49.4,77.8,49.3,77.9,49.4,77.9C49.3,77.8,49.3,77.8,49.4,77.9c-0.1-0.1-0.1,0-0.1,0C49.3,77.9,49.4,77.9,49.4,77.9z M49.6,78.1
			C49.6,78.1,49.6,78.1,49.6,78.1c0,0-0.2-0.1-0.2,0c0,0,0,0,0,0C49.5,78.2,49.6,78.2,49.6,78.1z M49.6,81.1
			C49.6,81.1,49.5,81.1,49.6,81.1C49.5,81.1,49.5,81.1,49.6,81.1C49.6,81.1,49.6,81.1,49.6,81.1z M49.6,78.7
			C49.6,78.6,49.6,78.6,49.6,78.7C49.6,78.6,49.6,78.6,49.6,78.7C49.6,78.6,49.6,78.6,49.6,78.7C49.6,78.7,49.6,78.7,49.6,78.7z
			 M49.6,77.1c0,0,0-0.1,0-0.1C49.6,77,49.6,77.1,49.6,77.1C49.6,77.1,49.6,77.1,49.6,77.1z M49.7,78.9
			C49.7,78.9,49.7,78.9,49.7,78.9C49.8,79,49.8,78.8,49.7,78.9z M49.9,78c0,0,0-0.1,0-0.1C49.9,77.8,49.9,77.9,49.9,78
			c-0.1,0-0.1-0.1-0.1,0C49.8,78,49.9,77.9,49.9,78z M50,78C50,77.9,50,77.9,50,78C50,77.9,50,77.9,50,78C50,78,50,78,50,78z
			 M50,80.2C50,80.2,50,80.2,50,80.2C50,80.2,50,80.3,50,80.2C50,80.3,50.1,80.3,50,80.2z M50.3,76.1C50.3,76.1,50.3,76.1,50.3,76.1
			C50.3,76.1,50.3,76.1,50.3,76.1C50.3,76.2,50.3,76.1,50.3,76.1z M50.4,77.6c0,0,0-0.1,0-0.1c0.1,0,0.1,0,0.1-0.1c0,0,0.1,0,0.1,0
			c0,0,0-0.1,0.1-0.1c0,0,0,0,0-0.1c0,0,0,0-0.1,0c0,0.1-0.1,0-0.1,0.1c0,0.1-0.1,0-0.1,0.1c0,0,0,0.1-0.1,0.1
			C50.4,77.5,50.3,77.5,50.4,77.6C50.4,77.6,50.4,77.6,50.4,77.6z M50.4,76.3C50.4,76.3,50.4,76.3,50.4,76.3
			C50.3,76.3,50.3,76.3,50.4,76.3C50.4,76.3,50.4,76.3,50.4,76.3z M50.5,79.2c0,0,0,0.1,0,0.1c0,0,0,0-0.1,0c0,0,0,0,0,0.1
			c0.1,0,0.1,0,0.1,0.1c0.1,0,0-0.1,0.1-0.1c0,0,0-0.1,0-0.1C50.5,79.3,50.6,79.2,50.5,79.2C50.6,79.2,50.5,79.2,50.5,79.2
			C50.5,79.2,50.5,79.1,50.5,79.2C50.5,79.1,50.5,79.2,50.5,79.2C50.5,79.2,50.5,79.2,50.5,79.2z M50.6,77.7
			C50.5,77.7,50.5,77.7,50.6,77.7C50.5,77.7,50.5,77.7,50.6,77.7C50.6,77.8,50.6,77.8,50.6,77.7z M50.6,77.6c0-0.1,0.1-0.2-0.1-0.1
			C50.5,77.5,50.5,77.5,50.6,77.6C50.5,77.6,50.5,77.6,50.6,77.6z M50.6,76C50.5,76,50.5,76,50.6,76C50.5,76,50.5,76,50.6,76
			C50.6,76,50.6,76,50.6,76z M50.6,77.1C50.6,77.1,50.6,77.1,50.6,77.1C50.6,77.1,50.6,77.1,50.6,77.1
			C50.6,77.1,50.6,77.1,50.6,77.1C50.6,77.1,50.6,77.1,50.6,77.1z M50.8,77.8C50.8,77.7,50.8,77.7,50.8,77.8
			C50.8,77.7,50.8,77.7,50.8,77.8C50.7,77.7,50.7,77.7,50.8,77.8C50.8,77.8,50.8,77.8,50.8,77.8z M50.9,77.6
			C50.9,77.5,50.9,77.5,50.9,77.6C50.8,77.5,50.8,77.5,50.9,77.6C50.8,77.6,50.8,77.6,50.9,77.6z M51,77.4C51,77.4,51,77.4,51,77.4
			c-0.1-0.1-0.1,0-0.2-0.1c0,0,0,0,0,0.1C50.9,77.5,50.9,77.4,51,77.4z M51,77.3c0,0.1,0,0.1,0,0.1c0,0,0,0,0.1,0
			C51.1,77.4,51.1,77.4,51,77.3c0.1,0,0.1,0,0.1,0C51.2,77.2,51.1,77.3,51,77.3C51.1,77.3,51.1,77.3,51,77.3
			C51,77.3,51,77.3,51,77.3C51,77.3,51,77.3,51,77.3C51,77.3,51,77.3,51,77.3C51,77.3,51.1,77.3,51,77.3z M51.5,77.5
			C51.5,77.5,51.5,77.5,51.5,77.5C51.5,77.5,51.5,77.5,51.5,77.5C51.5,77.6,51.5,77.6,51.5,77.5z"/>
		<path class="st4" d="M45.6,77.3C45.6,77.3,45.6,77.2,45.6,77.3c0.1-0.1,0.1-0.1,0.1-0.2c-0.1,0-0.1,0-0.2,0c0,0,0-0.1,0-0.1
			c0,0,0,0.1,0,0.1c0,0-0.1,0-0.1,0c0,0,0-0.1,0-0.1c0,0-0.1,0-0.1,0c0,0,0,0,0-0.1c0,0,0,0-0.1,0c0,0,0,0,0,0.1
			c-0.1,0,0,0.1-0.1,0.1c0,0,0,0,0-0.1c-0.1,0-0.1,0-0.2,0c0,0,0,0,0-0.1c0,0-0.1,0-0.1,0c0,0,0-0.1,0-0.1c0,0-0.1,0-0.1,0
			c0-0.1,0-0.1,0-0.1c0,0-0.1,0-0.1,0c0-0.1-0.1-0.1-0.1-0.1c0-0.1,0-0.2-0.1-0.1c0-0.1,0-0.1,0-0.1c-0.1,0-0.3,0-0.3,0.1
			c0,0,0-0.1,0-0.1c0,0-0.1,0-0.1-0.1c-0.1,0-0.1,0-0.1,0c0,0,0-0.1-0.1-0.1c0,0,0-0.1,0-0.1c-0.1,0-0.1,0-0.1,0.1c0,0,0-0.1,0-0.1
			c0,0-0.1,0-0.1,0c0,0,0,0,0-0.1c-0.1,0-0.1,0-0.2,0c0,0,0,0,0-0.1c0,0-0.1,0-0.1,0c0,0,0,0,0-0.1c-0.1,0-0.1,0-0.1,0
			c0,0,0-0.1-0.1-0.1c0-0.1,0-0.3,0-0.4c0,0,0,0,0.1,0c0-0.1,0-0.1,0-0.1c0,0,0,0,0.1,0c0,0,0-0.1,0-0.1c0,0,0,0-0.1,0
			c0-0.1,0-0.1-0.1-0.1c0,0,0,0,0,0c0-0.1,0-0.1,0-0.1c0,0,0.1,0,0.1-0.1c0,0,0,0,0,0c0.1,0,0,0.1,0,0.1c0.1,0,0-0.1,0-0.1
			c0,0,0,0,0.1,0c0,0.1,0,0.1,0.1,0.1c0,0,0,0,0,0.1c0,0,0.1,0,0.1,0c0,0.1,0.1,0,0.1,0.1c0.1,0,0.1,0,0.2,0c0,0.1,0.1,0,0.1,0.1
			c0.1,0,0-0.1,0.1-0.1c0.1,0,0,0.1,0,0.1c0,0,0,0,0.1,0c0,0.1,0.1,0,0.1,0.1c0,0,0,0,0.1,0c0,0,0,0,0,0.1c0.1,0,0.1,0,0.2,0
			c0,0,0,0,0,0.1c0.1,0,0.2,0,0.2,0c0,0,0,0.1,0,0.1c0,0,0.1,0,0.1,0.1c0,0,0.1,0,0.1,0c0,0,0,0.1,0,0.1c0,0,0.1,0,0.1,0
			c0,0.1,0.1,0,0.1,0.1c0,0,0,0,0.1,0c0,0,0,0,0-0.1c0,0,0,0-0.1,0c0,0,0,0,0-0.1c0.1,0,0.1,0,0.2,0c0,0,0,0.1,0,0.1
			c0.1,0,0,0,0.1-0.1c0,0,0,0,0,0c0.1,0,0,0.1,0.1,0.1c0,0,0,0,0-0.1c0,0,0.1,0,0.1,0c0,0,0,0,0,0.1c0,0,0.1,0,0.1,0
			c0,0.1,0,0.1,0,0.1c0.1,0,0.1,0.1,0.1,0.1c0,0,0,0,0,0.1c0.1,0,0.1,0,0.2,0c0,0.1,0.1,0,0.1,0.1c0,0,0,0.1,0,0.1c0,0,0.1,0,0.2,0
			c0,0,0,0,0-0.1c0,0,0.1,0,0.1,0c0,0.1,0,0.1,0,0.2c0,0,0,0,0.1,0c0,0,0-0.1,0-0.1c0.1,0,0,0.1,0.1,0.1c0,0,0,0,0,0.1
			c0,0,0,0,0.1,0c0-0.1,0-0.1-0.1-0.1c0,0,0,0,0-0.1c0,0,0.1,0,0.1,0c0,0.1,0,0.1,0.1,0.1c0,0,0,0.1,0.1,0.1c0,0,0,0,0,0
			c0,0.1-0.1,0-0.1,0.1c0.1,0,0,0.1,0.1,0.1c0,0,0,0.1,0,0.1c0,0,0,0,0-0.1c0,0,0,0,0,0c0,0,0,0,0,0.1c0,0,0,0,0.1,0
			c0,0.1,0,0.2,0.1,0.2c0,0,0,0,0,0c0,0,0,0-0.1,0c0,0,0,0,0,0.1c0.1,0,0.1,0.1,0.1,0.1c0,0,0.1,0,0.1,0c0,0,0,0-0.1,0
			c0,0,0,0.1,0,0.1c-0.1,0,0,0-0.1-0.1c0,0,0,0-0.1,0c0,0,0,0,0-0.1c0,0-0.1,0-0.1,0c0,0,0,0,0.1,0c0,0,0,0,0-0.1c0,0,0,0-0.1,0
			c0,0,0,0,0,0.1c0,0-0.1,0-0.1,0c0,0.1,0,0.1,0.1,0.1c0,0.1-0.1,0-0.1,0.1c0,0-0.1,0-0.1,0c0,0.1-0.1,0.2,0,0.2
			c0,0.1,0,0.1,0.1,0.1c0,0,0,0,0,0.1c0,0-0.1,0-0.1,0c0,0,0-0.1,0-0.1c-0.1,0,0,0-0.1,0.1c-0.1,0,0,0,0-0.1c0,0,0,0,0.1,0
			c0,0,0,0,0-0.1c-0.1,0-0.1-0.1-0.1-0.1c0,0-0.1,0-0.1,0c0-0.1,0-0.1,0-0.1c0,0-0.1,0-0.1,0c0,0,0,0.1-0.1,0.1c-0.1,0,0-0.1,0-0.2
			C45.7,77.3,45.7,77.3,45.6,77.3C45.6,77.3,45.6,77.3,45.6,77.3z M44.8,76.1C44.8,76.1,44.8,76,44.8,76.1
			C44.8,76,44.8,76,44.8,76.1C44.8,76,44.8,76.1,44.8,76.1C44.8,76.1,44.8,76.1,44.8,76.1z M46.2,77.4c0,0,0-0.1,0-0.1
			C46.1,77.3,46.1,77.3,46.2,77.4C46.1,77.4,46.1,77.4,46.2,77.4z M46.2,76.5C46.2,76.5,46.1,76.5,46.2,76.5
			C46.1,76.6,46.1,76.6,46.2,76.5C46.2,76.6,46.2,76.6,46.2,76.5z M46.2,77.1C46.2,77.1,46.2,77.1,46.2,77.1
			C46.2,77.1,46.2,77.2,46.2,77.1C46.2,77.2,46.2,77.2,46.2,77.1z"/>
		<path class="st4" d="M45,71.9C45,71.9,45,71.9,45,71.9C45,72,45.1,72,45.1,72c0,0,0,0,0,0.1c0,0-0.1,0-0.1,0
			C45,72,44.9,72,45,71.9z"/>
		<path class="st4" d="M45.3,72.7c0,0,0-0.1,0-0.1c0.1,0,0.1,0,0.2,0c0,0,0,0.1,0,0.1c0,0,0.1,0,0.1,0c0,0,0,0.1,0,0.1
			c0,0,0.1,0,0.1,0c0,0,0,0,0,0.1c0.1,0,0,0.1,0.1,0.1c0,0.1,0,0.1,0.1,0.1c0,0.1,0.1,0,0.1,0.1c0,0,0.1,0,0.1,0
			c0,0.1,0,0.1,0.1,0.1c0,0.1,0,0.1,0.1,0.1c0,0,0,0.1,0.1,0.1c0,0.1,0,0.1,0.1,0.1c0,0.1,0,0.2,0.1,0.1c0,0,0,0.1,0,0.1
			c0,0,0.1,0,0.1,0c0,0,0,0-0.1,0c0,0,0,0,0,0.1c0,0,0.1,0,0.1,0c0,0.1-0.1,0-0.2,0c0,0,0,0,0-0.1c0,0,0,0-0.1,0c0,0,0,0.1,0,0.1
			c-0.1,0-0.1,0-0.2,0c0,0,0-0.1,0-0.1c-0.1,0-0.1,0-0.2,0c0,0,0,0,0-0.1c0,0-0.1,0-0.1,0c0,0,0,0.1,0,0.1c0,0,0.1,0,0.1,0
			c0,0,0,0,0,0c0,0,0,0-0.1,0c0,0,0,0,0,0.1c0,0,0,0,0.1,0c0,0,0,0.1,0,0.1c-0.1,0,0-0.1-0.1-0.1c0-0.1,0-0.1,0-0.1
			c-0.1,0-0.2,0-0.2,0c0-0.1-0.1,0-0.1-0.1c0,0-0.1,0-0.1,0c0-0.1,0-0.1,0-0.1c0,0-0.1,0-0.1,0c0,0,0,0,0,0c0-0.1,0.1,0,0.1-0.1
			c0,0,0,0-0.1,0c0,0,0-0.1-0.1-0.1c0-0.1,0-0.2-0.1-0.1c0,0,0-0.1,0-0.1c0,0,0.1,0,0.1,0c0,0,0,0,0,0.1c0,0,0.1,0,0.1,0
			c0-0.1,0-0.1,0-0.2c0,0-0.1,0-0.1,0c0-0.1,0-0.1-0.1-0.1c0-0.1,0.1-0.1,0-0.2c0,0,0.1,0,0.1-0.1c0,0,0,0,0,0
			C45.3,72.7,45.2,72.8,45.3,72.7C45.3,72.7,45.3,72.7,45.3,72.7c-0.1,0-0.1,0-0.1-0.1C45.3,72.6,45.3,72.7,45.3,72.7z M45.2,72.9
			c0,0,0-0.1,0-0.1C45.2,72.8,45.2,72.9,45.2,72.9z M45.8,73.5C45.8,73.5,45.8,73.5,45.8,73.5C45.8,73.4,45.8,73.4,45.8,73.5
			C45.8,73.5,45.8,73.5,45.8,73.5C45.8,73.5,45.8,73.5,45.8,73.5z M45.9,73.3C45.9,73.3,45.8,73.3,45.9,73.3
			C45.8,73.3,45.8,73.3,45.9,73.3C45.9,73.4,45.9,73.4,45.9,73.3z M46.1,73.5C46.1,73.5,46.1,73.5,46.1,73.5
			C46,73.4,46,73.4,46.1,73.5C46,73.5,46,73.5,46.1,73.5z"/>
		<path class="st4" d="M45.5,76C45.5,76,45.5,76,45.5,76C45.5,76,45.6,76,45.5,76c0.1,0,0.1,0,0.1,0c0,0,0,0,0,0.1
			C45.6,76.1,45.6,76.1,45.5,76C45.6,76,45.5,76,45.5,76z"/>
		<path class="st4" d="M45.8,80.3C45.8,80.3,45.8,80.3,45.8,80.3C45.8,80.3,45.8,80.3,45.8,80.3c0,0,0.1,0,0.1,0c0,0,0,0,0,0.1
			C45.9,80.4,45.8,80.4,45.8,80.3C45.8,80.4,45.8,80.3,45.8,80.3z"/>
		<path class="st4" d="M46.1,74.5C46.1,74.5,46.1,74.5,46.1,74.5C46.1,74.5,46.1,74.5,46.1,74.5c0.1-0.1,0.2-0.1,0.2-0.1
			c0,0,0-0.1,0-0.1c0.1,0,0,0.1,0,0.2C46.3,74.5,46.2,74.5,46.1,74.5c0.1,0.1,0.1,0.1,0.1,0.2c-0.1,0,0,0.1-0.1,0.1
			c0,0,0-0.1-0.1-0.1c0,0,0,0,0,0C45.9,74.6,46,74.7,46.1,74.5C46,74.6,46,74.6,46.1,74.5C46.1,74.6,46.1,74.6,46.1,74.5
			C46.1,74.5,46,74.6,46.1,74.5C46,74.5,46,74.5,46.1,74.5C46,74.5,46,74.5,46.1,74.5C46.1,74.5,46,74.5,46.1,74.5z"/>
		<path class="st4" d="M46.4,77.9c-0.1,0,0-0.1-0.1-0.1c0,0,0-0.1,0-0.1c0,0,0,0,0.1,0C46.4,77.8,46.4,77.8,46.4,77.9
			C46.4,77.8,46.4,77.8,46.4,77.9c0-0.1,0-0.1,0-0.1c0,0,0,0,0,0C46.5,77.8,46.5,77.8,46.4,77.9C46.4,77.8,46.4,77.9,46.4,77.9z"/>
		<path class="st4" d="M46.9,74.2C46.9,74.2,46.9,74.2,46.9,74.2C46.9,74.2,46.9,74.3,46.9,74.2C46.9,74.3,46.9,74.3,46.9,74.2
			C46.9,74.3,46.9,74.2,46.9,74.2c0.1,0,0-0.1,0.1-0.1c0.1,0,0,0.1,0.1,0.1C47,74.2,47,74.2,46.9,74.2c0.1,0,0.1,0.1,0.1,0.1
			c0,0,0.1,0,0.1,0.1c0,0,0.1,0,0.1,0c0,0,0,0.1,0.1,0.1c0,0.1,0,0.2,0.1,0.2c0,0,0,0,0,0.1c0,0-0.1,0-0.1,0c0,0,0,0,0-0.1
			c-0.1,0-0.2,0-0.3,0c0,0,0-0.1,0-0.1c0,0-0.1,0-0.1,0c0,0,0,0.1,0,0.1c-0.1,0,0-0.1-0.1-0.1c0,0,0,0,0-0.1c0,0,0,0-0.1,0
			c0,0,0,0,0-0.1c-0.1,0-0.1,0-0.2,0c0-0.1,0-0.1-0.1-0.1c0,0,0,0,0,0c0,0,0,0,0.1,0c0,0,0-0.1,0-0.1c0,0,0.1,0,0.1,0
			c0,0-0.1,0-0.2,0c0,0,0,0,0-0.1c0.1,0,0.1,0,0.1-0.1c0.1,0,0.1,0,0.2,0c0,0,0,0,0,0.1c0,0,0.1,0,0.1,0c0,0.1,0,0.1,0,0.1
			c0,0,0,0,0.1,0c0,0,0-0.1,0-0.1c0.1,0,0,0,0,0.1C46.8,74.1,46.8,74.1,46.9,74.2c0-0.1-0.1-0.1,0-0.1C47,74.1,46.9,74.1,46.9,74.2z
			"/>
		<path class="st4" d="M46.6,77.3c0.1,0,0,0.1,0.1,0.1c0,0,0,0.1,0,0.1c0,0,0,0-0.1,0C46.7,77.5,46.7,77.4,46.6,77.3
			C46.7,77.4,46.6,77.4,46.6,77.3z"/>
		<path class="st4" d="M48.4,74C48.4,73.9,48.4,73.9,48.4,74c0.1-0.1,0.1-0.1,0.1-0.1c0,0-0.1,0-0.1,0c0,0,0,0,0-0.1
			c-0.1,0-0.1,0-0.1,0c0,0,0-0.1-0.1-0.1c0,0,0,0.1,0,0.1c-0.1,0,0-0.1,0-0.1c-0.1,0-0.3,0-0.5,0c0,0,0-0.1-0.1-0.1
			c0-0.1,0-0.3-0.1-0.3c0,0,0,0,0,0c0,0,0,0,0.1,0c0-0.1,0-0.2,0-0.2c0.1,0,0.1,0,0.1-0.1c0,0,0,0,0.1,0c0,0,0-0.1,0.1-0.1
			c0-0.1,0-0.1,0-0.2c0.1,0,0.1,0,0.2,0c0,0.1,0,0.1,0,0.1c0,0,0.1,0,0.1,0c0,0,0,0,0,0.1c0,0,0,0,0.1,0c0,0,0,0.1,0.1,0.1
			c0,0.1,0,0.1,0.1,0.1c0,0,0,0,0,0.1c0,0,0,0,0.1,0c0,0,0,0.1,0.1,0.1c0,0.1,0.1,0.1,0.1,0.1c0.1,0,0-0.1,0.1-0.1
			c0.1,0,0,0.2,0.1,0.1c0,0.1,0,0.1,0,0.2c0,0,0,0,0.1,0c0,0.1,0,0.1,0.1,0.1c0,0,0,0-0.1,0c0,0,0,0,0,0.1c0.1,0.1,0.2,0,0.3,0
			c0,0,0,0,0,0.1c0,0,0.1,0,0.1,0c0,0.1,0.1,0,0.1,0.1c0,0,0.1,0,0.1,0c0,0,0,0.1,0,0.1c0.1,0,0,0.1,0.1,0.1c0,0.1,0,0.1,0.1,0.1
			c0,0,0,0.1,0,0.1c0,0,0.1,0,0.1,0c0,0,0,0.1,0,0.1c0,0,0,0-0.1,0c0,0,0,0,0,0.1c0,0,0.1,0,0.1,0.1c0,0,0.1,0,0.1,0
			c0,0,0,0.1,0,0.1c0,0,0.1,0,0.1,0c0,0,0,0.1,0,0.1c0.1,0,0,0.1,0.1,0.1c0,0.1,0,0.1,0.1,0.1c0,0,0,0.1,0.1,0.1
			c0,0.1,0,0.1,0.1,0.1c0,0.1,0,0.2,0,0.2c0,0,0.1,0,0.1,0c0,0,0,0,0,0c0,0-0.1,0-0.1,0c0,0,0,0.1,0,0.1c-0.1,0-0.1,0-0.1,0.1
			c-0.1,0-0.1,0-0.1,0.1c-0.1,0-0.1,0-0.2,0c0-0.1,0-0.1,0-0.1c0,0-0.1,0-0.1,0c0,0.1-0.1,0-0.1,0.1c0,0-0.1,0-0.1,0c0,0,0,0,0-0.1
			c-0.1,0-0.1,0-0.2,0c0-0.1,0-0.1-0.1-0.1c0,0,0-0.1-0.1-0.1c0-0.1-0.1-0.1-0.1-0.2c0,0-0.1,0-0.1,0c0-0.1,0-0.1,0-0.2
			c0,0,0,0,0.1,0c0,0,0-0.1,0-0.1c0,0,0,0-0.1,0c0-0.1-0.1,0-0.1-0.1c0,0-0.1,0-0.1-0.1c0,0-0.1,0-0.1,0c0-0.1,0-0.1-0.1-0.1
			c0-0.1,0-0.1,0-0.2c-0.1,0,0-0.1-0.1-0.1c0,0,0,0,0-0.1c0,0,0,0,0.1,0c0-0.1,0-0.2-0.1-0.2c0-0.1,0-0.2,0-0.3c0,0,0,0,0.1,0
			c0,0,0,0,0-0.1C48.5,73.9,48.5,73.9,48.4,74C48.4,73.9,48.5,74,48.4,74z M47.9,72.7C47.9,72.7,47.9,72.7,47.9,72.7
			C47.9,72.7,47.8,72.7,47.9,72.7C47.8,72.7,47.8,72.7,47.9,72.7C47.8,72.7,47.9,72.7,47.9,72.7z M49.5,75.5
			C49.5,75.5,49.5,75.4,49.5,75.5C49.5,75.5,49.5,75.5,49.5,75.5C49.5,75.5,49.5,75.5,49.5,75.5z M49.6,75.5
			C49.6,75.5,49.6,75.4,49.6,75.5c0.1-0.1,0.1-0.1,0.1-0.1c0,0,0,0-0.1,0C49.6,75.4,49.6,75.4,49.6,75.5
			C49.6,75.5,49.6,75.5,49.6,75.5C49.6,75.5,49.6,75.5,49.6,75.5z M49.7,75.3C49.7,75.3,49.7,75.3,49.7,75.3
			C49.7,75.3,49.7,75.4,49.7,75.3C49.7,75.4,49.8,75.4,49.7,75.3z M49.8,75.4C49.8,75.4,49.8,75.4,49.8,75.4
			C49.8,75.4,49.8,75.4,49.8,75.4C49.8,75.4,49.8,75.4,49.8,75.4z M50,75.4C50,75.4,50,75.4,50,75.4C50,75.4,50,75.4,50,75.4
			C50,75.4,50.1,75.4,50,75.4z"/>
		<path class="st4" d="M48,77.5C48,77.5,47.9,77.5,48,77.5C47.9,77.5,47.9,77.4,48,77.5c0-0.1,0-0.2,0-0.2
			C48.1,77.3,48,77.4,48,77.5C48,77.4,48,77.4,48,77.5z"/>
		<path class="st4" d="M48.2,78C48.2,78,48.2,78,48.2,78C48.2,78,48.3,78,48.2,78c0,0,0,0,0.1,0c0,0,0,0,0,0.1
			C48.3,78.1,48.3,78.1,48.2,78C48.3,78,48.3,78,48.2,78z"/>
		<path class="st4" d="M48.9,80.2C48.9,80.2,48.8,80.2,48.9,80.2C48.8,80.2,48.8,80.2,48.9,80.2c0,0,0-0.1,0-0.2
			c0.1,0,0.1,0,0.1-0.1c0,0,0,0,0.1,0c0,0,0,0.1,0,0.1C48.9,80.1,48.9,80.1,48.9,80.2C48.9,80.1,48.9,80.2,48.9,80.2z"/>
		<path class="st4" d="M49.1,79.1c0,0-0.1,0-0.1,0c0,0,0-0.1,0-0.1C49,79.1,49,79.1,49.1,79.1c-0.1-0.1-0.1-0.2-0.1-0.2
			c0.1,0,0-0.1,0.1-0.1c0-0.1,0-0.1,0-0.1c0,0,0.1,0,0.1,0c0,0,0,0-0.1,0c0,0,0,0.1,0,0.1c0,0-0.1,0-0.1,0
			C49.1,79,49.1,79.1,49.1,79.1z"/>
		<path class="st4" d="M49.3,79.4c-0.1,0,0-0.1,0-0.1c0.1,0,0,0,0.1-0.1c0.1,0,0,0,0,0.1C49.3,79.2,49.4,79.4,49.3,79.4z"/>
	</g>
</g>
<g>
	<path d="M66.3,21.4h-5.7V18h15.1v3.4h-5.7v18.8h-3.6V21.4z"/>
	<path d="M77.5,16.9h3.7v9.5h0.1c0.4-0.8,1-1.4,1.8-1.8c0.7-0.5,1.6-0.7,2.5-0.7c2.5,0,5,1.8,5,6.9v9.4h-3.6v-9
		c0-2.3-0.8-4.1-2.8-4.1c-1.4,0-2.4,1.1-2.8,2.3c-0.1,0.3-0.1,0.8-0.1,1.2v9.6h-3.7V16.9z"/>
	<path d="M97,33.3c0.1,2.9,2.1,4.1,4.4,4.1c1.7,0,2.9-0.3,4-0.7l0.5,2.8c-1.2,0.6-3,1-5,1c-4.7,0-7.4-3.2-7.4-8.1
		c0-4.4,2.4-8.6,7-8.6c4.7,0,6.2,4.3,6.2,7.8c0,0.8-0.1,1.3-0.1,1.7H97z M103.4,30.5c0-1.5-0.6-3.9-3-3.9c-2.2,0-3.2,2.3-3.3,3.9
		H103.4z"/>
	<path d="M132.8,31.1c-0.1-2.9-0.3-6.3-0.2-9.3h-0.1c-0.7,2.7-1.5,5.7-2.4,8.5l-2.9,9.6h-2.8l-2.7-9.5c-0.8-2.8-1.5-5.8-2-8.6h-0.1
		c-0.1,2.9-0.2,6.4-0.4,9.4l-0.4,8.9h-3.4l1.3-22.1h4.8l2.6,8.9c0.7,2.6,1.3,5.2,1.8,7.7h0.1c0.5-2.4,1.2-5.1,2-7.7l2.8-8.9h4.7
		l1.2,22.1h-3.6L132.8,31.1z"/>
	<path d="M148.6,40.2l-0.2-1.8h-0.1c-0.9,1.2-2.4,2.1-4.3,2.1c-2.9,0-4.5-2.3-4.5-4.8c0-4,3.2-6.1,8.6-6v-0.3c0-1.1-0.4-2.8-2.9-2.8
		c-1.4,0-2.9,0.5-3.9,1.2l-0.7-2.6c1.1-0.7,2.9-1.4,5.2-1.4c4.6,0,5.9,3.3,5.9,6.7v5.8c0,1.4,0.1,2.9,0.2,3.8H148.6z M148.1,32.4
		c-2.6-0.1-5,0.6-5,3c0,1.6,0.9,2.3,2.1,2.3c1.4,0,2.5-1.1,2.8-2.2c0.1-0.3,0.1-0.6,0.1-0.9V32.4z"/>
	<path d="M155.5,16.9h3.7v23.3h-3.7V16.9z"/>
	<path d="M165.7,33.3c0.1,2.9,2.1,4.1,4.4,4.1c1.7,0,2.9-0.3,4-0.7l0.5,2.8c-1.2,0.6-3,1-5,1c-4.7,0-7.4-3.2-7.4-8.1
		c0-4.4,2.4-8.6,7-8.6c4.7,0,6.2,4.3,6.2,7.8c0,0.8-0.1,1.3-0.1,1.7H165.7z M172,30.5c0-1.5-0.6-3.9-3-3.9c-2.2,0-3.2,2.3-3.3,3.9
		H172z"/>
	<path d="M184.6,18.3c1.2-0.3,3.3-0.5,5.3-0.5c2.7,0,4.3,0.4,5.7,1.4c1.2,0.8,2.1,2.3,2.1,4.1c0,2-1.2,3.9-3.3,4.8v0.1
		c2.1,0.6,4,2.4,4,5.5c0,2-0.8,3.5-1.9,4.6c-1.4,1.4-3.8,2.1-7.4,2.1c-2,0-3.6-0.2-4.5-0.3V18.3z M188.2,27.1h1.9
		c2.5,0,3.9-1.3,3.9-3.2c0-2.1-1.4-3-3.7-3c-1.1,0-1.7,0.1-2.1,0.2V27.1z M188.2,37.2c0.5,0.1,1.1,0.1,1.9,0.1c2.3,0,4.4-1,4.4-3.7
		c0-2.6-2-3.6-4.5-3.6h-1.8V37.2z"/>
	<path d="M201.5,29.3c0-2.2,0-3.7-0.1-5.2h3.2l0.1,3.1h0.1c0.7-2.3,2.4-3.4,3.9-3.4c0.4,0,0.6,0,0.9,0.1v3.8
		c-0.3-0.1-0.6-0.1-1.1-0.1c-1.7,0-2.9,1.2-3.3,3.1c-0.1,0.4-0.1,0.8-0.1,1.2v8.3h-3.6V29.3z"/>
	<path d="M214.4,33.3c0.1,2.9,2.1,4.1,4.4,4.1c1.7,0,2.9-0.3,4-0.7l0.5,2.8c-1.2,0.6-3,1-5,1c-4.7,0-7.4-3.2-7.4-8.1
		c0-4.4,2.4-8.6,7-8.6c4.7,0,6.2,4.3,6.2,7.8c0,0.8-0.1,1.3-0.1,1.7H214.4z M220.7,30.5c0-1.5-0.6-3.9-3-3.9c-2.2,0-3.2,2.3-3.3,3.9
		H220.7z"/>
	<path d="M235.2,40.2l-0.2-1.8h-0.1c-0.9,1.2-2.4,2.1-4.3,2.1c-2.9,0-4.5-2.3-4.5-4.8c0-4,3.2-6.1,8.5-6v-0.3c0-1.1-0.4-2.8-2.9-2.8
		c-1.4,0-2.9,0.5-3.9,1.2l-0.7-2.6c1.1-0.7,2.9-1.4,5.2-1.4c4.6,0,5.9,3.3,5.9,6.7v5.8c0,1.4,0.1,2.9,0.2,3.8H235.2z M234.7,32.4
		c-2.6-0.1-5,0.6-5,3c0,1.6,0.9,2.3,2.1,2.3c1.5,0,2.5-1.1,2.8-2.2c0.1-0.3,0.1-0.6,0.1-0.9V32.4z"/>
	<path d="M241.9,36.5c0.8,0.6,2.4,1.1,3.7,1.1c1.6,0,2.3-0.7,2.3-1.8c0-1.1-0.6-1.6-2.4-2.3c-2.8-1.1-4-2.8-4-4.7c0-2.8,2.1-5,5.4-5
		c1.6,0,3,0.5,3.8,1l-0.7,2.9c-0.6-0.4-1.8-0.9-3-0.9c-1.3,0-2,0.7-2,1.7c0,1,0.7,1.5,2.5,2.2c2.6,1.1,3.8,2.5,3.8,4.9
		c0,2.9-2,5-5.9,5c-1.7,0-3.3-0.5-4.4-1.1L241.9,36.5z"/>
	<path d="M258.6,19.6v4.6h3.5v3h-3.5v7.1c0,1.9,0.5,3,1.9,3c0.6,0,1.1-0.1,1.4-0.2l0.1,3.1c-0.5,0.2-1.5,0.4-2.6,0.4
		c-1.3,0-2.5-0.5-3.1-1.3c-0.8-0.9-1.1-2.4-1.1-4.5v-7.5H253v-3h2.1v-3.6L258.6,19.6z"/>
	<path d="M73.3,78.9c-0.9,0.5-2.8,1-5.1,1c-6.3,0-10.2-4.4-10.2-11.1c0-7.3,4.6-11.7,10.7-11.7c2.4,0,4.1,0.6,4.9,1l-0.8,3.2
		c-0.9-0.5-2.2-0.9-3.9-0.9c-4.1,0-7,2.8-7,8.1c0,4.9,2.6,8,7,8c1.5,0,3-0.3,4-0.8L73.3,78.9z"/>
	<path d="M84.1,79.6l-0.2-1.8h-0.1c-0.9,1.2-2.4,2.1-4.3,2.1c-2.9,0-4.5-2.3-4.5-4.8c0-4,3.2-6.1,8.6-6v-0.3c0-1.1-0.4-2.8-2.9-2.8
		c-1.4,0-2.9,0.5-3.9,1.2L76,64.6c1.1-0.7,2.9-1.4,5.2-1.4c4.6,0,5.9,3.3,5.9,6.7v5.8c0,1.4,0.1,2.9,0.2,3.8H84.1z M83.6,71.8
		c-2.6-0.1-5,0.6-5,3c0,1.6,0.9,2.3,2.1,2.3c1.4,0,2.5-1.1,2.8-2.2c0.1-0.3,0.1-0.6,0.1-0.9V71.8z"/>
	<path d="M91,68.3c0-1.8,0-3.4-0.1-4.8h3.2l0.2,2.4h0.1c0.6-1.2,2.2-2.8,4.6-2.8c2.5,0,5.1,1.8,5.1,6.9v9.5h-3.6v-9
		c0-2.3-0.8-4-2.8-4c-1.4,0-2.5,1.1-2.8,2.4c-0.1,0.4-0.1,0.9-0.1,1.3v9.4H91V68.3z"/>
	<path d="M118.5,79.1c-0.8,0.4-2.3,0.8-4.1,0.8c-4.5,0-7.4-3.2-7.4-8.1c0-4.8,3-8.5,8-8.5c1.3,0,2.7,0.3,3.5,0.8l-0.7,3
		c-0.6-0.3-1.4-0.6-2.8-0.6c-2.8,0-4.4,2.3-4.4,5.2c0,3.3,1.9,5.2,4.4,5.2c1.3,0,2.2-0.3,2.9-0.6L118.5,79.1z"/>
	<path d="M123.5,72.7c0.1,2.9,2.1,4.1,4.4,4.1c1.7,0,2.9-0.3,4-0.7l0.5,2.8c-1.2,0.6-3,1-5,1c-4.7,0-7.4-3.2-7.4-8.1
		c0-4.4,2.4-8.6,7-8.6c4.7,0,6.2,4.3,6.2,7.8c0,0.8-0.1,1.3-0.1,1.7H123.5z M129.9,69.9c0-1.5-0.6-3.9-3-3.9c-2.2,0-3.2,2.3-3.3,3.9
		H129.9z"/>
	<path d="M136.2,68.7c0-2.2,0-3.7-0.1-5.2h3.2l0.1,3.1h0.1c0.7-2.3,2.4-3.4,3.9-3.4c0.4,0,0.6,0,0.9,0.1v3.8
		c-0.3-0.1-0.6-0.1-1.1-0.1c-1.7,0-2.9,1.2-3.3,3.1c-0.1,0.4-0.1,0.8-0.1,1.2v8.3h-3.6V68.7z"/>
	<path d="M167.3,78.9c-0.9,0.5-2.8,1-5.1,1c-6.3,0-10.2-4.4-10.2-11.1c0-7.3,4.6-11.7,10.7-11.7c2.4,0,4.1,0.6,4.9,1l-0.8,3.2
		c-0.9-0.5-2.2-0.9-3.9-0.9c-4.1,0-7,2.8-7,8.1c0,4.9,2.6,8,7,8c1.5,0,3-0.3,4-0.8L167.3,78.9z"/>
	<path d="M183.5,71.4c0,5.9-3.7,8.5-7.4,8.5c-4.1,0-7.2-3.1-7.2-8.2c0-5.3,3.1-8.5,7.5-8.5C180.6,63.2,183.5,66.6,183.5,71.4z
		 M172.6,71.6c0,3.1,1.4,5.4,3.6,5.4c2.1,0,3.5-2.3,3.5-5.5c0-2.5-1-5.4-3.5-5.4C173.7,66.2,172.6,68.9,172.6,71.6z"/>
	<path d="M194.6,79.6l-0.2-1.8h-0.1c-0.9,1.2-2.4,2.1-4.3,2.1c-2.9,0-4.5-2.3-4.5-4.8c0-4,3.2-6.1,8.6-6v-0.3c0-1.1-0.4-2.8-2.9-2.8
		c-1.4,0-2.9,0.5-3.9,1.2l-0.7-2.6c1.1-0.7,2.9-1.4,5.2-1.4c4.6,0,5.9,3.3,5.9,6.7v5.8c0,1.4,0.1,2.9,0.2,3.8H194.6z M194.1,71.8
		c-2.6-0.1-5,0.6-5,3c0,1.6,0.9,2.3,2.1,2.3c1.4,0,2.5-1.1,2.8-2.2c0.1-0.3,0.1-0.6,0.1-0.9V71.8z"/>
	<path d="M201.5,56.3h3.7v23.3h-3.7V56.3z"/>
	<path d="M213,59.1c0,1.2-0.8,2.2-2.1,2.2c-1.2,0-2-1-2-2.2c0-1.2,0.8-2.2,2-2.2C212.2,56.9,213,57.9,213,59.1z M209.1,79.6v-16h3.7
		v16H209.1z"/>
	<path d="M220.9,59v4.6h3.5v3h-3.5v7.1c0,1.9,0.5,3,1.9,3c0.6,0,1.1-0.1,1.4-0.2l0.1,3.1c-0.5,0.2-1.5,0.4-2.6,0.4
		c-1.3,0-2.5-0.5-3.1-1.3c-0.8-0.9-1.1-2.4-1.1-4.5v-7.5h-2.1v-3h2.1V60L220.9,59z"/>
	<path d="M231,59.1c0,1.2-0.8,2.2-2.1,2.2c-1.2,0-2-1-2-2.2c0-1.2,0.8-2.2,2-2.2C230.2,56.9,230.9,57.9,231,59.1z M227.1,79.6v-16
		h3.7v16H227.1z"/>
	<path d="M248.4,71.4c0,5.9-3.7,8.5-7.4,8.5c-4.1,0-7.2-3.1-7.2-8.2c0-5.3,3.1-8.5,7.5-8.5C245.5,63.2,248.4,66.6,248.4,71.4z
		 M237.5,71.6c0,3.1,1.4,5.4,3.6,5.4c2.1,0,3.5-2.3,3.5-5.5c0-2.5-1-5.4-3.5-5.4C238.5,66.2,237.5,68.9,237.5,71.6z"/>
	<path d="M251.4,68.3c0-1.8,0-3.4-0.1-4.8h3.2l0.2,2.4h0.1c0.6-1.2,2.2-2.8,4.6-2.8c2.5,0,5.1,1.8,5.1,6.9v9.5h-3.6v-9
		c0-2.3-0.8-4-2.8-4c-1.4,0-2.5,1.1-2.8,2.4c-0.1,0.4-0.1,0.9-0.1,1.3v9.4h-3.7V68.3z"/>
</g>
</svg>
