<?xml version="1.0" encoding="utf-8"?>
<!-- Generator: Adobe Illustrator 18.1.1, SVG Export Plug-In . SVG Version: 6.00 Build 0)  -->
<svg version="1.1" id="Layer_1" xmlns="http://www.w3.org/2000/svg" xmlns:xlink="http://www.w3.org/1999/xlink" x="0px" y="0px"
	 viewBox="95.5 20.1 430.9 440.3" enable-background="new 95.5 20.1 430.9 440.3" xml:space="preserve">
<g id="XMLID_3_">
	<rect id="XMLID_7_" x="95.5" y="408.1" width="430.9" height="52.2"/>
	<g id="XMLID_1_">
		<path id="XMLID_378_" fill="#B42A27" d="M286.9,328c0.6-1.9-1.2-4.9-2.7-6.8c-2-2.5-4.9-4.2-7.1-6.5c-1-1-1.4-2.7-2.3-4.4
			c-0.8-0.3-2.2-0.4-3.3-1.1c-2.5-1.4-2.2-4-2-6.3c0.2-2.6,0.3-4.9-2.8-5.9c-0.6-0.2-1.4-1.3-1.3-1.8c1-3.5-2.3-4.8-3.5-7.1
			c-0.5-0.9-2.5-1.2-2.9-2.1c-0.4-1,0.7-2.6,0.4-3.6c-0.6-1.8-0.9-3.1,0.4-4.8c1.1-1.4-0.5-2.3-1.7-2.3c-2-0.2-2.5-1.2-2.7-3
			c-0.2-1.6-0.7-2.8-2.4-4c-1.7-1.1-1-3.9,0.5-5.8c-0.2-0.3-0.3-0.5-0.4-0.7c-0.9,0.4-1.9,0.8-3.2,1.4c-0.4-0.4-1.3-1.2-2.3-2.2
			c2-1.3,3.7-2.4,5.2-3.4c-1.4-4.3-3.6-7.9-1.1-12.6c1.3-2.6,0.5-6.4,0.7-9.6c0.1-1.6-0.3-2.5-2.1-2.7c-0.4,0.6-0.9,1.3-1.3,2
			c-0.2,0-0.5,0.1-0.7,0.1c-0.2-1-0.7-2.1-0.4-2.8c0.2-0.5,1.8-0.7,2.6-0.5c2,0.4,2.7-0.3,3.2-2.2c0.8-3.1-0.6-5.3-2.1-7.7
			c-0.5-0.8-0.9-2.2-0.6-3c0.7-1.7,1.9-3.3,2.8-4.9c0.6-1,1-2.2,1.7-3.2c0.5-0.7,1.3-1.2,2.1-1.4c1.6-0.5,2.3-0.9,1.4-2.9
			c-0.7-1.7-0.9-3.7-0.8-5.5c0.1-0.6,1.7-1.1,3.1-1.9c-1.1-3.1,2.3-6.4,0.6-10.1c-0.2-0.4,0.6-1.2,1-1.8c0.9-1.2,2.2-2.4,2.5-3.8
			c1.1-3.8,1.7-7.8,2.6-11.6c0.2-0.8,1-1.6,1.4-2.3c0.2,0.1,0.4,0.1,0.7,0.2c-0.3-0.9-0.6-1.9-1-3.1c1.3-1,2.4-2,0.8-4
			c-0.8-1-0.2-3.2-0.2-5.5c1.6,1.9,2.7,3.2,4.3,5.2c1.3-4.4,3.2-8,2.7-12.3c-3.6-1.1-3.7-1.4-2.3-3.8c1.1,0.3,2.3,0.7,3.4,0.8
			c0.4,0.1,1-0.5,1.3-0.9c0.1-0.2-0.3-0.8-0.6-1.2c-0.2-0.3-0.6-0.4-0.6-0.7c-0.5-2.3,3.3-8.3,5.5-9.2c0.6-0.3,1.1-1,1.4-1.7
			c0.7-1.2,1.4-2.6,2.1-3.9c0.3-0.7,0.7-1.3,0.9-2c0.6-1.7,1.1-3.5,1.7-5.2c0.2-0.5,0.3-1,0.2-1.4c-0.7-2.9,0.9-5.1,2.4-7.3
			c0.3-0.5,1.6-0.5,2.4-0.4c0.8,0.1,1.5,0.5,2.4,0.9c0.4-3.3,0.7-6.2,1-9.3c0.5-0.2,1-0.6,1.7-0.7c2.3-0.7,3.6-1.6,1.7-4.1
			c-0.5-0.7,0.2-2.2,0.4-3.4c0.3-1.8,0.5-3.5,0.2-5.3c0.7-0.6,2-1.2,2-1.8c-0.1-2.2,0.2-5.2-1.1-6.3c-2.1-1.8-4.1-3.2-3.6-6.2
			c-0.6-0.1-0.9-0.1-1.1-0.1c-1.1-0.1-3,0.3-3.3-0.2c-0.6-1-0.8-2.9-0.2-3.7c1.2-1.7,1.1-3.3,1.2-5.1c0.1-1.1,0.7-2.3,1.3-3.3
			c0.7-1,0.4-5.5-0.8-6.9c-1-1.2-2.2-2.2-3.2-3.4c-0.6-0.7-0.9-1.8-1.3-2.6c0.9-0.3,1.9-0.5,2.8-0.8c0.3-0.1,0.7,0,0.6,0
			c0.8-2.5,1.6-4.9,2.4-7.2c0.5-1.4,0.1-2.2-1.4-2.2c-1.2,0.1-2.5,0.3-4.2,0.6c-1.6-1.9-3.4-4.1-5-6.4c-0.3-0.4,0.1-1.2,0.3-1.9
			c0.3-0.9,0.7-1.8,1.2-2.9c-1.1-0.2-1.9-0.4-2.9-0.5c1.9-1.4,2.8-2.7,1.3-5c-0.5-0.8,0.8-2.8,1.4-4.2c0.1-0.1,1.4,0.1,1.8,0.4
			c0.4,0.5,0.4,1.4,0.5,2.3c1.7,0.2,2.8-0.3,2.7-2.3c0-0.5,0.7-0.9,1.1-1.4c0.3,0.5,0.8,1.1,0.7,1.6c-0.3,1.6,0.2,2.1,1.8,2.4
			c4.8,0.8,4.7,0.9,3.8,5.8c-0.4,2.1,1.6,2.5,3.4,3.2c0.3-1.7,0.4-3.1,0.6-4.5c1.7,2.4,3.5,4.3,4.7,6.7c0.8,1.5,0.7,3.5,0.8,5.3
			c0.1,1.4,0.7,2.1,2,2c1.6-0.1,2.2,0.7,2.2,2.1c0,0.1,0,0.2,0,0.3c1.6,2.7,1.8,5.2-1.3,7c-0.3,0.2-0.2,0.8-0.3,1.3
			c0.6,0.1,1.1,0.2,1.6,0.2c2.3-0.1,3.2,1.1,2.7,3.2c-0.3,1.3-0.3,2.3,1.1,3.3c1.4,1,0.8,3.2-1.2,5.5c-0.9,1.1-1.9,2.3-2.6,3.5
			c-1.4,2.5-1,3.3,2,3.6c0.3,0.1,0.7,0.1,1.3,0.2c-0.4,1-0.6,1.8-1,2.6c-0.9,2-0.3,2.8,1.9,2.9c0.6,0.1,1.4,0.4,1.6,0.9
			c0.2,0.5,0.1,1.4-0.3,1.8c-1.5,1.8-1.8,3.5-0.2,5.4c1.4,1.8,0.5,5.4-1.5,6.7c-0.5,0.3-0.6,1-0.8,1.6c-0.1,0.1,0,0.4,0.1,0.5
			c5,5.8,2.2,12.8,3,19.3c0.3,2.3,0.1,4.6,0.1,7.3c-1.6-0.2-2.9-0.4-4.6-0.6c-0.1,4,4.1,5.4,4.9,8c-1.7,1.6-3.7,2.7-4.5,4.4
			c-1.7,3.5-2.2,7.5-4,10.9c-2.1,4,0,9.1-3.5,12.6c-0.5,0.5-0.3,1.8-0.4,2.6c-1.9,0.8-4,1.6-5.9,2.5c-2,1-1.2,2.8-1,4.3
			c0.1,0.9,1.1,1.8,1,2.5c-0.2,0.8-1,1.7-1.7,2.3c-0.6,0.6-1.4,1-2.4,1.8c0.8,4.3-1.2,8-4.2,11.4c-0.5,0.5-0.3,1.6-0.5,2.4
			c-0.3,1.7-0.5,3.3-0.8,4.9c-0.2,0-0.4,0-0.6-0.1c-0.3-0.7-0.6-1.3-1-2.4c-0.8,0.4-1.7,0.7-2.3,1.2c-0.4,0.4-0.5,1.4-0.9,1.5
			c-3.6,1.1-2.5,3.1-1.3,5.5c0.5,1.1,0.1,2.7,0.1,3.3c-2.2,0.4-3.9,0.4-5.3,1c-2,0.9-2,2.2-0.4,3.6c1.6,1.3,1.4,5.1-0.3,6.6
			c-1.1,1-2.3,1.7-1.7,3.8c0.3,1-1.2,2.5-1.9,3.8c-0.8,1.5-1.8,2.7-0.1,4.6c0.7,0.8,0.2,2.9-0.3,4.3c-0.6,1.9-1.5,3.7-2.5,5.3
			c-0.5,0.7-1.5,1.1-2.3,1.6c0.8,1.7,1.7,3.4,2.5,5.2c0.2,0.3,0.5,0.5,0.8,0.6c2.4,1.1,2.8,3.1,1.7,5.5c-0.6,1.1-1,2.8-0.5,3.8
			c1.2,2.5,2.8,5,4.7,7.2c1.8,2.1,3.9,3.7,6,5.5c1.8,1.6,1.5,2.9-1.4,4.7c2.7,2.1,7,2.4,7.4,6.7c3.1-1.3,3.6-1,3.8,2.1
			c2.2,0.8,4.5,1.4,6.7,2.3c0.4,0.2,0.7,1.1,0.7,1.6c-0.1,0.8-0.5,1.6-0.7,2.5c1.3,0.3,2.6,0.4,3.7,0.8c1.9,0.5,2.9,1.9,4.1,3.5
			c1.1,1.4,3.6,1.8,5.4,2.6c1.8,0.8,3.5,1.7,5.2,2.6c0.5,0.3,1.1,0.8,1.6,0.8c2.9-0.2,3.9,2,4.4,4.1c0.5,1.7,1.3,2.2,2.7,2
			c2.1-0.3,4.2-0.8,6.5-1.2c0.6,2.9,2.1,4.8,5.6,3.8c0.3-0.1,1,1,1.2,1.7c0.3,0.9,0.2,2,0.2,2.6c1.9-0.4,3.6-1,5.3-0.9
			c0.9,0.1,2.3,1.3,2.4,2.1c0.3,2.4,1.5,3.2,3.7,3.2c0.3,0,0.6,0.2,1.7,0.6c-1.7,1.7-2.9,3.9-4.7,4.5c-3.1,1-1.5-3.6-4.3-4.2
			c0.1,1.9,0.2,3.5,0.3,5.3c-2.4,0.1-2.9,2.1-3.5,4.2c-0.8,2.6-1.7,2.7-3.5,0.6c0,2.2,0,4.3,0,6.4c5.1,0.2,5.5-5.8,10.3-6.8
			c-2.6,3.7-5,6.9-7.3,10.2c0.3,0.3,0.6,0.5,0.9,0.8c1.2-1.2,2.5-2.5,3.9-3.9c1.4,2.6,3.7,4.6,2.1,7.9c-0.3,0.5,0.6,1.5,0.4,2.2
			c-0.2,0.7-0.7,1.5-1.3,1.9c-0.3,0.2-1.3-0.6-1.7-1.1c-1.3-2.5-2.1-2.6-4-0.4c0.7,0.9,1.4,1.8,2.3,2.9c-0.9,0.4-1.7,0.7-2.8,1.2
			c2.3,1.9,4.3,3.6,6.7,5.6c2.1-0.7,4.9,0.7,5.9,1.4c0.6,0.4,1.2,1.4,1,1.9c-0.2,0.6-1.2,1.1-1.9,1.2c-2.1,0.1-4.2-0.1-6.4-0.1
			c-6.1,0-12.3,0.2-18.4,0.1c-1.2,0-2.4-0.6-3.5-1.1c-1.3-0.7-2.4-1.6-3.8-2.5c-0.7,1.5-4.1-0.9-4.7-1.3c-2.9-2-6.1-3.4-9.7-3.4
			c-0.5,0-7.2-1.9-8.7-3.5c-2-2.1-3.7-4.5-5.6-6.7c-0.3-0.3-0.9-0.2-1.7-0.3L286.9,328z"/>
	</g>
	<g id="XMLID_84_">
		<path id="XMLID_85_" d="M104.2,327.4c0-5.4-0.1-6.3-3.1-6.6l-1.3-0.1c-0.3-0.2-0.2-1.1,0.1-1.3c2.6,0.1,4.3,0.2,6.5,0.2
			c2.1,0,3.8-0.1,6.4-0.2c0.3,0.2,0.4,1.1,0.1,1.3l-1.3,0.1c-3,0.3-3.1,1.1-3.1,6.6v18.2c0,5.4,0.1,6.2,3.1,6.5l1.3,0.2
			c0.3,0.2,0.2,1.1-0.1,1.3c-2.5-0.1-4.3-0.2-6.4-0.2c-2.2,0-3.9,0.1-6.5,0.2c-0.3-0.2-0.4-1-0.1-1.3l1.3-0.2c3-0.4,3.1-1.1,3.1-6.5
			V327.4z"/>
		<path id="XMLID_87_" d="M150.8,344.7c0,1.6,0,7.7,0.2,8.9c-0.1,0.3-0.4,0.6-1,0.6c-0.6-0.9-2.1-2.6-6.6-7.7l-11.9-13.5
			c-1.4-1.6-4.9-5.8-5.9-6.9h-0.1c-0.2,0.6-0.3,1.8-0.3,3.3v11.2c0,2.4,0.1,9.1,0.9,10.6c0.3,0.6,1.3,0.9,2.6,1l1.6,0.2
			c0.3,0.4,0.3,1-0.1,1.3c-2.3-0.1-4.1-0.2-6-0.2c-2.2,0-3.5,0.1-5.3,0.2c-0.4-0.3-0.4-1-0.1-1.3l1.4-0.2c1.2-0.2,2-0.5,2.3-1
			c0.7-1.9,0.7-8.1,0.7-10.6v-14.8c0-1.4-0.1-2.5-1.1-3.7c-0.7-0.7-2-1.1-3.2-1.2l-0.9-0.1c-0.3-0.3-0.3-1.1,0.1-1.3
			c2.2,0.2,4.9,0.2,5.8,0.2c0.8,0,1.7-0.1,2.4-0.2c1,2.6,7.1,9.4,8.7,11.3l5,5.6c3.5,3.9,6.1,6.8,8.4,9.3h0.1
			c0.2-0.3,0.2-1.1,0.2-2.2v-11c0-2.4-0.1-9.1-1-10.6c-0.3-0.5-1.1-0.8-3.2-1l-0.9-0.1c-0.4-0.3-0.3-1.1,0.1-1.3
			c2.4,0.1,4.1,0.2,6.1,0.2c2.2,0,3.5-0.1,5.3-0.2c0.4,0.3,0.4,1,0.1,1.3l-0.7,0.1c-1.7,0.3-2.6,0.7-2.8,1.1
			c-0.9,1.9-0.8,8.2-0.8,10.6C150.8,332.5,150.8,344.7,150.8,344.7z"/>
		<path id="XMLID_89_" d="M168.9,334.1c0,1.4,0.2,1.4,1.7,1.4h3.5c2.1,0,3.7-0.1,4.3-0.3c0.6-0.2,1-0.5,1.3-1.8l0.5-2.1
			c0.3-0.3,1.1-0.3,1.3,0c0,1.2-0.2,3.3-0.2,5.2c0,1.9,0.2,3.8,0.2,5c-0.2,0.3-1,0.3-1.3,0l-0.5-2c-0.3-0.9-0.7-1.7-1.7-2
			c-0.7-0.2-2-0.3-3.9-0.3h-3.5c-1.6,0-1.7,0.1-1.7,1.4v7.1c0,5.4,0.1,6.2,3.1,6.4l1.8,0.2c0.3,0.2,0.2,1.1-0.1,1.3
			c-3-0.1-4.8-0.2-6.8-0.2c-2.3,0-4,0.1-6.4,0.2c-0.3-0.2-0.4-1-0.1-1.3l1.3-0.2c2.9-0.4,3.1-1,3.1-6.4v-18.4c0-5.4-0.1-6.1-3.1-6.5
			l-0.8-0.1c-0.3-0.2-0.2-1.1,0.1-1.3c2.2,0.1,3.9,0.2,5.9,0.2h9.4c3.3,0,6.3,0,6.9-0.2c0,2.4,0.1,4.8,0.2,6.8
			c-0.2,0.3-0.9,0.5-1.2,0.2c-0.4-2.3-1-4.2-3.6-4.9c-1.1-0.3-2.8-0.3-5-0.3h-3.1c-1.6,0-1.6,0.1-1.6,2.1
			C168.9,323.3,168.9,334.1,168.9,334.1z"/>
		<path id="XMLID_91_" d="M193.3,327.3c0-5.4-0.1-6.2-3.3-6.5l-1.3-0.1c-0.3-0.2-0.2-1.1,0.1-1.3c2.8,0.1,4.6,0.2,6.7,0.2
			c2,0,3.7-0.1,6.3-0.2c0.3,0.2,0.4,1.1,0.1,1.3l-1.2,0.1c-3,0.3-3.1,1.1-3.1,6.5v17.8c0,3.2,0.2,4.6,1.1,5.5
			c0.6,0.6,1.6,1.2,5.6,1.2c4.3,0,5.4-0.2,6.3-0.7c1-0.6,2.4-2.5,3.4-5.1c0.3-0.3,1.3-0.1,1.3,0.3c0,0.6-1.4,5.8-2.2,7.2
			c-2.6-0.1-7.5-0.2-12.8-0.2h-4.7c-2.2,0-3.8,0.1-6.7,0.2c-0.3-0.2-0.4-1-0.1-1.3l1.6-0.2c2.9-0.3,3.1-1,3.1-6.4V327.3z"/>
		<path id="XMLID_93_" d="M239.4,341.5c-0.4-1.1-0.6-1.3-2.1-1.3h-7.7c-1.3,0-1.6,0.2-2,1.2l-1.8,5.4c-0.8,2.3-1.1,3.7-1.1,4.2
			c0,0.6,0.3,0.9,1.5,1l1.7,0.2c0.4,0.3,0.4,1.1-0.1,1.3c-1.3-0.1-2.9-0.1-5.3-0.2c-1.7,0-3.5,0.1-4.9,0.2c-0.3-0.2-0.4-1-0.1-1.3
			l1.7-0.2c1.2-0.1,2.4-0.7,3.1-2.5c0.9-2.4,2.4-5.7,4.5-11.4l5.2-13.8c0.7-1.9,1-2.8,0.9-3.6c1.2-0.4,2.1-1.3,2.6-2
			c0.3,0,0.7,0.1,0.8,0.5c0.7,2.3,1.5,4.6,2.3,6.9l7,20.6c1.5,4.4,2.2,5.2,4.3,5.4l1.4,0.2c0.4,0.3,0.3,1.1,0,1.3
			c-2.1-0.1-3.9-0.2-6.2-0.2c-2.5,0-4.4,0.1-5.9,0.2c-0.4-0.2-0.5-1-0.1-1.3l1.5-0.2c1.1-0.1,1.8-0.4,1.8-0.9c0-0.6-0.3-1.5-0.7-2.7
			L239.4,341.5z M229.2,337c-0.4,1.2-0.4,1.2,1.1,1.2h6.3c1.5,0,1.6-0.2,1.1-1.6l-2.7-8.3c-0.4-1.2-0.9-2.6-1.2-3.2h-0.1
			c-0.2,0.3-0.7,1.5-1.2,3L229.2,337z"/>
		<path id="XMLID_96_" d="M273.7,339.8c1.2,2.4,2.3,4.8,3.5,7h0.1c1.4-2.4,2.6-5.1,3.9-7.7l4.8-9.8c2.3-4.7,3.8-7.5,3.9-9.8
			c1.8,0.2,2.8,0.2,3.8,0.2c1.3,0,2.9-0.1,4.6-0.2c0.3,0.2,0.3,1.1,0.1,1.3l-1.1,0.1c-3.2,0.3-3.6,1.3-3.6,4.9
			c0.1,5.4,0.2,14.9,0.6,22.3c0.2,2.6,0.1,3.9,2.5,4.1l1.7,0.2c0.3,0.3,0.3,1.1-0.1,1.3c-2.1-0.1-4.2-0.2-6.1-0.2
			c-1.8,0-4.1,0.1-6.2,0.2c-0.4-0.3-0.4-1-0.1-1.3l1.5-0.2c2.5-0.3,2.5-1.1,2.5-4.3l-0.2-21.4h-0.1c-0.4,0.6-2.3,4.7-3.3,6.7
			l-4.6,8.9c-2.3,4.5-4.6,9.3-5.5,11.7c-0.1,0.2-0.3,0.2-0.5,0.2c-0.1,0-0.4-0.1-0.5-0.2c-0.9-2.7-3.3-7.7-4.5-10.2l-4.6-9.9
			c-1.1-2.4-2.2-5-3.3-7.4h-0.1c-0.2,3.2-0.4,6.2-0.5,9.1c-0.2,3.1-0.4,7.7-0.4,12.1c0,3.8,0.3,4.6,2.3,4.8l2,0.2
			c0.4,0.3,0.3,1.1-0.1,1.3c-1.8-0.1-3.7-0.2-5.7-0.2c-1.7,0-3.5,0.1-5.2,0.2c-0.3-0.3-0.4-1-0.1-1.3l1.1-0.2
			c2.2-0.3,2.8-0.6,3.2-4.2c0.3-3.4,0.6-6.2,0.9-11.3c0.3-4.2,0.5-8.6,0.6-11.4c0.1-3.2-0.3-4-3.4-4.4l-0.8-0.1
			c-0.3-0.3-0.2-1.1,0.2-1.3c1.6,0.1,2.7,0.2,4,0.2c1.2,0,2.5,0,4.2-0.2c-0.2,2,1.1,5.2,2.6,8.4L273.7,339.8z"/>
		<path id="XMLID_98_" d="M322.3,339.8c1.2,2.4,2.3,4.8,3.5,7h0.1c1.4-2.4,2.6-5.1,3.9-7.7l4.8-9.8c2.3-4.7,3.8-7.5,3.9-9.8
			c1.8,0.2,2.8,0.2,3.8,0.2c1.3,0,2.9-0.1,4.6-0.2c0.3,0.2,0.3,1.1,0.1,1.3l-1.1,0.1c-3.2,0.3-3.6,1.3-3.6,4.9
			c0.1,5.4,0.2,14.9,0.6,22.3c0.2,2.6,0.1,3.9,2.5,4.1l1.7,0.2c0.3,0.3,0.3,1.1-0.1,1.3c-2.1-0.1-4.2-0.2-6.1-0.2
			c-1.8,0-4.1,0.1-6.2,0.2c-0.4-0.3-0.4-1-0.1-1.3l1.5-0.2c2.5-0.3,2.5-1.1,2.5-4.3l-0.2-21.4h-0.1c-0.4,0.6-2.3,4.7-3.3,6.7
			l-4.6,8.9c-2.3,4.5-4.6,9.3-5.5,11.7c-0.1,0.2-0.3,0.2-0.5,0.2c-0.1,0-0.4-0.1-0.5-0.2c-0.9-2.7-3.3-7.7-4.5-10.2l-4.7-10
			c-1.1-2.4-2.2-5-3.3-7.4h-0.1c-0.2,3.2-0.4,6.2-0.5,9.1c-0.2,3.1-0.4,7.7-0.4,12.1c0,3.8,0.3,4.6,2.3,4.8l2,0.2
			c0.4,0.3,0.3,1.1-0.1,1.3c-1.8-0.1-3.7-0.2-5.7-0.2c-1.7,0-3.5,0.1-5.2,0.2c-0.3-0.3-0.4-1-0.1-1.3l1.1-0.2
			c2.2-0.3,2.8-0.6,3.2-4.2c0.3-3.4,0.6-6.2,0.9-11.3c0.3-4.2,0.5-8.6,0.6-11.4c0.1-3.2-0.3-4-3.4-4.4l-0.8-0.1
			c-0.3-0.3-0.2-1.1,0.2-1.3c1.6,0.1,2.7,0.2,4,0.2c1.2,0,2.5,0,4.2-0.2c-0.2,2,1.1,5.2,2.6,8.4L322.3,339.8z"/>
		<path id="XMLID_100_" d="M373.2,341.5c-0.4-1.1-0.6-1.3-2.1-1.3h-7.7c-1.3,0-1.6,0.2-2,1.2l-1.8,5.4c-0.8,2.3-1.1,3.7-1.1,4.2
			c0,0.6,0.3,0.9,1.5,1l1.7,0.2c0.4,0.3,0.4,1.1-0.1,1.3c-1.3-0.1-2.9-0.1-5.3-0.2c-1.7,0-3.5,0.1-4.9,0.2c-0.3-0.2-0.4-1-0.1-1.3
			l1.7-0.2c1.2-0.1,2.4-0.7,3.1-2.5c0.9-2.4,2.4-5.7,4.5-11.4l5.2-13.8c0.7-1.9,1-2.8,0.9-3.6c1.2-0.4,2.1-1.3,2.6-2
			c0.3,0,0.7,0.1,0.8,0.5c0.7,2.3,1.5,4.6,2.3,6.9l7,20.6c1.5,4.4,2.2,5.2,4.3,5.4l1.4,0.2c0.4,0.3,0.3,1.1,0,1.3
			c-2.1-0.1-3.9-0.2-6.2-0.2c-2.5,0-4.4,0.1-5.9,0.2c-0.4-0.2-0.5-1-0.1-1.3l1.5-0.2c1.1-0.1,1.8-0.4,1.8-0.9c0-0.6-0.3-1.5-0.7-2.7
			L373.2,341.5z M363,337c-0.4,1.2-0.4,1.2,1.1,1.2h6.3c1.5,0,1.6-0.2,1.1-1.6l-2.7-8.3c-0.4-1.2-0.9-2.6-1.2-3.2h-0.1
			c-0.2,0.3-0.7,1.5-1.2,3L363,337z"/>
		<path id="XMLID_103_" d="M401.9,345.7c0,5.4,0.1,6.2,3.1,6.4l1.7,0.2c0.3,0.2,0.2,1.1-0.1,1.3c-2.9-0.1-4.7-0.2-6.7-0.2
			s-3.8,0.1-7.1,0.2c-0.3-0.2-0.4-1,0-1.3l1.9-0.2c2.9-0.3,3.2-1,3.2-6.4v-22.9c0-1.6,0-1.7-1.6-1.7h-2.8c-2.2,0-5,0.1-6.3,1.3
			c-1.2,1.1-1.8,2.3-2.3,3.5c-0.4,0.3-1.1,0.1-1.3-0.4c0.8-2.3,1.6-5.6,2-7.7c0.2-0.1,0.8-0.2,1,0c0.3,1.7,2,1.6,4.3,1.6h20.7
			c2.7,0,3.2-0.1,4-1.4c0.3-0.1,0.8-0.1,0.9,0.2c-0.6,2.1-0.9,6.3-0.8,7.8c-0.2,0.4-1.1,0.4-1.3,0.1c-0.2-1.3-0.5-3.2-1.3-3.7
			c-1.2-0.9-3.1-1.3-5.9-1.3h-3.6c-1.6,0-1.5,0.1-1.5,1.8v22.9H401.9z"/>
		<path id="XMLID_105_" d="M419.2,336.9c0-10.2,7.7-18.1,18.2-18.1c11.8,0,17.8,8.5,17.8,17.6c0,10.3-7.9,17.9-17.8,17.9
			C426,354.3,419.2,346.1,419.2,336.9z M450.1,338c0-8.4-3.7-17.6-13.5-17.6c-5.3,0-12.3,3.6-12.3,14.8c0,7.6,3.7,17.4,13.8,17.4
			C444.2,352.7,450.1,348.1,450.1,338z"/>
		<path id="XMLID_108_" d="M463.8,327.4c0-4.9-0.2-5.7-2.3-6l-1.7-0.2c-0.4-0.3-0.4-1.1,0.1-1.3c2.8-0.3,6.4-0.4,11.4-0.4
			c3.2,0,6.2,0.3,8.5,1.6c2.5,1.3,4.2,3.6,4.2,7.2c0,4.9-3.8,7.6-6.4,8.5c-0.3,0.3,0,0.8,0.3,1.2c4.1,6.6,6.8,10.7,10.3,13.6
			c0.9,0.8,2.2,1.3,3.5,1.4c0.3,0.1,0.3,0.5,0.1,0.7c-0.5,0.2-1.3,0.3-2.3,0.3c-4.3,0-7-1.3-10.6-6.5c-1.3-1.9-3.4-5.4-5-7.7
			c-0.8-1.1-1.6-1.7-3.6-1.7c-2.3,0-2.4,0.1-2.4,1.1v6.5c0,5.4,0.1,6,3.1,6.4l1.1,0.2c0.3,0.3,0.2,1.1-0.1,1.3
			c-2.3-0.1-4-0.2-6.1-0.2c-2.2,0-4,0.1-6.4,0.2c-0.3-0.2-0.4-0.9-0.1-1.3l1.3-0.2c2.9-0.4,3.1-1,3.1-6.4v-18.4H463.8z M468,334.7
			c0,0.9,0,1.5,0.2,1.7c0.2,0.2,0.9,0.3,3.5,0.3c1.9,0,3.8-0.2,5.3-1.3c1.4-1.1,2.5-2.8,2.5-6.4c0-4-2.5-7.9-8.2-7.9
			c-3.2,0-3.3,0.2-3.3,1.7V334.7z"/>
		<path id="XMLID_111_" d="M507.5,345.6c0,5.5,0.3,6.3,3.1,6.5l2,0.2c0.3,0.3,0.2,1.1-0.1,1.3c-3.2-0.1-4.9-0.2-7-0.2
			c-2.2,0-4,0.1-6.7,0.2c-0.3-0.2-0.4-1-0.1-1.3l1.6-0.2c2.9-0.3,3.1-1,3.1-6.5V343c0-2.8-0.2-3.5-1.7-6.4l-6.1-11.8
			c-1.8-3.4-2.5-3.6-4-3.9l-1.4-0.3c-0.3-0.4-0.3-1.1,0.1-1.3c1.7,0.1,3.5,0.2,5.9,0.2c2.4,0,4.2-0.1,5.5-0.2c0.5,0.2,0.5,1,0.2,1.3
			l-0.7,0.1c-1.8,0.3-2.2,0.5-2.2,0.9c0,0.5,1.3,3.4,1.6,3.9c1.9,3.8,3.8,7.8,5.8,11.4c1.6-2.7,3.3-5.7,4.8-8.6
			c1.4-2.6,3.3-6.2,3.3-6.8c0-0.3-0.9-0.7-2.2-0.8l-0.9-0.1c-0.4-0.4-0.3-1.1,0.1-1.3c1.9,0.1,3.3,0.2,4.9,0.2c1.6,0,3-0.1,4.8-0.2
			c0.4,0.3,0.5,1,0.1,1.3l-1.4,0.3c-2.6,0.5-4.2,3.7-6.8,8.1l-3.2,5.6c-2.3,3.9-2.4,4.3-2.4,8.3v2.7H507.5z"/>
	</g>
	<g id="XMLID_4_">
		<path id="XMLID_48_" d="M104.2,373.3c0-3.8-0.2-4.8-2.5-5l-1.7-0.2c-0.4-0.3-0.4-1.1,0.1-1.3c2.7-0.3,6.3-0.4,11-0.4
			c3.2,0,6.3,0.3,8.6,1.4c2.2,1.1,3.9,3.1,3.9,6.4c0,3.7-2.2,5.6-5.2,7c0,0.5,0.4,0.7,1,0.8c2.7,0.5,6.9,3.1,6.9,8.5
			c0,5.9-4.4,9.9-13.6,9.9c-1.5,0-4-0.2-6.2-0.2c-2.3,0-4,0.1-5.9,0.2c-0.3-0.2-0.4-1-0.1-1.3l0.9-0.2c2.7-0.5,2.8-1,2.8-6.4
			L104.2,373.3L104.2,373.3z M108.3,380.2c0,1.4,0.1,1.6,2.6,1.4c5.2-0.2,8-1.8,8-6.6c0-5-3.7-6.9-7.7-6.9c-1.1,0-1.9,0.1-2.4,0.3
			c-0.5,0.2-0.7,0.4-0.7,1.3v10.4H108.3z M108.3,392.1c0,1.9,0.1,4.4,1.1,5.6c1,1.2,2.5,1.4,4,1.4c4.6,0,8-2.1,8-7.2
			c0-4-2.1-8.7-10.2-8.7c-2.7,0-2.9,0.3-2.9,1.3V392.1z"/>
		<path id="XMLID_58_" d="M135,374.4c0-4.9-0.2-5.7-2.3-6l-1.7-0.2c-0.4-0.3-0.4-1.1,0.1-1.3c2.8-0.3,6.4-0.4,11.4-0.4
			c3.2,0,6.2,0.3,8.5,1.6c2.5,1.3,4.2,3.6,4.2,7.2c0,4.9-3.8,7.6-6.4,8.5c-0.3,0.3,0,0.8,0.3,1.2c4.1,6.6,6.8,10.7,10.3,13.6
			c0.9,0.8,2.2,1.3,3.5,1.4c0.3,0.1,0.3,0.5,0.1,0.7c-0.5,0.2-1.3,0.3-2.3,0.3c-4.3,0-7-1.3-10.6-6.5c-1.3-1.9-3.4-5.4-5-7.7
			c-0.8-1.1-1.6-1.7-3.6-1.7c-2.3,0-2.4,0.1-2.4,1.1v6.5c0,5.4,0.1,6,3.1,6.4l1.1,0.2c0.3,0.3,0.2,1.1-0.1,1.3
			c-2.3-0.1-4-0.2-6.1-0.2c-2.2,0-4,0.1-6.4,0.2c-0.3-0.2-0.4-0.9-0.1-1.3l1.3-0.2c2.9-0.4,3.1-1,3.1-6.4v-18.4H135z M139.2,381.8
			c0,0.9,0,1.5,0.2,1.7c0.2,0.2,0.9,0.3,3.5,0.3c1.9,0,3.8-0.2,5.3-1.3c1.4-1.1,2.5-2.8,2.5-6.4c0-4-2.5-7.9-8.2-7.9
			c-3.2,0-3.3,0.2-3.3,1.7V381.8z"/>
		<path id="XMLID_61_" d="M171.7,374.4c0-5.3-0.1-6.1-3.1-6.5l-0.8-0.1c-0.3-0.2-0.2-1.1,0.1-1.3c2.2,0.1,3.9,0.2,6.1,0.2h9.6
			c3.3,0,6.3,0,6.9-0.2c0.3,0.9,0.6,4.6,0.8,6.8c-0.2,0.3-1,0.4-1.3,0.1c-0.8-2.4-1.2-4.2-3.9-4.9c-1.1-0.3-2.7-0.3-5-0.3h-3.7
			c-1.6,0-1.6,0.1-1.6,2.1v10.2c0,1.4,0.2,1.4,1.7,1.4h2.9c2.2,0,3.7-0.1,4.3-0.3c0.6-0.2,1-0.5,1.2-1.8l0.4-2.1
			c0.3-0.3,1.1-0.3,1.3,0.1c0,1.2-0.2,3.2-0.2,5.2c0,1.9,0.2,3.8,0.2,4.9c-0.2,0.4-1.1,0.4-1.3,0.1l-0.5-2c-0.2-0.9-0.6-1.7-1.6-2
			c-0.7-0.2-2-0.3-3.9-0.3h-2.9c-1.6,0-1.7,0.1-1.7,1.4v7.2c0,2.7,0.2,4.4,1,5.3c0.6,0.6,1.7,1.2,6.2,1.2c3.9,0,5.4-0.2,6.6-0.8
			c0.9-0.5,2.3-2.3,3.6-5c0.4-0.3,1.1-0.1,1.3,0.4c-0.4,1.8-1.7,5.7-2.3,7.1c-4.6-0.1-9.2-0.2-13.7-0.2h-4.6c-2.2,0-3.9,0.1-7,0.2
			c-0.3-0.2-0.4-1-0.1-1.3l1.7-0.2c2.9-0.3,3.2-1,3.2-6.4L171.7,374.4L171.7,374.4z"/>
		<path id="XMLID_63_" d="M218.9,388.6c-0.4-1.1-0.6-1.3-2.1-1.3h-7.7c-1.3,0-1.6,0.2-2,1.2l-1.8,5.4c-0.8,2.3-1.1,3.7-1.1,4.2
			c0,0.6,0.3,0.9,1.5,1l1.7,0.2c0.4,0.3,0.4,1.1-0.1,1.3c-1.3-0.1-2.9-0.1-5.3-0.2c-1.7,0-3.5,0.1-4.9,0.2c-0.3-0.2-0.4-1-0.1-1.3
			l1.7-0.2c1.2-0.1,2.4-0.7,3.1-2.5c0.9-2.4,2.4-5.7,4.5-11.4l5.2-13.8c0.7-1.9,1-2.8,0.9-3.6c1.2-0.4,2.1-1.3,2.6-2
			c0.3,0,0.7,0.1,0.8,0.5c0.7,2.3,1.5,4.6,2.3,6.9l7,20.6c1.5,4.4,2.2,5.2,4.3,5.4l1.4,0.2c0.4,0.3,0.3,1.1,0,1.3
			c-2.1-0.1-3.9-0.2-6.2-0.2c-2.5,0-4.4,0.1-5.9,0.2c-0.4-0.2-0.5-1-0.1-1.3l1.5-0.2c1.1-0.1,1.8-0.4,1.8-0.9c0-0.6-0.3-1.5-0.7-2.7
			L218.9,388.6z M208.8,384.1c-0.4,1.2-0.4,1.2,1.1,1.2h6.3c1.5,0,1.6-0.2,1.1-1.6l-2.7-8.3c-0.4-1.2-0.9-2.6-1.2-3.2h-0.1
			c-0.2,0.3-0.7,1.5-1.2,3L208.8,384.1z"/>
		<path id="XMLID_66_" d="M243.7,401.3c-4.3,0-7-1.3-8-1.9c-0.6-1.1-1.3-4.8-1.4-7.2c0.3-0.4,1-0.5,1.2-0.2c0.8,2.6,2.8,7.7,8.8,7.7
			c4.3,0,6.4-2.8,6.4-5.9c0-2.3-0.5-4.8-4.2-7.2l-4.9-3.2c-2.6-1.7-5.5-4.6-5.5-8.8c0-4.9,3.8-8.8,10.4-8.8c1.6,0,3.4,0.3,4.8,0.7
			c0.7,0.2,1.4,0.3,1.8,0.3c0.5,1.2,0.9,4.1,0.9,6.3c-0.2,0.3-1,0.5-1.3,0.2c-0.7-2.5-2.1-5.8-7-5.8c-5,0-6.1,3.3-6.1,5.7
			c0,2.9,2.5,5.1,4.3,6.3l4.1,2.6c3.2,2,6.4,5,6.4,9.8C254.6,397.5,250.4,401.3,243.7,401.3z"/>
		<path id="XMLID_68_" d="M277.6,392.8c0,5.4,0.1,6.2,3.1,6.4l1.7,0.2c0.3,0.2,0.2,1.1-0.1,1.3c-2.9-0.1-4.7-0.2-6.7-0.2
			s-3.8,0.1-7.1,0.2c-0.3-0.2-0.4-1,0-1.3l1.9-0.2c2.9-0.3,3.2-1,3.2-6.4v-22.9c0-1.6,0-1.7-1.6-1.7h-2.8c-2.2,0-5,0.1-6.3,1.3
			c-1.2,1.1-1.8,2.3-2.3,3.5c-0.4,0.3-1.1,0.1-1.3-0.4c0.8-2.3,1.6-5.6,2-7.7c0.2-0.1,0.8-0.2,1,0c0.3,1.7,2,1.6,4.3,1.6h20.7
			c2.7,0,3.2-0.1,4-1.4c0.3-0.1,0.8-0.1,0.9,0.2c-0.6,2.1-0.9,6.3-0.8,7.8c-0.2,0.4-1.1,0.4-1.3,0.1c-0.2-1.3-0.5-3.2-1.3-3.7
			c-1.2-0.9-3.1-1.3-5.9-1.3H279c-1.6,0-1.5,0.1-1.5,1.8v22.9H277.6z"/>
		<path id="XMLID_70_" d="M317.8,370.2c3.7-2.9,8.5-4.3,13.8-4.3c2.7,0,6.7,0.6,9.1,1.2c0.6,0.2,1,0.3,1.4,0.2
			c0.1,1.2,0.3,4.4,0.7,7.6c-0.3,0.4-1,0.4-1.4,0.1c-0.8-3.5-3.1-7.5-10.5-7.5c-7.8,0-14.5,5-14.5,15.6c0,10.8,6.8,16.7,15.2,16.7
			c6.6,0,9.5-4.3,10.7-7.3c0.4-0.3,1.1-0.2,1.3,0.2c-0.4,2.6-1.7,6.1-2.5,7c-0.6,0.1-1.2,0.3-1.8,0.5c-1.1,0.4-4.8,1.2-8.1,1.2
			c-4.6,0-9-0.9-12.8-3.4c-4.1-2.8-7.3-7.5-7.3-14.1C311.3,378.1,313.9,373.2,317.8,370.2z"/>
		<path id="XMLID_72_" d="M368.2,388.6c-0.4-1.1-0.6-1.3-2.1-1.3h-7.7c-1.3,0-1.6,0.2-2,1.2l-1.8,5.4c-0.8,2.3-1.1,3.7-1.1,4.2
			c0,0.6,0.3,0.9,1.5,1l1.7,0.2c0.4,0.3,0.4,1.1-0.1,1.3c-1.3-0.1-2.9-0.1-5.3-0.2c-1.7,0-3.5,0.1-4.9,0.2c-0.3-0.2-0.4-1-0.1-1.3
			l1.7-0.2c1.2-0.1,2.4-0.7,3.1-2.5c0.9-2.4,2.4-5.7,4.5-11.4l5.2-13.8c0.7-1.9,1-2.8,0.9-3.6c1.2-0.4,2.1-1.3,2.6-2
			c0.3,0,0.7,0.1,0.8,0.5c0.7,2.3,1.5,4.6,2.3,6.9l7,20.6c1.5,4.4,2.2,5.2,4.3,5.4l1.4,0.2c0.4,0.3,0.3,1.1,0,1.3
			c-2.1-0.1-3.9-0.2-6.2-0.2c-2.5,0-4.4,0.1-5.9,0.2c-0.4-0.2-0.5-1-0.1-1.3l1.5-0.2c1.1-0.1,1.8-0.4,1.8-0.9c0-0.6-0.3-1.5-0.7-2.7
			L368.2,388.6z M358,384.1c-0.4,1.2-0.4,1.2,1.1,1.2h6.3c1.5,0,1.6-0.2,1.1-1.6l-2.7-8.3c-0.4-1.2-0.9-2.6-1.2-3.2h-0.1
			c-0.2,0.3-0.7,1.5-1.2,3L358,384.1z"/>
		<path id="XMLID_75_" d="M416.3,391.8c0,1.6,0,7.7,0.2,8.9c-0.1,0.3-0.4,0.6-1,0.6c-0.6-0.9-2.1-2.6-6.6-7.7L397,380.1
			c-1.4-1.6-4.9-5.8-5.9-6.9H391c-0.2,0.6-0.3,1.8-0.3,3.3v11.2c0,2.4,0.1,9.1,0.9,10.6c0.3,0.6,1.3,0.9,2.6,1l1.6,0.2
			c0.3,0.4,0.3,1-0.1,1.3c-2.3-0.1-4.1-0.2-6-0.2c-2.2,0-3.5,0.1-5.3,0.2c-0.4-0.3-0.4-1-0.1-1.3l1.4-0.2c1.2-0.2,2-0.5,2.3-1
			c0.7-1.9,0.7-8.1,0.7-10.6v-14.8c0-1.4-0.1-2.5-1.1-3.7c-0.7-0.7-2-1.1-3.2-1.2l-0.9-0.1c-0.3-0.3-0.3-1.1,0.1-1.3
			c2.2,0.2,4.9,0.2,5.8,0.2c0.8,0,1.7-0.1,2.4-0.2c1,2.6,7.1,9.4,8.7,11.3l5,5.6c3.5,3.9,6.1,6.8,8.4,9.3h0.1
			c0.2-0.3,0.2-1.1,0.2-2.2v-11c0-2.4-0.1-9.1-1-10.6c-0.3-0.5-1.1-0.8-3.2-1l-0.9-0.1c-0.4-0.3-0.3-1.1,0.1-1.3
			c2.4,0.1,4.1,0.2,6.1,0.2c2.2,0,3.5-0.1,5.3-0.2c0.4,0.3,0.4,1,0.1,1.3l-0.7,0.1c-1.7,0.3-2.6,0.7-2.8,1.1
			c-0.9,1.9-0.8,8.2-0.8,10.6V391.8z"/>
		<path id="XMLID_77_" d="M430.9,370.2c3.7-2.9,8.5-4.3,13.8-4.3c2.7,0,6.7,0.6,9.1,1.2c0.6,0.2,1,0.3,1.4,0.2
			c0.1,1.2,0.3,4.4,0.7,7.6c-0.3,0.4-1,0.4-1.4,0.1c-0.8-3.5-3.1-7.5-10.5-7.5c-7.8,0-14.5,5-14.5,15.6c0,10.8,6.8,16.7,15.2,16.7
			c6.6,0,9.5-4.3,10.7-7.3c0.4-0.3,1.1-0.2,1.3,0.2c-0.4,2.6-1.7,6.1-2.5,7c-0.6,0.1-1.2,0.3-1.8,0.5c-1.1,0.4-4.8,1.2-8.1,1.2
			c-4.6,0-9-0.9-12.8-3.4c-4.1-2.8-7.3-7.5-7.3-14.1C424.4,378.1,427,373.2,430.9,370.2z"/>
		<path id="XMLID_79_" d="M465.4,374.4c0-5.3-0.1-6.1-3.1-6.5l-0.8-0.1c-0.3-0.2-0.2-1.1,0.1-1.3c2.2,0.1,3.9,0.2,6.1,0.2h9.6
			c3.3,0,6.3,0,6.9-0.2c0.3,0.9,0.6,4.6,0.8,6.8c-0.2,0.3-1,0.4-1.3,0.1c-0.8-2.4-1.2-4.2-3.9-4.9c-1.1-0.3-2.7-0.3-5-0.3h-3.7
			c-1.6,0-1.6,0.1-1.6,2.1v10.2c0,1.4,0.2,1.4,1.7,1.4h2.9c2.2,0,3.7-0.1,4.3-0.3c0.6-0.2,1-0.5,1.2-1.8l0.4-2.1
			c0.3-0.3,1.1-0.3,1.3,0.1c0,1.2-0.2,3.2-0.2,5.2c0,1.9,0.2,3.8,0.2,4.9c-0.2,0.4-1.1,0.4-1.3,0.1l-0.5-2c-0.2-0.9-0.6-1.7-1.6-2
			c-0.7-0.2-2-0.3-3.9-0.3h-2.9c-1.6,0-1.7,0.1-1.7,1.4v7.2c0,2.7,0.2,4.4,1,5.3c0.6,0.6,1.7,1.2,6.2,1.2c3.9,0,5.4-0.2,6.6-0.8
			c0.9-0.5,2.3-2.3,3.6-5c0.4-0.3,1.1-0.1,1.3,0.4c-0.4,1.8-1.7,5.7-2.3,7.1c-4.6-0.1-9.2-0.2-13.7-0.2h-4.6c-2.2,0-3.9,0.1-7,0.2
			c-0.3-0.2-0.4-1-0.1-1.3l1.7-0.2c2.9-0.3,3.2-1,3.2-6.4L465.4,374.4L465.4,374.4z"/>
		<path id="XMLID_81_" d="M496.5,374.4c0-4.9-0.2-5.7-2.3-6l-1.7-0.2c-0.4-0.3-0.4-1.1,0.1-1.3c2.8-0.3,6.4-0.4,11.4-0.4
			c3.2,0,6.2,0.3,8.5,1.6c2.5,1.3,4.2,3.6,4.2,7.2c0,4.9-3.8,7.6-6.4,8.5c-0.3,0.3,0,0.8,0.3,1.2c4.1,6.6,6.8,10.7,10.3,13.6
			c0.9,0.8,2.2,1.3,3.5,1.4c0.3,0.1,0.3,0.5,0.1,0.7c-0.5,0.2-1.3,0.3-2.3,0.3c-4.3,0-7-1.3-10.6-6.5c-1.3-1.9-3.4-5.4-5-7.7
			c-0.8-1.1-1.6-1.7-3.6-1.7c-2.3,0-2.4,0.1-2.4,1.1v6.5c0,5.4,0.1,6,3.1,6.4l1.1,0.2c0.3,0.3,0.2,1.1-0.1,1.3
			c-2.3-0.1-4-0.2-6.1-0.2c-2.2,0-4,0.1-6.4,0.2c-0.3-0.2-0.4-0.9-0.1-1.3l1.3-0.2c2.9-0.4,3.1-1,3.1-6.4v-18.4H496.5z M500.8,381.8
			c0,0.9,0,1.5,0.2,1.7c0.2,0.2,0.9,0.3,3.5,0.3c1.9,0,3.8-0.2,5.3-1.3c1.4-1.1,2.5-2.8,2.5-6.4c0-4-2.5-7.9-8.2-7.9
			c-3.2,0-3.3,0.2-3.3,1.7V381.8z"/>
	</g>
	<g id="XMLID_8_">
		<path id="XMLID_10_" fill="#FFFFFF" d="M150,430.2c0,1.6-0.4,2.9-1.2,3.9c-0.8,1-1.9,1.6-3.2,2l4.1,8.1h-3.5l-3.9-7.9h-4.5v7.9
			h-2.9v-19.9h8.7c0.9,0,1.7,0.1,2.5,0.4c0.8,0.3,1.4,0.6,2,1.1c0.6,0.5,1,1.1,1.4,1.9C149.8,428.4,150,429.3,150,430.2z
			 M146.9,430.3c0-1-0.3-1.9-0.9-2.4c-0.6-0.6-1.4-0.8-2.4-0.8h-5.8v6.4h5.8c1,0,1.8-0.3,2.4-0.8
			C146.6,432.3,146.9,431.4,146.9,430.3z"/>
		<path id="XMLID_13_" fill="#FFFFFF" d="M169.5,436.4c0,0.3,0,0.5-0.1,0.8c0,0.3-0.1,0.4-0.1,0.6h-9.9c0.1,0.7,0.2,1.3,0.5,1.9
			c0.2,0.5,0.5,0.9,0.8,1.2c0.4,0.3,0.7,0.6,1.1,0.7c0.4,0.2,0.9,0.3,1.3,0.3c0.6,0,1.2-0.1,1.7-0.3c0.5-0.2,1-0.5,1.5-0.9l1.8,1.9
			c-0.7,0.6-1.4,1.1-2.2,1.4c-0.8,0.4-1.8,0.5-2.9,0.5c-0.9,0-1.7-0.2-2.5-0.5c-0.8-0.4-1.5-0.8-2.1-1.5s-1-1.5-1.4-2.4
			c-0.4-0.9-0.5-2.1-0.5-3.3c0-1.3,0.2-2.4,0.5-3.4c0.3-1,0.8-1.8,1.3-2.4c0.6-0.7,1.2-1.1,2.1-1.5c0.8-0.4,1.7-0.5,2.6-0.5
			c1.1,0,2,0.2,2.8,0.6c0.8,0.4,1.4,0.9,2,1.6c0.5,0.7,0.9,1.5,1.2,2.4C169.4,434.5,169.5,435.5,169.5,436.4z M166.3,433.9
			c-0.2-0.5-0.4-0.8-0.6-1.2c-0.3-0.4-0.6-0.6-1.1-0.8c-0.4-0.2-0.9-0.3-1.6-0.3c-1,0-1.8,0.3-2.3,1c-0.6,0.7-0.9,1.6-1.1,2.8h6.9
			C166.5,434.9,166.4,434.4,166.3,433.9z"/>
		<path id="XMLID_16_" fill="#FFFFFF" d="M187.1,440.1c0,0.8-0.2,1.6-0.5,2.1c-0.3,0.6-0.7,1-1.2,1.3c-0.5,0.4-1.1,0.6-1.8,0.7
			c-0.7,0.2-1.4,0.2-2.1,0.2c-1,0-2.1-0.2-3.1-0.5c-1-0.4-1.9-0.8-2.6-1.3l1.3-2.2c0.7,0.5,1.4,0.9,2.2,1.1c0.7,0.3,1.5,0.4,2.2,0.4
			c1.8,0,2.7-0.6,2.7-1.7c0-0.6-0.3-1-0.9-1.3c-0.6-0.4-1.4-0.7-2.5-1.1c-0.8-0.3-1.5-0.6-2-0.9c-0.6-0.3-1-0.7-1.3-1
			c-0.4-0.4-0.6-0.8-0.8-1.2c-0.2-0.5-0.2-1-0.2-1.6c0-0.7,0.1-1.2,0.4-1.8c0.3-0.5,0.6-0.9,1-1.3c0.5-0.4,1-0.6,1.6-0.8
			c0.6-0.2,1.3-0.3,2.1-0.3c0.9,0,1.9,0.2,2.7,0.5s1.7,0.7,2.3,1.2l-1.3,2.2c-0.6-0.4-1.2-0.8-1.9-1c-0.6-0.2-1.3-0.3-2-0.3
			s-1.2,0.1-1.6,0.4c-0.3,0.3-0.5,0.6-0.5,1c0,0.2,0.1,0.4,0.1,0.5c0.1,0.2,0.2,0.3,0.4,0.5c0.2,0.2,0.5,0.4,0.8,0.5
			c0.4,0.2,0.8,0.4,1.4,0.6c0.8,0.3,1.6,0.6,2.2,0.9s1.1,0.6,1.6,1c0.5,0.4,0.7,0.8,0.9,1.3C187,438.8,187.1,439.4,187.1,440.1z"/>
		<path id="XMLID_18_" fill="#FFFFFF" d="M206.6,436.4c0,0.3,0,0.5-0.1,0.8c0,0.3-0.1,0.4-0.1,0.6h-9.9c0.1,0.7,0.2,1.3,0.5,1.9
			c0.2,0.5,0.5,0.9,0.8,1.2c0.4,0.3,0.7,0.6,1.1,0.7c0.4,0.2,0.9,0.3,1.3,0.3c0.6,0,1.2-0.1,1.7-0.3c0.5-0.2,1-0.5,1.5-0.9l1.8,1.9
			c-0.7,0.6-1.4,1.1-2.2,1.4c-0.8,0.4-1.8,0.5-2.9,0.5c-0.9,0-1.7-0.2-2.5-0.5c-0.8-0.4-1.5-0.8-2.1-1.5s-1-1.5-1.4-2.4
			c-0.4-0.9-0.5-2.1-0.5-3.3c0-1.3,0.2-2.4,0.5-3.4c0.3-1,0.8-1.8,1.3-2.4c0.6-0.7,1.2-1.1,2.1-1.5c0.8-0.4,1.7-0.5,2.6-0.5
			c1.1,0,2,0.2,2.8,0.6c0.8,0.4,1.4,0.9,2,1.6c0.5,0.7,0.9,1.5,1.2,2.4C206.5,434.5,206.6,435.5,206.6,436.4z M203.4,433.9
			c-0.2-0.5-0.4-0.8-0.6-1.2c-0.3-0.4-0.6-0.6-1.1-0.8c-0.4-0.2-0.9-0.3-1.6-0.3c-1,0-1.8,0.3-2.3,1c-0.6,0.7-0.9,1.6-1.1,2.8h6.9
			C203.6,434.9,203.6,434.4,203.4,433.9z"/>
		<path id="XMLID_21_" fill="#FFFFFF" d="M222.6,444.3v-1.5c-0.5,0.5-1.1,0.9-1.8,1.3c-0.7,0.4-1.4,0.5-2.3,0.5
			c-0.6,0-1.2-0.1-1.8-0.3c-0.6-0.2-1.2-0.5-1.7-0.9c-0.5-0.4-0.9-0.9-1.2-1.6c-0.3-0.6-0.5-1.4-0.5-2.3c0-0.8,0.2-1.6,0.5-2.2
			s0.7-1.1,1.2-1.5c0.5-0.4,1.1-0.7,1.9-0.9c0.7-0.2,1.5-0.3,2.4-0.3c1.3,0,2.5,0.2,3.3,0.6v-1.1c0-0.8-0.3-1.4-0.7-1.9
			s-1.2-0.7-2.1-0.7c-0.8,0-1.5,0.1-2.1,0.2c-0.6,0.2-1.2,0.4-1.8,0.7l-1.1-2.2c0.7-0.4,1.5-0.8,2.3-1c0.8-0.2,1.8-0.4,2.8-0.4
			c1.7,0,3,0.4,4,1.2c1,0.8,1.6,2.1,1.6,3.8v10.2H222.6z M222.6,437.8c-0.4-0.2-0.9-0.4-1.4-0.5s-1.2-0.2-2-0.2
			c-0.9,0-1.7,0.2-2.2,0.6c-0.6,0.4-0.8,0.9-0.8,1.6c0,0.7,0.3,1.3,0.7,1.8c0.5,0.5,1.2,0.7,2.2,0.7c0.8,0,1.5-0.2,2.2-0.6
			c0.6-0.4,1.1-0.8,1.4-1.3L222.6,437.8L222.6,437.8z"/>
		<path id="XMLID_24_" fill="#FFFFFF" d="M241.6,432.4c-0.3-0.2-0.7-0.3-1-0.4c-0.4-0.1-0.8-0.2-1.2-0.2c-0.9,0-1.7,0.3-2.2,1
			c-0.5,0.6-0.8,1.6-0.8,2.9v8.5h-2.9v-14.9h2.9v1.4c0.4-0.5,0.8-0.9,1.4-1.2c0.6-0.3,1.2-0.5,2-0.5c0.6,0,1.1,0.1,1.5,0.2
			s0.7,0.3,1,0.5L241.6,432.4z"/>
		<path id="XMLID_26_" fill="#FFFFFF" d="M258.2,433.6c-0.6-0.6-1.2-1.1-1.8-1.4c-0.6-0.3-1.2-0.5-1.9-0.5c-1.1,0-1.9,0.5-2.6,1.3
			c-0.7,0.9-0.9,2.1-0.9,3.6c0,0.7,0.1,1.4,0.2,2s0.4,1.1,0.7,1.6c0.3,0.5,0.7,0.8,1.1,1c0.5,0.3,1,0.4,1.6,0.4
			c0.7,0,1.3-0.2,1.8-0.5c0.5-0.3,1-0.8,1.6-1.4l1.9,1.9c-0.3,0.4-0.6,0.7-0.9,1.1c-0.4,0.3-0.7,0.6-1.1,0.9
			c-0.4,0.3-0.9,0.5-1.4,0.6c-0.5,0.2-1.1,0.2-1.8,0.2c-0.9,0-1.8-0.2-2.5-0.6c-0.8-0.4-1.4-0.9-2.1-1.6c-0.6-0.7-1-1.5-1.3-2.4
			c-0.3-0.9-0.5-2-0.5-3.2c0-1.2,0.2-2.3,0.5-3.3s0.8-1.8,1.4-2.5c0.6-0.7,1.3-1.2,2.1-1.6c0.8-0.4,1.7-0.5,2.6-0.5
			c1.1,0,2.1,0.2,2.9,0.6s1.7,1,2.3,1.9L258.2,433.6z"/>
		<path id="XMLID_28_" fill="#FFFFFF" d="M276.1,444.3v-8.4c0-1.5-0.3-2.6-0.8-3.2c-0.5-0.6-1.3-0.9-2.2-0.9c-1,0-1.7,0.3-2.3,1
			c-0.6,0.7-0.8,1.6-0.8,2.8v8.7H267v-20.7h2.9l-0.1,7.2c0.4-0.6,0.9-1,1.6-1.3c0.7-0.3,1.4-0.5,2.2-0.5c1.8,0,3.1,0.6,4,1.7
			c0.9,1.1,1.3,2.8,1.3,5v8.6L276.1,444.3L276.1,444.3z"/>
		<path id="XMLID_30_" fill="#FFFFFF" d="M302.8,427.2v5.2h5.7v2.9h-5.7v8.8h-2.9v-19.9h12.8v2.9L302.8,427.2L302.8,427.2z"/>
		<path id="XMLID_32_" fill="#FFFFFF" d="M330.5,436.7c0,1.2-0.2,2.3-0.5,3.3c-0.4,1-0.8,1.8-1.4,2.5c-0.6,0.7-1.3,1.2-2.1,1.6
			c-0.8,0.4-1.7,0.5-2.7,0.5c-0.9,0-1.8-0.2-2.6-0.6c-0.8-0.4-1.5-0.9-2.1-1.6c-0.6-0.7-1-1.5-1.4-2.4c-0.3-0.9-0.5-2-0.5-3.2
			c0-1.2,0.2-2.3,0.5-3.3c0.4-0.9,0.8-1.8,1.4-2.5c0.6-0.7,1.3-1.2,2.1-1.6c0.8-0.4,1.7-0.5,2.6-0.5s1.8,0.2,2.6,0.6
			c0.8,0.4,1.5,0.9,2.1,1.6c0.6,0.7,1.1,1.5,1.4,2.4C330.3,434.5,330.5,435.5,330.5,436.7z M327.5,436.8c0-1.6-0.4-2.7-1-3.7
			c-0.7-0.9-1.6-1.3-2.8-1.3c-1.1,0-2,0.5-2.6,1.3s-0.9,2.1-0.9,3.6c0,1.7,0.4,2.9,1,3.8c0.7,0.9,1.6,1.3,2.7,1.3
			c0.6,0,1-0.2,1.5-0.4c0.5-0.3,0.8-0.6,1.2-1.1c0.3-0.5,0.6-1,0.7-1.6C327.4,438.1,327.5,437.5,327.5,436.8z"/>
		<path id="XMLID_35_" fill="#FFFFFF" d="M346.8,444.2l0.1-1.4c-0.4,0.6-0.9,1-1.6,1.3c-0.7,0.3-1.4,0.5-2.2,0.5
			c-1.8,0-3.1-0.6-4-1.7c-0.9-1.1-1.3-2.8-1.3-5v-8.5h2.9v8.4c0,1.5,0.3,2.6,0.8,3.2c0.5,0.6,1.3,0.9,2.2,0.9c1,0,1.7-0.3,2.3-1
			c0.6-0.7,0.8-1.6,0.8-2.8v-8.7h2.9v14.9H346.8z"/>
		<path id="XMLID_37_" fill="#FFFFFF" d="M367,444.3v-8.4c0-1.5-0.3-2.6-0.8-3.2c-0.5-0.6-1.3-0.9-2.2-0.9c-1,0-1.7,0.3-2.3,1
			c-0.6,0.7-0.8,1.6-0.8,2.8v8.7h-2.9v-14.9h2.9l-0.1,1.4c0.4-0.6,0.9-1,1.6-1.3c0.7-0.3,1.4-0.5,2.2-0.5c1.8,0,3.1,0.6,4,1.7
			c0.9,1.1,1.3,2.8,1.3,5v8.6L367,444.3L367,444.3z"/>
		<path id="XMLID_39_" fill="#FFFFFF" d="M387,444.2v-1.4c-0.6,0.5-1.1,0.9-1.8,1.2c-0.6,0.3-1.3,0.5-2.1,0.5s-1.6-0.2-2.2-0.5
			c-0.7-0.3-1.3-0.8-1.8-1.4c-0.5-0.6-0.9-1.5-1.2-2.5c-0.3-1-0.5-2.2-0.5-3.7c0-1.3,0.2-2.4,0.5-3.3c0.3-0.9,0.8-1.8,1.3-2.4
			s1.2-1.1,1.9-1.4c0.7-0.3,1.4-0.5,2.2-0.5c0.8,0,1.4,0.2,2.1,0.5c0.7,0.4,1.2,0.7,1.6,1.2v-7.2h2.9v20.7L387,444.2L387,444.2z
			 M387,433.7c-0.2-0.2-0.4-0.5-0.6-0.7c-0.3-0.2-0.5-0.4-0.8-0.6s-0.6-0.4-1-0.5c-0.4-0.1-0.7-0.2-1.1-0.2c-1,0-1.9,0.4-2.4,1.2
			c-0.6,0.8-0.8,2-0.8,3.6c0,1.9,0.3,3.3,0.9,4.1c0.6,0.8,1.4,1.3,2.5,1.3c0.7,0,1.3-0.2,1.9-0.6c0.6-0.4,1.1-0.8,1.4-1.3L387,433.7
			L387,433.7z"/>
		<path id="XMLID_42_" fill="#FFFFFF" d="M406.5,444.3v-1.5c-0.5,0.5-1.1,0.9-1.8,1.3c-0.7,0.4-1.4,0.5-2.3,0.5
			c-0.6,0-1.2-0.1-1.8-0.3c-0.6-0.2-1.2-0.5-1.7-0.9c-0.5-0.4-0.9-0.9-1.2-1.6s-0.5-1.4-0.5-2.3c0-0.8,0.2-1.6,0.5-2.2
			c0.3-0.6,0.7-1.1,1.2-1.5c0.5-0.4,1.1-0.7,1.9-0.9c0.7-0.2,1.5-0.3,2.4-0.3c1.3,0,2.5,0.2,3.3,0.6v-1.1c0-0.8-0.3-1.4-0.7-1.9
			c-0.5-0.4-1.2-0.7-2.1-0.7c-0.8,0-1.5,0.1-2.1,0.2c-0.6,0.2-1.2,0.4-1.8,0.7l-1.1-2.2c0.7-0.4,1.5-0.8,2.3-1s1.8-0.4,2.8-0.4
			c1.7,0,3,0.4,4,1.2c1,0.8,1.6,2.1,1.6,3.8v10.2H406.5z M406.5,437.8c-0.4-0.2-0.9-0.4-1.4-0.5s-1.2-0.2-2-0.2
			c-0.9,0-1.7,0.2-2.2,0.6c-0.6,0.4-0.8,0.9-0.8,1.6c0,0.7,0.3,1.3,0.7,1.8c0.5,0.5,1.2,0.7,2.2,0.7c0.8,0,1.5-0.2,2.2-0.6
			c0.6-0.4,1.1-0.8,1.4-1.3L406.5,437.8L406.5,437.8z"/>
		<path id="XMLID_45_" fill="#FFFFFF" d="M424.4,443.8c-0.4,0.2-0.8,0.4-1.2,0.5c-0.5,0.2-1,0.2-1.6,0.2c-1,0-1.9-0.3-2.5-1
			c-0.6-0.6-0.9-1.7-0.9-3v-8.6h-2.1v-2.6h2.1v-5.7l2.9-0.1v5.8h3.7v2.7h-3.7v8.1c0,0.7,0.1,1.2,0.4,1.4c0.3,0.3,0.6,0.4,1.2,0.4
			c0.4,0,0.8-0.1,1.2-0.2c0.4-0.1,0.7-0.3,1-0.4L424.4,443.8z"/>
		<path id="XMLID_47_" fill="#FFFFFF" d="M432.1,444.3v-14.9h2.9v14.9H432.1z"/>
		<path id="XMLID_50_" fill="#FFFFFF" d="M455.8,436.7c0,1.2-0.2,2.3-0.5,3.3c-0.4,1-0.8,1.8-1.4,2.5c-0.6,0.7-1.3,1.2-2.1,1.6
			c-0.8,0.4-1.7,0.5-2.7,0.5c-0.9,0-1.8-0.2-2.6-0.6c-0.8-0.4-1.5-0.9-2.1-1.6c-0.6-0.7-1-1.5-1.4-2.4c-0.3-0.9-0.5-2-0.5-3.2
			c0-1.2,0.2-2.3,0.5-3.3c0.4-0.9,0.8-1.8,1.4-2.5c0.6-0.7,1.3-1.2,2.1-1.6c0.8-0.4,1.7-0.5,2.6-0.5s1.8,0.2,2.6,0.6
			c0.8,0.4,1.5,0.9,2.1,1.6c0.6,0.7,1.1,1.5,1.4,2.4C455.6,434.5,455.8,435.5,455.8,436.7z M452.8,436.8c0-1.6-0.4-2.7-1-3.7
			c-0.7-0.9-1.6-1.3-2.8-1.3c-1.1,0-2,0.5-2.6,1.3c-0.6,0.9-0.9,2.1-0.9,3.6c0,1.7,0.4,2.9,1,3.8c0.7,0.9,1.6,1.3,2.7,1.3
			c0.6,0,1-0.2,1.5-0.4c0.5-0.3,0.8-0.6,1.2-1.1c0.3-0.5,0.6-1,0.7-1.6C452.7,438.1,452.8,437.5,452.8,436.8z"/>
		<path id="XMLID_53_" fill="#FFFFFF" d="M472.2,444.3v-8.4c0-1.5-0.3-2.6-0.8-3.2c-0.5-0.6-1.3-0.9-2.2-0.9c-1,0-1.7,0.3-2.3,1
			c-0.6,0.7-0.8,1.6-0.8,2.8v8.7h-2.9v-14.9h2.9l-0.1,1.4c0.4-0.6,0.9-1,1.6-1.3c0.7-0.3,1.4-0.5,2.2-0.5c1.8,0,3.1,0.6,4,1.7
			c0.9,1.1,1.3,2.8,1.3,5v8.6L472.2,444.3L472.2,444.3z"/>
	</g>
	<rect id="XMLID_5_" x="432.1" y="424.9" fill="#FFFFFF" width="2.9" height="3"/>
</g>
</svg>
