<?xml version="1.0" encoding="utf-8"?>
<!-- Generator: Adobe Illustrator 19.2.1, SVG Export Plug-In . SVG Version: 6.00 Build 0)  -->
<svg version="1.1" xmlns="http://www.w3.org/2000/svg" xmlns:xlink="http://www.w3.org/1999/xlink" x="0px" y="0px"
	 viewBox="0 0 308.88 122.53" style="enable-background:new 0 0 308.88 122.53;" xml:space="preserve">
<style type="text/css">
	.st0{fill:none;}
	.st1{fill:#FFFFFF;}
	.st2{fill:#C6006F;}
	.st3{fill:#DE8CAB;}
</style>
<g id="isolation_area_.25_x22_">
	<rect x="90.983" y="59.483" class="st0" width="127.078" height="71.953"/>
</g>
<g id="Layer_1">
	<g>
		<g>
			<path d="M141.507,61.555c0,0.841-0.063,1.741-0.252,2.695l-3.046,19.294h6.866l3.055-19.113c0.238-1.668,0.348-3.171,0.348-4.601
				c0-4.546-3.085-6.663-7.988-7.351c-3.74-0.526-8.708,0.572-13.158,2.294l-3.123,1.407l-4.335,27.364h6.873l3.931-25.417
				c2.572-0.955,4.549-1.275,6.635-1.226C140.672,56.984,141.507,59.109,141.507,61.555"/>
			<path d="M46.729,78.024c-2.589,0.971-4.583,1.29-6.689,1.244c-3.394-0.083-4.23-2.222-4.23-4.703
				c0-0.845,0.063-1.749,0.249-2.707l3.075-19.479h-6.938l-3.068,19.306c-0.25,1.673-0.371,3.179-0.371,4.639
				c0,4.576,3.121,6.715,8.081,7.413c3.763,0.532,8.795-0.575,13.265-2.325l3.167-1.407l4.375-27.626h-6.939L46.729,78.024z"/>
			<path d="M23.017,57.529c-2.837-0.793-5.002-1.152-7.225-1.152c-3.801,0-5.545,1.21-5.545,3.868c0,1.44,0.6,2.225,2.773,3.728
				l3.429,2.356c3.367,2.283,4.696,4.515,4.696,7.704c0,6.269-4.458,9.884-12.054,9.884c-2.399,0-4.332-0.419-9.089-1.926l0.6-3.861
				c3.129,0.911,5.715,1.33,8.138,1.33c3.853,0,5.78-1.45,5.78-4.277c0-1.573-0.722-2.591-2.473-3.798l-3.371-2.287
				c-3.494-2.356-4.889-4.52-4.889-7.838c0-5.842,4.16-9.222,11.339-9.222c2.411,0,4.217,0.364,8.49,1.631L23.017,57.529z"/>
			<path d="M82.478,57.529c-2.829-0.793-5.002-1.152-7.225-1.152c-3.793,0-5.537,1.21-5.537,3.868c0,1.44,0.593,2.225,2.773,3.728
				l3.429,2.356c3.374,2.283,4.696,4.515,4.696,7.704c0,6.269-4.458,9.884-12.054,9.884c-2.401,0-4.332-0.419-9.089-1.926
				l0.601-3.861c3.129,0.911,5.723,1.33,8.146,1.33c3.836,0,5.778-1.45,5.778-4.277c0-1.573-0.72-2.591-2.473-3.798l-3.377-2.287
				c-3.5-2.356-4.889-4.52-4.889-7.838c0-5.842,4.16-9.222,11.332-9.222c2.418,0,4.217,0.364,8.504,1.631L82.478,57.529z"/>
			<path d="M104.723,56.68c-6.922,0-11.033,5.489-11.033,14.706c0,4.689,1.816,7.117,5.304,7.117c1.57,0,3.492-0.429,5.424-1.277
				l3.084-19.562C106.937,57.08,105.447,56.68,104.723,56.68 M110.269,83.375h-6.745l0.416-2.651
				c-0.367,0.18-0.608,0.363-0.78,0.419c-3.615,2.049-5.359,2.717-7.354,2.717c-5.72,0-9.226-4.583-9.226-12.112
				c0-11.445,6.933-19.635,16.58-19.635c6.242,0,11.382,4.044,11.382,4.044L110.269,83.375z"/>
			<path d="M179.46,51.869c-11.131,0-17.763,7.144-17.763,19.101c0,8.101,4.377,12.564,12.328,12.564
				c2.295,0,5.338-0.502,9.033-1.493l0.395-0.1l0.066-0.406l1.962-12.518l0.127-0.729h-0.735h-4.669h-0.546l-0.079,0.528
				l-1.517,9.696c-0.842,0.143-1.793,0.233-2.641,0.233c-5.311,0-7.38-2.179-7.38-7.775c0-9.199,4.214-14.273,11.869-14.273
				c2.175,0,4.427,0.278,6.346,0.78l0.685,0.178l0.11-0.69l0.459-2.94l0.086-0.537l-0.528-0.16
				C183.52,52.198,181.807,51.869,179.46,51.869"/>
			<path d="M192.3,76.308c-2.441,0-3.948,1.577-3.948,4.114c0,1.45,0.575,3.193,3.366,3.193c2.428,0,3.938-1.576,3.938-4.104
				C195.656,78.05,195.074,76.308,192.3,76.308"/>
			<path d="M90.325,113.449c-1.435,3.342-3.469,4.898-6.395,4.898c-4.004,0-5.918-2.571-5.918-7.839
				c0-3.515,0.771-7.709,2.034-10.632c1.312-3.229,3.527-4.902,6.455-4.902c3.944,0,5.852,2.501,5.852,7.766
				C92.352,106.392,91.582,110.459,90.325,113.449 M86.743,90.788c-9.501,0-15.785,7.347-15.785,18.408
				c0,8.314,4.782,13.336,12.734,13.336c9.446,0,15.722-7.42,15.722-18.59C99.414,95.866,94.507,90.788,86.743,90.788"/>
			<path d="M171.511,95.015c2.385,0,3.698,1.204,3.698,3.409c0,4.128-3.698,6.216-11.114,6.216h-0.901
				C163.972,98.603,167.018,95.015,171.511,95.015 M167.986,122.515c2.634,0,5.139-0.479,9.432-1.912l0.605-3.642
				c-2.565,0.595-5.198,0.947-7.536,0.947c-5.258,0-7.772-2.624-7.772-8.135c0-0.838,0-0.648,0.066-1.3h2.325
				c11.424,0,16.805-3.306,16.805-10.286c0-4.606-3.289-7.237-9.086-7.237c-10.11,0-17.164,7.829-17.164,19.066
				C155.661,118.088,160.024,122.515,167.986,122.515"/>
			<path d="M207.405,100.03c0,0.851-0.066,1.749-0.252,2.7l-3.047,19.309h6.881l3.046-19.129c0.236-1.676,0.359-3.163,0.359-4.606
				c0-4.543-3.105-6.658-8.008-7.353c-3.732-0.525-8.714,0.565-13.156,2.294l-3.14,1.404l-4.33,27.39h6.878l3.938-25.435
				c2.57-0.955,4.549-1.277,6.631-1.23C206.577,95.46,207.405,97.589,207.405,100.03"/>
		</g>
		<polygon points="57.461,104.822 71.392,91.43 63.628,91.43 50.651,105.238 58.596,122.039 66.19,122.039 		"/>
		<path d="M44.919,90.747c-0.04,0.243-1.142,7.184-1.638,10.276c-1.076,6.788-1.986,12.515-2.034,12.837
			c-0.075,0.602-0.201,1.316-0.253,2.102l-0.956,6.073h6.874l3.043-19.13c0.101-0.691,0.178-1.356,0.233-2.008l1.613-10.15H44.919z"
			/>
		<path d="M138.626,95.374c3.37,0.083,4.193,2.221,4.193,4.656c0,0.854-0.06,1.749-0.246,2.697l-3.046,19.309h6.871l3.043-19.13
			c0.248-1.676,0.364-3.166,0.364-4.603c0-4.543-3.09-6.655-8.005-7.353c-3.136-0.439-7.912,0.316-11.913,2.025
			c-1.379-1.061-3.27-1.703-5.579-2.025c-3.726-0.525-8.706,0.562-13.156,2.294l-3.129,1.4l-4.337,27.391h6.876l3.939-25.429
			c2.576-0.961,4.553-1.287,6.64-1.233c2.27,0.053,3.377,1.051,3.864,2.431c0.228,0.668,0.324,1.434,0.324,2.225
			c0,0.854-0.063,1.749-0.241,2.697l-3.049,19.309h6.874l3.05-19.13c0.243-1.676,0.356-3.166,0.356-4.603
			c0-0.632-0.058-1.204-0.185-1.756C134.638,95.643,136.575,95.32,138.626,95.374"/>
		<path class="st1" d="M276.965,58.695c-0.479-3.41-0.243-7.44,0.858-11.593c2.671-10.023,9.282-16.962,14.803-15.491
			c2.401,0.63,4.217,2.758,5.255,5.763C295.699,45.297,288,52.99,276.965,58.695 M295.1,21.512c-0.26-0.128-0.525-0.258-0.788-0.374
			c-0.057-0.023-0.106-0.038-0.137-0.058c-0.412-0.178-0.805-0.391-1.217-0.572c-0.023-0.008-0.051-0.012-0.073-0.026
			c-1.085-0.453-2.262-0.8-3.499-1.013c-0.326-0.053-0.642-0.093-0.968-0.126l-0.097-0.008c0.007,0,0.03,0.008,0.03,0.008
			c-1.49-0.136-2.923-0.105-4.28,0.149c-1.351,0.228-2.627,0.596-3.921,1.086c-0.227,0.088-23.572,8.913-20.948,44.709
			c-1.886,0.47-3.831,0.891-5.804,1.247c-22.647,4.117-43.264-0.718-51.425-11.01c7.366,31.296,46.084,28.296,57.085,26.773
			l2.91-0.462c0,0,5.697,25.349-9.129,35.531l-0.073,0.05c-2.697,1.72-5.909,2.714-9.345,2.714c-0.771,0-1.517-0.05-2.245-0.136
			l-0.073-0.017c-0.798-0.123-1.609-0.28-2.435-0.503c32.932,10.875,40.607-15.421,40.607-15.421
			c1.32-3.409,2.179-7.539,2.198-12.551c0-6.06-1.453-13.313-1.453-13.313c12.568-6.139,18.531-14.994,21.068-20.108l0.106-0.228
			c0.057-0.096,0.12-0.213,0.176-0.312c0.061-0.136,0.14-0.268,0.193-0.399C308.789,42.984,305.895,27.03,295.1,21.512
			 M292.941,20.499c0,0,0.011,0.005,0.018,0.008h0.006L292.941,20.499z M292.988,20.519c-0.007-0.003-0.013-0.003-0.023-0.012
			l0.044,0.015L292.988,20.519z M299.217-0.002c-5.358,0-9.689,4.335-9.689,9.681c0,5.346,4.33,9.689,9.689,9.689
			c5.341,0,9.661-4.343,9.661-9.689C308.878,4.333,304.558-0.002,299.217-0.002"/>
		<path class="st2" d="M299.217-0.002c-5.358,0-9.689,4.335-9.689,9.681c0,5.346,4.33,9.689,9.689,9.689
			c5.341,0,9.661-4.343,9.661-9.689C308.878,4.333,304.558-0.002,299.217-0.002"/>
		<path class="st2" d="M277.823,47.101c2.664-10.023,9.292-16.962,14.81-15.491c2.407,0.63,4.217,2.758,5.244,5.763
			c0.352-1.227,0.559-2.461,0.632-3.693c0.061-1.227-0.013-2.449-0.235-3.681l-0.064-0.24c-0.828-3.5-2.674-6.473-5.494-8.449
			c-1.32-0.935-2.79-1.583-4.363-1.974c-1.49-0.135-2.927-0.1-4.28,0.154c-1.353,0.228-2.627,0.596-3.918,1.086
			c-0.232,0.085-23.578,8.913-20.951,44.712c6.518-1.623,12.517-3.889,17.768-6.59C276.486,55.281,276.729,51.255,277.823,47.101"/>
		<path class="st3" d="M295.1,21.512c-0.26-0.128-0.525-0.254-0.788-0.378c-0.057-0.017-0.106-0.032-0.137-0.052
			c-0.423-0.181-0.811-0.4-1.234-0.587l0.067,0.027l-0.02-0.007c-0.023-0.02-0.06-0.02-0.103-0.04
			c-1.085-0.451-2.262-0.795-3.499-1.008c-0.326-0.053-0.642-0.093-0.968-0.131l-0.097-0.008c0.017,0,0.03,0.008,0.03,0.008
			c1.566,0.391,3.033,1.039,4.356,1.974c2.827,1.971,4.676,4.949,5.504,8.449l0.061,0.245c0.212,1.227,0.296,2.453,0.235,3.676
			c-0.073,1.233-0.279,2.466-0.628,3.693c-2.182,7.923-9.874,15.612-20.909,21.326c-5.251,2.701-11.247,4.964-17.768,6.587
			c-1.886,0.476-3.831,0.888-5.804,1.247c-22.647,4.117-43.264-0.722-51.418-11.006c7.359,31.293,46.077,28.293,57.078,26.763
			l2.91-0.459c0,0,5.697,25.348-9.129,35.541l-0.073,0.04c-2.697,1.723-5.909,2.724-9.345,2.724c-0.771,0-1.52-0.057-2.245-0.137
			l-0.073-0.017c-0.798-0.123-1.609-0.282-2.435-0.502c32.932,10.875,40.607-15.428,40.607-15.428
			c1.327-3.409,2.179-7.533,2.198-12.548c0-6.066-1.453-13.319-1.453-13.319c12.568-6.136,18.531-14.994,21.068-20.108l0.113-0.221
			c0.057-0.105,0.113-0.216,0.169-0.316c0.073-0.14,0.14-0.271,0.207-0.399C308.789,42.984,305.895,27.033,295.1,21.512"/>
		<g>
			<path d="M221.556,114.4c1.988,0,3.731,0.628,3.731,3.678c0,3.023-1.743,3.678-3.731,3.678c-1.989,0-3.731-0.654-3.731-3.678
				C217.825,115.028,219.567,114.4,221.556,114.4z M221.556,115.274c-1.606,0-2.78,0.406-2.78,2.804s1.174,2.807,2.78,2.807
				c1.606,0,2.78-0.409,2.78-2.807S223.163,115.274,221.556,115.274z M221.639,118.65l0.788,1.39h0.981l-0.872-1.553
				c0.409-0.193,0.572-0.599,0.572-1.117c0-0.735-0.356-1.254-1.363-1.254h-1.743v3.924h0.872v-1.39H221.639z M222.181,117.37
				c0,0.246-0.054,0.436-0.489,0.436h-0.817v-0.871h0.817C222.128,116.934,222.181,117.124,222.181,117.37z"/>
		</g>
	</g>
</g>
</svg>
