<?xml version="1.0" encoding="utf-8"?>
<!-- Generator: Adobe Illustrator 19.2.0, SVG Export Plug-In . SVG Version: 6.00 Build 0)  -->
<svg version="1.1" id="Layer_1" xmlns="http://www.w3.org/2000/svg" xmlns:xlink="http://www.w3.org/1999/xlink" x="0px" y="0px"
	 viewBox="0 0 330.1 91.7" style="enable-background:new 0 0 330.1 91.7;" xml:space="preserve">
<style type="text/css">
	.st0{fill:#42A240;}
	.st1{fill:#008C9A;}
	.st2{fill:#73C169;}
	.st3{fill:#6ABF67;}
	.st4{fill:#D063A5;}
</style>
<path class="st0" d="M303.3,50.2h12.5v-0.5h-4.3v-14h3.9c0.4,0,1,0,1.6,0.1c0.6,0.1,1.2,0.3,1.7,0.6c0.6,0.3,1,0.9,1.5,1.6
	c0.4,0.7,0.7,1.7,0.8,3l0.3,3.5c0.1,1,0.2,1.8,0.4,2.6c0.2,0.7,0.5,1.4,0.9,1.9c0.4,0.5,1,0.9,1.6,1.1c0.7,0.3,1.5,0.4,2.6,0.4
	c0.5,0,1,0,1.4-0.1c0.4-0.1,0.7-0.1,1-0.3c0.3-0.1,0.5-0.2,0.6-0.3c0.2-0.1,0.3-0.2,0.4-0.3l-0.3-0.4c-0.3,0.3-0.6,0.5-1,0.6
	c-0.4,0.1-0.7,0.2-1,0.2c-0.8,0-1.3-0.3-1.6-0.8c-0.3-0.5-0.6-1.2-0.7-1.8c-0.1-0.4-0.2-1-0.2-1.6c0-0.6-0.1-1.3-0.1-2
	c0-0.7-0.1-1.4-0.2-2c-0.1-0.7-0.2-1.2-0.3-1.8c-0.3-0.9-0.7-1.6-1.3-2.2c-0.6-0.6-1.3-1-2-1.3s-1.5-0.6-2.2-0.7
	c-0.7-0.1-1.3-0.2-1.7-0.3v-0.1c1.5-0.2,2.7-0.5,3.6-1.1c0.9-0.5,1.6-1.1,2.1-1.7c0.5-0.6,0.8-1.3,0.9-1.9c0.1-0.6,0.2-1.1,0.2-1.5
	c0-0.8-0.2-1.6-0.6-2.5c-0.4-0.9-1-1.7-1.9-2.4c-1-0.8-2.1-1.3-3.3-1.5c-1.2-0.2-2.5-0.3-4-0.3c-0.3,0-0.6,0-0.9,0
	c-0.3,0-0.6,0-0.9,0c-0.3,0-0.6,0-0.9,0.1c-0.3,0-0.6,0-0.9,0h-7.4v0.5h4.3v26.5h-4.3V50.2L303.3,50.2z M311.5,23.1
	c0.3-0.1,0.7-0.1,1.2-0.1c0.5,0,1,0,1.4,0c0.7,0,1.4,0.1,2,0.2c0.7,0.1,1.3,0.4,1.9,0.8c0.6,0.4,1,1,1.4,1.8
	c0.3,0.8,0.5,1.9,0.5,3.2c0,1.2-0.1,2.2-0.3,2.9c-0.2,0.8-0.6,1.4-1,1.8c-0.4,0.5-0.9,0.8-1.5,1c-0.6,0.2-1.3,0.3-2,0.3h-3.6V23.1
	L311.5,23.1z M272.4,41.7c0.7,1.7,1.6,3.3,2.8,4.6c1.2,1.3,2.6,2.4,4.3,3.2c1.7,0.8,3.5,1.2,5.4,1.2c1.9,0,3.7-0.4,5.3-1.2
	c1.6-0.8,3.1-1.9,4.3-3.3c1.2-1.3,2.2-2.9,2.9-4.6s1-3.5,1-5.3c0-2.1-0.4-4-1.1-5.7c-0.8-1.8-1.8-3.3-3-4.6c-1.3-1.3-2.7-2.3-4.3-3
	c-1.6-0.7-3.3-1.1-5-1.1c-1.6,0-3.2,0.4-4.8,1.1c-1.6,0.7-3,1.8-4.3,3c-1.3,1.3-2.3,2.8-3.1,4.6c-0.8,1.8-1.2,3.7-1.2,5.7
	C271.4,38.2,271.7,40,272.4,41.7 M276.2,31.2c0.2-1.7,0.7-3.2,1.3-4.5c0.7-1.3,1.6-2.3,2.8-3.1c1.2-0.8,2.7-1.2,4.6-1.2
	c1.9,0,3.4,0.4,4.6,1.2c1.2,0.8,2.1,1.8,2.8,3.1c0.7,1.3,1.1,2.8,1.3,4.5s0.3,3.4,0.3,5.2c0,2.3-0.2,4.4-0.5,6.1
	c-0.3,1.7-0.8,3.2-1.6,4.3c-0.7,1.2-1.7,2-2.8,2.6c-1.1,0.6-2.6,0.9-4.2,0.9c-1.7,0-3.1-0.3-4.2-0.9c-1.1-0.6-2.1-1.4-2.8-2.6
	c-0.7-1.2-1.2-2.6-1.6-4.3c-0.3-1.7-0.5-3.8-0.5-6.1C275.8,34.5,275.9,32.8,276.2,31.2 M240.1,23.1h3.5l10.5,27.6h1l10.4-27.6h3.5
	v-0.5h-8.4v0.5h4.2l-8.5,22.5l-8.6-22.5h4.3v-0.5h-12V23.1L240.1,23.1z M222.3,50.2h12.5v-0.5h-4.3V23.1h4.3v-0.5h-12.5v0.5h4.3
	v26.5h-4.3V50.2L222.3,50.2z M188.1,23.1h3.5l10.5,27.6h1l10.4-27.6h3.5v-0.5h-8.4v0.5h4.2l-8.5,22.5l-8.6-22.5h4.3v-0.5h-12V23.1
	L188.1,23.1z"/>
<path class="st1" d="M160.9,50.2h8.3v-0.5h-4.3l4.1-10.8h9l4.1,10.8h-4.3v0.5h11.9v-0.5h-3.5l-10.5-27.8h-0.9l-10.5,27.8h-3.4V50.2
	L160.9,50.2z M177.8,38.3h-8.5l4.3-11.3L177.8,38.3L177.8,38.3z M139.4,50.2h12.5v-0.5h-4.3V23.1h2.2c0.5,0,1.1,0,1.7,0.1
	c0.6,0.1,1.3,0.3,2,0.8c0.7,0.4,1.3,1.1,1.9,2c0.6,0.9,1.1,2.1,1.6,3.7h0.4v-7.1h-23.6v7.1h0.4c0.4-1.6,1-2.8,1.6-3.7
	c0.6-0.9,1.2-1.5,1.9-2c0.7-0.4,1.3-0.7,2-0.8c0.6-0.1,1.2-0.1,1.7-0.1h2.2v26.5h-4.3V50.2L139.4,50.2z M103.4,50.2H127v-8.5h-0.4
	c-0.1,0.6-0.3,1.3-0.5,2.2c-0.3,0.9-0.7,1.8-1.3,2.6c-0.6,0.8-1.4,1.6-2.3,2.2c-0.9,0.6-2.1,0.9-3.5,0.9h-7.3v-14h3.1
	c0.9,0,1.7,0.2,2.3,0.5c0.6,0.3,1,0.8,1.4,1.3c0.3,0.5,0.6,1.2,0.8,1.9c0.2,0.7,0.4,1.4,0.6,2.2h0.4V29.4h-0.4
	c-0.3,1.2-0.6,2.1-0.9,2.8c-0.3,0.7-0.7,1.3-1.1,1.7c-0.4,0.4-0.9,0.7-1.5,0.9c-0.6,0.2-1.3,0.2-2.2,0.2h-2.5v-12h6.4
	c1.1,0,2,0.1,2.7,0.4c0.8,0.3,1.4,0.7,1.9,1.2c0.5,0.5,1,1.2,1.4,1.9c0.4,0.8,0.7,1.6,1.1,2.7h0.4v-6.7h-22.2v0.5h4.3v26.5h-4.3
	V50.2L103.4,50.2z M64.8,50.2H74v-0.5h-4.3v-26h0.1L79,50.2l9.3-26.9h0.1v26.3h-4.3v0.5h12.5v-0.5h-4.3V23.1h4.3v-0.5H88l-7.2,20.9
	h-0.1l-7.2-20.9h-8.7v0.5h4.3v26.5h-4.3V50.2L64.8,50.2z"/>
<path class="st2" d="M21.4,20.9C21.4,20.9,21.4,20.9,21.4,20.9L21.4,20.9C21.4,20.9,21.4,20.9,21.4,20.9L21.4,20.9z"/>
<path class="st1" d="M26.7,20.8L26.7,20.8C26.7,20.9,26.7,20.9,26.7,20.8C26.7,20.9,26.7,20.9,26.7,20.8L26.7,20.8z"/>
<path class="st3" d="M40.2,91.7l2.3-4.9c0,0-8.9-18.5-15.8-32.6l-2.4,4.9L40.2,91.7L40.2,91.7z"/>
<path class="st3" d="M17.9,36.2c-6.5-12.5-5-21.4-3.8-26.2c0,0-7.8,9.3,0.1,28.1l1.7,3.5l2.4-4.9C18.2,36.7,18.1,36.5,17.9,36.2
	L17.9,36.2z"/>
<path class="st3" d="M21.4,20.9C21.4,20.9,21.4,20.9,21.4,20.9C21.9,22,21.8,21.8,21.4,20.9C21.4,20.9,21.4,20.9,21.4,20.9
	L21.4,20.9c-1.2-2.7-5-11.8-3.4-16.5c0,0-6.5,5.4,2.2,23.8l1,2.1l2.3-4.8L21.4,20.9L21.4,20.9z"/>
<polygon class="st3" points="45.7,80.4 48,75.6 32.2,43.1 29.9,47.9 45.7,80.4 "/>
<path class="st3" d="M24.1,2.5c2.2,0,4.2,1.1,5.7,2.8c-0.1-0.6-0.3-1.2-0.5-1.8c-1.3-1.9-3.1-3.1-5.1-3.1c-2,0-3.9,1.2-5.2,3.2
	c-0.2,0.6-0.4,1.1-0.5,1.7C19.9,3.6,21.9,2.5,24.1,2.5L24.1,2.5z"/>
<path class="st1" d="M34,10c1.2,4.8,2.7,13.7-3.8,26.2c-0.2,0.4-2.1,4.1-3,6.1l2.4,4.9l4.4-9.1C41.8,19.2,34,10,34,10L34,10z"/>
<path class="st1" d="M5.5,86.9l2.3,4.9l18.6-38.3c-0.8-1.7-1.6-3.4-2.4-4.9C23.2,50.1,5.5,86.9,5.5,86.9L5.5,86.9z"/>
<path class="st1" d="M20.9,42.2c-0.9-1.9-1.7-3.5-2.4-4.7L0,75.6l2.3,4.9L20.9,42.2L20.9,42.2z"/>
<path class="st1" d="M26.3,31.1l1.4-2.9C36.6,9.8,30,4.4,30,4.4c1.6,4.7-2.2,13.8-3.4,16.5l0-0.1c0,0,0,0.1,0,0.1
	c-0.4,0.9-0.5,1,0,0c0,0,0,0,0,0L24,26.3l-2.3,4.8l2.3,4.8L26.3,31.1L26.3,31.1z"/>
<path class="st1" d="M24.2,5.9c-2.2,0-4.2,0.8-5.8,2.2c0,0.6,0.1,1.1,0.2,1.4c1.6-0.9,3.5-1.3,5.6-1.3c2.1,0,4,0.4,5.6,1.3
	c0.1-0.4,0.1-0.9,0.2-1.4C28.3,6.7,26.3,5.9,24.2,5.9L24.2,5.9z"/>
<path class="st4" d="M24.1,3.1c-2.3,0-4.3,1.2-5.8,3.1c0,0.4,0,0.8,0,1.2c1.6-1.4,3.6-2.2,5.8-2.2c2.2,0,4.2,0.8,5.8,2.1
	c0-0.4,0-0.8,0-1.3C28.4,4.3,26.3,3.1,24.1,3.1L24.1,3.1z"/>
<path class="st4" d="M26.7,41.6L26.7,41.6l2.9-5.9c8.6-16.2,3-27.4,3-27.4c2.2,9-4.9,21.6-4.9,21.6l-3.3,6.8l0,0.1L26.7,41.6
	L26.7,41.6z"/>
<polygon class="st4" points="21.3,43 21.3,43 2.7,81.2 5,86.1 23.7,47.8 23.7,47.8 21.3,43 "/>
<path class="st4" d="M20.3,29.8c0,0-7.1-12.6-4.9-21.6c0,0-5.6,11.2,3,27.4L43,86.1l2.3-4.9L20.3,29.8L20.3,29.8z"/>
<g>
	<path d="M69.8,68.4L69.8,68.4l-2.3-3.3v5h-0.7v-6.2h0.7l2.3,3.4l2.3-3.4h0.7v6.2h-0.7v-5L69.8,68.4z"/>
	<path d="M76.5,69.6c0.6,0,1.1-0.3,1.4-0.6l0.4,0.4c-0.5,0.5-1,0.9-1.9,0.9c-1.3,0-2.3-1-2.3-2.4c0-1.3,0.9-2.4,2.2-2.4
		c1.4,0,2.1,1.1,2.1,2.4c0,0.1,0,0.1,0,0.2h-3.6C74.9,69.1,75.7,69.6,76.5,69.6z M77.8,67.6c-0.1-0.8-0.6-1.6-1.5-1.6
		c-0.8,0-1.4,0.7-1.5,1.6H77.8z"/>
	<path d="M80.6,68.8c0,0.6,0.3,0.8,0.8,0.8c0.2,0,0.4,0,0.7-0.2V70c-0.2,0.1-0.5,0.2-0.8,0.2c-0.7,0-1.3-0.4-1.3-1.3v-2.8h-0.6v-0.6
		h0.6v-1.4h0.7v1.4h1.5v0.6h-1.5V68.8z"/>
	<path d="M83.5,66.4l-0.2-0.6c0.5-0.2,1-0.4,1.7-0.4c1.3,0,2,0.6,2,1.8v2.8h-0.7v-0.7c-0.3,0.4-0.9,0.8-1.7,0.8
		c-0.9,0-1.7-0.5-1.7-1.4c0-1,0.8-1.5,2-1.5c0.6,0,1,0.1,1.4,0.2v-0.2c0-0.8-0.5-1.3-1.4-1.3C84.4,66.1,84,66.2,83.5,66.4z
		 M83.6,68.8c0,0.6,0.5,0.9,1.2,0.9c0.8,0,1.5-0.5,1.5-1.2V68c-0.3-0.1-0.8-0.2-1.3-0.2C84.1,67.8,83.6,68.2,83.6,68.8z"/>
	<path d="M89.9,70.2c-0.7,0-1.4-0.3-1.9-0.7l0.3-0.5c0.5,0.4,1,0.6,1.6,0.6c0.6,0,1-0.3,1-0.7v0c0-0.5-0.5-0.6-1.1-0.8
		c-0.7-0.2-1.5-0.5-1.5-1.3v0c0-0.8,0.7-1.3,1.6-1.3c0.6,0,1.2,0.2,1.7,0.5l-0.3,0.5c-0.4-0.3-0.9-0.4-1.4-0.4
		c-0.5,0-0.9,0.3-0.9,0.7v0c0,0.4,0.6,0.6,1.2,0.8c0.7,0.2,1.5,0.5,1.5,1.3v0C91.6,69.7,90.9,70.2,89.9,70.2z"/>
	<path d="M93.8,68.8c0,0.6,0.3,0.8,0.8,0.8c0.2,0,0.4,0,0.7-0.2V70c-0.2,0.1-0.5,0.2-0.8,0.2c-0.7,0-1.3-0.4-1.3-1.3v-2.8h-0.6v-0.6
		h0.6v-1.4h0.7v1.4h1.5v0.6h-1.5V68.8z"/>
	<path d="M96.7,66.4l-0.2-0.6c0.5-0.2,1-0.4,1.7-0.4c1.3,0,2,0.6,2,1.8v2.8h-0.7v-0.7c-0.3,0.4-0.9,0.8-1.7,0.8
		c-0.9,0-1.7-0.5-1.7-1.4c0-1,0.8-1.5,2-1.5c0.6,0,1,0.1,1.4,0.2v-0.2c0-0.8-0.5-1.3-1.4-1.3C97.6,66.1,97.1,66.2,96.7,66.4z
		 M96.8,68.8c0,0.6,0.5,0.9,1.2,0.9c0.8,0,1.5-0.5,1.5-1.2V68c-0.3-0.1-0.8-0.2-1.3-0.2C97.3,67.8,96.8,68.2,96.8,68.8z"/>
	<path d="M102.5,68.8c0,0.6,0.3,0.8,0.8,0.8c0.2,0,0.4,0,0.7-0.2V70c-0.2,0.1-0.5,0.2-0.8,0.2c-0.7,0-1.3-0.4-1.3-1.3v-2.8h-0.6
		v-0.6h0.6v-1.4h0.7v1.4h1.5v0.6h-1.5V68.8z"/>
	<path d="M105.2,64.5v-0.8h0.8v0.8H105.2z M105.2,70.1v-4.6h0.7v4.6H105.2z"/>
	<path d="M109.6,70.2c-1.3,0-2.4-1.1-2.4-2.4c0-1.3,1-2.4,2.4-2.4c0.9,0,1.4,0.4,1.8,0.8l-0.5,0.5c-0.4-0.4-0.8-0.7-1.4-0.7
		c-0.9,0-1.6,0.8-1.6,1.8c0,1,0.7,1.8,1.7,1.8c0.6,0,1-0.3,1.4-0.7l0.4,0.4C111,69.9,110.4,70.2,109.6,70.2z"/>
	<path d="M120,65.5c0,0.8-0.5,1.2-1,1.4c0.7,0.2,1.3,0.6,1.3,1.5c0,1.1-0.9,1.7-2.3,1.7h-2.8v-6.2h2.6C119.2,63.9,120,64.5,120,65.5
		z M119.3,65.6c0-0.6-0.5-1-1.4-1H116v2.1h1.8C118.7,66.7,119.3,66.3,119.3,65.6z M119.7,68.4c0-0.7-0.6-1.1-1.7-1.1h-2v2.2h2.1
		C119.1,69.5,119.7,69.1,119.7,68.4z"/>
	<path d="M122.3,70.1h-0.7v-4.6h0.7v1.2c0.3-0.8,1-1.3,1.9-1.3v0.7h-0.1c-1,0-1.8,0.7-1.8,2.1V70.1z"/>
</g>
<g>
	<path d="M126.9,69.6c0.6,0,1.1-0.3,1.4-0.6l0.4,0.4c-0.5,0.5-1,0.9-1.9,0.9c-1.3,0-2.3-1-2.3-2.4c0-1.3,0.9-2.4,2.2-2.4
		c1.4,0,2.1,1.1,2.1,2.4c0,0.1,0,0.1,0,0.2h-3.6C125.4,69.1,126.1,69.6,126.9,69.6z M128.3,67.6c-0.1-0.8-0.6-1.6-1.5-1.6
		c-0.8,0-1.4,0.7-1.5,1.6H128.3z"/>
	<path d="M130.4,66.4l-0.2-0.6c0.5-0.2,1-0.4,1.7-0.4c1.3,0,2,0.6,2,1.8v2.8h-0.7v-0.7c-0.3,0.4-0.9,0.8-1.7,0.8
		c-0.9,0-1.7-0.5-1.7-1.4c0-1,0.8-1.5,2-1.5c0.6,0,1,0.1,1.4,0.2v-0.2c0-0.8-0.5-1.3-1.4-1.3C131.3,66.1,130.9,66.2,130.4,66.4z
		 M130.5,68.8c0,0.6,0.5,0.9,1.2,0.9c0.8,0,1.5-0.5,1.5-1.2V68c-0.3-0.1-0.8-0.2-1.3-0.2C131,67.8,130.5,68.2,130.5,68.8z"/>
	<path d="M136.8,70.2c-0.7,0-1.4-0.3-1.9-0.7l0.3-0.5c0.5,0.4,1,0.6,1.6,0.6c0.6,0,1-0.3,1-0.7v0c0-0.5-0.5-0.6-1.1-0.8
		c-0.7-0.2-1.5-0.5-1.5-1.3v0c0-0.8,0.7-1.3,1.6-1.3c0.6,0,1.2,0.2,1.7,0.5l-0.3,0.5c-0.4-0.3-0.9-0.4-1.4-0.4
		c-0.5,0-0.9,0.3-0.9,0.7v0c0,0.4,0.6,0.6,1.2,0.8c0.7,0.2,1.5,0.5,1.5,1.3v0C138.5,69.7,137.7,70.2,136.8,70.2z"/>
	<path d="M140.7,68.8c0,0.6,0.3,0.8,0.8,0.8c0.2,0,0.4,0,0.7-0.2V70c-0.2,0.1-0.5,0.2-0.8,0.2c-0.7,0-1.3-0.4-1.3-1.3v-2.8h-0.6
		v-0.6h0.6v-1.4h0.7v1.4h1.5v0.6h-1.5V68.8z"/>
	<path d="M148.9,70.2c-1.8,0-3.1-1.4-3.1-3.2c0-1.8,1.3-3.2,3.1-3.2c1.1,0,1.8,0.4,2.4,1l-0.5,0.5c-0.5-0.5-1.1-0.9-2-0.9
		c-1.4,0-2.4,1.1-2.4,2.6c0,1.4,1,2.6,2.4,2.6c0.9,0,1.4-0.3,2-0.9l0.5,0.5C150.8,69.8,150.1,70.2,148.9,70.2z"/>
	<path d="M152.8,66.4l-0.2-0.6c0.5-0.2,1-0.4,1.7-0.4c1.3,0,2,0.6,2,1.8v2.8h-0.7v-0.7c-0.3,0.4-0.9,0.8-1.7,0.8
		c-0.9,0-1.7-0.5-1.7-1.4c0-1,0.8-1.5,2-1.5c0.6,0,1,0.1,1.4,0.2v-0.2c0-0.8-0.5-1.3-1.4-1.3C153.7,66.1,153.2,66.2,152.8,66.4z
		 M152.9,68.8c0,0.6,0.5,0.9,1.2,0.9c0.8,0,1.5-0.5,1.5-1.2V68c-0.3-0.1-0.8-0.2-1.3-0.2C153.4,67.8,152.9,68.2,152.9,68.8z"/>
	<path d="M158.4,70.1h-0.7v-4.6h0.7v0.8c0.3-0.5,0.8-0.9,1.6-0.9c1.1,0,1.8,0.7,1.8,1.8v2.9H161v-2.7c0-0.9-0.5-1.4-1.3-1.4
		c-0.8,0-1.4,0.6-1.4,1.4V70.1z"/>
	<path d="M165.2,70.2c-1.3,0-2.4-1.1-2.4-2.4c0-1.3,1-2.4,2.4-2.4c0.9,0,1.4,0.4,1.8,0.8l-0.5,0.5c-0.4-0.4-0.8-0.7-1.4-0.7
		c-0.9,0-1.6,0.8-1.6,1.8c0,1,0.7,1.8,1.7,1.8c0.6,0,1-0.3,1.4-0.7l0.4,0.4C166.6,69.9,166.1,70.2,165.2,70.2z"/>
</g>
<g>
	<path d="M170,69.6c0.6,0,1.1-0.3,1.4-0.6l0.4,0.4c-0.5,0.5-1,0.9-1.9,0.9c-1.3,0-2.3-1-2.3-2.4c0-1.3,0.9-2.4,2.2-2.4
		c1.4,0,2.1,1.1,2.1,2.4c0,0.1,0,0.1,0,0.2h-3.6C168.5,69.1,169.2,69.6,170,69.6z M171.4,67.6c-0.1-0.8-0.6-1.6-1.5-1.6
		c-0.8,0-1.4,0.7-1.5,1.6H171.4z"/>
	<path d="M173.9,70.1h-0.7v-4.6h0.7v1.2c0.3-0.8,1-1.3,1.9-1.3v0.7h-0.1c-1,0-1.8,0.7-1.8,2.1V70.1z"/>
</g>
<g>
	<path d="M185.4,70.1h-0.8l-0.7-1.6h-3.4l-0.7,1.6h-0.7l2.8-6.3h0.7L185.4,70.1z M182.3,64.7l-1.4,3.2h2.8L182.3,64.7z"/>
	<path d="M190.7,69.2l1.2-3.7h0.7l-1.6,4.6h-0.6l-1.2-3.6l-1.2,3.6h-0.6l-1.6-4.6h0.7l1.2,3.7l1.2-3.7h0.6L190.7,69.2z"/>
</g>
<g>
	<path d="M193.8,66.4l-0.2-0.6c0.5-0.2,1-0.4,1.7-0.4c1.3,0,2,0.6,2,1.8v2.8h-0.7v-0.7c-0.3,0.4-0.9,0.8-1.7,0.8
		c-0.9,0-1.7-0.5-1.7-1.4c0-1,0.8-1.5,2-1.5c0.6,0,1,0.1,1.4,0.2v-0.2c0-0.8-0.5-1.3-1.4-1.3C194.7,66.1,194.3,66.2,193.8,66.4z
		 M193.9,68.8c0,0.6,0.5,0.9,1.2,0.9c0.8,0,1.5-0.5,1.5-1.2V68c-0.3-0.1-0.8-0.2-1.3-0.2C194.4,67.8,193.9,68.2,193.9,68.8z"/>
	<path d="M199.4,70.1h-0.7v-4.6h0.7v1.2c0.3-0.8,1-1.3,1.9-1.3v0.7h-0.1c-1,0-1.8,0.7-1.8,2.1V70.1z"/>
</g>
<g>
	<path d="M204.1,69.6c0.6,0,1.1-0.3,1.4-0.6l0.4,0.4c-0.5,0.5-1,0.9-1.9,0.9c-1.3,0-2.3-1-2.3-2.4c0-1.3,0.9-2.4,2.2-2.4
		c1.4,0,2.1,1.1,2.1,2.4c0,0.1,0,0.1,0,0.2h-3.6C202.6,69.1,203.3,69.6,204.1,69.6z M205.5,67.6c-0.1-0.8-0.6-1.6-1.5-1.6
		c-0.8,0-1.4,0.7-1.5,1.6H205.5z"/>
	<path d="M208.1,70.1h-0.7v-4.6h0.7v0.8c0.3-0.5,0.8-0.9,1.6-0.9c1.1,0,1.8,0.7,1.8,1.8v2.9h-0.7v-2.7c0-0.9-0.5-1.4-1.3-1.4
		c-0.8,0-1.4,0.6-1.4,1.4V70.1z"/>
	<path d="M214.9,69.6c0.6,0,1.1-0.3,1.4-0.6l0.4,0.4c-0.5,0.5-1,0.9-1.9,0.9c-1.3,0-2.3-1-2.3-2.4c0-1.3,0.9-2.4,2.2-2.4
		c1.4,0,2.1,1.1,2.1,2.4c0,0.1,0,0.1,0,0.2h-3.6C213.4,69.1,214.1,69.6,214.9,69.6z M216.2,67.6c-0.1-0.8-0.6-1.6-1.5-1.6
		c-0.8,0-1.4,0.7-1.5,1.6H216.2z"/>
	<path d="M219.6,70.2c-0.7,0-1.4-0.3-1.9-0.7l0.3-0.5c0.5,0.4,1,0.6,1.6,0.6c0.6,0,1-0.3,1-0.7v0c0-0.5-0.5-0.6-1.1-0.8
		c-0.7-0.2-1.5-0.5-1.5-1.3v0c0-0.8,0.7-1.3,1.6-1.3c0.6,0,1.2,0.2,1.7,0.5l-0.3,0.5c-0.4-0.3-0.9-0.4-1.4-0.4
		c-0.5,0-0.9,0.3-0.9,0.7v0c0,0.4,0.6,0.6,1.2,0.8c0.7,0.2,1.5,0.5,1.5,1.3v0C221.3,69.7,220.5,70.2,219.6,70.2z"/>
	<path d="M224,70.2c-0.7,0-1.4-0.3-1.9-0.7l0.3-0.5c0.5,0.4,1,0.6,1.6,0.6c0.6,0,1-0.3,1-0.7v0c0-0.5-0.5-0.6-1.1-0.8
		c-0.7-0.2-1.5-0.5-1.5-1.3v0c0-0.8,0.7-1.3,1.6-1.3c0.6,0,1.2,0.2,1.7,0.5l-0.3,0.5c-0.4-0.3-0.9-0.4-1.4-0.4
		c-0.5,0-0.9,0.3-0.9,0.7v0c0,0.4,0.6,0.6,1.2,0.8c0.7,0.2,1.5,0.5,1.5,1.3v0C225.7,69.7,225,70.2,224,70.2z"/>
	<path d="M227.2,70.1h-0.3v-0.9h0.8V70c0,0.7-0.3,1.1-1,1.2l-0.1-0.3C227,70.7,227.2,70.5,227.2,70.1z"/>
	<path d="M236.2,70.1l-1.8-2.4h-1.8v2.4h-0.7v-6.2h2.7c1.4,0,2.2,0.7,2.2,1.9c0,1-0.7,1.6-1.7,1.8l1.9,2.5H236.2z M234.5,64.6h-1.9
		v2.5h1.9c0.9,0,1.6-0.5,1.6-1.3C236.1,65,235.5,64.6,234.5,64.6z"/>
	<path d="M240.2,69.6c0.6,0,1.1-0.3,1.4-0.6l0.4,0.4c-0.5,0.5-1,0.9-1.9,0.9c-1.3,0-2.3-1-2.3-2.4c0-1.3,0.9-2.4,2.2-2.4
		c1.4,0,2.1,1.1,2.1,2.4c0,0.1,0,0.1,0,0.2h-3.6C238.7,69.1,239.4,69.6,240.2,69.6z M241.6,67.6c-0.1-0.8-0.6-1.6-1.5-1.6
		c-0.8,0-1.4,0.7-1.5,1.6H241.6z"/>
	<path d="M245,70.2c-0.7,0-1.4-0.3-1.9-0.7l0.3-0.5c0.5,0.4,1,0.6,1.6,0.6c0.6,0,1-0.3,1-0.7v0c0-0.5-0.5-0.6-1.1-0.8
		c-0.7-0.2-1.5-0.5-1.5-1.3v0c0-0.8,0.7-1.3,1.6-1.3c0.6,0,1.2,0.2,1.7,0.5l-0.3,0.5c-0.4-0.3-0.9-0.4-1.4-0.4
		c-0.5,0-0.9,0.3-0.9,0.7v0c0,0.4,0.6,0.6,1.2,0.8c0.7,0.2,1.5,0.5,1.5,1.3v0C246.6,69.7,245.9,70.2,245,70.2z"/>
	<path d="M249.9,69.6c0.6,0,1.1-0.3,1.4-0.6l0.4,0.4c-0.5,0.5-1,0.9-1.9,0.9c-1.3,0-2.3-1-2.3-2.4c0-1.3,0.9-2.4,2.2-2.4
		c1.4,0,2.1,1.1,2.1,2.4c0,0.1,0,0.1,0,0.2h-3.6C248.4,69.1,249.1,69.6,249.9,69.6z M251.3,67.6c-0.1-0.8-0.6-1.6-1.5-1.6
		c-0.8,0-1.4,0.7-1.5,1.6H251.3z"/>
	<path d="M253.4,66.4l-0.2-0.6c0.5-0.2,1-0.4,1.7-0.4c1.3,0,2,0.6,2,1.8v2.8h-0.7v-0.7c-0.3,0.4-0.9,0.8-1.7,0.8
		c-0.9,0-1.7-0.5-1.7-1.4c0-1,0.8-1.5,2-1.5c0.6,0,1,0.1,1.4,0.2v-0.2c0-0.8-0.5-1.3-1.4-1.3C254.3,66.1,253.8,66.2,253.4,66.4z
		 M253.5,68.8c0,0.6,0.5,0.9,1.2,0.9c0.8,0,1.5-0.5,1.5-1.2V68c-0.3-0.1-0.8-0.2-1.3-0.2C254,67.8,253.5,68.2,253.5,68.8z"/>
	<path d="M259,70.1h-0.7v-4.6h0.7v1.2c0.3-0.8,1-1.3,1.9-1.3v0.7h-0.1c-1,0-1.8,0.7-1.8,2.1V70.1z"/>
</g>
<g>
	<path d="M263.6,70.2c-1.3,0-2.4-1.1-2.4-2.4c0-1.3,1-2.4,2.4-2.4c0.9,0,1.4,0.4,1.8,0.8l-0.5,0.5c-0.4-0.4-0.8-0.7-1.4-0.7
		c-0.9,0-1.6,0.8-1.6,1.8c0,1,0.7,1.8,1.7,1.8c0.6,0,1-0.3,1.4-0.7l0.4,0.4C265,69.9,264.4,70.2,263.6,70.2z"/>
	<path d="M267.3,70.1h-0.7v-6.5h0.7v2.7c0.3-0.5,0.8-0.9,1.6-0.9c1.1,0,1.8,0.7,1.8,1.8v2.9h-0.7v-2.7c0-0.9-0.5-1.4-1.3-1.4
		c-0.8,0-1.4,0.6-1.4,1.4V70.1z"/>
	<path d="M275,66.4l-0.2-0.6c0.5-0.2,1-0.4,1.7-0.4c1.3,0,2,0.6,2,1.8v2.8h-0.7v-0.7c-0.3,0.4-0.9,0.8-1.7,0.8
		c-0.9,0-1.7-0.5-1.7-1.4c0-1,0.8-1.5,2-1.5c0.6,0,1,0.1,1.4,0.2v-0.2c0-0.8-0.5-1.3-1.4-1.3C275.8,66.1,275.4,66.2,275,66.4z
		 M275.1,68.8c0,0.6,0.5,0.9,1.2,0.9c0.8,0,1.5-0.5,1.5-1.2V68c-0.3-0.1-0.8-0.2-1.3-0.2C275.5,67.8,275.1,68.2,275.1,68.8z"/>
	<path d="M280.5,70.1h-0.7v-4.6h0.7v0.8c0.3-0.5,0.8-0.9,1.6-0.9c1.1,0,1.8,0.7,1.8,1.8v2.9h-0.7v-2.7c0-0.9-0.5-1.4-1.3-1.4
		c-0.8,0-1.4,0.6-1.4,1.4V70.1z"/>
	<path d="M289,70.1v-0.9c-0.4,0.6-0.9,1-1.8,1c-1.1,0-2.2-0.9-2.2-2.4c0-1.5,1.1-2.4,2.2-2.4c0.9,0,1.4,0.5,1.8,1v-2.8h0.7v6.5H289z
		 M287.4,66c-0.9,0-1.6,0.7-1.6,1.8c0,1.1,0.7,1.8,1.6,1.8c0.9,0,1.7-0.7,1.7-1.8C289,66.8,288.2,66,287.4,66z"/>
	<path d="M296.2,66.7c1.4,0.3,2,0.8,2,1.8c0,1.1-0.9,1.8-2.1,1.8c-1,0-1.8-0.3-2.5-1l0.4-0.5c0.6,0.6,1.3,0.9,2.1,0.9
		c0.8,0,1.4-0.4,1.4-1.1c0-0.6-0.3-0.9-1.6-1.2c-1.4-0.3-2.1-0.8-2.1-1.8c0-1,0.9-1.7,2-1.7c0.9,0,1.6,0.3,2.2,0.8l-0.4,0.5
		c-0.6-0.5-1.2-0.7-1.8-0.7c-0.8,0-1.3,0.4-1.3,1C294.6,66.1,294.9,66.4,296.2,66.7z"/>
	<path d="M302.8,65.5h0.7v4.6h-0.7v-0.8c-0.3,0.5-0.8,0.9-1.6,0.9c-1.1,0-1.8-0.7-1.8-1.8v-2.9h0.7v2.7c0,0.9,0.5,1.4,1.3,1.4
		c0.8,0,1.4-0.6,1.4-1.4V65.5z"/>
	<path d="M307.5,70.2c-0.9,0-1.4-0.5-1.8-1v2.3H305v-6h0.7v0.9c0.4-0.6,0.9-1,1.8-1c1.1,0,2.2,0.9,2.2,2.4
		C309.7,69.3,308.6,70.2,307.5,70.2z M307.4,66c-0.9,0-1.7,0.7-1.7,1.8c0,1.1,0.8,1.8,1.7,1.8c0.9,0,1.6-0.7,1.6-1.8
		C309,66.7,308.2,66,307.4,66z"/>
	<path d="M313.4,70.2c-0.9,0-1.4-0.5-1.8-1v2.3h-0.7v-6h0.7v0.9c0.4-0.6,0.9-1,1.8-1c1.1,0,2.2,0.9,2.2,2.4
		C315.6,69.3,314.5,70.2,313.4,70.2z M313.3,66c-0.9,0-1.7,0.7-1.7,1.8c0,1.1,0.8,1.8,1.7,1.8c0.9,0,1.6-0.7,1.6-1.8
		C314.9,66.7,314.1,66,313.3,66z"/>
	<path d="M318.9,70.2c-1.4,0-2.4-1.1-2.4-2.4c0-1.3,1-2.4,2.4-2.4c1.4,0,2.4,1.1,2.4,2.4C321.3,69.1,320.3,70.2,318.9,70.2z
		 M318.9,66c-1,0-1.7,0.8-1.7,1.8s0.7,1.8,1.7,1.8c1,0,1.7-0.8,1.7-1.8C320.6,66.8,319.9,66,318.9,66z"/>
	<path d="M323.3,70.1h-0.7v-4.6h0.7v1.2c0.3-0.8,1-1.3,1.9-1.3v0.7h-0.1c-1,0-1.8,0.7-1.8,2.1V70.1z"/>
	<path d="M327.1,68.8c0,0.6,0.3,0.8,0.8,0.8c0.2,0,0.4,0,0.7-0.2V70c-0.2,0.1-0.5,0.2-0.8,0.2c-0.7,0-1.3-0.4-1.3-1.3v-2.8h-0.6
		v-0.6h0.6v-1.4h0.7v1.4h1.5v0.6h-1.5V68.8z"/>
</g>
</svg>
