<?xml version="1.0" encoding="utf-8"?>
<!-- Generator: Adobe Illustrator 20.1.0, SVG Export Plug-In . SVG Version: 6.00 Build 0)  -->
<svg version="1.1" id="Layer_1" xmlns="http://www.w3.org/2000/svg" xmlns:xlink="http://www.w3.org/1999/xlink" x="0px" y="0px"
	 viewBox="0 0 256.2 85.9" style="enable-background:new 0 0 256.2 85.9;" xml:space="preserve">
<style type="text/css">
	.st0{fill:#231F20;}
	.st1{fill:#CFDD45;}
	.st2{fill:#F5A1BB;}
	.st3{fill:#B7B1D8;}
	.st4{fill:#94C947;}
	.st5{fill:#88BEE7;}
	.st6{fill:#FEBD3B;}
</style>
<g>
	<path class="st0" d="M253.7,33.1v-0.7h0.6c0.3,0,0.5,0.1,0.5,0.3v0c0,0.2-0.2,0.4-0.5,0.4H253.7z M253.5,34.1h0.2v-0.8h0.6l0.6,0.8
		h0.3l-0.6-0.8c0.3-0.1,0.5-0.2,0.5-0.6v0c0-0.1-0.1-0.3-0.1-0.4c-0.1-0.1-0.3-0.2-0.6-0.2h-0.9V34.1z M254.2,35
		c-1,0-1.8-0.8-1.8-1.8v0c0-1,0.8-1.8,1.8-1.8c1,0,1.8,0.8,1.8,1.8v0C256,34.2,255.2,35,254.2,35 M254.2,35.1c1.1,0,1.9-0.9,1.9-1.9
		v0c0-1-0.8-1.9-1.9-1.9c-1.1,0-1.9,0.9-1.9,1.9v0C252.3,34.2,253.2,35.1,254.2,35.1"/>
	<path d="M10.3,48.5v-8c0-2.8-1.6-4.6-4.3-4.6c-2.6,0-4.7,2-4.7,4.8v7.8H0V29.2h1.3v8.3c0.9-1.6,2.4-2.8,4.9-2.8
		c3.4,0,5.4,2.3,5.4,5.6v8.3H10.3z"/>
	<path d="M33.1,41.8c0-3.3-2.4-5.9-5.6-5.9c-3.2,0-5.5,2.6-5.5,5.8v0.1c0,3.3,2.4,5.9,5.6,5.9C30.8,47.6,33.1,45,33.1,41.8
		L33.1,41.8z M27.5,48.8c-4,0-6.9-3.2-6.9-7v-0.1c0-3.8,2.9-7.1,7-7.1c4,0,6.9,3.2,6.9,7v0.1C34.5,45.6,31.5,48.8,27.5,48.8"/>
	<path d="M55.8,41.8c0-3.5-2.5-5.8-5.3-5.8c-2.8,0-5.5,2.4-5.5,5.8v0.1c0,3.5,2.7,5.8,5.5,5.8C53.4,47.6,55.8,45.5,55.8,41.8
		L55.8,41.8z M50.6,48.8c-2.7,0-4.4-1.5-5.6-3.2v7.2h-1.3V35h1.3v3c1.2-1.8,2.9-3.3,5.6-3.3c3.3,0,6.6,2.6,6.6,7v0.1
		C57.2,46.2,53.9,48.8,50.6,48.8"/>
	<path d="M76.8,41.1c-0.2-2.7-1.7-5.2-4.8-5.2c-2.7,0-4.7,2.3-5,5.2H76.8z M72.3,47.6c2.1,0,3.5-0.9,4.6-2.1l0.9,0.8
		c-1.4,1.5-3,2.5-5.6,2.5c-3.6,0-6.6-2.8-6.6-7v-0.1c0-3.9,2.8-7,6.4-7c3.8,0,6.2,3.1,6.2,7.1v0.1c0,0.2,0,0.3,0,0.5H67
		C67.2,45.7,69.6,47.6,72.3,47.6"/>
	<path d="M131.4,48.8c-2,0-4.1-0.8-5.5-2l0.8-1c1.5,1.1,3.1,1.8,4.8,1.8c1.8,0,3.3-1,3.3-2.6v-0.1c0-1.6-1.7-2.2-3.6-2.7
		c-2.2-0.6-4.6-1.3-4.6-3.7v-0.1c0-2.2,1.8-3.7,4.4-3.7c1.6,0,3.4,0.6,4.8,1.5l-0.7,1.1c-1.2-0.8-2.7-1.4-4.2-1.4
		c-1.9,0-3.1,1-3.1,2.4v0.1c0,1.5,1.8,2.1,3.8,2.6c2.2,0.6,4.4,1.4,4.4,3.8v0.1C136.1,47.3,134,48.8,131.4,48.8"/>
	<path d="M151.4,48.8c-3.9,0-6.9-3.2-6.9-7v-0.1c0-3.8,3-7.1,6.9-7.1c2.5,0,4.1,1.2,5.4,2.5l-0.9,1c-1.2-1.2-2.5-2.2-4.5-2.2
		c-3.1,0-5.5,2.6-5.5,5.8v0.1c0,3.3,2.5,5.9,5.6,5.9c1.9,0,3.4-1,4.5-2.2l0.9,0.8C155.6,47.7,153.9,48.8,151.4,48.8"/>
	<path d="M175.2,41.9c-1.1-0.3-2.6-0.6-4.6-0.6c-2.9,0-4.4,1.3-4.4,3.2v0.1c0,2,1.9,3.1,3.9,3.1c2.8,0,5.1-1.7,5.1-4.2V41.9z
		 M175.2,48.5v-2.3c-0.9,1.3-2.6,2.6-5.2,2.6c-2.5,0-5.2-1.4-5.2-4.2v-0.1c0-2.8,2.4-4.4,5.9-4.4c1.9,0,3.2,0.2,4.5,0.6v-0.6
		c0-2.7-1.7-4.1-4.4-4.1c-1.6,0-3,0.5-4.2,1.1L166,36c1.5-0.7,2.9-1.2,4.8-1.2c3.5,0,5.6,1.8,5.6,5.3v8.4H175.2z"/>
	<path d="M193.6,36.2c-3.1,0-5.9,2.4-5.9,6.8v5.5h-1.3V35h1.3v3.8c1.1-2.4,3.3-4.2,6-4.1v1.4H193.6z"/>
	<polygon points="208.1,48.6 207,48.6 200.9,35 202.4,35 207.5,47.1 212.7,35 214.2,35 	"/>
	<path d="M232.5,41.1c-0.2-2.7-1.7-5.2-4.8-5.2c-2.7,0-4.7,2.3-5,5.2H232.5z M228,47.6c2.1,0,3.5-0.9,4.6-2.1l0.9,0.8
		c-1.4,1.5-3,2.5-5.6,2.5c-3.5,0-6.6-2.8-6.6-7v-0.1c0-3.9,2.8-7,6.4-7c3.8,0,6.2,3.1,6.2,7.1v0.1c0,0.2,0,0.3,0,0.5h-11.2
		C222.9,45.7,225.3,47.6,228,47.6"/>
	<path d="M247.3,48.8c-2,0-4.1-0.8-5.5-2l0.8-1c1.5,1.1,3.1,1.8,4.8,1.8c1.8,0,3.3-1,3.3-2.6v-0.1c0-1.6-1.7-2.2-3.6-2.7
		c-2.2-0.6-4.6-1.3-4.6-3.7v-0.1c0-2.2,1.8-3.7,4.5-3.7c1.6,0,3.4,0.6,4.8,1.5l-0.7,1.1c-1.2-0.8-2.7-1.4-4.2-1.4
		c-1.9,0-3.1,1-3.1,2.4v0.1c0,1.5,1.8,2.1,3.8,2.6c2.2,0.6,4.4,1.4,4.4,3.8v0.1C252,47.3,249.9,48.8,247.3,48.8"/>
	<path class="st1" d="M90.7,12.9c0,0,23.8-11.7,20.5,9.7c-3.2,21-4.9,39.5-28.6,61.8c-1.8-2.3-2.9-3.5-5.4-9.4
		c-2.5-5.9-1.7-12.2-1.7-12.2s27.4-10.1,31.3-32C111,6.8,90.7,12.9,90.7,12.9"/>
	<path class="st2" d="M106,59.8c0,0-3.7,10.5-8.2,17.9c-3,5-5.6,8.2-5.6,8.2s-4.2-2.4-8.4-8.7c-2.4-3.6-2.8-6.9-2.8-6.9
		s2.4-0.6,6.9-3.6c4.6-3,11-7.5,11-7.5L106,59.8z"/>
	<path class="st3" d="M109.3,1.6c0,0,12.1,4.1,8.8,21.7c-4,20.9-11.1,39.2-24,56c0,0-5.1-2.2-8.8-9.2c-1.3-2.5-1.2-5.4-1.2-5.4
		S110,49,114.5,27.3C119.1,5.6,109.3,1.6,109.3,1.6"/>
	<path class="st4" d="M97.5,0.8c0,0-14.3,3-13.5,21c0.8,18,24,35.6,46.1,41.8c0,0-5.6,4.3-11.9,5.9c-6.3,1.6-40-24.8-37.6-47.9
		C82.6,2.8,97.5,0.8,97.5,0.8"/>
	<path class="st5" d="M98.7,0.3c0,0-12.5,2.1-11.8,18.5c0.7,16.4,23.4,32.3,45.2,37.9c0,0-5.6,3.9-11.8,5.4
		c-6.2,1.5-39.3-22.4-36.8-43.5C85.5,1.5,98.7,0.3,98.7,0.3"/>
	<path class="st6" d="M91.1,30.7c0,0-8.8-10.5-2.9-22c6.2-12,22.9-11,28.3-0.7c6.6,12.4-4.9,28.2-10.3,37.1l-0.5-0.3
		c0,0,7.7-9.7,6-25.6c-1.6-15.9-17.5-14.5-21.3-7.5C83.8,23.9,91.1,30.7,91.1,30.7"/>
	<path class="st2" d="M106.2,45.1c0,0,7.7-13,7.1-24.8c-0.6-11.8-9.3-14.3-15-13.4c-5.7,0.8-10.1,5.8-10.6,13.6
		c-0.5,7.8,4.7,12,4.7,12s-5-12.2,1.8-17.2c6.3-4.5,15.9,2.7,14.5,14.1c-1.5,11.4-3.4,15.1-3.4,15.1L106.2,45.1z"/>
</g>
</svg>
