<?xml version="1.0" encoding="utf-8"?>
<!-- Generator: Adobe Illustrator 18.1.1, SVG Export Plug-In . SVG Version: 6.00 Build 0)  -->
<svg version="1.1" id="Layer_1" xmlns="http://www.w3.org/2000/svg" xmlns:xlink="http://www.w3.org/1999/xlink" x="0px" y="0px"
	 viewBox="0 0 107.8 58.6" enable-background="new 0 0 107.8 58.6" xml:space="preserve">
<polygon points="0,40.2 0,28.2 6.1,28.2 6.1,29.8 1.8,29.8 1.8,33.4 6.1,33.4 6.1,35 1.8,35 1.8,40.2 "/>
<path d="M13.7,32.5c-1.9,0-3.2,1.6-3.2,3.2c0,1.6,1.3,3.2,3.2,3.2c1.8,0,3.2-1.5,3.2-3.2C16.8,34.1,15.6,32.5,13.7,32.5 M13.7,40.4
	c-3,0-4.8-2.5-4.8-4.8c0-2.4,2.1-4.7,4.8-4.7c2.7,0,4.8,2.1,4.8,4.7C18.5,37.8,16.7,40.4,13.7,40.4"/>
<path d="M23.7,31.2v4.9c0,2.2,1,2.8,2.2,2.8c1.4,0,2.3-0.9,2.3-2.9v-4.8H30v9h-1.5v-1h0c-0.5,0.8-1.5,1.2-2.6,1.2
	c-1,0-1.9-0.3-2.6-0.9c-0.7-0.6-1.2-1.7-1.2-3.5v-4.9H23.7z"/>
<path d="M40.6,40.2v-4.9c0-0.7,0-2.8-2.2-2.8c-1.4,0-2.4,1-2.4,2.8v4.9h-1.7v-9h1.6v1h0c0.9-1.2,2.3-1.2,2.6-1.2
	c1.4,0,2.5,0.6,3.2,1.6c0.4,0.6,0.6,1.3,0.6,2.3v5.3H40.6z"/>
<path d="M50.5,32.5c-2.1,0-3.1,1.8-3.1,3.2c0,1.6,1.3,3.2,3.1,3.2c1.8,0,3.1-1.4,3.1-3.2C53.6,33.8,52.2,32.5,50.5,32.5 M53.6,40.2
	v-1.3h0c-0.7,1-1.9,1.5-3.2,1.5c-3,0-4.7-2.3-4.7-4.7c0-2.2,1.5-4.8,4.7-4.8c1.2,0,2.4,0.5,3,1.3h0v-4.1h1.7v12H53.6z"/>
<path d="M64.1,32.5c-2.1,0-3.1,1.8-3.1,3.2c0,1.6,1.3,3.2,3.1,3.2c1.8,0,3.1-1.4,3.1-3.2C67.2,33.8,65.8,32.5,64.1,32.5 M67.1,40.2
	v-1.4h0c-0.6,1.1-1.8,1.6-3,1.6c-3,0-4.8-2.3-4.8-4.7c0-2.2,1.5-4.8,4.8-4.8c1.2,0,2.4,0.5,3,1.5h0v-1.3h1.7v9H67.1z"/>
<polygon points="75.7,40.2 74.1,40.2 74.1,32.7 72.8,32.7 72.8,31.2 74.1,31.2 74.1,28.2 75.7,28.2 75.7,31.2 77.2,31.2 77.2,32.7 
	75.7,32.7 "/>
<path d="M82.8,40.2h-1.7v-9h1.7V40.2z M82.8,30.2h-1.7v-2h1.7V30.2z"/>
<path d="M91.5,32.5c-1.9,0-3.2,1.6-3.2,3.2c0,1.6,1.3,3.2,3.2,3.2c1.8,0,3.2-1.5,3.2-3.2C94.6,34.1,93.4,32.5,91.5,32.5 M91.5,40.4
	c-3,0-4.8-2.5-4.8-4.8c0-2.4,2.1-4.7,4.8-4.7c2.7,0,4.8,2.1,4.8,4.7C96.3,37.8,94.5,40.4,91.5,40.4"/>
<path d="M106.1,40.2v-4.9c0-0.7,0-2.8-2.2-2.8c-1.4,0-2.4,1-2.4,2.8v4.9h-1.7v-9h1.6v1h0c0.9-1.2,2.3-1.2,2.6-1.2
	c1.4,0,2.5,0.6,3.2,1.6c0.4,0.6,0.6,1.3,0.6,2.3v5.3H106.1z"/>
<path d="M0.7,58.3v-7.4h-0.8v-1.5h0.8v-0.4c0-1,0.4-1.6,1.1-2.1C2.5,46.4,3,46.3,4,46.3v1.5c-1.1,0-1.6,0.4-1.6,1v0.4H4v1.5H2.4v7.4
	H0.7z"/>
<path d="M12.4,50.6c-1.9,0-3.2,1.6-3.2,3.2c0,1.6,1.3,3.2,3.2,3.2c1.8,0,3.2-1.5,3.2-3.2C15.5,52.2,14.3,50.6,12.4,50.6 M12.4,58.6
	c-3,0-4.8-2.5-4.8-4.8c0-2.4,2.1-4.7,4.8-4.7c2.7,0,4.8,2.1,4.8,4.7C17.2,56,15.4,58.6,12.4,58.6"/>
<path d="M21.8,58.3v-9h1.6v0.8h0c0.7-1,1.9-1,2.3-1.1v1.7c-0.3,0-0.8,0.1-1.2,0.3c-0.5,0.3-1,1-1,2.3v4.9H21.8z"/>
<polygon fill="#EC008C" points="44.5,58.3 42.4,50 42.3,50 40.2,58.3 38.6,58.3 35.3,46.3 37.1,46.3 39.4,55.4 39.4,55.4 41.7,46.3 
	43,46.3 45.3,55.3 45.3,55.3 47.6,46.3 49.4,46.3 46.1,58.3 "/>
<path fill="#EC008C" d="M57.6,50.6c-1.9,0-3.2,1.6-3.2,3.2c0,1.6,1.3,3.2,3.2,3.2c1.8,0,3.2-1.5,3.2-3.2
	C60.8,52.2,59.5,50.6,57.6,50.6 M57.6,58.6c-3,0-4.8-2.5-4.8-4.8c0-2.4,2.1-4.7,4.8-4.7c2.7,0,4.8,2.1,4.8,4.7
	C62.4,56,60.6,58.6,57.6,58.6"/>
<path fill="#EC008C" d="M79.2,58.3v-5c0-0.8-0.1-2.7-2.1-2.7c-2.2,0-2.1,1.9-2.1,2.7v5h-1.7v-5c0-0.7,0-1.2-0.4-1.8
	c-0.4-0.6-1.1-0.8-1.7-0.8c-2.2,0-2.2,2-2.2,2.7v5h-1.7v-9h1.6v1h0c0.3-0.4,0.9-1.2,2.6-1.2c1.1,0,2.3,0.5,2.8,1.5
	c0.3-0.5,1-1.5,3-1.5c1.5,0,2.6,0.6,3.2,1.6c0.3,0.6,0.5,1.3,0.5,2.2v5.4H79.2z"/>
<path fill="#EC008C" d="M93.2,53.3c-0.1-1.3-1.3-2.6-2.9-2.6c-1.6,0-2.8,1.3-2.9,2.6H93.2z M87.4,54.6c0.4,1.7,1.8,2.4,2.9,2.4
	c1.2,0,2.2-0.7,2.6-1.5h1.7c-0.9,2.3-2.9,3-4.3,3c-2.5,0-4.6-2.2-4.6-4.7c0-2.7,2.1-4.7,4.6-4.7c2.4,0,4.6,2,4.6,4.6
	c0,0.3,0,0.7,0,0.9H87.4z"/>
<path fill="#EC008C" d="M106.1,58.3v-4.9c0-0.7,0-2.8-2.2-2.8c-1.4,0-2.4,1-2.4,2.8v4.9h-1.7v-9h1.6v1h0c0.9-1.2,2.3-1.2,2.6-1.2
	c1.4,0,2.5,0.6,3.2,1.6c0.4,0.6,0.6,1.3,0.6,2.3v5.3H106.1z"/>
<path d="M66.5,0c-5.3,0-9.9,4.4-9.9,9.9c0,5.5,4.6,9.9,9.9,9.9c5.3,0,9.9-4.4,9.9-9.9C76.4,4.4,71.8,0,66.5,0 M57.6,9.9L57.6,9.9
	C57.6,5,61.6,1,66.5,1c4.8,0,8.9,4,8.9,8.9c0,4.9-4.1,8.9-8.9,8.9C61.6,18.8,57.6,14.8,57.6,9.9"/>
<polygon points="46,0.4 44.9,0.4 39.4,12.2 36.9,17.7 34.4,12.2 29,0.4 27.9,0.4 36.9,19.8 37,19.8 "/>
<polygon points="90.7,0 90.6,0 90.6,19.2 91.5,19.2 91.6,2.4 107.6,19.8 107.8,19.8 107.8,0.4 106.8,0.4 106.8,17.4 "/>
<path d="M9.4,0H9.3l-9,19.2h1.1l2.5-5.4l10.9,0l2.5,5.4h1.1L9.4,0z M4.3,13L4.3,13l2.6-5.6L9.4,2l2.5,5.5l2.6,5.6L4.3,13z"/>
</svg>
