<?xml version="1.0" encoding="utf-8"?>
<!-- Generator: Adobe Illustrator 22.0.1, SVG Export Plug-In . SVG Version: 6.00 Build 0)  -->
<svg version="1.1" id="Layer_1" xmlns="http://www.w3.org/2000/svg" xmlns:xlink="http://www.w3.org/1999/xlink" x="0px" y="0px"
	 viewBox="0 0 225.9 109.4" style="enable-background:new 0 0 225.9 109.4;" xml:space="preserve">
<style type="text/css">
	.st0{fill:#00A0AF;}
	.st1{fill:#E977AF;}
	.st2{fill:#FFFFFF;}
	.st3{opacity:0.72;fill:url(#SVGID_1_);}
	.st4{opacity:0.79;fill:url(#SVGID_2_);}
	.st5{fill:#FFFFFF;stroke:#FFFFFF;stroke-width:0.786;}
	.st6{fill:#00A0AF;stroke:#FFFFFF;stroke-width:0.786;}
	.st7{fill:#F38AB3;stroke:#FFFFFF;stroke-width:0.786;}
	.st8{fill:#58595B;}
</style>
<g>
	<g>
		<path class="st0" d="M90.4,31h11.9v2.6h-8.9v7.1h7.6v2.6h-7.6v9.3h-3V31z"/>
		<path class="st0" d="M117.5,30.6c6.3,0,11.1,4.8,11.1,11c0,6.4-4.8,11.3-11.1,11.3c-6.3,0-11.1-5-11.1-11.3
			C106.4,35.4,111.3,30.6,117.5,30.6z M117.5,50.2c4.4,0,8-3.7,8-8.6c0-4.7-3.6-8.3-8-8.3c-4.4,0-8,3.6-8,8.3
			C109.5,46.5,113.1,50.2,117.5,50.2z"/>
		<path class="st0" d="M134.5,31h6.6c2.3,0,3.2,0.2,4,0.5c2.2,0.8,3.6,3,3.6,5.9c0,2.8-1.5,5.1-3.9,5.9v0.1c0,0,0.2,0.3,0.6,1
			l4.6,8.4h-3.4l-4.6-8.6h-4.6v8.6h-3V31z M141.9,41.4c2.4,0,3.8-1.5,3.8-3.9c0-1.6-0.6-2.7-1.7-3.3c-0.6-0.3-1.3-0.5-3-0.5h-3.5
			v7.8H141.9z"/>
		<path class="st0" d="M165.3,30.6c5.2,0,7.9,2.8,7.9,2.8l-1.5,2.3c0,0-2.5-2.4-6.3-2.4c-4.8,0-8,3.7-8,8.3c0,4.6,3.2,8.6,8,8.6
			c4.1,0,6.7-2.8,6.7-2.8l1.6,2.2c0,0-3,3.4-8.4,3.4c-6.5,0-11.1-5-11.1-11.3C154.3,35.4,159,30.6,165.3,30.6z"/>
		<path class="st0" d="M179.4,31h12.6v2.6h-9.5v6.8h7.8V43h-7.8v7h10.1v2.6h-13.1V31z"/>
	</g>
	<g>
		<path class="st1" d="M91,57.9h-0.6v-0.7h3.3c0.4,0,0.5,0.2,0.5,0.5v0.8h-0.8v-0.4c0-0.1-0.1-0.2-0.2-0.2h-1.5v2h2.1v0.7h-2.1v2.6
			H91V57.9z"/>
		<path class="st1" d="M97.3,60.5h0.2v0c0-0.8-0.3-1-1-1c-0.2,0-0.7,0.1-0.7,0.3V60H95v-0.4c0-0.7,1.1-0.8,1.5-0.8
			c1.4,0,1.8,0.7,1.8,1.7v1.8c0,0.1,0.1,0.2,0.2,0.2h0.4v0.7h-0.8c-0.4,0-0.5-0.2-0.5-0.5c0-0.1,0-0.3,0-0.3h0c0,0-0.3,0.9-1.4,0.9
			c-0.7,0-1.5-0.5-1.5-1.3C94.7,60.6,96.5,60.5,97.3,60.5z M96.3,62.7c0.7,0,1.2-0.7,1.2-1.4v-0.1h-0.2c-0.6,0-1.8,0-1.8,0.8
			C95.5,62.3,95.8,62.7,96.3,62.7z"/>
		<path class="st1" d="M101.6,58.8c0.5,0,1.6,0.2,1.6,1v0.4h-0.8v-0.2c0-0.3-0.5-0.4-0.8-0.4c-0.8,0-1.5,0.6-1.5,1.6
			c0,1,0.7,1.5,1.5,1.5c0.8,0,1.3-0.6,1.3-0.6l0.4,0.6c0,0-0.6,0.7-1.8,0.7c-1.4,0-2.3-1-2.3-2.3C99.2,59.8,100.2,58.8,101.6,58.8z"
			/>
		<path class="st1" d="M104.2,59.8c0-0.1-0.1-0.2-0.2-0.2h-0.4v-0.7h0.8c0.4,0,0.5,0.2,0.5,0.5v2.9c0,0.1,0.1,0.2,0.2,0.2h0.4v0.7
			h-0.8c-0.4,0-0.5-0.2-0.5-0.5V59.8z M104.2,57.2h0.7V58h-0.7V57.2z"/>
		<path class="st1" d="M106.5,59.8c0-0.1-0.1-0.2-0.2-0.2h-0.4v-0.7h0.8c0.4,0,0.5,0.2,0.5,0.5v0.2c0,0.1,0,0.2,0,0.2h0
			c0.2-0.4,0.7-1,1.6-1c1,0,1.5,0.6,1.5,1.7v1.9c0,0.1,0.1,0.2,0.2,0.2h0.4v0.7h-0.8c-0.4,0-0.5-0.2-0.5-0.5v-2
			c0-0.6-0.1-1.1-0.8-1.1c-0.7,0-1.2,0.4-1.4,1.1c-0.1,0.2-0.1,0.4-0.1,0.6v2h-0.8V59.8z"/>
		<path class="st1" d="M113.3,58.8c1.1,0,1.4,0.7,1.4,0.7h0c0,0,0-0.1,0-0.1c0-0.3,0.1-0.4,0.5-0.4h0.8v0.7h-0.3
			c-0.1,0-0.2,0.1-0.2,0.2V63c0,1.4-1.1,2-2.2,2c-0.5,0-1.1-0.1-1.5-0.4L112,64c0,0,0.5,0.3,1.2,0.3c0.8,0,1.4-0.3,1.4-1.2v-0.3
			c0-0.1,0-0.3,0-0.3h0c-0.3,0.4-0.7,0.7-1.3,0.7c-1.2,0-1.9-1-1.9-2.2C111.4,59.7,112.1,58.8,113.3,58.8z M114.6,61
			c0-1.1-0.6-1.5-1.2-1.5c-0.8,0-1.2,0.5-1.2,1.4c0,0.9,0.5,1.5,1.3,1.5C114.1,62.4,114.6,62.1,114.6,61z"/>
		<path class="st1" d="M121.7,57.1c1.7,0,3.1,1.3,3.1,3.1c0,1.8-1.4,3.2-3.1,3.2c-1.7,0-3.1-1.4-3.1-3.2
			C118.6,58.4,120,57.1,121.7,57.1z M121.7,62.5c1.2,0,2.2-1,2.2-2.4c0-1.3-1-2.3-2.2-2.3c-1.2,0-2.2,1-2.2,2.3
			C119.5,61.5,120.5,62.5,121.7,62.5z"/>
		<path class="st1" d="M125.8,59.8c0-0.1-0.1-0.2-0.2-0.2h-0.4v-0.7h0.8c0.4,0,0.6,0.2,0.6,0.5v2.1c0,0.6,0.1,1.1,0.8,1.1
			c0.9,0,1.4-0.8,1.4-1.6v-2h0.8v3.4c0,0.1,0.1,0.2,0.2,0.2h0.4v0.7h-0.8c-0.4,0-0.5-0.2-0.5-0.5v-0.2c0-0.1,0-0.2,0-0.2h0
			c-0.2,0.4-0.7,1-1.6,1c-1,0-1.5-0.5-1.5-1.7V59.8z"/>
		<path class="st1" d="M131.1,59.8c0-0.1-0.1-0.2-0.2-0.2h-0.4v-0.7h0.8c0.4,0,0.6,0.2,0.6,0.5v0.3c0,0.2,0,0.3,0,0.3h0
			c0.2-0.6,0.7-1.1,1.4-1.1c0.1,0,0.2,0,0.2,0v0.8c0,0-0.1,0-0.2,0c-0.5,0-1,0.4-1.2,1c-0.1,0.2-0.1,0.5-0.1,0.8v1.8h-0.8V59.8z"/>
		<path class="st1" d="M136.8,57.9h-0.6v-0.7h2.6c1.1,0,1.8,0.7,1.8,1.8c0,1-0.7,1.5-1.1,1.6v0c0,0,0.2,0.1,0.3,0.3l0.7,1.4
			c0.1,0.2,0.2,0.2,0.4,0.2h0.1v0.7h-0.4c-0.5,0-0.6-0.1-0.8-0.5l-0.8-1.6c-0.2-0.3-0.3-0.3-0.6-0.3h-0.8v2.4h-0.9V57.9z
			 M138.7,60.1c0.7,0,1-0.4,1-1.1c0-0.7-0.4-1.1-1-1.1h-1.1v2.2H138.7z"/>
		<path class="st1" d="M141.9,59.8c0-0.1-0.1-0.2-0.2-0.2h-0.4v-0.7h0.8c0.4,0,0.5,0.2,0.5,0.5v2.9c0,0.1,0.1,0.2,0.2,0.2h0.4v0.7
			h-0.8c-0.4,0-0.5-0.2-0.5-0.5V59.8z M141.9,57.2h0.7V58h-0.7V57.2z"/>
		<path class="st1" d="M144.1,62c0,0,0.5,0.6,1.3,0.6c0.4,0,0.8-0.2,0.8-0.6c0-0.8-2.4-0.7-2.4-2.1c0-0.8,0.7-1.2,1.6-1.2
			c0.5,0,1.4,0.2,1.4,0.8V60h-0.7v-0.2c0-0.3-0.4-0.4-0.7-0.4c-0.5,0-0.8,0.2-0.8,0.5c0,0.8,2.4,0.6,2.4,2.1c0,0.8-0.7,1.3-1.6,1.3
			c-1.2,0-1.7-0.8-1.7-0.8L144.1,62z"/>
		<path class="st1" d="M147.9,58.1c0-0.1-0.1-0.2-0.2-0.2h-0.4v-0.7h0.8c0.4,0,0.5,0.1,0.5,0.5v2.8h0.4c0.2,0,0.3,0,0.5-0.2l1-1.4h1
			l-1.2,1.6c-0.2,0.3-0.3,0.3-0.3,0.3v0c0,0,0.1,0.1,0.3,0.3l0.6,1.2c0.1,0.1,0.2,0.2,0.4,0.2h0.3v0.7H151c-0.4,0-0.5-0.1-0.7-0.4
			l-0.8-1.5c-0.1-0.2-0.3-0.2-0.4-0.2h-0.3v2h-0.8V58.1z"/>
		<path class="st1" d="M156.6,58.8c1.3,0,2.3,1,2.3,2.3c0,1.3-1,2.3-2.3,2.3s-2.3-1-2.3-2.3C154.2,59.7,155.3,58.8,156.6,58.8z
			 M156.6,62.6c0.8,0,1.5-0.7,1.5-1.6c0-0.9-0.7-1.5-1.5-1.5c-0.8,0-1.5,0.6-1.5,1.5C155.1,61.9,155.7,62.6,156.6,62.6z"/>
		<path class="st1" d="M159.9,59.5h-0.5v-0.7h0.5v-0.1c0-1.4,1.1-1.6,1.6-1.6c0.2,0,0.3,0,0.3,0v0.7c0,0-0.1,0-0.2,0
			c-0.3,0-0.9,0.1-0.9,0.9v0.1h1v0.7h-1v3.7h-0.8V59.5z"/>
		<path class="st1" d="M167.4,57.1c0.8,0,2.3,0.3,2.3,1.3V59h-0.8v-0.3c0-0.5-0.9-0.8-1.5-0.8c-1.2,0-2.2,0.9-2.2,2.3
			c0,1.3,1,2.4,2.2,2.4c1.2,0,1.9-0.8,1.9-0.8l0.5,0.6c0,0-0.9,1-2.4,1c-1.8,0-3.1-1.4-3.1-3.2C164.4,58.4,165.7,57.1,167.4,57.1z"
			/>
		<path class="st1" d="M173,60.5h0.2v0c0-0.8-0.3-1-1-1c-0.2,0-0.7,0.1-0.7,0.3V60h-0.8v-0.4c0-0.7,1.1-0.8,1.5-0.8
			c1.4,0,1.8,0.7,1.8,1.7v1.8c0,0.1,0.1,0.2,0.2,0.2h0.4v0.7h-0.8c-0.4,0-0.5-0.2-0.5-0.5c0-0.1,0-0.3,0-0.3h0c0,0-0.3,0.9-1.4,0.9
			c-0.7,0-1.5-0.5-1.5-1.3C170.4,60.6,172.3,60.5,173,60.5z M172,62.7c0.7,0,1.2-0.7,1.2-1.4v-0.1H173c-0.6,0-1.8,0-1.8,0.8
			C171.2,62.3,171.5,62.7,172,62.7z"/>
		<path class="st1" d="M175.4,59.8c0-0.1-0.1-0.2-0.2-0.2h-0.4v-0.7h0.8c0.4,0,0.5,0.2,0.5,0.5v0.2c0,0.1,0,0.2,0,0.2h0
			c0.2-0.4,0.7-1,1.6-1c1,0,1.5,0.6,1.5,1.7v1.9c0,0.1,0.1,0.2,0.2,0.2h0.4v0.7H179c-0.4,0-0.5-0.2-0.5-0.5v-2
			c0-0.6-0.1-1.1-0.8-1.1c-0.7,0-1.2,0.4-1.4,1.1c-0.1,0.2-0.1,0.4-0.1,0.6v2h-0.8V59.8z"/>
		<path class="st1" d="M182.6,58.8c0.5,0,1.6,0.2,1.6,1v0.4h-0.8v-0.2c0-0.3-0.5-0.4-0.8-0.4c-0.8,0-1.5,0.6-1.5,1.6
			c0,1,0.7,1.5,1.5,1.5c0.8,0,1.3-0.6,1.3-0.6l0.4,0.6c0,0-0.6,0.7-1.8,0.7c-1.4,0-2.3-1-2.3-2.3C180.3,59.8,181.2,58.8,182.6,58.8z
			"/>
		<path class="st1" d="M187,58.8c1.2,0,1.9,0.9,1.9,2c0,0.1,0,0.3,0,0.3h-3.2c0.1,0.9,0.7,1.4,1.5,1.4c0.7,0,1.3-0.5,1.3-0.5
			l0.4,0.6c0,0-0.6,0.6-1.7,0.6c-1.4,0-2.3-1-2.3-2.3C184.8,59.7,185.7,58.8,187,58.8z M188,60.5c0-0.7-0.5-1.1-1-1.1
			c-0.6,0-1.1,0.4-1.3,1.1H188z"/>
		<path class="st1" d="M189.9,59.8c0-0.1-0.1-0.2-0.2-0.2h-0.4v-0.7h0.8c0.4,0,0.6,0.2,0.6,0.5v0.3c0,0.2,0,0.3,0,0.3h0
			c0.2-0.6,0.7-1.1,1.4-1.1c0.1,0,0.2,0,0.2,0v0.8c0,0-0.1,0-0.2,0c-0.5,0-1,0.4-1.2,1c-0.1,0.2-0.1,0.5-0.1,0.8v1.8h-0.8V59.8z"/>
		<path class="st1" d="M91,66.9h-0.6v-0.7H94c0.4,0,0.5,0.2,0.5,0.5v0.8h-0.8V67c0-0.1-0.1-0.2-0.2-0.2h-1.7v1.9H94v0.7h-2.1v1.8
			c0,0.1,0.1,0.2,0.2,0.2h1.8c0.1,0,0.2-0.1,0.2-0.2v-0.4h0.8v0.8c0,0.4-0.2,0.5-0.5,0.5h-2.7c-0.4,0-0.5-0.2-0.5-0.5V66.9z"/>
		<path class="st1" d="M95.7,68.7c0-0.1-0.1-0.2-0.2-0.2h-0.4v-0.7h0.8c0.4,0,0.5,0.2,0.5,0.5v0.2c0,0.1,0,0.2,0,0.2h0
			c0.2-0.5,0.8-1,1.5-1c0.7,0,1.2,0.3,1.3,1h0c0.2-0.5,0.8-1,1.5-1c1,0,1.4,0.6,1.4,1.7v1.9c0,0.1,0.1,0.2,0.2,0.2h0.4v0.7H102
			c-0.4,0-0.5-0.2-0.5-0.5v-2c0-0.6-0.1-1.1-0.8-1.1c-0.6,0-1.1,0.5-1.2,1.1c0,0.2-0.1,0.4-0.1,0.6v2h-0.8v-2.6
			c0-0.6-0.1-1.1-0.7-1.1c-0.6,0-1.1,0.5-1.2,1.1c0,0.2-0.1,0.4-0.1,0.6v2h-0.8V68.7z"/>
		<path class="st1" d="M103.6,68.7c0-0.1-0.1-0.2-0.2-0.2h-0.4v-0.7h0.8c0.4,0,0.5,0.2,0.5,0.4c0,0.1,0,0.2,0,0.2h0
			c0,0,0.4-0.8,1.4-0.8c1.2,0,1.9,0.9,1.9,2.3c0,1.4-0.8,2.3-2,2.3c-1,0-1.3-0.7-1.3-0.7h0c0,0,0,0.2,0,0.4v1.9h-0.8V68.7z
			 M105.7,71.6c0.7,0,1.3-0.6,1.3-1.6c0-0.9-0.5-1.6-1.2-1.6c-0.6,0-1.3,0.5-1.3,1.6C104.4,70.8,104.9,71.6,105.7,71.6z"/>
		<path class="st1" d="M110.7,67.7c1.3,0,2.3,1,2.3,2.3c0,1.3-1,2.3-2.3,2.3s-2.3-1-2.3-2.3C108.3,68.7,109.4,67.7,110.7,67.7z
			 M110.7,71.6c0.8,0,1.5-0.7,1.5-1.6c0-0.9-0.7-1.5-1.5-1.5c-0.8,0-1.5,0.6-1.5,1.5C109.2,70.9,109.8,71.6,110.7,71.6z"/>
		<path class="st1" d="M113.6,68.7c0-0.1-0.1-0.2-0.3-0.2h-0.1v-0.7h0.5c0.4,0,0.5,0.1,0.6,0.5l0.8,2.6c0.1,0.2,0.1,0.5,0.1,0.5h0
			c0,0,0.1-0.2,0.1-0.5l0.9-3h0.8l0.9,3c0.1,0.2,0.1,0.5,0.1,0.5h0c0,0,0-0.2,0.1-0.5l0.8-2.6c0.1-0.4,0.3-0.5,0.7-0.5h0.5v0.7h-0.1
			c-0.1,0-0.2,0-0.3,0.2l-1.1,3.5h-0.9l-0.9-2.8c-0.1-0.2-0.1-0.5-0.1-0.5h0c0,0-0.1,0.2-0.1,0.5l-0.9,2.8h-0.9L113.6,68.7z"/>
		<path class="st1" d="M122.6,67.7c1.2,0,1.9,0.9,1.9,2c0,0.1,0,0.3,0,0.3h-3.2c0.1,0.9,0.7,1.4,1.5,1.4c0.7,0,1.3-0.5,1.3-0.5
			l0.4,0.6c0,0-0.6,0.6-1.7,0.6c-1.4,0-2.3-1-2.3-2.3C120.5,68.6,121.4,67.7,122.6,67.7z M123.7,69.5c0-0.7-0.5-1.1-1-1.1
			c-0.6,0-1.1,0.4-1.3,1.1H123.7z"/>
		<path class="st1" d="M125.6,68.7c0-0.1-0.1-0.2-0.2-0.2H125v-0.7h0.8c0.4,0,0.6,0.2,0.6,0.5v0.3c0,0.2,0,0.3,0,0.3h0
			c0.2-0.6,0.7-1.1,1.4-1.1c0.1,0,0.2,0,0.2,0v0.8c0,0-0.1,0-0.2,0c-0.5,0-1,0.4-1.2,1c-0.1,0.2-0.1,0.5-0.1,0.8v1.8h-0.8V68.7z"/>
		<path class="st1" d="M130.4,67.7c1.2,0,1.9,0.9,1.9,2c0,0.1,0,0.3,0,0.3h-3.2c0.1,0.9,0.7,1.4,1.5,1.4c0.7,0,1.3-0.5,1.3-0.5
			l0.4,0.6c0,0-0.6,0.6-1.7,0.6c-1.4,0-2.3-1-2.3-2.3C128.2,68.6,129.2,67.7,130.4,67.7z M131.4,69.5c0-0.7-0.5-1.1-1-1.1
			c-0.6,0-1.1,0.4-1.3,1.1H131.4z"/>
		<path class="st1" d="M134.9,67.7c1,0,1.3,0.7,1.3,0.7h0c0,0,0-0.1,0-0.3V67c0-0.1-0.1-0.2-0.2-0.2h-0.4v-0.7h0.8
			c0.4,0,0.5,0.2,0.5,0.5v4.6c0,0.1,0.1,0.2,0.2,0.2h0.4v0.7h-0.8c-0.4,0-0.5-0.2-0.5-0.5c0-0.1,0-0.2,0-0.2h0c0,0-0.4,0.8-1.4,0.8
			c-1.2,0-1.9-0.9-1.9-2.3C132.9,68.6,133.7,67.7,134.9,67.7z M136.2,70c0-0.8-0.4-1.5-1.2-1.5c-0.7,0-1.2,0.6-1.2,1.6
			c0,0.9,0.5,1.6,1.2,1.6C135.6,71.6,136.2,71.1,136.2,70z"/>
	</g>
	<path class="st2" d="M80.7,37.9c0-3.7-3-6.6-6.6-6.6H46.5c-3.7,0-6.6,3-6.6,6.6v27.6c0,3.7,3,6.6,6.6,6.6h27.6c3.7,0,6.6-3,6.6-6.6
		V37.9z"/>
	<g>
		<linearGradient id="SVGID_1_" gradientUnits="userSpaceOnUse" x1="50.6713" y1="47.4041" x2="76.9771" y2="84.9727">
			<stop  offset="0" style="stop-color:#FFFFFF"/>
			<stop  offset="8.776276e-02" style="stop-color:#F8FCFD"/>
			<stop  offset="0.2165" style="stop-color:#E4F5F7"/>
			<stop  offset="0.3706" style="stop-color:#C4E9EC"/>
			<stop  offset="0.5441" style="stop-color:#97D8DE"/>
			<stop  offset="0.7341" style="stop-color:#5DC3CC"/>
			<stop  offset="0.9348" style="stop-color:#18A9B7"/>
			<stop  offset="1" style="stop-color:#00A0AF"/>
		</linearGradient>
		<path class="st3" d="M73.9,31.3h-0.1l-7.9,7l2.4,15.3L31.8,68.4v4.9c0,4.5,3.6,8.1,8.1,8.1H82c0,0,0-3.6,0-8.1V39.4
			C82,34.9,78.4,31.3,73.9,31.3z"/>
		<linearGradient id="SVGID_2_" gradientUnits="userSpaceOnUse" x1="31.8148" y1="49.8453" x2="73.7373" y2="49.8453">
			<stop  offset="0" style="stop-color:#E977AF"/>
			<stop  offset="0.2121" style="stop-color:#F0A3C9"/>
			<stop  offset="0.4366" style="stop-color:#F7CBE0"/>
			<stop  offset="0.6425" style="stop-color:#FBE7F1"/>
			<stop  offset="0.8211" style="stop-color:#FEF9FB"/>
			<stop  offset="0.9522" style="stop-color:#FFFFFF"/>
		</linearGradient>
		<path class="st4" d="M65.8,38.3l7.9-7c0,0-25.2,0-34,0c-8.8,0-7.9,8.1-7.9,8.1v29.1l36.4-14.9L65.8,38.3z"/>
		<polygon class="st5" points="75.5,30.8 71.5,31.9 68.1,35.7 67.1,44.7 69.3,48.9 73.6,46.9 78.6,43.1 78.8,35.2 77.5,32.4 		"/>
		<path class="st6" d="M75.5,30.8c0,0,3.2,0.4,5,3.8c2.3,4.4,2.6,11.4-3.6,16.6c-9.7,8.2-45.4,24.6-45.4,24.6l-0.1-13.1
			C31.4,62.7,90.2,48.5,75.5,30.8z"/>
		<path class="st7" d="M69.2,44.1c-2.1-7.9,4.3-15,9-12.2c0,0-2.2-1.3-5.6-0.8C68.1,31.7,62,35.7,62,44c0,13.2,20.2,37.4,20.2,37.4
			l4.7-9.5C86.9,72,72.7,57.4,69.2,44.1z"/>
		<polygon class="st2" points="82.3,41.7 81.6,45 79.5,48.5 78,50.4 75.1,52.7 73.6,53.7 74.9,56.5 76.9,59.7 79,62.7 81.4,65.6 
			83.7,67.2 87.5,68.2 		"/>
	</g>
	<g>
		<path class="st8" d="M90.8,77.2C90.8,77,90.7,77,90.5,77h-0.1v-0.5h0.3c0.4,0,0.6,0.1,0.7,0.5l0.9,2.8c0.1,0.2,0.1,0.5,0.1,0.5h0
			c0,0,0.1-0.3,0.1-0.5l1.1-3.3h0.6l1.1,3.3c0.1,0.2,0.1,0.5,0.1,0.5h0c0,0,0.1-0.3,0.1-0.5l0.9-2.8c0.1-0.4,0.3-0.5,0.7-0.5h0.3V77
			h-0.1c-0.2,0-0.3,0-0.3,0.2l-1.3,3.7h-0.7l-1.1-3.2c-0.1-0.2-0.1-0.5-0.1-0.5h0c0,0-0.1,0.3-0.1,0.5l-1.1,3.2h-0.7L90.8,77.2z"/>
		<path class="st8" d="M98.7,77.2C98.7,77,98.6,77,98.4,77h-0.1v-0.5h0.3c0.4,0,0.6,0.1,0.7,0.5l0.9,2.8c0.1,0.2,0.1,0.5,0.1,0.5h0
			c0,0,0.1-0.3,0.1-0.5l1.1-3.3h0.6l1.1,3.3c0.1,0.2,0.1,0.5,0.1,0.5h0c0,0,0.1-0.3,0.1-0.5l0.9-2.8c0.1-0.4,0.3-0.5,0.7-0.5h0.3V77
			h-0.1c-0.2,0-0.3,0-0.3,0.2l-1.3,3.7h-0.7l-1.1-3.2c-0.1-0.2-0.1-0.5-0.1-0.5h0c0,0-0.1,0.3-0.1,0.5l-1.1,3.2H100L98.7,77.2z"/>
		<path class="st8" d="M106.6,77.2c-0.1-0.2-0.2-0.2-0.3-0.2h-0.1v-0.5h0.3c0.4,0,0.6,0.1,0.7,0.5l0.9,2.8c0.1,0.2,0.1,0.5,0.1,0.5
			h0c0,0,0.1-0.3,0.1-0.5l1.1-3.3h0.6l1.1,3.3c0.1,0.2,0.1,0.5,0.1,0.5h0c0,0,0.1-0.3,0.1-0.5l0.9-2.8c0.1-0.4,0.3-0.5,0.7-0.5h0.3
			V77h-0.1c-0.2,0-0.3,0-0.3,0.2l-1.3,3.7h-0.7l-1.1-3.2c-0.1-0.2-0.1-0.5-0.1-0.5h0c0,0-0.1,0.3-0.1,0.5l-1.1,3.2h-0.7L106.6,77.2z
			"/>
		<path class="st8" d="M114.3,80.2h0.7v0.7h-0.7V80.2z"/>
		<path class="st8" d="M116.9,77h-0.6v-0.5h0.6v-0.2c0-1.5,1-1.7,1.5-1.7c0.2,0,0.3,0,0.3,0v0.5c0,0-0.1,0-0.2,0c-0.3,0-1,0.1-1,1.1
			v0.2h1.1V77h-1.1v4h-0.6V77z"/>
		<path class="st8" d="M122.2,78.2h0.2v-0.1c0-0.9-0.3-1.3-1.2-1.3c-0.2,0-0.9,0.1-0.9,0.4v0.3h-0.6v-0.4c0-0.6,1.1-0.8,1.5-0.8
			c1.4,0,1.7,0.8,1.7,1.7v2.1c0,0.1,0.1,0.2,0.2,0.2h0.4v0.5H123c-0.4,0-0.5-0.2-0.5-0.5c0-0.2,0-0.3,0-0.3h0c0,0-0.4,1-1.5,1
			c-0.7,0-1.5-0.4-1.5-1.3C119.5,78.2,121.5,78.2,122.2,78.2z M121.1,80.5c0.9,0,1.4-0.9,1.4-1.7v-0.2h-0.3c-0.7,0-2.1,0-2.1,1
			C120.1,80.1,120.5,80.5,121.1,80.5z"/>
		<path class="st8" d="M127.1,76.3c0.5,0,1.6,0.2,1.6,0.9v0.4h-0.6v-0.3c0-0.4-0.6-0.6-1-0.6c-1,0-1.7,0.7-1.7,1.8
			c0,1.1,0.8,1.8,1.7,1.8c0.9,0,1.4-0.6,1.4-0.6l0.3,0.5c0,0-0.6,0.7-1.7,0.7c-1.3,0-2.3-0.9-2.3-2.3
			C124.7,77.3,125.7,76.3,127.1,76.3z"/>
		<path class="st8" d="M130.4,77.2c0-0.1-0.1-0.2-0.2-0.2h-0.4v-0.5h0.6c0.4,0,0.5,0.2,0.5,0.5v3.2c0,0.1,0.1,0.2,0.2,0.2h0.4v0.5
			h-0.6c-0.4,0-0.5-0.2-0.5-0.5V77.2z M130.4,74.7h0.6v0.8h-0.6V74.7z"/>
		<path class="st8" d="M133.1,77.2c0-0.1-0.1-0.2-0.2-0.2h-0.4v-0.5h0.6c0.4,0,0.5,0.2,0.5,0.5v0.2c0,0.2,0,0.3,0,0.3h0
			c0.2-0.4,0.7-1.1,1.8-1.1c1.1,0,1.5,0.6,1.5,1.7v2.1c0,0.1,0.1,0.2,0.2,0.2h0.4v0.5h-0.6c-0.4,0-0.5-0.2-0.5-0.5v-2.1
			c0-0.7-0.1-1.3-1-1.3c-0.8,0-1.4,0.5-1.6,1.3c-0.1,0.2-0.1,0.4-0.1,0.6v2.1h-0.6V77.2z"/>
		<path class="st8" d="M140.5,76.3c1.2,0,1.5,0.8,1.5,0.8h0c0,0,0-0.1,0-0.2c0-0.3,0.1-0.5,0.5-0.5h0.6V77h-0.4
			c-0.1,0-0.2,0.1-0.2,0.2v3.6c0,1.4-1,2-2.1,2c-0.5,0-1-0.1-1.5-0.4l0.2-0.5c0,0,0.6,0.3,1.2,0.3c0.9,0,1.6-0.4,1.6-1.4v-0.4
			c0-0.2,0-0.3,0-0.3h0c-0.3,0.5-0.7,0.8-1.4,0.8c-1.2,0-2-0.9-2-2.3S139.3,76.3,140.5,76.3z M142,78.6c0-1.3-0.6-1.7-1.4-1.7
			c-0.9,0-1.4,0.6-1.4,1.7s0.6,1.8,1.5,1.8C141.4,80.3,142,79.9,142,78.6z"/>
		<path class="st8" d="M146.6,76.3c1.3,0,2.4,1,2.4,2.3c0,1.3-1.1,2.4-2.4,2.4c-1.3,0-2.4-1-2.4-2.4
			C144.2,77.3,145.3,76.3,146.6,76.3z M146.6,80.5c0.9,0,1.7-0.8,1.7-1.8c0-1-0.8-1.8-1.7-1.8c-1,0-1.7,0.8-1.7,1.8
			C144.8,79.7,145.6,80.5,146.6,80.5z"/>
		<path class="st8" d="M150.6,77.2c0-0.1-0.1-0.2-0.2-0.2H150v-0.5h0.6c0.4,0,0.5,0.2,0.5,0.5v2.2c0,0.7,0.1,1.3,1,1.3
			c1,0,1.6-0.9,1.6-1.9v-2.1h0.6v3.7c0,0.1,0.1,0.2,0.2,0.2h0.4v0.5h-0.6c-0.4,0-0.5-0.2-0.5-0.5v-0.2c0-0.2,0-0.3,0-0.3h0
			c-0.2,0.4-0.8,1.1-1.7,1.1c-1.1,0-1.5-0.6-1.5-1.7V77.2z"/>
		<path class="st8" d="M156.4,77.2c0-0.1-0.1-0.2-0.2-0.2h-0.4v-0.5h0.6c0.4,0,0.5,0.2,0.5,0.5v0.3c0,0.2,0,0.3,0,0.3h0
			c0.2-0.7,0.7-1.2,1.4-1.2c0.1,0,0.2,0,0.2,0V77c0,0-0.1,0-0.2,0c-0.6,0-1.1,0.5-1.3,1.2c-0.1,0.3-0.1,0.6-0.1,0.9v1.9h-0.6V77.2z"
			/>
		<path class="st8" d="M160.2,77.2c0-0.1-0.1-0.2-0.2-0.2h-0.4v-0.5h0.6c0.4,0,0.5,0.2,0.5,0.5v0.3c0,0.2,0,0.3,0,0.3h0
			c0.2-0.7,0.7-1.2,1.4-1.2c0.1,0,0.2,0,0.2,0V77c0,0-0.1,0-0.2,0c-0.6,0-1.1,0.5-1.3,1.2c-0.1,0.3-0.1,0.6-0.1,0.9v1.9h-0.6V77.2z"
			/>
		<path class="st8" d="M164,77.2c0-0.1-0.1-0.2-0.2-0.2h-0.4v-0.5h0.6c0.4,0,0.5,0.2,0.5,0.5v3.2c0,0.1,0.1,0.2,0.2,0.2h0.4v0.5
			h-0.6c-0.4,0-0.5-0.2-0.5-0.5V77.2z M164,74.7h0.6v0.8H164V74.7z"/>
		<path class="st8" d="M166.5,79.8c0,0,0.5,0.7,1.4,0.7c0.5,0,0.9-0.2,0.9-0.7c0-1-2.5-0.8-2.5-2.2c0-0.8,0.7-1.2,1.6-1.2
			c0.5,0,1.4,0.2,1.4,0.8v0.4h-0.6v-0.2c0-0.3-0.5-0.5-0.8-0.5c-0.6,0-1,0.2-1,0.6c0,1,2.5,0.8,2.5,2.3c0,0.7-0.7,1.3-1.6,1.3
			c-1.2,0-1.7-0.8-1.7-0.8L166.5,79.8z"/>
		<path class="st8" d="M171.1,75.4c0-0.1-0.1-0.2-0.2-0.2h-0.4v-0.5h0.6c0.4,0,0.5,0.1,0.5,0.5v3h0.5c0.2,0,0.4-0.1,0.5-0.2l1.1-1.5
			h0.7l-1.3,1.6c-0.2,0.3-0.3,0.3-0.3,0.3v0c0,0,0.1,0.1,0.3,0.3l0.8,1.4c0.1,0.2,0.2,0.2,0.4,0.2h0.2v0.5h-0.4
			c-0.4,0-0.6-0.1-0.8-0.4l-0.9-1.6c-0.1-0.2-0.3-0.2-0.5-0.2h-0.4v2.2h-0.6V75.4z"/>
		<path class="st8" d="M175.9,80.2h0.7v0.7h-0.7V80.2z"/>
		<path class="st8" d="M180.3,76.3c1.3,0,2.4,1,2.4,2.3c0,1.3-1.1,2.4-2.4,2.4c-1.3,0-2.4-1-2.4-2.4C177.9,77.3,179,76.3,180.3,76.3
			z M180.3,80.5c0.9,0,1.7-0.8,1.7-1.8c0-1-0.8-1.8-1.7-1.8c-1,0-1.7,0.8-1.7,1.8C178.6,79.7,179.3,80.5,180.3,80.5z"/>
		<path class="st8" d="M184.3,77.2c0-0.1-0.1-0.2-0.2-0.2h-0.4v-0.5h0.6c0.4,0,0.5,0.2,0.5,0.5v0.3c0,0.2,0,0.3,0,0.3h0
			c0.2-0.7,0.7-1.2,1.4-1.2c0.1,0,0.2,0,0.2,0V77c0,0-0.1,0-0.2,0c-0.6,0-1.1,0.5-1.3,1.2c-0.1,0.3-0.1,0.6-0.1,0.9v1.9h-0.6V77.2z"
			/>
		<path class="st8" d="M189.4,76.3c1.2,0,1.5,0.8,1.5,0.8h0c0,0,0-0.1,0-0.2c0-0.3,0.1-0.5,0.5-0.5h0.6V77h-0.4
			c-0.1,0-0.2,0.1-0.2,0.2v3.6c0,1.4-1,2-2.1,2c-0.5,0-1-0.1-1.5-0.4l0.2-0.5c0,0,0.6,0.3,1.2,0.3c0.9,0,1.6-0.4,1.6-1.4v-0.4
			c0-0.2,0-0.3,0-0.3h0c-0.3,0.5-0.7,0.8-1.4,0.8c-1.2,0-2-0.9-2-2.3S188.2,76.3,189.4,76.3z M190.8,78.6c0-1.3-0.6-1.7-1.4-1.7
			c-0.9,0-1.4,0.6-1.4,1.7s0.6,1.8,1.5,1.8C190.2,80.3,190.8,79.9,190.8,78.6z"/>
	</g>
</g>
</svg>
