<?xml version="1.0" encoding="utf-8"?>
<!-- Generator: Adobe Illustrator 20.1.0, SVG Export Plug-In . SVG Version: 6.00 Build 0)  -->
<svg version="1.1" id="Layer_2" xmlns="http://www.w3.org/2000/svg" xmlns:xlink="http://www.w3.org/1999/xlink" x="0px" y="0px"
	 viewBox="0 0 644.9 276.4" style="enable-background:new 0 0 644.9 276.4;" xml:space="preserve">
<style type="text/css">
	.st0{fill:#EC0089;}
	.st1{fill:#343741;}
</style>
<path class="st0" d="M247.8,194.1l17.9,27.5c0,0,233.4-72.5,249.4-180.9L492.3,5.5c0,0-17.2-21.7-61.5,21.1
	c0,0-73.5,79.5-44.3,151.7c0,0,25.5,61.7,75.5,98.2l-7.7-20c0,0-58.7-26.6-57.8-84.4c0,0,18.3-130.3,99.3-146.2
	C495.6,25.8,474.7,124.2,247.8,194.1z"/>
<g>
	<g>
		<path class="st1" d="M63.3,113c0,13.1-10,22.7-23.6,22.7H13.2V90.9h26.3C53.5,90.9,63.3,100.5,63.3,113 M35.3,79.1H13.2V41.9h22.2
			c11.2,0,19.2,8,19.2,18.5C54.6,71.1,46.5,79.1,35.3,79.1 M52.8,83.6c9.5-3.7,15.1-12.4,15.1-23.8c0-17.5-13.9-30.2-31.7-30.2H0
			V148h40.6c20.7,0,36-14.9,36-35C76.5,98.2,68.4,86.9,52.8,83.6"/>
		<path class="st1" d="M284.2,135.1c-15.9,1.2-23-6.8-25.8-11.7c-3.4-5.9-8.8-15.9-12.9-23.4c1.9-0.4,3.9-0.8,5.7-1.5
			c13.1-5.2,22.3-17.8,22.3-33.5c0-20.4-16-35.3-35.5-35.3h-40.4V148h13.2v-46.8h20.2c4,7.5,11.4,21.3,15.8,28.9
			c3.3,5.7,13,18.4,34.1,18.4c1.3,0,2.7-0.1,4.1-0.2L284.2,135.1z M210.9,41.9h26.6c13.1,0,22.7,10,22.7,23.1
			c0,13.7-10,23.9-23.6,23.9h-25.8V41.9z"/>
	</g>
	<g>
		<path class="st1" d="M142.3,138.1c-27.8,0-48.4-21-48.4-49.2c0-28.2,20.5-49.2,48.4-49.2c14.1,0,26.2,5.3,34.7,14.4l8.6-8.6
			c-11.1-11.4-26.1-18.1-43.3-18.1c-34.1,0-61.6,26-61.6,61.4c0,35.5,27.5,61.4,61.6,61.4c16.9,0,32.2-6.6,43.2-18.1l-8.6-8.6
			C168.4,132.9,156.1,138.1,142.3,138.1z"/>
	</g>
	<polygon class="st1" points="296,148 309.3,148 309.3,92.3 361.9,92.3 361.9,80.1 309.3,80.1 309.3,41.9 369.9,41.9 369.9,29.7 
		296,29.7 	"/>
</g>
<g>
	<path class="st1" d="M530.7,77h7.1c3.5,0,6.2,2.5,6.2,5.9c0,2.2-1.1,3.9-3,4.6c3.1,0.6,4.6,2.9,4.6,5.7c0,3.9-3,6.8-7,6.8h-7.9V77z
		 M537.6,86.7c2.2,0,3.8-1.6,3.8-3.7c0-2.1-1.6-3.6-3.7-3.6h-4.3v7.3H537.6z M538.4,97.7c2.7,0,4.6-1.9,4.6-4.4
		c0-2.5-1.9-4.3-4.6-4.3h-5.1v8.8H538.4z"/>
	<path class="st1" d="M550.7,77h7.9c3.8,0,6.9,2.9,6.9,6.9c0,3.1-1.8,5.6-4.4,6.6l5.6,9.7h-3l-5.2-9.2h0h-5.2v9.2h-2.6V77z
		 M558.4,88.6c2.7,0,4.6-2,4.6-4.7c0-2.6-1.9-4.5-4.4-4.5h-5.2v9.2H558.4z"/>
	<path class="st1" d="M571.9,77H585v2.4h-10.5v7.3h9.9v2.4h-9.9v8.6h10.7v2.4h-13.3V77z"/>
	<path class="st1" d="M598.3,77h2l9.8,23.1h-2.8l-2.4-5.7h-11.2l-2.4,5.7h-2.8L598.3,77z M603.9,92l-4.6-11l-4.6,11H603.9z"/>
	<path class="st1" d="M614,94c1,2.5,2.9,4.2,5.8,4.2c4.2,0,4.6-2.9,4.6-4.1c0-2.8-1.9-3.7-5.2-5.1c-3.5-1.6-6.1-2.9-6.1-6.7
		c0-3.3,2.7-5.7,6.3-5.7c3,0,4.9,1.3,6.2,3.7l-2.2,1.1c-0.9-1.6-2.1-2.4-4-2.4c-2,0-3.7,1.4-3.7,3.3c0,2.5,1.9,3.3,4.7,4.5
		c4.2,1.9,6.5,3.4,6.5,7.3c0,3.7-2.5,6.5-7.3,6.5c-3.6,0-6.6-1.7-8-5.5L614,94z"/>
	<path class="st1" d="M636,79.4h-6.3V77h15.2v2.4h-6.3v20.7H636V79.4z"/>
	<path class="st1" d="M521.1,109.2c3.6,0,6.6,1.5,8.8,3.9l-1.8,1.6c-1.7-2-4.1-3.1-7.1-3.1c-5.4,0-9.5,4.1-9.5,9.6
		c0,5.5,4,9.6,9.5,9.6c2.9,0,5.5-1.2,7.2-3.3l1.8,1.6c-2.2,2.6-5.4,4-8.9,4c-6.7,0-12-5.1-12-12C509,114.3,514.4,109.2,521.1,109.2z
		"/>
	<path class="st1" d="M542.4,109.7h2l9.8,23.1h-2.8l-2.4-5.7h-11.2l-2.4,5.7h-2.8L542.4,109.7z M548,124.7l-4.6-11l-4.6,11H548z"/>
	<path class="st1" d="M558.2,109.7h2.3l14,18.5v-18.5h2.6v23.1h-2.1l-14.1-18.7v18.7h-2.6V109.7z"/>
	<path class="st1" d="M593.4,109.2c3.6,0,6.6,1.5,8.8,3.9l-1.8,1.6c-1.7-2-4.1-3.1-7.1-3.1c-5.4,0-9.5,4.1-9.5,9.6
		c0,5.5,4,9.6,9.5,9.6c2.9,0,5.5-1.2,7.2-3.3l1.8,1.6c-2.2,2.6-5.4,4-8.9,4c-6.7,0-12-5.1-12-12
		C581.4,114.3,586.7,109.2,593.4,109.2z"/>
	<path class="st1" d="M607.6,109.7h13.1v2.4h-10.5v7.3h9.9v2.4h-9.9v8.6h10.7v2.4h-13.3V109.7z"/>
	<path class="st1" d="M626.9,109.7h7.9c3.8,0,6.9,2.9,6.9,6.9c0,3.1-1.8,5.6-4.4,6.6l5.6,9.7h-3l-5.2-9.2h0h-5.2v9.2h-2.6V109.7z
		 M634.5,121.3c2.7,0,4.6-2,4.6-4.7c0-2.6-1.9-4.5-4.4-4.5h-5.2v9.2H634.5z"/>
	<path class="st1" d="M475.1,142.4h7.9c3.8,0,6.9,2.9,6.9,6.9c0,3.1-1.8,5.6-4.4,6.6l5.6,9.7h-3l-5.2-9.2h0h-5.2v9.2h-2.6V142.4z
		 M482.7,153.9c2.7,0,4.6-2,4.6-4.7c0-2.6-1.9-4.5-4.4-4.5h-5.2v9.2H482.7z"/>
	<path class="st1" d="M496,142.4H509v2.4h-10.5v7.3h9.9v2.4h-9.9v8.6h10.7v2.4H496V142.4z"/>
	<path class="st1" d="M515.5,159.4c1,2.5,2.9,4.2,5.8,4.2c4.2,0,4.6-2.9,4.6-4.1c0-2.8-1.9-3.7-5.2-5.1c-3.5-1.6-6.1-2.9-6.1-6.7
		c0-3.3,2.7-5.7,6.3-5.7c3,0,4.9,1.3,6.2,3.7l-2.2,1.1c-0.9-1.6-2.1-2.4-4-2.4c-2,0-3.7,1.4-3.7,3.3c0,2.5,1.9,3.3,4.7,4.5
		c4.2,1.9,6.5,3.4,6.5,7.3c0,3.7-2.5,6.5-7.3,6.5c-3.6,0-6.6-1.7-8-5.5L515.5,159.4z"/>
	<path class="st1" d="M534,142.4h13.1v2.4h-10.5v7.3h9.9v2.4h-9.9v8.6h10.7v2.4H534V142.4z"/>
	<path class="st1" d="M561.4,142.4h2l9.8,23.1h-2.8l-2.4-5.7h-11.2l-2.4,5.7h-2.8L561.4,142.4z M567,157.4l-4.6-11l-4.6,11H567z"/>
	<path class="st1" d="M577.6,142.4h7.9c3.8,0,6.9,2.9,6.9,6.9c0,3.1-1.8,5.6-4.4,6.6l5.6,9.7h-3l-5.2-9.2h0h-5.2v9.2h-2.6V142.4z
		 M585.2,153.9c2.7,0,4.6-2,4.6-4.7c0-2.6-1.9-4.5-4.4-4.5h-5.2v9.2H585.2z"/>
	<path class="st1" d="M608.4,141.9c3.6,0,6.6,1.5,8.8,3.9l-1.8,1.6c-1.7-2-4.1-3.1-7.1-3.1c-5.4,0-9.5,4.1-9.5,9.6s4,9.6,9.5,9.6
		c2.9,0,5.5-1.2,7.2-3.3l1.8,1.6c-2.2,2.6-5.4,4-8.9,4c-6.7,0-12-5.1-12-12C596.3,147,601.7,141.9,608.4,141.9z"/>
	<path class="st1" d="M622.2,142.4h2.6v9.7h12.8v-9.7h2.6v23.1h-2.6v-11.1h-12.8v11.1h-2.6V142.4z"/>
	<path class="st1" d="M428.5,175h12.1v2.4h-9.5v7.5h8.7v2.4h-8.7v10.9h-2.6V175z"/>
	<path class="st1" d="M456.4,174.6c6.7,0,12,5.1,12,12c0,6.9-5.4,12-12,12s-12-5.1-12-12C444.4,179.7,449.7,174.6,456.4,174.6z
		 M456.4,196.2c5.4,0,9.5-4.1,9.5-9.6c0-5.5-4-9.6-9.5-9.6c-5.4,0-9.5,4.1-9.5,9.6C446.9,192.1,451,196.2,456.4,196.2z"/>
	<path class="st1" d="M472.7,175h2.6v14.8c0,4.2,2.4,6.4,6.1,6.4c3.7,0,6.1-2.1,6.1-6.4V175h2.6v15c0,5.6-3.7,8.5-8.7,8.5
		c-5,0-8.7-2.9-8.7-8.5V175z"/>
	<path class="st1" d="M496.4,175h2.3l14,18.5V175h2.6v23.1h-2.1L499,179.4v18.7h-2.6V175z"/>
	<path class="st1" d="M521.7,175h7.4c7.5,0,11.9,4.7,11.9,11.6c0,6.8-4.4,11.5-11.9,11.5h-7.5V175z M529,195.8
		c6.4,0,9.5-3.8,9.5-9.2c0-5.4-3.1-9.2-9.6-9.2h-4.6v18.4H529z"/>
	<path class="st1" d="M552.1,175h2l9.8,23.1h-2.8l-2.4-5.7h-11.2l-2.4,5.7h-2.8L552.1,175z M557.8,190.1l-4.6-11l-4.6,11H557.8z"/>
	<path class="st1" d="M570,177.4h-6.3V175h15.2v2.4h-6.3v20.7H570V177.4z"/>
	<path class="st1" d="M584.5,175h2.6v23.1h-2.6V175z"/>
	<path class="st1" d="M604.3,174.6c6.7,0,12,5.1,12,12c0,6.9-5.4,12-12,12c-6.7,0-12-5.1-12-12C592.3,179.7,597.6,174.6,604.3,174.6
		z M604.3,196.2c5.4,0,9.5-4.1,9.5-9.6c0-5.5-4-9.6-9.5-9.6c-5.4,0-9.5,4.1-9.5,9.6C594.8,192.1,598.9,196.2,604.3,196.2z"/>
	<path class="st1" d="M621.4,175h2.3l14,18.5V175h2.6v23.1h-2.1L624,179.4v18.7h-2.6V175z"/>
</g>
</svg>
