<?xml version="1.0" encoding="utf-8"?>
<!-- Generator: Adobe Illustrator 18.1.1, SVG Export Plug-In . SVG Version: 6.00 Build 0)  -->
<svg version="1.1" id="Layer_1" xmlns="http://www.w3.org/2000/svg" xmlns:xlink="http://www.w3.org/1999/xlink" x="0px" y="0px"
	 viewBox="0 0 103.7 28.9" enable-background="new 0 0 103.7 28.9" xml:space="preserve">
<path fill="#6B1E74" d="M9.4,18.4v-4.9c0-1.9-0.7-3.1-2.3-3.1c-1.3,0-2.4,1.1-2.4,3.2v4.8c0,1,0,2.3,0.1,3H1.3c0-0.7,0.1-2,0.1-3V10
	H0c0.3-0.5,0.7-1.3,0.9-1.9h3.8v1.9c0.7-1.2,1.9-2.1,3.7-2.1c2,0,3.2,1,3.7,2.4c0.6-1.3,1.8-2.4,3.9-2.4c2.8,0,4.6,1.9,4.6,5.5v5.1
	c0,1.1,0,2.2,0.1,3h-3.5c0.1-0.9,0.1-2.3,0.1-3v-4.7c0-2.3-0.8-3.3-2.3-3.3c-1.3,0-2.4,1.1-2.4,3.2v4.8c0,1.1,0,2.2,0.1,3H9.3
	C9.4,20.6,9.4,19.6,9.4,18.4"/>
<path fill="#6B1E74" d="M30.3,18.9c2.1,0,3.9-1.9,3.9-4.2c0-2.3-1.8-4.2-3.9-4.2s-3.9,1.9-3.9,4.2C26.4,17,28.2,18.9,30.3,18.9
	 M23.2,1.9h-1.4c0.3-0.5,0.7-1.4,0.9-1.9h3.9c-0.1,0.6-0.1,2-0.1,3v7.2C27.3,8.7,29,7.8,31,7.8c3.9,0,6.5,3,6.5,6.8c0,4.1-3,7-6.8,7
	c-1.6,0-3.4-0.8-4.2-2.2c0,0.5,0,1.5,0.1,2h-3.5c0.1-0.9,0.1-2.3,0.1-3V1.9z"/>
<path fill="#6B1E74" d="M45.7,18.9c1.4,0,2.3-0.4,3-1.1v3.6c-1,0.1-1.6,0.3-3.1,0.3c-4.1,0-7.1-3.1-7.1-6.9c0-3.9,3-7,7.1-7
	c1.2,0,2.1,0.3,3,0.4v3.5c-0.7-0.6-1.5-1-2.9-1c-2.2,0-4,1.8-4,4.1C41.8,17,43.5,18.9,45.7,18.9"/>
<path fill="#6B1E74" d="M57.7,10.5c-1.6,0-2.7,1.3-2.7,3.2v4.8c0,0.8,0,2.2,0.1,3h-3.5c0.1-0.8,0.1-2.2,0.1-3V10h-1.4
	c0.4-0.6,0.7-1.3,0.9-1.9H55v1.8c0.7-1.2,2.1-2.1,3.9-2.1c3,0,4.7,2.1,4.7,6v4.6c0,0.8,0,2.2,0.1,3h-3.5c0.1-0.8,0.1-2.2,0.1-3v-4.6
	C60.2,11.6,59.1,10.5,57.7,10.5"/>
<path fill="#6B1E74" d="M72,10c0-0.5-0.1-1.1-0.1-1.5h0c-0.1,0.4-0.3,0.8-0.4,1.3l-0.6,1.7h-0.3L70,9.8c-0.2-0.5-0.3-0.9-0.4-1.4h0
	c0,0.4,0,1-0.1,1.5l-0.1,1.5H69L69.3,8h0.6l0.6,1.7c0.1,0.4,0.3,0.8,0.3,1.2h0c0.1-0.4,0.2-0.7,0.4-1.2L71.7,8h0.6l0.2,3.5H72L72,10
	z"/>
<polygon fill="#6B1E74" points="74.9,9.9 73.6,9.9 73.6,11.1 75,11.1 75,11.5 73.1,11.5 73.1,8 75,8 75,8.4 73.6,8.4 73.6,9.5 
	74.9,9.5 "/>
<polygon fill="#6B1E74" points="76.3,8.4 75.3,8.4 75.3,8 77.8,8 77.8,8.4 76.8,8.4 76.8,11.5 76.3,11.5 "/>
<path fill="#6B1E74" d="M79.5,10l-0.3-1C79,8.8,79,8.6,78.9,8.4h0c-0.1,0.2-0.1,0.4-0.2,0.6l-0.3,1H79.5z M78.3,10.4L78,11.5h-0.5
	L78.7,8h0.5l1.2,3.5h-0.5l-0.4-1.1H78.3z"/>
<path fill="#6B1E74" d="M80.8,10.9c0.2,0.1,0.5,0.2,0.8,0.2c0.4,0,0.7-0.2,0.7-0.6c0-0.3-0.2-0.5-0.6-0.7c-0.6-0.2-0.9-0.5-0.9-1
	c0-0.5,0.4-0.9,1.1-0.9c0.3,0,0.6,0.1,0.7,0.2l-0.1,0.4c-0.1-0.1-0.3-0.2-0.6-0.2c-0.5,0-0.6,0.3-0.6,0.5c0,0.3,0.2,0.5,0.7,0.7
	c0.6,0.2,0.9,0.5,0.9,1c0,0.5-0.4,1-1.2,1c-0.3,0-0.7-0.1-0.9-0.2L80.8,10.9z"/>
<polygon fill="#6B1E74" points="84,8.4 82.9,8.4 82.9,8 85.4,8 85.4,8.4 84.4,8.4 84.4,11.5 84,11.5 "/>
<path fill="#6B1E74" d="M87.1,10l-0.3-1c-0.1-0.2-0.1-0.4-0.2-0.6h0c0,0.2-0.1,0.4-0.2,0.6l-0.3,1H87.1z M86,10.4l-0.4,1.1h-0.5
	L86.3,8h0.5l1.2,3.5h-0.5l-0.4-1.1H86z"/>
<polygon fill="#6B1E74" points="88.8,8.4 87.7,8.4 87.7,8 90.2,8 90.2,8.4 89.2,8.4 89.2,11.5 88.8,11.5 "/>
<rect x="90.6" y="8" fill="#6B1E74" width="0.4" height="3.5"/>
<path fill="#6B1E74" d="M94.2,11.4c-0.2,0.1-0.5,0.2-0.9,0.2c-1,0-1.7-0.6-1.7-1.8c0-1.1,0.7-1.8,1.8-1.8c0.4,0,0.7,0.1,0.8,0.2
	l-0.1,0.4c-0.2-0.1-0.4-0.1-0.7-0.1c-0.8,0-1.3,0.5-1.3,1.4c0,0.9,0.5,1.4,1.3,1.4c0.3,0,0.5-0.1,0.7-0.1L94.2,11.4z"/>
<path fill="#6B1E74" d="M69.5,16c0.1,0,0.2,0,0.4,0c0.5,0,0.9-0.2,0.9-0.7c0-0.5-0.4-0.7-0.9-0.7h-0.4V16z M69.5,14.3h0.4
	c0.5,0,0.7-0.3,0.7-0.6c0-0.4-0.3-0.6-0.7-0.6c-0.2,0-0.3,0-0.4,0V14.3z M69.1,12.8c0.2,0,0.5-0.1,0.8-0.1c0.4,0,0.7,0.1,0.9,0.3
	c0.2,0.1,0.3,0.3,0.3,0.6c0,0.3-0.2,0.6-0.6,0.8v0c0.3,0.1,0.7,0.4,0.7,0.9c0,0.3-0.1,0.5-0.3,0.7c-0.2,0.2-0.6,0.3-1.2,0.3
	c-0.3,0-0.5,0-0.7,0V12.8z"/>
<path fill="#6B1E74" d="M72.3,14.4h0.4c0.5,0,0.8-0.3,0.8-0.7c0-0.5-0.3-0.7-0.8-0.7c-0.2,0-0.4,0-0.4,0V14.4z M71.8,12.8
	c0.2,0,0.5-0.1,0.8-0.1c0.5,0,0.8,0.1,1,0.3c0.2,0.2,0.3,0.4,0.3,0.7c0,0.5-0.3,0.8-0.6,0.9v0c0.3,0.1,0.4,0.3,0.5,0.7
	c0.1,0.5,0.2,0.8,0.3,1h-0.4c-0.1-0.1-0.1-0.4-0.2-0.8c-0.1-0.5-0.3-0.7-0.7-0.7h-0.4v1.5h-0.4V12.8z"/>
<polygon fill="#6B1E74" points="76.3,14.7 75,14.7 75,15.9 76.4,15.9 76.4,16.3 74.5,16.3 74.5,12.8 76.3,12.8 76.3,13.2 75,13.2 
	75,14.3 76.3,14.3 "/>
<path fill="#6B1E74" d="M78.6,14.8l-0.3-1c-0.1-0.2-0.1-0.4-0.2-0.6h0c-0.1,0.2-0.1,0.4-0.2,0.6l-0.3,1H78.6z M77.5,15.2l-0.4,1.1
	h-0.5l1.2-3.5h0.5l1.2,3.5h-0.5l-0.4-1.1H77.5z"/>
<path fill="#6B1E74" d="M80,15.7c0.2,0.1,0.5,0.2,0.8,0.2c0.4,0,0.7-0.2,0.7-0.6c0-0.3-0.2-0.5-0.6-0.7c-0.6-0.2-0.9-0.5-0.9-1
	c0-0.5,0.4-0.9,1.1-0.9c0.3,0,0.6,0.1,0.7,0.2l-0.1,0.4c-0.1-0.1-0.3-0.2-0.6-0.2c-0.5,0-0.6,0.3-0.6,0.5c0,0.3,0.2,0.5,0.7,0.7
	c0.6,0.2,0.9,0.5,0.9,1c0,0.5-0.4,1-1.2,1c-0.3,0-0.7-0.1-0.9-0.2L80,15.7z"/>
<polygon fill="#6B1E74" points="83.2,13.2 82.1,13.2 82.1,12.8 84.6,12.8 84.6,13.2 83.6,13.2 83.6,16.3 83.2,16.3 "/>
<path fill="#6B1E74" d="M88.4,16.2c-0.2,0.1-0.5,0.2-0.9,0.2c-1,0-1.7-0.6-1.7-1.8c0-1.1,0.7-1.8,1.8-1.8c0.4,0,0.7,0.1,0.8,0.2
	l-0.1,0.4c-0.2-0.1-0.4-0.1-0.7-0.1c-0.8,0-1.3,0.5-1.3,1.4c0,0.9,0.5,1.4,1.3,1.4c0.3,0,0.5-0.1,0.7-0.1L88.4,16.2z"/>
<path fill="#6B1E74" d="M90.7,14.8l-0.3-1c-0.1-0.2-0.1-0.4-0.2-0.6h0c-0.1,0.2-0.1,0.4-0.2,0.6l-0.3,1H90.7z M89.5,15.2l-0.4,1.1
	h-0.5l1.2-3.5h0.5l1.2,3.5h-0.5l-0.4-1.1H89.5z"/>
<path fill="#6B1E74" d="M92.1,16.3v-3.5h0.5l1.1,1.8c0.2,0.4,0.4,0.8,0.6,1.1l0,0c0-0.5,0-0.9,0-1.4v-1.5h0.4v3.5h-0.4l-1.1-1.8
	c-0.2-0.4-0.5-0.8-0.6-1.2l0,0c0,0.4,0,0.9,0,1.4v1.5H92.1z"/>
<path fill="#6B1E74" d="M97.7,16.2c-0.2,0.1-0.5,0.2-0.9,0.2c-1,0-1.7-0.6-1.7-1.8c0-1.1,0.7-1.8,1.8-1.8c0.4,0,0.7,0.1,0.8,0.2
	l-0.1,0.4c-0.2-0.1-0.4-0.1-0.7-0.1c-0.8,0-1.3,0.5-1.3,1.4c0,0.9,0.5,1.4,1.3,1.4c0.3,0,0.5-0.1,0.7-0.1L97.7,16.2z"/>
<polygon fill="#6B1E74" points="100,14.7 98.7,14.7 98.7,15.9 100.2,15.9 100.2,16.3 98.3,16.3 98.3,12.8 100.1,12.8 100.1,13.2 
	98.7,13.2 98.7,14.3 100,14.3 "/>
<path fill="#6B1E74" d="M101.2,14.4h0.4c0.5,0,0.8-0.3,0.8-0.7c0-0.5-0.3-0.7-0.8-0.7c-0.2,0-0.4,0-0.4,0V14.4z M100.7,12.8
	c0.2,0,0.5-0.1,0.8-0.1c0.5,0,0.8,0.1,1,0.3c0.2,0.2,0.3,0.4,0.3,0.7c0,0.5-0.3,0.8-0.6,0.9v0c0.3,0.1,0.4,0.3,0.5,0.7
	c0.1,0.5,0.2,0.8,0.3,1h-0.5c-0.1-0.1-0.1-0.4-0.2-0.8c-0.1-0.5-0.3-0.7-0.7-0.7h-0.4v1.5h-0.4V12.8z"/>
<path fill="#6B1E74" d="M69.1,21.1v-3.5h0.5l1.1,1.8c0.2,0.4,0.4,0.8,0.6,1.1l0,0c0-0.5,0-0.9,0-1.4v-1.5h0.4v3.5h-0.4l-1.1-1.8
	c-0.2-0.4-0.5-0.8-0.6-1.2l0,0c0,0.4,0,0.9,0,1.4v1.5H69.1z"/>
<polygon fill="#6B1E74" points="74.1,19.5 72.8,19.5 72.8,20.7 74.3,20.7 74.3,21.1 72.4,21.1 72.4,17.6 74.2,17.6 74.2,18 72.8,18 
	72.8,19.1 74.1,19.1 "/>
<polygon fill="#6B1E74" points="75.6,18 74.6,18 74.6,17.6 77.1,17.6 77.1,18 76,18 76,21.1 75.6,21.1 "/>
<path fill="#6B1E74" d="M78.2,21.1l-0.9-3.5h0.5l0.4,1.8c0.1,0.4,0.2,0.9,0.2,1.2h0c0.1-0.3,0.2-0.8,0.3-1.2l0.5-1.8h0.5l0.4,1.8
	c0.1,0.4,0.2,0.8,0.2,1.2h0c0.1-0.4,0.2-0.8,0.3-1.2l0.4-1.8h0.4l-1,3.5H80l-0.4-1.8c-0.1-0.4-0.2-0.8-0.2-1.1h0
	c-0.1,0.3-0.1,0.7-0.3,1.1l-0.5,1.8H78.2z"/>
<path fill="#6B1E74" d="M82.1,19.4c0,0.8,0.4,1.4,1.1,1.4c0.7,0,1.1-0.7,1.1-1.5c0-0.7-0.4-1.4-1.1-1.4
	C82.5,17.9,82.1,18.6,82.1,19.4 M84.8,19.3c0,1.2-0.7,1.8-1.6,1.8c-0.9,0-1.5-0.7-1.5-1.8c0-1.1,0.7-1.8,1.6-1.8
	C84.2,17.5,84.8,18.3,84.8,19.3"/>
<path fill="#6B1E74" d="M85.8,19.2h0.4c0.5,0,0.8-0.3,0.8-0.7c0-0.5-0.3-0.6-0.8-0.6c-0.2,0-0.4,0-0.4,0V19.2z M85.3,17.6
	c0.2,0,0.5-0.1,0.8-0.1c0.5,0,0.8,0.1,1,0.3c0.2,0.2,0.3,0.4,0.3,0.7c0,0.5-0.3,0.8-0.6,0.9v0c0.3,0.1,0.4,0.3,0.5,0.7
	c0.1,0.5,0.2,0.8,0.3,1h-0.5c-0.1-0.1-0.1-0.4-0.2-0.8c-0.1-0.5-0.3-0.7-0.7-0.7h-0.4v1.5h-0.4V17.6z"/>
<path fill="#6B1E74" d="M88,17.6h0.4v1.7h0c0.1-0.1,0.2-0.3,0.3-0.4l1-1.3h0.5l-1.2,1.5l1.3,2h-0.5l-1.1-1.7l-0.3,0.4v1.3H88V17.6z"
	/>
<rect x="66.1" y="7.8" fill="#6B1E74" width="0.5" height="13.4"/>
<polygon fill="#0033A0" points="3.4,27 1.9,27 1.9,28.4 3.6,28.4 3.6,28.8 1.4,28.8 1.4,24.9 3.5,24.9 3.5,25.4 1.9,25.4 1.9,26.6 
	3.4,26.6 "/>
<path fill="#0033A0" d="M4.8,28.4c0.1,0,0.3,0,0.5,0c1.1,0,1.6-0.6,1.6-1.6c0-0.9-0.5-1.5-1.6-1.5c-0.3,0-0.5,0-0.6,0.1V28.4z
	 M4.3,25c0.3-0.1,0.7-0.1,1.1-0.1c0.7,0,1.2,0.2,1.6,0.5c0.3,0.3,0.5,0.8,0.5,1.4c0,0.6-0.2,1.1-0.6,1.5c-0.4,0.4-1,0.6-1.7,0.6
	c-0.4,0-0.7,0-0.9,0V25z"/>
<path fill="#0033A0" d="M8.5,24.9v2.3c0,0.9,0.4,1.2,0.9,1.2c0.6,0,0.9-0.4,0.9-1.2v-2.3h0.5v2.2c0,1.2-0.6,1.7-1.5,1.7
	c-0.8,0-1.4-0.4-1.4-1.6v-2.3H8.5z"/>
<path fill="#0033A0" d="M14.4,28.7c-0.2,0.1-0.6,0.2-1,0.2c-1.1,0-1.9-0.7-1.9-2c0-1.2,0.8-2,2-2c0.5,0,0.8,0.1,0.9,0.2l-0.1,0.4
	c-0.2-0.1-0.5-0.2-0.8-0.2c-0.9,0-1.5,0.6-1.5,1.6c0,0.9,0.5,1.5,1.5,1.5c0.3,0,0.6-0.1,0.8-0.2L14.4,28.7z"/>
<path fill="#0033A0" d="M16.9,27.2l-0.4-1.1c-0.1-0.3-0.1-0.5-0.2-0.7h0c-0.1,0.2-0.1,0.5-0.2,0.7l-0.4,1.1H16.9z M15.6,27.6
	l-0.4,1.2h-0.5l1.3-3.9h0.6l1.3,3.9h-0.5L17,27.6H15.6z"/>
<polygon fill="#0033A0" points="18.8,25.4 17.7,25.4 17.7,24.9 20.5,24.9 20.5,25.4 19.3,25.4 19.3,28.8 18.8,28.8 "/>
<rect x="21" y="24.9" fill="#0033A0" width="0.5" height="3.8"/>
<path fill="#0033A0" d="M22.5,28.8v-3.8H23l1.2,1.9c0.3,0.5,0.5,0.9,0.7,1.2l0,0c0-0.5-0.1-1-0.1-1.6v-1.6h0.5v3.8h-0.5l-1.2-2
	c-0.3-0.4-0.5-0.9-0.7-1.3l0,0c0,0.5,0,0.9,0,1.6v1.6H22.5z"/>
<path fill="#0033A0" d="M29.1,28.6c-0.2,0.1-0.7,0.2-1.2,0.2c-0.6,0-1.1-0.1-1.4-0.5C26.2,28,26,27.5,26,26.9c0-1.2,0.8-2,2.1-2
	c0.4,0,0.8,0.1,1,0.2l-0.1,0.4c-0.2-0.1-0.5-0.2-0.9-0.2c-0.9,0-1.5,0.6-1.5,1.5c0,1,0.6,1.6,1.5,1.6c0.3,0,0.5,0,0.7-0.1v-1.1h-0.8
	v-0.4h1.3V28.6z"/>
<path fill="#0033A0" d="M30.9,27.3c0-0.3,0.3-0.6,0.6-0.6c0.3,0,0.6,0.3,0.6,0.6c0,0.3-0.3,0.6-0.6,0.6
	C31.2,27.9,30.9,27.6,30.9,27.3"/>
<polygon fill="#0033A0" points="36,27 34.5,27 34.5,28.4 36.1,28.4 36.1,28.8 34,28.8 34,24.9 36,24.9 36,25.4 34.5,25.4 34.5,26.6 
	36,26.6 "/>
<path fill="#0033A0" d="M40,27.1c0-0.5-0.1-1.2-0.1-1.7h0c-0.1,0.4-0.3,0.9-0.5,1.5l-0.7,1.9h-0.4l-0.6-1.8c-0.2-0.5-0.3-1-0.4-1.5
	h0c0,0.5,0,1.1-0.1,1.7l-0.1,1.7h-0.5l0.3-3.8h0.6l0.7,1.9c0.2,0.5,0.3,0.9,0.4,1.3h0c0.1-0.4,0.2-0.8,0.4-1.3l0.7-1.9h0.6l0.2,3.8
	h-0.5L40,27.1z"/>
<path fill="#0033A0" d="M41.9,26.8c0.1,0,0.2,0,0.4,0c0.6,0,1-0.3,1-0.8c0-0.5-0.4-0.8-0.9-0.8c-0.2,0-0.4,0-0.5,0V26.8z M41.4,25
	c0.2,0,0.6-0.1,1-0.1c0.5,0,0.9,0.1,1.1,0.3c0.2,0.2,0.3,0.5,0.3,0.8c0,0.3-0.1,0.6-0.3,0.8c-0.3,0.3-0.7,0.4-1.2,0.4
	c-0.1,0-0.3,0-0.4,0v1.5h-0.5V25z"/>
<path fill="#0033A0" d="M44.7,26.9c0,0.8,0.4,1.6,1.2,1.6s1.2-0.7,1.2-1.6c0-0.8-0.4-1.6-1.2-1.6C45.1,25.3,44.7,26,44.7,26.9
	 M47.7,26.8c0,1.3-0.8,2-1.8,2c-1,0-1.7-0.8-1.7-2c0-1.2,0.8-2,1.8-2C47,24.9,47.7,25.7,47.7,26.8"/>
<path fill="#0033A0" d="M48.9,28.8l-1-3.8h0.5l0.5,1.9c0.1,0.5,0.2,1,0.3,1.3h0c0.1-0.4,0.2-0.8,0.3-1.3l0.5-1.9h0.5l0.5,2
	c0.1,0.5,0.2,0.9,0.3,1.3h0c0.1-0.4,0.2-0.9,0.3-1.3l0.5-1.9h0.5l-1.1,3.8H51l-0.5-2c-0.1-0.5-0.2-0.9-0.2-1.3h0
	c-0.1,0.4-0.2,0.8-0.3,1.3l-0.5,2H48.9z"/>
<polygon fill="#0033A0" points="55.2,27 53.7,27 53.7,28.4 55.3,28.4 55.3,28.8 53.2,28.8 53.2,24.9 55.3,24.9 55.3,25.4 53.7,25.4 
	53.7,26.6 55.2,26.6 "/>
<path fill="#0033A0" d="M56.5,26.7h0.5c0.5,0,0.9-0.3,0.9-0.7c0-0.5-0.4-0.7-0.9-0.7c-0.2,0-0.4,0-0.5,0V26.7z M56,25
	c0.3,0,0.6-0.1,1-0.1c0.5,0,0.9,0.1,1.1,0.3c0.2,0.2,0.3,0.4,0.3,0.7c0,0.5-0.3,0.8-0.7,1v0c0.3,0.1,0.5,0.4,0.6,0.8
	c0.1,0.5,0.2,0.9,0.3,1.1H58c-0.1-0.1-0.1-0.4-0.3-0.9c-0.1-0.5-0.3-0.7-0.8-0.7h-0.5v1.7H56V25z"/>
<rect x="59.3" y="24.9" fill="#0033A0" width="0.5" height="3.8"/>
<path fill="#0033A0" d="M60.7,28.8v-3.8h0.5l1.2,1.9c0.3,0.5,0.5,0.9,0.7,1.2l0,0c0-0.5-0.1-1-0.1-1.6v-1.6h0.5v3.8h-0.5l-1.2-2
	c-0.3-0.4-0.5-0.9-0.7-1.3l0,0c0,0.5,0,0.9,0,1.6v1.6H60.7z"/>
<path fill="#0033A0" d="M67.4,28.6c-0.2,0.1-0.7,0.2-1.2,0.2c-0.6,0-1.1-0.1-1.4-0.5c-0.3-0.3-0.5-0.8-0.5-1.4c0-1.2,0.8-2,2.1-2
	c0.4,0,0.8,0.1,1,0.2l-0.1,0.4c-0.2-0.1-0.5-0.2-0.9-0.2c-0.9,0-1.5,0.6-1.5,1.5c0,1,0.6,1.6,1.5,1.6c0.3,0,0.5,0,0.7-0.1v-1.1h-0.8
	v-0.4h1.3V28.6z"/>
<path fill="#0033A0" d="M69.2,27.3c0-0.3,0.3-0.6,0.6-0.6c0.3,0,0.6,0.3,0.6,0.6c0,0.3-0.3,0.6-0.6,0.6
	C69.4,27.9,69.2,27.6,69.2,27.3"/>
<path fill="#0033A0" d="M74.1,27.2l-0.4-1.1c-0.1-0.3-0.1-0.5-0.2-0.7h0c-0.1,0.2-0.1,0.5-0.2,0.7L73,27.2H74.1z M72.8,27.6
	l-0.4,1.2h-0.5l1.3-3.9h0.6l1.3,3.9h-0.5l-0.4-1.2H72.8z"/>
<path fill="#0033A0" d="M76.2,28.4c0.1,0,0.3,0,0.5,0c1.1,0,1.6-0.6,1.6-1.6c0-0.9-0.5-1.5-1.6-1.5c-0.3,0-0.5,0-0.6,0.1V28.4z
	 M75.7,25c0.3-0.1,0.7-0.1,1.1-0.1c0.7,0,1.2,0.2,1.6,0.5c0.3,0.3,0.6,0.8,0.6,1.4c0,0.6-0.2,1.1-0.6,1.5c-0.4,0.4-1,0.6-1.7,0.6
	c-0.4,0-0.7,0-0.9,0V25z"/>
<path fill="#0033A0" d="M80.3,28.8L79,24.9h0.5l0.6,1.9c0.2,0.5,0.3,1,0.4,1.4h0c0.1-0.4,0.3-0.9,0.4-1.4l0.7-1.9h0.5l-1.4,3.8H80.3
	z"/>
<path fill="#0033A0" d="M82.8,26.9c0,0.8,0.4,1.6,1.2,1.6c0.8,0,1.2-0.7,1.2-1.6c0-0.8-0.4-1.6-1.2-1.6C83.2,25.3,82.8,26,82.8,26.9
	 M85.7,26.8c0,1.3-0.8,2-1.8,2c-1,0-1.7-0.8-1.7-2c0-1.2,0.8-2,1.8-2C85.1,24.9,85.7,25.7,85.7,26.8"/>
<path fill="#0033A0" d="M89,28.7c-0.2,0.1-0.5,0.2-1,0.2c-1.1,0-1.9-0.7-1.9-2c0-1.2,0.8-2,2-2c0.5,0,0.8,0.1,0.9,0.2l-0.1,0.4
	c-0.2-0.1-0.5-0.2-0.8-0.2c-0.9,0-1.5,0.6-1.5,1.6c0,0.9,0.5,1.5,1.5,1.5c0.3,0,0.6-0.1,0.8-0.2L89,28.7z"/>
<path fill="#0033A0" d="M91.5,27.2l-0.4-1.1c-0.1-0.3-0.1-0.5-0.2-0.7h0c-0.1,0.2-0.1,0.5-0.2,0.7l-0.4,1.1H91.5z M90.2,27.6
	l-0.4,1.2h-0.5l1.3-3.9h0.6l1.3,3.9H92l-0.4-1.2H90.2z"/>
<polygon fill="#0033A0" points="93.4,25.4 92.2,25.4 92.2,24.9 95.1,24.9 95.1,25.4 93.9,25.4 93.9,28.8 93.4,28.8 "/>
<rect x="95.6" y="24.9" fill="#0033A0" width="0.5" height="3.8"/>
<path fill="#0033A0" d="M97,28.8v-3.8h0.5l1.2,1.9c0.3,0.5,0.5,0.9,0.7,1.2l0,0c0-0.5-0.1-1-0.1-1.6v-1.6h0.5v3.8h-0.5l-1.2-2
	c-0.3-0.4-0.5-0.9-0.7-1.3l0,0c0,0.5,0,0.9,0,1.6v1.6H97z"/>
<path fill="#0033A0" d="M103.7,28.6c-0.2,0.1-0.7,0.2-1.2,0.2c-0.6,0-1.1-0.1-1.4-0.5c-0.3-0.3-0.5-0.8-0.5-1.4c0-1.2,0.8-2,2.1-2
	c0.4,0,0.8,0.1,1,0.2l-0.1,0.4c-0.2-0.1-0.5-0.2-0.9-0.2c-0.9,0-1.5,0.6-1.5,1.5c0,1,0.6,1.6,1.5,1.6c0.3,0,0.5,0,0.7-0.1v-1.1h-0.8
	v-0.4h1.3V28.6z"/>
</svg>
