<?xml version="1.0" encoding="utf-8"?>
<!-- Generator: Adobe Illustrator 18.1.1, SVG Export Plug-In . SVG Version: 6.00 Build 0)  -->
<svg version="1.1" id="Layer_1" xmlns="http://www.w3.org/2000/svg" xmlns:xlink="http://www.w3.org/1999/xlink" x="0px" y="0px"
	 viewBox="0 0 241.2 60" enable-background="new 0 0 241.2 60" xml:space="preserve">
<line fill="none" x1="274.1" y1="470" x2="274.1" y2="-322"/>
<g>
	<defs>
		<rect id="SVGID_1_" x="-36.6" y="-36.1" width="310.7" height="132.3"/>
	</defs>
	<clipPath id="SVGID_2_">
		<use xlink:href="#SVGID_1_"  overflow="visible"/>
	</clipPath>
	<g clip-path="url(#SVGID_2_)">
		<defs>
			<rect id="SVGID_3_" x="-36.6" y="-36.1" width="314.6" height="132.3"/>
		</defs>
		<clipPath id="SVGID_4_">
			<use xlink:href="#SVGID_3_"  overflow="visible"/>
		</clipPath>
	</g>
</g>
<path fill="#858385" d="M0,8V3.3C0,3,0.2,2.8,0.5,2.8h0.2c0.3,0,0.4,0.1,0.6,0.4l1.3,3l1.3-3c0.1-0.3,0.2-0.4,0.6-0.4h0.2
	C5,2.8,5.2,3,5.2,3.3V8c0,0.3-0.1,0.4-0.4,0.4H4.7C4.5,8.4,4.4,8.3,4.4,8V3.9L3.2,6.7C3.1,6.9,3,7.1,2.6,7.1C2.2,7.1,2.1,6.9,2,6.7
	L0.8,4v4c0,0.3-0.1,0.4-0.4,0.4H0.3C0.1,8.4,0,8.3,0,8"/>
<path fill="#858385" d="M8.4,7.8c0.7,0,1.1-0.3,1.3-0.7c0,0,0.4,0.1,0.4,0.4c0,0.4-0.6,0.9-1.8,0.9c-1.3,0-2.2-0.9-2.2-2.2
	c0-1.3,0.9-2.2,2.1-2.2c1.2,0,2,0.8,2,2.1v0.1c0,0.2-0.1,0.2-0.3,0.2H7C7,7.3,7.6,7.8,8.4,7.8 M9.4,6c0-0.7-0.5-1.2-1.2-1.2
	C7.6,4.8,7.1,5.3,7,6H9.4z"/>
<path fill="#858385" d="M11.1,5c-0.3,0-0.4-0.1-0.4-0.3V4.6c0-0.2,0.1-0.3,0.4-0.3h0.3V3.6c0-0.3,0.1-0.4,0.4-0.4h0.1
	c0.2,0,0.4,0.1,0.4,0.4v0.6h0.9c0.3,0,0.4,0.1,0.4,0.3v0.1c0,0.2-0.1,0.3-0.4,0.3h-0.9V7c0,0.5,0.1,0.8,0.5,0.8
	c0.3,0,0.5-0.1,0.6-0.3c0,0,0.2,0.1,0.2,0.4c0,0.3-0.4,0.6-1,0.6c-0.9,0-1.2-0.5-1.2-1.4V5H11.1z"/>
<path fill="#858385" d="M17,5.8c0-0.6-0.4-1-1-1c-0.6,0-1,0.3-1.2,0.7c0,0-0.5,0-0.5-0.4c0-0.4,0.6-1,1.8-1c1.2,0,1.8,0.6,1.8,1.6
	v2.5c0,0-0.2,0.1-0.3,0.1c-0.3,0-0.5-0.2-0.5-0.7c-0.3,0.4-0.8,0.7-1.5,0.7c-0.9,0-1.4-0.5-1.4-1.2c0-1,0.9-1.4,2.8-1.4L17,5.8
	L17,5.8z M17,6.8V6.4l-0.2,0c-1.2,0-1.8,0.3-1.8,0.8c0,0.4,0.3,0.6,0.8,0.6C16.5,7.9,17,7.4,17,6.8"/>
<path fill="#858385" d="M18.6,7.6c0-0.3,0.3-0.4,0.3-0.4c0.3,0.4,0.7,0.6,1.4,0.6c0.6,0,0.9-0.2,0.9-0.6c0-0.4-0.4-0.5-1.1-0.6
	c-0.6-0.1-1.5-0.3-1.5-1.2c0-0.8,0.6-1.3,1.6-1.3C21.4,4.2,22,4.6,22,5c0,0.3-0.3,0.4-0.3,0.4c-0.3-0.3-0.7-0.6-1.2-0.6
	c-0.6,0-0.9,0.2-0.9,0.6c0,0.4,0.4,0.5,1,0.6c0.6,0.1,1.5,0.3,1.5,1.2c0,0.8-0.7,1.3-1.7,1.3C19.2,8.5,18.6,8,18.6,7.6"/>
<path fill="#858385" d="M23,5c-0.3,0-0.4-0.1-0.4-0.3V4.6c0-0.2,0.1-0.3,0.4-0.3h0.3V3.6c0-0.3,0.1-0.4,0.4-0.4h0.1
	c0.2,0,0.4,0.1,0.4,0.4v0.6h0.9c0.3,0,0.4,0.1,0.4,0.3v0.1C25.4,4.8,25.3,5,25,5h-0.9V7c0,0.5,0.1,0.8,0.5,0.8
	c0.3,0,0.5-0.1,0.6-0.3c0,0,0.2,0.1,0.2,0.4c0,0.3-0.4,0.6-1,0.6c-0.9,0-1.2-0.5-1.2-1.4V5H23z"/>
<path fill="#858385" d="M28.8,5.8c0-0.6-0.4-1-1-1c-0.6,0-1,0.3-1.2,0.7c0,0-0.5,0-0.5-0.4c0-0.4,0.6-1,1.8-1c1.2,0,1.8,0.6,1.8,1.6
	v2.5c0,0-0.2,0.1-0.3,0.1c-0.3,0-0.5-0.2-0.5-0.7c-0.3,0.4-0.8,0.7-1.5,0.7c-0.9,0-1.4-0.5-1.4-1.2c0-1,0.9-1.4,2.8-1.4L28.8,5.8
	L28.8,5.8z M28.8,6.8V6.4l-0.2,0c-1.2,0-1.8,0.3-1.8,0.8c0,0.4,0.3,0.6,0.8,0.6C28.3,7.9,28.8,7.4,28.8,6.8"/>
<path fill="#858385" d="M30.7,5c-0.3,0-0.4-0.1-0.4-0.3V4.6c0-0.2,0.1-0.3,0.4-0.3H31V3.6c0-0.3,0.1-0.4,0.4-0.4h0.1
	c0.2,0,0.4,0.1,0.4,0.4v0.6h0.9c0.3,0,0.4,0.1,0.4,0.3v0.1C33.1,4.8,33,5,32.7,5h-0.9V7c0,0.5,0.1,0.8,0.5,0.8
	c0.3,0,0.5-0.1,0.6-0.3c0,0,0.2,0.1,0.2,0.4c0,0.3-0.4,0.6-1,0.6C31.4,8.5,31,8,31,7.1V5H30.7z"/>
<path fill="#858385" d="M33.9,2.9c0-0.3,0.2-0.5,0.5-0.5c0.3,0,0.5,0.2,0.5,0.5c0,0.3-0.2,0.5-0.5,0.5C34.1,3.4,33.9,3.2,33.9,2.9
	 M34,8V4.6c0-0.3,0.2-0.4,0.4-0.4h0.1c0.2,0,0.4,0.1,0.4,0.4V8c0,0.3-0.2,0.4-0.4,0.4h-0.1C34.1,8.4,34,8.3,34,8"/>
<path fill="#858385" d="M35.8,6.3c0-1.3,0.9-2.2,2.1-2.2c1.2,0,1.8,0.8,1.8,1.1c0,0.4-0.5,0.4-0.5,0.4c-0.2-0.5-0.5-0.8-1.2-0.8
	c-0.8,0-1.4,0.6-1.4,1.4c0,0.8,0.6,1.5,1.4,1.5c0.7,0,1.1-0.4,1.2-0.8c0,0,0.5,0,0.5,0.4c0,0.4-0.5,1.1-1.8,1.1
	C36.7,8.5,35.8,7.6,35.8,6.3"/>
<path fill="#858385" d="M42.1,7.9V3.3c0-0.3,0.2-0.5,0.5-0.5h1.8c1.2,0,1.9,0.5,1.9,1.4c0,0.6-0.3,1-1,1.2c0.8,0.2,1.2,0.7,1.2,1.4
	c0,1-0.7,1.6-2.1,1.6h-1.8C42.3,8.4,42.1,8.2,42.1,7.9 M44.4,5.3c0.7,0,1-0.3,1-0.9c0-0.5-0.3-0.8-1-0.8H43v1.7H44.4z M44.4,7.7
	c0.9,0,1.2-0.3,1.2-0.9c0-0.6-0.4-0.9-1.2-0.9H43v1.8H44.4z"/>
<path fill="#858385" d="M49.3,4.2c0.4,0,0.7,0.2,0.7,0.5c0,0.3-0.2,0.5-0.3,0.4C49.6,5,49.5,5,49.2,5c-0.7,0-0.9,0.7-0.9,1.6V8
	c0,0.3-0.2,0.4-0.4,0.4h-0.1c-0.2,0-0.4-0.1-0.4-0.4V4.3c0,0,0.1-0.1,0.3-0.1c0.3,0,0.5,0.1,0.5,0.7C48.5,4.4,48.8,4.2,49.3,4.2"/>
<path fill="#858385" d="M52.6,7.8c0.7,0,1.1-0.3,1.3-0.7c0,0,0.4,0.1,0.4,0.4c0,0.4-0.6,0.9-1.8,0.9c-1.3,0-2.2-0.9-2.2-2.2
	c0-1.3,0.9-2.2,2.1-2.2c1.2,0,2,0.8,2,2.1v0.1c0,0.2-0.1,0.2-0.3,0.2h-3C51.3,7.3,51.8,7.8,52.6,7.8 M53.7,6c0-0.7-0.5-1.2-1.2-1.2
	c-0.7,0-1.2,0.5-1.3,1.2H53.7z"/>
<path fill="#858385" d="M58,5.8c0-0.6-0.4-1-1-1c-0.6,0-1,0.3-1.2,0.7c0,0-0.5,0-0.5-0.4c0-0.4,0.6-1,1.8-1c1.2,0,1.8,0.6,1.8,1.6
	v2.5c0,0-0.2,0.1-0.3,0.1c-0.3,0-0.5-0.2-0.5-0.7c-0.3,0.4-0.9,0.7-1.5,0.7c-0.9,0-1.4-0.5-1.4-1.2c0-1,0.9-1.4,2.8-1.4L58,5.8
	L58,5.8z M58,6.8V6.4l-0.2,0c-1.2,0-1.8,0.3-1.8,0.8c0,0.4,0.3,0.6,0.8,0.6C57.5,7.9,58,7.4,58,6.8"/>
<path fill="#858385" d="M59.7,7.6c0-0.3,0.3-0.4,0.3-0.4c0.3,0.4,0.7,0.6,1.4,0.6c0.6,0,0.9-0.2,0.9-0.6c0-0.4-0.4-0.5-1.1-0.6
	c-0.6-0.1-1.4-0.3-1.4-1.2c0-0.8,0.6-1.3,1.6-1.3C62.5,4.2,63,4.6,63,5c0,0.3-0.3,0.4-0.3,0.4C62.4,5,62,4.8,61.5,4.8
	c-0.6,0-0.9,0.2-0.9,0.6c0,0.4,0.4,0.5,1,0.6c0.6,0.1,1.5,0.3,1.5,1.2c0,0.8-0.7,1.3-1.7,1.3C60.2,8.5,59.7,8,59.7,7.6"/>
<path fill="#858385" d="M64,5c-0.3,0-0.4-0.1-0.4-0.3V4.6c0-0.2,0.1-0.3,0.4-0.3h0.3V3.6c0-0.3,0.1-0.4,0.4-0.4h0.1
	c0.2,0,0.4,0.1,0.4,0.4v0.6h0.9c0.3,0,0.4,0.1,0.4,0.3v0.1c0,0.2-0.1,0.3-0.4,0.3h-0.9V7c0,0.5,0.1,0.8,0.5,0.8
	c0.3,0,0.5-0.1,0.6-0.3c0,0,0.2,0.1,0.2,0.4c0,0.3-0.4,0.6-1,0.6c-0.8,0-1.2-0.5-1.2-1.4V5H64z"/>
<path fill="#858385" d="M68.7,5.6c0-1.7,1.2-2.9,2.8-2.9c1.4,0,2.1,0.8,2.1,1.2c0,0.4-0.5,0.5-0.5,0.5c-0.3-0.6-0.9-0.9-1.6-0.9
	c-1.1,0-1.9,0.8-1.9,2.1c0,1.2,0.8,2.1,1.9,2.1c0.7,0,1.4-0.4,1.6-1c0,0,0.5,0.1,0.5,0.5c0,0.4-0.7,1.3-2.2,1.3
	C69.8,8.5,68.7,7.3,68.7,5.6"/>
<path fill="#858385" d="M77.2,5.8c0-0.6-0.4-1-1-1c-0.6,0-1,0.3-1.2,0.7c0,0-0.5,0-0.5-0.4c0-0.4,0.6-1,1.8-1c1.2,0,1.8,0.6,1.8,1.6
	v2.5c0,0-0.2,0.1-0.3,0.1c-0.3,0-0.5-0.2-0.5-0.7c-0.3,0.4-0.8,0.7-1.5,0.7c-0.9,0-1.4-0.5-1.4-1.2c0-1,0.9-1.4,2.8-1.4L77.2,5.8
	L77.2,5.8z M77.2,6.8V6.4l-0.2,0c-1.2,0-1.8,0.3-1.8,0.8c0,0.4,0.3,0.6,0.8,0.6C76.7,7.9,77.2,7.4,77.2,6.8"/>
<path fill="#858385" d="M81.4,4.2c1.1,0,1.6,0.7,1.6,1.8V8c0,0.3-0.2,0.4-0.4,0.4h-0.1c-0.2,0-0.4-0.1-0.4-0.4V6
	c0-0.7-0.4-1.1-1-1.1c-0.5,0-1,0.3-1.2,0.7V8c0,0.3-0.2,0.4-0.4,0.4h-0.1c-0.2,0-0.4-0.1-0.4-0.4V4.3c0,0,0.1-0.1,0.3-0.1
	c0.2,0,0.5,0.1,0.5,0.7C80.3,4.5,80.7,4.2,81.4,4.2"/>
<path fill="#858385" d="M83.8,6.3c0-1.3,0.9-2.2,2.1-2.2c1.2,0,1.8,0.8,1.8,1.1c0,0.4-0.5,0.4-0.5,0.4C87,5.2,86.7,4.9,86,4.9
	c-0.8,0-1.4,0.6-1.4,1.4c0,0.8,0.6,1.5,1.4,1.5c0.7,0,1.1-0.4,1.2-0.8c0,0,0.5,0,0.5,0.4c0,0.4-0.5,1.1-1.8,1.1
	C84.7,8.5,83.8,7.6,83.8,6.3"/>
<path fill="#858385" d="M90.5,7.8c0.7,0,1.1-0.3,1.3-0.7c0,0,0.4,0.1,0.4,0.4c0,0.4-0.6,0.9-1.8,0.9c-1.3,0-2.2-0.9-2.2-2.2
	c0-1.3,0.9-2.2,2.1-2.2c1.2,0,2,0.8,2,2.1v0.1c0,0.2-0.1,0.2-0.3,0.2h-3C89.2,7.3,89.7,7.8,90.5,7.8 M91.6,6c0-0.7-0.5-1.2-1.2-1.2
	c-0.7,0-1.2,0.5-1.3,1.2H91.6z"/>
<path fill="#858385" d="M95.2,4.2c0.4,0,0.7,0.2,0.7,0.5c0,0.3-0.2,0.5-0.3,0.4C95.5,5,95.3,5,95.1,5c-0.7,0-0.9,0.7-0.9,1.6V8
	c0,0.3-0.2,0.4-0.4,0.4h-0.1c-0.2,0-0.4-0.1-0.4-0.4V4.3c0,0,0.1-0.1,0.3-0.1c0.3,0,0.5,0.1,0.5,0.7C94.3,4.4,94.6,4.2,95.2,4.2"/>
<path fill="#A19E9F" d="M0.1,55.1l0.7-3.5H0.2c-0.3,0-0.4-0.1-0.4-0.2c0-0.1,0.1-0.4,0.2-0.5c0.1-0.1,0.2-0.1,0.3-0.1H1l0.1-0.6
	c0.1-0.7,0.4-0.9,0.7-0.9c0.2,0,0.3,0.1,0.3,0.1l-0.3,1.4h1.6c0.3,0,0.4,0.1,0.4,0.2c0,0.1-0.1,0.4-0.2,0.5
	c-0.1,0.1-0.2,0.1-0.3,0.1H1.7l-0.7,3.5c-0.2,1.2,0.1,1.6,0.8,1.6c0.4,0,0.8-0.2,0.9-0.4c0,0,0.2,0.2,0.2,0.4c0,0.2-0.1,0.3-0.2,0.4
	c-0.2,0.2-0.6,0.3-1,0.3C0.4,57.4-0.3,56.7,0.1,55.1"/>
<path fill="#A19E9F" d="M4.1,54.4c0-2,1.5-3.8,3.6-3.8c1.6,0,3,1.2,3,3c0,2-1.5,3.8-3.6,3.8C5.4,57.4,4.1,56.2,4.1,54.4 M9.8,53.7
	c0-1.3-0.9-2.3-2.1-2.3c-1.5,0-2.7,1.4-2.7,3c0,1.3,0.9,2.3,2.1,2.3C8.6,56.7,9.8,55.3,9.8,53.7"/>
<path fill="#A19E9F" d="M17.7,51.7c0.1-0.7,0.3-0.9,0.7-0.9c0.2,0,0.3,0.1,0.3,0.1l-1.3,6.3C17,59,15.9,60,14.1,60
	c-1.2,0-1.9-0.4-2.4-0.8c-0.3-0.3-0.5-0.6-0.5-0.9c0-0.6,0.6-0.7,0.6-0.6c0.3,0.9,1,1.6,2.3,1.6c1.2,0,2-0.7,2.3-2.1l0.2-1.1
	c-0.6,0.8-1.4,1.3-2.4,1.3c-1.4,0-2.7-1-2.7-2.9c0-1.9,1.6-3.8,3.6-3.8c1.1,0,1.9,0.6,2.3,1.4L17.7,51.7z M15.3,51.4
	c-1.6,0-2.7,1.5-2.7,3c0,1.3,0.9,2.1,1.9,2.1c1.2,0,2.4-0.9,2.6-2.2l0.3-1.2C17.1,52.1,16.4,51.4,15.3,51.4"/>
<path fill="#A19E9F" d="M20.3,54.8c0,1.1,0.7,1.9,1.9,1.9c1,0,1.7-0.4,2.2-1.1c0,0,0.5,0.1,0.5,0.4c0,0.2-0.1,0.3-0.3,0.6
	c-0.6,0.6-1.3,0.8-2.4,0.8c-1.8,0-2.8-1.1-2.8-2.6c0-2.3,1.8-4.2,4.1-4.2c1.5,0,2.3,0.7,2.3,1.7c0,1.3-0.9,2.1-3.8,2.1
	c-0.5,0-1,0-1.7-0.1C20.3,54.5,20.3,54.6,20.3,54.8 M21.9,53.7c2.3,0,3-0.6,3-1.3c0-0.5-0.5-1-1.5-1c-1.4,0-2.5,0.9-2.9,2.2
	C21,53.6,21.5,53.7,21.9,53.7"/>
<path fill="#A19E9F" d="M27,55.1l0.7-3.5h-0.6c-0.3,0-0.4-0.1-0.4-0.2c0-0.1,0.1-0.4,0.2-0.5c0.1-0.1,0.2-0.1,0.3-0.1h0.6l0.1-0.6
	c0.1-0.7,0.4-0.9,0.7-0.9c0.2,0,0.3,0.1,0.3,0.1l-0.3,1.4h1.6c0.3,0,0.4,0.1,0.4,0.2c0,0.1-0.1,0.4-0.2,0.5
	c-0.1,0.1-0.2,0.1-0.3,0.1h-1.7l-0.7,3.5c-0.2,1.2,0.1,1.6,0.8,1.6c0.4,0,0.7-0.2,0.9-0.4c0,0,0.2,0.2,0.2,0.4
	c0,0.2-0.1,0.3-0.2,0.4c-0.2,0.2-0.6,0.3-1,0.3C27.3,57.4,26.7,56.7,27,55.1"/>
<path fill="#A19E9F" d="M35.7,56.4c0-0.4,0.2-1,0.4-1.7c0.2-0.7,0.3-1.3,0.3-1.7c0-0.9-0.5-1.5-1.5-1.5c-1,0-1.7,0.5-2.3,1.6
	l-0.8,3.9c-0.1,0.3-0.2,0.4-0.4,0.4h-0.1c-0.2,0-0.4-0.1-0.4-0.4l1.8-8.5c0.1-0.3,0.2-0.4,0.4-0.4h0.1c0.2,0,0.4,0.1,0.4,0.4
	l-0.7,3.4c0.5-0.8,1.3-1.2,2.1-1.2c1.4,0,2.3,0.9,2.3,2.2c0,0.5-0.2,1.2-0.4,2c-0.2,0.7-0.3,1.2-0.3,1.5c0,0.4,0.2,0.5,0.6,0.5
	c0,0,0,0.6-0.6,0.6C36,57.4,35.7,57,35.7,56.4"/>
<path fill="#A19E9F" d="M39.3,54.8c0,1.1,0.7,1.9,1.9,1.9c1,0,1.7-0.4,2.2-1.1c0,0,0.5,0.1,0.5,0.4c0,0.2-0.1,0.3-0.3,0.6
	c-0.6,0.6-1.3,0.8-2.4,0.8c-1.8,0-2.8-1.1-2.8-2.6c0-2.3,1.8-4.2,4.1-4.2c1.5,0,2.3,0.7,2.3,1.7c0,1.3-0.9,2.1-3.8,2.1
	c-0.5,0-1,0-1.7-0.1C39.3,54.5,39.3,54.6,39.3,54.8 M41,53.7c2.3,0,3-0.6,3-1.3c0-0.5-0.5-1-1.5-1c-1.4,0-2.5,0.9-2.9,2.2
	C40.1,53.6,40.6,53.7,41,53.7"/>
<path fill="#A19E9F" d="M49,50.6c0.5,0,0.9,0.2,0.9,0.6c0,0.4-0.3,0.6-0.4,0.6c-0.2-0.2-0.4-0.4-0.8-0.4c-1,0-1.8,1.3-2.1,3.2
	l-0.5,2.3c-0.1,0.3-0.2,0.4-0.4,0.4h-0.1c-0.2,0-0.4-0.1-0.4-0.4l1.3-6.1c0,0,0.1,0,0.2,0c0.3,0,0.6,0.2,0.5,0.9l-0.1,0.3
	C47.7,51.1,48.2,50.6,49,50.6"/>
<path fill="#A19E9F" d="M53.5,56.7l0-3.9c0-1.1-0.3-1.3-0.9-1.4c0,0-0.1-0.7,0.7-0.7c0.3,0,0.5,0.1,0.7,0.3c0.3,0.3,0.5,0.9,0.4,1.9
	l-0.1,3.5l2.1-4.1c0.2-0.4,0.4-0.5,0.8-0.5c0.4,0,0.6,0.2,0.7,0.7l0.4,4l2.6-5.6c0,0,0.6-0.1,0.6,0.4c0,0.2,0,0.3-0.2,0.6l-2.4,5
	c-0.2,0.4-0.4,0.5-0.8,0.5c-0.4,0-0.6-0.2-0.6-0.7L57,52.8l-2.1,4c-0.2,0.4-0.4,0.5-0.8,0.5C53.7,57.3,53.5,57.1,53.5,56.7"/>
<path fill="#A19E9F" d="M62.8,54.8c0,1.1,0.7,1.9,1.9,1.9c1,0,1.7-0.4,2.2-1.1c0,0,0.5,0.1,0.5,0.4c0,0.2-0.1,0.3-0.3,0.6
	c-0.6,0.6-1.3,0.8-2.4,0.8c-1.8,0-2.8-1.1-2.8-2.6c0-2.3,1.8-4.2,4.1-4.2c1.5,0,2.3,0.7,2.3,1.7c0,1.3-0.9,2.1-3.8,2.1
	c-0.5,0-1,0-1.7-0.1C62.8,54.5,62.8,54.6,62.8,54.8 M64.5,53.7c2.3,0,3-0.6,3-1.3c0-0.5-0.5-1-1.5-1c-1.4,0-2.5,0.9-2.9,2.2
	C63.6,53.6,64.1,53.7,64.5,53.7"/>
<path fill="#A19E9F" d="M73.9,57.4c-1.4,0-2.6-1-2.6-2.7c0-2,1.5-4.1,3.7-4.1c1.1,0,1.9,0.6,2.3,1.4l0.1-0.3
	c0.1-0.7,0.3-0.9,0.7-0.9c0.2,0,0.3,0.1,0.3,0.1l-1.1,5c-0.1,0.6,0,0.9,0.6,0.9c0,0,0.1,0.6-0.6,0.6c-0.7,0-1-0.5-0.9-1.3
	C75.8,57,74.9,57.4,73.9,57.4 M74.9,51.4c-1.7,0-2.7,1.7-2.7,3.3c0,1.3,0.8,2,1.8,2c1.4,0,2.5-1.2,2.8-2.5l0.2-1.1
	C76.7,52.1,76,51.4,74.9,51.4"/>
<path fill="#A19E9F" d="M82.7,50.6c0.5,0,0.9,0.2,0.9,0.6c0,0.4-0.3,0.6-0.4,0.6c-0.2-0.2-0.4-0.4-0.8-0.4c-1,0-1.8,1.3-2.1,3.2
	l-0.5,2.3c-0.1,0.3-0.2,0.4-0.4,0.4h-0.1c-0.2,0-0.4-0.1-0.4-0.4l1.3-6.1c0,0,0.1,0,0.2,0c0.3,0,0.6,0.2,0.5,0.9l-0.1,0.3
	C81.4,51.1,81.9,50.6,82.7,50.6"/>
<path fill="#A19E9F" d="M84.6,54.8c0,1.1,0.7,1.9,1.9,1.9c1,0,1.7-0.4,2.2-1.1c0,0,0.5,0.1,0.5,0.4c0,0.2-0.1,0.3-0.3,0.6
	c-0.6,0.6-1.3,0.8-2.4,0.8c-1.8,0-2.8-1.1-2.8-2.6c0-2.3,1.8-4.2,4.1-4.2c1.5,0,2.3,0.7,2.3,1.7c0,1.3-0.9,2.1-3.8,2.1
	c-0.5,0-1,0-1.7-0.1C84.6,54.5,84.6,54.6,84.6,54.8 M86.3,53.7c2.3,0,3-0.6,3-1.3c0-0.5-0.5-1-1.5-1c-1.4,0-2.5,0.9-2.9,2.2
	C85.4,53.6,85.9,53.7,86.3,53.7"/>
<path fill="#A19E9F" d="M93,56.6c-0.2-0.2-0.3-0.4-0.3-0.6c0-0.4,0.5-0.6,0.5-0.5c0.4,0.7,1.2,1.2,2.3,1.2c1,0,1.6-0.4,1.6-1.1
	c0-0.6-0.6-0.8-1.5-1.2c-0.9-0.3-2-0.7-2-1.9c0-1.1,1-1.9,2.4-1.9c1,0,1.7,0.3,2.1,0.8c0.2,0.2,0.3,0.4,0.3,0.7
	c0,0.4-0.5,0.5-0.5,0.5c-0.3-0.7-1.1-1.1-2-1.1c-1,0-1.5,0.5-1.5,1.1c0,0.6,0.7,0.9,1.6,1.2c0.9,0.3,1.9,0.7,1.9,1.8
	c0,1.2-0.9,2-2.5,2C94.4,57.4,93.5,57.1,93,56.6"/>
<path fill="#A19E9F" d="M99.8,55.1l0.7-3.5H100c-0.3,0-0.4-0.1-0.4-0.2c0-0.1,0.1-0.4,0.2-0.5c0.1-0.1,0.2-0.1,0.3-0.1h0.6l0.1-0.6
	c0.1-0.7,0.4-0.9,0.7-0.9c0.2,0,0.3,0.1,0.3,0.1l-0.3,1.4h1.6c0.3,0,0.4,0.1,0.4,0.2c0,0.1-0.1,0.4-0.2,0.5
	c-0.1,0.1-0.2,0.1-0.3,0.1h-1.7l-0.7,3.5c-0.2,1.2,0.1,1.6,0.8,1.6c0.4,0,0.7-0.2,0.9-0.4c0,0,0.2,0.2,0.2,0.4
	c0,0.2-0.1,0.3-0.2,0.4c-0.2,0.2-0.6,0.3-1,0.3C100.2,57.4,99.5,56.7,99.8,55.1"/>
<path fill="#A19E9F" d="M107.6,50.6c0.5,0,0.9,0.2,0.9,0.6c0,0.4-0.3,0.6-0.4,0.6c-0.2-0.2-0.4-0.4-0.8-0.4c-1,0-1.8,1.3-2.1,3.2
	l-0.5,2.3c-0.1,0.3-0.2,0.4-0.4,0.4h-0.1c-0.2,0-0.4-0.1-0.4-0.4l1.3-6.1c0,0,0.1,0,0.2,0c0.3,0,0.6,0.2,0.5,0.9l-0.1,0.3
	C106.2,51.1,106.8,50.6,107.6,50.6"/>
<path fill="#A19E9F" d="M108.6,54.4c0-2,1.5-3.8,3.6-3.8c1.6,0,3,1.2,3,3c0,2-1.5,3.8-3.6,3.8C109.9,57.4,108.6,56.2,108.6,54.4
	 M114.3,53.7c0-1.3-0.9-2.3-2.1-2.3c-1.5,0-2.7,1.4-2.7,3c0,1.3,0.9,2.3,2.1,2.3C113.2,56.7,114.3,55.3,114.3,53.7"/>
<path fill="#A19E9F" d="M120.1,50.6c1.4,0,2.3,0.9,2.3,2.2c0,0.5-0.2,1.2-0.4,2c-0.2,0.7-0.3,1.2-0.3,1.5c0,0.4,0.2,0.5,0.6,0.5
	c0,0,0,0.6-0.6,0.6c-0.5,0-0.9-0.4-0.9-1c0-0.4,0.2-1,0.4-1.7c0.2-0.7,0.3-1.3,0.3-1.7c0-0.9-0.5-1.5-1.5-1.5c-1,0-1.7,0.5-2.3,1.6
	l-0.8,3.9c-0.1,0.3-0.2,0.4-0.4,0.4h-0.1c-0.2,0-0.4-0.1-0.4-0.4l1.3-6.1c0,0,0.1,0,0.2,0c0.3,0,0.6,0.2,0.5,0.9l0,0.2
	C118.5,51.1,119.3,50.6,120.1,50.6"/>
<path fill="#A19E9F" d="M129.6,51.7c0.1-0.7,0.3-0.9,0.7-0.9c0.2,0,0.3,0.1,0.3,0.1l-1.3,6.3c-0.4,1.8-1.5,2.8-3.3,2.8
	c-1.2,0-1.9-0.4-2.4-0.8c-0.3-0.3-0.5-0.6-0.5-0.9c0-0.6,0.6-0.7,0.6-0.6c0.3,0.9,1,1.6,2.3,1.6c1.2,0,2-0.7,2.3-2.1l0.2-1.1
	c-0.6,0.8-1.4,1.3-2.4,1.3c-1.4,0-2.7-1-2.7-2.9c0-1.9,1.6-3.8,3.6-3.8c1.1,0,1.9,0.6,2.3,1.4L129.6,51.7z M127.2,51.4
	c-1.6,0-2.7,1.5-2.7,3c0,1.3,0.9,2.1,1.9,2.1c1.2,0,2.4-0.9,2.6-2.2l0.3-1.2C129,52.1,128.3,51.4,127.2,51.4"/>
<path fill="#A19E9F" d="M132.2,54.8c0,1.1,0.7,1.9,1.9,1.9c1,0,1.7-0.4,2.2-1.1c0,0,0.5,0.1,0.5,0.4c0,0.2-0.1,0.3-0.3,0.6
	c-0.6,0.6-1.3,0.8-2.4,0.8c-1.8,0-2.8-1.1-2.8-2.6c0-2.3,1.8-4.2,4.1-4.2c1.5,0,2.3,0.7,2.3,1.7c0,1.3-0.9,2.1-3.8,2.1
	c-0.5,0-1,0-1.7-0.1C132.2,54.5,132.2,54.6,132.2,54.8 M133.8,53.7c2.3,0,3-0.6,3-1.3c0-0.5-0.5-1-1.5-1c-1.4,0-2.5,0.9-2.9,2.2
	C132.9,53.6,133.4,53.7,133.8,53.7"/>
<path fill="#A19E9F" d="M141.9,50.6c0.5,0,0.9,0.2,0.9,0.6c0,0.4-0.3,0.6-0.4,0.6c-0.2-0.2-0.4-0.4-0.8-0.4c-1,0-1.8,1.3-2.1,3.2
	l-0.5,2.3c-0.1,0.3-0.2,0.4-0.4,0.4h-0.1c-0.2,0-0.4-0.1-0.4-0.4l1.3-6.1c0,0,0.1,0,0.2,0c0.3,0,0.6,0.2,0.5,0.9l-0.1,0.3
	C140.5,51.1,141.1,50.6,141.9,50.6"/>
<path fill="#A19E9F" d="M145.9,55.1l0.7-3.5h-0.6c-0.3,0-0.4-0.1-0.4-0.2c0-0.1,0.1-0.4,0.2-0.5c0.1-0.1,0.2-0.1,0.3-0.1h0.6
	l0.1-0.6c0.1-0.7,0.4-0.9,0.7-0.9c0.2,0,0.3,0.1,0.3,0.1l-0.3,1.4h1.6c0.3,0,0.4,0.1,0.4,0.2c0,0.1-0.1,0.4-0.2,0.5
	c-0.1,0.1-0.2,0.1-0.3,0.1h-1.7l-0.7,3.5c-0.2,1.2,0.1,1.6,0.8,1.6c0.4,0,0.7-0.2,0.9-0.4c0,0,0.2,0.2,0.2,0.4
	c0,0.2-0.1,0.3-0.2,0.4c-0.2,0.2-0.6,0.3-1,0.3C146.3,57.4,145.6,56.7,145.9,55.1"/>
<path fill="#A19E9F" d="M154.7,56.4c0-0.4,0.2-1,0.4-1.7c0.2-0.7,0.3-1.3,0.3-1.7c0-0.9-0.5-1.5-1.5-1.5c-1,0-1.7,0.5-2.3,1.6
	l-0.8,3.9c-0.1,0.3-0.2,0.4-0.4,0.4h-0.1c-0.2,0-0.4-0.1-0.4-0.4l1.8-8.5c0.1-0.3,0.2-0.4,0.4-0.4h0.1c0.2,0,0.4,0.1,0.4,0.4
	l-0.7,3.4c0.5-0.8,1.3-1.2,2.1-1.2c1.4,0,2.3,0.9,2.3,2.2c0,0.5-0.2,1.2-0.4,2c-0.2,0.7-0.3,1.2-0.3,1.5c0,0.4,0.2,0.5,0.6,0.5
	c0,0,0,0.6-0.6,0.6C155,57.4,154.7,57,154.7,56.4"/>
<path fill="#A19E9F" d="M160,57.4c-1.4,0-2.6-1-2.6-2.7c0-2,1.5-4.1,3.7-4.1c1.1,0,1.9,0.6,2.3,1.4l0.1-0.3c0.1-0.7,0.3-0.9,0.7-0.9
	c0.2,0,0.3,0.1,0.3,0.1l-1.1,5c-0.1,0.6,0,0.9,0.6,0.9c0,0,0.1,0.6-0.6,0.6c-0.7,0-1-0.5-0.9-1.3C161.9,57,161,57.4,160,57.4
	 M161,51.4c-1.7,0-2.7,1.7-2.7,3.3c0,1.3,0.8,2,1.8,2c1.4,0,2.5-1.2,2.8-2.5l0.2-1.1C162.9,52.1,162.2,51.4,161,51.4"/>
<path fill="#A19E9F" d="M169.2,50.6c1.4,0,2.3,0.9,2.3,2.2c0,0.5-0.2,1.2-0.4,2c-0.2,0.7-0.3,1.2-0.3,1.5c0,0.4,0.2,0.5,0.6,0.5
	c0,0,0,0.6-0.6,0.6c-0.5,0-0.9-0.4-0.9-1c0-0.4,0.2-1,0.4-1.7c0.2-0.7,0.3-1.3,0.3-1.7c0-0.9-0.5-1.5-1.5-1.5c-1,0-1.7,0.5-2.3,1.6
	l-0.8,3.9c-0.1,0.3-0.2,0.4-0.4,0.4h-0.1c-0.2,0-0.4-0.1-0.4-0.4l1.3-6.1c0,0,0.1,0,0.2,0c0.3,0,0.6,0.2,0.5,0.9l0,0.2
	C167.5,51.1,168.3,50.6,169.2,50.6"/>
<path fill="#A19E9F" d="M175.6,55.1l0.7-3.5h-0.6c-0.3,0-0.4-0.1-0.4-0.2c0-0.1,0.1-0.4,0.2-0.5c0.1-0.1,0.2-0.1,0.3-0.1h0.6
	l0.1-0.6c0.1-0.7,0.4-0.9,0.7-0.9c0.2,0,0.3,0.1,0.3,0.1l-0.3,1.4h1.6c0.3,0,0.4,0.1,0.4,0.2c0,0.1-0.1,0.4-0.2,0.5
	c-0.1,0.1-0.2,0.1-0.3,0.1h-1.7l-0.8,3.5c-0.2,1.2,0.1,1.6,0.8,1.6c0.4,0,0.7-0.2,0.9-0.4c0,0,0.2,0.2,0.2,0.4
	c0,0.2-0.1,0.3-0.2,0.4c-0.2,0.2-0.6,0.3-1,0.3C175.9,57.4,175.2,56.7,175.6,55.1"/>
<path fill="#A19E9F" d="M184.3,56.4c0-0.4,0.2-1,0.4-1.7c0.2-0.7,0.3-1.3,0.3-1.7c0-0.9-0.5-1.5-1.5-1.5c-1,0-1.7,0.5-2.3,1.6
	l-0.8,3.9c-0.1,0.3-0.2,0.4-0.4,0.4h-0.1c-0.2,0-0.4-0.1-0.4-0.4l1.8-8.5c0.1-0.3,0.2-0.4,0.4-0.4h0.1c0.2,0,0.4,0.1,0.4,0.4
	l-0.7,3.4c0.5-0.8,1.3-1.2,2.1-1.2c1.4,0,2.3,0.9,2.3,2.2c0,0.5-0.2,1.2-0.4,2c-0.2,0.7-0.3,1.2-0.3,1.5c0,0.4,0.2,0.5,0.6,0.5
	c0,0,0,0.6-0.6,0.6C184.6,57.4,184.3,57,184.3,56.4"/>
<path fill="#A19E9F" d="M187.9,54.8c0,1.1,0.7,1.9,1.9,1.9c1,0,1.7-0.4,2.2-1.1c0,0,0.5,0.1,0.5,0.4c0,0.2-0.1,0.3-0.3,0.6
	c-0.6,0.6-1.3,0.8-2.4,0.8c-1.8,0-2.8-1.1-2.8-2.6c0-2.3,1.8-4.2,4.1-4.2c1.5,0,2.3,0.7,2.3,1.7c0,1.3-0.9,2.1-3.8,2.1
	c-0.5,0-1,0-1.7-0.1C187.9,54.5,187.9,54.6,187.9,54.8 M189.5,53.7c2.3,0,3-0.6,3-1.3c0-0.5-0.5-1-1.5-1c-1.4,0-2.5,0.9-2.9,2.2
	C188.6,53.6,189.1,53.7,189.5,53.7"/>
<path fill="#A19E9F" d="M199.1,57.4c-1.4,0-2.7-1-2.7-2.9c0-2,1.4-3.9,3.5-3.9c1.1,0,1.9,0.5,2.4,1.3l0.7-3.5
	c0.1-0.3,0.2-0.4,0.4-0.4h0.1c0.2,0,0.4,0.1,0.4,0.4l-1.6,7.5c-0.2,0.6,0,0.9,0.6,0.9c0,0,0.1,0.6-0.6,0.6c-0.7,0-1-0.4-0.9-1.2
	C200.8,57,200.1,57.4,199.1,57.4 M199.9,51.4c-1.7,0-2.6,1.6-2.6,3.2c0,1.3,0.9,2.1,1.9,2.1c1.3,0,2.4-1,2.7-2.4l0.3-1.2
	C201.7,52.1,201.1,51.4,199.9,51.4"/>
<path fill="#A19E9F" d="M204.3,55.9l1-4.7c0.1-0.3,0.2-0.4,0.4-0.4h0.1c0.2,0,0.4,0.1,0.4,0.4l-1,4.7c-0.1,0.6,0,0.9,0.7,0.9
	c0,0,0.1,0.6-0.6,0.6C204.4,57.4,204.1,56.9,204.3,55.9 M205.7,48.7c0-0.4,0.2-0.7,0.6-0.7c0.4,0,0.6,0.2,0.6,0.4
	c0,0.4-0.2,0.7-0.6,0.7C205.9,49.2,205.7,49,205.7,48.7"/>
<path fill="#A19E9F" d="M207,56.6c-0.2-0.2-0.3-0.4-0.3-0.6c0-0.4,0.5-0.6,0.5-0.5c0.4,0.7,1.2,1.2,2.3,1.2c1,0,1.6-0.4,1.6-1.1
	c0-0.6-0.6-0.8-1.6-1.2c-0.9-0.3-2-0.7-2-1.9c0-1.1,1-1.9,2.4-1.9c1,0,1.7,0.3,2.2,0.8c0.2,0.2,0.3,0.4,0.3,0.7
	c0,0.4-0.5,0.5-0.5,0.5c-0.3-0.7-1.1-1.1-2-1.1c-1,0-1.5,0.5-1.5,1.1c0,0.6,0.7,0.9,1.6,1.2c0.9,0.3,1.9,0.7,1.9,1.8
	c0,1.2-0.9,2-2.5,2C208.4,57.4,207.5,57.1,207,56.6"/>
<path fill="#A19E9F" d="M214.1,54.8c0,1.1,0.7,1.9,1.9,1.9c1,0,1.7-0.4,2.2-1.1c0,0,0.5,0.1,0.5,0.4c0,0.2-0.1,0.3-0.3,0.6
	c-0.6,0.6-1.3,0.8-2.4,0.8c-1.8,0-2.8-1.1-2.8-2.6c0-2.3,1.8-4.2,4.1-4.2c1.5,0,2.3,0.7,2.3,1.7c0,1.3-0.9,2.1-3.8,2.1
	c-0.5,0-1,0-1.7-0.1C214.1,54.5,214.1,54.6,214.1,54.8 M215.7,53.7c2.3,0,3-0.6,3-1.3c0-0.5-0.5-1-1.5-1c-1.4,0-2.5,0.9-2.9,2.2
	C214.8,53.6,215.3,53.7,215.7,53.7"/>
<path fill="#A19E9F" d="M222.8,57.4c-1.4,0-2.6-1-2.6-2.7c0-2,1.5-4.1,3.7-4.1c1.1,0,1.9,0.6,2.3,1.4l0.1-0.3
	c0.1-0.7,0.3-0.9,0.7-0.9c0.2,0,0.3,0.1,0.3,0.1l-1.1,5c-0.1,0.6,0,0.9,0.6,0.9c0,0,0.1,0.6-0.6,0.6c-0.7,0-1-0.5-0.9-1.3
	C224.7,57,223.7,57.4,222.8,57.4 M223.8,51.4c-1.7,0-2.7,1.7-2.7,3.3c0,1.3,0.8,2,1.8,2c1.4,0,2.5-1.2,2.8-2.5l0.2-1.1
	C225.6,52.1,224.9,51.4,223.8,51.4"/>
<path fill="#A19E9F" d="M227.9,56.6c-0.2-0.2-0.3-0.4-0.3-0.6c0-0.4,0.5-0.6,0.5-0.5c0.4,0.7,1.2,1.2,2.3,1.2c1,0,1.6-0.4,1.6-1.1
	c0-0.6-0.6-0.8-1.6-1.2c-0.9-0.3-2-0.7-2-1.9c0-1.1,1-1.9,2.4-1.9c1,0,1.7,0.3,2.2,0.8c0.2,0.2,0.3,0.4,0.3,0.7
	c0,0.4-0.5,0.5-0.5,0.5c-0.3-0.7-1.1-1.1-2-1.1c-1,0-1.5,0.5-1.5,1.1c0,0.6,0.7,0.9,1.6,1.2c0.9,0.3,1.9,0.7,1.9,1.8
	c0,1.2-0.9,2-2.5,2C229.3,57.4,228.4,57.1,227.9,56.6"/>
<path fill="#A19E9F" d="M235,54.8c0,1.1,0.7,1.9,1.9,1.9c1,0,1.7-0.4,2.2-1.1c0,0,0.5,0.1,0.5,0.4c0,0.2-0.1,0.3-0.3,0.6
	c-0.6,0.6-1.3,0.8-2.4,0.8c-1.8,0-2.8-1.1-2.8-2.6c0-2.3,1.8-4.2,4.1-4.2c1.5,0,2.3,0.7,2.3,1.7c0,1.3-0.9,2.1-3.8,2.1
	c-0.5,0-1,0-1.7-0.1C235,54.5,235,54.6,235,54.8 M236.6,53.7c2.3,0,3-0.6,3-1.3c0-0.5-0.5-1-1.5-1c-1.4,0-2.5,0.9-2.9,2.2
	C235.7,53.6,236.2,53.7,236.6,53.7"/>
<path fill="#858385" d="M-0.6,34.9V17.4c0-2.4,1.2-3.6,3.4-3.6h2.1c2,0,2.7,0.5,3.3,2l3.9,9.7l4-9.7c0.7-1.6,1.5-2,3.2-2h2.1
	c2.2,0,3.4,1.2,3.4,3.6v17.5c0,2.3-0.8,3.5-2.9,3.5h-1.2c-2.1,0-3-1.2-3-3.5V24.6l-2.5,7.1c-0.3,0.9-0.4,1.8-3.2,1.8
	c-2.8,0-2.7-0.9-3.1-1.8l-2.5-6.8v10.1c0,2.3-0.7,3.5-2.9,3.5H2.4C0.3,38.4-0.6,37.2-0.6,34.9"/>
<path fill="#858385" d="M28.7,34V18.2c0-2.7,1.4-4.2,3.9-4.2h8.7c5.7,0,8.8,2.2,8.8,6.1c0,2.8-1.6,4.4-4.4,5.1
	c3.6,0.9,5.3,3.1,5.3,6.1c0,4.9-3.1,7-10.5,7h-7.8C30.1,38.2,28.7,36.8,28.7,34 M39.2,23.8c2.2,0,3.1-0.8,3.1-2.3
	c0-1.4-0.9-2.1-3-2.1h-3.2v4.5H39.2z M39.7,32.9c2.6,0,3.5-0.7,3.5-2.5c0-1.6-0.9-2.3-3.6-2.3h-3.5v4.8H39.7z"/>
<path fill="#858385" d="M52.8,26.1c0-7.3,5.1-12.6,12.7-12.6c6.8,0,9.5,3.6,9.5,5.9c0,3.1-4.2,3.9-4.3,3.7c-0.9-1.8-2.6-2.8-4.8-2.8
	c-3.1,0-5.4,2.2-5.4,5.8c0,3.5,2.4,5.8,5.4,5.8c2.3,0,4-1.1,4.8-2.9c0.2-0.2,4.4,0.5,4.4,3.7c0,2.4-2.7,6.1-9.7,6.1
	C57.9,38.7,52.8,33.5,52.8,26.1"/>
<path fill="#FDB913" d="M88.1,22.7c2.7,0,5.4,0.8,6,1.1c0-5.2-0.5-7.9-5.2-7.9c-3.9,0-6.6,1.4-7.1,1.6c-0.5,0.2-0.8-0.1-0.9-0.5
	l-0.3-0.7c-0.2-0.5,0.1-0.8,0.4-0.9c0.2-0.1,3.2-1.8,8.2-1.8c7.3,0,7.6,4.3,7.6,10.4v13.2c0,0.4-0.4,0.8-0.8,0.8h-0.7
	c-0.4,0-0.6-0.2-0.7-0.7l-0.2-2.1c-1.5,1.4-4.5,3.4-8.3,3.4c-4.4,0-7.8-3-7.8-7.9C78.1,26.2,81.9,22.7,88.1,22.7 M86.2,36.4
	c3.6,0,6.8-2.2,7.9-3.7v-6.5c-0.8-0.4-3.2-1.2-6-1.2c-4.5,0-7.6,2.3-7.6,5.8C80.6,34.2,82.9,36.4,86.2,36.4"/>
<path fill="#FDB913" d="M102.5,0.8c0-0.4,0.4-0.8,0.8-0.8h1.1c0.4,0,0.8,0.4,0.8,0.8v36.5c0,0.5-0.2,0.8-0.8,0.8h-1.2
	c-0.4,0-0.7-0.4-0.7-0.8V0.8z"/>
<path fill="#FDB913" d="M111.2,0.8c0-0.4,0.4-0.8,0.8-0.8h1.1c0.4,0,0.8,0.4,0.8,0.8v36.5c0,0.5-0.2,0.8-0.8,0.8h-1.2
	c-0.4,0-0.7-0.4-0.7-0.8V0.8z"/>
<path fill="#FDB913" d="M119.1,5.9c0-1.1,0.9-2.1,2-2.1c1.1,0,2,1,2,2.1c0,1.1-0.9,2-2,2C120,7.9,119.1,7,119.1,5.9 M119.9,15.1
	c0-0.4,0.4-0.8,0.8-0.8h1.1c0.4,0,0.8,0.4,0.8,0.8v22.3c0,0.5-0.2,0.8-0.8,0.8h-1.2c-0.4,0-0.7-0.4-0.7-0.8V15.1z"/>
<path fill="#FDB913" d="M136.7,22.7c2.7,0,5.4,0.8,6,1.1c0-5.2-0.5-7.9-5.2-7.9c-3.9,0-6.6,1.4-7.1,1.6c-0.5,0.2-0.8-0.1-0.9-0.5
	l-0.3-0.7c-0.2-0.5,0.1-0.8,0.4-0.9c0.2-0.1,3.2-1.8,8.2-1.8c7.3,0,7.6,4.3,7.6,10.4v13.2c0,0.4-0.4,0.8-0.8,0.8h-0.7
	c-0.4,0-0.6-0.2-0.7-0.7l-0.2-2.1c-1.5,1.4-4.5,3.4-8.3,3.4c-4.4,0-7.8-3-7.8-7.9C126.7,26.2,130.4,22.7,136.7,22.7 M134.7,36.4
	c3.6,0,6.8-2.2,7.9-3.7v-6.5c-0.8-0.4-3.2-1.2-6-1.2c-4.5,0-7.6,2.3-7.6,5.8C129.1,34.2,131.5,36.4,134.7,36.4"/>
<path fill="#FDB913" d="M151,15.1c0-0.4,0.4-0.8,0.8-0.8h0.6c0.4,0,0.7,0.2,0.7,0.6l0.2,2.6c0.8-0.8,4-3.8,8.8-3.8
	c6.7,0,9.6,4.2,9.6,10.9v12.7c0,0.4-0.4,0.8-0.8,0.8h-1.1c-0.4,0-0.8-0.4-0.8-0.8V24.6c0-5.5-2.6-8.3-7.1-8.3
	c-4.9,0-8.3,3.8-8.5,4.1v17c0,0.5-0.2,0.8-0.8,0.8h-1.1c-0.4,0-0.7-0.4-0.7-0.8V15.1z"/>
<path fill="#FDB913" d="M188.2,13.7c4.6,0,7.7,2.4,8.8,3.8c0.3,0.4,0.2,0.8-0.1,1.1l-0.6,0.6c-0.4,0.4-0.9,0.2-1.2-0.1
	c-0.6-0.7-3.1-2.7-6.8-2.7c-5.4,0-9.8,4.2-9.8,9.9c0,5.8,4.5,10.1,9.8,10.1c4.5,0,6.8-2.8,7.4-3.5c0.4-0.5,0.8-0.5,1.1-0.1l0.7,0.6
	c0.3,0.3,0.4,0.6,0.2,1c-0.9,1.4-4.4,4.6-9.3,4.6c-6.7,0-12.5-5.3-12.5-12.5C175.7,19,181.5,13.7,188.2,13.7"/>
<path fill="#FDB913" d="M211.9,13.7c6.3,0,10.8,4.6,10.8,10.9c0,1,0,2.3-0.9,2.3h-19c0.2,5.1,3.9,9.4,9.3,9.4c3.2,0,5.6-1.3,7-2.2
	c0.5-0.4,0.8-0.4,1.1,0l0.6,0.8c0.2,0.2,0.1,0.6-0.2,1c-1.2,1.2-4.9,2.8-8.6,2.8c-7.3,0-11.7-5.6-11.7-12.6
	C200.1,19.3,204.6,13.7,211.9,13.7 M220,24.8c0-4.6-2.8-8.7-8.2-8.7c-5.2,0-8.8,3.8-9.1,8.7H220z"/>
<path fill="#858385" d="M228.9,33.9c0-0.4,0.1-0.6,0.3-0.8l6.7-6.2l-6.7-6.4c-0.2-0.1-0.3-0.3-0.3-0.8v-3.5c0-0.8,0.5-1.2,0.9-0.8
	l10.9,10.5c0.2,0.1,0.3,0.5,0.3,0.8v0.2c0,0.3-0.2,0.7-0.3,0.8l-10.9,10.2c-0.4,0.4-0.9,0-0.9-0.8V33.9z"/>
<path fill="#858385" d="M229.4,39.1c-0.7,0-1.3-0.6-1.3-1.7v-3.5c0-0.6,0.2-1,0.5-1.4l6.1-5.6l-6.1-5.8c-0.4-0.3-0.5-0.8-0.5-1.4
	v-3.5c0-1.1,0.7-1.7,1.3-1.7c0.2,0,0.6,0.1,0.9,0.4l10.9,10.5c0.3,0.3,0.5,0.9,0.5,1.4v0.2c0,0.5-0.2,1.1-0.6,1.4l-10.9,10.2
	C230,39.1,229.6,39.1,229.4,39.1 M229.6,16.5v3.3c0,0.2,0,0.2,0,0.2l7.3,7l-7.3,6.7c0,0,0,0.1,0,0.2v3.3l10.4-9.8
	c0-0.1,0.1-0.2,0.1-0.3v-0.2c0-0.1-0.1-0.3-0.1-0.3L229.6,16.5z"/>
<line fill="none" x1="274.1" y1="470" x2="274.1" y2="-322"/>
</svg>
