<svg id="Layer_1" data-name="Layer 1" xmlns="http://www.w3.org/2000/svg" xmlns:xlink="http://www.w3.org/1999/xlink" viewBox="0 0 20.8 64.6"><defs><style>.cls-1{fill:none;}.cls-2{clip-path:url(#clip-path);}.cls-3{fill:#007ab3;}.cls-4{fill:#ffde40;}.cls-5{fill:#2bb673;}</style><clipPath id="clip-path"><rect class="cls-1" width="20.6" height="64.2"/></clipPath></defs><title>logo-mbc-without-text</title><g class="cls-2"><polygon class="cls-3" points="41.9 44.2 41.9 22 41.9 18.7 41.9 -6.7 -1.8 -6.7 -1.8 18.7 -1.8 22 -1.8 44.2 -1.8 47.5 -1.8 72.9 41.9 72.9 41.9 47.5 41.9 44.2"/><rect class="cls-3" x="-1.8" y="34.1" width="43.6" height="1.2"/><rect class="cls-3" x="-1.8" y="10.6" width="43.6" height="1.2"/><polygon class="cls-3" points="41.9 37.3 41.9 36.3 -1.8 36.3 -1.8 37.3 -1.8 37.5 -1.8 38.5 41.9 38.5 41.9 37.5 41.9 37.3"/><polygon class="cls-3" points="41.9 45.9 41.9 44.8 -1.8 44.8 -1.8 45.9 -1.8 46 -1.8 47.1 41.9 47.1 41.9 46 41.9 45.9"/></g><g class="cls-2"><rect class="cls-3" x="-2.7" y="9.5" width="43.6" height="1.2"/><rect class="cls-3" x="-2.7" y="15.9" width="43.6" height="1.2"/><rect class="cls-3" x="-2.7" y="53.4" width="43.6" height="1.2"/><rect class="cls-3" x="-2.7" y="7.4" width="43.6" height="1.2"/><rect class="cls-3" x="-2.7" y="13.8" width="43.6" height="1.2"/><polygon class="cls-3" points="-2.7 21.4 -2.7 22.3 -2.7 22.5 -2.7 23.5 40.9 23.5 40.9 22.5 40.9 22.3 40.9 21.4 40.9 21.3 40.9 20.2 -2.7 20.2 -2.7 21.3 -2.7 21.4"/><rect class="cls-3" x="-2.7" y="33" width="43.6" height="1.2"/><polygon class="cls-3" points="40.9 63 40.9 62.1 40.9 61.9 40.9 60.9 -2.7 60.9 -2.7 61.9 -2.7 62.1 -2.7 63 -2.7 63.2 -2.7 64.2 40.9 64.2 40.9 63.2 40.9 63"/><rect class="cls-3" x="-2.7" y="11.6" width="43.6" height="1.2"/><rect class="cls-3" x="-2.7" y="18.1" width="43.6" height="1.2"/><rect class="cls-3" x="-2.7" y="35.2" width="43.6" height="1.2"/></g><g class="cls-2"><polygon class="cls-4" points="-1.3 4.3 -1.3 5.2 -1.3 5.4 -1.3 6.3 -1.3 6.4 -1.3 7.5 42.4 7.5 42.4 6.4 42.4 6.3 42.4 5.4 42.4 5.2 42.4 4.3 42.4 4.1 42.4 3.1 -1.3 3.1 -1.3 4.1 -1.3 4.3"/><polygon class="cls-4" points="-1.3 1.1 -1.3 2.1 42.4 2.1 42.4 1.1 42.4 0.9 42.4 -0.1 -1.3 -0.1 -1.3 0.9 -1.3 1.1"/><rect class="cls-4" x="-1.3" y="23.4" width="43.6" height="1.2"/><polygon class="cls-4" points="42.4 50.2 42.4 49.2 42.4 49.1 42.4 48.2 42.4 48 42.4 47 -1.3 47 -1.3 48 -1.3 48.2 -1.3 49.1 -1.3 49.2 -1.3 50.2 -1.3 50.3 -1.3 51.4 42.4 51.4 42.4 50.3 42.4 50.2"/><polygon class="cls-4" points="42.4 56.6 42.4 55.7 42.4 55.5 42.4 54.5 -1.3 54.5 -1.3 55.5 -1.3 55.7 -1.3 56.6 -1.3 56.7 -1.3 57.8 42.4 57.8 42.4 56.7 42.4 56.6"/><rect class="cls-4" x="-1.3" y="8.4" width="43.6" height="1.2"/><polygon class="cls-4" points="-1.3 28.9 -1.3 30 42.4 30 42.4 28.9 42.4 28.8 42.4 27.7 -1.3 27.7 -1.3 28.8 -1.3 28.9"/><polygon class="cls-4" points="42.4 42.7 42.4 41.7 42.4 41.6 42.4 40.7 42.4 40.5 42.4 39.6 42.4 39.5 42.4 38.4 -1.3 38.4 -1.3 39.5 -1.3 39.6 -1.3 40.5 -1.3 40.7 -1.3 41.6 -1.3 41.7 -1.3 42.7 -1.3 42.8 -1.3 43.9 42.4 43.9 42.4 42.8 42.4 42.7"/></g><g class="cls-2"><rect class="cls-5" x="-1.3" y="12.7" width="43.6" height="1.2"/><rect class="cls-5" x="-1.3" y="19.1" width="43.6" height="1.2"/><rect class="cls-5" x="-1.3" y="43.7" width="43.6" height="1.2"/><rect class="cls-5" x="-1.3" y="17" width="43.6" height="1.2"/><polygon class="cls-5" points="42.3 59.8 42.3 58.9 42.3 58.7 42.3 57.7 -1.3 57.7 -1.3 58.7 -1.3 58.9 -1.3 59.8 -1.3 59.9 -1.3 61 42.3 61 42.3 59.9 42.3 59.8"/><rect class="cls-5" x="-1.3" y="2" width="43.6" height="1.2"/><rect class="cls-5" x="-1.3" y="14.8" width="43.6" height="1.2"/><polygon class="cls-5" points="-1.3 25.7 -1.3 26.6 -1.3 26.8 -1.3 27.8 42.3 27.8 42.3 26.8 42.3 26.6 42.3 25.7 42.3 25.6 42.3 24.5 -1.3 24.5 -1.3 25.6 -1.3 25.7"/><polygon class="cls-5" points="42.3 52.3 42.3 51.2 -1.3 51.2 -1.3 52.3 -1.3 52.4 -1.3 53.5 42.3 53.5 42.3 52.4 42.3 52.3"/><polygon class="cls-5" points="42.3 67.3 42.3 66.4 42.3 66.2 42.3 65.3 42.3 65.2 42.3 64.1 -1.3 64.1 -1.3 65.2 -1.3 65.3 -1.3 66.2 -1.3 66.4 -1.3 67.3 -1.3 67.4 -1.3 68.5 42.3 68.5 42.3 67.4 42.3 67.3"/></g><g class="cls-2"><rect class="cls-1" x="-2.7" y="-9.2" width="45.2" height="94.7"/></g></svg>