<?xml version="1.0" encoding="utf-8"?>
<!-- Generator: Adobe Illustrator 18.1.1, SVG Export Plug-In . SVG Version: 6.00 Build 0)  -->
<svg version="1.1" id="Layer_1" xmlns="http://www.w3.org/2000/svg" xmlns:xlink="http://www.w3.org/1999/xlink" x="0px" y="0px"
	 viewBox="0 0 429.2 354.4" enable-background="new 0 0 429.2 354.4" xml:space="preserve">
<g>
	<path fill="#F1C010" d="M328.7,25.4C338.6,2.8,354.4,0,354.4,0s-12.4-0.3-18.2,0.5C330.8,1.3,320.4,2,310,25.8
		c-1.4,3.2-14.9,32.9-14.9,32.9C285.1,81.2,269.4,84,269.4,84s11.6,0.3,18.2-0.5c5.4-0.7,15.8-1.4,26.2-25.2
		C313.7,58.3,327.6,27.7,328.7,25.4z"/>
	<path fill="#F1C010" d="M382.2,25.4C392.1,2.8,407.9,0,407.9,0s-12.4-0.3-18.2,0.5C384.4,1.3,374,2,363.6,25.8
		c-1.4,3.2-14.9,32.9-14.9,32.9C338.7,81.2,322.9,84,322.9,84s11.6,0.3,18.2-0.5c5.4-0.7,15.8-1.4,26.2-25.2
		C367.3,58.3,381.2,27.7,382.2,25.4z"/>
	<path fill="#F1C010" d="M178,25.4C187.9,2.8,203.7,0,203.7,0s-12.4-0.3-18.2,0.5c-5.4,0.8-15.8,1.4-26.2,25.2
		c-1.4,3.2-14.9,32.9-14.9,32.9C134.4,81.2,118.7,84,118.7,84s11.6,0.3,18.2-0.5c5.4-0.7,15.8-1.4,26.2-25.2
		C163,58.3,177,27.7,178,25.4z"/>
	<path fill="#F1C010" d="M231.5,25.4C241.5,2.8,257.2,0,257.2,0s-12.4-0.3-18.2,0.5c-5.4,0.8-15.8,1.4-26.2,25.2
		c-1.4,3.2-14.9,32.9-14.9,32.9C188,81.2,172.2,84,172.2,84s11.6,0.3,18.2-0.5c5.4-0.7,15.8-1.4,26.2-25.2
		C216.6,58.3,230.5,27.7,231.5,25.4z"/>
	<path fill="#808285" d="M365.4,9.3c1.2,0,2.2,1,2.2,2.2v33.3c0,1.2-1,2.2-2.2,2.2c-1.2,0-2.2-1-2.2-2.2V11.6
		C363.2,10.3,364.2,9.3,365.4,9.3z"/>
	<path fill="#808285" d="M311,40.2c1.2,0,2.2,1,2.2,2.2v30.4c0,1.2-1,2.2-2.2,2.2c-1.2,0-2.2-1-2.2-2.2V42.4
		C308.8,41.2,309.8,40.2,311,40.2z"/>
	<path fill="#808285" d="M351.8,0.9c1.2,0,2.2,1,2.2,2.2v66c0,1.2-1,2.2-2.2,2.2c-1.2,0-2.2-1-2.2-2.2v-66
		C349.6,1.9,350.6,0.9,351.8,0.9z"/>
	<path fill="#808285" d="M324.6,15.9c1.2,0,2.2,1,2.2,2.2V81c0,1.2-1,2.2-2.2,2.2c-1.2,0-2.2-1-2.2-2.2V18.2
		C322.4,16.9,323.4,15.9,324.6,15.9z"/>
	<path fill="#808285" d="M338.2,3.3c1.2,0,2.2,1,2.2,2.2v72.8c0,1.2-1,2.2-2.2,2.2c-1.2,0-2.2-1-2.2-2.2V5.5
		C336,4.3,337,3.3,338.2,3.3z"/>
	<path fill="#FEDD42" d="M401.9,58.6c9.9,22.6,25.7,25.4,25.7,25.4s-12.1,0.3-18.2-0.5c-5.4-0.8-15.8-1.4-26.2-25.2
		c-1.4-3.2-14.9-32.9-14.9-32.9C358.4,2.8,342.6,0,342.6,0s12.5-0.3,18.2,0.5c5.4,0.8,15.8,1.4,26.2,25.2
		C387,25.8,400.9,56.3,401.9,58.6z"/>
	<path fill="#808285" d="M293.9,44.1c1.2,0,2.2,1,2.2,2.2v27c0,1.2-1,2.2-2.2,2.2c-1.2,0-2.2-1-2.2-2.2v-27
		C291.6,45.1,292.6,44.1,293.9,44.1z"/>
	<path fill="#808285" d="M239.5,4.8c1.2,0,2.2,1,2.2,2.2v36.7c0,1.2-1,2.2-2.2,2.2s-2.2-1-2.2-2.2V7C237.3,5.8,238.3,4.8,239.5,4.8z
		"/>
	<path fill="#808285" d="M280.3,15.1c1.2,0,2.2,1,2.2,2.2v62c0,1.2-1,2.2-2.2,2.2c-1.2,0-2.2-1-2.2-2.2v-62
		C278,16.1,279,15.1,280.3,15.1z"/>
	<path fill="#808285" d="M142.7,44.1c1.2,0,2.2,1,2.2,2.2v27c0,1.2-1,2.2-2.2,2.2s-2.2-1-2.2-2.2v-27
		C140.5,45.1,141.5,44.1,142.7,44.1z"/>
	<path fill="#808285" d="M129.1,15.1c1.2,0,2.2,1,2.2,2.2v62c0,1.2-1,2.2-2.2,2.2c-1.2,0-2.2-1-2.2-2.2v-62
		C126.9,16.1,127.9,15.1,129.1,15.1z"/>
	<path fill="#808285" d="M253.1,0.9c1.2,0,2.2,1,2.2,2.2v71.3c0,1.2-1,2.2-2.2,2.2s-2.2-1-2.2-2.2V3.1
		C250.9,1.9,251.9,0.9,253.1,0.9z"/>
	<rect x="265.3" y="7" fill="#808285" width="4.5" height="75.1"/>
	<path fill="#808285" d="M214.7,9.3c1.2,0,2.2,1,2.2,2.2v32.8c0,1.2-1,2.2-2.2,2.2s-2.2-1-2.2-2.2V11.6
		C212.5,10.3,213.5,9.3,214.7,9.3z"/>
	<path fill="#808285" d="M160.4,40.2c1.2,0,2.2,1,2.2,2.2v30.4c0,1.2-1,2.2-2.2,2.2s-2.2-1-2.2-2.2V42.4
		C158.1,41.2,159.1,40.2,160.4,40.2z"/>
	<path fill="#808285" d="M201.1,0.9c1.2,0,2.2,1,2.2,2.2v66c0,1.2-1,2.2-2.2,2.2c-1.2,0-2.2-1-2.2-2.2v-66
		C198.9,1.9,199.9,0.9,201.1,0.9z"/>
	<path fill="#808285" d="M173.9,15.9c1.2,0,2.2,1,2.2,2.2V81c0,1.2-1,2.2-2.2,2.2s-2.2-1-2.2-2.2V18.2
		C171.7,16.9,172.7,15.9,173.9,15.9z"/>
	<path fill="#808285" d="M187.5,3.3c1.2,0,2.2,1,2.2,2.2v72.8c0,1.2-1,2.2-2.2,2.2c-1.2,0-2.2-1-2.2-2.2V5.5
		C185.3,4.3,186.3,3.3,187.5,3.3z"/>
	<path fill="#FEDD42" d="M252.7,58.6c9.9,22.6,25.7,25.4,25.7,25.4s-12.1,0.3-18.2-0.5c-5.4-0.8-15.8-1.4-26.2-25.2
		c-1.4-3.2-14.9-32.9-14.9-32.9C209.2,2.8,193.4,0,193.4,0s12.5-0.3,18.2,0.5c5.4,0.8,15.8,1.4,26.2,25.2
		C237.8,25.8,251.7,56.3,252.7,58.6z"/>
	<path fill="#FEDD42" d="M306.3,58.6C316.2,81.2,332,84,332,84s-12.1,0.3-18.2-0.5c-5.4-0.8-15.8-1.4-26.2-25.2
		c-1.4-3.2-14.9-32.9-14.9-32.9C262.8,2.8,247,0,247,0s12.5-0.3,18.2,0.5c5.4,0.8,15.8,1.4,26.2,25.2
		C291.3,25.8,305.3,56.3,306.3,58.6z"/>
	<path fill="#FEDD42" d="M155.6,58.6c9.9,22.6,25.7,25.4,25.7,25.4s-12.1,0.3-18.2-0.5c-5.4-0.8-15.8-1.4-26.2-25.2
		c-1.4-3.2-14.9-32.9-14.9-32.9C112.1,2.8,96.3,0,96.3,0s12.5-0.3,18.2,0.5c5.4,0.8,15.8,1.4,26.2,25.2
		C140.6,25.8,154.6,56.3,155.6,58.6z"/>
</g>
<g>
	<path fill="#FEDD42" d="M421.9,222.6h-50.3c-2.1,0-3.8-1.7-3.8-3.8v-89.6h57.8v89.6C425.7,220.9,424,222.6,421.9,222.6z"/>
	<path fill="#E6E7E8" d="M368.1,113.3h57.4c2.1,0,3.8,1.7,3.8,3.8v12.1h-64.9v-12.1C364.3,115,366,113.3,368.1,113.3z"/>
	<rect x="386.5" y="155.4" fill="#F1F2F2" width="39.2" height="28.1"/>
</g>
<path fill="#808285" d="M387.1,259.8h32.9c2.1,0,3.8,1.7,3.8,3.8v6.1h-40.5v-6.1C383.4,261.5,385,259.8,387.1,259.8z"/>
<polygon fill="#FEDD42" points="411.2,352.4 395.9,352.4 386.7,269.7 420.5,269.7 "/>
<path fill="none" stroke="#808285" stroke-width="2" stroke-miterlimit="10" d="M421.4,277.3h-39.7c-1.8,0-3.2-1.5-3.2-3.2V273
	c0-1.8,1.5-3.2,3.2-3.2h42.1"/>
<g>
	<rect x="0" y="296.2" fill="#D1D3D4" width="234.8" height="58.2"/>
	<polygon fill="#E6E7E8" points="234.8,354.4 339.2,250 339.4,191.6 234.8,296.2 	"/>
	<polygon fill="#F1F2F2" points="104.6,191.6 0,296.2 234.8,296.2 339.4,191.6 104.6,191.6 	"/>
	<polygon fill="#FEDD42" points="108.7,201.8 104.6,205.9 308.2,205.9 312.3,201.8 108.7,201.8 	"/>
	<polygon fill="#FEDD42" points="101.4,209.2 97.3,213.3 301,213.3 305.1,209.2 101.4,209.2 	"/>
	<polygon fill="#FEDD42" points="93.5,216.7 89.4,220.8 293.1,220.8 297.2,216.7 93.5,216.7 	"/>
	<polygon fill="#FEDD42" points="86.3,224.1 82.2,228.2 285.8,228.2 289.9,224.1 86.3,224.1 	"/>
	<polygon fill="#FEDD42" points="78.4,231.6 74.3,235.7 277.9,235.7 282,231.6 78.4,231.6 	"/>
	<polygon fill="#FEDD42" points="71.1,239 67,243.1 270.6,243.1 274.7,239 71.1,239 	"/>
	<polygon fill="#FEDD42" points="63.2,246.5 59.1,250.6 262.7,250.6 266.8,246.5 63.2,246.5 	"/>
	<polygon fill="#FEDD42" points="55.9,253.9 51.8,258 255.5,258 259.6,253.9 55.9,253.9 	"/>
	<polygon fill="#FEDD42" points="49.4,261.4 45.3,265.5 248.9,265.5 253,261.4 49.4,261.4 	"/>
	<polygon fill="#FEDD42" points="42.1,268.8 38,272.9 241.6,272.9 245.7,268.8 42.1,268.8 	"/>
	<polygon fill="#FEDD42" points="34.2,276.3 30.1,280.4 153.4,280.4 157.5,276.3 34.2,276.3 	"/>
	<g>
		<line fill="none" stroke="#A7A9AC" stroke-linejoin="round" stroke-miterlimit="10" x1="0" y1="308.4" x2="98" y2="308.4"/>
		<line fill="none" stroke="#A7A9AC" stroke-linejoin="round" stroke-miterlimit="10" x1="177.6" y1="325.9" x2="49" y2="325.9"/>
		
			<line fill="none" stroke="#A7A9AC" stroke-linejoin="round" stroke-miterlimit="10" x1="141.9" y1="342.3" x2="234.8" y2="342.3"/>
		<line fill="none" stroke="#A7A9AC" stroke-linejoin="round" stroke-miterlimit="10" x1="234.8" y1="342.3" x2="298" y2="279"/>
		<line fill="none" stroke="#A7A9AC" stroke-linejoin="round" stroke-miterlimit="10" x1="266.4" y1="296.2" x2="315.6" y2="247"/>
		
			<line fill="none" stroke="#A7A9AC" stroke-linejoin="round" stroke-miterlimit="10" x1="294.3" y1="252.2" x2="339.1" y2="207.5"/>
	</g>
</g>
<path fill="#939598" d="M161.8,285.7c2-1,4-2,5.7-3.4c0.1-0.1,1.6-1.4,1.6-1.5c1.6-1.5,3.1-3.2,4.5-4.9c-0.7,1.7-1.2,3.4-1.9,5.1
	c-0.4,0.9-0.6,1.9-0.6,2.9c0,0.7,0.1,1.2,0.8,1.2c2.6-0.7,4.6-2.4,6.5-4.2c0.9-0.9,1.9-1.9,2.9-2.8c0.2,0.1,0.4,0.4,0.5,0.6
	c0.4,0.6,0.8,0.9,1.5,1c0.7,0,1.5-0.1,2.2,0.1c0.8,0.3,1.6,0.5,2.4,0.8c0.5,0.2,0.9,0.3,1.4,0.4c0.9,0.1,2.1,0.1,2.9,0.2
	c1.8,0,3.6,0.1,5.4,0.1c4.5,0.1,9.1,0.3,13.6,0.3c2.4,0,3.3-0.1,5.6-0.2c0.9-0.1,1.7-0.1,2.6-0.2l2.7-1.9c-0.9,0.1-1.7,0.2-2.6,0.2
	c-2.1,0.1-3.5,0.2-5.7,0.2c-4.5,0.1-9.1-0.1-13.6-0.3c-1.9-0.1-3.4-0.1-5.2-0.2c-0.4,0-2.2-0.1-2.7-0.2c-0.5-0.1-0.9-0.2-1.4-0.4
	c-0.8-0.3-1.6-0.5-2.4-0.9c-0.7-0.2-1.5-0.1-2.3-0.2c-0.7,0-0.9-0.1-1.3-0.7c-0.1-0.1-0.4-0.5-0.5-0.6c-1.5-1.4-4.2,1.1-5,1.6
	c-1.6,1.4-3.1,2.9-4.7,4.3c-0.2,0.1-0.3,0.3-0.5,0.4c0-0.1,0-0.3,0-0.3c0-1,0.2-1.9,0.5-2.8c0.6-1.8,1.2-3.5,1.9-5.2
	c0.6-1.4,1.2-2.7,1.9-4c0.8-1.6,1.5-3.2,2.1-4.9c0.4-1,0.8-2.1,0.7-3.2c-0.4-2.2-3.7,0.7-4.1,2.2c-0.9,1.7-1.8,3.4-2.6,5.2
	c-0.1,0.3-0.9,1.9-1.1,2.2c-0.8,1.6-1.8,3-2.9,4.4c-1.7,2.1-3.5,4.1-5.4,5.9c-0.8,0.7-1.6,1.4-2.5,2.1c-0.2,0.2-0.9,0.6-0.7,0.5
	c1.1-0.5,3.9-2,2.3-1.2L161.8,285.7z M180.5,278C179,278.8,179.7,278.2,180.5,278L180.5,278z M175.1,282.9c-0.1,0-0.1,0.1-0.2,0.1
	C175.5,282.7,175.8,282.5,175.1,282.9z"/>
<g>
	<path fill="#FEDD42" d="M77.6,80.6H23.9V70l25.3-27c3.5-3.8,6-7.1,7.7-9.9c1.7-2.8,2.5-5.5,2.5-8.1c0-3.5-0.9-6.2-2.6-8.2
		c-1.8-2-4.3-3-7.5-3c-3.5,0-6.3,1.2-8.3,3.6c-2,2.4-3,5.6-3,9.5H22.4c0-4.8,1.1-9.1,3.4-13.1c2.3-3.9,5.5-7,9.6-9.3
		c4.2-2.2,8.9-3.4,14.1-3.4c8.1,0,14.3,1.9,18.8,5.8c4.5,3.9,6.7,9.3,6.7,16.4c0,3.9-1,7.8-3,11.8c-2,4-5.4,8.7-10.3,14L43.9,68.1
		h33.6V80.6z"/>
</g>
<rect x="35.6" y="116.2" fill="#FEDD42" width="242" height="48.4"/>
<rect x="244.1" y="128.2" fill="#F1F2F2" width="24.4" height="24.4"/>
<rect x="208.1" y="128.2" fill="#F1F2F2" width="24.4" height="24.4"/>
<rect x="172.1" y="128.2" fill="#D1D3D4" width="24.4" height="24.4"/>
<rect x="136" y="128.2" fill="#F1F2F2" width="24.4" height="24.4"/>
<rect x="100" y="128.2" fill="#F1F2F2" width="24.4" height="24.4"/>
<rect x="64" y="128.2" fill="#F1F2F2" width="24.4" height="24.4"/>
<rect x="35.6" y="120.2" fill="#414042" width="9.8" height="1.2"/>
<rect x="35.6" y="122.8" fill="#414042" width="9.8" height="1.7"/>
<rect x="35.6" y="125.7" fill="#414042" width="9.8" height="0.6"/>
<rect x="35.6" y="158.2" fill="#414042" width="9.8" height="1.7"/>
<rect x="35.6" y="161.1" fill="#414042" width="9.8" height="0.6"/>
<rect x="35.6" y="150.5" fill="#414042" width="9.8" height="1.2"/>
<rect x="35.6" y="153.2" fill="#414042" width="9.8" height="1.7"/>
<rect x="35.6" y="128.6" fill="#414042" width="9.8" height="1.7"/>
<rect x="35.6" y="131.4" fill="#414042" width="9.8" height="1.7"/>
<rect x="35.6" y="134.3" fill="#414042" width="9.8" height="0.6"/>
<rect x="35.6" y="143.4" fill="#414042" width="9.8" height="1.7"/>
<rect x="35.6" y="146.2" fill="#414042" width="9.8" height="1.7"/>
<rect x="35.6" y="149.1" fill="#414042" width="9.8" height="0.6"/>
<rect x="35.6" y="140.1" fill="#414042" width="9.8" height="0.6"/>
<rect x="35.6" y="141.7" fill="#414042" width="9.8" height="0.6"/>
<rect x="35.6" y="137.2" fill="#414042" width="9.8" height="1.7"/>
</svg>
