<?xml version="1.0" encoding="utf-8"?>
<!-- Generator: Adobe Illustrator 18.1.1, SVG Export Plug-In . SVG Version: 6.00 Build 0)  -->
<svg version="1.1" id="Layer_1" xmlns="http://www.w3.org/2000/svg" xmlns:xlink="http://www.w3.org/1999/xlink" x="0px" y="0px"
	 viewBox="0 0 429.2 354.4" enable-background="new 0 0 429.2 354.4" xml:space="preserve">
<path fill="#D1D3D4" d="M199.9,112.9h-66.4c-10.3,0-18.7-8.4-18.7-18.7V27.8c0-10.3,8.4-18.7,18.7-18.7h66.4
	c10.3,0,18.7,8.4,18.7,18.7v66.4C218.7,104.5,210.2,112.9,199.9,112.9z"/>
<g>
	<rect x="129.2" y="37.2" fill="#FFFFFF" width="75" height="47.6"/>
	<polygon fill="#FFFFFF" points="168.8,62.3 129.2,37.2 204.2,37.2 	"/>
</g>
<path fill="#00A651" d="M372.6,111.8H249.7c-2.8,0-5-2.2-5-5V5.7c0-2.7,2.2-5,5-5h122.9c2.8,0,5,2.2,5,5v101
	C377.6,109.5,375.3,111.8,372.6,111.8z"/>
<path fill="#00A651" d="M372.6,111.8H249.7c-2.8,0-5-2.2-5-5V5.7c0-2.7,2.2-5,5-5h122.9c2.8,0,5,2.2,5,5v101
	C377.6,109.5,375.3,111.8,372.6,111.8z"/>
<rect x="258.3" y="12.5" fill="#FBFBFB" width="113.9" height="88"/>
<path fill="#E6E7E8" d="M390.3,48h-10.4V32.9c0-2-1.7-3.7-3.7-3.7h-8.9v54.5h8.9c2,0,3.7-1.7,3.7-3.7V65h10.4c4.7,0,8.5-3.8,8.5-8.5
	C398.8,51.8,395,48,390.3,48z"/>
<circle fill="#808285" cx="390.3" cy="56.5" r="2.2"/>
<g>
	<rect x="129.2" y="37.2" fill="#EDEDEE" width="75" height="47.6"/>
	<polygon fill="#F1F2F2" points="166.7,59.7 204.2,84.8 129.2,84.8 	"/>
	<polygon fill="#FBFBFB" points="166.7,62.3 129.2,37.2 204.2,37.2 	"/>
</g>
<circle fill="#00A651" cx="211.1" cy="20.3" r="17.1"/>
<path fill="#FFFFFF" d="M381.7,349.2H217.2V138.7h164.5c7.4,0,13.4,6,13.4,13.4v183.7C395.1,343.2,389.1,349.2,381.7,349.2z"/>
<path fill="#FFFFFF" d="M47.5,237.8h158.5v112H47.5c-7,0-12.7-5.7-12.7-12.7v-86.7C34.8,243.5,40.5,237.8,47.5,237.8z"/>
<g>
	<path fill="#F1F2F2" d="M380.1,353.7H222.2V134.2h157.9c10.4,0,18.9,8.5,18.9,18.9v181.7C398.9,345.2,390.4,353.7,380.1,353.7z"/>
</g>
<g>
	<path fill="#F1F2F2" d="M49.1,234h161.3v119.6H35.2c-2.7,0-5-2.2-5-5v-95.8C30.3,242.5,38.8,234,49.1,234z"/>
</g>
<path fill="#808285" d="M35.3,353.7h177.3c2.8,0,5-2.2,5-5v-49.8c0-2.8-2.2-5-5-5H35.3c-2.8,0-5,2.2-5,5v49.8
	C30.3,351.4,32.5,353.7,35.3,353.7z"/>
<path fill="#414042" d="M234.8,235.2v-14c0-1.8,1.4-3.2,3.2-3.2h21.2v-80.6c0-1.8-1.4-3.2-3.2-3.2h-42.4c-1.8,0-3.2,1.4-3.2,3.2v213
	c0,1.8,1.4,3.2,3.2,3.2H256c1.8,0,3.2-1.4,3.2-3.2v-112H238C236.3,238.4,234.8,237,234.8,235.2z"/>
<path fill="#00A651" d="M240.8,229.8h98.4c0.9,0,1.6-0.7,1.6-1.6v0c0-0.9-0.7-1.6-1.6-1.6h-98.4c-0.9,0-1.6,0.7-1.6,1.6v0
	C239.2,229.1,239.9,229.8,240.8,229.8z"/>
<rect x="113.5" y="222.4" fill="#D1D3D4" width="16.3" height="11.6"/>
<g>
	<path fill="#414042" d="M194.1,142.2v76.2H49.3v-76.2H194.1 M195.1,136.2H48.3c-2.8,0-5,2.2-5,5v78.2c0,2.8,2.2,5,5,5h146.8
		c2.8,0,5-2.2,5-5v-78.2C200.1,138.4,197.8,136.2,195.1,136.2L195.1,136.2z"/>
</g>
<g>
	<path fill="#00A651" d="M47.6,34.6h8.3c3.9,0,6.9-1,8.8-3c1.9-2,2.8-4.6,2.8-7.8c0-3.2-0.9-5.6-2.8-7.4c-1.9-1.8-4.5-2.6-7.8-2.6
		c-3,0-5.5,0.8-7.5,2.4c-2,1.6-3,3.8-3,6.4H30.9c0-4.1,1.1-7.7,3.3-11c2.2-3.2,5.3-5.8,9.2-7.6c4-1.8,8.3-2.7,13.1-2.7
		c8.3,0,14.8,2,19.5,5.9c4.7,4,7,9.4,7,16.4c0,3.6-1.1,6.9-3.3,9.9c-2.2,3-5.1,5.3-8.6,6.9c4.4,1.6,7.7,3.9,9.9,7.1
		c2.2,3.2,3.3,6.9,3.3,11.2c0,7-2.5,12.5-7.6,16.7c-5.1,4.2-11.8,6.3-20.1,6.3c-7.8,0-14.2-2.1-19.2-6.2c-5-4.1-7.4-9.6-7.4-16.3
		h15.5c0,2.9,1.1,5.3,3.3,7.2c2.2,1.9,4.9,2.8,8.1,2.8c3.7,0,6.6-1,8.7-2.9c2.1-2,3.1-4.5,3.1-7.8c0-7.8-4.3-11.7-12.9-11.7h-8.2
		V34.6z"/>
</g>
</svg>
