<?xml version="1.0" encoding="UTF-8" standalone="no"?>
<svg xmlns="http://www.w3.org/2000/svg" height="90px" width="90px" version="1.1" xmlns:xlink="http://www.w3.org/1999/xlink" viewBox="0 0 90 90">
 <title>Thank you @1x</title>
 <desc>Created with Sketch.</desc>
 <g id="11/20" fill-rule="evenodd" fill="none">
  <g id="Thank-you---verified-email" transform="translate(-675 -253)">
   <g id="Thank-you-" transform="translate(675 253)">
    <circle id="Oval-Copy-3" cy="45" cx="45" r="45" fill="#fff"/>
    <g id="Group" stroke-linejoin="round" transform="translate(19.5 27)" stroke="#000" stroke-linecap="round" stroke-width="2" fill="#fff">
     <g id="email-action-check">
      <path id="Shape" d="m22.828 33.422h-19.125c-1.9156 0-3.4686-1.553-3.4686-3.469l-0.00002-26.25c0-1.9156 1.553-3.4686 3.4687-3.4686l41.625-0.00002c1.916 0 3.469 1.553 3.469 3.4687v15.609"/>
      <path id="Shape" d="m48.013 1.5062l-18.833 14.486c-4.383 3.378-5.218 3.335-9.329 0l-18.833-14.486"/>
     </g>
    </g>
    <circle id="Oval" stroke-linejoin="round" r="11.625" fill-opacity=".4" cx="58.641" cy="60.891" stroke="#000" stroke-linecap="round" stroke-width="2" fill="#00D39D"/>
    <path id="Shape" stroke-linejoin="round" d="m63.516 57.516l-4.723 6.563c-0.213 0.294-0.537 0.478-0.889 0.505-0.353 0.026-0.699-0.108-0.95-0.368l-2.438-2.542" stroke="#000" stroke-linecap="round" stroke-width="2"/>
   </g>
  </g>
 </g>
</svg>
