<!DOCTYPE svg PUBLIC "-//W3C//DTD SVG 1.1//EN" "http://www.w3.org/Graphics/SVG/1.1/DTD/svg11.dtd">
<svg version="1.1" id="Layer_1" xmlns="http://www.w3.org/2000/svg" width="300px" height="54.103px" viewBox="0 0 300 54.103">
<path fill="#A90533" d="M42.642,21.322c0.257,0.179,0.375,0.335,0.063,1.032c-1.172,2.859-2.356,5.566-4.188,7.444
	c-0.853,0.874-2.285,1.711-4.749,1.736c-5.652,0.056-4.317,0-17.284,0c-2.794,0-3.797,0.15-4.564,1.087l-0.836,1.025H21.98
	c-0.138,0.557-0.213,0.946-0.562,1.432c-0.351,0.487-0.519,0.907-1.168,0.994c-0.811,0.237-1.017,0.244-1.559,0.607
	c-0.697,0.465-0.643,0.732-1.383,1.642L6.869,54.074l21.069,0.029c14.927,0,27.158-12.14,27.158-27.067
	c0-6.487-2.717-12.646-6.545-17.306c-1.362,3.259-2.299,4.945-3.063,6.548c-0.921,1.938-2.396,3.393-5.225,3.429
	c-7.328,0.088-6.543-0.108-19.513,0.002c-3.461,0-5.446,0.079-7.261,1.81l2.745-6.797c1.083-2.674,3.881-4.621,7.96-4.619
	c12.967,0.004,13.504,0,19.156,0c1.041,0,2.461-0.138,3.361-1.212c0.192-0.231,0.602-0.718,0.108-1.263
	C42.5,3.348,35.041,0,26.588,0H0l0.029,54.02h0.887l5.729-14.445c0.823-2.379,0.685-2.203,0.424-2.982l-0.952-1.385l0.563-1.514
	l0.07-0.008h2.059l3.422-8.25c0.788-1.901,3.53-3.471,6.746-3.471c11.36,0,6.399,0.041,20.432,0
	C41.599,21.961,41.97,21.113,42.642,21.322"/>
<path fill-rule="evenodd" clip-rule="evenodd" d="M87.754,20.692c0,6.629-4.261,9.377-9.444,9.377c-0.926,0-2.691-0.1-3.417-0.537
	c-0.603-0.366-1.003-1.004-1.003-2.345V10.845c1.404-0.402,3.616-0.402,4.581-0.402C83.775,10.443,87.754,13.392,87.754,20.692
	 M91.492,19.787c0-5.862-3.859-10.283-11.615-10.283c-1.849,0-6.632,0.167-8.038,0.167h-4.02c-0.282,0-0.323,0-0.323,0.101v0.401
	c0,0.101,0,0.136,0.163,0.169c0.683,0.131,2.331,0.131,2.571,0.502c0.121,0.201,0.322,0.3,0.322,2.377v13.965
	c0,2.112-0.201,2.312-0.362,2.546c-0.241,0.368-1.969,0.537-2.572,0.637c-0.162,0.035-0.162,0.035-0.162,0.135v0.437
	c0,0.1,0,0.167,0.121,0.167c1.568-0.066,3.617-0.167,4.824-0.167c1.086,0,4.381,0.1,5.063,0.1
	C85.383,31.042,91.492,26.855,91.492,19.787 M152.209,22.133h-7.035c1.489-3.451,2.493-6.396,3.458-8.708
	C149.797,16.306,150.924,19.153,152.209,22.133 M161.291,31.009v-0.437c0-0.1-0.039-0.133-0.2-0.167
	c-0.242-0.066-0.804-0.202-1.247-0.437c-0.843-0.467-1.123-0.869-2.531-3.917c-1.287-2.815-4.622-10.284-7.154-16.277
	c-0.161-0.369-0.282-0.469-0.683-0.469c-0.283,0-0.362,0.1-0.524,0.502c-2.571,6.531-5.908,14.168-8.158,18.89
	c-0.322,0.704-1.005,1.308-1.729,1.542c-0.32,0.1-0.601,0.134-1.003,0.167c-0.16,0.034-0.16,0.066-0.16,0.167v0.403
	c0,0.102,0,0.134,0.079,0.134c0.764-0.066,2.09-0.167,3.135-0.167c1.488,0,2.773,0.1,3.86,0.167v-0.504
	c-1.649-0.064-2.332-0.6-2.332-1.571c0-0.203,0.039-0.605,0.24-1.106l1.888-4.756h7.761l2.208,4.922
	c0.201,0.437,0.32,0.807,0.32,1.106c0,1.003-0.924,1.271-2.168,1.404v0.504c1.566-0.134,3.054-0.167,4.019-0.167
	c1.047,0,3.174,0.135,4.26,0.202C161.291,31.144,161.291,31.109,161.291,31.009 M162.238,24.174h8.038v-2.108h-8.038V24.174z
	 M189.356,14.295c0-0.134-0.078-1.841-0.078-2.679c0-0.603,0.04-1.775,0.078-2.11c-3.694,0.101-7.315,0.167-11.052,0.167
	c-1.605,0-3.175-0.101-4.622-0.167c-0.162,0-0.162,0.067-0.162,0.234v0.403c0,0.099,0,0.134,0.123,0.169
	c0.683,0.13,2.332,0.199,2.572,0.502c0.162,0.199,0.322,0.3,0.322,2.411V27.19c0,1.34-0.12,1.944-0.525,2.347
	c-0.723,0.736-1.769,0.935-2.169,1.003c-0.161,0.032-0.161,0.064-0.161,0.167v0.268c0,0.1,0.043,0.134,0.122,0.134
	c1.648-0.1,2.773-0.167,4.383-0.167c2.167,0,4.057,0.066,5.624,0.167c0.082,0,0.119-0.034,0.119-0.134v-0.268
	c0-0.103,0-0.135-0.162-0.167c-0.4-0.068-2.688-0.236-3.374-1.003c-0.362-0.437-0.521-1.006-0.521-2.347v-6.364h4.219
	c1.487,0,1.972,1.072,2.332,3.449c0.563,0,0.844-0.034,0.844-0.299c0-0.134-0.159-2.815-0.159-3.653
	c0-0.802,0.159-3.382,0.159-3.551c0-0.266-0.281-0.3-0.844-0.3c-0.36,2.378-0.845,3.317-2.332,3.317h-4.219v-7.335
	c0-1.072,0-1.172,0.402-1.575c0.2-0.199,2.651-0.301,3.174-0.301c3.856,0,4.823,1.709,5.145,4.086
	C189.158,14.598,189.356,14.564,189.356,14.295 M249.813,25.547c0,2.849-2.569,4.588-4.782,4.588c-1.444,0-2.007-0.266-2.572-0.603
	c-0.643-0.4-0.683-1.072-0.683-2.445v-6.999h2.854C246.317,20.089,249.813,21.06,249.813,25.547 M248.167,15.099
	c0,2.345-2.21,3.987-4.422,3.987c-1.326,0-1.687-0.068-1.969-0.134v-8.106c0.444-0.268,1.366-0.369,2.211-0.369
	C246.923,10.476,248.167,12.687,248.167,15.099 M253.713,24.978c0-3.047-3.376-5.459-7.274-5.593
	c2.975-0.837,5.345-2.478,5.345-5.191c0-1.808-1.846-4.688-7.475-4.688c-1.127,0-4.66,0.167-5.464,0.167h-3.138
	c-0.202,0-0.24,0.035-0.24,0.134v0.403c0,0.102,0,0.134,0.16,0.167c0.601,0.133,2.25,0.101,2.49,0.47
	c0.123,0.201,0.322,0.3,0.322,2.377v14.034c0,2.077-0.199,2.243-0.359,2.477c-0.241,0.37-1.853,0.537-2.492,0.672
	c-0.161,0.034-0.161,0.034-0.161,0.133v0.437c0,0.1,0,0.134,0.118,0.134c1.488-0.066,2.734-0.167,4.466-0.167
	c2.128,0,4.258,0.167,5.666,0.167C249.938,31.109,253.713,28.664,253.713,24.978 M274.606,26.251c0-0.233-0.08-0.268-0.764-0.268
	c-0.965,2.11-1.286,4.019-5.185,4.019c-2.29,0-3.896-0.167-4.581-0.907c-0.403-0.432-0.444-1.035-0.444-2.274v-6.298h4.222
	c1.484,0,1.97,1.003,2.332,3.384c0.563,0,0.841-0.034,0.841-0.303c0-0.938-0.117-1.942-0.117-3.818c0-1.039,0.117-3.248,0.117-3.417
	c0-0.233-0.117-0.269-0.841-0.269c-0.362,2.378-0.848,3.382-2.332,3.382h-4.222v-7.032c0-0.938,0.123-1.139,0.526-1.542
	c0.199-0.199,1.606-0.3,3.052-0.3c3.9,0,4.865,1.674,5.186,4.054c0.565,0,0.764-0.034,0.764-0.303c0-0.167-0.083-1.909-0.083-2.745
	c0-0.605,0.043-1.775,0.043-2.112c-3.534,0.103-6.108,0.167-11.256,0.167c-1.607,0-2.934-0.099-4.379-0.167
	c-0.241,0-0.241,0.069-0.241,0.167v0.502c0,0.101,0,0.136,0.16,0.169c0.565,0.101,2.131,0.166,2.573,0.502
	c0.199,0.166,0.32,0.3,0.32,2.377V27.19c0,2.109-0.2,2.31-0.361,2.543c-0.239,0.37-1.967,0.537-2.574,0.637
	c-0.118,0.035-0.118,0.035-0.118,0.135v0.437c0,0.1,0,0.133,0.28,0.167c1.406-0.034,3.176-0.167,4.622-0.167
	c1.086,0,7.034,0.033,11.415,0.167c0.281-0.738,0.484-1.476,0.602-2.113C274.325,28.194,274.606,26.42,274.606,26.251 M291.843,15
	c0,3.884-2.373,5.223-5.346,5.223c-1.329,0-1.651-0.065-2.012-0.2v-9.076c0.565-0.403,1.651-0.537,2.494-0.537
	C289.83,10.411,291.843,11.649,291.843,15 M300,30.776c0-0.235-0.158-0.202-0.28-0.235c-0.4-0.099-0.886-0.234-1.449-0.602
	c-3.05-2.044-6.148-7.438-7.674-9.581c2.893-0.836,4.821-2.879,4.821-5.325c0-2.946-1.887-5.524-7.798-5.524
	c-1.767,0-5.265,0.166-6.068,0.166h-3.135c-0.28,0-0.32,0.033-0.32,0.134v0.402c0,0.102,0,0.132,0.16,0.167
	c0.685,0.134,2.332,0.099,2.612,0.468c0.161,0.203,0.282,0.302,0.282,2.379v14.034c0,2.075-0.16,2.243-0.322,2.478
	c-0.281,0.368-1.527,0.537-2.253,0.669c-0.159,0.036-0.159,0.036-0.159,0.135v0.435c0,0.102,0.04,0.134,0.202,0.134
	c1.647-0.066,3.979-0.167,4.66-0.167c0.925,0,3.658,0.135,4.824,0.167c0.083,0,0.118-0.032,0.118-0.1v-0.503
	c0-0.034-0.035-0.1-0.118-0.1c-0.4,0-2.41-0.133-3.096-0.904c-0.36-0.437-0.48-1.24-0.522-2.312c-0.038-0.636,0-6.431,0-5.994
	c0.604,0,2.372,0.032,3.296-0.102c0.926,1.341,2.133,3.518,3.138,5.16c1.326,2.175,2.168,3.784,3.336,4.252
	c0.763,0.304,1.566,0.636,3.615,0.636c0.563,0,1.206,0,1.972-0.064C300,31.077,300,30.975,300,30.776 M105.536,22.114h-7.034
	c1.487-3.449,2.492-6.395,3.456-8.708C103.125,16.286,104.251,19.133,105.536,22.114 M114.5,30.427
	c-0.562-0.047-0.886-0.223-1.329-0.458c-0.843-0.467-1.124-0.869-2.531-3.917c-1.285-2.814-4.622-10.283-7.153-16.276
	c-0.163-0.369-0.28-0.472-0.683-0.472c-0.281,0-0.363,0.103-0.523,0.502c-2.571,6.533-5.907,14.169-8.159,18.892
	c-0.322,0.702-1.004,1.308-1.728,1.542c-0.322,0.1-0.603,0.134-1.006,0.167c-0.159,0.034-0.159,0.066-0.159,0.167v0.403
	c0,0.1,0,0.134,0.08,0.134c0.763-0.066,2.088-0.167,3.135-0.167c1.488,0,2.774,0.1,3.858,0.167v-0.504
	c-1.648-0.066-2.331-0.6-2.331-1.573c0-0.201,0.04-0.603,0.24-1.104l1.892-4.756h7.756l2.209,4.922
	c0.202,0.435,0.322,0.803,0.322,1.106c0,1.003-0.924,1.271-2.169,1.404v0.504c1.566-0.134,3.054-0.167,4.018-0.167
	c1.046,0,3.177,0.116,4.262,0.182h0.098c1.084-0.099,2.331-0.182,3.576-0.182c1.166,0,2.572,0.1,4.661,0.167v-0.504
	c-3.294-0.3-3.776-1.708-3.897-4.888c-0.08-2.112-0.28-8.843-0.361-12.192c8.963,10.149,14.792,15.808,16.559,17.783h0.443
	c0.24-0.032,0.321-0.132,0.321-0.333c-0.041-1.372-0.081-3.013-0.12-4.655c-0.082-5.326-0.122-11.253-0.122-12.259
	c0-2.142,0.806-3.013,1.648-3.416c0.403-0.202,0.846-0.368,1.367-0.502c0.121-0.035,0.161-0.168,0.161-0.268V9.508
	c-1.728,0.099-3.336,0.164-4.099,0.164c-0.646,0-2.452,0-4.744-0.164v0.601c3.016,0.234,3.779,1.473,4.061,4.087
	c0.282,2.443,0.522,9.042,0.562,12.324c-3.859-4.019-9.004-9.778-15.113-17.012c-1.406,0.133-2.208,0.164-3.136,0.164
	c-1.123,0-2.008-0.099-3.172-0.164v0.534c0,0.201,0.078,0.236,0.32,0.269c1.486,0.201,3.254,1.405,4.101,2.445
	c0,5.325-0.122,12.962-0.163,13.898c-0.078,1.776-0.401,2.646-0.683,2.879c-0.764,0.636-1.181,0.811-2.049,0.881
	C114.717,30.414,114.6,30.435,114.5,30.427 M77.03,52.536l-0.187-0.233c-0.037-0.063-0.037-0.063-0.111-0.063
	c-0.075,0-0.97,0.682-2.891,0.682c-1.994,0-4.195-1.536-4.195-4.86c0-2.968,2.126-4.336,4.363-4.336
	c1.622,0,2.311,0.795,2.443,1.942c0.26,0,0.41-0.046,0.41-0.154v-1.771c0-0.187-0.149-0.264-0.447-0.313
	c-0.542-0.079-0.897-0.154-2.145-0.154c-3.729,0-6.358,2.19-6.358,5.218c0,2.656,2.05,4.989,5.48,4.989
	C75.092,53.483,76.118,53.094,77.03,52.536 M89.576,49.226h-3.262c0.689-1.601,1.155-2.968,1.603-4.042
	C88.456,46.522,88.979,47.842,89.576,49.226 M93.788,53.342v-0.204c0-0.046-0.018-0.06-0.093-0.075
	c-0.11-0.034-0.372-0.094-0.576-0.203c-0.393-0.216-0.524-0.404-1.174-1.818c-0.597-1.306-2.145-4.77-3.319-7.551
	c-0.075-0.171-0.132-0.218-0.317-0.218c-0.129,0-0.167,0.047-0.242,0.234c-1.195,3.029-2.742,6.572-3.785,8.763
	c-0.15,0.328-0.466,0.606-0.802,0.714c-0.15,0.045-0.28,0.063-0.466,0.079c-0.074,0.015-0.074,0.028-0.074,0.075v0.189
	c0,0.048,0,0.06,0.037,0.06c0.353-0.031,0.969-0.079,1.454-0.079c0.69,0,1.287,0.048,1.792,0.079v-0.232
	c-0.766-0.03-1.082-0.279-1.082-0.731c0-0.092,0.019-0.28,0.111-0.512l0.876-2.205h3.6l1.024,2.284
	c0.094,0.202,0.148,0.371,0.148,0.511c0,0.467-0.428,0.589-1.006,0.653v0.232c0.729-0.06,1.417-0.079,1.864-0.079
	c0.486,0,1.474,0.067,1.978,0.096C93.788,53.404,93.788,53.387,93.788,53.342 M111.452,43.539v-0.17
	c-0.804,0.046-1.548,0.075-1.901,0.075c-0.298,0-1.138,0-2.201-0.075v0.278c1.401,0.109,1.754,0.682,1.885,1.897
	c0.129,1.132,0.241,4.193,0.258,5.715c-1.79-1.862-4.174-4.536-7.009-7.89c-0.65,0.06-1.026,0.075-1.453,0.075
	c-0.524,0-0.933-0.046-1.474-0.075v0.249c0,0.092,0.036,0.108,0.15,0.123c0.688,0.093,1.508,0.65,1.901,1.133
	c0,2.469-0.057,6.016-0.073,6.448c-0.039,0.822-0.188,1.228-0.32,1.338c-0.353,0.291-0.875,0.387-0.932,0.401
	c-0.075,0.018-0.075,0.048-0.075,0.094v0.232c0.504-0.045,1.081-0.079,1.66-0.079c0.542,0,1.192,0.048,2.164,0.079v-0.232
	c-1.529-0.138-1.751-0.793-1.811-2.266c-0.035-0.982-0.128-4.104-0.167-5.659c4.158,4.707,6.861,7.334,7.682,8.252h0.203
	c0.113-0.017,0.152-0.064,0.152-0.156c-0.02-0.639-0.039-1.4-0.057-2.16c-0.037-2.474-0.057-5.222-0.057-5.688
	c0-0.995,0.373-1.4,0.766-1.583c0.187-0.096,0.391-0.171,0.633-0.235C111.433,43.646,111.452,43.584,111.452,43.539 M127.021,52.536
	l-0.189-0.233c-0.035-0.063-0.035-0.063-0.11-0.063c-0.075,0-0.971,0.682-2.891,0.682c-1.994,0-4.195-1.536-4.195-4.86
	c0-2.968,2.126-4.336,4.364-4.336c1.621,0,2.311,0.795,2.442,1.942c0.26,0,0.41-0.046,0.41-0.154v-1.771
	c0-0.187-0.149-0.264-0.447-0.313c-0.54-0.079-0.896-0.154-2.145-0.154c-3.729,0-6.357,2.19-6.357,5.218
	c0,2.656,2.049,4.989,5.48,4.989C125.081,53.483,126.106,53.094,127.021,52.536 M142.083,51.136c0-0.107-0.038-0.123-0.354-0.123
	c-0.449,0.978-0.597,1.864-2.404,1.864c-1.065,0-1.811-0.079-2.127-0.421c-0.188-0.2-0.203-0.482-0.203-1.056v-2.921h1.956
	c0.69,0,0.914,0.468,1.081,1.57c0.263,0,0.393-0.015,0.393-0.142c0-0.432-0.055-0.9-0.055-1.771c0-0.48,0.055-1.505,0.055-1.583
	c0-0.109-0.055-0.126-0.393-0.126c-0.167,1.106-0.39,1.572-1.081,1.572h-1.956v-3.263c0-0.437,0.055-0.531,0.241-0.716
	c0.092-0.092,0.746-0.141,1.416-0.141c1.81,0,2.256,0.778,2.405,1.879c0.263,0,0.355-0.013,0.355-0.138
	c0-0.078-0.038-0.884-0.038-1.276c0-0.278,0.02-0.823,0.02-0.977c-1.641,0.046-2.835,0.079-5.222,0.079
	c-0.745,0-1.361-0.047-2.03-0.079c-0.113,0-0.113,0.031-0.113,0.079v0.231c0,0.047,0,0.064,0.074,0.079
	c0.262,0.047,0.989,0.077,1.195,0.23c0.091,0.08,0.149,0.142,0.149,1.106v6.477c0,0.979-0.094,1.073-0.168,1.181
	c-0.113,0.17-0.914,0.25-1.195,0.295c-0.055,0.017-0.055,0.017-0.055,0.062v0.204c0,0.046,0,0.063,0.129,0.075
	c0.653-0.012,1.473-0.075,2.146-0.075c0.502,0,3.263,0.015,5.293,0.075c0.131-0.34,0.224-0.681,0.281-0.977
	C141.953,52.037,142.083,51.213,142.083,51.136 M155.275,45.915c0,1.803-1.101,2.426-2.482,2.426c-0.615,0-0.763-0.033-0.932-0.095
	v-4.21c0.263-0.187,0.766-0.249,1.155-0.249C154.341,43.787,155.275,44.362,155.275,45.915 M159.059,53.234
	c0-0.109-0.074-0.094-0.129-0.109c-0.188-0.047-0.412-0.108-0.673-0.278c-1.417-0.952-2.853-3.451-3.562-4.445
	c1.343-0.39,2.237-1.337,2.237-2.474c0-1.365-0.875-2.56-3.616-2.56c-0.82,0-2.441,0.075-2.813,0.075h-1.458
	c-0.13,0-0.148,0.017-0.148,0.064v0.186c0,0.048,0,0.063,0.075,0.08c0.318,0.062,1.081,0.045,1.212,0.215
	c0.075,0.095,0.131,0.142,0.131,1.104v6.512c0,0.961-0.075,1.04-0.148,1.147c-0.13,0.17-0.71,0.25-1.046,0.312
	c-0.075,0.015-0.075,0.015-0.075,0.062v0.202c0,0.048,0.02,0.06,0.094,0.06c0.764-0.031,1.845-0.079,2.161-0.079
	c0.433,0,1.699,0.067,2.239,0.079c0.04,0,0.055-0.012,0.055-0.045v-0.233c0-0.017-0.015-0.045-0.055-0.045
	c-0.186,0-1.12-0.062-1.436-0.419c-0.167-0.203-0.224-0.575-0.243-1.073c-0.021-0.295,0-2.985,0-2.781
	c0.278,0,1.103,0.017,1.528-0.048c0.431,0.621,0.987,1.632,1.453,2.395c0.621,1.008,1.009,1.755,1.548,1.973
	c0.356,0.139,0.728,0.295,1.681,0.295c0.26,0,0.559,0,0.913-0.029C159.059,53.375,159.059,53.328,159.059,53.234 M177.999,53.328
	v-0.157c0-0.045,0-0.062-0.075-0.077c-0.186-0.031-0.895-0.11-1.232-0.435c-0.201-0.203-0.201-0.419-0.201-0.995v-6.572
	c0-0.576,0-0.792,0.201-0.995c0.338-0.325,1.047-0.405,1.232-0.434c0.075-0.017,0.075-0.033,0.075-0.08v-0.156
	c0-0.047-0.021-0.06-0.056-0.06c-0.602,0.046-1.565,0.079-2.146,0.079c-0.597,0-1.771-0.047-2.313-0.079
	c-0.034,0-0.055,0.012-0.055,0.06v0.189c0,0.046,0,0.061,0.075,0.075c0.186,0.033,0.931,0.064,1.229,0.405
	c0.186,0.216,0.207,0.419,0.207,0.995v6.572c0,0.576-0.021,0.777-0.207,0.995c-0.299,0.342-1.044,0.37-1.229,0.404
	c-0.075,0.015-0.075,0.031-0.075,0.077v0.188c0,0.048,0.021,0.06,0.055,0.06c0.542-0.029,1.716-0.075,2.313-0.075
	c0.58,0,1.544,0.029,2.146,0.075C177.979,53.387,177.999,53.375,177.999,53.328 M195.923,43.539v-0.17
	c-0.804,0.046-1.548,0.075-1.902,0.075c-0.297,0-1.139,0-2.199-0.075v0.278c1.397,0.109,1.752,0.682,1.886,1.897
	c0.129,1.132,0.24,4.193,0.257,5.715c-1.788-1.862-4.176-4.536-7.009-7.89c-0.653,0.06-1.024,0.075-1.453,0.075
	c-0.522,0-0.934-0.046-1.474-0.075v0.249c0,0.092,0.035,0.108,0.149,0.123c0.689,0.093,1.508,0.65,1.9,1.133
	c0,2.469-0.055,6.016-0.074,6.448c-0.036,0.822-0.188,1.228-0.318,1.338c-0.353,0.291-0.873,0.387-0.93,0.401
	c-0.077,0.018-0.077,0.048-0.077,0.094v0.232c0.505-0.045,1.082-0.079,1.66-0.079c0.543,0,1.193,0.048,2.164,0.079v-0.232
	c-1.527-0.138-1.753-0.793-1.81-2.266c-0.035-0.982-0.131-4.104-0.166-5.659c4.155,4.707,6.86,7.334,7.682,8.252h0.203
	c0.112-0.017,0.15-0.064,0.15-0.156c-0.02-0.639-0.038-1.4-0.057-2.16c-0.036-2.474-0.055-5.222-0.055-5.688
	c0-0.995,0.373-1.4,0.763-1.583c0.188-0.096,0.393-0.171,0.635-0.235C195.906,43.646,195.923,43.584,195.923,43.539 M209.696,50.811
	c0-0.653-0.336-1.615-2.425-2.967c-1.658-1.073-2.757-1.54-2.757-2.625c0-0.825,0.728-1.493,1.957-1.493
	c1.437,0,1.883,1.056,2.068,2.038c0.411,0,0.543-0.063,0.522-0.313l-0.111-1.492c-0.017-0.279-0.133-0.341-0.559-0.454
	c-0.449-0.105-0.988-0.229-1.809-0.229c-1.995,0-3.636,0.683-3.636,2.204c0,1.168,1.117,1.927,2.796,2.971
	c1.121,0.68,2.349,1.69,2.349,2.734c0,1.178-0.855,1.849-2.085,1.849c-1.29,0-2.351-0.561-2.91-2.565
	c-0.43,0-0.521,0.063-0.43,0.528l0.315,1.726c0.058,0.279,0.076,0.324,0.578,0.448c0.393,0.094,1.455,0.313,2.33,0.313
	C208.335,53.483,209.696,52.27,209.696,50.811 M225.735,45.529v-1.771c0-0.235-0.019-0.31-0.075-0.389
	c-1.639,0.031-2.683,0.079-4.491,0.079c-1.679,0-2.67-0.017-4.662-0.079c-0.019,0.062-0.036,0.139-0.036,0.374v1.771
	c0,0.293,0.107,0.324,0.371,0.324c0.15-1.18,0.54-1.941,2.352-1.941h1.099v7.787c0,0.573-0.018,0.758-0.205,0.976
	c-0.297,0.342-1.041,0.374-1.229,0.404c-0.076,0.015-0.076,0.031-0.076,0.079v0.185c0,0.048,0.017,0.06,0.056,0.06
	c0.539-0.029,1.716-0.075,2.311-0.075c0.578,0,1.548,0.029,2.146,0.075c0.036,0,0.055-0.012,0.055-0.06v-0.157
	c0-0.045,0-0.062-0.074-0.077c-0.187-0.031-0.896-0.108-1.23-0.435c-0.205-0.203-0.205-0.403-0.205-0.976v-7.787h1.118
	c1.809,0,2.199,0.761,2.351,1.941C225.644,45.854,225.735,45.824,225.735,45.529 M236.748,53.328v-0.157
	c0-0.045,0-0.062-0.077-0.077c-0.184-0.031-0.892-0.11-1.229-0.435c-0.207-0.203-0.207-0.419-0.207-0.995v-6.572
	c0-0.576,0-0.792,0.207-0.995c0.337-0.325,1.045-0.405,1.229-0.434c0.077-0.017,0.077-0.033,0.077-0.08v-0.156
	c0-0.047-0.019-0.06-0.056-0.06c-0.6,0.046-1.565,0.079-2.146,0.079c-0.594,0-1.771-0.047-2.311-0.079
	c-0.036,0-0.055,0.012-0.055,0.06v0.189c0,0.046,0,0.061,0.069,0.075c0.192,0.033,0.935,0.064,1.232,0.405
	c0.187,0.216,0.208,0.419,0.208,0.995v6.572c0,0.576-0.021,0.777-0.208,0.995c-0.298,0.342-1.04,0.37-1.232,0.404
	c-0.069,0.015-0.069,0.031-0.069,0.077v0.188c0,0.048,0.019,0.06,0.055,0.06c0.54-0.029,1.717-0.075,2.311-0.075
	c0.58,0,1.546,0.029,2.146,0.075C236.729,53.387,236.748,53.375,236.748,53.328 M252.398,45.529v-1.771
	c0-0.235-0.021-0.31-0.075-0.389c-1.641,0.031-2.685,0.079-4.491,0.079c-1.679,0-2.67-0.017-4.662-0.079
	c-0.021,0.062-0.036,0.139-0.036,0.374v1.771c0,0.293,0.109,0.324,0.373,0.324c0.148-1.18,0.54-1.941,2.35-1.941h1.099v7.787
	c0,0.573-0.017,0.758-0.205,0.976c-0.3,0.342-1.046,0.374-1.229,0.404c-0.076,0.015-0.076,0.031-0.076,0.079v0.185
	c0,0.048,0.02,0.06,0.058,0.06c0.539-0.029,1.714-0.075,2.311-0.075c0.578,0,1.548,0.029,2.145,0.075
	c0.034,0,0.055-0.012,0.055-0.06v-0.157c0-0.045,0-0.062-0.074-0.077c-0.187-0.031-0.894-0.108-1.229-0.435
	c-0.204-0.203-0.204-0.403-0.204-0.976v-7.787h1.117c1.809,0,2.196,0.761,2.349,1.941C252.304,45.854,252.398,45.824,252.398,45.529
	 M269.506,43.618V43.46c0-0.079-0.02-0.091-0.091-0.091c-0.337,0.031-1.177,0.079-1.51,0.079c-0.506,0-1.399-0.033-2.054-0.079
	c-0.054,0-0.073,0.012-0.073,0.06v0.128c0,0.045,0.02,0.062,0.095,0.062c1.099,0.061,1.379,0.311,1.526,1.397
	c0.113,0.777,0.188,2.003,0.188,3.014c0,1.228-0.019,2.174-0.542,3.372c-0.336,0.777-1.247,1.521-2.423,1.521
	c-1.547,0-2.814-0.494-2.814-3.962v-3.559c0-0.574-0.018-1.101,0.166-1.303c0.316-0.34,1.23-0.434,1.417-0.467
	c0.074-0.013,0.074-0.03,0.074-0.075v-0.128c0-0.047-0.017-0.06-0.054-0.06c-0.802,0.06-1.38,0.079-2.295,0.079
	c-0.48,0-1.77-0.047-2.124-0.079c-0.037,0-0.057,0.012-0.057,0.06v0.189c0,0.046,0,0.061,0.075,0.075
	c0.187,0.033,0.747,0.064,1.063,0.405c0.186,0.202,0.186,0.419,0.186,0.995v4.662c0,2.453,1.491,3.729,3.842,3.729
	c1.81,0,2.964-0.777,3.521-1.866c0.539-1.04,0.637-2.499,0.615-3.574c-0.017-1.008,0.058-2.546,0.094-3.06
	c0.075-0.948,0.13-1.104,0.597-1.211c0.206-0.047,0.375-0.063,0.448-0.08C269.486,43.678,269.506,43.664,269.506,43.618
	 M284.973,45.529v-1.771c0-0.235-0.021-0.31-0.076-0.389c-1.643,0.031-2.687,0.079-4.494,0.079c-1.675,0-2.667-0.017-4.659-0.079
	c-0.021,0.062-0.038,0.139-0.038,0.374v1.771c0,0.293,0.112,0.324,0.373,0.324c0.147-1.18,0.542-1.941,2.349-1.941h1.099v7.787
	c0,0.573-0.017,0.758-0.204,0.976c-0.299,0.342-1.044,0.374-1.229,0.404c-0.075,0.015-0.075,0.031-0.075,0.079v0.185
	c0,0.048,0.021,0.06,0.057,0.06c0.54-0.029,1.714-0.075,2.311-0.075c0.58,0,1.548,0.029,2.145,0.075c0.036,0,0.057-0.012,0.057-0.06
	v-0.157c0-0.045,0-0.062-0.075-0.077c-0.186-0.031-0.896-0.108-1.23-0.435c-0.205-0.203-0.205-0.403-0.205-0.976v-7.787h1.121
	c1.806,0,2.199,0.761,2.349,1.941C284.875,45.854,284.973,45.824,284.973,45.529 M299.469,51.136c0-0.107-0.038-0.123-0.354-0.123
	c-0.448,0.978-0.599,1.864-2.405,1.864c-1.063,0-1.806-0.079-2.126-0.421c-0.185-0.2-0.204-0.482-0.204-1.056v-2.921h1.957
	c0.69,0,0.914,0.468,1.081,1.57c0.262,0,0.393-0.015,0.393-0.142c0-0.432-0.058-0.9-0.058-1.771c0-0.48,0.058-1.505,0.058-1.583
	c0-0.109-0.058-0.126-0.393-0.126C297.25,47.534,297.026,48,296.336,48h-1.957v-3.263c0-0.437,0.055-0.531,0.247-0.716
	c0.09-0.092,0.742-0.141,1.412-0.141c1.812,0,2.257,0.778,2.408,1.879c0.261,0,0.353-0.013,0.353-0.138
	c0-0.078-0.038-0.884-0.038-1.276c0-0.278,0.017-0.823,0.017-0.977c-1.639,0.046-2.829,0.079-5.217,0.079
	c-0.748,0-1.364-0.047-2.033-0.079c-0.111,0-0.111,0.031-0.111,0.079v0.231c0,0.047,0,0.064,0.074,0.079
	c0.259,0.047,0.984,0.077,1.193,0.23c0.09,0.08,0.149,0.142,0.149,1.106v6.477c0,0.979-0.095,1.073-0.171,1.181
	c-0.111,0.17-0.913,0.25-1.19,0.295c-0.056,0.017-0.056,0.017-0.056,0.062v0.204c0,0.046,0,0.063,0.129,0.075
	c0.651-0.012,1.472-0.075,2.146-0.075c0.502,0,3.262,0.015,5.295,0.075c0.128-0.34,0.219-0.681,0.28-0.977
	C299.339,52.037,299.469,51.213,299.469,51.136 M212.56,31.125c1.648-0.066,3.979-0.182,4.662-0.182
	c0.925,0,3.656,0.133,4.822,0.167c0.082,0,0.122-0.034,0.122-0.1v-0.503c0-0.034-0.04-0.1-0.122-0.1
	c-0.401,0-2.41-0.135-3.096-0.904c-0.361-0.437-0.48-1.242-0.523-2.312c-0.037-0.636,0-6.431,0-5.996c0.608,0,2.375,0.034,3.296-0.1
	c0.926,1.339,2.134,3.516,3.138,5.157c1.326,2.178,2.168,3.784,3.337,4.254c0.763,0.302,1.565,0.636,3.616,0.636
	c0.563,0,1.205,0,1.967-0.066c0.162,0,0.162-0.1,0.162-0.303c0-0.233-0.162-0.2-0.28-0.233c-0.4-0.099-0.886-0.234-1.447-0.602
	c-3.053-2.043-6.149-7.436-7.677-9.579c2.893-0.838,4.823-2.879,4.823-5.325c0-2.948-1.888-5.524-7.799-5.524
	c-1.767,0-5.265,0.164-6.066,0.164h-3.138c-0.279,0-0.32,0.035-0.32,0.134v0.403c0,0.102,0,0.134,0.16,0.169
	c0.686,0.134,2.332,0.099,2.613,0.468c0.16,0.201,0.282,0.302,0.282,2.377v14.034c0,2.077-0.16,2.245-0.323,2.479
	c-0.219,0.246-0.984,0.449-1.707,0.582c0,0-0.306,0.065-0.673,0.079c-0.254,0.013-0.603-0.022-0.62-0.024
	c-0.244-0.068-0.626-0.169-1.066-0.404c-0.849-0.467-1.129-0.869-2.535-3.917c-1.286-2.815-4.622-10.284-7.155-16.28
	c-0.159-0.369-0.279-0.469-0.685-0.469c-0.28,0-0.36,0.101-0.519,0.502c-2.572,6.533-5.91,14.169-8.16,18.892
	c-0.323,0.702-1.006,1.308-1.729,1.542c-0.319,0.1-0.603,0.134-1.004,0.167c-0.162,0.034-0.162,0.066-0.162,0.167v0.403
	c0,0.1,0,0.134,0.082,0.134c0.765-0.066,2.091-0.167,3.133-0.167c1.487,0,2.774,0.1,3.858,0.167v-0.504
	c-1.647-0.066-2.328-0.6-2.328-1.573c0-0.201,0.039-0.603,0.238-1.104l1.891-4.756h7.758l2.21,4.922
	c0.2,0.435,0.32,0.803,0.32,1.106c0,1.003-0.924,1.271-2.169,1.404v0.504c1.565-0.134,3.055-0.167,4.019-0.167
	c1.046,0,3.191,0.116,4.278,0.182 M203.035,22.133h-7.034c1.488-3.451,2.49-6.397,3.453-8.708
	C200.622,16.306,201.747,19.151,203.035,22.133 M225.627,15.081c0,3.885-2.373,5.226-5.348,5.226c-1.327,0-1.649-0.067-2.008-0.203
	v-9.075c0.562-0.403,1.647-0.537,2.49-0.537C223.614,10.492,225.627,11.733,225.627,15.081"/>
</svg>
