<?xml version="1.0" encoding="utf-8"?>
<!-- Generator: Adobe Illustrator 23.0.1, SVG Export Plug-In . SVG Version: 6.00 Build 0)  -->
<svg version="1.1" id="Capa_1" xmlns="http://www.w3.org/2000/svg" xmlns:xlink="http://www.w3.org/1999/xlink" x="0px" y="0px"
	 width="21px" height="67.9px" viewBox="0 0 21 67.9" style="enable-background:new 0 0 21 67.9;" xml:space="preserve">
<style type="text/css">
	.st0{fill:#B2B2B2;}
	.st1{fill:#3785BF;}
	.st2{fill:#777777;}
</style>
<g>
	<rect class="st0" width="21" height="2"/>
	<rect y="3" class="st0" width="21" height="4"/>
	<rect y="47" class="st0" width="21" height="4"/>
	<rect y="8" class="st0" width="21" height="2"/>
	<rect y="54" class="st0" width="21" height="4"/>
	<rect y="64" class="st0" width="21" height="1"/>
	<rect y="28" class="st0" width="21" height="2"/>
	<rect y="31" class="st0" width="21" height="6"/>
	<rect y="15" class="st0" width="21" height="1"/>
	<rect y="13" class="st0" width="21" height="1"/>
	<rect y="17" class="st0" width="21" height="1"/>
	<rect y="37" class="st1" width="21" height="1"/>
	<rect y="58" class="st1" width="21" height="3"/>
	<rect y="2" class="st1" width="21" height="1"/>
	<rect y="7" class="st1" width="21" height="1"/>
	<rect y="19" class="st1" width="21" height="2"/>
	<rect y="44" class="st1" width="21" height="1"/>
	<rect y="30" class="st1" width="21" height="1"/>
	<rect y="51" class="st1" width="21" height="2"/>
	<rect y="23" class="st1" width="21" height="2"/>
	<rect y="61" class="st2" width="21" height="3"/>
	<rect y="16" class="st2" width="21" height="1"/>
	<rect y="18" class="st2" width="21" height="1"/>
	<rect y="14" class="st2" width="21" height="1"/>
	<rect y="16" class="st2" width="21" height="1"/>
	<rect y="45" class="st2" width="21" height="2"/>
	<rect y="10" class="st2" width="21" height="3"/>
	<rect y="53" class="st2" width="21" height="1"/>
	<rect y="25" class="st2" width="21" height="3"/>
	<rect y="21" class="st2" width="21" height="2"/>
	<rect y="38" class="st2" width="21" height="6"/>
</g>
</svg>
