<?xml version="1.0" encoding="utf-8"?>
<!-- Generator: Adobe Illustrator 23.0.1, SVG Export Plug-In . SVG Version: 6.00 Build 0)  -->
<svg version="1.1" id="Capa_1" xmlns="http://www.w3.org/2000/svg" xmlns:xlink="http://www.w3.org/1999/xlink" x="0px" y="0px"
	 viewBox="0 0 280.3 80" style="enable-background:new 0 0 280.3 80;" xml:space="preserve">
<style type="text/css">
	.st0{fill:#B2B2B2;}
	.st1{fill:#777777;}
	.st2{fill:#3785BF;}
</style>
<path class="st0" d="M214.6,16.6C221.1,1.9,231.4,0,231.4,0s-8.1-0.2-11.9,0.3c-3.5,0.5-10.3,1-17.1,16.5
	c-0.9,2.1-9.7,21.5-9.7,21.5c-6.5,14.7-16.8,16.5-16.8,16.5s7.6,0.2,11.9-0.3c3.5-0.5,10.3-0.9,17.1-16.5
	C204.8,38.1,213.9,18.1,214.6,16.6z"/>
<path class="st0" d="M249.5,16.6C256,1.9,266.3,0,266.3,0s-8.1-0.2-11.9,0.3c-3.5,0.5-10.3,1-17,16.5c-0.9,2.1-9.7,21.5-9.7,21.5
	c-6.5,14.7-16.8,16.5-16.8,16.5s7.6,0.2,11.9-0.3c3.5-0.5,10.3-0.9,17.1-16.5C239.8,38.1,248.9,18.1,249.5,16.6z"/>
<path class="st0" d="M116.2,16.6C122.7,1.9,133,0,133,0s-8.1-0.2-11.9,0.3c-3.5,0.5-10.3,0.9-17.1,16.5c-0.9,2.1-9.7,21.5-9.7,21.5
	C87.7,53,77.5,54.9,77.5,54.9s7.6,0.2,11.9-0.3c3.5-0.5,10.3-0.9,17.1-16.5C106.4,38.1,115.6,18.1,116.2,16.6z"/>
<path class="st0" d="M151.1,16.6C157.7,1.9,167.9,0,167.9,0s-8.1-0.2-11.9,0.3c-3.5,0.5-10.3,0.9-17.1,16.5
	c-0.9,2.1-9.7,21.5-9.7,21.5c-6.5,14.8-16.8,16.6-16.8,16.6s7.6,0.2,11.9-0.3c3.5-0.5,10.3-0.9,17.1-16.5
	C141.4,38.1,150.5,18.1,151.1,16.6z"/>
<path class="st1" d="M238.6,6.1c0.8,0,1.4,0.7,1.4,1.4v21.7c0,0.8-0.7,1.4-1.4,1.4c-0.8,0-1.4-0.6-1.4-1.4V7.6
	C237.1,6.8,237.8,6.1,238.6,6.1z"/>
<path class="st1" d="M203,26.3c0.8,0,1.4,0.7,1.4,1.4v19.9c0,0.8-0.7,1.4-1.4,1.4s-1.4-0.7-1.4-1.4V27.7
	C201.6,26.9,202.3,26.3,203,26.3z"/>
<path class="st1" d="M229.7,0.6c0.8,0,1.4,0.7,1.4,1.4v43.1c0,0.8-0.7,1.4-1.4,1.4s-1.4-0.6-1.4-1.4v-43
	C228.2,1.3,228.9,0.6,229.7,0.6z"/>
<path class="st1" d="M211.9,10.4c0.8,0,1.4,0.7,1.4,1.4v41.1c0,0.8-0.7,1.4-1.4,1.4s-1.4-0.7-1.4-1.4v-41
	C210.5,11.1,211.1,10.4,211.9,10.4z"/>
<path class="st1" d="M220.8,2.2c0.8,0,1.4,0.7,1.4,1.4v47.5c0,0.8-0.7,1.4-1.4,1.4s-1.4-0.7-1.4-1.4V3.6
	C219.4,2.8,220,2.2,220.8,2.2z"/>
<path class="st2" d="M262.4,38.3c6.5,14.8,16.8,16.6,16.8,16.6s-7.9,0.2-11.9-0.3c-3.5-0.5-10.3-0.9-17.1-16.5
	c-0.9-2.1-9.7-21.5-9.7-21.5C234,1.9,223.7,0,223.7,0s8.2-0.2,11.9,0.3c3.5,0.5,10.3,0.9,17.1,16.5
	C252.7,16.9,261.7,36.8,262.4,38.3z"/>
<path class="st1" d="M191.9,28.8c0.8,0,1.4,0.7,1.4,1.4v17.6c0,0.8-0.7,1.4-1.4,1.4c-0.8,0-1.4-0.7-1.4-1.4V30.3
	C190.4,29.5,191,28.8,191.9,28.8z"/>
<path class="st1" d="M156.4,3.2c0.8,0,1.4,0.7,1.4,1.4v24c0,0.8-0.7,1.4-1.4,1.4s-1.4-0.7-1.4-1.4v-24
	C154.9,3.8,155.6,3.2,156.4,3.2z"/>
<path class="st1" d="M183,9.9c0.8,0,1.4,0.7,1.4,1.4v40.5c0,0.8-0.7,1.4-1.4,1.4c-0.8,0-1.4-0.7-1.4-1.4V11.3
	C181.5,10.5,182.2,9.9,183,9.9z"/>
<path class="st1" d="M93.2,28.8c0.8,0,1.4,0.7,1.4,1.4v17.6c0,0.8-0.7,1.4-1.4,1.4c-0.8,0-1.4-0.7-1.4-1.4V30.3
	C91.7,29.5,92.4,28.8,93.2,28.8z"/>
<path class="st1" d="M84.3,9.9c0.8,0,1.4,0.7,1.4,1.4v40.5c0,0.8-0.6,1.4-1.4,1.4s-1.4-0.7-1.4-1.4V11.3
	C82.8,10.5,83.5,9.9,84.3,9.9z"/>
<path class="st1" d="M165.2,0.6c0.8,0,1.4,0.7,1.4,1.4v46.5c0,0.8-0.7,1.4-1.4,1.4s-1.4-0.7-1.4-1.4V2.1
	C163.8,1.3,164.5,0.6,165.2,0.6z"/>
<rect x="173.2" y="4.6" class="st1" width="2.9" height="49"/>
<path class="st1" d="M140.2,6.1c0.8,0,1.4,0.7,1.4,1.4V29c0,0.8-0.7,1.4-1.4,1.4s-1.4-0.7-1.4-1.4V7.6
	C138.7,6.8,139.4,6.1,140.2,6.1z"/>
<path class="st1" d="M104.7,26.3c0.8,0,1.4,0.7,1.4,1.4v19.9c0,0.8-0.7,1.4-1.4,1.4c-0.8,0-1.4-0.7-1.4-1.4V27.7
	C103.2,26.9,103.9,26.3,104.7,26.3z"/>
<path class="st1" d="M131.3,0.6c0.8,0,1.4,0.7,1.4,1.4v43.1c0,0.8-0.7,1.4-1.4,1.4s-1.4-0.6-1.4-1.4v-43
	C129.9,1.3,130.5,0.6,131.3,0.6z"/>
<path class="st1" d="M113.5,10.4c0.8,0,1.4,0.7,1.4,1.4v41.1c0,0.8-0.7,1.4-1.4,1.4s-1.4-0.7-1.4-1.4v-41
	C112.1,11.1,112.8,10.4,113.5,10.4z"/>
<path class="st1" d="M122.4,2.2c0.8,0,1.4,0.7,1.4,1.4v47.5c0,0.8-0.7,1.4-1.4,1.4c-0.8,0-1.4-0.7-1.4-1.4V3.6
	C121,2.8,121.6,2.2,122.4,2.2z"/>
<path class="st2" d="M165,38.3c6.5,14.8,16.8,16.6,16.8,16.6s-7.9,0.2-11.9-0.3c-3.5-0.5-10.3-0.9-17.1-16.5
	c-0.9-2.1-9.7-21.5-9.7-21.5C136.6,1.9,126.3,0,126.3,0s8.2-0.2,11.9,0.3c3.5,0.5,10.3,0.9,17.1,16.5
	C155.3,16.9,164.3,36.8,165,38.3z"/>
<path class="st2" d="M200,38.3c6.5,14.8,16.8,16.6,16.8,16.6s-7.9,0.2-11.9-0.3c-3.5-0.5-10.3-0.9-17.1-16.5
	c-0.9-2.1-9.7-21.5-9.7-21.5C171.6,1.9,161.3,0,161.3,0s8.2-0.2,11.9,0.3c3.5,0.5,10.3,0.9,17.1,16.5
	C190.2,16.9,199.3,36.8,200,38.3z"/>
<path class="st2" d="M101.6,38.3c6.5,14.8,16.8,16.6,16.8,16.6s-7.9,0.2-11.9-0.3c-3.5-0.6-10.3-1-17.1-16.5
	c-0.9-2.1-9.7-21.5-9.7-21.5C73.2,1.9,62.9,0,62.9,0S71-0.2,74.8,0.4c3.5,0.5,10.3,0.9,17.1,16.5C91.8,16.9,100.9,36.8,101.6,38.3z"
	/>
<g>
	<path class="st2" d="M50.7,52.7H15.6v-6.9l16.5-17.6c2.3-2.5,3.9-4.6,5-6.5c1.1-1.8,1.6-3.6,1.6-5.3c0-2.3-0.6-4-1.7-5.4
		c-1.2-1.3-2.8-2-4.9-2c-2.3,0-4.1,0.8-5.4,2.4s-2,3.7-2,6.2H14.6c0-3.1,0.7-5.9,2.2-8.6c1.5-2.5,3.6-4.6,6.3-6.1
		c2.7-1.4,5.8-2.2,9.2-2.2c5.3,0,9.3,1.2,12.3,3.8C47.5,7,49,10.6,49,15.2c0,2.5-0.7,5.1-2,7.7s-3.5,5.7-6.7,9.1L28.7,44.5h21.9
		L50.7,52.7L50.7,52.7L50.7,52.7z"/>
</g>
</svg>
