<?xml version="1.0" encoding="utf-8"?>
<!-- Generator: Adobe Illustrator 18.1.1, SVG Export Plug-In . SVG Version: 6.00 Build 0)  -->
<svg version="1.1" id="Layer_1" xmlns="http://www.w3.org/2000/svg" xmlns:xlink="http://www.w3.org/1999/xlink" x="0px" y="0px"
	 viewBox="0 0 149.6 68.7" enable-background="new 0 0 149.6 68.7" xml:space="preserve">
<g>
	<g>
		<g>
			<g>
				<g>
					<path fill="#424243" d="M33.3,12.5h1.9l5.1,12.9h0l5-12.9h2v14.8h-1.3V14.4h0c0,0-0.4,1.2-0.7,2l-4.3,10.9h-1.2l-4.3-10.9
						c-0.3-0.8-0.7-2-0.7-2h0v12.9h-1.3V12.5z"/>
					<path fill="#424243" d="M49.1,22c0-3.2,1.9-5.6,4.9-5.6c3.4,0,4.6,2.8,4.6,5.9h-8.2c0.1,2.4,1.2,4.3,3.7,4.3
						c1.8,0,2.7-1,3.1-2.4h1.2c-0.5,2.1-2,3.5-4.4,3.5C50.9,27.6,49.1,25.2,49.1,22z M57.2,21.2c-0.1-2.1-1.1-3.8-3.3-3.8
						c-2.2,0-3.3,1.6-3.5,3.8H57.2z"/>
					<path fill="#424243" d="M60.5,25.5v-7.8h-1.6v-1.1h1.6v-3.3h1.3v3.3h2v1.1h-2v7.6c0,0.8,0.4,1,1,1c0.3,0,0.7-0.1,0.9-0.2h0.1
						v1.1c-0.4,0.1-0.7,0.2-1.2,0.2C61.3,27.4,60.5,26.8,60.5,25.5z"/>
					<path fill="#424243" d="M64.5,24.6c0-2.6,2-3.1,4.4-3.4c2.1-0.2,2.9-0.4,2.9-1.5v-0.2c0-1.5-0.9-2.2-2.6-2.2
						c-1.9,0-2.9,0.8-3,2.4H65c0.1-2.1,1.5-3.4,4.3-3.4c2.3,0,3.8,1,3.8,3.3v5.8c0,0.6,0.2,0.9,0.7,0.9c0.1,0,0.3,0,0.5-0.1h0.1v0.9
						c-0.2,0.1-0.5,0.2-0.9,0.2c-0.9,0-1.5-0.5-1.6-1.5v-0.2h-0.1c-0.6,0.9-1.7,1.8-3.8,1.8C66,27.6,64.5,26.6,64.5,24.6z
						 M71.8,23.4v-1.9c-0.7,0.4-1.7,0.6-2.8,0.7c-1.8,0.2-3.2,0.5-3.2,2.4c0,1.5,1.1,2,2.4,2C70.6,26.5,71.8,24.9,71.8,23.4z"/>
					<path fill="#424243" d="M74.5,24h1.3c0.2,1.8,1.4,2.5,3.2,2.5c1.8,0,2.7-0.8,2.7-2.1c0-1.2-0.7-1.6-2.9-2.1
						c-2.2-0.5-3.9-1-3.9-3.1c0-1.8,1.5-2.9,3.7-2.9c2.6,0,3.7,1.3,4,3.2h-1.3c-0.1-1.4-1.1-2.1-2.7-2.1c-1.7,0-2.4,0.8-2.4,1.8
						c0,1.2,1,1.5,3.1,2c2.2,0.5,3.7,1,3.7,3.2c0,1.9-1.5,3.2-4,3.2C76.1,27.6,74.7,26,74.5,24z"/>
					<path fill="#424243" d="M85,25.5v-7.8h-1.6v-1.1H85v-3.3h1.3v3.3h2v1.1h-2v7.6c0,0.8,0.4,1,1,1c0.3,0,0.7-0.1,0.9-0.2h0.1v1.1
						c-0.4,0.1-0.7,0.2-1.2,0.2C85.8,27.4,85,26.8,85,25.5z"/>
					<path fill="#424243" d="M89,24.6c0-2.6,2-3.1,4.4-3.4c2.1-0.2,2.9-0.4,2.9-1.5v-0.2c0-1.5-0.9-2.2-2.6-2.2
						c-1.9,0-2.9,0.8-3,2.4h-1.3c0.1-2.1,1.5-3.4,4.3-3.4c2.3,0,3.8,1,3.8,3.3v5.8c0,0.6,0.2,0.9,0.7,0.9c0.1,0,0.3,0,0.5-0.1h0.1
						v0.9c-0.2,0.1-0.5,0.2-0.9,0.2c-0.9,0-1.5-0.5-1.6-1.5v-0.2h-0.1c-0.6,0.9-1.7,1.8-3.8,1.8C90.5,27.6,89,26.6,89,24.6z
						 M96.3,23.4v-1.9c-0.7,0.4-1.7,0.6-2.8,0.7c-1.8,0.2-3.2,0.5-3.2,2.4c0,1.5,1.1,2,2.4,2C95.1,26.5,96.3,24.9,96.3,23.4z"/>
					<path fill="#424243" d="M100.2,25.5v-7.8h-1.6v-1.1h1.6v-3.3h1.3v3.3h2v1.1h-2v7.6c0,0.8,0.4,1,1,1c0.3,0,0.7-0.1,0.9-0.2h0.1
						v1.1c-0.4,0.1-0.7,0.2-1.2,0.2C101.1,27.4,100.2,26.8,100.2,25.5z"/>
					<path fill="#424243" d="M104.7,12.5h1.3v1.8h-1.3V12.5z M104.7,16.6h1.3v10.7h-1.3V16.6z"/>
					<path fill="#424243" d="M107.4,22c0-3.2,1.8-5.6,4.9-5.6c2.4,0,4,1.3,4.3,3.5h-1.3c-0.3-1.6-1.4-2.4-3-2.4
						c-2.5,0-3.6,2.1-3.6,4.5s1.1,4.5,3.5,4.5c1.8,0,3-1.1,3.2-2.9h1.2c-0.2,2.4-1.8,4-4.4,4C109.2,27.6,107.4,25.2,107.4,22z"/>
					<path fill="#424243" d="M33.3,31h6.2c1.3,0,2.4,0.4,3.2,1.1c0.7,0.6,1.1,1.5,1.1,2.7c0,1.7-0.8,2.7-2.3,3.2V38
						c1.7,0.5,2.9,1.7,2.9,3.7c0,1.2-0.4,2.2-1.1,2.9c-0.8,0.8-2,1.3-3.5,1.3h-6.4V31z M39.4,37.5c1.8,0,2.8-1.1,2.8-2.7
						c0-1.7-1.1-2.6-2.8-2.6h-4.8v5.3H39.4z M39.6,44.5c1.1,0,2-0.3,2.5-0.9c0.5-0.5,0.7-1.2,0.7-2c0-1.9-1.3-3-3.3-3h-5v5.9H39.6z"
						/>
					<path fill="#424243" d="M45.9,35.1h1.3v2h0c0.7-1.2,1.8-2.1,3.3-2.1c0.2,0,0.3,0,0.4,0v1.3c-0.8-0.1-1.6,0-2.3,0.5
						c-0.8,0.6-1.4,1.6-1.4,2.9v6.1h-1.3V35.1z"/>
					<path fill="#424243" d="M51,40.5c0-3.2,1.9-5.6,4.9-5.6c3.4,0,4.6,2.8,4.6,5.9h-8.2c0.1,2.4,1.2,4.3,3.7,4.3
						c1.8,0,2.7-1,3.1-2.4h1.2c-0.5,2.1-2,3.5-4.4,3.5C52.8,46.1,51,43.7,51,40.5z M59.2,39.7c-0.1-2.1-1.1-3.8-3.3-3.8
						c-2.2,0-3.3,1.6-3.5,3.8H59.2z"/>
					<path fill="#424243" d="M61.4,43.1c0-2.6,2-3.1,4.4-3.4c2.1-0.2,2.9-0.4,2.9-1.5V38c0-1.5-0.9-2.2-2.6-2.2
						c-1.9,0-2.9,0.8-3,2.4h-1.3c0.1-2.1,1.5-3.4,4.3-3.4c2.3,0,3.8,1,3.8,3.3V44c0,0.6,0.2,0.9,0.7,0.9c0.1,0,0.3,0,0.5-0.1h0.1
						v0.9c-0.2,0.1-0.5,0.2-0.9,0.2c-0.9,0-1.5-0.5-1.6-1.5v-0.2h-0.1c-0.6,0.9-1.7,1.8-3.8,1.8C62.9,46.1,61.4,45.1,61.4,43.1z
						 M68.7,41.9V40c-0.7,0.4-1.7,0.6-2.8,0.7c-1.8,0.2-3.2,0.5-3.2,2.4c0,1.5,1.1,2,2.4,2C67.4,45,68.7,43.4,68.7,41.9z"/>
					<path fill="#424243" d="M71.4,42.5h1.3c0.2,1.8,1.4,2.5,3.2,2.5c1.8,0,2.7-0.8,2.7-2.1c0-1.2-0.7-1.6-2.9-2.1
						c-2.2-0.5-3.9-1-3.9-3.1c0-1.8,1.5-2.9,3.7-2.9c2.6,0,3.7,1.3,4,3.2h-1.3c-0.1-1.4-1.1-2.1-2.7-2.1c-1.7,0-2.4,0.8-2.4,1.8
						c0,1.2,1,1.5,3.1,2c2.2,0.5,3.7,1,3.7,3.2c0,1.9-1.5,3.2-4,3.2C73,46.1,71.5,44.5,71.4,42.5z"/>
					<path fill="#424243" d="M81.8,44v-7.8h-1.6v-1.1h1.6v-3.3h1.3v3.3h2v1.1h-2v7.6c0,0.8,0.4,1,1,1c0.3,0,0.7-0.1,0.9-0.2h0.1v1.1
						c-0.4,0.1-0.7,0.2-1.2,0.2C82.7,45.9,81.8,45.3,81.8,44z"/>
					<path fill="#424243" d="M89.4,38.4c0-4.5,2.6-7.7,6.7-7.7c3.1,0,5.2,1.7,5.7,4.5h-1.4c-0.4-1.9-1.9-3.3-4.4-3.3
						c-3.5,0-5.3,2.9-5.3,6.5c0,3.7,1.8,6.5,5.2,6.5c2.9,0,4.4-2,4.6-4.4h1.3c-0.1,1.5-0.6,2.9-1.5,3.9c-1,1.2-2.6,1.8-4.5,1.8
						C91.9,46.1,89.4,42.9,89.4,38.4z"/>
					<path fill="#424243" d="M103,43.1c0-2.6,2-3.1,4.4-3.4c2.1-0.2,2.9-0.4,2.9-1.5V38c0-1.5-0.9-2.2-2.6-2.2c-1.9,0-2.9,0.8-3,2.4
						h-1.3c0.1-2.1,1.5-3.4,4.3-3.4c2.3,0,3.8,1,3.8,3.3V44c0,0.6,0.2,0.9,0.7,0.9c0.1,0,0.3,0,0.5-0.1h0.1v0.9
						c-0.2,0.1-0.5,0.2-0.9,0.2c-0.9,0-1.5-0.5-1.6-1.5v-0.2h-0.1c-0.6,0.9-1.7,1.8-3.8,1.8C104.5,46.1,103,45.1,103,43.1z
						 M110.3,41.9V40c-0.7,0.4-1.7,0.6-2.8,0.7c-1.8,0.2-3.2,0.5-3.2,2.4c0,1.5,1.1,2,2.4,2C109,45,110.3,43.4,110.3,41.9z"/>
					<path fill="#424243" d="M113.7,35.1h1.3v1.6h0c0.7-1.1,1.9-1.9,3.6-1.9c2,0,3.4,1.2,3.4,3.3v7.6h-1.3v-7.5
						c0-1.6-0.9-2.4-2.4-2.4c-1.8,0-3.3,1.3-3.3,3.1v6.8h-1.3V35.1z"/>
					<path fill="#424243" d="M123.4,40.5c0-3.2,1.8-5.6,4.9-5.6c2.4,0,4,1.3,4.3,3.5h-1.3c-0.3-1.6-1.4-2.4-3-2.4
						c-2.5,0-3.6,2.1-3.6,4.5s1.1,4.5,3.5,4.5c1.8,0,3-1.1,3.2-2.9h1.2c-0.2,2.4-1.8,4-4.4,4C125.2,46.1,123.4,43.6,123.4,40.5z"/>
					<path fill="#424243" d="M133.5,40.5c0-3.2,1.9-5.6,4.9-5.6c3.4,0,4.6,2.8,4.6,5.9h-8.2c0.1,2.4,1.2,4.3,3.7,4.3
						c1.8,0,2.7-1,3.1-2.4h1.2c-0.5,2.1-2,3.5-4.4,3.5C135.2,46.1,133.5,43.7,133.5,40.5z M141.6,39.7c-0.1-2.1-1.1-3.8-3.3-3.8
						c-2.2,0-3.3,1.6-3.5,3.8H141.6z"/>
					<path fill="#424243" d="M144.4,35.1h1.3v2h0c0.7-1.2,1.8-2.1,3.3-2.1c0.2,0,0.3,0,0.4,0v1.3c-0.8-0.1-1.6,0-2.3,0.5
						c-0.8,0.6-1.4,1.6-1.4,2.9v6.1h-1.3V35.1z"/>
					<path fill="#424243" d="M33.3,49.5h5.8c1.6,0,2.7,0.5,3.5,1.3c0.7,0.7,1,1.6,1,2.9c0,2.7-1.6,4.2-4.7,4.2h-4.3v6.5h-1.4V49.5z
						 M38.8,56.7c2.4,0,3.4-1.1,3.4-3c0-1.9-1.1-3-3.3-3h-4.3v6H38.8z"/>
					<path fill="#424243" d="M44.9,53.6h1.3v2h0c0.7-1.2,1.8-2.1,3.3-2.1c0.2,0,0.3,0,0.4,0v1.3c-0.8-0.1-1.6,0-2.3,0.5
						c-0.8,0.6-1.4,1.6-1.4,2.9v6.1h-1.3V53.6z"/>
					<path fill="#424243" d="M50,58.9c0-3.2,1.9-5.6,5-5.6s4.9,2.4,4.9,5.6s-1.8,5.6-4.9,5.6S50,62.1,50,58.9z M58.6,58.9
						c0-2.5-1.2-4.5-3.6-4.5c-2.4,0-3.7,2-3.7,4.5s1.2,4.5,3.7,4.5C57.4,63.5,58.6,61.5,58.6,58.9z"/>
					<path fill="#424243" d="M59.7,66.5L59.7,66.5c0.1,0,0.3,0,0.4,0c0.8,0,1.2-0.4,1.2-1.2V53.6h1.3v11.8c0,1.7-0.9,2.2-2.3,2.2
						c-0.2,0-0.4,0-0.5,0V66.5z M61.3,49.5h1.3v1.8h-1.3V49.5z"/>
					<path fill="#424243" d="M64,58.9c0-3.2,1.9-5.6,4.9-5.6c3.4,0,4.6,2.8,4.6,5.9h-8.2c0.1,2.4,1.2,4.3,3.7,4.3
						c1.8,0,2.7-1,3.1-2.4h1.2c-0.5,2.1-2,3.5-4.4,3.5C65.8,64.6,64,62.2,64,58.9z M72.1,58.2c-0.1-2.1-1.1-3.8-3.3-3.8
						c-2.2,0-3.3,1.6-3.5,3.8H72.1z"/>
					<path fill="#424243" d="M74.4,58.9c0-3.2,1.8-5.6,4.9-5.6c2.4,0,4,1.3,4.3,3.5h-1.3c-0.3-1.6-1.4-2.4-3-2.4
						c-2.5,0-3.6,2.1-3.6,4.5s1.1,4.5,3.5,4.5c1.8,0,3-1.1,3.2-2.9h1.2c-0.2,2.4-1.8,4-4.4,4C76.1,64.6,74.4,62.1,74.4,58.9z"/>
					<path fill="#424243" d="M85.7,62.4v-7.8H84v-1.1h1.6v-3.3h1.3v3.3h2v1.1h-2v7.6c0,0.8,0.4,1,1,1c0.3,0,0.7-0.1,0.9-0.2h0.1v1.1
						c-0.4,0.1-0.7,0.2-1.2,0.2C86.5,64.4,85.7,63.8,85.7,62.4z"/>
				</g>
			</g>
		</g>
	</g>
</g>
<g>
	<defs>
		<rect id="SVGID_1_" x="0" y="0" width="20.6" height="64.2"/>
	</defs>
	<clipPath id="SVGID_2_">
		<use xlink:href="#SVGID_1_"  overflow="visible"/>
	</clipPath>
	<g clip-path="url(#SVGID_2_)">
		<polygon fill="#007AB3" points="41.9,44.2 41.9,22 41.9,18.7 41.9,-6.7 -1.8,-6.7 -1.8,18.7 -1.8,22 -1.8,44.2 -1.8,47.5 
			-1.8,72.9 41.9,72.9 41.9,47.5 		"/>
		<rect x="-1.8" y="34.1" fill="#007AB3" width="43.6" height="1.2"/>
		<rect x="-1.8" y="119.7" fill="#007AB3" width="43.6" height="1.2"/>
		<polygon fill="#007AB3" points="-1.8,-15.1 -1.8,-15 -1.8,-14.1 -1.8,-13.9 -1.8,-13 -1.8,-12.8 -1.8,-11.9 -1.8,-11.8 
			-1.8,-10.8 -1.8,-10.7 -1.8,-9.6 41.9,-9.6 41.9,-10.7 41.9,-10.8 41.9,-11.8 41.9,-11.9 41.9,-12.8 41.9,-13 41.9,-13.9 
			41.9,-14.1 41.9,-15 41.9,-15.1 41.9,-16.2 -1.8,-16.2 		"/>
		<rect x="-1.8" y="10.6" fill="#007AB3" width="43.6" height="1.2"/>
		<polygon fill="#007AB3" points="41.9,37.3 41.9,36.3 -1.8,36.3 -1.8,37.3 -1.8,37.5 -1.8,38.5 41.9,38.5 41.9,37.5 		"/>
		<polygon fill="#007AB3" points="-1.8,88.8 -1.8,89.8 -1.8,89.9 -1.8,90.8 -1.8,91 -1.8,91.9 -1.8,92.1 -1.8,93 -1.8,93.1 
			-1.8,94.1 -1.8,94.2 -1.8,95.1 -1.8,95.3 -1.8,96.2 -1.8,96.3 -1.8,97.4 41.9,97.4 41.9,96.3 41.9,96.2 41.9,95.3 41.9,95.1 
			41.9,94.2 41.9,94.1 41.9,93.1 41.9,93 41.9,92.1 41.9,91.9 41.9,91 41.9,90.8 41.9,89.9 41.9,89.8 41.9,88.8 41.9,88.7 
			41.9,87.6 -1.8,87.6 -1.8,88.7 		"/>
		<polygon fill="#007AB3" points="-1.8,133.8 -1.8,134.9 41.9,134.9 41.9,133.8 41.9,133.7 41.9,132.6 -1.8,132.6 -1.8,133.7 		"/>
		<rect x="-1.8" y="-1.2" fill="#007AB3" width="43.6" height="1.2"/>
		<polygon fill="#007AB3" points="41.9,45.9 41.9,44.8 -1.8,44.8 -1.8,45.9 -1.8,46 -1.8,47.1 41.9,47.1 41.9,46 		"/>
		<rect x="-1.8" y="102.6" fill="#007AB3" width="43.6" height="1.2"/>
		<rect x="-1.8" y="135.8" fill="#007AB3" width="43.6" height="1.2"/>
	</g>
	<g clip-path="url(#SVGID_2_)">
		<rect x="-2.7" y="9.5" fill="#007AB3" width="43.6" height="1.2"/>
		<rect x="-2.7" y="15.9" fill="#007AB3" width="43.6" height="1.2"/>
		<rect x="-2.7" y="53.4" fill="#007AB3" width="43.6" height="1.2"/>
		<rect x="-2.7" y="7.4" fill="#007AB3" width="43.6" height="1.2"/>
		<rect x="-2.7" y="13.8" fill="#007AB3" width="43.6" height="1.2"/>
		<polygon fill="#007AB3" points="-2.7,21.4 -2.7,22.3 -2.7,22.5 -2.7,23.5 40.9,23.5 40.9,22.5 40.9,22.3 40.9,21.4 40.9,21.3 
			40.9,20.2 -2.7,20.2 -2.7,21.3 		"/>
		<rect x="-2.7" y="33" fill="#007AB3" width="43.6" height="1.2"/>
		<polygon fill="#007AB3" points="40.9,63 40.9,62.1 40.9,61.9 40.9,60.9 -2.7,60.9 -2.7,61.9 -2.7,62.1 -2.7,63 -2.7,63.2 
			-2.7,64.2 40.9,64.2 40.9,63.2 		"/>
		<rect x="-2.7" y="71.6" fill="#007AB3" width="43.6" height="1.2"/>
		<rect x="-2.7" y="126.2" fill="#007AB3" width="43.6" height="1.2"/>
		<polygon fill="#007AB3" points="-2.7,-5.5 -2.7,-5.4 -2.7,-4.4 -2.7,-4.3 -2.7,-3.2 40.9,-3.2 40.9,-4.3 40.9,-4.4 40.9,-5.4 
			40.9,-5.5 40.9,-6.6 -2.7,-6.6 		"/>
		<rect x="-2.7" y="11.6" fill="#007AB3" width="43.6" height="1.2"/>
		<rect x="-2.7" y="18.1" fill="#007AB3" width="43.6" height="1.2"/>
		<rect x="-2.7" y="35.2" fill="#007AB3" width="43.6" height="1.2"/>
		<rect x="-2.7" y="80.1" fill="#007AB3" width="43.6" height="1.2"/>
		<rect x="-2.7" y="83.4" fill="#007AB3" width="43.6" height="1.2"/>
		<polygon fill="#007AB3" points="-2.7,110.3 -2.7,111.2 -2.7,111.3 -2.7,112.4 40.9,112.4 40.9,111.3 40.9,111.2 40.9,110.3 
			40.9,110.1 40.9,109 -2.7,109 -2.7,110.1 		"/>
	</g>
	<g clip-path="url(#SVGID_2_)">
		<rect x="-1.3" y="-7.6" fill="#FFDE40" width="43.6" height="1.2"/>
		<polygon fill="#FFDE40" points="-1.3,-18.2 -1.3,-17.3 -1.3,-17.1 -1.3,-16.1 42.4,-16.1 42.4,-17.1 42.4,-17.3 42.4,-18.2 
			42.4,-18.3 42.4,-19.4 -1.3,-19.4 -1.3,-18.3 		"/>
		<polygon fill="#FFDE40" points="-1.3,4.3 -1.3,5.2 -1.3,5.4 -1.3,6.3 -1.3,6.4 -1.3,7.5 42.4,7.5 42.4,6.4 42.4,6.3 42.4,5.4 
			42.4,5.2 42.4,4.3 42.4,4.1 42.4,3.1 -1.3,3.1 -1.3,4.1 		"/>
		<polygon fill="#FFDE40" points="-1.3,1.1 -1.3,2.1 42.4,2.1 42.4,1.1 42.4,0.9 42.4,-0.1 -1.3,-0.1 -1.3,0.9 		"/>
		<rect x="-1.3" y="23.4" fill="#FFDE40" width="43.6" height="1.2"/>
		<polygon fill="#FFDE40" points="42.4,50.2 42.4,49.2 42.4,49.1 42.4,48.2 42.4,48 42.4,47 -1.3,47 -1.3,48 -1.3,48.2 -1.3,49.1 
			-1.3,49.2 -1.3,50.2 -1.3,50.3 -1.3,51.4 42.4,51.4 42.4,50.3 		"/>
		<polygon fill="#FFDE40" points="42.4,56.6 42.4,55.7 42.4,55.5 42.4,54.5 -1.3,54.5 -1.3,55.5 -1.3,55.7 -1.3,56.6 -1.3,56.7 
			-1.3,57.8 42.4,57.8 42.4,56.7 		"/>
		<polygon fill="#FFDE40" points="-1.3,98.5 -1.3,99.4 -1.3,99.5 -1.3,100.5 -1.3,100.6 -1.3,101.5 -1.3,101.7 -1.3,102.8 
			42.4,102.8 42.4,101.7 42.4,101.5 42.4,100.6 42.4,100.5 42.4,99.5 42.4,99.4 42.4,98.5 42.4,98.3 42.4,97.3 -1.3,97.3 -1.3,98.3 
					"/>
		<polygon fill="#FFDE40" points="-1.3,104.9 -1.3,105.8 -1.3,106 -1.3,106.9 -1.3,107 -1.3,108 -1.3,108.1 -1.3,109.2 42.4,109.2 
			42.4,108.1 42.4,108 42.4,107 42.4,106.9 42.4,106 42.4,105.8 42.4,104.9 42.4,104.8 42.4,103.7 -1.3,103.7 -1.3,104.8 		"/>
		<rect x="-1.3" y="-21.5" fill="#FFDE40" width="43.6" height="1.2"/>
		<polygon fill="#FFDE40" points="-1.3,-2.1 -1.3,-1.1 42.4,-1.1 42.4,-2.1 42.4,-2.3 42.4,-3.3 -1.3,-3.3 -1.3,-2.3 		"/>
		<rect x="-1.3" y="8.4" fill="#FFDE40" width="43.6" height="1.2"/>
		<polygon fill="#FFDE40" points="-1.3,28.9 -1.3,30 42.4,30 42.4,28.9 42.4,28.8 42.4,27.7 -1.3,27.7 -1.3,28.8 		"/>
		<polygon fill="#FFDE40" points="42.4,42.7 42.4,41.7 42.4,41.6 42.4,40.7 42.4,40.5 42.4,39.6 42.4,39.5 42.4,38.4 -1.3,38.4 
			-1.3,39.5 -1.3,39.6 -1.3,40.5 -1.3,40.7 -1.3,41.6 -1.3,41.7 -1.3,42.7 -1.3,42.8 -1.3,43.9 42.4,43.9 42.4,42.8 		"/>
		<polygon fill="#FFDE40" points="42.4,70.5 42.4,69.6 42.4,69.4 42.4,68.4 -1.3,68.4 -1.3,69.4 -1.3,69.6 -1.3,70.5 -1.3,70.6 
			-1.3,71.7 42.4,71.7 42.4,70.6 		"/>
		<polygon fill="#FFDE40" points="42.4,76.9 42.4,76 42.4,75.9 42.4,74.9 42.4,74.8 42.4,73.9 42.4,73.7 42.4,72.6 -1.3,72.6 
			-1.3,73.7 -1.3,73.9 -1.3,74.8 -1.3,74.9 -1.3,75.9 -1.3,76 -1.3,76.9 -1.3,77.1 -1.3,78.1 42.4,78.1 42.4,77.1 		"/>
		<polygon fill="#FFDE40" points="42.4,86.6 42.4,85.6 42.4,85.5 42.4,84.4 -1.3,84.4 -1.3,85.5 -1.3,85.6 -1.3,86.6 -1.3,86.7 
			-1.3,87.8 42.4,87.8 42.4,86.7 		"/>
		<rect x="-1.3" y="112.3" fill="#FFDE40" width="43.6" height="1.2"/>
		<polygon fill="#FFDE40" points="-1.3,116.7 -1.3,117.6 -1.3,117.7 -1.3,118.8 42.4,118.8 42.4,117.7 42.4,117.6 42.4,116.7 
			42.4,116.5 42.4,115.5 -1.3,115.5 -1.3,116.5 		"/>
		<polygon fill="#FFDE40" points="-1.3,125.2 -1.3,126.3 42.4,126.3 42.4,125.2 42.4,125.1 42.4,124 -1.3,124 -1.3,125.1 		"/>
		<polygon fill="#FFDE40" points="-1.3,128.4 -1.3,129.4 -1.3,129.5 -1.3,130.5 -1.3,130.6 -1.3,131.5 -1.3,131.7 -1.3,132.7 
			42.4,132.7 42.4,131.7 42.4,131.5 42.4,130.6 42.4,130.5 42.4,129.5 42.4,129.4 42.4,128.4 42.4,128.3 42.4,127.2 -1.3,127.2 
			-1.3,128.3 		"/>
		<polygon fill="#FFDE40" points="-1.3,138.1 -1.3,139 -1.3,139.2 -1.3,140.2 42.4,140.2 42.4,139.2 42.4,139 42.4,138.1 
			42.4,137.9 42.4,136.9 -1.3,136.9 -1.3,137.9 		"/>
	</g>
	<g clip-path="url(#SVGID_2_)">
		<rect x="-1.3" y="12.7" fill="#2BB673" width="43.6" height="1.2"/>
		<rect x="-1.3" y="19.1" fill="#2BB673" width="43.6" height="1.2"/>
		<rect x="-1.3" y="43.7" fill="#2BB673" width="43.6" height="1.2"/>
		<rect x="-1.3" y="134.7" fill="#2BB673" width="43.6" height="1.2"/>
		<rect x="-1.3" y="17" fill="#2BB673" width="43.6" height="1.2"/>
		<polygon fill="#2BB673" points="42.3,59.8 42.3,58.9 42.3,58.7 42.3,57.7 -1.3,57.7 -1.3,58.7 -1.3,58.9 -1.3,59.8 -1.3,59.9 
			-1.3,61 42.3,61 42.3,59.9 		"/>
		<polygon fill="#2BB673" points="42.3,79.1 42.3,78 -1.3,78 -1.3,79.1 -1.3,79.2 -1.3,80.3 42.3,80.3 42.3,79.2 		"/>
		<polygon fill="#2BB673" points="42.3,82.3 42.3,81.2 -1.3,81.2 -1.3,82.3 -1.3,82.4 -1.3,83.5 42.3,83.5 42.3,82.4 		"/>
		<polygon fill="#2BB673" points="-1.3,114.5 -1.3,115.6 42.3,115.6 42.3,114.5 42.3,114.4 42.3,113.3 -1.3,113.3 -1.3,114.4 		"/>
		<rect x="-1.3" y="118.7" fill="#2BB673" width="43.6" height="1.2"/>
		<rect x="-1.3" y="-20.5" fill="#2BB673" width="43.6" height="1.2"/>
		<polygon fill="#2BB673" points="-1.3,-8.6 -1.3,-7.5 42.3,-7.5 42.3,-8.6 42.3,-8.7 42.3,-9.8 -1.3,-9.8 -1.3,-8.7 		"/>
		<rect x="-1.3" y="2" fill="#2BB673" width="43.6" height="1.2"/>
		<rect x="-1.3" y="14.8" fill="#2BB673" width="43.6" height="1.2"/>
		<polygon fill="#2BB673" points="-1.3,25.7 -1.3,26.6 -1.3,26.8 -1.3,27.8 42.3,27.8 42.3,26.8 42.3,26.6 42.3,25.7 42.3,25.6 
			42.3,24.5 -1.3,24.5 -1.3,25.6 		"/>
		<polygon fill="#2BB673" points="42.3,52.3 42.3,51.2 -1.3,51.2 -1.3,52.3 -1.3,52.4 -1.3,53.5 42.3,53.5 42.3,52.4 		"/>
		<polygon fill="#2BB673" points="42.3,67.3 42.3,66.4 42.3,66.2 42.3,65.3 42.3,65.2 42.3,64.1 -1.3,64.1 -1.3,65.2 -1.3,65.3 
			-1.3,66.2 -1.3,66.4 -1.3,67.3 -1.3,67.4 -1.3,68.5 42.3,68.5 42.3,67.4 		"/>
		<polygon fill="#2BB673" points="-1.3,122 -1.3,123 -1.3,123.1 -1.3,124.2 42.3,124.2 42.3,123.1 42.3,123 42.3,122 42.3,121.9 
			42.3,120.8 -1.3,120.8 -1.3,121.9 		"/>
		<polygon fill="#2BB673" points="-1.3,141.3 -1.3,142.2 -1.3,142.4 -1.3,143.3 -1.3,143.4 -1.3,144.5 42.3,144.5 42.3,143.4 
			42.3,143.3 42.3,142.4 42.3,142.2 42.3,141.3 42.3,141.2 42.3,140.1 -1.3,140.1 -1.3,141.2 		"/>
	</g>
	<rect x="-2.7" y="-9.2" clip-path="url(#SVGID_2_)" fill="none" width="45.2" height="94.7"/>
</g>
</svg>
