<svg width="20" height="20" xmlns="http://www.w3.org/2000/svg"><g fill="#FFF" fill-rule="evenodd"><path d="M18.354 14.472a.655.655 0 00-.655.655v1.58c0 .95-.688 1.638-1.638 1.638H2.958c-.95 0-1.638-.689-1.638-1.638v-1.58a.655.655 0 00-1.31 0v1.58c0 1.681 1.267 2.948 2.948 2.948H16.06c1.68 0 2.949-1.267 2.949-2.948v-1.58a.655.655 0 00-.656-.655"/><path d="M9.36 15.519l.007.006c.02.02.042.038.065.056.011.009.022.02.034.028.028.019.058.034.088.049.009.004.016.01.025.013a.652.652 0 00.516 0c.009-.003.017-.01.025-.013.03-.015.06-.03.088-.05l.035-.027a.738.738 0 00.064-.056l.006-.006 5.57-5.897a.655.655 0 00-.953-.9l-4.438 4.7V.981a.655.655 0 00-1.31 0v12.44l-4.438-4.7a.655.655 0 10-.952.9L9.36 15.52z"/></g></svg>