<?xml version="1.0" encoding="UTF-8"?>
<svg width="22px" height="20px" viewBox="0 0 22 20" version="1.1" xmlns="http://www.w3.org/2000/svg" xmlns:xlink="http://www.w3.org/1999/xlink">
    <title>Instructions@1x</title>
    <g id="Public-Facing" stroke="none" stroke-width="1" fill="none" fill-rule="evenodd" stroke-linecap="round" stroke-linejoin="round">
        <g id="Header" transform="translate(-890.000000, -42.000000)" stroke="#1A3173" stroke-width="1.5">
            <g id="Instructions" transform="translate(891.000000, 43.000000)">
                <path d="M10,17.4375 L10,2.92666667 C10,2.92666667 7.95416667,0.654166667 1.05666667,0.562466462 C0.942250975,0.561057903 0.832161969,0.606176348 0.751666667,0.6875 C0.670382734,0.769177198 0.624827355,0.879768873 0.624985315,0.995 L0.624985315,14.6408333 C0.62308736,14.8743513 0.808239686,15.0665394 1.04166667,15.0733333 C7.9525,15.1666667 10,17.4375 10,17.4375" id="Shape"></path>
                <path d="M7.5,8.31666667 C6.08187832,7.83968117 4.60904183,7.54427386 3.11666667,7.4375" id="Shape"></path>
                <path d="M7.5,11.8125 C6.08187832,11.3355145 4.60904183,11.0401072 3.11666667,10.9333333" id="Shape"></path>
                <path d="M12.5,8.31666667 C13.9181217,7.83968117 15.3909582,7.54427386 16.8833333,7.4375" id="Shape"></path>
                <path d="M12.5,11.8125 C13.9181217,11.3355145 15.3909582,11.0401072 16.8833333,10.9333333" id="Shape"></path>
                <path d="M10,17.4375 L10,2.92666667 C10,2.92666667 12.0458333,0.654166667 18.9433333,0.562466462 C19.057749,0.561057903 19.167838,0.606176348 19.2483333,0.6875 C19.3296173,0.769177198 19.3751726,0.879768873 19.3750147,0.995 L19.3750147,14.6408333 C19.3769126,14.8743513 19.1917603,15.0665394 18.9583333,15.0733333 C12.0475,15.1666667 10,17.4375 10,17.4375" id="Shape"></path>
            </g>
        </g>
    </g>
</svg>