<svg id="Layer_1" data-name="Layer 1" xmlns="http://www.w3.org/2000/svg" viewBox="0 0 68.79 68.79"><defs><style>.cls-1{fill:none;stroke:#521b93;stroke-linecap:round;stroke-linejoin:round;stroke-width:6px;}.cls-2{fill:#521b93;}</style></defs><circle class="cls-1" cx="34.4" cy="34.4" r="31.4"/><path class="cls-2" d="M560.5,395.29v-9.5a6.38,6.38,0,0,0,1.11.2,12.43,12.43,0,0,0,1.39.07,8.37,8.37,0,0,0,3.2-.55,4.42,4.42,0,0,0,2.06-1.61,4.5,4.5,0,0,0,.72-2.58,4.6,4.6,0,0,0-.66-2.51,4.22,4.22,0,0,0-1.88-1.62,7,7,0,0,0-2.92-.56,6.18,6.18,0,0,0-3.81,1.13A4.77,4.77,0,0,0,557.9,381l-5.31-1.1a10.31,10.31,0,0,1,2-4.8,10.42,10.42,0,0,1,3.92-3.06,12.86,12.86,0,0,1,11,.34,10.65,10.65,0,0,1,4,3.76,9.62,9.62,0,0,1,1.45,5.18,9.73,9.73,0,0,1-1.15,4.67,10.51,10.51,0,0,1-7.43,5.43v3.87Zm2.92,11.33a4.06,4.06,0,0,1-2.09-.56,4.2,4.2,0,0,1-1.5-1.52,4.27,4.27,0,0,1,0-4.19,4.15,4.15,0,0,1,1.5-1.5,4.19,4.19,0,0,1,5.71,1.5,4.14,4.14,0,0,1,0,4.19,4.15,4.15,0,0,1-1.51,1.52A4.08,4.08,0,0,1,563.42,406.62Z" transform="translate(-529.4 -354.4)"/></svg>