<svg id="Layer_1" data-name="Layer 1" xmlns="http://www.w3.org/2000/svg" viewBox="0 0 68.13 69.32"><defs><style>.cls-1,.cls-2,.cls-3{fill:none;stroke:#521b93;stroke-linecap:round;stroke-linejoin:round;}.cls-1{stroke-width:4px;}.cls-2{stroke-width:3px;}.cls-3{stroke-width:2.5px;}</style></defs><path class="cls-1" d="M708.52,365.1c0-1.46-.1-2.92,0-4.37a2.33,2.33,0,0,0-2.46-2.47c-7.68.08-15.37,0-23.06.08a6.39,6.39,0,0,1-3.64-1.25c-2.63-1.67-5.29-3.29-7.88-5a3.57,3.57,0,0,0-2.08-.58c-5.26,0-10.52.06-15.78,0a2.39,2.39,0,0,0-2.46,2.47c0,14.41,0,23.77,0,38.18" transform="translate(-649.19 -349.46)"/><path class="cls-2" d="M711.56,380.47c1-2.79,2.51-6.06,3.52-8.45.7-1.66-.15-3-1.94-3H667.37a2.21,2.21,0,0,0-2.2,1.58c-1.88,4.54-3.8,9.06-5.69,13.6q-2.26,5.4-4.49,10.81a3.35,3.35,0,0,0-.37,1.87" transform="translate(-649.19 -349.46)"/><path class="cls-2" d="M698.31,406.05c3.49,2.05,8.9,1.72,12.87-1.39a11.45,11.45,0,0,0,4.37-11.88,10.9,10.9,0,0,0-4.88-7.48,12.12,12.12,0,0,0-6.88-2.26,12.5,12.5,0,0,0-6.91,2.11,11.45,11.45,0,0,0-5.29,10.3,11.91,11.91,0,0,0,2.73,7.4A17.21,17.21,0,0,0,698.31,406.05Z" transform="translate(-649.19 -349.46)"/><path class="cls-2" d="M654.73,396.93a13.4,13.4,0,0,0,4.14.2c9.1,0,18.21,0,27.32,0" transform="translate(-649.19 -349.46)"/><path class="cls-3" d="M690.56,405.89a3.42,3.42,0,0,0-1.82.85c-2.23,2.22-4.48,4.43-6.68,6.68a2.39,2.39,0,0,0,1.09,4,2.15,2.15,0,0,0,2.17-.52c2.38-2.31,4.71-4.68,7.06-7,.44-.44.43-1,.6-1.58Z" transform="translate(-649.19 -349.46)"/><path class="cls-2" d="M707.94,387.59c-1.74,3.76-2.22,4.8-3.87,8.6a1.35,1.35,0,0,1-1.5,1c-3,0-4.18,0-7.14,0" transform="translate(-649.19 -349.46)"/></svg>