<svg id="Layer_1" data-name="Layer 1" xmlns="http://www.w3.org/2000/svg" viewBox="0 0 209.51 219"><defs><style>.cls-1{fill:none;stroke:#521b93;stroke-linecap:round;stroke-linejoin:round;stroke-width:12px;}</style></defs><g id="Layer_1-2" data-name="Layer 1"><path class="cls-1" d="M362.3,285V265.4a11.61,11.61,0,0,0-11.6-11.6h-13v42.8h13A11.61,11.61,0,0,0,362.3,285Z" transform="translate(-158.79 -130.5)"/><path class="cls-1" d="M174.3,343.3l133.4.2a11.76,11.76,0,0,0,11.8-11.8h0V239.1a41.5,41.5,0,0,0-22.1-36.7l-20.7-10.9a30.89,30.89,0,0,0-32.3-22.6v-9a8.9,8.9,0,0,0-9.1-8.9h-2.8V140.3a3.76,3.76,0,0,0-3.8-3.8l-16.3.2a3.8,3.8,0,0,0-3.8,3.8h0v10.7h-2.8a9,9,0,0,0-9,9v.1l.6,78.3a8.9,8.9,0,0,0,9.1,8.9h2.8v13.6h0a3.8,3.8,0,0,0,3.8,3.8h.1l16.3-.1a3.76,3.76,0,0,0,3.8-3.8V247.4h2.9a8.9,8.9,0,0,0,8.9-9.1h0v-7.4a31,31,0,0,0,26.6-12.1c.6-.8,1.2-1.6,1.8-2.5l13.2,7h0a17.93,17.93,0,0,1,9.6,15.9v50.3H200.6a10.82,10.82,0,0,0-10.8,10.8V324H174.7a9.6,9.6,0,0,0-.6,19.2c-.1.1.1.1.2.1Zm80.4-137.4a10.17,10.17,0,1,1,2-7.3A10.08,10.08,0,0,1,254.7,205.9Z" transform="translate(-158.79 -130.5)"/></g></svg>