<svg id="Layer_1" data-name="Layer 1" xmlns="http://www.w3.org/2000/svg" viewBox="0 0 26.13 53.17"><defs><style>.cls-1{fill:#521b93;}</style></defs><path class="cls-1" d="M42.56,30c0-6.89-4.51-10.51-9.32-13.29,4.81-2.84,9.32-6.41,9.32-13.29H39a10,10,0,0,1-.47,3h-18a9.7,9.7,0,0,1-.48-3H16.44c0,6.88,4.51,10.45,9.32,13.29C21,19.49,16.44,23.11,16.44,30S21,40.57,25.76,43.35C21,46.13,16.44,49.7,16.44,56.58H20a9.42,9.42,0,0,1,.48-3H38.53a9.71,9.71,0,0,1,.47,3h3.56c0-6.88-4.51-10.45-9.32-13.23C38.05,40.57,42.56,37,42.56,30ZM20,30a9.66,9.66,0,0,1,.48-3h18.1a9.74,9.74,0,0,1,0,6H20.48A9.66,9.66,0,0,1,20,30Zm2.73-19.94H36.21a29.88,29.88,0,0,1-6.77,4.59A30.82,30.82,0,0,1,22.73,10.06Zm6.77,8.7a29.88,29.88,0,0,1,6.77,4.59H22.73A28,28,0,0,1,29.5,18.76Zm0,26.65a27.52,27.52,0,0,1,6.71,4.53H22.79A27.52,27.52,0,0,1,29.5,45.41Zm0-4.11a27.43,27.43,0,0,1-6.83-4.65H36.33A27.43,27.43,0,0,1,29.5,41.3Z" transform="translate(-16.44 -3.42)"/></svg>