<svg id="Layer_1" data-name="Layer 1" xmlns="http://www.w3.org/2000/svg" viewBox="0 0 47.05 49.6"><defs><style>.cls-1{fill:#521b93;}</style></defs><path class="cls-1" d="M34.83,54.77H25.11A1.78,1.78,0,0,1,23.29,53c0-3.75-4.17-6.83-9.3-6.83a1.77,1.77,0,0,1-1.81-1.81v-.24l2.41-18.61-1.51.36A1.76,1.76,0,0,1,11,24.74L6.56,14a1.83,1.83,0,0,1,1-2.36h0L22.75,5.35a1.83,1.83,0,0,1,2.36,1,1.41,1.41,0,0,1,.12.66,4.34,4.34,0,0,0,4.59,4h.3a4.34,4.34,0,0,0,4.59-4,1.78,1.78,0,0,1,1.82-1.81,2.16,2.16,0,0,1,.66.12l15.16,6.28a1.78,1.78,0,0,1,1,2.36h0L48.85,24.68a1.86,1.86,0,0,1-2.05,1.09l-1.51-.36L47.7,44a1.86,1.86,0,0,1-1.57,2h-.24c-5,.06-9.24,3.14-9.24,6.89A1.78,1.78,0,0,1,34.83,54.77Zm-8.09-3.62h6.52c1-4.35,5.26-7.8,10.7-8.52L41.42,23.41A1.86,1.86,0,0,1,43,21.36h.6l2.54.54,3.2-7.61L37.85,9.58a8.2,8.2,0,0,1-7.73,5.13h-.3a8.19,8.19,0,0,1-7.73-5.13L10.61,14.29,13.81,22l2.54-.54a1.84,1.84,0,0,1,2.17,1.39,1,1,0,0,1,0,.6L16,42.63C21.48,43.35,25.77,46.8,26.74,51.15Z" transform="translate(-6.43 -5.17)"/><path class="cls-1" d="M29.88,25.89c-2.36-4.71-6.41-1.87-6.41.73,0,3.92,6.41,8.82,6.41,8.82s6.4-4.9,6.4-8.82C36.28,24,32.24,21.18,29.88,25.89Z" transform="translate(-6.43 -5.17)"/></svg>