<?xml version="1.0" encoding="UTF-8" standalone="no"?>
<svg xmlns="http://www.w3.org/2000/svg" height="121px" width="87px" version="1.1" xmlns:xlink="http://www.w3.org/1999/xlink" viewBox="0 0 87 121">
 <title>BBB883B4-4693-45C1-92A5-A3AB5C2A463E@1x</title>
 <desc>Created with sketchtool.</desc>
 <g id="Landing-Page" fill-rule="evenodd" fill="none">
  <g id="0---Landing-Page" transform="translate(-281 -1178)">
   <g id="Clipboard" transform="translate(258 1172)">
    <g id="Group-20">
     <path id="Path" opacity=".4" fill="#00D39D" d="m107.67 18h-9.43c-0.617-3.039-3.3-5.333-6.506-5.333h-9.296v-5.3337c0-0.736-0.594-1.3333-1.329-1.3333h-29.218c-0.735 0-1.329 0.5973-1.329 1.3333v5.3337h-9.296c-3.206 0-5.891 2.294-6.506 5.333h-9.432c-0.734 0-1.328 0.597-1.328 1.333v105.34c0 0.73 0.594 1.33 1.328 1.33h82.342c0.74 0 1.33-0.6 1.33-1.33v-105.34c0-0.733-0.59-1.33-1.33-1.33z"/>
     <path id="Path" opacity=".4" fill="#7154FF" d="m107.67 18h-9.43c-0.617-3.039-3.3-5.333-6.506-5.333h-9.296v-5.3337c0-0.736-0.594-1.3333-1.329-1.3333h-29.218c-0.735 0-1.329 0.5973-1.329 1.3333v5.3337h-9.296c-3.206 0-5.891 2.294-6.506 5.333h-9.432c-0.734 0-1.328 0.597-1.328 1.333v105.34c0 0.73 0.594 1.33 1.328 1.33h82.342c0.74 0 1.33-0.6 1.33-1.33v-105.34c0-0.733-0.59-1.33-1.33-1.33z"/>
     <rect id="Rectangle" height="93" width="67" y="24" x="33" fill="#fff"/>
     <rect id="Rectangle" fill-opacity=".7" height="93" width="67" y="24" x="33" fill="#FFDF03"/>
     <g id="noun_medical-record_172390">
      <rect id="Rectangle" y="0" x="0" height="133" width="133"/>
      <g id="Group" transform="translate(23.94 6.65)">
       <path id="Shape" fill-rule="nonzero" fill="#000" d="m83.79 11.97h-9.446c-0.617-3.0311-3.303-5.32-6.514-5.32h-9.31v-5.32c0-0.73416-0.595-1.33-1.33-1.33h-29.26c-0.735 0-1.33 0.59584-1.33 1.33v5.32h-9.31c-3.211 0-5.899 2.2889-6.514 5.32h-9.446c-0.73549 0-1.33 0.596-1.33 1.33v105.07c0 0.74 0.59451 1.33 1.33 1.33h82.46c0.735 0 1.33-0.59 1.33-1.33v-105.07c0-0.734-0.595-1.33-1.33-1.33zm-1.33 100.53l-4.541 4.54h-4.218l4.378-4.38h0.003l4.378-4.38v4.22zm-15.409 4.54l3.99-3.99h2.888l-3.99 3.99h-2.888zm-7.98 0l3.99-3.99h4.218l-3.99 3.99h-4.218zm-7.98 0l3.99-3.99h4.218l-3.99 3.99h-4.218zm-7.98 0l3.99-3.99h4.218l-3.99 3.99h-4.218zm-7.98 0l3.99-3.99h4.218l-3.99 3.99h-4.218zm-7.98 0l3.99-3.99h4.218l-3.99 3.99h-4.218zm-7.98 0l3.99-3.99h4.218l-3.99 3.99h-4.218zm-7.98 0l3.99-3.99h4.218l-3.99 3.99h-4.218zm-7.9804 0l4.1576-4.16c0.1862 0.1 0.387 0.17 0.6118 0.17h3.439l-3.9896 3.99h-4.2188zm-0.5506-95.209l7.2006-7.201h0.9134c0 0.001 0.002 0.003 0.002 0.003 0.005 0.025 0.016 0.046 0.021 0.07 0.084 0.382 0.198 0.752 0.344 1.107 0.052 0.127 0.124 0.244 0.184 0.368 0.117 0.242 0.238 0.48 0.383 0.705 0.084 0.133 0.182 0.254 0.277 0.38 0.006 0.008 0.012 0.018 0.018 0.027h-4.023c-0.7355 0-1.33 0.596-1.33 1.33v3.439l-3.99 3.99v-4.218zm70.753-4.947c0.145-0.224 0.266-0.462 0.383-0.705 0.06-0.123 0.132-0.24 0.184-0.368 0.145-0.355 0.261-0.725 0.344-1.107 0.006-0.025 0.016-0.046 0.022-0.07 0 0 0.001-0.001 0.001-0.003h2.244l-2.66 2.66h-0.81c0.006-0.008 0.012-0.017 0.018-0.026 0.093-0.127 0.191-0.249 0.274-0.381zm2.397 3.066v90.44h-66.5v-90.44h7.98 50.54 7.98zm-73.15 9.861l3.99-3.99v4.218l-3.99 3.99v-4.218zm0 7.98l3.99-3.99v4.218l-3.99 3.99v-4.218zm0 7.98l3.99-3.99v4.218l-3.99 3.99v-4.218zm0 7.98l3.99-3.99v4.218l-3.99 3.99v-4.218zm0 7.98l3.99-3.99v4.218l-3.99 3.99v-4.218zm0 7.98l3.99-3.99v4.218l-3.99 3.99v-4.218zm0 7.98l3.99-3.99v4.218l-3.99 3.99v-4.218zm0 7.98l3.99-3.99v4.218l-3.99 3.99v-4.218zm0 7.98l3.99-3.99v4.218l-3.99 3.99v-4.218zm0 7.979l3.99-3.989v4.219l-3.99 3.99v-4.22zm0 7.98l3.99-3.99v4.22l-3.99 3.99v-4.22zm79.8-5.09l-3.99 3.99v-4.22l3.99-3.99v4.22zm0-7.981l-3.99 3.991v-4.219l3.99-3.99v4.218zm0-7.98l-3.99 3.99v-4.218l3.99-3.99v4.218zm0-7.98l-3.99 3.99v-4.218l3.99-3.99v4.218zm0-7.98l-3.99 3.99v-4.218l3.99-3.99v4.218zm0-7.98l-3.99 3.99v-4.218l3.99-3.99v4.218zm0-7.98l-3.99 3.99v-4.218l3.99-3.99v4.218zm0-7.98l-3.99 3.99v-4.218l3.99-3.99v4.218zm0-7.98l-3.99 3.99v-4.218l3.99-3.99v4.218zm0-7.98l-3.99 3.99v-4.218l3.99-3.99v4.218zm0-7.98l-3.99 3.99v-4.218l3.99-3.99v4.218zm0-7.98l-3.99 3.99v-2.109c0-0.572-0.364-1.051-0.871-1.238l2.752-2.752h2.109v2.109zm-65.17-7.429h10.64c0.735 0 1.33-0.5958 1.33-1.33v-5.32h26.6v5.32c0 0.7342 0.595 1.33 1.33 1.33h10.64c2.2 0 3.99 1.79 3.99 3.99s-1.79 3.99-3.99 3.99h-50.54c-2.2 0-3.99-1.79-3.99-3.99s1.79-3.99 3.99-3.99zm-11.191 5.32l-3.4394 3.439v-3.439h3.4394zm75.582 102.41l0.779-0.78v0.78h-0.779z"/>
       <path id="Shape" fill-rule="nonzero" fill="#000" d="m42.56 14.63c2.934 0 5.32-2.386 5.32-5.32s-2.386-5.32-5.32-5.32-5.32 2.386-5.32 5.32 2.386 5.32 5.32 5.32zm0-7.98c1.467 0 2.66 1.193 2.66 2.66s-1.193 2.66-2.66 2.66-2.66-1.193-2.66-2.66 1.193-2.66 2.66-2.66z"/>
       <path id="Shape" fill-rule="nonzero" fill="#000" d="m26.6 42.56c3.667 0 6.65-2.983 6.65-6.65s-2.983-6.65-6.65-6.65-6.65 2.983-6.65 6.65 2.983 6.65 6.65 6.65zm0-10.64c2.2 0 3.99 1.79 3.99 3.99s-1.79 3.99-3.99 3.99-3.99-1.79-3.99-3.99 1.79-3.99 3.99-3.99z"/>
       <path id="Path" fill="#F57437" d="m15.96 57.19h21.28c0.009 0.001 0.02 0 0.027 0 0.735 0 1.33-0.596 1.33-1.33 0-0.097-0.01-0.192-0.03-0.282-0.15-6.47-5.461-11.688-11.967-11.688-6.601 0-11.97 5.371-11.97 11.97 0 0.734 0.595 1.33 1.33 1.33z"/>
       <path id="Shape" fill-rule="nonzero" fill="#000" d="m15.96 57.19h21.28c0.009 0.001 0.02 0 0.027 0 0.735 0 1.33-0.596 1.33-1.33 0-0.097-0.01-0.192-0.03-0.282-0.15-6.47-5.461-11.688-11.967-11.688-6.601 0-11.97 5.371-11.97 11.97 0 0.734 0.595 1.33 1.33 1.33zm10.64-10.64c4.683 0 8.568 3.474 9.216 7.98h-18.432c0.648-4.506 4.533-7.98 9.216-7.98z"/>
       <path id="Path" fill-rule="nonzero" fill="#000" d="m43.89 43.89h22.61c0.735 0 1.33-0.596 1.33-1.33s-0.595-1.33-1.33-1.33h-22.61c-0.735 0-1.33 0.596-1.33 1.33s0.595 1.33 1.33 1.33z"/>
       <path id="Path" fill-rule="nonzero" fill="#000" d="m43.89 57.19h22.61c0.735 0 1.33-0.596 1.33-1.33s-0.595-1.33-1.33-1.33h-22.61c-0.735 0-1.33 0.596-1.33 1.33s0.595 1.33 1.33 1.33z"/>
       <path id="Path" fill-rule="nonzero" fill="#000" d="m66.5 67.83h-49.21c-0.735 0-1.33 0.595-1.33 1.33s0.595 1.33 1.33 1.33h49.21c0.735 0 1.33-0.595 1.33-1.33s-0.595-1.33-1.33-1.33z"/>
       <path id="Path" fill-rule="nonzero" fill="#000" d="m66.5 81.13h-49.21c-0.735 0-1.33 0.595-1.33 1.33s0.595 1.33 1.33 1.33h49.21c0.735 0 1.33-0.595 1.33-1.33s-0.595-1.33-1.33-1.33z"/>
       <path id="Path" fill-rule="nonzero" fill="#000" d="m43.89 94.43h-26.6c-0.735 0-1.33 0.595-1.33 1.33s0.595 1.33 1.33 1.33h26.6c0.735 0 1.33-0.595 1.33-1.33s-0.595-1.33-1.33-1.33z"/>
      </g>
     </g>
    </g>
    <path id="Path" fill="#fff" d="m50.54 38.57c2.2 0 3.99 1.79 3.99 3.99s-1.79 3.99-3.99 3.99-3.99-1.79-3.99-3.99 1.79-3.99 3.99-3.99z"/>
   </g>
  </g>
 </g>
</svg>
