<?xml version="1.0" encoding="UTF-8" standalone="no"?>
<svg xmlns="http://www.w3.org/2000/svg" height="105px" width="107px" version="1.1" xmlns:xlink="http://www.w3.org/1999/xlink" viewBox="0 0 107 105">
 <title>B7D23CE1-4E82-4134-B0A6-6D943BA025F7@1x</title>
 <desc>Created with sketchtool.</desc>
 <g id="Landing-Page" fill-rule="evenodd" fill="none">
  <g id="0---Landing-Page" transform="translate(-1061 -1190)">
   <g id="Heart" transform="translate(1055 1183)">
    <path id="Path" opacity=".7" fill="#FFDF03" d="m110.62 80.977h-11.887v-10.093c9.467-12.103 14.267-24.361 14.267-36.441 0-15.132-12.27-27.443-27.344-27.443-12.302 0-22.731 8.195-26.156 19.43-3.424-11.235-13.854-19.43-26.156-19.43-13.572 0-24.862 9.976-26.981 23.006l-0.0147 0.014c-0.384 0.385-0.4315 0.961-0.1807 1.415-0.1082 0.988-0.1676 1.99-0.1676 3.008 0 1.041 0.0428 2.07 0.1106 3.095-0.1593 0.356-0.1213 0.762 0.0856 1.098 1.3363 14.832 9.5678 27.918 19.156 38.383 0.008 0.009 0.01 0.021 0.019 0.028 0.004 0.005 0.013 0.007 0.017 0.012 14.59 15.911 32.286 25.751 33.543 26.441 0.177 0.1 0.373 0.15 0.569 0.15s0.392-0.05 0.569-0.15c0.147-0.08 3.307-1.82 8.074-5.016 0.217 0.237 0.522 0.391 0.868 0.391h11.889v11.935c0 0.66 0.531 1.19 1.189 1.19h15.455c0.658 0 1.189-0.53 1.189-1.19v-11.935h11.887c0.66 0 1.19-0.533 1.19-1.193v-15.512c0-0.659-0.53-1.193-1.19-1.193z"/>
    <g id="noun_Health_172423">
     <rect id="Rectangle" y="0" x="0" height="119" width="119"/>
     <path id="Shape" fill-rule="nonzero" fill="#000" d="m110.62 80.977h-11.887v-10.093c9.467-12.103 14.267-24.361 14.267-36.441 0-15.132-12.27-27.443-27.344-27.443-12.302 0-22.731 8.195-26.156 19.43-3.424-11.235-13.854-19.43-26.156-19.43-13.572 0-24.862 9.976-26.981 23.006l-0.0147 0.014c-0.384 0.385-0.4315 0.961-0.1807 1.415-0.1082 0.988-0.1676 1.99-0.1676 3.008 0 1.041 0.0428 2.07 0.1106 3.095-0.1593 0.356-0.1213 0.762 0.0856 1.098 1.3363 14.832 9.5678 27.918 19.156 38.383 0.008 0.009 0.01 0.021 0.019 0.028 0.004 0.005 0.013 0.007 0.017 0.012 14.59 15.911 32.286 25.751 33.543 26.441 0.177 0.1 0.373 0.15 0.569 0.15s0.392-0.05 0.569-0.15c0.147-0.08 3.307-1.82 8.074-5.016 0.217 0.237 0.522 0.391 0.868 0.391h11.889v11.935c0 0.66 0.531 1.19 1.189 1.19h15.455c0.658 0 1.189-0.53 1.189-1.19v-11.935h11.887c0.66 0 1.19-0.533 1.19-1.193v-15.512c0-0.659-0.53-1.193-1.19-1.193zm-7.62 2.387l-19.722 19.786v-5.468c0-0.202-0.063-0.382-0.15-0.549l13.87-13.92c0.166 0.087 0.346 0.151 0.546 0.151h5.456zm-28.741 13.125l22.097-22.177v6.171l-15.948 16.006h-6.149zm-4.059 0v-0.035-4.244l8.814-8.846h3.075c0.657 0 1.189-0.534 1.189-1.194v-3.085l8.814-8.846h4.264v0.239 0.46l-25.459 25.551h-0.697zm0-7.653v-5.472h5.452l-5.452 5.472zm13.078-13.125v-5.472h5.452l-5.452 5.472zm6.436 33.899l6.642-6.66v6.66h-6.642zm7.83-13.121c-0.657 0-1.188 0.533-1.188 1.193v1.892l-10.004 10.036h-3.074v-3.08l23.082-23.166h3.07v3.085l-10 10.04h-1.886zm5.246 0l6.64-6.665v6.665h-6.64zm-43.289 4.591c-1.066-0.61-3.563-2.092-6.904-4.328l2.988-2.999c0.465-0.467 0.465-1.221 0-1.687-0.465-0.467-1.216-0.467-1.681 0l-3.309 3.32c-1.537-1.065-3.204-2.261-4.96-3.579l4.006-4.02c0.464-0.467 0.464-1.221 0-1.687-0.465-0.467-1.217-0.467-1.682 0l-4.233 4.249c-1.326-1.028-2.688-2.121-4.074-3.275l4.044-4.059c0.465-0.466 0.465-1.22 0-1.687-0.465-0.466-1.216-0.466-1.681 0l-4.187 4.201c-1.49-1.281-2.993-2.631-4.495-4.046l4.419-4.435c0.465-0.466 0.465-1.22 0-1.687s-1.217-0.467-1.681 0l-4.46 4.477c-1.223-1.197-2.436-2.44-3.633-3.719l5.018-5.037c0.465-0.466 0.465-1.22 0-1.687-0.465-0.466-1.216-0.466-1.681 0l-4.946 4.964c-1.153-1.289-2.29-2.606-3.387-3.966l5.257-5.277c0.465-0.466 0.465-1.22 0-1.687-0.465-0.466-1.216-0.466-1.681 0l-5.051 5.07c-1.082-1.416-2.118-2.87-3.109-4.355 0.117-0.057 0.233-0.123 0.33-0.221l5.35-5.369c0.465-0.467 0.465-1.221 0-1.687-0.465-0.467-1.216-0.467-1.681 0l-5.284 5.303c-0.812-1.303-1.57-2.635-2.294-3.985 0.123-0.057 0.242-0.126 0.343-0.228l5.944-5.966c0.465-0.466 0.465-1.22 0-1.687-0.465-0.466-1.216-0.466-1.681 0l-5.713 5.733c-0.686-1.404-1.31-2.833-1.88-4.283l8.084-8.114c0.465-0.466 0.465-1.22 0-1.687-0.465-0.466-1.216-0.466-1.681 0l-7.305 7.331c-0.522-1.545-0.99-3.108-1.3598-4.699 0.2889-0.001 0.5788-0.107 0.8068-0.322l9.512-8.949c0.479-0.45 0.503-1.206 0.053-1.687-0.448-0.48-1.202-0.505-1.681-0.054l-9.1639 8.623c-0.2283-1.277-0.4126-2.566-0.5303-3.871l12.537-12.583c0.464-0.466 0.464-1.22 0-1.687-0.465-0.466-1.217-0.466-1.681 0l-11.023 11.062c0.0004-0.226-0.0222-0.448-0.0222-0.674 0-1.133 0.101-2.239 0.2473-3.334l16.049-16.106c0.465-0.467 0.465-1.221 0-1.687-0.465-0.467-1.216-0.467-1.681 0l-13.407 13.455c3.237-10.073 12.659-17.385 23.758-17.385 13.768 0.0004 24.967 11.24 24.967 25.057 0 0.659 0.533 1.193 1.189 1.193s1.189-0.534 1.189-1.193c0-13.817 11.199-25.057 24.967-25.057 13.767 0.0004 24.964 11.24 24.964 25.057 0 11.049-4.24 22.308-12.625 33.498-0.139-0.058-0.29-0.089-0.451-0.089h-15.455c-0.658 0-1.189 0.534-1.189 1.193v11.932h-11.889c-0.657 0-1.189 0.534-1.189 1.193v13.653c-4.03 2.749-7.103 4.567-8.321 5.257z"/>
    </g>
    <path id="Path" fill="#F57437" d="m59.501 101.08c-1.066-0.61-3.563-2.092-6.904-4.328l2.988-2.999c0.465-0.467 0.465-1.221 0-1.687-0.465-0.467-1.216-0.467-1.681 0l-3.309 3.32c-1.537-1.065-3.204-2.261-4.96-3.579l4.006-4.02c0.464-0.467 0.464-1.221 0-1.687-0.465-0.467-1.217-0.467-1.682 0l-4.233 4.249c-1.326-1.028-2.688-2.121-4.074-3.275l4.044-4.059c0.465-0.466 0.465-1.22 0-1.687-0.465-0.466-1.216-0.466-1.681 0l-4.187 4.201c-1.49-1.281-2.993-2.631-4.495-4.046l4.419-4.435c0.465-0.466 0.465-1.22 0-1.687s-1.217-0.467-1.681 0l-4.46 4.477c-1.223-1.197-2.436-2.44-3.633-3.719l5.018-5.037c0.465-0.466 0.465-1.22 0-1.687-0.465-0.466-1.216-0.466-1.681 0l-4.946 4.964c-1.153-1.289-2.29-2.606-3.387-3.966l5.257-5.277c0.465-0.466 0.465-1.22 0-1.687-0.465-0.466-1.216-0.466-1.681 0l-5.051 5.07c-1.082-1.416-2.118-2.87-3.109-4.355 0.117-0.057 0.233-0.123 0.33-0.221l5.35-5.369c0.465-0.467 0.465-1.221 0-1.687-0.465-0.467-1.216-0.467-1.681 0l-5.284 5.303c-0.812-1.303-1.57-2.635-2.294-3.985 0.123-0.057 0.242-0.126 0.343-0.228l5.944-5.966c0.465-0.466 0.465-1.22 0-1.687-0.465-0.466-1.216-0.466-1.681 0l-5.713 5.733c-0.686-1.404-1.31-2.833-1.88-4.283l8.084-8.114c0.465-0.466 0.465-1.22 0-1.687-0.465-0.466-1.216-0.466-1.681 0l-7.305 7.331c-0.522-1.545-0.99-3.108-1.3598-4.699 0.2889-0.001 0.5788-0.107 0.8068-0.322l9.512-8.949c0.479-0.45 0.503-1.206 0.053-1.687-0.448-0.48-1.202-0.505-1.681-0.054l-9.1639 8.623c-0.2283-1.277-0.4126-2.566-0.5303-3.871l12.537-12.583c0.464-0.466 0.464-1.22 0-1.687-0.465-0.466-1.217-0.466-1.681 0l-11.023 11.062c0.0004-0.226-0.0222-0.448-0.0222-0.674 0-1.133 0.101-2.239 0.2473-3.334l16.049-16.106c0.465-0.467 0.465-1.221 0-1.687-0.465-0.467-1.216-0.467-1.681 0l-13.407 13.455c3.237-10.073 12.659-17.385 23.758-17.385 13.768 0.0004 24.967 11.24 24.967 25.057 0 0.659 0.533 1.193 1.189 1.193s1.189-0.534 1.189-1.193c0-13.817 11.199-25.057 24.967-25.057 13.767 0.0004 24.964 11.24 24.964 25.057 0 11.049-4.24 22.308-12.625 33.498-0.139-0.058-0.29-0.089-0.451-0.089h-15.455c-0.658 0-1.189 0.534-1.189 1.193v11.932h-11.889c-0.657 0-1.189 0.534-1.189 1.193v13.653c-4.03 2.749-7.103 4.567-8.321 5.257z"/>
   </g>
  </g>
 </g>
</svg>
