<?xml version="1.0" encoding="UTF-8"?>
<svg width="116px" height="30px" viewBox="0 0 116 30" version="1.1" xmlns="http://www.w3.org/2000/svg" xmlns:xlink="http://www.w3.org/1999/xlink">
    <!-- Generator: sketchtool 55.2 (78181) - https://sketchapp.com -->
    <title>6F6EBF68-AF42-4439-B041-F59D08E29487@3x</title>
    <desc>Created with sketchtool.</desc>
    <defs>
        <polygon id="path-1" points="0 0 0 29.2590654 115.573308 29.2590654 115.573308 0"></polygon>
    </defs>
    <g id="Landing-Page" stroke="none" stroke-width="1" fill="none" fill-rule="evenodd">
        <g id="0---Landing-Page" transform="translate(-543.000000, -778.000000)">
            <g id="Group-11" transform="translate(543.000000, 775.000000)">
                <g id="Group-9" transform="translate(0.000000, 0.000000)">
                    <g id="logo-broad-institute-457ce76e7f8723df731d313bc7aa45a7" transform="translate(0.000000, 2.925907)">
                        <mask id="mask-2" fill="white">
                            <use xlink:href="#path-1"></use>
                        </mask>
                        <g id="Path"></g>
                        <g id="Group1" mask="url(#mask-2)" fill-rule="nonzero">
                            <path d="M13.6781737,18.0868902 C17.663108,20.1142775 21.914214,21.7364932 26.3645668,22.9060578 L26.3645668,18.2745472 C23.8879394,17.5505184 21.4741832,16.671217 19.1337986,15.6445563 C17.2678711,16.3770304 15.4467375,17.1920283 13.6781737,18.0868902 Z" id="Path" fill="#005C9C"></path>
                            <path d="M8.1925755,21.2260555 C13.6787719,24.7561617 19.8016539,27.47127 26.3645668,29.1967568 L26.3645668,24.5555376 C21.5391145,23.1463146 16.949196,21.144928 12.6760253,18.6207352 C11.1417325,19.4330732 9.64379337,20.2980776 8.1925755,21.2260555 Z" id="Path" fill="#005C9C"></path>
                            <path d="M19.1280166,14.2528887 C21.4709266,13.2281564 23.8872748,12.3507835 26.3645668,11.6280181 L26.3645668,6.96472152 C21.9012543,8.13169274 17.6384514,9.75191349 13.6398264,11.7780373 C15.419489,12.6839378 17.2503921,13.5093095 19.1280166,14.2528887 Z" id="Path" fill="#005C9C"></path>
                            <path d="M7.08734774,8.60509112 C4.57690564,6.72379972 2.2112198,4.64316098 0,2.39950935 L0,8.62198158 C1.1078795,9.63374676 2.2475667,10.6136595 3.43333054,11.5462257 C4.61584448,10.5201634 5.83340937,9.53832231 7.08734774,8.60509112 Z" id="Path" fill="#005C9C"></path>
                            <path d="M26.3645668,16.6179522 L26.3645668,13.3002401 C24.542104,13.7781604 22.7528047,14.3294943 21.0029826,14.9561702 C22.7528047,15.5841097 24.542104,16.1381035 26.3645668,16.6179522 Z" id="Path" fill="#005C9C"></path>
                            <path d="M11.7564399,11.7767738 C10.3285494,10.8987359 8.93832178,9.9643077 7.58705956,8.97328986 C6.24813894,9.85192629 4.93971011,10.768267 3.67930519,11.7410644 C4.94619659,12.726829 6.25592804,13.663917 7.60460497,14.5515972 C8.95068332,13.5703545 10.3357271,12.6449701 11.7564399,11.7767738 Z" id="Path" fill="#005C9C"></path>
                            <path d="M0,27.4894904 L0,29.2155757 L21.5527387,29.2155757 C16.5837996,27.2868714 11.9134646,24.7185239 7.64095852,21.5923258 C4.92867777,23.3670876 2.37477091,25.3406115 0,27.4894904 Z" id="Path" fill="#005C9C"></path>
                            <path d="M3.45863846,18.2472831 C2.26573684,19.1778544 1.11696457,20.1545752 0,21.1650104 L0,27.423857 C2.22874527,25.1789552 4.609358,23.101495 7.13666097,21.2221986 C5.87430213,20.2785937 4.64764554,19.284384 3.45863846,18.2472831 Z" id="Path" fill="#005C9C"></path>
                            <path d="M7.61370997,15.2821428 C6.27344686,16.1614442 4.96372206,17.07579 3.70267248,18.0492524 C4.97085986,19.0350169 6.28188727,19.9707751 7.63052432,20.8591867 C8.97859646,19.878609 10.3648764,18.9525596 11.7855892,18.0842968 C10.3577652,17.2069903 8.96689953,16.2731607 7.61370997,15.2821428 Z" id="Path" fill="#005C9C"></path>
                            <path d="M12.6649929,17.5569687 C14.2661443,16.6134303 15.9120896,15.7399807 17.5982431,14.9464616 C15.9036492,14.1450957 14.2518554,13.2632008 12.6429282,12.3118157 C11.1106293,13.1236218 9.61328829,13.9898896 8.16532695,14.9172025 C9.62113056,15.8556205 11.1223263,16.7361854 12.6649929,17.5569687 Z" id="Path" fill="#005C9C"></path>
                            <path d="M3.45604652,17.8537487 C4.63856047,16.827753 5.85807263,15.8458453 7.11200436,14.9133456 C5.85028353,13.9697408 4.62492955,12.976196 3.43657378,11.9377652 C2.25210591,12.8625511 1.1078795,13.8333536 0,14.8380035 L0,14.9237193 C1.11307002,15.9393413 2.26444087,16.9179906 3.45604652,17.8537487 Z" id="Path" fill="#005C9C"></path>
                            <path d="M0,8.68761498 L0,14.760733 C1.03778427,13.7165168 2.10802755,12.7080101 3.21265716,11.7403995 C2.10672493,10.7636787 1.03843558,9.74087484 0,8.68761498 Z" id="Path" fill="#005C9C"></path>
                            <path d="M0,14.9873577 L0,21.0981135 C1.04687598,20.0461171 2.12100716,19.0239783 3.23407718,18.0485875 C2.12100716,17.0673448 1.04362609,16.0471344 0,14.9873577 Z" id="Path" fill="#005C9C"></path>
                            <path d="M3.70267248,18.0492524 C4.97085986,19.0350169 6.28188727,19.9707751 7.63052432,20.8591867 C8.97859646,19.878609 10.3648764,18.9525596 11.7855892,18.0842968 C10.3577652,17.2069903 8.96689953,16.2731607 7.61370997,15.2821428 C6.27344686,16.1614442 4.96372206,17.07579 3.70267248,18.0492524 Z" id="Path" fill="#005C9C"></path>
                            <path d="M11.7564399,11.7767738 C10.3285494,10.8987359 8.93832178,9.9643077 7.58705956,8.97328986 C6.24813894,9.85192629 4.93971011,10.768267 3.67930519,11.7410644 C4.94619659,12.726829 6.25592804,13.663917 7.60460497,14.5515972 C8.95068332,13.5703545 10.3357271,12.6449701 11.7564399,11.7767738 Z" id="Path" fill="#005C9C"></path>
                            <path d="M12.6649929,17.5569687 C14.2661443,16.6134303 15.9120896,15.7399807 17.5982431,14.9464616 C15.9036492,14.1450957 14.2518554,13.2632008 12.6429282,12.3118157 C11.1106293,13.1236218 9.61328829,13.9898896 8.16532695,14.9172025 C9.62113056,15.8556205 11.1223263,16.7361854 12.6649929,17.5569687 Z" id="Path" fill="#005C9C"></path>
                            <path d="M26.3431667,0.64614656 C19.7711488,2.37028353 13.6372345,5.08215336 8.13615106,8.60833622 C9.59122361,9.54668774 11.090492,10.4279176 12.6306332,11.2487674 C16.9180928,8.72331104 21.5234964,6.71994284 26.3645668,5.30879142 L26.3645668,0.64614656 L26.3431667,0.64614656 Z" id="Path" fill="#005C9C"></path>
                            <path d="M21.4573024,0.64614656 L0,0.64614656 L0,2.33261914 C2.35530481,4.48341313 4.88389046,6.4660074 7.57735642,8.24406085 C11.8426849,5.1308564 16.5033167,2.57094752 21.4573024,0.64614656 Z" id="Path" fill="#005C9C"></path>
                            <polyline id="Path" fill="#161413" points="35.4145411 29.1350468 32.7502976 29.1350468 32.7502976 28.7363256 33.4733146 28.7363256 33.4733146 23.2521792 32.7502976 23.2521792 32.7502976 22.853458 35.4145411 22.853458 35.4145411 23.2521792 34.7012937 23.2521792 34.7012937 28.7363256 35.4145411 28.7363256 35.4145411 29.1350468"></polyline>
                            <polyline id="Path" fill="#161413" points="45.7950422 29.2402465 45.1291143 29.2402465 41.8178174 24.57562 41.8178174 28.7363256 42.5693456 28.7363256 42.5693456 29.1350468 40.4198338 29.1350468 40.4198338 28.7363256 41.2090449 28.7363256 41.2090449 23.7385447 40.9046586 23.2521792 40.2199225 23.2521792 40.2199225 22.853458 42.1130986 22.853458 45.1959729 27.2413868 45.1959729 23.2521792 44.4437136 23.2521792 44.4437136 22.853458 46.594621 22.853458 46.594621 23.2521792 45.7950422 23.2521792 45.7950422 29.2402465"></polyline>
                            <path d="M52.3221997,29.2214276 L51.799094,29.2214276 L51.799094,27.5083093 L52.3221997,27.5083093 L52.3221997,28.2129208 C52.7506,28.5551188 53.0731298,28.6791374 53.5404092,28.6791374 C54.1297754,28.6791374 54.5587739,28.3265656 54.5587739,27.8316884 C54.5587739,27.4031096 54.2823008,27.0985494 53.3969888,26.5270666 C52.4643574,25.936765 52.3501128,25.8413405 52.1041448,25.5555992 C51.865288,25.2789015 51.742005,24.8990656 51.742005,24.4801955 C51.742005,23.4339844 52.513006,22.7384831 53.6734619,22.7384831 C54.0441086,22.7384831 54.3387253,22.7950063 54.7008651,22.947619 L54.7008651,22.6618776 L55.2155969,22.6618776 L55.2155969,24.2898786 L54.7008651,24.2898786 L54.7008651,23.6333451 C54.301109,23.3761978 54.0441086,23.2801083 53.6923365,23.2801083 C53.1977421,23.2801083 52.8174587,23.6333451 52.8174587,24.0808093 C52.8174587,24.4607116 53.0361781,24.699705 53.9500014,25.2789015 C54.3867758,25.5646429 54.6625842,25.7374043 54.7677238,25.8140099 C54.9864432,25.9653591 55.1863545,26.1750934 55.347985,26.4329056 C55.5284235,26.7264273 55.6140903,27.0420262 55.6140903,27.4128183 C55.6140903,28.4985956 54.8242147,29.2590654 53.7111446,29.2590654 C53.1594612,29.2590654 52.7596386,29.1440905 52.3221997,28.8882732 L52.3221997,29.2214276" id="Path" fill="#161413"></path>
                            <polyline id="Path" fill="#161413" points="64.7581719 29.1350468 61.6947703 29.1350468 61.6947703 28.7363256 62.6176986 28.7363256 62.6176986 23.4151655 60.9717533 23.4151655 60.9717533 24.2048278 60.4486476 24.2048278 60.4486476 22.5865355 60.9717533 22.5865355 60.9717533 22.853458 65.4811224 22.853458 65.4811224 22.5865355 66.0042946 22.5865355 66.0042946 24.2048278 65.4811224 24.2048278 65.4811224 23.4151655 63.8443486 23.4151655 63.8443486 28.7363256 64.7581719 28.7363256 64.7581719 29.1350468"></polyline>
                            <polyline id="Path" fill="#161413" points="72.7742299 29.1350468 70.1111827 29.1350468 70.1111827 28.7363256 70.8342661 28.7363256 70.8342661 23.2521792 70.1111827 23.2521792 70.1111827 22.853458 72.7742299 22.853458 72.7742299 23.2521792 72.0604509 23.2521792 72.0604509 28.7363256 72.7742299 28.7363256 72.7742299 29.1350468"></polyline>
                            <polyline id="Path" fill="#161413" points="81.0106025 29.1350468 77.9474668 29.1350468 77.9474668 28.7363256 78.8699298 28.7363256 78.8699298 23.4151655 77.2243833 23.4151655 77.2243833 24.2048278 76.7000149 24.2048278 76.7000149 22.5865355 77.2243833 22.5865355 77.2243833 22.853458 81.733686 22.853458 81.733686 22.5865355 82.2580544 22.5865355 82.2580544 24.2048278 81.733686 24.2048278 81.733686 23.4151655 80.0967792 23.4151655 80.0967792 28.7363256 81.0106025 28.7363256 81.0106025 29.1350468"></polyline>
                            <path d="M93.4851214,23.2521792 L92.6849445,23.2521792 L92.6849445,26.8316269 C92.6849445,27.9083605 92.3140984,28.5837129 91.5052817,28.9636153 C91.087249,29.1538657 90.6213653,29.2590654 90.1255746,29.2590654 C88.5850347,29.2590654 87.5854781,28.4109514 87.5854781,27.0985494 L87.5854781,23.2521792 L86.8623947,23.2521792 L86.8623947,22.853458 L89.5261065,22.853458 L89.5261065,23.2521792 L88.8116629,23.2521792 L88.8116629,26.8030328 C88.8116629,27.7654566 88.9844585,28.2024806 89.4702802,28.4596944 C89.6969084,28.5726743 89.9733815,28.6401696 90.259159,28.6401696 C91.4002751,28.6401696 92.066203,27.9648172 92.066203,26.8030328 L92.066203,23.2612894 L91.2766597,23.2612894 L91.2766597,22.853458 L93.4851214,22.853458 L93.4851214,23.2521792" id="Path" fill="#161413"></path>
                            <polyline id="Path" fill="#161413" points="102.246527 29.1350468 99.1833913 29.1350468 99.1833913 28.7363256 100.105854 28.7363256 100.105854 23.4151655 98.4603078 23.4151655 98.4603078 24.2048278 97.9372686 24.2048278 97.9372686 22.5865355 98.4603078 22.5865355 98.4603078 22.853458 102.97094 22.853458 102.97094 22.5865355 103.493979 22.5865355 103.493979 24.2048278 102.97094 24.2048278 102.97094 23.4151655 101.332704 23.4151655 101.332704 28.7363256 102.246527 28.7363256 102.246527 29.1350468"></polyline>
                            <polyline id="Path" fill="#161413" points="112.628224 29.1350468 108.099648 29.1350468 108.099648 28.7363256 108.822732 28.7363256 108.822732 23.2521792 108.099648 23.2521792 108.099648 22.853458 112.018123 22.853458 112.018123 22.5865355 112.532522 22.5865355 112.532522 24.0996282 112.028756 24.0996282 112.028756 23.4151655 110.048917 23.4151655 110.048917 25.6607988 111.571512 25.6607988 111.571512 25.013309 112.085912 25.0042653 112.085912 26.8790399 111.571512 26.8894135 111.571512 26.2225064 110.048917 26.2225064 110.048917 28.5726743 112.11449 28.5726743 112.11449 27.8693927 112.628224 27.8693927 112.628224 29.1350468"></polyline>
                            <path d="M35.9727376,16.9348544 L38.9309332,16.9348544 C41.1499621,16.9348544 42.4973031,15.6133421 42.4973031,13.4463094 C42.4973031,11.2526774 40.9915882,9.66617113 38.9309332,9.66617113 L35.9727376,9.66617113 L35.9727376,16.9348544 Z M35.9727376,8.47712261 L38.6668217,8.47712261 C40.3834803,8.47712261 41.5997625,7.07643795 41.5997625,5.12046943 C41.5997625,3.27034558 40.4632986,1.89622683 38.9050139,1.89622683 L35.9727376,1.89622683 L35.9727376,8.47712261 Z M31.667068,18.123903 L31.667068,17.1459187 L33.6485693,17.1459187 L33.6485693,1.65789844 L31.667068,1.65789844 L31.667068,0.679914181 L39.697415,0.679914181 C42.1008035,0.679914181 44.0562525,2.60990863 44.0562525,5.01526314 C44.0562525,6.99723898 42.3123453,8.74145166 40.1732012,8.92651525 C41.2557662,9.05897902 41.6523323,9.16484364 42.3123453,9.48177252 C43.9505148,10.2480275 44.9012898,11.7806041 44.9012898,13.5781082 C44.9012898,16.1691979 42.8938692,18.123903 40.1997852,18.123903 L31.667068,18.123903 Z" id="Shape" fill="#161413"></path>
                            <path d="M51.9016416,9.08564467 L54.4374182,9.08564467 C56.4441742,9.08564467 57.8447496,7.60500297 57.8447496,5.43737171 C57.8447496,3.16449426 56.6031462,1.89622683 54.3848484,1.89622683 L51.9016416,1.89622683 L51.9016416,9.08564467 Z M62.8642647,18.123903 L60.6180538,18.123903 C59.0603672,18.123903 58.7696053,17.9661035 57.8973194,16.5647273 L53.9616319,10.3006274 L51.9016416,10.3006274 L51.9016416,17.1459187 L53.8824782,17.1459187 L53.8824782,18.123903 L47.5953738,18.123903 L47.5953738,17.1459187 L49.5768751,17.1459187 L49.5768751,1.65789844 L47.5953738,1.65789844 L47.5953738,0.679914181 L54.9390573,0.679914181 C57.5007533,0.679914181 58.953965,1.39359598 59.7483599,3.03266887 C60.0896978,3.74635068 60.2747221,4.53925805 60.2747221,5.38477189 C60.2747221,7.94853099 58.8481608,9.58763713 56.3123842,9.95709933 L60.1170128,15.8250714 C60.7511065,16.8030556 61.1722627,17.119918 61.8342696,17.119918 L62.8642647,17.119918 L62.8642647,18.123903 Z" id="Shape" fill="#161413"></path>
                            <path d="M66.1925089,9.40253232 C66.1925089,13.8690616 68.6749847,17.0946076 72.1089666,17.0946076 C75.4897805,17.0946076 77.9474668,13.8431275 77.9474668,9.40253232 C77.9474668,4.96201031 75.4897805,1.73777436 72.1362151,1.73777436 C68.6749847,1.73777436 66.1925089,4.90876547 66.1925089,9.40253232 Z M63.5762494,9.42853299 C63.5762494,4.45937947 67.4328496,0.363010574 72.1089666,0.363010574 C76.7053317,0.363010574 80.5626629,4.48600522 80.5626629,9.40253232 C80.5626629,14.3184543 76.7053317,18.4674562 72.1089666,18.4674562 C67.458769,18.4674562 63.5762494,14.3451199 63.5762494,9.42853299 Z" id="Shape" fill="#161413"></path>
                            <path d="M91.4846791,11.120225 L88.6588051,3.69374886 L85.6734275,11.120225 L91.4846791,11.120225 Z M97.6920316,18.1239143 L91.6701022,18.1239143 L91.6701022,17.14593 L93.7821971,17.14593 L91.9339479,12.3891374 L85.17232,12.3624718 L83.2416606,17.1199293 L85.4341719,17.1199293 L85.4341719,18.1239143 L80.3898672,18.1239143 L80.3898672,17.1199293 L81.7635929,17.1199293 L88.6315566,0.125333201 L89.5819328,0.125333201 L96.1860508,17.1199293 L97.6920316,17.1199293 L97.6920316,18.1239143 Z" id="Shape" fill="#161413"></path>
                            <path d="M103.661458,16.8030556 L106.831594,16.8030556 C110.450334,16.8030556 113.197121,13.6047738 113.171202,9.40250705 C113.171202,5.33216542 110.372576,2.02805222 106.884762,2.02805222 L103.661458,2.02805222 L103.661458,16.8030556 Z M99.3561869,18.123903 L99.3561869,17.1459187 L101.336691,17.1459187 L101.336691,1.65789844 L99.3561869,1.65789844 L99.3561869,0.679914181 L107.149272,0.679914181 C111.903812,0.679914181 115.786398,4.59185787 115.786398,9.37524292 C115.786398,14.2651642 111.982234,18.123903 107.122024,18.123903 L99.3561869,18.123903 Z" id="Shape" fill="#161413"></path>
                        </g>
                    </g>
                </g>
            </g>
        </g>
    </g>
</svg>