<?xml version="1.0" encoding="UTF-8"?>
<svg width="192px" height="35px" viewBox="0 0 192 35" version="1.1" xmlns="http://www.w3.org/2000/svg" xmlns:xlink="http://www.w3.org/1999/xlink">
    <!-- Generator: sketchtool 55.2 (78181) - https://sketchapp.com -->
    <title>35B269EB-28D1-40EF-997B-CD7A723D35EC@2x</title>
    <desc>Created with sketchtool.</desc>
    <g id="Landing-Page" stroke="none" stroke-width="1" fill="none" fill-rule="evenodd">
        <g id="0---Landing-Page" transform="translate(-704.000000, -775.000000)" fill-rule="nonzero">
            <g id="Group-11" transform="translate(543.000000, 775.000000)">
                <g id="Group-9" transform="translate(0.000000, 0.000000)">
                    <g id="logo-dana-farber-cancer-institute-a4de62fc80d93416e494c2c80341b50f" transform="translate(161.353122, 0.000000)">
                        <path d="M27.1743516,13.5489271 C27.3381293,13.6626715 27.4133269,13.7618007 27.2144995,14.2047049 C26.4676222,16.0214379 25.7130977,17.7415836 24.5456241,18.9349466 C24.0020351,19.4903242 23.0894683,20.0221905 21.5192417,20.0380766 C17.917407,20.0736614 18.7681589,20.0380766 10.504714,20.0380766 C8.72418915,20.0380766 8.08501007,20.1333931 7.59622606,20.7288037 L7.0634706,21.3801333 L14.007135,21.3801333 C13.9191921,21.7340754 13.871397,21.9812629 13.6489907,22.2900885 C13.4253099,22.5995495 13.318249,22.8664358 12.9046626,22.9217193 C12.3878388,23.0723195 12.2565617,23.0767676 11.9111629,23.3074336 C11.4669876,23.6029148 11.5014,23.7725782 11.0298222,24.3508319 L4.37738899,34.3609739 L17.8039735,34.3794018 C27.3164622,34.3794018 35.1108784,26.6651172 35.1108784,17.1798515 C35.1108784,13.0577293 33.3794232,9.14403253 30.939964,6.18286563 C30.072006,8.25377613 29.4748865,9.32513393 28.9880143,10.3437499 C28.4010912,11.5752395 27.4611219,12.4998099 25.6582928,12.5226858 C20.9883981,12.5786049 21.4886529,12.4540579 13.2232962,12.5239567 C11.0177141,12.5239567 9.75273855,12.5741567 8.59609843,13.6741095 L10.3453971,9.35499978 C11.0355576,7.65582376 12.8186315,6.41861519 15.4180447,6.41988607 C23.6814896,6.42242785 24.0237022,6.41988607 27.6255369,6.41988607 C28.2889321,6.41988607 29.1938517,6.33219487 29.7673922,5.64972851 C29.8897475,5.50294105 30.1510271,5.19348004 29.8362171,4.84716332 C27.0838597,2.12746497 22.330483,0 16.9436626,0 L0,0 L0.0184807513,34.32666 L0.583736835,34.32666 L4.23464112,25.1476781 C4.7591121,23.6359579 4.67116921,23.7477959 4.50484245,23.2527854 L3.89816399,22.3726961 L4.25694547,21.4106346 L4.30155418,21.4055511 L5.61368753,21.4055511 L7.79441618,16.1631419 C8.2965828,14.9551637 10.0439697,13.9575173 12.0934213,13.9575173 C19.3327777,13.9575173 16.1712947,13.9835705 25.1140665,13.9575173 C26.5096819,13.9549756 26.746108,13.4161194 27.1743516,13.5489271" id="Path" fill="#A90633"></path>
                        <path d="M56.1183033,13.2051897 C56.1183033,17.4856195 53.397464,19.2600381 50.0878864,19.2600381 C49.4965939,19.2600381 48.3695624,19.1954668 47.9059789,18.9132903 C47.5209364,18.6769595 47.2655185,18.2649947 47.2655185,17.3990939 L47.2655185,6.8468564 C48.1620354,6.58727988 49.5744964,6.58727988 50.1906921,6.58727988 C53.5775336,6.58727988 56.1183033,8.49148674 56.1183033,13.2051897 L56.1183033,13.2051897 Z M58.5051837,12.6208197 C58.5051837,8.83565163 56.0410394,5.98095562 51.0884861,5.98095562 C49.9078168,5.98095562 46.8536571,6.08878964 45.9558632,6.08878964 L43.3889131,6.08878964 C43.2088435,6.08878964 43.1826632,6.08878964 43.1826632,6.15400663 L43.1826632,6.41293744 C43.1826632,6.47815443 43.1826632,6.50075437 43.286746,6.52206289 C43.7228721,6.60665126 44.7751939,6.60665126 44.9284446,6.84621069 C45.0057085,6.97599895 45.134056,7.03992451 45.134056,8.38106986 L45.134056,17.3984482 C45.134056,18.7621935 45.0057085,18.8913361 44.9029028,19.0424329 C44.7490135,19.2800551 43.6456081,19.3891806 43.2605656,19.4537519 C43.1571214,19.4763518 43.1571214,19.4763518 43.1571214,19.5409231 L43.1571214,19.8230996 C43.1571214,19.8876708 43.1571214,19.9309336 43.2343853,19.9309336 C44.2356235,19.8883165 45.5440018,19.8230996 46.3147253,19.8230996 C47.0081849,19.8230996 49.11219,19.8876708 49.5476775,19.8876708 C54.6043136,19.8883165 58.5051837,17.1847173 58.5051837,12.6208197 L58.5051837,12.6208197 Z M97.2757069,14.1356618 L92.7835444,14.1356618 C93.7343376,11.9073071 94.3754365,10.0056831 94.9916322,8.51279526 C95.7355369,10.3730937 96.4551769,12.2114378 97.2757069,14.1356618 L97.2757069,14.1356618 Z M103.074971,19.867008 L103.074971,19.5848316 C103.074971,19.5202603 103.050067,19.4989518 102.947262,19.4769975 C102.792734,19.4343805 102.433872,19.3465636 102.150996,19.1948211 C101.612703,18.8932732 101.43391,18.6336967 100.534839,16.6655643 C99.7130323,14.8478829 97.5834855,10.0250545 95.9666901,6.15529806 C95.8638844,5.91703006 95.7866205,5.85245878 95.530564,5.85245878 C95.3498558,5.85245878 95.2994108,5.91703006 95.1959666,6.17660658 C93.5542679,10.3937565 91.423444,15.3250646 89.9867183,18.3741202 C89.7811068,18.8287019 89.3449808,19.2187124 88.8826743,19.3698092 C88.67834,19.4343805 88.4989089,19.4563347 88.2422139,19.4776432 C88.1400468,19.4995975 88.1400468,19.5202603 88.1400468,19.5854773 L88.1400468,19.8456995 C88.1400468,19.9115622 88.1400468,19.932225 88.1904918,19.932225 C88.67834,19.889608 89.5250504,19.824391 90.1923297,19.824391 C91.1424843,19.824391 91.9630143,19.8889623 92.6571125,19.932225 L92.6571125,19.6067858 C91.6041522,19.5654602 91.1680261,19.2193582 91.1680261,18.5923711 C91.1680261,18.4612914 91.1929293,18.2017149 91.3212768,17.8782128 L92.5268494,14.807203 L97.4825954,14.807203 L98.8925023,17.9854011 C99.0208498,18.2675776 99.0968366,18.5064913 99.0968366,18.6995594 C99.0968366,19.3472093 98.5068212,19.5202603 97.7124715,19.6061401 L97.7124715,19.9315793 C98.7124326,19.8450538 99.6625873,19.8237453 100.278783,19.8237453 C100.947339,19.8237453 102.305524,19.9109165 102.998984,19.9541792 C103.074971,19.9541792 103.074971,19.9315793 103.074971,19.867008 L103.074971,19.867008 Z M103.679672,15.4535615 L108.812295,15.4535615 L108.812295,14.092399 L103.679672,14.092399 L103.679672,15.4535615 Z M120.99573,9.07456534 C120.99573,8.98803983 120.945923,7.88580819 120.945923,7.34470092 C120.945923,6.95533614 120.971465,6.19856081 120.99573,5.98224704 C118.636945,6.04746403 116.324775,6.09008107 113.938533,6.09008107 C112.913668,6.09008107 111.911153,6.02486408 110.987179,5.98224704 C110.883735,5.98224704 110.883735,6.0255098 110.883735,6.13334382 L110.883735,6.39356606 C110.883735,6.45749162 110.883735,6.48009156 110.962276,6.50269151 C111.398402,6.58663417 112.451362,6.63118834 112.604613,6.8268393 C112.708057,6.95533614 112.810224,7.02055312 112.810224,8.38365271 L112.810224,17.4010311 C112.810224,18.2662862 112.733599,18.6562966 112.474988,18.9165189 C112.01332,19.3917635 111.345403,19.5202603 111.089985,19.5641688 C110.987179,19.5848316 110.987179,19.6054944 110.987179,19.6720028 L110.987179,19.8450538 C110.987179,19.9096251 111.014636,19.9315793 111.065081,19.9315793 C112.117403,19.867008 112.835766,19.8237453 113.863823,19.8237453 C115.24755,19.8237453 116.454399,19.8663623 117.454999,19.9315793 C117.50736,19.9315793 117.530986,19.9096251 117.530986,19.8450538 L117.530986,19.6720028 C117.530986,19.6054944 117.530986,19.5848316 117.427542,19.5641688 C117.172124,19.5202603 115.711133,19.4117805 115.273091,18.9165189 C115.041938,18.6343424 114.94041,18.2669319 114.94041,17.4010311 L114.94041,13.2917152 L117.63443,13.2917152 C118.583946,13.2917152 118.89364,13.9839193 119.123516,15.5187785 C119.483017,15.5187785 119.662448,15.4968242 119.662448,15.3257103 C119.662448,15.2391848 119.56092,13.508029 119.56092,12.9669217 C119.56092,12.4490601 119.662448,10.7831212 119.662448,10.6739958 C119.662448,10.5022362 119.483017,10.480282 119.123516,10.480282 C118.89364,12.0157869 118.583946,12.6221111 117.63443,12.6221111 L114.94041,12.6221111 L114.94041,7.88580819 C114.94041,7.19360414 114.94041,7.12903286 115.197105,6.86881063 C115.324814,6.7403138 116.889887,6.6744511 117.223846,6.6744511 C119.686074,6.6744511 120.303547,7.77797416 120.509159,9.31283334 C120.869298,9.2702163 120.99573,9.24826207 120.99573,9.07456534 L120.99573,9.07456534 Z M159.600231,16.3401251 C159.600231,18.1797606 157.95981,19.3026551 156.54671,19.3026551 C155.624652,19.3026551 155.265151,19.1308955 154.904373,18.9132903 C154.493789,18.6550052 154.468247,18.2210863 154.468247,17.3345227 L154.468247,12.8151792 L156.290654,12.8151792 C157.367879,12.8158249 159.600231,13.442812 159.600231,16.3401251 L159.600231,16.3401251 Z M158.549187,9.59371838 C158.549187,11.1079147 157.138003,12.1681751 155.725542,12.1681751 C154.878831,12.1681751 154.648317,12.1242666 154.468247,12.0816496 L154.468247,6.84750211 C154.751761,6.6744511 155.340499,6.60923389 155.880069,6.60923389 C157.754837,6.6085884 158.549187,8.03625926 158.549187,9.59371838 L158.549187,9.59371838 Z M162.090556,15.9727145 C162.090556,14.0052278 159.934829,12.4477687 157.445781,12.3612432 C159.345452,11.8207816 160.858803,10.761167 160.858803,9.00934835 C160.858803,7.84189973 159.680049,5.98224704 156.085681,5.98224704 C155.366041,5.98224704 153.110062,6.09008107 152.596672,6.09008107 L150.592919,6.09008107 C150.463933,6.09008107 150.439668,6.11268102 150.439668,6.17660658 L150.439668,6.43682881 C150.439668,6.50269151 150.439668,6.52335432 150.541835,6.54466284 C150.925601,6.63054263 151.978561,6.60987982 152.131812,6.84814782 C152.210353,6.97793608 152.337423,7.04186164 152.337423,8.383007 L152.337423,17.4449395 C152.337423,18.7860849 152.210353,18.8932732 152.108185,19.04437 C151.954296,19.2832837 150.924962,19.3911177 150.516932,19.478289 C150.414126,19.5002432 150.414126,19.5002432 150.414126,19.5641688 L150.414126,19.8463452 C150.414126,19.9109165 150.414126,19.9328707 150.489474,19.9328707 C151.439629,19.8902537 152.235256,19.8250367 153.341215,19.8250367 C154.700039,19.8250367 156.060139,19.9328707 156.95921,19.9328707 C159.680049,19.9315793 162.090556,18.3528117 162.090556,15.9727145 L162.090556,15.9727145 Z M175.431672,16.7947068 C175.431672,16.6442558 175.380588,16.6216558 174.943824,16.6216558 C174.327628,17.9841097 174.122655,19.2167753 171.632969,19.2167753 C170.170702,19.2167753 169.145199,19.1089413 168.707795,18.6311138 C168.450462,18.3521659 168.424282,17.9628012 168.424282,17.1627631 L168.424282,13.0960643 L171.120218,13.0960643 C172.067818,13.0960643 172.378151,13.7437141 172.609304,15.2811562 C172.968805,15.2811562 173.14632,15.2592019 173.14632,15.0855052 C173.14632,14.4798267 173.07161,13.8315311 173.07161,12.620174 C173.07161,11.9492784 173.14632,10.522899 173.14632,10.4137736 C173.14632,10.2633225 173.07161,10.2400768 172.609304,10.2400768 C172.378151,11.7755817 172.067818,12.4238773 171.120218,12.4238773 L168.424282,12.4238773 L168.424282,7.88322534 C168.424282,7.27754679 168.502823,7.14775853 168.760156,6.8875363 C168.887227,6.75903947 169.785659,6.69382248 170.708995,6.69382248 C173.199319,6.69382248 173.815515,7.7747456 174.020488,9.31154192 C174.381266,9.31154192 174.508336,9.28958768 174.508336,9.11589096 C174.508336,9.00805693 174.455337,7.88322534 174.455337,7.34340949 C174.455337,6.95275329 174.482794,6.19726938 174.482794,5.97966419 C172.226177,6.0461726 170.582563,6.08749822 167.295334,6.08749822 C166.269193,6.08749822 165.421844,6.02357266 164.499147,5.97966419 C164.345258,5.97966419 164.345258,6.02421837 164.345258,6.08749822 L164.345258,6.41164601 C164.345258,6.476863 164.345258,6.49946295 164.447425,6.52077147 C164.808203,6.58598845 165.808164,6.62795978 166.0904,6.84491926 C166.217471,6.95210757 166.294735,7.03863308 166.294735,8.37977844 L166.294735,17.4010311 C166.294735,18.7628392 166.167026,18.8926275 166.06422,19.0430786 C165.911608,19.2819923 164.808203,19.3898263 164.420606,19.4543976 C164.345258,19.4769975 164.345258,19.4769975 164.345258,19.5415688 L164.345258,19.8237453 C164.345258,19.8883165 164.345258,19.9096251 164.52405,19.9315793 C165.421844,19.9096251 166.552068,19.8237453 167.475404,19.8237453 C168.168864,19.8237453 171.966928,19.8450538 174.764393,19.9315793 C174.943824,19.4550433 175.073448,18.9785073 175.148797,18.5671883 C175.252241,18.0493267 175.431672,16.9038323 175.431672,16.7947068 L175.431672,16.7947068 Z M186.438268,9.52979282 C186.438268,12.0377411 184.923002,12.9023504 183.024608,12.9023504 C182.175982,12.9023504 181.970371,12.8603791 181.739856,12.7732079 L181.739856,6.9127191 C182.100634,6.65249686 182.794093,6.56597136 183.332387,6.56597136 C185.152878,6.56661707 186.438268,7.36600944 186.438268,9.52979282 L186.438268,9.52979282 Z M191.646878,19.716557 C191.646878,19.5648145 191.545988,19.586123 191.468086,19.5648145 C191.212668,19.5008889 190.902335,19.4137177 190.542834,19.1760954 C188.595273,17.8562586 186.617061,14.3732841 185.642642,12.9895217 C187.489952,12.4497058 188.721066,11.1305147 188.721066,9.55110134 C188.721066,7.64883162 187.516132,5.98418418 183.741694,5.98418418 C182.613385,5.98418418 180.379755,6.0913725 179.867004,6.0913725 L177.865166,6.0913725 C177.686374,6.0913725 177.660832,6.11268102 177.660832,6.177898 L177.660832,6.43747452 C177.660832,6.50333722 177.660832,6.5227086 177.762999,6.54530855 C178.200402,6.63183406 179.252085,6.60923411 179.430878,6.84750211 C179.533684,6.9785818 179.610948,7.04250736 179.610948,8.38365271 L179.610948,17.4455853 C179.610948,18.7854392 179.50878,18.8939189 179.405336,19.0456614 C179.225905,19.2832837 178.430278,19.3924092 177.966695,19.4776432 C177.865166,19.5008889 177.865166,19.5008889 177.865166,19.5648145 L177.865166,19.8456995 C177.865166,19.9115622 177.890708,19.932225 177.994152,19.932225 C179.045835,19.889608 180.534922,19.824391 180.969771,19.824391 C181.560425,19.824391 183.305568,19.9115622 184.050111,19.932225 C184.10311,19.932225 184.125459,19.9115622 184.125459,19.8676537 L184.125459,19.5428602 C184.125459,19.520906 184.10311,19.478289 184.050111,19.478289 C183.794693,19.478289 182.511218,19.3924092 182.073176,18.8945646 C181.8433,18.6123882 181.766675,18.0938809 181.739856,17.4016768 C181.715591,16.9910035 181.739856,13.2490982 181.739856,13.5312747 C182.125537,13.5312747 183.254484,13.5519375 183.844499,13.465412 C184.435792,14.3313127 185.206515,15.7370294 185.848253,16.7972897 C186.694963,18.2017149 187.232618,19.2406667 187.978438,19.5428602 C188.465648,19.7391569 188.978399,19.9535335 190.286778,19.9535335 C190.646278,19.9535335 191.056863,19.9535335 191.545988,19.9122079 C191.646878,19.9109165 191.646878,19.8450538 191.646878,19.716557 L191.646878,19.716557 Z M67.4729065,14.1233932 L62.9813825,14.1233932 C63.9308986,11.89633 64.5726361,9.99406028 65.1881933,8.50052672 C65.9333751,10.3601794 66.6523765,12.1985236 67.4729065,14.1233932 L67.4729065,14.1233932 Z M73.1968219,19.4912032 C72.8379597,19.4608547 72.6310712,19.3472093 72.3481959,19.1954668 C71.8099026,18.8939189 71.6304716,18.6343424 70.7320391,16.66621 C69.911509,14.8491743 67.7806851,10.0263459 66.1645283,6.15658948 C66.0604455,5.91832148 65.9857357,5.85181307 65.7284022,5.85181307 C65.5489711,5.85181307 65.4966104,5.91832148 65.3944433,6.17596086 C63.7527446,10.3944022 61.6225593,15.3250646 60.1845564,18.3747659 C59.978945,18.8280562 59.5434575,19.2193582 59.081151,19.3704549 C58.8755396,19.4350262 58.6961085,19.4569804 58.438775,19.478289 C58.3372464,19.5002432 58.3372464,19.520906 58.3372464,19.586123 L58.3372464,19.8463452 C58.3372464,19.9109165 58.3372464,19.9328707 58.38833,19.9328707 C58.8755396,19.8902537 59.7216115,19.8250367 60.3901678,19.8250367 C61.3403225,19.8250367 62.1614911,19.889608 62.8536736,19.9328707 L62.8536736,19.6074315 C61.8013518,19.5648145 61.3652257,19.2200039 61.3652257,18.5917254 C61.3652257,18.4619371 61.3907675,18.2023606 61.5184765,17.8788585 L62.7266032,14.8078487 L67.6791565,14.8078487 L69.0897019,17.9860468 C69.2186879,18.2669319 69.2953133,18.5045542 69.2953133,18.7002051 C69.2953133,19.347855 68.7052979,19.520906 67.9103097,19.6067858 L67.9103097,19.932225 C68.9102708,19.8456995 69.8604254,19.824391 70.4759826,19.824391 C71.1439004,19.824391 72.5046394,19.8992937 73.1974604,19.9419107 L73.2600378,19.9419107 C73.9522204,19.8779851 74.7484857,19.824391 75.5434739,19.824391 C76.2880172,19.824391 77.1858111,19.8889623 78.5197312,19.932225 L78.5197312,19.6067858 C76.4163647,19.413072 76.1085861,18.5039084 76.0313222,16.4505419 C75.9802386,15.0867966 75.8525296,10.7405042 75.8008075,8.57801225 C81.5240843,15.1313508 85.2461618,18.7854392 86.3744705,20.0607218 L86.6573458,20.0607218 C86.8105965,20.040059 86.8623187,19.9754878 86.8623187,19.8456995 C86.8361383,18.9597816 86.8105965,17.900167 86.7856933,16.8399067 C86.7333326,13.4008407 86.7077908,9.57370129 86.7077908,8.92411427 C86.7077908,7.54099759 87.2224579,6.9785818 87.7601126,6.71835956 C88.0174462,6.58792559 88.3003215,6.48073728 88.6330033,6.39421177 C88.7102673,6.37161182 88.735809,6.28573203 88.735809,6.22116076 L88.735809,5.98353847 C87.6324037,6.04746403 86.6056237,6.08943536 86.118414,6.08943536 C85.7059141,6.08943536 84.5527022,6.08943536 83.0891576,5.98353847 L83.0891576,6.37161182 C85.0150086,6.5227086 85.5022183,7.32274669 85.6822879,9.01063978 C85.8623575,10.588116 86.0156083,14.8491743 86.0411501,16.9684035 C83.5770058,14.3732841 80.2916929,10.6546244 76.3908229,5.98353847 C75.4930289,6.06941826 74.980916,6.08943536 74.3883464,6.08943536 C73.6712607,6.08943536 73.1061485,6.0255098 72.3628824,5.98353847 L72.3628824,6.32834907 C72.3628824,6.45813733 72.4126889,6.48073728 72.5672167,6.5020458 C73.5160943,6.63183406 74.6450414,7.40927219 75.1858889,8.08081344 C75.1858889,11.5192338 75.1079864,16.4505419 75.0818061,17.0549291 C75.0319996,18.2017149 74.8257496,18.763485 74.64568,18.913936 C74.1578318,19.3246093 73.8915586,19.4376091 73.3373017,19.4828089 C73.3353861,19.4828089 73.2606764,19.4963689 73.1968219,19.4912032 L73.1968219,19.4912032 Z M49.2705491,33.7672661 L49.1511412,33.616815 C49.1275151,33.5761351 49.1275151,33.5761351 49.0802627,33.5761351 C49.0323719,33.5761351 48.4608743,34.0165112 47.2342298,34.0165112 C45.9609715,34.0165112 44.5555345,33.0246965 44.5555345,30.8783473 C44.5555345,28.9618719 45.9130807,28.0785369 47.3415053,28.0785369 C48.3772249,28.0785369 48.8171823,28.5918785 48.9014702,29.332511 C49.0674919,29.332511 49.1632736,29.3028083 49.1632736,29.2330713 L49.1632736,28.089514 C49.1632736,27.9687657 49.0681304,27.9190459 48.8778441,27.8874059 C48.5317528,27.8363946 48.3050694,27.7879662 47.5081655,27.7879662 C45.127032,27.7879662 43.4482978,29.2020771 43.4482978,31.1572952 C43.4482978,32.8723083 44.7573146,34.3787561 46.9475232,34.3787561 C48.0330493,34.3787561 48.6881963,34.1275738 49.2705491,33.7672661 L49.2705491,33.7672661 Z M57.2817319,31.629957 L55.1987988,31.629957 C55.6387562,30.5961709 55.936318,29.7134816 56.2223861,29.0199861 C56.5665617,29.8839497 56.9005206,30.7362905 57.2817319,31.629957 L57.2817319,31.629957 Z M59.9712825,34.2877106 L59.9712825,34.1559852 C59.9712825,34.1262824 59.9597887,34.1172424 59.9118978,34.1075567 C59.8416579,34.0856025 59.6743591,34.0468597 59.544096,33.976477 C59.2931479,33.8370031 59.2094985,33.7156091 58.7944444,32.8025713 C58.4132332,31.9592705 57.4247659,29.7225215 56.6751143,27.9267944 C56.6272235,27.8163775 56.5908264,27.786029 56.4726956,27.786029 C56.3903234,27.786029 56.3660587,27.8163775 56.3181678,27.9371258 C55.5551068,29.8929897 54.567278,32.1807499 53.9012758,33.5955065 C53.8054941,33.8073003 53.6037139,33.9868084 53.3891629,34.0565454 C53.2933812,34.0856025 53.2103704,34.0972253 53.091601,34.1075567 C53.0443487,34.1172424 53.0443487,34.1256367 53.0443487,34.1559852 L53.0443487,34.2780249 C53.0443487,34.3090191 53.0443487,34.3167677 53.0679749,34.3167677 C53.2933812,34.2967506 53.6867248,34.2657563 53.996419,34.2657563 C54.4370149,34.2657563 54.8182261,34.2967506 55.1406912,34.3167677 L55.1406912,34.1669623 C54.6515659,34.1475909 54.4497858,33.9868084 54.4497858,33.6949463 C54.4497858,33.6355407 54.4619181,33.5141467 54.5206642,33.3643414 L55.0800295,31.9405448 L57.3787907,31.9405448 L58.0326605,33.4153527 C58.0926837,33.5457866 58.1271652,33.6549121 58.1271652,33.7453119 C58.1271652,34.0468597 57.853868,34.1256367 57.4847891,34.1669623 L57.4847891,34.3167677 C57.9502882,34.2780249 58.3896071,34.2657563 58.6750366,34.2657563 C58.9853693,34.2657563 59.6162516,34.3090191 59.9380781,34.3277448 C59.9712825,34.3277448 59.9712825,34.3167677 59.9712825,34.2877106 L59.9712825,34.2877106 Z M71.2505374,27.9577886 L71.2505374,27.8480175 C70.7371474,27.8777202 70.2620701,27.8964459 70.0366638,27.8964459 C69.8463774,27.8964459 69.3099998,27.8964459 68.6312267,27.8480175 L68.6312267,28.0275256 C69.525828,28.0979083 69.7512343,28.4679017 69.8348836,29.2524427 C69.9172559,29.9833895 69.9887729,31.9599162 69.9996282,32.9426909 C68.856633,31.7403738 67.3343423,30.013738 65.5240678,27.8480175 C65.1090137,27.8867602 64.8689209,27.8964459 64.5962623,27.8964459 C64.2616648,27.8964459 64.0005,27.8667431 63.6550473,27.8480175 L63.6550473,28.0087999 C63.6550473,28.0682055 63.6780349,28.0785369 63.750829,28.0882226 C64.1901478,28.1482739 64.7137545,28.5079359 64.9647026,28.8198151 C64.9647026,30.4140799 64.9283056,32.7044229 64.9180889,32.9833709 C64.8931856,33.5141467 64.7980424,33.7763061 64.7137545,33.8473345 C64.4883482,34.0352369 64.1550278,34.0972253 64.1186308,34.1062653 C64.0707399,34.1178881 64.0707399,34.1372595 64.0707399,34.1669623 L64.0707399,34.3167677 C64.3925665,34.2877106 64.7610068,34.2657563 65.1307243,34.2657563 C65.4768155,34.2657563 65.8918696,34.2967506 66.5125352,34.3167677 L66.5125352,34.1669623 C65.5362002,34.0778539 65.3944433,33.6549121 65.3561306,32.7037772 C65.3337815,32.0696873 65.2743968,30.0537722 65.2494936,29.0496889 C67.9045628,32.0890587 69.6305493,33.7853461 70.1547946,34.3781104 L70.2844192,34.3781104 C70.3565747,34.3671332 70.381478,34.3367847 70.381478,34.2773792 C70.3687071,33.8647687 70.3565747,33.3733813 70.3450809,32.8826397 C70.3214548,31.2851464 70.3086839,29.5107278 70.3086839,29.2098256 C70.3086839,28.5673414 70.5468611,28.3058278 70.7978092,28.1876624 C70.917217,28.1256739 71.0474802,28.0772455 71.202008,28.0359199 C71.2384051,28.0268799 71.2505374,27.9868457 71.2505374,27.9577886 L71.2505374,27.9577886 Z M81.192041,33.7672661 L81.0713561,33.616815 C81.049007,33.5761351 81.049007,33.5761351 81.0011162,33.5761351 C80.9532253,33.5761351 80.3810892,34.0165112 79.1550832,34.0165112 C77.8818249,34.0165112 76.4763879,33.0246965 76.4763879,30.8783473 C76.4763879,28.9618719 77.8339341,28.0785369 79.2629973,28.0785369 C80.2980784,28.0785369 80.7386743,28.5918785 80.8223236,29.332511 C80.9883453,29.332511 81.084127,29.3028083 81.084127,29.2330713 L81.084127,28.089514 C81.084127,27.9687657 80.9889838,27.9190459 80.7986975,27.8874059 C80.4538833,27.8363946 80.2265613,27.7879662 79.4290189,27.7879662 C77.0478854,27.7879662 75.3697898,29.2020771 75.3697898,31.1572952 C75.3697898,32.8723083 76.678168,34.3787561 78.8690151,34.3787561 C79.9532642,34.3787561 80.6077726,34.1275738 81.192041,33.7672661 L81.192041,33.7672661 Z M90.8098025,32.8632683 C90.8098025,32.794177 90.7855378,32.7838456 90.5837576,32.7838456 C90.297051,33.4153527 90.2025464,33.9874542 89.048696,33.9874542 C88.3686458,33.9874542 87.8922914,33.9364429 87.6905112,33.7156091 C87.5704648,33.5864665 87.5608867,33.4043756 87.5608867,33.0337364 L87.5608867,31.1476095 L88.8098802,31.1476095 C89.2504761,31.1476095 89.3935102,31.4498031 89.5001471,32.1613785 C89.6680844,32.1613785 89.7510952,32.1516928 89.7510952,32.0696873 C89.7510952,31.7907394 89.7159753,31.4885459 89.7159753,30.9261301 C89.7159753,30.616188 89.7510952,29.9543324 89.7510952,29.9039668 C89.7510952,29.8335841 89.7159753,29.822607 89.5001471,29.822607 C89.3935102,30.5367653 89.2511147,30.8376674 88.8098802,30.8376674 L87.5608867,30.8376674 L87.5608867,28.7307068 C87.5608867,28.4485303 87.5960066,28.3878333 87.7147759,28.2683764 C87.7735221,28.2089709 88.1911304,28.177331 88.6189554,28.177331 C89.7747214,28.177331 90.0595124,28.6796955 90.1546555,29.3906252 C90.3225928,29.3906252 90.3813389,29.3822309 90.3813389,29.3015168 C90.3813389,29.2511512 90.3570742,28.7307068 90.3570742,28.4775874 C90.3570742,28.2980792 90.3698451,27.9461658 90.3698451,27.846726 C89.3219932,27.8764288 88.5595707,27.8977373 87.0353643,27.8977373 C86.5596484,27.8977373 86.1663049,27.8673888 85.7391184,27.846726 C85.6669628,27.846726 85.6669628,27.8667431 85.6669628,27.8977373 L85.6669628,28.046897 C85.6669628,28.0772455 85.6669628,28.0882226 85.7142152,28.0979083 C85.8815139,28.1282568 86.3457359,28.1476282 86.4772762,28.2464222 C86.5353837,28.2980792 86.5724193,28.3381134 86.5724193,28.9605805 L86.5724193,33.1428619 C86.5724193,33.7750147 86.5123961,33.8357117 86.4651438,33.9054486 C86.3929883,34.0152198 85.8815139,34.0668768 85.7020828,34.0959339 C85.6669628,34.106911 85.6669628,34.106911 85.6669628,34.1359681 L85.6669628,34.2676935 C85.6669628,34.2973963 85.6669628,34.3083734 85.7493351,34.3161219 C86.1663049,34.3083734 86.6899116,34.2676935 87.1196522,34.2676935 C87.4402017,34.2676935 89.2032238,34.2773792 90.4994697,34.3161219 C90.5831191,34.0965796 90.6425037,33.8763916 90.6789008,33.6852606 C90.7267917,33.4450555 90.8098025,32.9129882 90.8098025,32.8632683 L90.8098025,32.8632683 Z M99.2334852,29.4920021 C99.2334852,30.6562221 98.5304474,31.0585012 97.648617,31.0585012 C97.255912,31.0585012 97.1614074,31.0371927 97.0534933,30.9971585 L97.0534933,28.2787079 C97.2214306,28.1579596 97.5426186,28.1179254 97.7910125,28.1179254 C98.6370844,28.1179254 99.2334852,28.4892102 99.2334852,29.4920021 L99.2334852,29.4920021 Z M101.649739,34.2179736 C101.649739,34.1475909 101.602486,34.1572766 101.567366,34.1475909 C101.44732,34.1172424 101.304286,34.0778539 101.137626,33.9680828 C100.232808,33.3533643 99.3158575,31.7397281 98.8631292,31.0978897 C99.7206948,30.8460617 100.291554,30.2345717 100.291554,29.5003963 C100.291554,28.6189985 99.7328272,27.8473717 97.982576,27.8473717 C97.4589692,27.8473717 96.4238882,27.8958002 96.1863495,27.8958002 L95.2553512,27.8958002 C95.1723404,27.8958002 95.1608466,27.9067773 95.1608466,27.9371258 L95.1608466,28.0572284 C95.1608466,28.0882226 95.1608466,28.0979083 95.2087375,28.1088854 C95.4117947,28.1489196 95.8990044,28.1379425 95.9826537,28.2477136 C96.0305446,28.3090563 96.0663031,28.3394048 96.0663031,28.9605805 L96.0663031,33.1654618 C96.0663031,33.7859918 96.0184122,33.8370031 95.9717985,33.9060944 C95.8887876,34.0158655 95.5184317,34.0675225 95.3038806,34.1075567 C95.2559898,34.1172424 95.2559898,34.1172424 95.2559898,34.1475909 L95.2559898,34.2780249 C95.2559898,34.3090191 95.2687607,34.3167677 95.316013,34.3167677 C95.8038612,34.2967506 96.4941281,34.2657563 96.6959082,34.2657563 C96.9723981,34.2657563 97.7807958,34.3090191 98.12561,34.3167677 C98.1511518,34.3167677 98.16073,34.3090191 98.16073,34.2877106 L98.16073,34.1372595 C98.16073,34.1262824 98.1511518,34.1082024 98.12561,34.1082024 C98.0068407,34.1082024 97.4104398,34.0681682 97.2086597,33.8376488 C97.1020227,33.7065691 97.0656257,33.466364 97.0534933,33.144799 C97.0400839,32.9543138 97.0534933,31.2173465 97.0534933,31.3490719 C97.2310088,31.3490719 97.7578082,31.360049 98.0291897,31.3180777 C98.3044025,31.7190653 98.6594334,32.3718809 98.9569953,32.8645597 C99.3535316,33.5154381 99.601287,33.9977856 99.9454626,34.1385509 C100.172785,34.228305 100.410323,34.3290362 101.018856,34.3290362 C101.184878,34.3290362 101.375803,34.3290362 101.601848,34.3103105 C101.649739,34.3090191 101.649739,34.2786706 101.649739,34.2179736 L101.649739,34.2179736 Z M113.743777,34.2786706 L113.743777,34.1772937 C113.743777,34.1482366 113.743777,34.1372595 113.695886,34.1275738 C113.577117,34.1075567 113.124388,34.0565454 112.909199,33.8466888 C112.780851,33.7156091 112.780851,33.5761351 112.780851,33.2042046 L112.780851,28.9605805 C112.780851,28.58865 112.780851,28.449176 112.909199,28.3180963 C113.125027,28.1082397 113.577755,28.0565827 113.695886,28.037857 C113.743777,28.0268799 113.743777,28.0165485 113.743777,27.9862 L113.743777,27.8854688 C113.743777,27.8551203 113.730367,27.846726 113.708018,27.846726 C113.323614,27.8764288 112.708696,27.8977373 112.337701,27.8977373 C111.95649,27.8977373 111.206838,27.8673888 110.860747,27.846726 C110.839037,27.846726 110.825627,27.8544746 110.825627,27.8854688 L110.825627,28.0075085 C110.825627,28.0372113 110.825627,28.046897 110.873518,28.055937 C110.992287,28.0772455 111.468003,28.0972626 111.658289,28.3174506 C111.777059,28.4569246 111.790468,28.5880043 111.790468,28.9599348 L111.790468,33.2035589 C111.790468,33.5754894 111.777059,33.7052777 111.658289,33.8460431 C111.467365,34.0668768 110.991649,34.0849568 110.873518,34.106911 C110.825627,34.1165967 110.825627,34.1269281 110.825627,34.1566309 L110.825627,34.2780249 C110.825627,34.3090191 110.839037,34.3167677 110.860747,34.3167677 C111.206838,34.298042 111.95649,34.2683392 112.337701,34.2683392 C112.708057,34.2683392 113.323614,34.2870649 113.708018,34.3167677 C113.731006,34.3167677 113.743777,34.3090191 113.743777,34.2786706 L113.743777,34.2786706 Z M125.189053,27.9577886 L125.189053,27.8480175 C124.675663,27.8777202 124.200586,27.8964459 123.974541,27.8964459 C123.784893,27.8964459 123.247239,27.8964459 122.570381,27.8480175 L122.570381,28.0275256 C123.462428,28.0979083 123.689112,28.4679017 123.774677,29.2524427 C123.857049,29.9833895 123.927927,31.9599162 123.938783,32.9426909 C122.797065,31.7403738 121.27222,30.013738 119.463222,27.8480175 C119.046253,27.8867602 118.809352,27.8964459 118.535417,27.8964459 C118.202096,27.8964459 117.939016,27.8667431 117.594202,27.8480175 L117.594202,28.0087999 C117.594202,28.0682055 117.616551,28.0785369 117.689345,28.0882226 C118.129302,28.1482739 118.65227,28.5079359 118.90258,28.8198151 C118.90258,30.4140799 118.86746,32.7044229 118.855328,32.9833709 C118.83234,33.5141467 118.735281,33.7763061 118.65227,33.8473345 C118.426864,34.0352369 118.094821,34.0972253 118.058424,34.1062653 C118.009256,34.1178881 118.009256,34.1372595 118.009256,34.1669623 L118.009256,34.3167677 C118.331721,34.2877106 118.700161,34.2657563 119.06924,34.2657563 C119.41597,34.2657563 119.831024,34.2967506 120.451051,34.3167677 L120.451051,34.1669623 C119.475993,34.0778539 119.331682,33.6549121 119.295285,32.7037772 C119.272936,32.0696873 119.211636,30.0537722 119.189287,29.0496889 C121.84244,32.0890587 123.569704,33.7853461 124.094588,34.3781104 L124.224212,34.3781104 C124.295729,34.3671332 124.319994,34.3367847 124.319994,34.2773792 C124.307223,33.8647687 124.295729,33.3733813 124.283597,32.8826397 C124.260609,31.2851464 124.248477,29.5107278 124.248477,29.2098256 C124.248477,28.5673414 124.486654,28.3058278 124.735686,28.1876624 C124.855733,28.1256739 124.986635,28.0772455 125.141162,28.0359199 C125.178198,28.0268799 125.189053,27.9868457 125.189053,27.9577886 L125.189053,27.9577886 Z M133.983731,32.6534116 C133.983731,32.2317612 133.769179,31.6105856 132.435259,30.737582 C131.376552,30.0447322 130.674791,29.7431843 130.674791,29.042586 C130.674791,28.509873 131.139652,28.0785369 131.924424,28.0785369 C132.842012,28.0785369 133.126803,28.7604096 133.244934,29.3944995 C133.507376,29.3944995 133.591664,29.3538196 133.578255,29.1923914 L133.507376,28.228988 C133.496521,28.0488341 133.42245,28.0087999 133.15043,27.9358344 C132.863723,27.8680345 132.519547,27.7879662 131.995302,27.7879662 C130.721405,27.7879662 129.673553,28.228988 129.673553,29.211117 C129.673553,29.9653095 130.386808,30.4554055 131.458924,31.1295296 C132.174733,31.5686142 132.958866,32.2207841 132.958866,32.8949082 C132.958866,33.6555578 132.41291,34.0888311 131.6275,34.0888311 C130.803778,34.0888311 130.126282,33.7265862 129.769335,32.4325779 C129.494761,32.4325779 129.436653,32.4732578 129.494761,32.7735142 L129.695902,33.8880144 C129.732938,34.0681682 129.744432,34.0972253 130.064981,34.1772937 C130.315929,34.2379907 130.994064,34.3794018 131.552791,34.3794018 C133.114671,34.3787561 133.983731,33.5955065 133.983731,32.6534116 L133.983731,32.6534116 Z M144.22535,29.242757 L144.22535,28.0991997 C144.22535,27.9474572 144.213218,27.8990288 144.177459,27.8480175 C143.130884,27.8680345 142.464244,27.8990288 141.309755,27.8990288 C140.237638,27.8990288 139.60484,27.8880516 138.332859,27.8480175 C138.320727,27.8880516 138.309871,27.9377715 138.309871,28.089514 L138.309871,29.2330713 C138.309871,29.4222651 138.378196,29.4422822 138.546771,29.4422822 C138.642553,28.6803412 138.891586,28.1889538 140.048629,28.1889538 L140.75039,28.1889538 L140.75039,33.2171189 C140.75039,33.5871123 140.738896,33.7065691 140.619488,33.8473345 C140.42984,34.0681682 139.954763,34.0888311 139.834716,34.1082024 C139.786187,34.1178881 139.786187,34.1282195 139.786187,34.1592137 L139.786187,34.2786706 C139.786187,34.3096648 139.797042,34.3174134 139.821945,34.3174134 C140.166121,34.2986877 140.917688,34.2689849 141.297622,34.2689849 C141.666701,34.2689849 142.28609,34.2877106 142.667939,34.3174134 C142.690927,34.3174134 142.703059,34.3096648 142.703059,34.2786706 L142.703059,34.1772937 C142.703059,34.1482366 142.703059,34.1372595 142.655807,34.1275738 C142.536399,34.1075567 142.083671,34.0578368 141.870397,33.8466888 C141.739495,33.7156091 141.739495,33.5864665 141.739495,33.2164731 L141.739495,28.1883081 L142.453388,28.1883081 C143.608516,28.1883081 143.857548,28.6796955 143.954607,29.4416365 C144.167243,29.4526136 144.22535,29.4332422 144.22535,29.242757 L144.22535,29.242757 Z M151.257644,34.2786706 L151.257644,34.1772937 C151.257644,34.1482366 151.257644,34.1372595 151.208476,34.1275738 C151.090984,34.1075567 150.638894,34.0565454 150.423704,33.8466888 C150.291526,33.7156091 150.291526,33.5761351 150.291526,33.2042046 L150.291526,28.9605805 C150.291526,28.58865 150.291526,28.449176 150.423704,28.3180963 C150.638894,28.1082397 151.090984,28.0565827 151.208476,28.037857 C151.257644,28.0268799 151.257644,28.0165485 151.257644,27.9862 L151.257644,27.8854688 C151.257644,27.8551203 151.245511,27.846726 151.221885,27.846726 C150.838758,27.8764288 150.222563,27.8977373 149.851568,27.8977373 C149.472273,27.8977373 148.720705,27.8673888 148.375891,27.846726 C148.352904,27.846726 148.340771,27.8544746 148.340771,27.8854688 L148.340771,28.0075085 C148.340771,28.0372113 148.340771,28.046897 148.384831,28.055937 C148.507431,28.0772455 148.98187,28.0972626 149.171518,28.3174506 C149.290926,28.4569246 149.304335,28.5880043 149.304335,28.9599348 L149.304335,33.2035589 C149.304335,33.5754894 149.290926,33.7052777 149.171518,33.8460431 C148.981232,34.0668768 148.507431,34.0849568 148.384831,34.106911 C148.340771,34.1165967 148.340771,34.1269281 148.340771,34.1566309 L148.340771,34.2780249 C148.340771,34.3090191 148.352904,34.3167677 148.375891,34.3167677 C148.720705,34.298042 149.472273,34.2683392 149.851568,34.2683392 C150.221924,34.2683392 150.838758,34.2870649 151.221885,34.3167677 C151.245511,34.3167677 151.257644,34.3090191 151.257644,34.2786706 L151.257644,34.2786706 Z M161.25087,29.242757 L161.25087,28.0991997 C161.25087,27.9474572 161.23746,27.8990288 161.202979,27.8480175 C160.155127,27.8680345 159.488486,27.8990288 158.335274,27.8990288 C157.263157,27.8990288 156.63036,27.8880516 155.358378,27.8480175 C155.344969,27.8880516 155.335391,27.9377715 155.335391,28.089514 L155.335391,29.2330713 C155.335391,29.4222651 155.404992,29.4422822 155.573568,29.4422822 C155.668073,28.6803412 155.918382,28.1889538 157.074148,28.1889538 L157.775909,28.1889538 L157.775909,33.2171189 C157.775909,33.5871123 157.765054,33.7065691 157.645007,33.8473345 C157.453444,34.0681682 156.977089,34.0888311 156.860236,34.1082024 C156.811706,34.1178881 156.811706,34.1282195 156.811706,34.1592137 L156.811706,34.2786706 C156.811706,34.3096648 156.824477,34.3174134 156.848742,34.3174134 C157.192918,34.2986877 157.943208,34.2689849 158.324419,34.2689849 C158.693498,34.2689849 159.312886,34.2877106 159.694097,34.3174134 C159.715808,34.3174134 159.729217,34.3096648 159.729217,34.2786706 L159.729217,34.1772937 C159.729217,34.1482366 159.729217,34.1372595 159.681965,34.1275738 C159.562557,34.1075567 159.111106,34.0578368 158.897194,33.8466888 C158.76693,33.7156091 158.76693,33.5864665 158.76693,33.2164731 L158.76693,28.1883081 L159.480185,28.1883081 C160.635312,28.1883081 160.882429,28.6796955 160.980127,29.4416365 C161.190846,29.4526136 161.25087,29.4332422 161.25087,29.242757 L161.25087,29.242757 Z M172.175094,28.0087999 L172.175094,27.9067773 C172.175094,27.855766 172.162323,27.8480175 172.116986,27.8480175 C171.901796,27.8680345 171.365419,27.8990288 171.152783,27.8990288 C170.82968,27.8990288 170.259459,27.8777202 169.841212,27.8480175 C169.806731,27.8480175 169.794599,27.855766 169.794599,27.8867602 L169.794599,27.9694114 C169.794599,27.9984685 169.80737,28.0094456 169.85526,28.0094456 C170.557021,28.0488341 170.735814,28.2102623 170.82968,28.9115063 C170.901835,29.4132251 170.949726,30.2048689 170.949726,30.8576845 C170.949726,31.6506198 170.937594,32.261464 170.603635,33.0350279 C170.389084,33.5367467 169.80737,34.0171569 169.056441,34.0171569 C168.068612,34.0171569 167.259576,33.6981749 167.259576,31.4588431 L167.259576,29.1607514 C167.259576,28.7901123 167.248082,28.4498217 167.365574,28.3193878 C167.567355,28.0998454 168.150984,28.0391484 168.270392,28.0178399 C168.317645,28.0094456 168.317645,27.9984685 168.317645,27.9694114 L168.317645,27.8867602 C168.317645,27.8564117 168.306789,27.8480175 168.283163,27.8480175 C167.77105,27.8867602 167.401971,27.8990288 166.817703,27.8990288 C166.511201,27.8990288 165.687479,27.8686803 165.461434,27.8480175 C165.437808,27.8480175 165.425037,27.855766 165.425037,27.8867602 L165.425037,28.0087999 C165.425037,28.0385027 165.425037,28.0481884 165.472928,28.0572284 C165.592336,28.0785369 165.949921,28.098554 166.151701,28.318742 C166.27047,28.449176 166.27047,28.5892957 166.27047,28.9612262 L166.27047,31.971539 C166.27047,33.5554723 167.22254,34.3794018 168.723759,34.3794018 C169.879525,34.3794018 170.616406,33.877683 170.972075,33.1745018 C171.316251,32.5029606 171.378828,31.5608657 171.36478,30.8667245 C171.353925,30.2158461 171.401816,29.2227399 171.424804,28.8908435 C171.472694,28.2787079 171.507814,28.1779767 171.806015,28.1088854 C171.937555,28.0785369 172.045469,28.0682055 172.092083,28.0572284 C172.162323,28.0475427 172.175094,28.0385027 172.175094,28.0087999 L172.175094,28.0087999 Z M182.051466,29.242757 L182.051466,28.0991997 C182.051466,27.9474572 182.038056,27.8990288 182.002936,27.8480175 C180.953807,27.8680345 180.287166,27.8990288 179.133316,27.8990288 C178.063754,27.8990288 177.430317,27.8880516 176.158336,27.8480175 C176.144927,27.8880516 176.134071,27.9377715 176.134071,28.089514 L176.134071,29.2330713 C176.134071,29.4222651 176.205588,29.4422822 176.372248,29.4422822 C176.466115,28.6803412 176.71834,28.1889538 177.87219,28.1889538 L178.573951,28.1889538 L178.573951,33.2171189 C178.573951,33.5871123 178.563096,33.7065691 178.443688,33.8473345 C178.252763,34.0681682 177.777047,34.0888311 177.658916,34.1082024 C177.611025,34.1178881 177.611025,34.1282195 177.611025,34.1592137 L177.611025,34.2786706 C177.611025,34.3096648 177.624435,34.3174134 177.647422,34.3174134 C177.992237,34.2986877 178.741888,34.2689849 179.123099,34.2689849 C179.493455,34.2689849 180.111567,34.2877106 180.492778,34.3174134 C180.515766,34.3174134 180.529175,34.3096648 180.529175,34.2786706 L180.529175,34.1772937 C180.529175,34.1482366 180.529175,34.1372595 180.481284,34.1275738 C180.362515,34.1075567 179.909148,34.0578368 179.695874,33.8466888 C179.564972,33.7156091 179.564972,33.5864665 179.564972,33.2164731 L179.564972,28.1883081 L180.280781,28.1883081 C181.433993,28.1883081 181.684941,28.6796955 181.780723,29.4416365 C181.988888,29.4526136 182.051466,29.4332422 182.051466,29.242757 L182.051466,29.242757 Z M191.307811,32.8632683 C191.307811,32.794177 191.283546,32.7838456 191.081766,32.7838456 C190.795698,33.4153527 190.699278,33.9874542 189.546066,33.9874542 C188.867293,33.9874542 188.392854,33.9364429 188.18852,33.7156091 C188.070389,33.5864665 188.058256,33.4043756 188.058256,33.0337364 L188.058256,31.1476095 L189.307889,31.1476095 C189.748484,31.1476095 189.891518,31.4498031 189.998155,32.1613785 C190.165454,32.1613785 190.249104,32.1516928 190.249104,32.0696873 C190.249104,31.7907394 190.212068,31.4885459 190.212068,30.9261301 C190.212068,30.616188 190.249104,29.9543324 190.249104,29.9039668 C190.249104,29.8335841 190.212068,29.822607 189.998155,29.822607 C189.89088,30.537411 189.747846,30.8383131 189.30725,30.8383131 L188.057618,30.8383131 L188.057618,28.7313525 C188.057618,28.449176 188.092738,28.388479 188.215338,28.2690222 C188.272807,28.2096166 188.689139,28.1779767 189.116964,28.1779767 C190.274007,28.1779767 190.558159,28.6803412 190.654579,29.3912709 C190.82124,29.3912709 190.879986,29.3828766 190.879986,29.3021625 C190.879986,29.2517969 190.855721,28.7313525 190.855721,28.4782331 C190.855721,28.2987249 190.866576,27.9468115 190.866576,27.8473717 C189.820001,27.8770745 189.060133,27.898383 187.535288,27.898383 C187.057657,27.898383 186.664313,27.8680345 186.237127,27.8473717 C186.166248,27.8473717 186.166248,27.8673888 186.166248,27.898383 L186.166248,28.0475427 C186.166248,28.0778912 186.166248,28.0888683 186.213501,28.098554 C186.378884,28.1289025 186.841829,28.1482739 186.975284,28.2470679 C187.032753,28.2987249 187.070428,28.3387591 187.070428,28.9612262 L187.070428,33.1435076 C187.070428,33.7756604 187.009766,33.8363574 186.961236,33.9060944 C186.890358,34.0158655 186.378245,34.0675225 186.201368,34.0965796 C186.16561,34.1075567 186.16561,34.1075567 186.16561,34.1366138 L186.16561,34.2683392 C186.16561,34.298042 186.16561,34.3090191 186.247982,34.3167677 C186.663675,34.3090191 187.18792,34.2683392 187.618299,34.2683392 C187.938849,34.2683392 189.701232,34.2780249 190.999394,34.3167677 C191.081127,34.0972253 191.139235,33.8770373 191.178186,33.6859063 C191.2248,33.4450555 191.307811,32.9129882 191.307811,32.8632683 L191.307811,32.8632683 Z M135.812523,19.9419107 C136.864845,19.8992937 138.353292,19.824391 138.789418,19.824391 C139.380072,19.824391 141.123938,19.9102708 141.868481,19.932225 C141.920842,19.932225 141.946384,19.9102708 141.946384,19.8676537 L141.946384,19.5428602 C141.946384,19.520906 141.920842,19.478289 141.868481,19.478289 C141.612425,19.478289 140.329588,19.3911177 139.891547,18.8945646 C139.661032,18.6123882 139.585045,18.0925894 139.557588,17.4016768 C139.533962,16.9910035 139.557588,13.2490982 139.557588,13.5299832 C139.945823,13.5299832 141.074132,13.5519375 141.662231,13.465412 C142.253524,14.3300213 143.024886,15.7357379 143.665985,16.7953525 C144.512695,18.2017149 145.05035,19.2387295 145.796809,19.5422145 C146.284019,19.7372198 146.796131,19.9528878 148.105787,19.9528878 C148.465288,19.9528878 148.875233,19.9528878 149.361804,19.9102708 C149.465249,19.9102708 149.465249,19.8456995 149.465249,19.7146198 C149.465249,19.5641688 149.361804,19.5854773 149.286456,19.5641688 C149.031038,19.5002432 148.720705,19.413072 148.362482,19.1754497 C146.413005,17.8562586 144.43607,14.3739298 143.460374,12.9901674 C145.307684,12.4490601 146.540075,11.1311604 146.540075,9.55174705 C146.540075,7.6481859 145.334502,5.98482989 141.560064,5.98482989 C140.431756,5.98482989 138.198126,6.09072678 137.686652,6.09072678 L135.682898,6.09072678 C135.504744,6.09072678 135.478564,6.11332673 135.478564,6.17725229 L135.478564,6.43747452 C135.478564,6.50333722 135.478564,6.52400003 135.580731,6.54659998 C136.018773,6.63312548 137.069817,6.61052554 137.249248,6.84879354 C137.351416,6.9785818 137.429318,7.04379878 137.429318,8.38365271 L137.429318,17.4455853 C137.429318,18.7867306 137.327151,18.8952104 137.223068,19.0463071 C137.083227,19.2051525 136.59474,19.3362322 136.133072,19.422112 C136.133072,19.422112 135.937678,19.4640833 135.703332,19.4731233 C135.541141,19.4815175 135.318289,19.4589176 135.307434,19.4576262 C135.151629,19.4137177 134.907705,19.3485007 134.626745,19.1967582 C134.084621,18.8952104 133.905828,18.6356338 133.008034,16.6675014 C132.186865,14.8498201 130.05668,10.0269916 128.439246,6.15529806 C128.337718,5.91703006 128.261092,5.85245878 128.001843,5.85245878 C127.82305,5.85245878 127.771967,5.91767577 127.670438,6.17660658 C126.028101,10.3950479 123.896639,15.3257103 122.459913,18.3754116 C122.253663,18.8287019 121.817537,19.2200039 121.355869,19.3711006 C121.152173,19.4356719 120.970826,19.4576262 120.71477,19.4789347 C120.611326,19.5008889 120.611326,19.5215517 120.611326,19.5867687 L120.611326,19.8469909 C120.611326,19.9115622 120.611326,19.9335164 120.663686,19.9335164 C121.152173,19.8908994 121.998884,19.8256824 122.664247,19.8256824 C123.613763,19.8256824 124.43557,19.8902537 125.127753,19.9335164 L125.127753,19.6080772 C124.07607,19.5654602 123.641221,19.2206496 123.641221,18.5923711 C123.641221,18.4625828 123.666124,18.2030063 123.793194,17.8795042 L125.000683,14.8084944 L129.954513,14.8084944 L131.365697,17.9866925 C131.493406,18.2675776 131.570031,18.5051999 131.570031,18.7008508 C131.570031,19.3485007 130.980016,19.5215517 130.185028,19.6074315 L130.185028,19.9328707 C131.18435,19.8463452 132.135782,19.8250367 132.751339,19.8250367 C133.419257,19.8250367 134.788935,19.8999394 135.483034,19.9425564 L135.812523,19.9419107 Z M129.730384,14.1356618 L125.23886,14.1356618 C126.189014,11.9073071 126.828836,10.0050374 127.443755,8.51279526 C128.189575,10.3730937 128.907938,12.2101464 129.730384,14.1356618 L129.730384,14.1356618 Z M144.156387,9.58209555 C144.156387,12.0906895 142.641121,12.9565903 140.74145,12.9565903 C139.894101,12.9565903 139.68849,12.9133276 139.459252,12.8255106 L139.459252,6.96566754 C139.818114,6.70544531 140.510935,6.6189198 141.049228,6.6189198 C142.870997,6.6189198 144.156387,7.42024931 144.156387,9.58209555 L144.156387,9.58209555 Z" id="Shape" fill="#000000"></path>
                    </g>
                </g>
            </g>
        </g>
    </g>
</svg>