<?xml version="1.0" encoding="UTF-8" standalone="no"?>
<svg xmlns="http://www.w3.org/2000/svg" height="30px" width="116px" version="1.1" xmlns:xlink="http://www.w3.org/1999/xlink" viewBox="0 0 116 30">
 <title>6F6EBF68-AF42-4439-B041-F59D08E29487@3x</title>
 <desc>Created with sketchtool.</desc>
 <defs>
  <polygon id="path-1" points="0 0 0 29.259 115.57 29.259 115.57 0"/>
 </defs>
 <g id="Landing-Page" fill-rule="evenodd" fill="none">
  <g id="0---Landing-Page" transform="translate(-543 -778)">
   <g id="Group-11" transform="translate(543 775)">
    <g id="Group-9" transform="translate(0)">
     <g id="logo-broad-institute-457ce76e7f8723df731d313bc7aa45a7" transform="translate(0 2.9259)">
      <mask id="mask-2" fill="white">
       <use xlink:href="#path-1"/>
      </mask>
      <g id="Group1" mask="url(#mask-2)" fill-rule="nonzero">
       <path id="Path" fill="#005C9C" d="m13.678 18.087c3.985 2.027 8.236 3.649 12.687 4.819v-4.631c-2.477-0.724-4.891-1.604-7.231-2.63-1.866 0.732-3.687 1.547-5.456 2.442z"/>
       <path id="Path" fill="#005C9C" d="m8.1926 21.226c5.4864 3.53 11.609 6.245 18.172 7.971v-4.641c-4.826-1.41-9.416-3.411-13.689-5.935-1.534 0.812-3.0322 1.677-4.4834 2.605z"/>
       <path id="Path" fill="#005C9C" d="m19.128 14.253c2.343-1.025 4.759-1.902 7.237-2.625v-4.6633c-4.464 1.167-8.727 2.7872-12.725 4.8133 1.779 0.906 3.61 1.731 5.488 2.475z"/>
       <path id="Path" fill="#005C9C" d="m7.0873 8.6051c-2.5104-1.8813-4.8761-3.9619-7.0873-6.2056v6.2225c1.1079 1.0117 2.2476 1.992 3.4333 2.924 1.1825-1.026 2.4001-2.0077 3.654-2.9409z"/>
       <path id="Path" fill="#005C9C" d="m26.365 16.618v-3.318c-1.823 0.478-3.612 1.029-5.362 1.656 1.75 0.628 3.539 1.182 5.362 1.662z"/>
       <path id="Path" fill="#005C9C" d="m11.756 11.777c-1.427-0.878-2.8177-1.8127-4.1689-2.8037-1.339 0.8786-2.6474 1.7947-3.9078 2.7677 1.2669 0.986 2.5766 1.923 3.9253 2.811 1.3461-0.982 2.7314-1.907 4.1514-2.775z"/>
       <path id="Path" fill="#005C9C" d="m0 27.489v1.727h21.553c-4.969-1.929-9.64-4.497-13.912-7.624-2.7123 1.775-5.2662 3.749-7.641 5.897z"/>
       <path id="Path" fill="#005C9C" d="m3.4586 18.247c-1.1929 0.931-2.3416 1.908-3.4586 2.918v6.259c2.2287-2.245 4.6094-4.323 7.1367-6.202-1.2624-0.943-2.4891-1.938-3.6781-2.975z"/>
       <path id="Path" fill="#005C9C" d="m7.6137 15.282c-1.3403 0.879-2.65 1.794-3.911 2.767 1.2682 0.986 2.5792 1.922 3.9278 2.81 1.3481-0.98 2.7345-1.906 4.1555-2.775-1.428-0.877-2.8191-1.811-4.1723-2.802z"/>
       <path id="Path" fill="#005C9C" d="m12.665 17.557c1.601-0.944 3.247-1.817 4.933-2.611-1.694-0.801-3.346-1.683-4.955-2.634-1.532 0.812-3.0297 1.678-4.4777 2.605 1.4558 0.939 2.9567 1.819 4.4997 2.64z"/>
       <path id="Path" fill="#005C9C" d="m3.456 17.854c1.1826-1.026 2.4021-2.008 3.656-2.941-1.2617-0.943-2.4871-1.937-3.6754-2.975-1.1845 0.925-2.3287 1.895-3.4366 2.9v0.086c1.1131 1.015 2.2644 1.994 3.456 2.93z"/>
       <path id="Path" fill="#005C9C" d="m0 8.6876v6.0734c1.0378-1.044 2.108-2.053 3.2127-3.021-1.106-0.976-2.1743-1.9991-3.2127-3.0524z"/>
       <path id="Path" fill="#005C9C" d="m0 14.987v6.111c1.0469-1.052 2.121-2.074 3.2341-3.049-1.1131-0.982-2.1905-2.002-3.2341-3.062z"/>
       <path id="Path" fill="#005C9C" d="m3.7027 18.049c1.2682 0.986 2.5792 1.922 3.9278 2.81 1.3481-0.98 2.7345-1.906 4.1555-2.775-1.428-0.877-2.8191-1.811-4.1723-2.802-1.3403 0.879-2.65 1.794-3.911 2.767z"/>
       <path id="Path" fill="#005C9C" d="m11.756 11.777c-1.427-0.878-2.8177-1.8127-4.1689-2.8037-1.339 0.8786-2.6474 1.7947-3.9078 2.7677 1.2669 0.986 2.5766 1.923 3.9253 2.811 1.3461-0.982 2.7314-1.907 4.1514-2.775z"/>
       <path id="Path" fill="#005C9C" d="m12.665 17.557c1.601-0.944 3.247-1.817 4.933-2.611-1.694-0.801-3.346-1.683-4.955-2.634-1.532 0.812-3.0297 1.678-4.4777 2.605 1.4558 0.939 2.9567 1.819 4.4997 2.64z"/>
       <path id="Path" fill="#005C9C" d="m26.343 0.64615c-6.572 1.7242-12.706 4.436-18.207 7.9622 1.4552 0.9383 2.954 1.8196 4.495 2.6406 4.287-2.5257 8.892-4.5291 13.734-5.9402v-4.6626l-0.022-0.00005z"/>
       <path id="Path" fill="#005C9C" d="m21.457 0.64615h-21.457v1.6864c2.3553 2.1508 4.8839 4.1334 7.5774 5.9115 4.2656-3.1132 8.9256-5.6732 13.88-7.598z"/>
       <polyline id="Path" points="35.415 29.135 32.75 29.135 32.75 28.736 33.473 28.736 33.473 23.252 32.75 23.252 32.75 22.853 35.415 22.853 35.415 23.252 34.701 23.252 34.701 28.736 35.415 28.736 35.415 29.135" fill="#161413"/>
       <polyline id="Path" points="45.795 29.24 45.129 29.24 41.818 24.576 41.818 28.736 42.569 28.736 42.569 29.135 40.42 29.135 40.42 28.736 41.209 28.736 41.209 23.739 40.905 23.252 40.22 23.252 40.22 22.853 42.113 22.853 45.196 27.241 45.196 23.252 44.444 23.252 44.444 22.853 46.595 22.853 46.595 23.252 45.795 23.252 45.795 29.24" fill="#161413"/>
       <path id="Path" fill="#161413" d="m52.322 29.221h-0.523v-1.713h0.523v0.705c0.429 0.342 0.751 0.466 1.218 0.466 0.59 0 1.019-0.352 1.019-0.847 0-0.429-0.277-0.733-1.162-1.305-0.933-0.59-1.047-0.686-1.293-0.971-0.239-0.277-0.362-0.657-0.362-1.076 0-1.046 0.771-1.742 1.931-1.742 0.371 0 0.666 0.057 1.028 0.21v-0.286h0.515v1.628h-0.515v-0.657c-0.4-0.257-0.657-0.353-1.009-0.353-0.494 0-0.875 0.353-0.875 0.801 0 0.38 0.219 0.619 1.133 1.198 0.437 0.286 0.713 0.458 0.818 0.535 0.218 0.151 0.418 0.361 0.58 0.619 0.18 0.293 0.266 0.609 0.266 0.98 0 1.086-0.79 1.846-1.903 1.846-0.552 0-0.951-0.115-1.389-0.371v0.333"/>
       <polyline id="Path" points="64.758 29.135 61.695 29.135 61.695 28.736 62.618 28.736 62.618 23.415 60.972 23.415 60.972 24.205 60.449 24.205 60.449 22.587 60.972 22.587 60.972 22.853 65.481 22.853 65.481 22.587 66.004 22.587 66.004 24.205 65.481 24.205 65.481 23.415 63.844 23.415 63.844 28.736 64.758 28.736 64.758 29.135" fill="#161413"/>
       <polyline id="Path" points="72.774 29.135 70.111 29.135 70.111 28.736 70.834 28.736 70.834 23.252 70.111 23.252 70.111 22.853 72.774 22.853 72.774 23.252 72.06 23.252 72.06 28.736 72.774 28.736 72.774 29.135" fill="#161413"/>
       <polyline id="Path" points="81.011 29.135 77.947 29.135 77.947 28.736 78.87 28.736 78.87 23.415 77.224 23.415 77.224 24.205 76.7 24.205 76.7 22.587 77.224 22.587 77.224 22.853 81.734 22.853 81.734 22.587 82.258 22.587 82.258 24.205 81.734 24.205 81.734 23.415 80.097 23.415 80.097 28.736 81.011 28.736 81.011 29.135" fill="#161413"/>
       <path id="Path" fill="#161413" d="m93.485 23.252h-0.8v3.58c0 1.076-0.371 1.752-1.18 2.132-0.418 0.19-0.884 0.295-1.379 0.295-1.541 0-2.541-0.848-2.541-2.16v-3.847h-0.723v-0.399h2.664v0.399h-0.714v3.551c0 0.962 0.172 1.399 0.658 1.657 0.227 0.113 0.503 0.18 0.789 0.18 1.141 0 1.807-0.675 1.807-1.837v-3.542h-0.789v-0.408h2.208v0.399"/>
       <polyline id="Path" points="102.25 29.135 99.183 29.135 99.183 28.736 100.11 28.736 100.11 23.415 98.46 23.415 98.46 24.205 97.937 24.205 97.937 22.587 98.46 22.587 98.46 22.853 102.97 22.853 102.97 22.587 103.49 22.587 103.49 24.205 102.97 24.205 102.97 23.415 101.33 23.415 101.33 28.736 102.25 28.736 102.25 29.135" fill="#161413"/>
       <polyline id="Path" points="112.63 29.135 108.1 29.135 108.1 28.736 108.82 28.736 108.82 23.252 108.1 23.252 108.1 22.853 112.02 22.853 112.02 22.587 112.53 22.587 112.53 24.1 112.03 24.1 112.03 23.415 110.05 23.415 110.05 25.661 111.57 25.661 111.57 25.013 112.09 25.004 112.09 26.879 111.57 26.889 111.57 26.223 110.05 26.223 110.05 28.573 112.11 28.573 112.11 27.869 112.63 27.869 112.63 29.135" fill="#161413"/>
       <path id="Shape" fill="#161413" d="m35.973 16.935h2.958c2.219 0 3.566-1.322 3.566-3.489 0-2.193-1.505-3.7798-3.566-3.7798h-2.958v7.2688zm0-8.4579h2.694c1.716 0 2.933-1.4007 2.933-3.3566 0-1.8502-1.137-3.2243-2.695-3.2243h-2.932v6.5809zm-4.306 9.6469v-0.978h1.982v-15.488l-1.982-0.0001v-0.97799h8.03c2.404 0 4.359 1.93 4.359 4.3354 0 1.9819-1.744 3.7262-3.883 3.9112 1.083 0.1325 1.479 0.2383 2.139 0.5553 1.639 0.7662 2.589 2.2992 2.589 4.0962 0 2.591-2.007 4.546-4.701 4.546h-8.533z"/>
       <path id="Shape" fill="#161413" d="m51.902 9.0856h2.535c2.007 0 3.408-1.4806 3.408-3.6482 0-2.2729-1.242-3.5412-3.46-3.5412h-2.483v7.1894zm10.962 9.0384h-2.246c-1.558 0-1.848-0.158-2.721-1.559l-3.935-6.264h-2.06v6.845h1.98v0.978h-6.287v-0.978h1.982v-15.488l-1.982-0.0001v-0.97799h7.344c2.562 0 4.015 0.71369 4.809 2.3528 0.342 0.7137 0.527 1.5066 0.527 2.3521 0 2.5637-1.427 4.2028-3.963 4.5723l3.805 5.8679c0.634 0.978 1.055 1.295 1.717 1.295h1.03v1.004z"/>
       <path id="Shape" fill="#161413" d="m66.193 9.4025c0 4.4665 2.482 7.6925 5.916 7.6925 3.381 0 5.838-3.252 5.838-7.6925s-2.457-7.6647-5.811-7.6647c-3.461 0-5.943 3.171-5.943 7.6647zm-2.617 0.026c0-4.9691 3.857-9.0655 8.533-9.0655 4.596 0.00001 8.454 4.123 8.454 9.0395 0 4.9155-3.858 9.0645-8.454 9.0645-4.65 0-8.533-4.122-8.533-9.0385z"/>
       <path id="Shape" fill="#161413" d="m91.485 11.12l-2.826-7.4263-2.986 7.4263h5.812zm6.207 7.004h-6.022v-0.978h2.112l-1.848-4.757-6.762-0.027-1.93 4.758h2.192v1.004h-5.044v-1.004h1.374l6.868-16.995 0.95 0.00033 6.604 16.995h1.506v1.004z"/>
       <path id="Shape" fill="#161413" d="m103.66 16.803h3.17c3.62 0 6.37-3.198 6.34-7.4005 0-4.0703-2.8-7.3744-6.29-7.3744h-3.22v14.775zm-4.304 1.321v-0.978h1.984v-15.488l-1.984-0.0001v-0.97799h7.794c4.75 0 8.64 3.912 8.64 8.6953 0 4.8898-3.81 8.7488-8.67 8.7488h-7.764z"/>
      </g>
     </g>
    </g>
   </g>
  </g>
 </g>
</svg>
