<?xml version="1.0" encoding="UTF-8" standalone="no"?>
<svg xmlns="http://www.w3.org/2000/svg" height="35px" width="192px" version="1.1" xmlns:xlink="http://www.w3.org/1999/xlink" viewBox="0 0 192 35">
 <title>35B269EB-28D1-40EF-997B-CD7A723D35EC@2x</title>
 <desc>Created with sketchtool.</desc>
 <g id="Landing-Page" fill-rule="evenodd" fill="none">
  <g id="0---Landing-Page" fill-rule="nonzero" transform="translate(-704 -775)">
   <g id="Group-11" transform="translate(543 775)">
    <g id="Group-9" transform="translate(0)">
     <g id="logo-dana-farber-cancer-institute-a4de62fc80d93416e494c2c80341b50f" transform="translate(161.35)">
      <path id="Path" fill="#A90633" d="m27.174 13.549c0.164 0.114 0.239 0.213 0.04 0.656-0.746 1.816-1.501 3.537-2.668 4.73-0.544 0.555-1.457 1.087-3.027 1.103-3.602 0.036-2.751 0-11.014 0-1.7808 0-2.42 0.095-2.9088 0.691l-0.5327 0.651h6.9435c-0.088 0.354-0.136 0.601-0.358 0.91-0.224 0.31-0.331 0.576-0.744 0.632-0.517 0.15-0.648 0.155-0.994 0.385-0.444 0.296-0.41 0.466-0.881 1.044l-6.6526 10.01 13.427 0.018c9.512 0 17.307-7.714 17.307-17.199 0-4.122-1.732-8.036-4.171-10.997-0.868 2.0708-1.465 3.1421-1.952 4.161-0.587 1.231-1.527 2.156-3.33 2.179-4.67 0.056-4.169-0.069-12.435 0.001-2.205 0-3.4703 0.05-4.6269 1.15l1.7489-4.319c0.691-1.6992 2.474-2.9364 5.073-2.9351 8.263 0.0025 8.606 0 12.208 0 0.663 0 1.568-0.0877 2.141-0.7702 0.123-0.1468 0.384-0.4562 0.069-0.8025-2.752-2.7197-7.506-4.8472-12.892-4.8472h-16.944l0.018481 34.327h0.56526l3.6509-9.179c0.5245-1.512 0.4366-1.4 0.2702-1.895l-0.6066-0.88 0.3587-0.962 0.0447-0.005h1.3121l2.1807-5.243c0.5022-1.208 2.2496-2.205 4.2986-2.205 7.24 0 4.078 0.026 13.021 0 1.396-0.003 1.632-0.542 2.06-0.409"/>
      <path id="Shape" fill="#000" d="m56.118 13.205c0 4.281-2.721 6.055-6.03 6.055-0.591 0-1.718-0.065-2.182-0.347-0.385-0.236-0.64-0.648-0.64-1.514v-10.552c0.896-0.2597 2.308-0.2597 2.925-0.2597 3.387 0 5.927 1.9042 5.927 6.6177zm2.387-0.584c0-3.7853-2.464-6.64-7.417-6.64-1.18 0-4.234 0.1078-5.132 0.1078h-2.567c-0.18 0-0.206 0-0.206 0.0652v0.2589c0 0.0653 0 0.0879 0.104 0.1092 0.436 0.0846 1.488 0.0846 1.641 0.3241 0.078 0.1298 0.206 0.1937 0.206 1.5349v9.0169c0 1.364-0.128 1.493-0.231 1.644-0.154 0.238-1.257 0.347-1.642 0.412-0.104 0.022-0.104 0.022-0.104 0.087v0.282c0 0.065 0 0.108 0.077 0.108 1.002-0.043 2.31-0.108 3.081-0.108 0.693 0 2.797 0.065 3.233 0.065 5.056 0 8.957-2.703 8.957-7.267zm38.771 1.515h-4.492c0.95-2.229 1.591-4.13 2.208-5.6232 0.744 1.8602 1.463 3.6982 2.284 5.6232zm5.794 5.731v-0.282c0-0.065-0.02-0.086-0.12-0.108-0.16-0.043-0.52-0.13-0.8-0.282-0.54-0.302-0.72-0.561-1.62-2.529-0.817-1.818-2.947-6.641-4.563-10.511-0.103-0.238-0.18-0.3025-0.436-0.3025-0.181 0-0.232 0.0645-0.335 0.3241-1.642 4.2174-3.773 9.1484-5.209 12.197-0.206 0.455-0.642 0.845-1.104 0.996-0.205 0.064-0.384 0.086-0.641 0.108-0.102 0.022-0.102 0.042-0.102 0.107v0.261c0 0.066 0 0.086 0.05 0.086 0.488-0.042 1.335-0.108 2.002-0.108 0.95 0 1.771 0.065 2.465 0.108v-0.325c-1.053-0.042-1.489-0.388-1.489-1.015 0-0.131 0.025-0.39 0.153-0.714l1.206-3.071h4.956l1.41 3.178c0.128 0.283 0.204 0.521 0.204 0.715 0 0.647-0.59 0.82-1.385 0.906v0.326c1-0.087 1.951-0.108 2.568-0.108 0.67 0 2.03 0.087 2.72 0.13 0.07 0 0.07-0.022 0.07-0.087zm0.61-4.413h5.13v-1.362h-5.13v1.362zm17.32-6.3794c0-0.0866-0.05-1.1888-0.05-1.7299 0-0.3894 0.02-1.1461 0.05-1.3625-2.36 0.0653-4.68 0.1079-7.06 0.1079-1.03 0-2.03-0.0652-2.95-0.1079-0.11 0-0.11 0.0433-0.11 0.1511v0.2603c0 0.0639 0 0.0865 0.08 0.1091 0.44 0.0839 1.49 0.1285 1.64 0.3241 0.11 0.1285 0.21 0.1938 0.21 1.5569v9.0173c0 0.865-0.08 1.255-0.34 1.516-0.46 0.475-1.12 0.603-1.38 0.647-0.1 0.021-0.1 0.041-0.1 0.108v0.173c0 0.065 0.02 0.087 0.08 0.087 1.05-0.065 1.77-0.108 2.79-0.108 1.39 0 2.59 0.042 3.59 0.108 0.06 0 0.08-0.022 0.08-0.087v-0.173c0-0.067 0-0.087-0.1-0.108-0.26-0.044-1.72-0.152-2.16-0.647-0.23-0.283-0.33-0.65-0.33-1.516v-4.109h2.69c0.95 0 1.26 0.692 1.49 2.227 0.36 0 0.54-0.022 0.54-0.193 0-0.087-0.1-1.818-0.1-2.359 0-0.518 0.1-2.184 0.1-2.293 0-0.172-0.18-0.194-0.54-0.194-0.23 1.536-0.54 2.142-1.49 2.142h-2.69v-4.7362c0-0.6922 0-0.7568 0.26-1.017 0.12-0.1285 1.69-0.1943 2.02-0.1943 2.47 0 3.08 1.1035 3.29 2.6383 0.36-0.0426 0.49-0.0645 0.49-0.2382zm38.6 7.2654c0 1.84-1.64 2.963-3.05 2.963-0.93 0-1.28-0.172-1.65-0.39-0.41-0.258-0.43-0.692-0.43-1.578v-4.52h1.82c1.08 0.001 3.31 0.628 3.31 3.525zm-1.05-6.7463c0 1.5143-1.41 2.5743-2.82 2.5743-0.85 0-1.08-0.044-1.26-0.086v-5.2345c0.28-0.173 0.87-0.2383 1.41-0.2383 1.87-0.0006 2.67 1.4271 2.67 2.9845zm3.54 6.3793c0-1.968-2.16-3.525-4.64-3.612 1.9-0.54 3.41-1.6 3.41-3.3517 0-1.1674-1.18-3.0271-4.77-3.0271-0.72 0-2.98 0.1079-3.49 0.1079h-2.01c-0.13 0-0.15 0.0226-0.15 0.0865v0.2602c0 0.0659 0 0.0866 0.1 0.1079 0.39 0.0858 1.44 0.0652 1.59 0.3034 0.08 0.1298 0.21 0.1938 0.21 1.5349v9.062c0 1.341-0.13 1.448-0.23 1.599-0.16 0.239-1.19 0.347-1.59 0.434-0.11 0.022-0.11 0.022-0.11 0.086v0.282c0 0.065 0 0.087 0.08 0.087 0.95-0.043 1.75-0.108 2.85-0.108 1.36 0 2.72 0.108 3.62 0.108 2.72-0.001 5.13-1.58 5.13-3.96zm13.34 0.822c0-0.151-0.05-0.173-0.49-0.173-0.61 1.362-0.82 2.595-3.31 2.595-1.46 0-2.48-0.108-2.92-0.586-0.26-0.279-0.29-0.668-0.29-1.468v-4.067h2.7c0.95 0 1.26 0.648 1.49 2.185 0.36 0 0.54-0.022 0.54-0.195 0-0.606-0.08-1.254-0.08-2.466 0-0.671 0.08-2.097 0.08-2.206 0-0.151-0.08-0.174-0.54-0.174-0.23 1.536-0.54 2.184-1.49 2.184h-2.7v-4.5408c0-0.6057 0.08-0.7354 0.34-0.9957 0.13-0.1285 1.03-0.1937 1.95-0.1937 2.49 0 3.11 1.0809 3.31 2.6177 0.36 0 0.49-0.0219 0.49-0.1956 0-0.1078-0.05-1.2327-0.05-1.7725 0-0.3906 0.02-1.1461 0.02-1.3637-2.25 0.0665-3.9 0.1078-7.18 0.1078-1.03 0-1.88-0.0639-2.8-0.1078-0.15 0-0.15 0.0445-0.15 0.1078v0.3241c0 0.0653 0 0.0879 0.1 0.1092 0.36 0.0652 1.36 0.1072 1.64 0.3241 0.13 0.1072 0.2 0.1937 0.2 1.5349v9.0212c0 1.362-0.12 1.492-0.23 1.642-0.15 0.239-1.25 0.347-1.64 0.411-0.07 0.023-0.07 0.023-0.07 0.088v0.282c0 0.064 0 0.086 0.17 0.108 0.9-0.022 2.03-0.108 2.96-0.108 0.69 0 4.49 0.021 7.28 0.108 0.18-0.477 0.31-0.953 0.39-1.365 0.1-0.518 0.28-1.663 0.28-1.772zm11.01-7.2652c0 2.5082-1.52 3.3722-3.42 3.3722-0.84 0-1.05-0.042-1.28-0.129v-5.8603c0.36-0.2602 1.05-0.3467 1.59-0.3467 1.82 0.0006 3.11 0.8 3.11 2.9638zm5.21 10.187c0-0.152-0.1-0.131-0.18-0.152-0.26-0.064-0.57-0.151-0.93-0.389-1.94-1.32-3.92-4.803-4.9-6.186 1.85-0.54 3.08-1.859 3.08-3.4389 0-1.9023-1.2-3.5669-4.98-3.5669-1.13 0-3.36 0.1072-3.87 0.1072h-2c-0.18 0-0.21 0.0213-0.21 0.0865v0.2596c0 0.0658 0 0.0852 0.1 0.1078 0.44 0.0865 1.49 0.0639 1.67 0.3022 0.1 0.1311 0.18 0.195 0.18 1.5362v9.0623c0 1.339-0.1 1.448-0.2 1.6-0.18 0.237-0.98 0.346-1.44 0.432-0.1 0.023-0.1 0.023-0.1 0.087v0.281c0 0.066 0.02 0.086 0.12 0.086 1.06-0.042 2.54-0.108 2.98-0.108 0.59 0 2.34 0.088 3.08 0.108 0.05 0 0.08-0.02 0.08-0.064v-0.325c0-0.022-0.03-0.065-0.08-0.065-0.26 0-1.54-0.086-1.98-0.583-0.23-0.283-0.3-0.801-0.33-1.493-0.02-0.411 0-4.153 0-3.871 0.39 0 1.51 0.021 2.1-0.066 0.6 0.866 1.37 2.272 2.01 3.332 0.84 1.405 1.38 2.444 2.13 2.746 0.49 0.196 1 0.411 2.31 0.411 0.36 0 0.77 0 1.26-0.042 0.1-0.001 0.1-0.067 0.1-0.195zm-124.18-5.594h-4.492c0.95-2.227 1.592-4.1289 2.207-5.6225 0.745 1.8595 1.464 3.6985 2.285 5.6225zm5.724 5.368c-0.359-0.03-0.566-0.144-0.849-0.296-0.538-0.301-0.718-0.561-1.616-2.529-0.82-1.817-2.951-6.64-4.567-10.509-0.105-0.2387-0.179-0.3052-0.437-0.3052-0.179 0-0.231 0.0665-0.334 0.3242-1.641 4.218-3.771 9.149-5.209 12.199-0.206 0.453-0.642 0.844-1.104 0.995-0.205 0.065-0.385 0.087-0.642 0.108-0.102 0.022-0.102 0.043-0.102 0.108v0.26c0 0.065 0 0.087 0.051 0.087 0.488-0.043 1.334-0.108 2.002-0.108 0.95 0 1.771 0.065 2.464 0.108v-0.326c-1.053-0.042-1.489-0.387-1.489-1.015 0-0.13 0.026-0.39 0.153-0.713l1.209-3.071h4.952l1.411 3.178c0.129 0.281 0.205 0.519 0.205 0.714 0 0.648-0.59 0.821-1.385 0.907v0.325c1-0.086 1.95-0.108 2.566-0.108 0.668 0 2.029 0.075 2.721 0.118h0.063c0.692-0.064 1.488-0.118 2.283-0.118 0.745 0 1.643 0.065 2.977 0.108v-0.325c-2.104-0.194-2.411-1.103-2.489-3.156-0.051-1.364-0.178-5.71-0.23-7.873 5.723 6.553 9.445 10.207 10.573 11.483h0.283c0.154-0.021 0.205-0.086 0.205-0.215-0.026-0.886-0.051-1.946-0.076-3.006-0.053-3.439-0.078-7.2663-0.078-7.9159 0-1.3831 0.514-1.9455 1.052-2.2057 0.257-0.1305 0.54-0.2377 0.873-0.3242 0.077-0.0226 0.103-0.1085 0.103-0.173v-0.2377c-1.104 0.064-2.13 0.1059-2.618 0.1059-0.412 0-1.565 0-3.029-0.1059v0.3881c1.926 0.1511 2.413 0.9511 2.593 2.639 0.18 1.5774 0.334 5.8384 0.359 7.9574-2.464-2.595-5.749-6.313-9.65-10.984-0.898 0.0854-1.41 0.1054-2.003 0.1054-0.717 0-1.282-0.0639-2.025-0.1059v0.3448c0 0.1298 0.05 0.1524 0.204 0.1737 0.949 0.1298 2.078 0.9073 2.619 1.5788 0 3.4382-0.078 8.3702-0.104 8.9742-0.05 1.147-0.256 1.708-0.436 1.859-0.488 0.411-0.754 0.524-1.309 0.569-0.002 0-0.076 0.013-0.14 0.008zm-23.926 14.276l-0.12-0.15c-0.023-0.041-0.023-0.041-0.071-0.041s-0.619 0.441-1.846 0.441c-1.273 0-2.678-0.992-2.678-3.139 0-1.916 1.357-2.799 2.786-2.799 1.035 0 1.475 0.513 1.559 1.254 0.166 0 0.262-0.03 0.262-0.1v-1.143c0-0.121-0.095-0.171-0.285-0.203-0.346-0.051-0.573-0.099-1.37-0.099-2.381 0-4.06 1.414-4.06 3.369 0 1.715 1.309 3.222 3.5 3.222 1.085 0 1.74-0.251 2.323-0.612zm8.011-2.137h-2.083c0.44-1.034 0.737-1.917 1.023-2.61 0.345 0.864 0.679 1.716 1.06 2.61zm2.689 2.658v-0.132c0-0.03-0.011-0.039-0.059-0.048-0.07-0.022-0.238-0.061-0.368-0.132-0.251-0.139-0.335-0.26-0.75-1.173-0.381-0.844-1.369-3.08-2.119-4.876-0.048-0.111-0.084-0.141-0.202-0.141-0.083 0-0.107 0.03-0.155 0.151-0.763 1.956-1.751 4.244-2.417 5.659-0.096 0.211-0.297 0.391-0.512 0.461-0.096 0.029-0.179 0.04-0.297 0.051-0.048 0.009-0.048 0.018-0.048 0.048v0.122c0 0.031 0 0.039 0.024 0.039 0.225-0.02 0.619-0.051 0.928-0.051 0.441 0 0.822 0.031 1.145 0.051v-0.15c-0.489-0.019-0.691-0.18-0.691-0.472 0-0.059 0.012-0.181 0.071-0.331l0.559-1.423h2.299l0.654 1.474c0.06 0.131 0.094 0.24 0.094 0.33 0 0.302-0.273 0.381-0.642 0.422v0.15c0.465-0.039 0.905-0.051 1.19-0.051 0.31 0 0.941 0.043 1.263 0.062 0.033 0 0.033-0.011 0.033-0.04zm11.28-6.33v-0.11c-0.514 0.03-0.989 0.048-1.214 0.048-0.191 0-0.727 0-1.406-0.048v0.18c0.895 0.07 1.12 0.44 1.204 1.224 0.082 0.731 0.154 2.708 0.165 3.691-1.143-1.203-2.666-2.929-4.476-5.095-0.415 0.039-0.655 0.048-0.928 0.048-0.334 0-0.596-0.029-0.941-0.048v0.161c0 0.059 0.023 0.07 0.096 0.079 0.439 0.06 0.963 0.42 1.214 0.732 0 1.594-0.037 3.884-0.047 4.163-0.025 0.531-0.12 0.793-0.204 0.864-0.226 0.188-0.559 0.25-0.595 0.259-0.048 0.012-0.048 0.031-0.048 0.061v0.15c0.322-0.029 0.69-0.051 1.06-0.051 0.346 0 0.761 0.031 1.382 0.051v-0.15c-0.977-0.089-1.119-0.512-1.157-1.463-0.022-0.634-0.082-2.65-0.107-3.654 2.656 3.039 4.382 4.735 4.906 5.328h0.129c0.073-0.011 0.097-0.041 0.097-0.101-0.012-0.412-0.024-0.904-0.036-1.394-0.024-1.598-0.036-3.372-0.036-3.673 0-0.643 0.238-0.904 0.489-1.022 0.119-0.062 0.249-0.111 0.404-0.152 0.036-0.009 0.049-0.049 0.049-0.078zm9.941 5.809l-0.121-0.15c-0.022-0.041-0.022-0.041-0.07-0.041s-0.62 0.441-1.846 0.441c-1.273 0-2.679-0.992-2.679-3.139 0-1.916 1.358-2.799 2.787-2.799 1.035 0 1.476 0.513 1.559 1.254 0.166 0 0.262-0.03 0.262-0.1v-1.143c0-0.121-0.095-0.171-0.285-0.203-0.345-0.051-0.572-0.099-1.37-0.099-2.381 0-4.059 1.414-4.059 3.369 0 1.715 1.308 3.222 3.499 3.222 1.084 0 1.739-0.251 2.323-0.612zm9.618-0.904c0-0.069-0.024-0.079-0.226-0.079-0.287 0.631-0.381 1.203-1.535 1.203-0.68 0-1.157-0.051-1.358-0.271-0.121-0.13-0.13-0.312-0.13-0.682v-1.886h1.249c0.44 0 0.584 0.302 0.69 1.013 0.168 0 0.251-0.009 0.251-0.091 0-0.279-0.035-0.581-0.035-1.144 0-0.31 0.035-0.972 0.035-1.022 0-0.07-0.035-0.081-0.251-0.081-0.106 0.714-0.249 1.015-0.69 1.015h-1.249v-2.107c0-0.282 0.035-0.343 0.154-0.463 0.059-0.059 0.476-0.091 0.904-0.091 1.156 0 1.441 0.503 1.536 1.214 0.168 0 0.226-0.009 0.226-0.089 0-0.051-0.024-0.571-0.024-0.824 0-0.18 0.013-0.532 0.013-0.631-1.048 0.029-1.81 0.051-3.335 0.051-0.475 0-0.869-0.031-1.296-0.051-0.072 0-0.072 0.02-0.072 0.051v0.149c0 0.03 0 0.041 0.047 0.051 0.168 0.03 0.632 0.05 0.763 0.148 0.058 0.052 0.095 0.092 0.095 0.715v4.182c0 0.632-0.06 0.693-0.107 0.762-0.072 0.11-0.583 0.162-0.763 0.191-0.035 0.011-0.035 0.011-0.035 0.04v0.132c0 0.029 0 0.04 0.082 0.048 0.417-0.008 0.941-0.048 1.371-0.048 0.32 0 2.083 0.009 3.379 0.048 0.084-0.219 0.144-0.44 0.18-0.631 0.048-0.24 0.131-0.772 0.131-0.822zm8.423-3.371c0 1.164-0.703 1.567-1.584 1.567-0.393 0-0.488-0.022-0.596-0.062v-2.718c0.168-0.121 0.49-0.161 0.738-0.161 0.846 0 1.442 0.371 1.442 1.374zm2.417 4.726c0-0.07-0.05-0.061-0.08-0.07-0.12-0.031-0.27-0.07-0.43-0.18-0.91-0.615-1.824-2.228-2.277-2.87 0.858-0.252 1.427-0.863 1.427-1.598 0-0.881-0.557-1.653-2.307-1.653-0.524 0-1.559 0.049-1.797 0.049h-0.931c-0.083 0-0.094 0.011-0.094 0.041v0.12c0 0.031 0 0.041 0.048 0.052 0.203 0.04 0.69 0.029 0.774 0.139 0.048 0.061 0.083 0.091 0.083 0.713v4.204c0 0.621-0.048 0.672-0.094 0.741-0.083 0.11-0.454 0.162-0.668 0.202-0.048 0.009-0.048 0.009-0.048 0.04v0.13c0 0.031 0.013 0.039 0.06 0.039 0.488-0.02 1.178-0.051 1.38-0.051 0.276 0 1.085 0.043 1.43 0.051 0.025 0 0.035-0.008 0.035-0.029v-0.151c0-0.011-0.01-0.029-0.035-0.029-0.119 0-0.716-0.04-0.917-0.27-0.107-0.131-0.143-0.372-0.156-0.693-0.013-0.191 0-1.928 0-1.796 0.178 0 0.705 0.011 0.976-0.031 0.275 0.401 0.63 1.054 0.928 1.547 0.397 0.65 0.644 1.133 0.988 1.274 0.225 0.089 0.465 0.19 1.075 0.19 0.16 0 0.36 0 0.58-0.019 0.05-0.001 0.05-0.031 0.05-0.092zm12.09 0.061v-0.102c0-0.029 0-0.04-0.04-0.049-0.12-0.02-0.58-0.071-0.79-0.281-0.13-0.131-0.13-0.271-0.13-0.643v-4.243c0-0.372 0-0.512 0.13-0.643 0.22-0.21 0.67-0.261 0.79-0.28 0.04-0.011 0.04-0.021 0.04-0.052v-0.101c0-0.03-0.01-0.038-0.03-0.038-0.39 0.029-1 0.051-1.37 0.051-0.38 0-1.13-0.031-1.48-0.051-0.02 0-0.03 0.007-0.03 0.038v0.123c0 0.029 0 0.039 0.04 0.048 0.12 0.021 0.6 0.041 0.79 0.261 0.12 0.14 0.13 0.271 0.13 0.643v4.244c0 0.371-0.01 0.501-0.13 0.642-0.19 0.221-0.67 0.239-0.79 0.261-0.04 0.01-0.04 0.02-0.04 0.05v0.121c0 0.031 0.01 0.039 0.03 0.039 0.35-0.019 1.1-0.049 1.48-0.049 0.37 0 0.98 0.019 1.37 0.049 0.02 0 0.03-0.008 0.03-0.038zm11.45-6.321v-0.11c-0.51 0.03-0.99 0.048-1.22 0.048-0.19 0-0.72 0-1.4-0.048v0.18c0.89 0.07 1.12 0.44 1.2 1.224 0.09 0.731 0.16 2.708 0.17 3.691-1.14-1.203-2.67-2.929-4.48-5.095-0.41 0.039-0.65 0.048-0.92 0.048-0.34 0-0.6-0.029-0.95-0.048v0.161c0 0.059 0.03 0.07 0.1 0.079 0.44 0.06 0.96 0.42 1.21 0.732 0 1.594-0.03 3.884-0.04 4.163-0.03 0.531-0.12 0.793-0.21 0.864-0.22 0.188-0.56 0.25-0.59 0.259-0.05 0.012-0.05 0.031-0.05 0.061v0.15c0.32-0.029 0.69-0.051 1.06-0.051 0.35 0 0.76 0.031 1.38 0.051v-0.15c-0.97-0.089-1.12-0.512-1.15-1.463-0.03-0.634-0.09-2.65-0.11-3.654 2.65 3.039 4.38 4.735 4.9 5.328h0.13c0.08-0.011 0.1-0.041 0.1-0.101-0.01-0.412-0.02-0.904-0.04-1.394-0.02-1.598-0.03-3.372-0.03-3.673 0-0.643 0.24-0.904 0.49-1.022 0.12-0.062 0.25-0.111 0.4-0.152 0.04-0.009 0.05-0.049 0.05-0.078zm8.79 4.695c0-0.421-0.21-1.042-1.54-1.915-1.06-0.693-1.77-0.995-1.77-1.695 0-0.533 0.47-0.964 1.25-0.964 0.92 0 1.21 0.681 1.32 1.315 0.27 0 0.35-0.04 0.34-0.202l-0.07-0.963c-0.01-0.18-0.09-0.22-0.36-0.293-0.29-0.068-0.63-0.148-1.15-0.148-1.28 0-2.33 0.441-2.33 1.423 0 0.754 0.72 1.244 1.79 1.919 0.71 0.439 1.5 1.091 1.5 1.765 0 0.761-0.55 1.194-1.33 1.194-0.83 0-1.5-0.362-1.86-1.656-0.28 0-0.33 0.04-0.28 0.341l0.21 1.114c0.03 0.18 0.04 0.209 0.36 0.289 0.26 0.061 0.93 0.202 1.49 0.202 1.56 0 2.43-0.783 2.43-1.726zm10.25-3.41v-1.144c0-0.152-0.02-0.2-0.05-0.251-1.05 0.02-1.72 0.051-2.87 0.051-1.07 0-1.71-0.011-2.98-0.051-0.01 0.04-0.02 0.09-0.02 0.242v1.143c0 0.189 0.07 0.209 0.24 0.209 0.09-0.762 0.34-1.253 1.5-1.253h0.7v5.028c0 0.37-0.01 0.49-0.13 0.63-0.19 0.221-0.67 0.242-0.79 0.261-0.04 0.01-0.04 0.02-0.04 0.051v0.12c0 0.031 0.01 0.038 0.03 0.038 0.35-0.018 1.1-0.048 1.48-0.048 0.37 0 0.99 0.019 1.37 0.048 0.02 0 0.03-0.007 0.03-0.038v-0.102c0-0.029 0-0.04-0.04-0.049-0.12-0.02-0.58-0.07-0.79-0.281-0.13-0.131-0.13-0.261-0.13-0.631v-5.028h0.71c1.16 0 1.41 0.492 1.5 1.254 0.22 0.011 0.28-0.009 0.28-0.199zm7.03 5.036v-0.102c0-0.029 0-0.04-0.05-0.049-0.12-0.02-0.57-0.071-0.79-0.281-0.13-0.131-0.13-0.271-0.13-0.643v-4.243c0-0.372 0-0.512 0.13-0.643 0.22-0.21 0.67-0.261 0.79-0.28 0.05-0.011 0.05-0.021 0.05-0.052v-0.101c0-0.03-0.01-0.038-0.04-0.038-0.38 0.029-1 0.051-1.37 0.051-0.38 0-1.13-0.031-1.47-0.051-0.03 0-0.04 0.007-0.04 0.038v0.123c0 0.029 0 0.039 0.04 0.048 0.13 0.021 0.6 0.041 0.79 0.261 0.12 0.14 0.13 0.271 0.13 0.643v4.244c0 0.371-0.01 0.501-0.13 0.642-0.19 0.221-0.66 0.239-0.79 0.261-0.04 0.01-0.04 0.02-0.04 0.05v0.121c0 0.031 0.01 0.039 0.04 0.039 0.34-0.019 1.09-0.049 1.47-0.049 0.37 0 0.99 0.019 1.37 0.049 0.03 0 0.04-0.008 0.04-0.038zm9.99-5.036v-1.144c0-0.152-0.01-0.2-0.05-0.251-1.04 0.02-1.71 0.051-2.86 0.051-1.08 0-1.71-0.011-2.98-0.051-0.02 0.04-0.02 0.09-0.02 0.242v1.143c0 0.189 0.06 0.209 0.23 0.209 0.1-0.762 0.35-1.253 1.5-1.253h0.71v5.028c0 0.37-0.01 0.49-0.13 0.63-0.2 0.221-0.67 0.242-0.79 0.261-0.05 0.01-0.05 0.02-0.05 0.051v0.12c0 0.031 0.01 0.038 0.04 0.038 0.34-0.018 1.09-0.048 1.47-0.048 0.37 0 0.99 0.019 1.37 0.048 0.03 0 0.04-0.007 0.04-0.038v-0.102c0-0.029 0-0.04-0.05-0.049-0.12-0.02-0.57-0.07-0.78-0.281-0.13-0.131-0.13-0.261-0.13-0.631v-5.028h0.71c1.16 0 1.4 0.492 1.5 1.254 0.21 0.011 0.27-0.009 0.27-0.199zm10.93-1.234v-0.102c0-0.051-0.02-0.059-0.06-0.059-0.22 0.02-0.75 0.051-0.97 0.051-0.32 0-0.89-0.021-1.31-0.051-0.03 0-0.05 0.008-0.05 0.039v0.082c0 0.029 0.02 0.04 0.07 0.04 0.7 0.04 0.88 0.201 0.97 0.903 0.07 0.501 0.12 1.293 0.12 1.946 0 0.793-0.01 1.403-0.35 2.177-0.21 0.502-0.79 0.982-1.54 0.982-0.99 0-1.8-0.319-1.8-2.558v-2.298c0-0.371-0.01-0.711 0.11-0.842 0.2-0.219 0.78-0.28 0.9-0.301 0.05-0.009 0.05-0.02 0.05-0.049v-0.082c0-0.031-0.01-0.039-0.04-0.039-0.51 0.039-0.88 0.051-1.46 0.051-0.31 0-1.13-0.03-1.36-0.051-0.02 0-0.03 0.008-0.03 0.039v0.122c0 0.03 0 0.039 0.04 0.048 0.12 0.022 0.48 0.042 0.68 0.262 0.12 0.13 0.12 0.27 0.12 0.642v3.011c0 1.583 0.95 2.407 2.45 2.407 1.16 0 1.9-0.501 2.25-1.204 0.35-0.672 0.41-1.614 0.39-2.308-0.01-0.651 0.04-1.644 0.06-1.976 0.05-0.612 0.09-0.713 0.39-0.782 0.13-0.03 0.24-0.041 0.28-0.052 0.07-0.009 0.09-0.018 0.09-0.048zm9.87 1.234v-1.144c0-0.152-0.01-0.2-0.05-0.251-1.05 0.02-1.71 0.051-2.87 0.051-1.07 0-1.7-0.011-2.97-0.051-0.02 0.04-0.03 0.09-0.03 0.242v1.143c0 0.189 0.08 0.209 0.24 0.209 0.1-0.762 0.35-1.253 1.5-1.253h0.7v5.028c0 0.37-0.01 0.49-0.13 0.63-0.19 0.221-0.66 0.242-0.78 0.261-0.05 0.01-0.05 0.02-0.05 0.051v0.12c0 0.031 0.01 0.038 0.04 0.038 0.34-0.018 1.09-0.048 1.47-0.048 0.37 0 0.99 0.019 1.37 0.048 0.03 0 0.04-0.007 0.04-0.038v-0.102c0-0.029 0-0.04-0.05-0.049-0.12-0.02-0.57-0.07-0.78-0.281-0.14-0.131-0.14-0.261-0.14-0.631v-5.028h0.72c1.15 0 1.4 0.492 1.5 1.254 0.21 0.011 0.27-0.009 0.27-0.199zm9.26 3.62c0-0.069-0.03-0.079-0.23-0.079-0.28 0.631-0.38 1.203-1.53 1.203-0.68 0-1.16-0.051-1.36-0.271-0.12-0.13-0.13-0.312-0.13-0.682v-1.886h1.25c0.44 0 0.58 0.302 0.69 1.013 0.17 0 0.25-0.009 0.25-0.091 0-0.279-0.04-0.581-0.04-1.144 0-0.31 0.04-0.972 0.04-1.022 0-0.07-0.04-0.081-0.25-0.081-0.11 0.714-0.25 1.015-0.69 1.015h-1.25v-2.107c0-0.282 0.03-0.343 0.16-0.462 0.05-0.059 0.47-0.091 0.9-0.091 1.15 0 1.44 0.502 1.53 1.213 0.17 0 0.23-0.008 0.23-0.089 0-0.05-0.02-0.571-0.02-0.824 0-0.179 0.01-0.531 0.01-0.631-1.05 0.03-1.81 0.051-3.33 0.051-0.48 0-0.88-0.03-1.3-0.051-0.07 0-0.07 0.02-0.07 0.051v0.15c0 0.03 0 0.041 0.04 0.051 0.17 0.03 0.63 0.049 0.77 0.148 0.05 0.052 0.09 0.092 0.09 0.714v4.183c0 0.632-0.06 0.692-0.11 0.762-0.07 0.11-0.58 0.162-0.76 0.191-0.03 0.011-0.03 0.011-0.03 0.04v0.131c0 0.03 0 0.041 0.08 0.049 0.41-0.008 0.94-0.049 1.37-0.049 0.32 0 2.08 0.01 3.38 0.049 0.08-0.22 0.14-0.44 0.18-0.631 0.04-0.241 0.13-0.773 0.13-0.823zm-55.5-12.921c1.05-0.043 2.54-0.118 2.98-0.118 0.59 0 2.33 0.086 3.08 0.108 0.05 0 0.08-0.022 0.08-0.064v-0.325c0-0.022-0.03-0.065-0.08-0.065-0.26 0-1.54-0.087-1.98-0.583-0.23-0.283-0.3-0.802-0.33-1.493-0.03-0.411 0-4.153 0-3.872 0.39 0 1.51 0.022 2.1-0.065 0.59 0.865 1.36 2.271 2.01 3.33 0.84 1.407 1.38 2.444 2.13 2.747 0.48 0.195 1 0.411 2.31 0.411 0.36 0 0.77 0 1.25-0.043 0.11 0 0.11-0.064 0.11-0.195 0-0.151-0.11-0.13-0.18-0.151-0.26-0.064-0.57-0.151-0.93-0.389-1.95-1.319-3.92-4.801-4.9-6.185 1.85-0.541 3.08-1.859 3.08-3.4383 0-1.9035-1.21-3.5669-4.98-3.5669-1.13 0-3.36 0.1059-3.87 0.1059h-2.01c-0.18 0-0.2 0.0226-0.2 0.0866v0.2602c0 0.0658 0 0.0865 0.1 0.1091 0.44 0.0865 1.49 0.0639 1.67 0.3022 0.1 0.1298 0.18 0.195 0.18 1.5349v9.0623c0 1.341-0.1 1.449-0.21 1.6-0.14 0.159-0.63 0.29-1.09 0.376 0 0-0.19 0.042-0.43 0.051-0.16 0.009-0.38-0.014-0.39-0.015-0.16-0.044-0.4-0.109-0.68-0.261-0.55-0.302-0.72-0.561-1.62-2.529-0.82-1.818-2.95-6.641-4.57-10.513-0.1-0.238-0.18-0.3025-0.44-0.3025-0.18 0-0.23 0.0652-0.33 0.3241-1.64 4.2184-3.77 9.1494-5.21 12.198-0.21 0.454-0.64 0.845-1.1 0.996-0.21 0.065-0.39 0.087-0.65 0.108-0.1 0.022-0.1 0.043-0.1 0.108v0.26c0 0.065 0 0.087 0.05 0.087 0.49-0.043 1.34-0.108 2-0.108 0.95 0 1.78 0.064 2.47 0.108v-0.326c-1.05-0.043-1.49-0.387-1.49-1.016 0-0.129 0.03-0.389 0.15-0.712l1.21-3.072h4.95l1.42 3.179c0.12 0.281 0.2 0.518 0.2 0.714 0 0.648-0.59 0.821-1.38 0.906v0.326c0.99-0.087 1.95-0.108 2.56-0.108 0.67 0 2.04 0.075 2.73 0.118l0.33-0.001zm-6.08-5.806h-4.49c0.95-2.229 1.59-4.131 2.2-5.6232 0.75 1.8602 1.47 3.6972 2.29 5.6232zm14.43-4.5539c0 2.5089-1.52 3.3749-3.42 3.3749-0.85 0-1.05-0.044-1.28-0.131v-5.8603c0.36-0.2603 1.05-0.3468 1.59-0.3468 1.82 0 3.11 0.8013 3.11 2.9632z"/>
     </g>
    </g>
   </g>
  </g>
 </g>
</svg>
