<?xml version="1.0" encoding="UTF-8" standalone="no"?>
<svg id="Capa_1" style="enable-background:new 0 0 116.9 52" xmlns="http://www.w3.org/2000/svg" xml:space="preserve" height="52px" viewBox="0 0 116.9 52" width="116.9px" version="1.1" y="0px" x="0px" xmlns:xlink="http://www.w3.org/1999/xlink">
<style type="text/css">
	.st0{fill-rule:evenodd;clip-rule:evenodd;fill:#73E800;}
	.st1{fill-rule:evenodd;clip-rule:evenodd;fill:#FFB029;}
	.st2{fill-rule:evenodd;clip-rule:evenodd;fill:#FF00DB;}
	.st3{fill-rule:evenodd;clip-rul∫e:evenodd;}
	.st4{fill-rule:evenodd;clip-rule:evenodd;fill:#FF6100;}
	.st5{fill-rule:evenodd;clip-rule:evenodd;fill:#00D49E;}
	.st6{fill-rule:evenodd;clip-rule:evenodd;fill:#7054FF;}
</style>
	<path class="st0" d="m8.7 17.3c4.8 0 8.7 3.9 8.7 8.7s-3.9 8.7-8.7 8.7c-4.8 0-8.7-3.9-8.7-8.7s3.9-8.7 8.7-8.7"/>
	<path class="st1" d="m52 0c4.8 0 8.7 3.9 8.7 8.7s-3.9 8.7-8.7 8.7c-4.8 0-8.7-3.9-8.7-8.7s3.9-8.7 8.7-8.7"/>
	<path class="st2" d="m52 34.7c4.8 0 8.7 3.9 8.7 8.7s-4 8.6-8.7 8.6c-4.8 0-8.7-3.9-8.7-8.7s3.9-8.6 8.7-8.6"/>
	<path class="st3" d="m76.6 13.7c2 0 2.9-1.1 3.2-2.5h1.4c-0.4 2.2-2 3.8-4.6 3.8-3.1 0-5.5-2.5-5.5-6.3s2.3-6.3 5.5-6.3c2.7 0 4.2 1.5 4.6 3.8h-1.4c-0.3-1.4-1.2-2.5-3.2-2.5-2.5 0-4 2-4 5 0.1 2.9 1.5 5 4 5zm10.4 1.2c-2.4 0-4.1-1.7-4.1-4.5s1.7-4.5 4.1-4.5c2.4 0 4.1 1.7 4.1 4.5s-1.7 4.5-4.1 4.5zm0-1.1c1.7 0 2.7-1.3 2.7-3.3 0-2.1-1-3.4-2.7-3.4s-2.7 1.3-2.7 3.4 1 3.3 2.7 3.3zm11.8 0.9v-1.6c-0.4 1.1-1.4 1.8-2.7 1.8-1.9 0-3-1.2-3-3.3v-5.5h1.4v5.3c0 1.6 0.7 2.4 2 2.4s2.3-0.9 2.3-3v-4.7h1.4v8.6h-1.4zm5.4-7c0.4-1.1 1.5-1.8 2.8-1.8 1.9 0 3.1 1.2 3.1 3.3v5.5h-1.4v-5.2c0-1.6-0.7-2.4-2-2.4s-2.4 0.8-2.4 2.9v4.7h-1.4v-8.6h1.4c-0.1 0-0.1 1.6-0.1 1.6zm12.7 6.9c-0.6 0.2-1.1 0.2-1.5 0.2-1.6 0-2.4-0.8-2.4-2.3v-5.3h-1.3v-1.1h1.3v-2.2h1.4v2.2h2.2v1.1h-2.3v5.2c0 0.9 0.5 1.2 1.2 1.2 0.3 0 0.7 0 1.2-0.2l0.2 1.2zm-38.9 17.4l-4-10.7v10.7h-1.4v-12.2h2.3l3.8 10.3 3.7-10.3h2.2v12.2h-1.4v-10.7l-4 10.7h-1.2zm12.9 0.2c-2.4 0-4.1-1.7-4.1-4.5s1.8-4.5 4-4.5c2.5 0 3.7 2 3.7 4.2v0.6h-6.3c0.1 2 1.1 3.1 2.7 3.1 1.2 0 1.9-0.6 2.2-1.6h1.3c-0.3 1.8-1.8 2.7-3.5 2.7zm-2.7-5.2h4.9c0-1.5-0.8-2.6-2.3-2.6-1.3 0-2.3 0.8-2.6 2.6zm-15.6 10.2h1.5v12.2h-1.5v-12.2zm5.5 5.2c0.4-1.1 1.5-1.8 2.8-1.8 1.9 0 3.1 1.2 3.1 3.3v5.5h-1.4v-5.2c0-1.6-0.7-2.4-2-2.4s-2.4 0.8-2.4 2.9v4.7h-1.4v-8.6h1.4l-0.1 1.6zm-55.1-33.2h29v-1.2h-29v1.2z"/>
	<path class="st4" d="m23 0c4.8 0 8.7 3.9 8.7 8.7s-3.9 8.7-8.7 8.7c-4.8 0-8.7-3.9-8.7-8.7s4-8.7 8.7-8.7"/>
	<path class="st3" d="m8.7 26.6h28.9v-1.2h-28.9v1.2z"/>
	<path class="st5" d="m37.6 17.3c4.8 0 8.7 3.9 8.7 8.7s-3.9 8.7-8.7 8.7c-4.8 0-8.7-3.9-8.7-8.7s3.9-8.7 8.7-8.7"/>
	<path class="st3" d="m23 43.9h29v-1.2h-29v1.2z"/>
	<path class="st6" d="m23 34.7c4.8 0 8.7 3.9 8.7 8.7s-3.9 8.6-8.7 8.6c-4.8 0-8.7-3.9-8.7-8.7s4-8.6 8.7-8.6"/>
</svg>
