<?xml version="1.0" encoding="UTF-8" standalone="no"?>
<svg xmlns="http://www.w3.org/2000/svg" height="119px" width="95px" version="1.1" xmlns:xlink="http://www.w3.org/1999/xlink" viewBox="0 0 95 119">
 <title>3834F805-8BF5-4061-BB91-7B0F403FCA4B@1x</title>
 <desc>Created with sketchtool.</desc>
 <g id="Landing-Page" fill-rule="evenodd" fill="none">
  <g id="0---Landing-Page" transform="translate(-675 -1177)">
   <g id="Microcope" transform="translate(657 1171)">
    <path id="Path" opacity=".5" fill="#7154FF" d="m110.39 109.73l-16.356-30.056c-0.103-3.686-1.714-6.992-4.242-9.332 0.187-1.645 0.301-3.274 0.301-4.842 0-22.888-18.23-41.575-40.903-42.278v-9.289c0-0.73-0.59-1.322-1.32-1.322h-3.958v-5.2888c0-0.7298-0.59-1.3222-1.319-1.3222h-10.556c-0.73 0-1.319 0.5924-1.319 1.3222v5.2888h-3.959c-0.729 0-1.319 0.592-1.319 1.322v38.345c0 1.834 0.427 3.563 1.17 5.115l-4.223 4.233c-0.248 0.248-0.387 0.584-0.387 0.935s0.139 0.687 0.387 0.935l3.732 3.74c0.258 0.258 0.595 0.387 0.933 0.387s0.676-0.129 0.933-0.387l4.222-4.231c0.374 0.178 0.756 0.338 1.149 0.477v5.985c0 0.731 0.59 1.322 1.32 1.322h5.278c0.729 0 1.319-0.591 1.319-1.322v-5.983c0.393-0.139 0.776-0.301 1.149-0.478l4.223 4.231c0.257 0.258 0.595 0.388 0.932 0.388 0.338 0 0.676-0.13 0.933-0.388l3.733-3.74c0.248-0.249 0.387-0.583 0.387-0.935 0-0.35-0.139-0.688-0.387-0.935l-4.224-4.232c0.743-1.554 1.171-3.283 1.171-5.117v-11.833c13.209 0.694 23.75 11.649 23.75 25.055 0 1.399-0.144 2.84-0.395 4.288-2.976 2.426-4.883 6.122-4.883 10.256 0 0.355 0.026 0.703 0.054 1.049-0.062 0.291-0.033 0.586 0.1 0.855 0.184 1.27 0.544 2.478 1.063 3.605-5.166 5.429-12.234 8.659-19.689 9v-1.286c0-0.732-0.59-1.323-1.32-1.323h-21.111c-0.729 0-1.319 0.591-1.319 1.323v9.253c0 0.73 0.59 1.32 1.319 1.32h21.111c3.199 0 6.355-0.41 9.408-1.19l-9.289 20.48c-0.186 0.41-0.15 0.89 0.091 1.26 0.244 0.38 0.661 0.61 1.11 0.61h52.16c3.62 0 7.01-1.94 8.86-5.05 1.85-3.12 1.92-7.04 0.18-10.22z"/>
    <path id="Path" fill="#FFDF03" d="m57.583 86.656v-6.612c0-0.731-0.589-1.322-1.319-1.322h-36.945c-0.729 0-1.319 0.591-1.319 1.322v6.612c0 0.731 0.59 1.322 1.319 1.322h36.945c0.73 0 1.319-0.591 1.319-1.322z"/>
    <g id="noun_Microscope_172386">
     <rect id="Rectangle" y="0" x="0" height="132" width="132"/>
     <g id="Group" fill-rule="nonzero" fill="#000" transform="translate(18 6)">
      <path id="Shape" d="m39.583 80.656v-6.612c0-0.731-0.589-1.322-1.319-1.322h-36.945c-0.72921 0-1.319 0.591-1.319 1.322v6.612c0 0.731 0.58979 1.322 1.3194 1.322h36.945c0.73 0 1.319-0.591 1.319-1.322zm-2.639-1.323h-34.305l-0.0001-3.966h34.305v3.966z"/>
      <path id="Shape" d="m92.872 103.73l-16.361-30.056c-0.103-3.686-1.714-6.992-4.242-9.332 0.187-1.645 0.3-3.274 0.3-4.842 0-22.888-18.229-41.575-40.902-42.278v-9.2887c0-0.7298-0.59-1.3222-1.32-1.3222h-3.958v-5.2889c0-0.72984-0.59-1.3222-1.32-1.3222h-10.555c-0.73 0-1.32 0.59236-1.32 1.3222v5.2889h-3.9579c-0.7296 0-1.3194 0.5924-1.3194 1.3222v38.345c0 1.834 0.4275 3.563 1.1703 5.115l-4.2235 4.233c-0.2481 0.248-0.3866 0.584-0.3866 0.935s0.1385 0.687 0.3866 0.935l3.7327 3.74c0.2573 0.258 0.595 0.387 0.9328 0.387s0.676-0.129 0.933-0.387l4.222-4.231c0.374 0.178 0.756 0.338 1.149 0.477v5.985c0 0.731 0.59 1.322 1.32 1.322h5.278c0.729 0 1.319-0.591 1.319-1.322v-5.983c0.393-0.139 0.776-0.301 1.149-0.478l4.222 4.231c0.258 0.258 0.596 0.388 0.933 0.388 0.338 0 0.676-0.13 0.933-0.388l3.733-3.74c0.248-0.249 0.386-0.583 0.386-0.935 0-0.35-0.138-0.688-0.386-0.935l-4.224-4.232c0.743-1.554 1.171-3.283 1.171-5.117v-11.833c13.209 0.694 23.75 11.649 23.75 25.055 0 1.399-0.144 2.84-0.395 4.288-2.977 2.426-4.883 6.122-4.883 10.256 0 0.355 0.026 0.703 0.054 1.049-0.062 0.291-0.033 0.586 0.1 0.855 0.184 1.27 0.544 2.478 1.062 3.605-5.165 5.429-12.233 8.659-19.688 9v-1.286c0-0.732-0.59-1.323-1.32-1.323h-21.111c-0.7295 0-1.3193 0.591-1.3193 1.323v9.255c0 0.731 0.5898 1.322 1.3194 1.322h21.111c3.199 0 6.355-0.413 9.408-1.192l-9.289 20.478c-0.186 0.41-0.15 0.89 0.091 1.26 0.244 0.38 0.661 0.61 1.11 0.61h52.161c3.618 0 7.012-1.94 8.86-5.05 1.845-3.12 1.915-7.04 0.184-10.22zm-73.08-48.197c-2.072 0-3.984-0.689-5.526-1.848l1.181-1.184c0.516-0.517 0.516-1.352 0-1.869s-1.35-0.517-1.866 0l-1.178 1.181c-0.659-0.881-1.163-1.881-1.475-2.962 0.203-0.061 0.399-0.154 0.56-0.315l0.933-0.936h16.513c-0.642 4.48-4.497 7.933-9.142 7.933zm-3.959-52.889h7.917v3.9667h-7.917v-3.9667zm-1.319 6.6112h10.555 3.959v9.2554 14.545 11.9h-13.968l0.387-0.388c0.516-0.517 0.516-1.352 0-1.869s-1.35-0.517-1.866 0l-2.252 2.257h-0.773v-3.42l4.891-4.901c0.516-0.517 0.516-1.353 0-1.87s-1.35-0.517-1.866 0l-3.025 3.032v-4.194l4.891-4.902c0.516-0.517 0.516-1.352 0-1.869s-1.35-0.517-1.866 0l-3.025 3.032v-4.194l4.891-4.902c0.516-0.517 0.516-1.352 0-1.869s-1.35-0.517-1.866 0l-3.025 3.031v-4.194l4.891-4.901c0.516-0.517 0.516-1.353 0-1.87s-1.35-0.517-1.866 0l-3.025 3.032v-4.7414h3.958zm-4.985 49.176l-1.867-1.871 2.799-2.805 1.867 1.871-2.799 2.805zm11.582-0.254v3.966h-2.639v-3.966h2.639zm8.943 0.254l-2.798-2.805 1.867-1.871 2.798 2.805-1.867 1.871zm27.885 3.55c0.06-0.641 0.076-1.276 0.09-1.907l4.918-4.929c0.516-0.517 0.516-1.353 0-1.87s-1.35-0.517-1.866 0l-3.198 3.207c-0.138-1.258-0.376-2.483-0.676-3.685 0.168-0.065 0.327-0.159 0.462-0.297l2.639-2.644c0.516-0.517 0.516-1.353 0-1.87s-1.35-0.517-1.866 0l-2.066 2.072c-0.366-1.007-0.779-1.991-1.252-2.94l2.546-2.552c0.516-0.517 0.516-1.353 0-1.87s-1.35-0.517-1.865 0l-2.023 2.027c-0.552-0.878-1.144-1.728-1.788-2.536 0.144-0.065 0.281-0.148 0.4-0.266l1.319-1.322c0.516-0.517 0.516-1.352 0-1.869s-1.35-0.517-1.865 0l-1.32 1.322c-0.075 0.075-0.116 0.169-0.17 0.256-0.695-0.73-1.444-1.408-2.217-2.058l1.614-1.618c0.516-0.517 0.516-1.352 0-1.869s-1.35-0.517-1.866 0l-1.867 1.871c-0.835-0.578-1.707-1.1-2.604-1.584l1.059-1.062c0.516-0.517 0.516-1.353 0-1.87s-1.35-0.517-1.866 0l-1.319 1.323c-0.135 0.133-0.23 0.289-0.294 0.454-2.899-1.215-6.033-1.978-9.329-2.134v-11.909c21.217 0.701 38.262 18.216 38.262 39.647 0 0.986-0.041 1.999-0.122 3.024-0.03-0.019-0.067-0.03-0.1-0.048-1.407-0.782-2.974-1.305-4.637-1.524l0.514-0.517c0.516-0.517 0.516-1.353 0-1.87s-1.35-0.517-1.866 0l-2.425 2.432c-1.147 0.18-2.245 0.498-3.275 0.954-0.026 0.01-0.054 0.02-0.081 0.031zm5.394 1.485c5.822 0 10.556 4.745 10.556 10.577 0 5.833-4.734 10.578-10.556 10.578-1.038 0-2.041-0.157-2.99-0.439 0.469-0.519 0.465-1.317-0.035-1.818-0.516-0.517-1.35-0.517-1.866 0l-0.657 0.66c-0.848-0.528-1.614-1.172-2.281-1.909l4.804-4.815c0.516-0.517 0.516-1.352 0-1.869s-1.35-0.517-1.866 0l-4.471 4.481c-0.506-0.972-0.858-2.032-1.041-3.151l7.378-7.394c0.516-0.517 0.516-1.352 0-1.869s-1.35-0.517-1.866 0l-5.456 5.47c0.965-4.842 5.237-8.502 10.347-8.502zm-52.777 25.122h18.472v1.322 5.289h-18.472v-6.611zm21.111 2.617c7.911-0.331 15.436-3.644 21.043-9.248-0.035-0.074-0.059-0.152-0.092-0.227 0.922 1.286 2.06 2.406 3.371 3.291-0.178-0.068-0.353-0.137-0.521-0.217-6.34 6.315-14.869 10.037-23.801 10.37v-3.969zm58.751 21.394c-1.374 2.31-3.899 3.76-6.59 3.76h-37.101l5.664-5.68c0.516-0.52 0.516-1.35 0-1.87s-1.35-0.52-1.866 0l-7.53 7.55h-4.185l13.581-13.61c0.516-0.52 0.516-1.36 0-1.87-0.516-0.52-1.35-0.52-1.866 0l-15.446 15.48h-1.363l2.458-5.43c0.137-0.06 0.27-0.14 0.384-0.25l15.833-15.867c0.516-0.517 0.516-1.353 0-1.87s-1.35-0.517-1.866 0l-11.348 11.377 3.927-8.66c-0.035 0.003-0.073 0.003-0.107 0.005 5.601-1.971 10.722-5.234 14.904-9.584 1.66 0.755 3.494 1.186 5.432 1.186 5.773 0 10.677-3.74 12.465-8.923v0.004c0.033-0.091 0.073-0.18 0.103-0.271l14.652 26.923c1.29 2.37 1.238 5.28-0.135 7.6z"/>
     </g>
    </g>
    <path id="Path" opacity=".3" fill="#00D39D" d="m108.7 118.6c-1.37 2.31-3.9 3.76-6.59 3.76h-37.099l5.664-5.68c0.516-0.52 0.516-1.35 0-1.87-0.515-0.52-1.349-0.52-1.865 0l-7.53 7.55h-4.186l13.581-13.61c0.516-0.52 0.516-1.36 0-1.87-0.515-0.52-1.349-0.52-1.865 0l-15.447 15.48h-1.363l2.458-5.43c0.137-0.06 0.271-0.14 0.384-0.25l15.833-15.87c0.516-0.51 0.516-1.35 0-1.867-0.515-0.517-1.349-0.517-1.865 0l-11.349 11.377 3.927-8.66c-0.034 0-0.073 0-0.107 0.01 5.601-1.976 10.722-5.239 14.904-9.589 1.66 0.755 3.494 1.186 5.433 1.186 5.772 0 10.677-3.74 12.464-8.923v0.004c0.033-0.091 0.073-0.18 0.103-0.271l14.655 26.923c1.29 2.37 1.24 5.28-0.14 7.6z"/>
    <path id="Path" opacity=".3" fill="#00D39D" d="m75.939 67.982c0.06-0.641 0.076-1.276 0.09-1.907l4.918-4.929c0.516-0.517 0.516-1.353 0-1.87s-1.35-0.517-1.866 0l-3.198 3.207c-0.138-1.258-0.376-2.483-0.676-3.685 0.168-0.065 0.327-0.159 0.462-0.297l2.639-2.644c0.516-0.517 0.516-1.353 0-1.87s-1.35-0.517-1.866 0l-2.066 2.072c-0.366-1.007-0.779-1.991-1.252-2.94l2.546-2.552c0.516-0.517 0.516-1.353 0-1.87s-1.35-0.517-1.865 0l-2.023 2.027c-0.552-0.878-1.144-1.728-1.788-2.536 0.144-0.065 0.281-0.148 0.4-0.266l1.319-1.322c0.516-0.517 0.516-1.352 0-1.869s-1.35-0.517-1.865 0l-1.32 1.322c-0.075 0.075-0.116 0.169-0.17 0.256-0.695-0.73-1.444-1.408-2.217-2.058l1.614-1.618c0.516-0.517 0.516-1.352 0-1.869s-1.35-0.517-1.866 0l-1.867 1.871c-0.835-0.578-1.707-1.1-2.604-1.584l1.059-1.062c0.516-0.517 0.516-1.353 0-1.87s-1.35-0.517-1.866 0l-1.319 1.323c-0.135 0.133-0.23 0.289-0.294 0.454-2.899-1.215-6.033-1.978-9.329-2.134v-11.909c21.217 0.701 38.262 18.216 38.262 39.647 0 0.986-0.041 1.999-0.122 3.024-0.03-0.019-0.067-0.03-0.1-0.048-1.407-0.782-2.974-1.305-4.637-1.524l0.514-0.517c0.516-0.517 0.516-1.353 0-1.87s-1.35-0.517-1.866 0l-2.425 2.432c-1.147 0.18-2.245 0.498-3.275 0.954-0.026 0.01-0.054 0.02-0.081 0.031z"/>
    <path id="Path" opacity=".3" fill="#00D39D" d="m50 97.475c7.911-0.331 15.436-3.644 21.044-9.248-0.036-0.074-0.06-0.152-0.093-0.227 0.923 1.287 2.06 2.406 3.372 3.291-0.178-0.067-0.354-0.136-0.522-0.217-6.339 6.315-14.868 10.036-23.801 10.366v-3.965z"/>
   </g>
  </g>
 </g>
</svg>
