<?xml version="1.0" encoding="UTF-8"?>
<svg width="95px" height="119px" viewBox="0 0 95 119" version="1.1" xmlns="http://www.w3.org/2000/svg" xmlns:xlink="http://www.w3.org/1999/xlink">
    <!-- Generator: sketchtool 55.2 (78181) - https://sketchapp.com -->
    <title>3834F805-8BF5-4061-BB91-7B0F403FCA4B@1x</title>
    <desc>Created with sketchtool.</desc>
    <g id="Landing-Page" stroke="none" stroke-width="1" fill="none" fill-rule="evenodd">
        <g id="0---Landing-Page" transform="translate(-675.000000, -1177.000000)">
            <g id="Microcope" transform="translate(657.000000, 1171.000000)">
                <g>
                    <path d="M110.394861,109.733622 L94.03375,79.6742222 C93.9308333,75.9878667 92.3197917,72.6823111 89.7917361,70.3419778 C89.9790972,68.6971333 90.0925694,67.0681556 90.0925694,65.5 C90.0925694,42.6123333 71.863125,23.9253667 49.1897917,23.2219444 L49.1897917,13.9333333 C49.1897917,13.2034667 48.6,12.6111111 47.8703472,12.6111111 L43.9120139,12.6111111 L43.9120139,7.32222222 C43.9120139,6.59235556 43.3222222,6 42.5925694,6 L32.0370139,6 C31.3073611,6 30.7175694,6.59235556 30.7175694,7.32222222 L30.7175694,12.6111111 L26.7592361,12.6111111 C26.0295833,12.6111111 25.4397917,13.2034667 25.4397917,13.9333333 L25.4397917,52.2777778 C25.4397917,54.1117 25.8672917,55.8411667 26.6101389,57.3934556 L22.3865972,61.6258889 C22.1385417,61.8744667 22,62.2103111 22,62.5607 C22,62.9124111 22.1385417,63.2482556 22.3865972,63.4955111 L26.1193056,67.2360778 C26.3765972,67.4939111 26.714375,67.6234889 27.0521528,67.6234889 C27.3899306,67.6234889 27.7277083,67.4939111 27.985,67.2360778 L32.2072222,63.0049667 C32.580625,63.1834667 32.9632639,63.3434556 33.3564583,63.4822889 L33.3564583,69.4666667 C33.3564583,70.1978556 33.94625,70.7888889 34.6759028,70.7888889 L39.9536806,70.7888889 C40.6833333,70.7888889 41.273125,70.1978556 41.273125,69.4666667 L41.273125,63.4836111 C41.6663194,63.3447778 42.0489583,63.1834667 42.4223611,63.0062889 L46.6445833,67.2374 C46.901875,67.4952333 47.2396528,67.6248111 47.5774306,67.6248111 C47.9152083,67.6248111 48.2529861,67.4952333 48.5102778,67.2374 L52.2429861,63.4968333 C52.4910417,63.2482556 52.6295833,62.9137333 52.6295833,62.5620222 C52.6295833,62.2116333 52.4910417,61.8744667 52.2429861,61.6272111 L48.0194444,57.3947778 C48.7622917,55.8411667 49.1897917,54.1117 49.1897917,52.2777778 L49.1897917,40.4452111 C62.39875,41.1393778 72.9397917,52.0939889 72.9397917,65.5 C72.9397917,66.8989111 72.7959722,68.3401333 72.5452778,69.7879667 C69.5686111,72.2142444 67.6620139,75.9098556 67.6620139,80.0444444 C67.6620139,80.3988 67.6884028,80.7465444 67.7161111,81.0929667 C67.6540972,81.3838556 67.683125,81.6787111 67.8163889,81.9484444 C67.9997917,83.2177778 68.36,84.4262889 68.8785417,85.5528222 C63.7129167,90.9818667 56.6446528,94.2120556 49.1897917,94.5531889 L49.1897917,93.2666667 C49.1897917,92.5354778 48.6,91.9444444 47.8703472,91.9444444 L26.7592361,91.9444444 C26.0295833,91.9444444 25.4397917,92.5354778 25.4397917,93.2666667 L25.4397917,102.522222 C25.4397917,103.253411 26.0295833,103.844444 26.7592361,103.844444 L47.8703472,103.844444 C51.0686806,103.844444 54.2247917,103.430589 57.2779861,102.6518 L47.9890972,123.130378 C47.8030556,123.540267 47.8386806,124.016267 48.0801389,124.3931 C48.3242361,124.771256 48.7411806,125 49.1897917,125 L101.351389,125 C104.969306,125 108.362917,123.062944 110.211458,119.946467 C112.056042,116.828667 112.125972,112.914889 110.394861,109.733622 Z" id="Path" fill="#7154FF" opacity="0.5"></path>
                    <path d="M57.5833333,86.6555556 L57.5833333,80.0444444 C57.5833333,79.3132556 56.9935417,78.7222222 56.2638889,78.7222222 L19.3194444,78.7222222 C18.5897917,78.7222222 18,79.3132556 18,80.0444444 L18,86.6555556 C18,87.3867444 18.5897917,87.9777778 19.3194444,87.9777778 L56.2638889,87.9777778 C56.9935417,87.9777778 57.5833333,87.3867444 57.5833333,86.6555556 Z" id="Path" fill="#FFDF03"></path>
                    <g id="noun_Microscope_172386">
                        <rect id="Rectangle" x="0" y="0" width="132" height="132"></rect>
                        <g id="Group" transform="translate(18.000000, 6.000000)" fill="#000000" fill-rule="nonzero">
                            <path d="M39.5833333,80.6555556 L39.5833333,74.0444444 C39.5833333,73.3132556 38.9935417,72.7222222 38.2638889,72.7222222 L1.31944444,72.7222222 C0.589791667,72.7222222 0,73.3132556 0,74.0444444 L0,80.6555556 C0,81.3867444 0.589791667,81.9777778 1.31944444,81.9777778 L38.2638889,81.9777778 C38.9935417,81.9777778 39.5833333,81.3867444 39.5833333,80.6555556 Z M36.9444444,79.3333333 L2.63888889,79.3333333 L2.63888889,75.3666667 L36.9444444,75.3666667 L36.9444444,79.3333333 Z" id="Shape"></path>
                            <path d="M92.8717361,103.733622 L76.510625,73.6742222 C76.4077083,69.9878667 74.7966667,66.6823111 72.2686111,64.3419778 C72.4559722,62.6971333 72.5694444,61.0681556 72.5694444,59.5 C72.5694444,36.6123333 54.34,17.9253667 31.6666667,17.2219444 L31.6666667,7.93333333 C31.6666667,7.20346667 31.076875,6.61111111 30.3472222,6.61111111 L26.3888889,6.61111111 L26.3888889,1.32222222 C26.3888889,0.592355556 25.7990972,0 25.0694444,0 L14.5138889,0 C13.7842361,0 13.1944444,0.592355556 13.1944444,1.32222222 L13.1944444,6.61111111 L9.23611111,6.61111111 C8.50645833,6.61111111 7.91666667,7.20346667 7.91666667,7.93333333 L7.91666667,46.2777778 C7.91666667,48.1117 8.34416667,49.8411667 9.08701389,51.3934556 L4.86347222,55.6258889 C4.61541667,55.8744667 4.476875,56.2103111 4.476875,56.5607 C4.476875,56.9124111 4.61541667,57.2482556 4.86347222,57.4955111 L8.59618056,61.2360778 C8.85347222,61.4939111 9.19125,61.6234889 9.52902778,61.6234889 C9.86680556,61.6234889 10.2045833,61.4939111 10.461875,61.2360778 L14.6840972,57.0049667 C15.0575,57.1834667 15.4401389,57.3434556 15.8333333,57.4822889 L15.8333333,63.4666667 C15.8333333,64.1978556 16.423125,64.7888889 17.1527778,64.7888889 L22.4305556,64.7888889 C23.1602083,64.7888889 23.75,64.1978556 23.75,63.4666667 L23.75,57.4836111 C24.1431944,57.3447778 24.5258333,57.1834667 24.8992361,57.0062889 L29.1214583,61.2374 C29.37875,61.4952333 29.7165278,61.6248111 30.0543056,61.6248111 C30.3920833,61.6248111 30.7298611,61.4952333 30.9871528,61.2374 L34.7198611,57.4968333 C34.9679167,57.2482556 35.1064583,56.9137333 35.1064583,56.5620222 C35.1064583,56.2116333 34.9679167,55.8744667 34.7198611,55.6272111 L30.4963194,51.3947778 C31.2391667,49.8411667 31.6666667,48.1117 31.6666667,46.2777778 L31.6666667,34.4452111 C44.875625,35.1393778 55.4166667,46.0939889 55.4166667,59.5 C55.4166667,60.8989111 55.2728472,62.3401333 55.0221528,63.7879667 C52.0454861,66.2142444 50.1388889,69.9098556 50.1388889,74.0444444 C50.1388889,74.3988 50.1652778,74.7465444 50.1929861,75.0929667 C50.1309722,75.3838556 50.16,75.6787111 50.2932639,75.9484444 C50.4766667,77.2177778 50.836875,78.4262889 51.3554167,79.5528222 C46.1897917,84.9818667 39.1215278,88.2120556 31.6666667,88.5531889 L31.6666667,87.2666667 C31.6666667,86.5354778 31.076875,85.9444444 30.3472222,85.9444444 L9.23611111,85.9444444 C8.50645833,85.9444444 7.91666667,86.5354778 7.91666667,87.2666667 L7.91666667,96.5222222 C7.91666667,97.2534111 8.50645833,97.8444444 9.23611111,97.8444444 L30.3472222,97.8444444 C33.5455556,97.8444444 36.7016667,97.4305889 39.7548611,96.6518 L30.4659722,117.130378 C30.2799306,117.540267 30.3155556,118.016267 30.5570139,118.3931 C30.8011111,118.771256 31.2180556,119 31.6666667,119 L83.8282639,119 C87.4461806,119 90.8397917,117.062944 92.6883333,113.946467 C94.5329167,110.828667 94.6028472,106.914889 92.8717361,103.733622 Z M19.7916667,55.5333333 C17.7201389,55.5333333 15.8082639,54.8444556 14.2658333,53.6848667 L15.4467361,52.5014778 C15.9626389,51.9844889 15.9626389,51.1488444 15.4467361,50.6318556 C14.9308333,50.1148667 14.0969444,50.1148667 13.5810417,50.6318556 L12.4027778,51.8126 C11.744375,50.932 11.2403472,49.9324 10.9276389,48.8508222 C11.1308333,48.79 11.3274306,48.6974444 11.4884028,48.5361333 L12.42125,47.6 L28.9340972,47.6 C28.2915278,52.0796889 24.4374306,55.5333333 19.7916667,55.5333333 Z M15.8333333,2.64444444 L23.75,2.64444444 L23.75,6.61111111 L15.8333333,6.61111111 L15.8333333,2.64444444 Z M14.5138889,9.25555556 L25.0694444,9.25555556 L29.0277778,9.25555556 L29.0277778,18.5111111 L29.0277778,33.0555556 L29.0277778,44.9555556 L15.0601389,44.9555556 L15.4467361,44.5681444 C15.9626389,44.0511556 15.9626389,43.2155111 15.4467361,42.6985222 C14.9308333,42.1815333 14.0969444,42.1815333 13.5810417,42.6985222 L11.32875,44.9555556 L10.5555556,44.9555556 L10.5555556,41.5362889 L15.4467361,36.6348111 C15.9626389,36.1178222 15.9626389,35.2821778 15.4467361,34.7651889 C14.9308333,34.2482 14.0969444,34.2482 13.5810417,34.7651889 L10.5555556,37.7970444 L10.5555556,33.6029556 L15.4467361,28.7014778 C15.9626389,28.1844889 15.9626389,27.3488444 15.4467361,26.8318556 C14.9308333,26.3148667 14.0969444,26.3148667 13.5810417,26.8318556 L10.5555556,29.8637111 L10.5555556,25.6696222 L15.4467361,20.7681444 C15.9626389,20.2511556 15.9626389,19.4155111 15.4467361,18.8985222 C14.9308333,18.3815333 14.0969444,18.3815333 13.5810417,18.8985222 L10.5555556,21.9303778 L10.5555556,17.7362889 L15.4467361,12.8348111 C15.9626389,12.3178222 15.9626389,11.4821778 15.4467361,10.9651889 C14.9308333,10.4482 14.0969444,10.4482 13.5810417,10.9651889 L10.5555556,13.9970444 L10.5555556,9.25555556 L14.5138889,9.25555556 Z M9.52902778,58.4316444 L7.66201389,56.5607 L10.4605556,53.7562667 L12.3275694,55.6272111 L9.52902778,58.4316444 Z M21.1111111,58.1777778 L21.1111111,62.1444444 L18.4722222,62.1444444 L18.4722222,58.1777778 L21.1111111,58.1777778 Z M30.0543056,58.4316444 L27.2557639,55.6272111 L29.1227778,53.7562667 L31.9213194,56.5607 L30.0543056,58.4316444 Z M57.9394444,61.9818111 C57.9988194,61.3405333 58.0146528,60.7058667 58.0291667,60.0751667 L62.9467361,55.1459222 C63.4626389,54.6289333 63.4626389,53.7932889 62.9467361,53.2763 C62.4308333,52.7593111 61.5969444,52.7593111 61.0810417,53.2763 L57.8827083,56.4826889 C57.7454861,55.2252556 57.5066667,53.9995556 57.2071528,52.7976556 C57.3747222,52.7328667 57.534375,52.6389889 57.6689583,52.5014778 L60.3078472,49.8570333 C60.82375,49.3400444 60.82375,48.5044 60.3078472,47.9874111 C59.7919444,47.4704222 58.9580556,47.4704222 58.4421528,47.9874111 L56.3759028,50.0593333 C56.0104167,49.0518 55.5974306,48.0680667 55.12375,47.1187111 L57.6702778,44.5668222 C58.1861806,44.0498333 58.1861806,43.2141889 57.6702778,42.6972 C57.154375,42.1802111 56.3204861,42.1802111 55.8045833,42.6972 L53.781875,44.7241667 C53.2303472,43.8462111 52.6379167,42.9960222 51.9940278,42.1881444 C52.1378472,42.1233556 52.2750694,42.0400556 52.3938194,41.9223778 L53.7132639,40.6001556 C54.2291667,40.0831667 54.2291667,39.2475222 53.7132639,38.7305333 C53.1973611,38.2135444 52.3634722,38.2135444 51.8475694,38.7305333 L50.528125,40.0527556 C50.4529167,40.1281222 50.4120139,40.222 50.3579167,40.3092667 C49.6625694,39.5794 48.9144444,38.9011 48.14125,38.2505667 L49.7549306,36.6334889 C50.2708333,36.1165 50.2708333,35.2808556 49.7549306,34.7638667 C49.2390278,34.2468778 48.4051389,34.2468778 47.8892361,34.7638667 L46.0222222,36.6348111 C45.1870139,36.057 44.3148611,35.5347222 43.4176389,35.0507889 L44.4771528,33.9890444 C44.9930556,33.4720556 44.9930556,32.6364111 44.4771528,32.1194222 C43.96125,31.6024333 43.1273611,31.6024333 42.6114583,32.1194222 L41.2920139,33.4416444 C41.1574306,33.5751889 41.0624306,33.7312111 40.9977778,33.8964889 C38.0989583,32.6813667 34.9652778,31.9184444 31.6693056,31.7624222 L31.6693056,19.8531667 C52.8859722,20.5539444 69.9305556,38.0694222 69.9305556,59.5 C69.9305556,60.4863778 69.8896528,61.4992 69.8091667,62.5239222 C69.7788194,62.5054111 69.741875,62.4935111 69.7088889,62.4763222 C68.3023611,61.6935667 66.7348611,61.1712889 65.0723611,60.9518 L65.585625,60.4348111 C66.1015278,59.9178222 66.1015278,59.0821778 65.585625,58.5651889 C65.0697222,58.0482 64.2358333,58.0482 63.7199306,58.5651889 L61.2947917,60.9967556 C60.1481944,61.1765778 59.0504167,61.4952333 58.0199306,61.9514 C57.9935417,61.9606556 57.9658333,61.9712333 57.9394444,61.9818111 Z M63.3333333,63.4666667 C69.1547222,63.4666667 73.8888889,68.2121222 73.8888889,74.0444444 C73.8888889,79.8767667 69.1547222,84.6222222 63.3333333,84.6222222 C62.2949306,84.6222222 61.2921528,84.4648778 60.3434722,84.1832444 C60.811875,83.6636111 60.8079167,82.8663111 60.3078472,82.3651889 C59.7919444,81.8482 58.9580556,81.8482 58.4421528,82.3651889 L57.7850694,83.0249778 C56.9366667,82.4974111 56.1713889,81.8534889 55.50375,81.1156889 L60.3078472,76.3014778 C60.82375,75.7844889 60.82375,74.9488444 60.3078472,74.4318556 C59.7919444,73.9148667 58.9580556,73.9148667 58.4421528,74.4318556 L53.9705556,78.9128667 C53.4652083,77.9410333 53.1129167,76.8806111 52.9295139,75.7620111 L60.3078472,68.3681444 C60.82375,67.8511556 60.82375,67.0155111 60.3078472,66.4985222 C59.7919444,65.9815333 58.9580556,65.9815333 58.4421528,66.4985222 L52.98625,71.9685556 C53.9507639,67.1265778 58.223125,63.4666667 63.3333333,63.4666667 Z M10.5555556,88.5888889 L29.0277778,88.5888889 L29.0277778,89.9111111 L29.0277778,95.2 L10.5555556,95.2 L10.5555556,88.5888889 Z M31.6666667,91.2055667 C39.5780556,90.8750111 47.1028472,87.5615222 52.7104861,81.9579444 C52.6748611,81.8839 52.6511111,81.8058889 52.618125,81.7305222 C53.5404167,83.0170444 54.6777778,84.1369667 55.9893056,85.0215333 C55.8111806,84.9541 55.6356944,84.8853444 55.468125,84.8046889 C49.1281944,91.1196222 40.5993056,94.8416778 31.6666667,95.1748778 L31.6666667,91.2055667 Z M90.4175694,112.595156 C89.0440278,114.914333 86.5186111,116.355556 83.8282639,116.355556 L46.7268056,116.355556 L52.3911806,110.679256 C52.9070833,110.162267 52.9070833,109.326622 52.3911806,108.809633 C51.8752778,108.292644 51.0413889,108.292644 50.5254861,108.809633 L42.9954167,116.355556 L38.8101389,116.355556 L52.3911806,102.745922 C52.9070833,102.228933 52.9070833,101.393289 52.3911806,100.8763 C51.8752778,100.359311 51.0413889,100.359311 50.5254861,100.8763 L35.07875,116.355556 L33.7157639,116.355556 L36.1738889,110.934444 C36.3111111,110.869656 36.444375,110.792967 36.5578472,110.679256 L52.3911806,94.8125889 C52.9070833,94.2956 52.9070833,93.4599556 52.3911806,92.9429667 C51.8752778,92.4259778 51.0413889,92.4259778 50.5254861,92.9429667 L39.1769444,104.316722 L43.1036111,95.6601333 C43.0693056,95.6627778 43.0310417,95.6627778 42.9967361,95.6654222 C48.5977778,93.6939889 53.7185417,90.4307444 57.9011806,86.0806333 C59.5610417,86.8356222 61.3950694,87.2666667 63.3333333,87.2666667 C69.1059028,87.2666667 74.0102778,83.5274222 75.798125,78.3443111 C75.798125,78.3456333 75.798125,78.3469556 75.798125,78.3482778 C75.8311111,78.2570444 75.8706944,78.1684556 75.9010417,78.0772222 L90.5534722,105.000311 C91.8425694,107.365767 91.7911111,110.2773 90.4175694,112.595156 Z" id="Shape"></path>
                        </g>
                    </g>
                    <path d="M108.701806,118.595156 C107.328264,120.914333 104.802847,122.355556 102.1125,122.355556 L65.0110417,122.355556 L70.6754167,116.679256 C71.1913194,116.162267 71.1913194,115.326622 70.6754167,114.809633 C70.1595139,114.292644 69.325625,114.292644 68.8097222,114.809633 L61.2796528,122.355556 L57.094375,122.355556 L70.6754167,108.745922 C71.1913194,108.228933 71.1913194,107.393289 70.6754167,106.8763 C70.1595139,106.359311 69.325625,106.359311 68.8097222,106.8763 L53.3629861,122.355556 L52,122.355556 L54.458125,116.934444 C54.5953472,116.869656 54.7286111,116.792967 54.8420833,116.679256 L70.6754167,100.812589 C71.1913194,100.2956 71.1913194,99.4599556 70.6754167,98.9429667 C70.1595139,98.4259778 69.325625,98.4259778 68.8097222,98.9429667 L57.4611806,110.316722 L61.3878472,101.660133 C61.3535417,101.662778 61.3152778,101.662778 61.2809722,101.665422 C66.8820139,99.6939889 72.0027778,96.4307444 76.1854167,92.0806333 C77.8452778,92.8356222 79.6793056,93.2666667 81.6175694,93.2666667 C87.3901389,93.2666667 92.2945139,89.5274222 94.0823611,84.3443111 C94.0823611,84.3456333 94.0823611,84.3469556 94.0823611,84.3482778 C94.1153472,84.2570444 94.1549306,84.1684556 94.1852778,84.0772222 L108.837708,111.000311 C110.126806,113.365767 110.075347,116.2773 108.701806,118.595156 Z" id="Path" fill="#00D39D" opacity="0.3"></path>
                    <path d="M75.9394444,67.9818111 C75.9988194,67.3405333 76.0146528,66.7058667 76.0291667,66.0751667 L80.9467361,61.1459222 C81.4626389,60.6289333 81.4626389,59.7932889 80.9467361,59.2763 C80.4308333,58.7593111 79.5969444,58.7593111 79.0810417,59.2763 L75.8827083,62.4826889 C75.7454861,61.2252556 75.5066667,59.9995556 75.2071528,58.7976556 C75.3747222,58.7328667 75.534375,58.6389889 75.6689583,58.5014778 L78.3078472,55.8570333 C78.82375,55.3400444 78.82375,54.5044 78.3078472,53.9874111 C77.7919444,53.4704222 76.9580556,53.4704222 76.4421528,53.9874111 L74.3759028,56.0593333 C74.0104167,55.0518 73.5974306,54.0680667 73.12375,53.1187111 L75.6702778,50.5668222 C76.1861806,50.0498333 76.1861806,49.2141889 75.6702778,48.6972 C75.154375,48.1802111 74.3204861,48.1802111 73.8045833,48.6972 L71.781875,50.7241667 C71.2303472,49.8462111 70.6379167,48.9960222 69.9940278,48.1881444 C70.1378472,48.1233556 70.2750694,48.0400556 70.3938194,47.9223778 L71.7132639,46.6001556 C72.2291667,46.0831667 72.2291667,45.2475222 71.7132639,44.7305333 C71.1973611,44.2135444 70.3634722,44.2135444 69.8475694,44.7305333 L68.528125,46.0527556 C68.4529167,46.1281222 68.4120139,46.222 68.3579167,46.3092667 C67.6625694,45.5794 66.9144444,44.9011 66.14125,44.2505667 L67.7549306,42.6334889 C68.2708333,42.1165 68.2708333,41.2808556 67.7549306,40.7638667 C67.2390278,40.2468778 66.4051389,40.2468778 65.8892361,40.7638667 L64.0222222,42.6348111 C63.1870139,42.057 62.3148611,41.5347222 61.4176389,41.0507889 L62.4771528,39.9890444 C62.9930556,39.4720556 62.9930556,38.6364111 62.4771528,38.1194222 C61.96125,37.6024333 61.1273611,37.6024333 60.6114583,38.1194222 L59.2920139,39.4416444 C59.1574306,39.5751889 59.0624306,39.7312111 58.9977778,39.8964889 C56.0989583,38.6813667 52.9652778,37.9184444 49.6693056,37.7624222 L49.6693056,25.8531667 C70.8859722,26.5539444 87.9305556,44.0694222 87.9305556,65.5 C87.9305556,66.4863778 87.8896528,67.4992 87.8091667,68.5239222 C87.7788194,68.5054111 87.741875,68.4935111 87.7088889,68.4763222 C86.3023611,67.6935667 84.7348611,67.1712889 83.0723611,66.9518 L83.585625,66.4348111 C84.1015278,65.9178222 84.1015278,65.0821778 83.585625,64.5651889 C83.0697222,64.0482 82.2358333,64.0482 81.7199306,64.5651889 L79.2947917,66.9967556 C78.1481944,67.1765778 77.0504167,67.4952333 76.0199306,67.9514 C75.9935417,67.9606556 75.9658333,67.9712333 75.9394444,67.9818111 Z" id="Path" fill="#00D39D" opacity="0.3"></path>
                    <path d="M50,97.4750444 C57.9113889,97.1444889 65.4361806,93.831 71.0438194,88.2274222 C71.0081944,88.1533778 70.9844444,88.0753667 70.9514583,88 C71.87375,89.2865222 73.0111111,90.4064444 74.3226389,91.2910111 C74.1445139,91.2235778 73.9690278,91.1548222 73.8014583,91.0741667 C67.4615278,97.3891 58.9326389,101.111156 50,101.444356 L50,97.4750444 Z" id="Path" fill="#00D39D" opacity="0.3"></path>
                </g>
            </g>
        </g>
    </g>
</svg>